%FSLAX45Y45*%
G04 Gerber Fmt 4.5, Leading zero omitted, Abs format (unit mm)*
G04 Created by KiCad (PCBNEW 5.0.2-bee76a0~70~ubuntu18.04.1) date Thu 14 Nov 2019 06:25:59 PM EST*
%MOMM*%
%LPD*%
G01*
G04 APERTURE LIST*
%ADD10C,0.150000*%
%ADD11C,0.200000*%
%ADD12C,0.300000*%
G04 APERTURE END LIST*
D10*
X1125000Y450000D02*
G75*
G02X1225000Y350000I0J-100000D01*
G01*
X1225000Y175000D02*
X1225000Y350000D01*
X1400000Y0D02*
G75*
G02X1225000Y175000I0J175000D01*
G01*
X3650000Y0D02*
X1400000Y0D01*
X3825000Y175000D02*
G75*
G02X3650000Y0I-175000J0D01*
G01*
X3825000Y1900000D02*
X3825000Y175000D01*
X3650000Y2075000D02*
G75*
G02X3825000Y1900000I0J-175000D01*
G01*
X1400000Y2075000D02*
X3650000Y2075000D01*
X1225000Y1900000D02*
G75*
G02X1400000Y2075000I175000J0D01*
G01*
X1225000Y1725000D02*
X1225000Y1900000D01*
X1225000Y1725000D02*
G75*
G02X1125000Y1625000I-100000J0D01*
G01*
X0Y1625000D02*
X1125000Y1625000D01*
X0Y450000D02*
X0Y1625000D01*
X1125000Y450000D02*
X0Y450000D01*
D11*
X1462500Y535000D02*
X1522500Y475000D01*
X1522500Y535000D02*
X1462500Y475000D01*
X1462837Y1755001D02*
X1522837Y1695001D01*
X1522837Y1755001D02*
X1462837Y1695001D01*
X2425000Y1027500D02*
X2485000Y967500D01*
X2485000Y1027500D02*
X2425000Y967500D01*
X2425000Y835000D02*
X2485000Y775000D01*
X2485000Y835000D02*
X2425000Y775000D01*
X2795000Y1210000D02*
X2855000Y1150000D01*
X2855000Y1210000D02*
X2795000Y1150000D01*
X3375000Y532500D02*
X3435000Y472500D01*
X3435000Y532500D02*
X3375000Y472500D01*
X3593933Y554318D02*
X3653933Y494318D01*
X3653933Y554318D02*
X3593933Y494318D01*
X3692500Y1225000D02*
X3752500Y1165000D01*
X3752500Y1225000D02*
X3692500Y1165000D01*
X2253422Y1743763D02*
G75*
G03X2253422Y1743763I-32500J0D01*
G01*
X2253422Y343763D02*
G75*
G03X2253422Y343763I-32500J0D01*
G01*
X2453422Y1743763D02*
G75*
G03X2453422Y1743763I-32500J0D01*
G01*
X2453422Y343763D02*
G75*
G03X2453422Y343763I-32500J0D01*
G01*
X2653422Y1743763D02*
G75*
G03X2653422Y1743763I-32500J0D01*
G01*
X2653422Y343763D02*
G75*
G03X2653422Y343763I-32500J0D01*
G01*
X2853422Y1743763D02*
G75*
G03X2853422Y1743763I-32500J0D01*
G01*
X2853422Y343763D02*
G75*
G03X2853422Y343763I-32500J0D01*
G01*
X3053422Y1743763D02*
G75*
G03X3053422Y1743763I-32500J0D01*
G01*
X3053422Y343763D02*
G75*
G03X3053422Y343763I-32500J0D01*
G01*
X3253422Y1743763D02*
G75*
G03X3253422Y1743763I-32500J0D01*
G01*
X3253422Y343763D02*
G75*
G03X3253422Y343763I-32500J0D01*
G01*
X3453422Y1743763D02*
G75*
G03X3453422Y1743763I-32500J0D01*
G01*
X3453422Y343763D02*
G75*
G03X3453422Y343763I-32500J0D01*
G01*
X3653422Y1743763D02*
G75*
G03X3653422Y1743763I-32500J0D01*
G01*
X3653422Y343763D02*
G75*
G03X3653422Y343763I-32500J0D01*
G01*
X1345000Y1900000D02*
X1345000Y1800000D01*
X1295000Y1850000D02*
X1395000Y1850000D01*
X2005000Y1900000D02*
X2005000Y1800000D01*
X1955000Y1850000D02*
X2055000Y1850000D01*
X1345000Y275000D02*
X1345000Y175000D01*
X1295000Y225000D02*
X1395000Y225000D01*
X2005000Y275000D02*
X2005000Y175000D01*
X1955000Y225000D02*
X2055000Y225000D01*
D12*
X278928Y-473214D02*
X278928Y-173214D01*
X350357Y-173214D01*
X393214Y-187500D01*
X421786Y-216071D01*
X436071Y-244643D01*
X450357Y-301786D01*
X450357Y-344643D01*
X436071Y-401786D01*
X421786Y-430357D01*
X393214Y-458929D01*
X350357Y-473214D01*
X278928Y-473214D01*
X578928Y-473214D02*
X578928Y-273214D01*
X578928Y-330357D02*
X593214Y-301786D01*
X607500Y-287500D01*
X636071Y-273214D01*
X664643Y-273214D01*
X764643Y-473214D02*
X764643Y-273214D01*
X764643Y-173214D02*
X750357Y-187500D01*
X764643Y-201786D01*
X778928Y-187500D01*
X764643Y-173214D01*
X764643Y-201786D01*
X950357Y-473214D02*
X921786Y-458929D01*
X907500Y-430357D01*
X907500Y-173214D01*
X1107500Y-473214D02*
X1078928Y-458929D01*
X1064643Y-430357D01*
X1064643Y-173214D01*
X1450357Y-473214D02*
X1450357Y-173214D01*
X1550357Y-387500D01*
X1650357Y-173214D01*
X1650357Y-473214D01*
X1921786Y-473214D02*
X1921786Y-316072D01*
X1907500Y-287500D01*
X1878928Y-273214D01*
X1821786Y-273214D01*
X1793214Y-287500D01*
X1921786Y-458929D02*
X1893214Y-473214D01*
X1821786Y-473214D01*
X1793214Y-458929D01*
X1778928Y-430357D01*
X1778928Y-401786D01*
X1793214Y-373214D01*
X1821786Y-358929D01*
X1893214Y-358929D01*
X1921786Y-344643D01*
X2064643Y-273214D02*
X2064643Y-573214D01*
X2064643Y-287500D02*
X2093214Y-273214D01*
X2150357Y-273214D01*
X2178928Y-287500D01*
X2193214Y-301786D01*
X2207500Y-330357D01*
X2207500Y-416071D01*
X2193214Y-444643D01*
X2178928Y-458929D01*
X2150357Y-473214D01*
X2093214Y-473214D01*
X2064643Y-458929D01*
X2336071Y-444643D02*
X2350357Y-458929D01*
X2336071Y-473214D01*
X2321786Y-458929D01*
X2336071Y-444643D01*
X2336071Y-473214D01*
X2336071Y-287500D02*
X2350357Y-301786D01*
X2336071Y-316072D01*
X2321786Y-301786D01*
X2336071Y-287500D01*
X2336071Y-316072D01*
X-67500Y-937500D02*
X-7500Y-997500D01*
X-7500Y-937500D02*
X-67500Y-997500D01*
X336071Y-803214D02*
X364643Y-803214D01*
X393214Y-817500D01*
X407500Y-831786D01*
X421786Y-860357D01*
X436071Y-917500D01*
X436071Y-988929D01*
X421786Y-1046071D01*
X407500Y-1074643D01*
X393214Y-1088929D01*
X364643Y-1103214D01*
X336071Y-1103214D01*
X307500Y-1088929D01*
X293214Y-1074643D01*
X278928Y-1046071D01*
X264643Y-988929D01*
X264643Y-917500D01*
X278928Y-860357D01*
X293214Y-831786D01*
X307500Y-817500D01*
X336071Y-803214D01*
X564643Y-1074643D02*
X578928Y-1088929D01*
X564643Y-1103214D01*
X550357Y-1088929D01*
X564643Y-1074643D01*
X564643Y-1103214D01*
X836071Y-803214D02*
X778928Y-803214D01*
X750357Y-817500D01*
X736071Y-831786D01*
X707500Y-874643D01*
X693214Y-931786D01*
X693214Y-1046071D01*
X707500Y-1074643D01*
X721786Y-1088929D01*
X750357Y-1103214D01*
X807500Y-1103214D01*
X836071Y-1088929D01*
X850357Y-1074643D01*
X864643Y-1046071D01*
X864643Y-974643D01*
X850357Y-946071D01*
X836071Y-931786D01*
X807500Y-917500D01*
X750357Y-917500D01*
X721786Y-931786D01*
X707500Y-946071D01*
X693214Y-974643D01*
X1050357Y-803214D02*
X1078928Y-803214D01*
X1107500Y-817500D01*
X1121786Y-831786D01*
X1136071Y-860357D01*
X1150357Y-917500D01*
X1150357Y-988929D01*
X1136071Y-1046071D01*
X1121786Y-1074643D01*
X1107500Y-1088929D01*
X1078928Y-1103214D01*
X1050357Y-1103214D01*
X1021786Y-1088929D01*
X1007500Y-1074643D01*
X993214Y-1046071D01*
X978928Y-988929D01*
X978928Y-917500D01*
X993214Y-860357D01*
X1007500Y-831786D01*
X1021786Y-817500D01*
X1050357Y-803214D01*
X1278928Y-1103214D02*
X1278928Y-903214D01*
X1278928Y-931786D02*
X1293214Y-917500D01*
X1321786Y-903214D01*
X1364643Y-903214D01*
X1393214Y-917500D01*
X1407500Y-946071D01*
X1407500Y-1103214D01*
X1407500Y-946071D02*
X1421786Y-917500D01*
X1450357Y-903214D01*
X1493214Y-903214D01*
X1521786Y-917500D01*
X1536071Y-946071D01*
X1536071Y-1103214D01*
X1678928Y-1103214D02*
X1678928Y-903214D01*
X1678928Y-931786D02*
X1693214Y-917500D01*
X1721786Y-903214D01*
X1764643Y-903214D01*
X1793214Y-917500D01*
X1807500Y-946071D01*
X1807500Y-1103214D01*
X1807500Y-946071D02*
X1821786Y-917500D01*
X1850357Y-903214D01*
X1893214Y-903214D01*
X1921786Y-917500D01*
X1936071Y-946071D01*
X1936071Y-1103214D01*
X2521786Y-788929D02*
X2264643Y-1174643D01*
X2907500Y-803214D02*
X2936071Y-803214D01*
X2964643Y-817500D01*
X2978928Y-831786D01*
X2993214Y-860357D01*
X3007500Y-917500D01*
X3007500Y-988929D01*
X2993214Y-1046071D01*
X2978928Y-1074643D01*
X2964643Y-1088929D01*
X2936071Y-1103214D01*
X2907500Y-1103214D01*
X2878928Y-1088929D01*
X2864643Y-1074643D01*
X2850357Y-1046071D01*
X2836071Y-988929D01*
X2836071Y-917500D01*
X2850357Y-860357D01*
X2864643Y-831786D01*
X2878928Y-817500D01*
X2907500Y-803214D01*
X3136071Y-1074643D02*
X3150357Y-1088929D01*
X3136071Y-1103214D01*
X3121786Y-1088929D01*
X3136071Y-1074643D01*
X3136071Y-1103214D01*
X3336071Y-803214D02*
X3364643Y-803214D01*
X3393214Y-817500D01*
X3407500Y-831786D01*
X3421786Y-860357D01*
X3436071Y-917500D01*
X3436071Y-988929D01*
X3421786Y-1046071D01*
X3407500Y-1074643D01*
X3393214Y-1088929D01*
X3364643Y-1103214D01*
X3336071Y-1103214D01*
X3307500Y-1088929D01*
X3293214Y-1074643D01*
X3278928Y-1046071D01*
X3264643Y-988929D01*
X3264643Y-917500D01*
X3278928Y-860357D01*
X3293214Y-831786D01*
X3307500Y-817500D01*
X3336071Y-803214D01*
X3550357Y-831786D02*
X3564643Y-817500D01*
X3593214Y-803214D01*
X3664643Y-803214D01*
X3693214Y-817500D01*
X3707500Y-831786D01*
X3721786Y-860357D01*
X3721786Y-888929D01*
X3707500Y-931786D01*
X3536071Y-1103214D01*
X3721786Y-1103214D01*
X3978928Y-903214D02*
X3978928Y-1103214D01*
X3907500Y-788929D02*
X3836071Y-1003214D01*
X4021786Y-1003214D01*
X4121786Y-803214D02*
X4121786Y-860357D01*
X4236071Y-803214D02*
X4236071Y-860357D01*
X4678928Y-1217500D02*
X4664643Y-1203214D01*
X4636071Y-1160357D01*
X4621786Y-1131786D01*
X4607500Y-1088929D01*
X4593214Y-1017500D01*
X4593214Y-960357D01*
X4607500Y-888929D01*
X4621786Y-846071D01*
X4636071Y-817500D01*
X4664643Y-774643D01*
X4678928Y-760357D01*
X4836071Y-931786D02*
X4807500Y-917500D01*
X4793214Y-903214D01*
X4778928Y-874643D01*
X4778928Y-860357D01*
X4793214Y-831786D01*
X4807500Y-817500D01*
X4836071Y-803214D01*
X4893214Y-803214D01*
X4921786Y-817500D01*
X4936071Y-831786D01*
X4950357Y-860357D01*
X4950357Y-874643D01*
X4936071Y-903214D01*
X4921786Y-917500D01*
X4893214Y-931786D01*
X4836071Y-931786D01*
X4807500Y-946071D01*
X4793214Y-960357D01*
X4778928Y-988929D01*
X4778928Y-1046071D01*
X4793214Y-1074643D01*
X4807500Y-1088929D01*
X4836071Y-1103214D01*
X4893214Y-1103214D01*
X4921786Y-1088929D01*
X4936071Y-1074643D01*
X4950357Y-1046071D01*
X4950357Y-988929D01*
X4936071Y-960357D01*
X4921786Y-946071D01*
X4893214Y-931786D01*
X5307500Y-1103214D02*
X5307500Y-803214D01*
X5436071Y-1103214D02*
X5436071Y-946071D01*
X5421786Y-917500D01*
X5393214Y-903214D01*
X5350357Y-903214D01*
X5321786Y-917500D01*
X5307500Y-931786D01*
X5621786Y-1103214D02*
X5593214Y-1088929D01*
X5578928Y-1074643D01*
X5564643Y-1046071D01*
X5564643Y-960357D01*
X5578928Y-931786D01*
X5593214Y-917500D01*
X5621786Y-903214D01*
X5664643Y-903214D01*
X5693214Y-917500D01*
X5707500Y-931786D01*
X5721786Y-960357D01*
X5721786Y-1046071D01*
X5707500Y-1074643D01*
X5693214Y-1088929D01*
X5664643Y-1103214D01*
X5621786Y-1103214D01*
X5893214Y-1103214D02*
X5864643Y-1088929D01*
X5850357Y-1060357D01*
X5850357Y-803214D01*
X6121786Y-1088929D02*
X6093214Y-1103214D01*
X6036071Y-1103214D01*
X6007500Y-1088929D01*
X5993214Y-1060357D01*
X5993214Y-946071D01*
X6007500Y-917500D01*
X6036071Y-903214D01*
X6093214Y-903214D01*
X6121786Y-917500D01*
X6136071Y-946071D01*
X6136071Y-974643D01*
X5993214Y-1003214D01*
X6250357Y-1088929D02*
X6278928Y-1103214D01*
X6336071Y-1103214D01*
X6364643Y-1088929D01*
X6378928Y-1060357D01*
X6378928Y-1046071D01*
X6364643Y-1017500D01*
X6336071Y-1003214D01*
X6293214Y-1003214D01*
X6264643Y-988929D01*
X6250357Y-960357D01*
X6250357Y-946071D01*
X6264643Y-917500D01*
X6293214Y-903214D01*
X6336071Y-903214D01*
X6364643Y-917500D01*
X6478928Y-1217500D02*
X6493214Y-1203214D01*
X6521786Y-1160357D01*
X6536071Y-1131786D01*
X6550357Y-1088929D01*
X6564643Y-1017500D01*
X6564643Y-960357D01*
X6550357Y-888929D01*
X6536071Y-846071D01*
X6521786Y-817500D01*
X6493214Y-774643D01*
X6478928Y-760357D01*
X-7500Y-1363500D02*
G75*
G03X-7500Y-1363500I-32500J0D01*
G01*
X336071Y-1199214D02*
X364643Y-1199214D01*
X393214Y-1213500D01*
X407500Y-1227786D01*
X421786Y-1256357D01*
X436071Y-1313500D01*
X436071Y-1384929D01*
X421786Y-1442071D01*
X407500Y-1470643D01*
X393214Y-1484929D01*
X364643Y-1499214D01*
X336071Y-1499214D01*
X307500Y-1484929D01*
X293214Y-1470643D01*
X278928Y-1442071D01*
X264643Y-1384929D01*
X264643Y-1313500D01*
X278928Y-1256357D01*
X293214Y-1227786D01*
X307500Y-1213500D01*
X336071Y-1199214D01*
X564643Y-1470643D02*
X578928Y-1484929D01*
X564643Y-1499214D01*
X550357Y-1484929D01*
X564643Y-1470643D01*
X564643Y-1499214D01*
X836071Y-1199214D02*
X778928Y-1199214D01*
X750357Y-1213500D01*
X736071Y-1227786D01*
X707500Y-1270643D01*
X693214Y-1327786D01*
X693214Y-1442071D01*
X707500Y-1470643D01*
X721786Y-1484929D01*
X750357Y-1499214D01*
X807500Y-1499214D01*
X836071Y-1484929D01*
X850357Y-1470643D01*
X864643Y-1442071D01*
X864643Y-1370643D01*
X850357Y-1342072D01*
X836071Y-1327786D01*
X807500Y-1313500D01*
X750357Y-1313500D01*
X721786Y-1327786D01*
X707500Y-1342072D01*
X693214Y-1370643D01*
X1136071Y-1199214D02*
X993214Y-1199214D01*
X978928Y-1342072D01*
X993214Y-1327786D01*
X1021786Y-1313500D01*
X1093214Y-1313500D01*
X1121786Y-1327786D01*
X1136071Y-1342072D01*
X1150357Y-1370643D01*
X1150357Y-1442071D01*
X1136071Y-1470643D01*
X1121786Y-1484929D01*
X1093214Y-1499214D01*
X1021786Y-1499214D01*
X993214Y-1484929D01*
X978928Y-1470643D01*
X1278928Y-1499214D02*
X1278928Y-1299214D01*
X1278928Y-1327786D02*
X1293214Y-1313500D01*
X1321786Y-1299214D01*
X1364643Y-1299214D01*
X1393214Y-1313500D01*
X1407500Y-1342072D01*
X1407500Y-1499214D01*
X1407500Y-1342072D02*
X1421786Y-1313500D01*
X1450357Y-1299214D01*
X1493214Y-1299214D01*
X1521786Y-1313500D01*
X1536071Y-1342072D01*
X1536071Y-1499214D01*
X1678928Y-1499214D02*
X1678928Y-1299214D01*
X1678928Y-1327786D02*
X1693214Y-1313500D01*
X1721786Y-1299214D01*
X1764643Y-1299214D01*
X1793214Y-1313500D01*
X1807500Y-1342072D01*
X1807500Y-1499214D01*
X1807500Y-1342072D02*
X1821786Y-1313500D01*
X1850357Y-1299214D01*
X1893214Y-1299214D01*
X1921786Y-1313500D01*
X1936071Y-1342072D01*
X1936071Y-1499214D01*
X2521786Y-1184929D02*
X2264643Y-1570643D01*
X2907500Y-1199214D02*
X2936071Y-1199214D01*
X2964643Y-1213500D01*
X2978928Y-1227786D01*
X2993214Y-1256357D01*
X3007500Y-1313500D01*
X3007500Y-1384929D01*
X2993214Y-1442071D01*
X2978928Y-1470643D01*
X2964643Y-1484929D01*
X2936071Y-1499214D01*
X2907500Y-1499214D01*
X2878928Y-1484929D01*
X2864643Y-1470643D01*
X2850357Y-1442071D01*
X2836071Y-1384929D01*
X2836071Y-1313500D01*
X2850357Y-1256357D01*
X2864643Y-1227786D01*
X2878928Y-1213500D01*
X2907500Y-1199214D01*
X3136071Y-1470643D02*
X3150357Y-1484929D01*
X3136071Y-1499214D01*
X3121786Y-1484929D01*
X3136071Y-1470643D01*
X3136071Y-1499214D01*
X3336071Y-1199214D02*
X3364643Y-1199214D01*
X3393214Y-1213500D01*
X3407500Y-1227786D01*
X3421786Y-1256357D01*
X3436071Y-1313500D01*
X3436071Y-1384929D01*
X3421786Y-1442071D01*
X3407500Y-1470643D01*
X3393214Y-1484929D01*
X3364643Y-1499214D01*
X3336071Y-1499214D01*
X3307500Y-1484929D01*
X3293214Y-1470643D01*
X3278928Y-1442071D01*
X3264643Y-1384929D01*
X3264643Y-1313500D01*
X3278928Y-1256357D01*
X3293214Y-1227786D01*
X3307500Y-1213500D01*
X3336071Y-1199214D01*
X3550357Y-1227786D02*
X3564643Y-1213500D01*
X3593214Y-1199214D01*
X3664643Y-1199214D01*
X3693214Y-1213500D01*
X3707500Y-1227786D01*
X3721786Y-1256357D01*
X3721786Y-1284929D01*
X3707500Y-1327786D01*
X3536071Y-1499214D01*
X3721786Y-1499214D01*
X3978928Y-1199214D02*
X3921786Y-1199214D01*
X3893214Y-1213500D01*
X3878928Y-1227786D01*
X3850357Y-1270643D01*
X3836071Y-1327786D01*
X3836071Y-1442071D01*
X3850357Y-1470643D01*
X3864643Y-1484929D01*
X3893214Y-1499214D01*
X3950357Y-1499214D01*
X3978928Y-1484929D01*
X3993214Y-1470643D01*
X4007500Y-1442071D01*
X4007500Y-1370643D01*
X3993214Y-1342072D01*
X3978928Y-1327786D01*
X3950357Y-1313500D01*
X3893214Y-1313500D01*
X3864643Y-1327786D01*
X3850357Y-1342072D01*
X3836071Y-1370643D01*
X4121786Y-1199214D02*
X4121786Y-1256357D01*
X4236071Y-1199214D02*
X4236071Y-1256357D01*
X4678928Y-1613500D02*
X4664643Y-1599214D01*
X4636071Y-1556357D01*
X4621786Y-1527786D01*
X4607500Y-1484929D01*
X4593214Y-1413500D01*
X4593214Y-1356357D01*
X4607500Y-1284929D01*
X4621786Y-1242072D01*
X4636071Y-1213500D01*
X4664643Y-1170643D01*
X4678928Y-1156357D01*
X4950357Y-1499214D02*
X4778928Y-1499214D01*
X4864643Y-1499214D02*
X4864643Y-1199214D01*
X4836071Y-1242072D01*
X4807500Y-1270643D01*
X4778928Y-1284929D01*
X5207500Y-1199214D02*
X5150357Y-1199214D01*
X5121786Y-1213500D01*
X5107500Y-1227786D01*
X5078928Y-1270643D01*
X5064643Y-1327786D01*
X5064643Y-1442071D01*
X5078928Y-1470643D01*
X5093214Y-1484929D01*
X5121786Y-1499214D01*
X5178928Y-1499214D01*
X5207500Y-1484929D01*
X5221786Y-1470643D01*
X5236071Y-1442071D01*
X5236071Y-1370643D01*
X5221786Y-1342072D01*
X5207500Y-1327786D01*
X5178928Y-1313500D01*
X5121786Y-1313500D01*
X5093214Y-1327786D01*
X5078928Y-1342072D01*
X5064643Y-1370643D01*
X5593214Y-1499214D02*
X5593214Y-1199214D01*
X5721786Y-1499214D02*
X5721786Y-1342072D01*
X5707500Y-1313500D01*
X5678928Y-1299214D01*
X5636071Y-1299214D01*
X5607500Y-1313500D01*
X5593214Y-1327786D01*
X5907500Y-1499214D02*
X5878928Y-1484929D01*
X5864643Y-1470643D01*
X5850357Y-1442071D01*
X5850357Y-1356357D01*
X5864643Y-1327786D01*
X5878928Y-1313500D01*
X5907500Y-1299214D01*
X5950357Y-1299214D01*
X5978928Y-1313500D01*
X5993214Y-1327786D01*
X6007500Y-1356357D01*
X6007500Y-1442071D01*
X5993214Y-1470643D01*
X5978928Y-1484929D01*
X5950357Y-1499214D01*
X5907500Y-1499214D01*
X6178928Y-1499214D02*
X6150357Y-1484929D01*
X6136071Y-1456357D01*
X6136071Y-1199214D01*
X6407500Y-1484929D02*
X6378928Y-1499214D01*
X6321786Y-1499214D01*
X6293214Y-1484929D01*
X6278928Y-1456357D01*
X6278928Y-1342072D01*
X6293214Y-1313500D01*
X6321786Y-1299214D01*
X6378928Y-1299214D01*
X6407500Y-1313500D01*
X6421786Y-1342072D01*
X6421786Y-1370643D01*
X6278928Y-1399214D01*
X6536071Y-1484929D02*
X6564643Y-1499214D01*
X6621786Y-1499214D01*
X6650357Y-1484929D01*
X6664643Y-1456357D01*
X6664643Y-1442071D01*
X6650357Y-1413500D01*
X6621786Y-1399214D01*
X6578928Y-1399214D01*
X6550357Y-1384929D01*
X6536071Y-1356357D01*
X6536071Y-1342072D01*
X6550357Y-1313500D01*
X6578928Y-1299214D01*
X6621786Y-1299214D01*
X6650357Y-1313500D01*
X6764643Y-1613500D02*
X6778928Y-1599214D01*
X6807500Y-1556357D01*
X6821786Y-1527786D01*
X6836071Y-1484929D01*
X6850357Y-1413500D01*
X6850357Y-1356357D01*
X6836071Y-1284929D01*
X6821786Y-1242072D01*
X6807500Y-1213500D01*
X6778928Y-1170643D01*
X6764643Y-1156357D01*
X-57500Y-1709500D02*
X-57500Y-1809500D01*
X-107500Y-1759500D02*
X-7500Y-1759500D01*
X436071Y-1895214D02*
X264643Y-1895214D01*
X350357Y-1895214D02*
X350357Y-1595214D01*
X321786Y-1638071D01*
X293214Y-1666643D01*
X264643Y-1680929D01*
X564643Y-1866643D02*
X578928Y-1880929D01*
X564643Y-1895214D01*
X550357Y-1880929D01*
X564643Y-1866643D01*
X564643Y-1895214D01*
X764643Y-1595214D02*
X793214Y-1595214D01*
X821786Y-1609500D01*
X836071Y-1623786D01*
X850357Y-1652357D01*
X864643Y-1709500D01*
X864643Y-1780929D01*
X850357Y-1838071D01*
X836071Y-1866643D01*
X821786Y-1880929D01*
X793214Y-1895214D01*
X764643Y-1895214D01*
X736071Y-1880929D01*
X721786Y-1866643D01*
X707500Y-1838071D01*
X693214Y-1780929D01*
X693214Y-1709500D01*
X707500Y-1652357D01*
X721786Y-1623786D01*
X736071Y-1609500D01*
X764643Y-1595214D01*
X1050357Y-1595214D02*
X1078928Y-1595214D01*
X1107500Y-1609500D01*
X1121786Y-1623786D01*
X1136071Y-1652357D01*
X1150357Y-1709500D01*
X1150357Y-1780929D01*
X1136071Y-1838071D01*
X1121786Y-1866643D01*
X1107500Y-1880929D01*
X1078928Y-1895214D01*
X1050357Y-1895214D01*
X1021786Y-1880929D01*
X1007500Y-1866643D01*
X993214Y-1838071D01*
X978928Y-1780929D01*
X978928Y-1709500D01*
X993214Y-1652357D01*
X1007500Y-1623786D01*
X1021786Y-1609500D01*
X1050357Y-1595214D01*
X1278928Y-1895214D02*
X1278928Y-1695214D01*
X1278928Y-1723786D02*
X1293214Y-1709500D01*
X1321786Y-1695214D01*
X1364643Y-1695214D01*
X1393214Y-1709500D01*
X1407500Y-1738071D01*
X1407500Y-1895214D01*
X1407500Y-1738071D02*
X1421786Y-1709500D01*
X1450357Y-1695214D01*
X1493214Y-1695214D01*
X1521786Y-1709500D01*
X1536071Y-1738071D01*
X1536071Y-1895214D01*
X1678928Y-1895214D02*
X1678928Y-1695214D01*
X1678928Y-1723786D02*
X1693214Y-1709500D01*
X1721786Y-1695214D01*
X1764643Y-1695214D01*
X1793214Y-1709500D01*
X1807500Y-1738071D01*
X1807500Y-1895214D01*
X1807500Y-1738071D02*
X1821786Y-1709500D01*
X1850357Y-1695214D01*
X1893214Y-1695214D01*
X1921786Y-1709500D01*
X1936071Y-1738071D01*
X1936071Y-1895214D01*
X2521786Y-1580929D02*
X2264643Y-1966643D01*
X2907500Y-1595214D02*
X2936071Y-1595214D01*
X2964643Y-1609500D01*
X2978928Y-1623786D01*
X2993214Y-1652357D01*
X3007500Y-1709500D01*
X3007500Y-1780929D01*
X2993214Y-1838071D01*
X2978928Y-1866643D01*
X2964643Y-1880929D01*
X2936071Y-1895214D01*
X2907500Y-1895214D01*
X2878928Y-1880929D01*
X2864643Y-1866643D01*
X2850357Y-1838071D01*
X2836071Y-1780929D01*
X2836071Y-1709500D01*
X2850357Y-1652357D01*
X2864643Y-1623786D01*
X2878928Y-1609500D01*
X2907500Y-1595214D01*
X3136071Y-1866643D02*
X3150357Y-1880929D01*
X3136071Y-1895214D01*
X3121786Y-1880929D01*
X3136071Y-1866643D01*
X3136071Y-1895214D01*
X3336071Y-1595214D02*
X3364643Y-1595214D01*
X3393214Y-1609500D01*
X3407500Y-1623786D01*
X3421786Y-1652357D01*
X3436071Y-1709500D01*
X3436071Y-1780929D01*
X3421786Y-1838071D01*
X3407500Y-1866643D01*
X3393214Y-1880929D01*
X3364643Y-1895214D01*
X3336071Y-1895214D01*
X3307500Y-1880929D01*
X3293214Y-1866643D01*
X3278928Y-1838071D01*
X3264643Y-1780929D01*
X3264643Y-1709500D01*
X3278928Y-1652357D01*
X3293214Y-1623786D01*
X3307500Y-1609500D01*
X3336071Y-1595214D01*
X3536071Y-1595214D02*
X3721786Y-1595214D01*
X3621786Y-1709500D01*
X3664643Y-1709500D01*
X3693214Y-1723786D01*
X3707500Y-1738071D01*
X3721786Y-1766643D01*
X3721786Y-1838071D01*
X3707500Y-1866643D01*
X3693214Y-1880929D01*
X3664643Y-1895214D01*
X3578928Y-1895214D01*
X3550357Y-1880929D01*
X3536071Y-1866643D01*
X3864643Y-1895214D02*
X3921786Y-1895214D01*
X3950357Y-1880929D01*
X3964643Y-1866643D01*
X3993214Y-1823786D01*
X4007500Y-1766643D01*
X4007500Y-1652357D01*
X3993214Y-1623786D01*
X3978928Y-1609500D01*
X3950357Y-1595214D01*
X3893214Y-1595214D01*
X3864643Y-1609500D01*
X3850357Y-1623786D01*
X3836071Y-1652357D01*
X3836071Y-1723786D01*
X3850357Y-1752357D01*
X3864643Y-1766643D01*
X3893214Y-1780929D01*
X3950357Y-1780929D01*
X3978928Y-1766643D01*
X3993214Y-1752357D01*
X4007500Y-1723786D01*
X4121786Y-1595214D02*
X4121786Y-1652357D01*
X4236071Y-1595214D02*
X4236071Y-1652357D01*
X4678928Y-2009500D02*
X4664643Y-1995214D01*
X4636071Y-1952357D01*
X4621786Y-1923786D01*
X4607500Y-1880929D01*
X4593214Y-1809500D01*
X4593214Y-1752357D01*
X4607500Y-1680929D01*
X4621786Y-1638071D01*
X4636071Y-1609500D01*
X4664643Y-1566643D01*
X4678928Y-1552357D01*
X4921786Y-1695214D02*
X4921786Y-1895214D01*
X4850357Y-1580929D02*
X4778928Y-1795214D01*
X4964643Y-1795214D01*
X5307500Y-1895214D02*
X5307500Y-1595214D01*
X5436071Y-1895214D02*
X5436071Y-1738071D01*
X5421786Y-1709500D01*
X5393214Y-1695214D01*
X5350357Y-1695214D01*
X5321786Y-1709500D01*
X5307500Y-1723786D01*
X5621786Y-1895214D02*
X5593214Y-1880929D01*
X5578928Y-1866643D01*
X5564643Y-1838071D01*
X5564643Y-1752357D01*
X5578928Y-1723786D01*
X5593214Y-1709500D01*
X5621786Y-1695214D01*
X5664643Y-1695214D01*
X5693214Y-1709500D01*
X5707500Y-1723786D01*
X5721786Y-1752357D01*
X5721786Y-1838071D01*
X5707500Y-1866643D01*
X5693214Y-1880929D01*
X5664643Y-1895214D01*
X5621786Y-1895214D01*
X5893214Y-1895214D02*
X5864643Y-1880929D01*
X5850357Y-1852357D01*
X5850357Y-1595214D01*
X6121786Y-1880929D02*
X6093214Y-1895214D01*
X6036071Y-1895214D01*
X6007500Y-1880929D01*
X5993214Y-1852357D01*
X5993214Y-1738071D01*
X6007500Y-1709500D01*
X6036071Y-1695214D01*
X6093214Y-1695214D01*
X6121786Y-1709500D01*
X6136071Y-1738071D01*
X6136071Y-1766643D01*
X5993214Y-1795214D01*
X6250357Y-1880929D02*
X6278928Y-1895214D01*
X6336071Y-1895214D01*
X6364643Y-1880929D01*
X6378928Y-1852357D01*
X6378928Y-1838071D01*
X6364643Y-1809500D01*
X6336071Y-1795214D01*
X6293214Y-1795214D01*
X6264643Y-1780929D01*
X6250357Y-1752357D01*
X6250357Y-1738071D01*
X6264643Y-1709500D01*
X6293214Y-1695214D01*
X6336071Y-1695214D01*
X6364643Y-1709500D01*
X6478928Y-2009500D02*
X6493214Y-1995214D01*
X6521786Y-1952357D01*
X6536071Y-1923786D01*
X6550357Y-1880929D01*
X6564643Y-1809500D01*
X6564643Y-1752357D01*
X6550357Y-1680929D01*
X6536071Y-1638071D01*
X6521786Y-1609500D01*
X6493214Y-1566643D01*
X6478928Y-1552357D01*
M02*
