G04 #@! TF.GenerationSoftware,KiCad,Pcbnew,5.0.2-bee76a0~70~ubuntu18.04.1*
G04 #@! TF.CreationDate,2020-01-10T18:50:58-05:00*
G04 #@! TF.ProjectId,ESP-AHT10-Extra,4553502d-4148-4543-9130-2d4578747261,1.4*
G04 #@! TF.SameCoordinates,PX7bfa480PY66c2270*
G04 #@! TF.FileFunction,Other,Fab,Top*
%FSLAX46Y46*%
G04 Gerber Fmt 4.6, Leading zero omitted, Abs format (unit mm)*
G04 Created by KiCad (PCBNEW 5.0.2-bee76a0~70~ubuntu18.04.1) date Fri 10 Jan 2020 06:50:58 PM EST*
%MOMM*%
%LPD*%
G01*
G04 APERTURE LIST*
%ADD10C,0.050000*%
%ADD11C,0.150000*%
G04 APERTURE END LIST*
D10*
G04 #@! TO.C,U3*
X44609217Y2437626D02*
X20609217Y2437626D01*
X20609217Y2445626D02*
X20609217Y18445626D01*
X20609217Y18445626D02*
X44609217Y18445626D01*
X44609217Y18445626D02*
X44609217Y2445626D01*
D11*
G04 #@! TO.C,SW1*
X20000000Y16500000D02*
X13500000Y16500000D01*
X20000000Y20500000D02*
X20000000Y16500000D01*
X13500000Y20500000D02*
X20000000Y20500000D01*
X13500000Y16500000D02*
X13500000Y20500000D01*
G04 #@! TO.C,SW2*
X20000000Y4250000D02*
X20000000Y250000D01*
X20000000Y250000D02*
X13500000Y250000D01*
X13500000Y250000D02*
X13500000Y4250000D01*
X13500000Y4250000D02*
X20000000Y4250000D01*
G04 #@! TD*
G04 #@! TO.C,U3*
X35137788Y6675722D02*
X35137788Y7009055D01*
X35661597Y7151912D02*
X35661597Y6675722D01*
X34661597Y6675722D01*
X34661597Y7151912D01*
X35613978Y7532865D02*
X35661597Y7675722D01*
X35661597Y7913817D01*
X35613978Y8009055D01*
X35566359Y8056674D01*
X35471121Y8104293D01*
X35375883Y8104293D01*
X35280645Y8056674D01*
X35233026Y8009055D01*
X35185407Y7913817D01*
X35137788Y7723341D01*
X35090169Y7628103D01*
X35042550Y7580484D01*
X34947312Y7532865D01*
X34852074Y7532865D01*
X34756836Y7580484D01*
X34709217Y7628103D01*
X34661597Y7723341D01*
X34661597Y7961436D01*
X34709217Y8104293D01*
X35661597Y8532865D02*
X34661597Y8532865D01*
X34661597Y8913817D01*
X34709217Y9009055D01*
X34756836Y9056674D01*
X34852074Y9104293D01*
X34994931Y9104293D01*
X35090169Y9056674D01*
X35137788Y9009055D01*
X35185407Y8913817D01*
X35185407Y8532865D01*
X35280645Y9532865D02*
X35280645Y10294769D01*
X35661597Y11294769D02*
X35661597Y10723341D01*
X35661597Y11009055D02*
X34661597Y11009055D01*
X34804455Y10913817D01*
X34899693Y10818579D01*
X34947312Y10723341D01*
X34756836Y11675722D02*
X34709217Y11723341D01*
X34661597Y11818579D01*
X34661597Y12056674D01*
X34709217Y12151912D01*
X34756836Y12199531D01*
X34852074Y12247150D01*
X34947312Y12247150D01*
X35090169Y12199531D01*
X35661597Y11628103D01*
X35661597Y12247150D01*
G04 #@! TD*
M02*
