G04 #@! TF.GenerationSoftware,KiCad,Pcbnew,5.0.2-bee76a0~70~ubuntu18.04.1*
G04 #@! TF.CreationDate,2019-12-08T20:14:03-05:00*
G04 #@! TF.ProjectId,ESP-AHT10-Extra,4553502d-4148-4543-9130-2d4578747261,1.4*
G04 #@! TF.SameCoordinates,PX7bfa480PY66c2270*
G04 #@! TF.FileFunction,Other,User*
%FSLAX46Y46*%
G04 Gerber Fmt 4.6, Leading zero omitted, Abs format (unit mm)*
G04 Created by KiCad (PCBNEW 5.0.2-bee76a0~70~ubuntu18.04.1) date Sun 08 Dec 2019 08:14:03 PM EST*
%MOMM*%
%LPD*%
G01*
G04 APERTURE LIST*
%ADD10C,0.050000*%
%ADD11C,0.150000*%
G04 APERTURE END LIST*
D10*
G04 #@! TO.C,F1*
X14725000Y15892500D02*
X14725000Y12532500D01*
X16625000Y15892500D02*
X14725000Y15892500D01*
X16625000Y12532500D02*
X16625000Y15892500D01*
X14725000Y12532500D02*
X16625000Y12532500D01*
G04 #@! TO.C,U1*
X14329217Y6037626D02*
X14329217Y11437626D01*
X21789217Y6037626D02*
X21789217Y11437626D01*
X14329217Y6037626D02*
X21789217Y6037626D01*
X14329217Y11437626D02*
X21789217Y11437626D01*
G04 #@! TO.C,U2*
X26155703Y12191380D02*
X26155703Y15991380D01*
X26155703Y15991380D02*
X22555703Y15991380D01*
X22555703Y15991380D02*
X22555703Y12191380D01*
X22555703Y12191380D02*
X26155703Y12191380D01*
D11*
G04 #@! TO.C,U4*
X38455703Y6441380D02*
X38455703Y10641380D01*
X38455703Y10641380D02*
X33255703Y10641380D01*
X33255703Y10641380D02*
X33255703Y6441380D01*
X33255703Y6441380D02*
X38455703Y6441380D01*
D10*
G04 #@! TO.C,U5*
X13250000Y7225000D02*
X9450000Y7225000D01*
X13250000Y10825000D02*
X13250000Y7225000D01*
X9450000Y10825000D02*
X13250000Y10825000D01*
X9450000Y7225000D02*
X9450000Y10825000D01*
G04 #@! TO.C,C1*
X28250000Y12561380D02*
X28250000Y15921380D01*
X26350000Y12561380D02*
X28250000Y12561380D01*
X26350000Y15921380D02*
X26350000Y12561380D01*
X28250000Y15921380D02*
X26350000Y15921380D01*
G04 #@! TO.C,C2*
X18575000Y12561380D02*
X20475000Y12561380D01*
X20475000Y12561380D02*
X20475000Y15921380D01*
X20475000Y15921380D02*
X18575000Y15921380D01*
X18575000Y15921380D02*
X18575000Y12561380D01*
G04 #@! TO.C,C3*
X16625000Y15921380D02*
X16625000Y12561380D01*
X18525000Y15921380D02*
X16625000Y15921380D01*
X18525000Y12561380D02*
X18525000Y15921380D01*
X16625000Y12561380D02*
X18525000Y12561380D01*
G04 #@! TO.C,C4*
X30200000Y12561380D02*
X30200000Y15921380D01*
X28300000Y12561380D02*
X30200000Y12561380D01*
X28300000Y15921380D02*
X28300000Y12561380D01*
X30200000Y15921380D02*
X28300000Y15921380D01*
G04 #@! TO.C,C5*
X33820000Y12950000D02*
X33820000Y11050000D01*
X33820000Y11050000D02*
X37180000Y11050000D01*
X37180000Y11050000D02*
X37180000Y12950000D01*
X37180000Y12950000D02*
X33820000Y12950000D01*
G04 #@! TO.C,C6*
X19480000Y4050000D02*
X19480000Y5950000D01*
X19480000Y5950000D02*
X16120000Y5950000D01*
X16120000Y5950000D02*
X16120000Y4050000D01*
X16120000Y4050000D02*
X19480000Y4050000D01*
G04 #@! TO.C,C7*
X9720000Y12750000D02*
X9720000Y10850000D01*
X9720000Y10850000D02*
X13080000Y10850000D01*
X13080000Y10850000D02*
X13080000Y12750000D01*
X13080000Y12750000D02*
X9720000Y12750000D01*
G04 #@! TO.C,C8*
X20525000Y15921380D02*
X20525000Y12561380D01*
X22425000Y15921380D02*
X20525000Y15921380D01*
X22425000Y12561380D02*
X22425000Y15921380D01*
X20525000Y12561380D02*
X22425000Y12561380D01*
G04 #@! TO.C,D1*
X14000000Y16225000D02*
X9600000Y16225000D01*
X9600000Y16225000D02*
X9600000Y13925000D01*
X9600000Y13925000D02*
X14000000Y13925000D01*
X14000000Y16225000D02*
X14000000Y13925000D01*
G04 #@! TO.C,R1*
X33405703Y12961380D02*
X35305703Y12961380D01*
X35305703Y12961380D02*
X35305703Y16321380D01*
X35305703Y16321380D02*
X33405703Y16321380D01*
X33405703Y16321380D02*
X33405703Y12961380D01*
G04 #@! TO.C,R2*
X31405703Y12961380D02*
X33305703Y12961380D01*
X33305703Y12961380D02*
X33305703Y16321380D01*
X33305703Y16321380D02*
X31405703Y16321380D01*
X31405703Y16321380D02*
X31405703Y12961380D01*
G04 #@! TO.C,R3*
X35405703Y12961380D02*
X37305703Y12961380D01*
X37305703Y12961380D02*
X37305703Y16321380D01*
X37305703Y16321380D02*
X35405703Y16321380D01*
X35405703Y16321380D02*
X35405703Y12961380D01*
G04 #@! TO.C,R4*
X22770000Y4591380D02*
X26130000Y4591380D01*
X22770000Y6491380D02*
X22770000Y4591380D01*
X26130000Y6491380D02*
X22770000Y6491380D01*
X26130000Y4591380D02*
X26130000Y6491380D01*
G04 #@! TO.C,R5*
X29570000Y9550000D02*
X32930000Y9550000D01*
X29570000Y11450000D02*
X29570000Y9550000D01*
X32930000Y11450000D02*
X29570000Y11450000D01*
X32930000Y9550000D02*
X32930000Y11450000D01*
G04 #@! TO.C,R6*
X32930000Y9491380D02*
X29570000Y9491380D01*
X32930000Y7591380D02*
X32930000Y9491380D01*
X29570000Y7591380D02*
X32930000Y7591380D01*
X29570000Y9491380D02*
X29570000Y7591380D01*
G04 #@! TO.C,R7*
X29570000Y7491380D02*
X29570000Y5591380D01*
X29570000Y5591380D02*
X32930000Y5591380D01*
X32930000Y5591380D02*
X32930000Y7491380D01*
X32930000Y7491380D02*
X29570000Y7491380D01*
G04 #@! TO.C,R8*
X23900000Y7320000D02*
X23900000Y10680000D01*
X22000000Y7320000D02*
X23900000Y7320000D01*
X22000000Y10680000D02*
X22000000Y7320000D01*
X23900000Y10680000D02*
X22000000Y10680000D01*
G04 #@! TD*
M02*
