G04 #@! TF.GenerationSoftware,KiCad,Pcbnew,5.0.2-bee76a0~70~ubuntu18.04.1*
G04 #@! TF.CreationDate,2020-01-10T18:50:58-05:00*
G04 #@! TF.ProjectId,ESP-AHT10-Extra,4553502d-4148-4543-9130-2d4578747261,1.4*
G04 #@! TF.SameCoordinates,PX7bfa480PY66c2270*
G04 #@! TF.FileFunction,Soldermask,Top*
G04 #@! TF.FilePolarity,Negative*
%FSLAX46Y46*%
G04 Gerber Fmt 4.6, Leading zero omitted, Abs format (unit mm)*
G04 Created by KiCad (PCBNEW 5.0.2-bee76a0~70~ubuntu18.04.1) date Fri 10 Jan 2020 06:50:58 PM EST*
%MOMM*%
%LPD*%
G01*
G04 APERTURE LIST*
%ADD10C,0.050000*%
G04 APERTURE END LIST*
D10*
G36*
X13616821Y3288687D02*
X13616824Y3288686D01*
X13616825Y3288686D01*
X13777239Y3240025D01*
X13777241Y3240024D01*
X13777244Y3240023D01*
X13925078Y3161005D01*
X14054659Y3054659D01*
X14161005Y2925078D01*
X14240023Y2777244D01*
X14240024Y2777241D01*
X14240025Y2777239D01*
X14288686Y2616825D01*
X14288686Y2616822D01*
X14288687Y2616820D01*
X14301000Y2491803D01*
X14301000Y2008196D01*
X14288687Y1883179D01*
X14288686Y1883176D01*
X14288686Y1883175D01*
X14265434Y1806522D01*
X14240023Y1722756D01*
X14161005Y1574922D01*
X14054659Y1445341D01*
X13925078Y1338995D01*
X13777243Y1259977D01*
X13777240Y1259976D01*
X13777238Y1259975D01*
X13616824Y1211314D01*
X13616823Y1211314D01*
X13616820Y1211313D01*
X13450000Y1194883D01*
X13283179Y1211313D01*
X13283176Y1211314D01*
X13283175Y1211314D01*
X13122761Y1259975D01*
X13122759Y1259976D01*
X13122756Y1259977D01*
X12974922Y1338995D01*
X12845341Y1445341D01*
X12738995Y1574922D01*
X12659977Y1722757D01*
X12635905Y1802113D01*
X12611314Y1883176D01*
X12611314Y1883177D01*
X12611313Y1883180D01*
X12599000Y2008197D01*
X12599000Y2491804D01*
X12611313Y2616821D01*
X12659977Y2777244D01*
X12738993Y2925074D01*
X12845344Y3054661D01*
X12974923Y3161005D01*
X13122757Y3240023D01*
X13122760Y3240024D01*
X13122762Y3240025D01*
X13283176Y3288686D01*
X13283177Y3288686D01*
X13283180Y3288687D01*
X13450000Y3305117D01*
X13616821Y3288687D01*
X13616821Y3288687D01*
G37*
G36*
X20216821Y3288687D02*
X20216824Y3288686D01*
X20216825Y3288686D01*
X20377239Y3240025D01*
X20377241Y3240024D01*
X20377244Y3240023D01*
X20525078Y3161005D01*
X20654659Y3054659D01*
X20761005Y2925078D01*
X20840023Y2777244D01*
X20840024Y2777241D01*
X20840025Y2777239D01*
X20888686Y2616825D01*
X20888686Y2616822D01*
X20888687Y2616820D01*
X20901000Y2491803D01*
X20901000Y2008196D01*
X20888687Y1883179D01*
X20888686Y1883176D01*
X20888686Y1883175D01*
X20865434Y1806522D01*
X20840023Y1722756D01*
X20761005Y1574922D01*
X20654659Y1445341D01*
X20525078Y1338995D01*
X20377243Y1259977D01*
X20377240Y1259976D01*
X20377238Y1259975D01*
X20216824Y1211314D01*
X20216823Y1211314D01*
X20216820Y1211313D01*
X20050000Y1194883D01*
X19883179Y1211313D01*
X19883176Y1211314D01*
X19883175Y1211314D01*
X19722761Y1259975D01*
X19722759Y1259976D01*
X19722756Y1259977D01*
X19574922Y1338995D01*
X19445341Y1445341D01*
X19338995Y1574922D01*
X19259977Y1722757D01*
X19235905Y1802113D01*
X19211314Y1883176D01*
X19211314Y1883177D01*
X19211313Y1883180D01*
X19199000Y2008197D01*
X19199000Y2491804D01*
X19211313Y2616821D01*
X19259977Y2777244D01*
X19338993Y2925074D01*
X19445344Y3054661D01*
X19574923Y3161005D01*
X19722757Y3240023D01*
X19722760Y3240024D01*
X19722762Y3240025D01*
X19883176Y3288686D01*
X19883177Y3288686D01*
X19883180Y3288687D01*
X20050000Y3305117D01*
X20216821Y3288687D01*
X20216821Y3288687D01*
G37*
G36*
X30327035Y4029930D02*
X30440322Y3995564D01*
X30544730Y3939757D01*
X30636244Y3864653D01*
X30711348Y3773139D01*
X30767155Y3668731D01*
X30801521Y3555444D01*
X30810217Y3467145D01*
X30810217Y2008107D01*
X30801521Y1919808D01*
X30767155Y1806521D01*
X30715883Y1710599D01*
X30711347Y1702113D01*
X30636244Y1610599D01*
X30598579Y1579689D01*
X30544729Y1535495D01*
X30440321Y1479688D01*
X30327034Y1445322D01*
X30209217Y1433719D01*
X30091399Y1445322D01*
X29978112Y1479688D01*
X29873705Y1535495D01*
X29825662Y1574923D01*
X29782190Y1610599D01*
X29748337Y1651850D01*
X29707086Y1702114D01*
X29651279Y1806522D01*
X29616913Y1919809D01*
X29608217Y2008108D01*
X29608218Y3467145D01*
X29616914Y3555444D01*
X29651280Y3668731D01*
X29707087Y3773139D01*
X29782191Y3864653D01*
X29873705Y3939757D01*
X29978113Y3995564D01*
X30091400Y4029930D01*
X30209217Y4041533D01*
X30327035Y4029930D01*
X30327035Y4029930D01*
G37*
G36*
X22327035Y4029930D02*
X22440322Y3995564D01*
X22544730Y3939757D01*
X22636244Y3864653D01*
X22711348Y3773139D01*
X22767155Y3668731D01*
X22801521Y3555444D01*
X22810217Y3467145D01*
X22810217Y2008107D01*
X22801521Y1919808D01*
X22767155Y1806521D01*
X22715883Y1710599D01*
X22711347Y1702113D01*
X22636244Y1610599D01*
X22598579Y1579689D01*
X22544729Y1535495D01*
X22440321Y1479688D01*
X22327034Y1445322D01*
X22209217Y1433719D01*
X22091399Y1445322D01*
X21978112Y1479688D01*
X21873705Y1535495D01*
X21825662Y1574923D01*
X21782190Y1610599D01*
X21748337Y1651850D01*
X21707086Y1702114D01*
X21651279Y1806522D01*
X21616913Y1919809D01*
X21608217Y2008108D01*
X21608218Y3467145D01*
X21616914Y3555444D01*
X21651280Y3668731D01*
X21707087Y3773139D01*
X21782191Y3864653D01*
X21873705Y3939757D01*
X21978113Y3995564D01*
X22091400Y4029930D01*
X22209217Y4041533D01*
X22327035Y4029930D01*
X22327035Y4029930D01*
G37*
G36*
X26327035Y4029930D02*
X26440322Y3995564D01*
X26544730Y3939757D01*
X26636244Y3864653D01*
X26711348Y3773139D01*
X26767155Y3668731D01*
X26801521Y3555444D01*
X26810217Y3467145D01*
X26810217Y2008107D01*
X26801521Y1919808D01*
X26767155Y1806521D01*
X26715883Y1710599D01*
X26711347Y1702113D01*
X26636244Y1610599D01*
X26598579Y1579689D01*
X26544729Y1535495D01*
X26440321Y1479688D01*
X26327034Y1445322D01*
X26209217Y1433719D01*
X26091399Y1445322D01*
X25978112Y1479688D01*
X25873705Y1535495D01*
X25825662Y1574923D01*
X25782190Y1610599D01*
X25748337Y1651850D01*
X25707086Y1702114D01*
X25651279Y1806522D01*
X25616913Y1919809D01*
X25608217Y2008108D01*
X25608218Y3467145D01*
X25616914Y3555444D01*
X25651280Y3668731D01*
X25707087Y3773139D01*
X25782191Y3864653D01*
X25873705Y3939757D01*
X25978113Y3995564D01*
X26091400Y4029930D01*
X26209217Y4041533D01*
X26327035Y4029930D01*
X26327035Y4029930D01*
G37*
G36*
X28327035Y4029930D02*
X28440322Y3995564D01*
X28544730Y3939757D01*
X28636244Y3864653D01*
X28711348Y3773139D01*
X28767155Y3668731D01*
X28801521Y3555444D01*
X28810217Y3467145D01*
X28810217Y2008107D01*
X28801521Y1919808D01*
X28767155Y1806521D01*
X28715883Y1710599D01*
X28711347Y1702113D01*
X28636244Y1610599D01*
X28598579Y1579689D01*
X28544729Y1535495D01*
X28440321Y1479688D01*
X28327034Y1445322D01*
X28209217Y1433719D01*
X28091399Y1445322D01*
X27978112Y1479688D01*
X27873705Y1535495D01*
X27825662Y1574923D01*
X27782190Y1610599D01*
X27748337Y1651850D01*
X27707086Y1702114D01*
X27651279Y1806522D01*
X27616913Y1919809D01*
X27608217Y2008108D01*
X27608218Y3467145D01*
X27616914Y3555444D01*
X27651280Y3668731D01*
X27707087Y3773139D01*
X27782191Y3864653D01*
X27873705Y3939757D01*
X27978113Y3995564D01*
X28091400Y4029930D01*
X28209217Y4041533D01*
X28327035Y4029930D01*
X28327035Y4029930D01*
G37*
G36*
X32327035Y4029930D02*
X32440322Y3995564D01*
X32544730Y3939757D01*
X32636244Y3864653D01*
X32711348Y3773139D01*
X32767155Y3668731D01*
X32801521Y3555444D01*
X32810217Y3467145D01*
X32810217Y2008107D01*
X32801521Y1919808D01*
X32767155Y1806521D01*
X32715883Y1710599D01*
X32711347Y1702113D01*
X32636244Y1610599D01*
X32598579Y1579689D01*
X32544729Y1535495D01*
X32440321Y1479688D01*
X32327034Y1445322D01*
X32209217Y1433719D01*
X32091399Y1445322D01*
X31978112Y1479688D01*
X31873705Y1535495D01*
X31825662Y1574923D01*
X31782190Y1610599D01*
X31748337Y1651850D01*
X31707086Y1702114D01*
X31651279Y1806522D01*
X31616913Y1919809D01*
X31608217Y2008108D01*
X31608218Y3467145D01*
X31616914Y3555444D01*
X31651280Y3668731D01*
X31707087Y3773139D01*
X31782191Y3864653D01*
X31873705Y3939757D01*
X31978113Y3995564D01*
X32091400Y4029930D01*
X32209217Y4041533D01*
X32327035Y4029930D01*
X32327035Y4029930D01*
G37*
G36*
X34327035Y4029930D02*
X34440322Y3995564D01*
X34544730Y3939757D01*
X34636244Y3864653D01*
X34711348Y3773139D01*
X34767155Y3668731D01*
X34801521Y3555444D01*
X34810217Y3467145D01*
X34810217Y2008107D01*
X34801521Y1919808D01*
X34767155Y1806521D01*
X34715883Y1710599D01*
X34711347Y1702113D01*
X34636244Y1610599D01*
X34598579Y1579689D01*
X34544729Y1535495D01*
X34440321Y1479688D01*
X34327034Y1445322D01*
X34209217Y1433719D01*
X34091399Y1445322D01*
X33978112Y1479688D01*
X33873705Y1535495D01*
X33825662Y1574923D01*
X33782190Y1610599D01*
X33748337Y1651850D01*
X33707086Y1702114D01*
X33651279Y1806522D01*
X33616913Y1919809D01*
X33608217Y2008108D01*
X33608218Y3467145D01*
X33616914Y3555444D01*
X33651280Y3668731D01*
X33707087Y3773139D01*
X33782191Y3864653D01*
X33873705Y3939757D01*
X33978113Y3995564D01*
X34091400Y4029930D01*
X34209217Y4041533D01*
X34327035Y4029930D01*
X34327035Y4029930D01*
G37*
G36*
X36327035Y4029930D02*
X36440322Y3995564D01*
X36544730Y3939757D01*
X36636244Y3864653D01*
X36711348Y3773139D01*
X36767155Y3668731D01*
X36801521Y3555444D01*
X36810217Y3467145D01*
X36810217Y2008107D01*
X36801521Y1919808D01*
X36767155Y1806521D01*
X36715883Y1710599D01*
X36711347Y1702113D01*
X36636244Y1610599D01*
X36598579Y1579689D01*
X36544729Y1535495D01*
X36440321Y1479688D01*
X36327034Y1445322D01*
X36209217Y1433719D01*
X36091399Y1445322D01*
X35978112Y1479688D01*
X35873705Y1535495D01*
X35825662Y1574923D01*
X35782190Y1610599D01*
X35748337Y1651850D01*
X35707086Y1702114D01*
X35651279Y1806522D01*
X35616913Y1919809D01*
X35608217Y2008108D01*
X35608218Y3467145D01*
X35616914Y3555444D01*
X35651280Y3668731D01*
X35707087Y3773139D01*
X35782191Y3864653D01*
X35873705Y3939757D01*
X35978113Y3995564D01*
X36091400Y4029930D01*
X36209217Y4041533D01*
X36327035Y4029930D01*
X36327035Y4029930D01*
G37*
G36*
X24327035Y4129930D02*
X24440322Y4095564D01*
X24544730Y4039757D01*
X24636244Y3964653D01*
X24711348Y3873139D01*
X24767155Y3768731D01*
X24801521Y3655444D01*
X24810217Y3567145D01*
X24810217Y2108107D01*
X24801521Y2019808D01*
X24767155Y1906521D01*
X24711348Y1802114D01*
X24711347Y1802113D01*
X24636244Y1710599D01*
X24594993Y1676746D01*
X24544729Y1635495D01*
X24440321Y1579688D01*
X24327034Y1545322D01*
X24209217Y1533719D01*
X24091399Y1545322D01*
X23978112Y1579688D01*
X23873705Y1635495D01*
X23859789Y1646915D01*
X23782190Y1710599D01*
X23748337Y1751850D01*
X23707086Y1802114D01*
X23651279Y1906522D01*
X23616913Y2019809D01*
X23608217Y2108108D01*
X23608218Y3567145D01*
X23616914Y3655444D01*
X23651280Y3768731D01*
X23707087Y3873139D01*
X23782191Y3964653D01*
X23873705Y4039757D01*
X23978113Y4095564D01*
X24091400Y4129930D01*
X24209217Y4141533D01*
X24327035Y4129930D01*
X24327035Y4129930D01*
G37*
G36*
X34239890Y5650983D02*
X34358361Y5601911D01*
X34464992Y5530662D01*
X34555662Y5439992D01*
X34555664Y5439989D01*
X34555665Y5439988D01*
X34626909Y5333364D01*
X34626911Y5333361D01*
X34675983Y5214890D01*
X34701000Y5089119D01*
X34701000Y4960881D01*
X34675983Y4835110D01*
X34626911Y4716639D01*
X34626909Y4716636D01*
X34560465Y4617195D01*
X34555662Y4610008D01*
X34464992Y4519338D01*
X34358361Y4448089D01*
X34239890Y4399017D01*
X34114119Y4374000D01*
X33985881Y4374000D01*
X33860110Y4399017D01*
X33741639Y4448089D01*
X33635008Y4519338D01*
X33544338Y4610008D01*
X33539536Y4617195D01*
X33473091Y4716636D01*
X33473089Y4716639D01*
X33424017Y4835110D01*
X33399000Y4960881D01*
X33399000Y5089119D01*
X33424017Y5214890D01*
X33473089Y5333361D01*
X33473091Y5333364D01*
X33544335Y5439988D01*
X33544336Y5439989D01*
X33544338Y5439992D01*
X33635008Y5530662D01*
X33741639Y5601911D01*
X33860110Y5650983D01*
X33985881Y5676000D01*
X34114119Y5676000D01*
X34239890Y5650983D01*
X34239890Y5650983D01*
G37*
G36*
X36429225Y5869161D02*
X36547696Y5820089D01*
X36654327Y5748840D01*
X36744997Y5658170D01*
X36744999Y5658167D01*
X36745000Y5658166D01*
X36782588Y5601911D01*
X36816246Y5551539D01*
X36865318Y5433068D01*
X36890335Y5307297D01*
X36890335Y5179059D01*
X36865318Y5053288D01*
X36816246Y4934817D01*
X36816244Y4934814D01*
X36749624Y4835110D01*
X36744997Y4828186D01*
X36654327Y4737516D01*
X36547696Y4666267D01*
X36429225Y4617195D01*
X36303454Y4592178D01*
X36175216Y4592178D01*
X36049445Y4617195D01*
X35930974Y4666267D01*
X35824343Y4737516D01*
X35733673Y4828186D01*
X35729047Y4835110D01*
X35662426Y4934814D01*
X35662424Y4934817D01*
X35613352Y5053288D01*
X35588335Y5179059D01*
X35588335Y5307297D01*
X35613352Y5433068D01*
X35662424Y5551539D01*
X35696082Y5601911D01*
X35733670Y5658166D01*
X35733671Y5658167D01*
X35733673Y5658170D01*
X35824343Y5748840D01*
X35930974Y5820089D01*
X36049445Y5869161D01*
X36175216Y5894178D01*
X36303454Y5894178D01*
X36429225Y5869161D01*
X36429225Y5869161D01*
G37*
G36*
X24739892Y8675983D02*
X24858363Y8626911D01*
X24964994Y8555662D01*
X25055664Y8464992D01*
X25126913Y8358361D01*
X25175985Y8239890D01*
X25201002Y8114119D01*
X25201002Y7985881D01*
X25175985Y7860110D01*
X25126913Y7741639D01*
X25055664Y7635008D01*
X24964994Y7544338D01*
X24858363Y7473089D01*
X24739892Y7424017D01*
X24614121Y7399000D01*
X24485883Y7399000D01*
X24360112Y7424017D01*
X24241641Y7473089D01*
X24135010Y7544338D01*
X24044340Y7635008D01*
X23973091Y7741639D01*
X23924019Y7860110D01*
X23899002Y7985881D01*
X23899002Y8114119D01*
X23924019Y8239890D01*
X23973091Y8358361D01*
X24044340Y8464992D01*
X24135010Y8555662D01*
X24241641Y8626911D01*
X24360112Y8675983D01*
X24485883Y8701000D01*
X24614121Y8701000D01*
X24739892Y8675983D01*
X24739892Y8675983D01*
G37*
G36*
X25839890Y10575983D02*
X25958361Y10526911D01*
X26064992Y10455662D01*
X26155662Y10364992D01*
X26226911Y10258361D01*
X26275983Y10139890D01*
X26301000Y10014119D01*
X26301000Y9885881D01*
X26275983Y9760110D01*
X26226911Y9641639D01*
X26155662Y9535008D01*
X26064992Y9444338D01*
X25958361Y9373089D01*
X25839890Y9324017D01*
X25714119Y9299000D01*
X25585881Y9299000D01*
X25460110Y9324017D01*
X25341639Y9373089D01*
X25235008Y9444338D01*
X25144338Y9535008D01*
X25073089Y9641639D01*
X25024017Y9760110D01*
X24999000Y9885881D01*
X24999000Y10014119D01*
X25024017Y10139890D01*
X25073089Y10258361D01*
X25144338Y10364992D01*
X25235008Y10455662D01*
X25341639Y10526911D01*
X25460110Y10575983D01*
X25585881Y10601000D01*
X25714119Y10601000D01*
X25839890Y10575983D01*
X25839890Y10575983D01*
G37*
G36*
X28439890Y12425983D02*
X28558361Y12376911D01*
X28558364Y12376909D01*
X28662748Y12307162D01*
X28664992Y12305662D01*
X28755662Y12214992D01*
X28826911Y12108361D01*
X28875983Y11989890D01*
X28901000Y11864119D01*
X28901000Y11735881D01*
X28875983Y11610110D01*
X28826911Y11491639D01*
X28826909Y11491636D01*
X28756665Y11386508D01*
X28755662Y11385008D01*
X28664992Y11294338D01*
X28558361Y11223089D01*
X28439890Y11174017D01*
X28314119Y11149000D01*
X28185881Y11149000D01*
X28060110Y11174017D01*
X27941639Y11223089D01*
X27835008Y11294338D01*
X27744338Y11385008D01*
X27743336Y11386508D01*
X27673091Y11491636D01*
X27673089Y11491639D01*
X27624017Y11610110D01*
X27599000Y11735881D01*
X27599000Y11864119D01*
X27624017Y11989890D01*
X27673089Y12108361D01*
X27744338Y12214992D01*
X27835008Y12305662D01*
X27837253Y12307162D01*
X27941636Y12376909D01*
X27941639Y12376911D01*
X28060110Y12425983D01*
X28185881Y12451000D01*
X28314119Y12451000D01*
X28439890Y12425983D01*
X28439890Y12425983D01*
G37*
G36*
X13890390Y12427483D02*
X14008861Y12378411D01*
X14115492Y12307162D01*
X14206162Y12216492D01*
X14206164Y12216489D01*
X14206165Y12216488D01*
X14207167Y12214988D01*
X14277411Y12109861D01*
X14326483Y11991390D01*
X14351500Y11865619D01*
X14351500Y11737381D01*
X14326483Y11611610D01*
X14277411Y11493139D01*
X14206162Y11386508D01*
X14115492Y11295838D01*
X14115489Y11295836D01*
X14115488Y11295835D01*
X14113243Y11294335D01*
X14008861Y11224589D01*
X13890390Y11175517D01*
X13764619Y11150500D01*
X13636381Y11150500D01*
X13510610Y11175517D01*
X13392139Y11224589D01*
X13287757Y11294335D01*
X13285512Y11295835D01*
X13285511Y11295836D01*
X13285508Y11295838D01*
X13194838Y11386508D01*
X13123589Y11493139D01*
X13074517Y11611610D01*
X13049500Y11737381D01*
X13049500Y11865619D01*
X13074517Y11991390D01*
X13123589Y12109861D01*
X13193833Y12214988D01*
X13194835Y12216488D01*
X13194836Y12216489D01*
X13194838Y12216492D01*
X13285508Y12307162D01*
X13392139Y12378411D01*
X13510610Y12427483D01*
X13636381Y12452500D01*
X13764619Y12452500D01*
X13890390Y12427483D01*
X13890390Y12427483D01*
G37*
G36*
X37414890Y12575983D02*
X37533361Y12526911D01*
X37639992Y12455662D01*
X37730662Y12364992D01*
X37801911Y12258361D01*
X37850983Y12139890D01*
X37876000Y12014119D01*
X37876000Y11885881D01*
X37850983Y11760110D01*
X37801911Y11641639D01*
X37730662Y11535008D01*
X37639992Y11444338D01*
X37533361Y11373089D01*
X37414890Y11324017D01*
X37289119Y11299000D01*
X37160881Y11299000D01*
X37035110Y11324017D01*
X36916639Y11373089D01*
X36810008Y11444338D01*
X36719338Y11535008D01*
X36648089Y11641639D01*
X36599017Y11760110D01*
X36574000Y11885881D01*
X36574000Y12014119D01*
X36599017Y12139890D01*
X36648089Y12258361D01*
X36719338Y12364992D01*
X36810008Y12455662D01*
X36916639Y12526911D01*
X37035110Y12575983D01*
X37160881Y12601000D01*
X37289119Y12601000D01*
X37414890Y12575983D01*
X37414890Y12575983D01*
G37*
G36*
X13616820Y19538687D02*
X13616823Y19538686D01*
X13616824Y19538686D01*
X13777238Y19490025D01*
X13777240Y19490024D01*
X13777243Y19490023D01*
X13925078Y19411005D01*
X14054659Y19304659D01*
X14161005Y19175078D01*
X14240023Y19027244D01*
X14240023Y19027243D01*
X14240025Y19027239D01*
X14261804Y18955442D01*
X14288687Y18866821D01*
X14301000Y18741804D01*
X14301000Y18258197D01*
X14288687Y18133180D01*
X14288686Y18133178D01*
X14288686Y18133175D01*
X14240025Y17972761D01*
X14240023Y17972756D01*
X14161005Y17824922D01*
X14054659Y17695341D01*
X13925078Y17588995D01*
X13766906Y17504451D01*
X13766708Y17504370D01*
X13766515Y17504242D01*
X13766382Y17504171D01*
X13766389Y17504158D01*
X13746280Y17490836D01*
X13728885Y17473577D01*
X13715191Y17453256D01*
X13705725Y17430654D01*
X13700850Y17406639D01*
X13700754Y17382135D01*
X13705440Y17358083D01*
X13714728Y17335408D01*
X13728262Y17314980D01*
X13745521Y17297585D01*
X13765842Y17283891D01*
X13788444Y17274425D01*
X13800813Y17271301D01*
X13863293Y17258873D01*
X13890390Y17253483D01*
X13924343Y17239419D01*
X14008861Y17204411D01*
X14115492Y17133162D01*
X14206162Y17042492D01*
X14206164Y17042489D01*
X14206165Y17042488D01*
X14277409Y16935864D01*
X14277411Y16935861D01*
X14326483Y16817390D01*
X14351500Y16691619D01*
X14351500Y16563381D01*
X14326483Y16437610D01*
X14277411Y16319139D01*
X14206162Y16212508D01*
X14115492Y16121838D01*
X14008861Y16050589D01*
X13890390Y16001517D01*
X13764619Y15976500D01*
X13636381Y15976500D01*
X13510610Y16001517D01*
X13392139Y16050589D01*
X13285508Y16121838D01*
X13194838Y16212508D01*
X13123589Y16319139D01*
X13074517Y16437610D01*
X13049500Y16563381D01*
X13049500Y16691619D01*
X13074517Y16817390D01*
X13123589Y16935861D01*
X13123591Y16935864D01*
X13194835Y17042488D01*
X13194836Y17042489D01*
X13194838Y17042492D01*
X13285508Y17133162D01*
X13392139Y17204411D01*
X13411238Y17212322D01*
X13432849Y17223873D01*
X13451791Y17239419D01*
X13467337Y17258361D01*
X13478888Y17279972D01*
X13486001Y17303421D01*
X13488403Y17327807D01*
X13486001Y17352193D01*
X13478888Y17375642D01*
X13467337Y17397253D01*
X13451791Y17416195D01*
X13432849Y17431741D01*
X13411238Y17443292D01*
X13387789Y17450405D01*
X13375655Y17452205D01*
X13283180Y17461313D01*
X13283177Y17461314D01*
X13283176Y17461314D01*
X13122762Y17509975D01*
X13122760Y17509976D01*
X13122757Y17509977D01*
X12974923Y17588995D01*
X12845344Y17695339D01*
X12738993Y17824926D01*
X12659977Y17972756D01*
X12611313Y18133179D01*
X12599000Y18258196D01*
X12599000Y18741803D01*
X12611313Y18866820D01*
X12611314Y18866824D01*
X12659975Y19027238D01*
X12659976Y19027240D01*
X12659977Y19027243D01*
X12738995Y19175078D01*
X12845341Y19304659D01*
X12974922Y19411005D01*
X13122756Y19490023D01*
X13122759Y19490024D01*
X13122761Y19490025D01*
X13283175Y19538686D01*
X13283176Y19538686D01*
X13283179Y19538687D01*
X13450000Y19555117D01*
X13616820Y19538687D01*
X13616820Y19538687D01*
G37*
G36*
X26327035Y19429930D02*
X26440322Y19395564D01*
X26544730Y19339757D01*
X26636244Y19264653D01*
X26711348Y19173139D01*
X26767155Y19068731D01*
X26801521Y18955444D01*
X26810217Y18867145D01*
X26810217Y17408107D01*
X26801521Y17319808D01*
X26767155Y17206521D01*
X26711348Y17102114D01*
X26711347Y17102113D01*
X26636244Y17010599D01*
X26594993Y16976746D01*
X26544729Y16935495D01*
X26440321Y16879688D01*
X26327034Y16845322D01*
X26209217Y16833719D01*
X26091399Y16845322D01*
X25978112Y16879688D01*
X25873705Y16935495D01*
X25859789Y16946915D01*
X25782190Y17010599D01*
X25748337Y17051850D01*
X25707086Y17102114D01*
X25651279Y17206522D01*
X25616913Y17319809D01*
X25608217Y17408108D01*
X25608218Y18867145D01*
X25616914Y18955444D01*
X25651280Y19068731D01*
X25707087Y19173139D01*
X25782191Y19264653D01*
X25873705Y19339757D01*
X25978113Y19395564D01*
X26091400Y19429930D01*
X26209217Y19441533D01*
X26327035Y19429930D01*
X26327035Y19429930D01*
G37*
G36*
X22327035Y19429930D02*
X22440322Y19395564D01*
X22544730Y19339757D01*
X22636244Y19264653D01*
X22711348Y19173139D01*
X22767155Y19068731D01*
X22801521Y18955444D01*
X22810217Y18867145D01*
X22810217Y17408107D01*
X22801521Y17319808D01*
X22767155Y17206521D01*
X22711348Y17102114D01*
X22711347Y17102113D01*
X22636244Y17010599D01*
X22594993Y16976746D01*
X22544729Y16935495D01*
X22440321Y16879688D01*
X22327034Y16845322D01*
X22209217Y16833719D01*
X22091399Y16845322D01*
X21978112Y16879688D01*
X21873705Y16935495D01*
X21859789Y16946915D01*
X21782190Y17010599D01*
X21748337Y17051850D01*
X21707086Y17102114D01*
X21651279Y17206522D01*
X21616913Y17319809D01*
X21608217Y17408108D01*
X21608218Y18867145D01*
X21616914Y18955444D01*
X21651280Y19068731D01*
X21707087Y19173139D01*
X21782191Y19264653D01*
X21873705Y19339757D01*
X21978113Y19395564D01*
X22091400Y19429930D01*
X22209217Y19441533D01*
X22327035Y19429930D01*
X22327035Y19429930D01*
G37*
G36*
X24327035Y19429930D02*
X24440322Y19395564D01*
X24544730Y19339757D01*
X24636244Y19264653D01*
X24711348Y19173139D01*
X24767155Y19068731D01*
X24801521Y18955444D01*
X24810217Y18867145D01*
X24810217Y17408107D01*
X24801521Y17319808D01*
X24767155Y17206521D01*
X24711348Y17102114D01*
X24711347Y17102113D01*
X24636244Y17010599D01*
X24594993Y16976746D01*
X24544729Y16935495D01*
X24440321Y16879688D01*
X24327034Y16845322D01*
X24209217Y16833719D01*
X24091399Y16845322D01*
X23978112Y16879688D01*
X23873705Y16935495D01*
X23859789Y16946915D01*
X23782190Y17010599D01*
X23748337Y17051850D01*
X23707086Y17102114D01*
X23651279Y17206522D01*
X23616913Y17319809D01*
X23608217Y17408108D01*
X23608218Y18867145D01*
X23616914Y18955444D01*
X23651280Y19068731D01*
X23707087Y19173139D01*
X23782191Y19264653D01*
X23873705Y19339757D01*
X23978113Y19395564D01*
X24091400Y19429930D01*
X24209217Y19441533D01*
X24327035Y19429930D01*
X24327035Y19429930D01*
G37*
G36*
X28327035Y19429930D02*
X28440322Y19395564D01*
X28544730Y19339757D01*
X28636244Y19264653D01*
X28711348Y19173139D01*
X28767155Y19068731D01*
X28801521Y18955444D01*
X28810217Y18867145D01*
X28810217Y17408107D01*
X28801521Y17319808D01*
X28767155Y17206521D01*
X28711348Y17102114D01*
X28711347Y17102113D01*
X28636244Y17010599D01*
X28594993Y16976746D01*
X28544729Y16935495D01*
X28440321Y16879688D01*
X28327034Y16845322D01*
X28209217Y16833719D01*
X28091399Y16845322D01*
X27978112Y16879688D01*
X27873705Y16935495D01*
X27859789Y16946915D01*
X27782190Y17010599D01*
X27748337Y17051850D01*
X27707086Y17102114D01*
X27651279Y17206522D01*
X27616913Y17319809D01*
X27608217Y17408108D01*
X27608218Y18867145D01*
X27616914Y18955444D01*
X27651280Y19068731D01*
X27707087Y19173139D01*
X27782191Y19264653D01*
X27873705Y19339757D01*
X27978113Y19395564D01*
X28091400Y19429930D01*
X28209217Y19441533D01*
X28327035Y19429930D01*
X28327035Y19429930D01*
G37*
G36*
X30327035Y19429930D02*
X30440322Y19395564D01*
X30544730Y19339757D01*
X30636244Y19264653D01*
X30711348Y19173139D01*
X30767155Y19068731D01*
X30801521Y18955444D01*
X30810217Y18867145D01*
X30810217Y17408107D01*
X30801521Y17319808D01*
X30767155Y17206521D01*
X30711348Y17102114D01*
X30711347Y17102113D01*
X30636244Y17010599D01*
X30594993Y16976746D01*
X30544729Y16935495D01*
X30440321Y16879688D01*
X30327034Y16845322D01*
X30209217Y16833719D01*
X30091399Y16845322D01*
X29978112Y16879688D01*
X29873705Y16935495D01*
X29859789Y16946915D01*
X29782190Y17010599D01*
X29748337Y17051850D01*
X29707086Y17102114D01*
X29651279Y17206522D01*
X29616913Y17319809D01*
X29608217Y17408108D01*
X29608218Y18867145D01*
X29616914Y18955444D01*
X29651280Y19068731D01*
X29707087Y19173139D01*
X29782191Y19264653D01*
X29873705Y19339757D01*
X29978113Y19395564D01*
X30091400Y19429930D01*
X30209217Y19441533D01*
X30327035Y19429930D01*
X30327035Y19429930D01*
G37*
G36*
X32327035Y19429930D02*
X32440322Y19395564D01*
X32544730Y19339757D01*
X32636244Y19264653D01*
X32711348Y19173139D01*
X32767155Y19068731D01*
X32801521Y18955444D01*
X32810217Y18867145D01*
X32810217Y17408107D01*
X32801521Y17319808D01*
X32767155Y17206521D01*
X32711348Y17102114D01*
X32711347Y17102113D01*
X32636244Y17010599D01*
X32594993Y16976746D01*
X32544729Y16935495D01*
X32440321Y16879688D01*
X32327034Y16845322D01*
X32209217Y16833719D01*
X32091399Y16845322D01*
X31978112Y16879688D01*
X31873705Y16935495D01*
X31859789Y16946915D01*
X31782190Y17010599D01*
X31748337Y17051850D01*
X31707086Y17102114D01*
X31651279Y17206522D01*
X31616913Y17319809D01*
X31608217Y17408108D01*
X31608218Y18867145D01*
X31616914Y18955444D01*
X31651280Y19068731D01*
X31707087Y19173139D01*
X31782191Y19264653D01*
X31873705Y19339757D01*
X31978113Y19395564D01*
X32091400Y19429930D01*
X32209217Y19441533D01*
X32327035Y19429930D01*
X32327035Y19429930D01*
G37*
G36*
X34327035Y19429930D02*
X34440322Y19395564D01*
X34544730Y19339757D01*
X34636244Y19264653D01*
X34711348Y19173139D01*
X34767155Y19068731D01*
X34801521Y18955444D01*
X34810217Y18867145D01*
X34810217Y17408107D01*
X34801521Y17319808D01*
X34767155Y17206521D01*
X34711348Y17102114D01*
X34711347Y17102113D01*
X34636244Y17010599D01*
X34594993Y16976746D01*
X34544729Y16935495D01*
X34440321Y16879688D01*
X34327034Y16845322D01*
X34209217Y16833719D01*
X34091399Y16845322D01*
X33978112Y16879688D01*
X33873705Y16935495D01*
X33859789Y16946915D01*
X33782190Y17010599D01*
X33748337Y17051850D01*
X33707086Y17102114D01*
X33651279Y17206522D01*
X33616913Y17319809D01*
X33608217Y17408108D01*
X33608218Y18867145D01*
X33616914Y18955444D01*
X33651280Y19068731D01*
X33707087Y19173139D01*
X33782191Y19264653D01*
X33873705Y19339757D01*
X33978113Y19395564D01*
X34091400Y19429930D01*
X34209217Y19441533D01*
X34327035Y19429930D01*
X34327035Y19429930D01*
G37*
G36*
X36810217Y16836626D02*
X35608217Y16836626D01*
X35608217Y19438626D01*
X36810217Y19438626D01*
X36810217Y16836626D01*
X36810217Y16836626D01*
G37*
G36*
X20216820Y19538687D02*
X20216823Y19538686D01*
X20216824Y19538686D01*
X20377238Y19490025D01*
X20377240Y19490024D01*
X20377243Y19490023D01*
X20525078Y19411005D01*
X20654659Y19304659D01*
X20761005Y19175078D01*
X20840023Y19027244D01*
X20840023Y19027243D01*
X20840025Y19027239D01*
X20861804Y18955442D01*
X20888687Y18866821D01*
X20901000Y18741804D01*
X20901000Y18258197D01*
X20888687Y18133180D01*
X20888686Y18133178D01*
X20888686Y18133175D01*
X20840025Y17972761D01*
X20840023Y17972756D01*
X20761005Y17824922D01*
X20654659Y17695341D01*
X20525078Y17588995D01*
X20377244Y17509977D01*
X20377241Y17509976D01*
X20377239Y17509975D01*
X20216825Y17461314D01*
X20216824Y17461314D01*
X20216821Y17461313D01*
X20050000Y17444883D01*
X19883180Y17461313D01*
X19883177Y17461314D01*
X19883176Y17461314D01*
X19722762Y17509975D01*
X19722760Y17509976D01*
X19722757Y17509977D01*
X19574923Y17588995D01*
X19445344Y17695339D01*
X19338993Y17824926D01*
X19259977Y17972756D01*
X19211313Y18133179D01*
X19199000Y18258196D01*
X19199000Y18741803D01*
X19211313Y18866820D01*
X19211314Y18866824D01*
X19259975Y19027238D01*
X19259976Y19027240D01*
X19259977Y19027243D01*
X19338995Y19175078D01*
X19445341Y19304659D01*
X19574922Y19411005D01*
X19722756Y19490023D01*
X19722759Y19490024D01*
X19722761Y19490025D01*
X19883175Y19538686D01*
X19883176Y19538686D01*
X19883179Y19538687D01*
X20050000Y19555117D01*
X20216820Y19538687D01*
X20216820Y19538687D01*
G37*
M02*
