G04 #@! TF.GenerationSoftware,KiCad,Pcbnew,5.0.2-bee76a0~70~ubuntu18.04.1*
G04 #@! TF.CreationDate,2020-01-11T12:57:47-05:00*
G04 #@! TF.ProjectId,ESP-AHT10-Extra,4553502d-4148-4543-9130-2d4578747261,1.4*
G04 #@! TF.SameCoordinates,PX7bfa480PY66c2270*
G04 #@! TF.FileFunction,Paste,Bot*
G04 #@! TF.FilePolarity,Positive*
%FSLAX46Y46*%
G04 Gerber Fmt 4.6, Leading zero omitted, Abs format (unit mm)*
G04 Created by KiCad (PCBNEW 5.0.2-bee76a0~70~ubuntu18.04.1) date Sat 11 Jan 2020 12:57:47 PM EST*
%MOMM*%
%LPD*%
G01*
G04 APERTURE LIST*
%ADD10C,0.050000*%
%ADD11C,0.975000*%
%ADD12R,1.550000X0.600000*%
%ADD13O,0.650000X1.500000*%
%ADD14R,0.650000X1.500000*%
%ADD15R,1.060000X0.650000*%
%ADD16R,1.100000X1.100000*%
%ADD17R,0.900000X0.800000*%
%ADD18C,0.300000*%
G04 APERTURE END LIST*
D10*
G04 #@! TO.C,F1*
G36*
X15641142Y15636326D02*
X15664803Y15632816D01*
X15688007Y15627004D01*
X15710529Y15618946D01*
X15732153Y15608718D01*
X15752670Y15596421D01*
X15771883Y15582171D01*
X15789607Y15566107D01*
X15805671Y15548383D01*
X15819921Y15529170D01*
X15832218Y15508653D01*
X15842446Y15487029D01*
X15850504Y15464507D01*
X15856316Y15441303D01*
X15859826Y15417642D01*
X15861000Y15393750D01*
X15861000Y14906250D01*
X15859826Y14882358D01*
X15856316Y14858697D01*
X15850504Y14835493D01*
X15842446Y14812971D01*
X15832218Y14791347D01*
X15819921Y14770830D01*
X15805671Y14751617D01*
X15789607Y14733893D01*
X15771883Y14717829D01*
X15752670Y14703579D01*
X15732153Y14691282D01*
X15710529Y14681054D01*
X15688007Y14672996D01*
X15664803Y14667184D01*
X15641142Y14663674D01*
X15617250Y14662500D01*
X14704750Y14662500D01*
X14680858Y14663674D01*
X14657197Y14667184D01*
X14633993Y14672996D01*
X14611471Y14681054D01*
X14589847Y14691282D01*
X14569330Y14703579D01*
X14550117Y14717829D01*
X14532393Y14733893D01*
X14516329Y14751617D01*
X14502079Y14770830D01*
X14489782Y14791347D01*
X14479554Y14812971D01*
X14471496Y14835493D01*
X14465684Y14858697D01*
X14462174Y14882358D01*
X14461000Y14906250D01*
X14461000Y15393750D01*
X14462174Y15417642D01*
X14465684Y15441303D01*
X14471496Y15464507D01*
X14479554Y15487029D01*
X14489782Y15508653D01*
X14502079Y15529170D01*
X14516329Y15548383D01*
X14532393Y15566107D01*
X14550117Y15582171D01*
X14569330Y15596421D01*
X14589847Y15608718D01*
X14611471Y15618946D01*
X14633993Y15627004D01*
X14657197Y15632816D01*
X14680858Y15636326D01*
X14704750Y15637500D01*
X15617250Y15637500D01*
X15641142Y15636326D01*
X15641142Y15636326D01*
G37*
D11*
X15161000Y15150000D03*
D10*
G36*
X15641142Y13761326D02*
X15664803Y13757816D01*
X15688007Y13752004D01*
X15710529Y13743946D01*
X15732153Y13733718D01*
X15752670Y13721421D01*
X15771883Y13707171D01*
X15789607Y13691107D01*
X15805671Y13673383D01*
X15819921Y13654170D01*
X15832218Y13633653D01*
X15842446Y13612029D01*
X15850504Y13589507D01*
X15856316Y13566303D01*
X15859826Y13542642D01*
X15861000Y13518750D01*
X15861000Y13031250D01*
X15859826Y13007358D01*
X15856316Y12983697D01*
X15850504Y12960493D01*
X15842446Y12937971D01*
X15832218Y12916347D01*
X15819921Y12895830D01*
X15805671Y12876617D01*
X15789607Y12858893D01*
X15771883Y12842829D01*
X15752670Y12828579D01*
X15732153Y12816282D01*
X15710529Y12806054D01*
X15688007Y12797996D01*
X15664803Y12792184D01*
X15641142Y12788674D01*
X15617250Y12787500D01*
X14704750Y12787500D01*
X14680858Y12788674D01*
X14657197Y12792184D01*
X14633993Y12797996D01*
X14611471Y12806054D01*
X14589847Y12816282D01*
X14569330Y12828579D01*
X14550117Y12842829D01*
X14532393Y12858893D01*
X14516329Y12876617D01*
X14502079Y12895830D01*
X14489782Y12916347D01*
X14479554Y12937971D01*
X14471496Y12960493D01*
X14465684Y12983697D01*
X14462174Y13007358D01*
X14461000Y13031250D01*
X14461000Y13518750D01*
X14462174Y13542642D01*
X14465684Y13566303D01*
X14471496Y13589507D01*
X14479554Y13612029D01*
X14489782Y13633653D01*
X14502079Y13654170D01*
X14516329Y13673383D01*
X14532393Y13691107D01*
X14550117Y13707171D01*
X14569330Y13721421D01*
X14589847Y13733718D01*
X14611471Y13743946D01*
X14633993Y13752004D01*
X14657197Y13757816D01*
X14680858Y13761326D01*
X14704750Y13762500D01*
X15617250Y13762500D01*
X15641142Y13761326D01*
X15641142Y13761326D01*
G37*
D11*
X15161000Y13275000D03*
G04 #@! TD*
D12*
G04 #@! TO.C,U1*
X15359217Y6832626D03*
X15359217Y8102626D03*
X15359217Y9372626D03*
X15359217Y10642626D03*
X20759217Y10642626D03*
X20759217Y9372626D03*
X20759217Y8102626D03*
X20759217Y6832626D03*
G04 #@! TD*
D13*
G04 #@! TO.C,U4*
X37125703Y6941380D03*
D14*
X35855703Y6941380D03*
X34585703Y6941380D03*
X34585703Y10141380D03*
X35855703Y10141380D03*
X37125703Y10141380D03*
G04 #@! TD*
D15*
G04 #@! TO.C,U5*
X10250000Y8075000D03*
X10250000Y9025000D03*
X10250000Y9975000D03*
X12450000Y9975000D03*
X12450000Y8075000D03*
X12450000Y9025000D03*
G04 #@! TD*
D10*
G04 #@! TO.C,C1*
G36*
X26256142Y13790206D02*
X26279803Y13786696D01*
X26303007Y13780884D01*
X26325529Y13772826D01*
X26347153Y13762598D01*
X26367670Y13750301D01*
X26386883Y13736051D01*
X26404607Y13719987D01*
X26420671Y13702263D01*
X26434921Y13683050D01*
X26447218Y13662533D01*
X26457446Y13640909D01*
X26465504Y13618387D01*
X26471316Y13595183D01*
X26474826Y13571522D01*
X26476000Y13547630D01*
X26476000Y13060130D01*
X26474826Y13036238D01*
X26471316Y13012577D01*
X26465504Y12989373D01*
X26457446Y12966851D01*
X26447218Y12945227D01*
X26434921Y12924710D01*
X26420671Y12905497D01*
X26404607Y12887773D01*
X26386883Y12871709D01*
X26367670Y12857459D01*
X26347153Y12845162D01*
X26325529Y12834934D01*
X26303007Y12826876D01*
X26279803Y12821064D01*
X26256142Y12817554D01*
X26232250Y12816380D01*
X25319750Y12816380D01*
X25295858Y12817554D01*
X25272197Y12821064D01*
X25248993Y12826876D01*
X25226471Y12834934D01*
X25204847Y12845162D01*
X25184330Y12857459D01*
X25165117Y12871709D01*
X25147393Y12887773D01*
X25131329Y12905497D01*
X25117079Y12924710D01*
X25104782Y12945227D01*
X25094554Y12966851D01*
X25086496Y12989373D01*
X25080684Y13012577D01*
X25077174Y13036238D01*
X25076000Y13060130D01*
X25076000Y13547630D01*
X25077174Y13571522D01*
X25080684Y13595183D01*
X25086496Y13618387D01*
X25094554Y13640909D01*
X25104782Y13662533D01*
X25117079Y13683050D01*
X25131329Y13702263D01*
X25147393Y13719987D01*
X25165117Y13736051D01*
X25184330Y13750301D01*
X25204847Y13762598D01*
X25226471Y13772826D01*
X25248993Y13780884D01*
X25272197Y13786696D01*
X25295858Y13790206D01*
X25319750Y13791380D01*
X26232250Y13791380D01*
X26256142Y13790206D01*
X26256142Y13790206D01*
G37*
D11*
X25776000Y13303880D03*
D10*
G36*
X26256142Y15665206D02*
X26279803Y15661696D01*
X26303007Y15655884D01*
X26325529Y15647826D01*
X26347153Y15637598D01*
X26367670Y15625301D01*
X26386883Y15611051D01*
X26404607Y15594987D01*
X26420671Y15577263D01*
X26434921Y15558050D01*
X26447218Y15537533D01*
X26457446Y15515909D01*
X26465504Y15493387D01*
X26471316Y15470183D01*
X26474826Y15446522D01*
X26476000Y15422630D01*
X26476000Y14935130D01*
X26474826Y14911238D01*
X26471316Y14887577D01*
X26465504Y14864373D01*
X26457446Y14841851D01*
X26447218Y14820227D01*
X26434921Y14799710D01*
X26420671Y14780497D01*
X26404607Y14762773D01*
X26386883Y14746709D01*
X26367670Y14732459D01*
X26347153Y14720162D01*
X26325529Y14709934D01*
X26303007Y14701876D01*
X26279803Y14696064D01*
X26256142Y14692554D01*
X26232250Y14691380D01*
X25319750Y14691380D01*
X25295858Y14692554D01*
X25272197Y14696064D01*
X25248993Y14701876D01*
X25226471Y14709934D01*
X25204847Y14720162D01*
X25184330Y14732459D01*
X25165117Y14746709D01*
X25147393Y14762773D01*
X25131329Y14780497D01*
X25117079Y14799710D01*
X25104782Y14820227D01*
X25094554Y14841851D01*
X25086496Y14864373D01*
X25080684Y14887577D01*
X25077174Y14911238D01*
X25076000Y14935130D01*
X25076000Y15422630D01*
X25077174Y15446522D01*
X25080684Y15470183D01*
X25086496Y15493387D01*
X25094554Y15515909D01*
X25104782Y15537533D01*
X25117079Y15558050D01*
X25131329Y15577263D01*
X25147393Y15594987D01*
X25165117Y15611051D01*
X25184330Y15625301D01*
X25204847Y15637598D01*
X25226471Y15647826D01*
X25248993Y15655884D01*
X25272197Y15661696D01*
X25295858Y15665206D01*
X25319750Y15666380D01*
X26232250Y15666380D01*
X26256142Y15665206D01*
X26256142Y15665206D01*
G37*
D11*
X25776000Y15178880D03*
G04 #@! TD*
D10*
G04 #@! TO.C,C2*
G36*
X20005142Y15665206D02*
X20028803Y15661696D01*
X20052007Y15655884D01*
X20074529Y15647826D01*
X20096153Y15637598D01*
X20116670Y15625301D01*
X20135883Y15611051D01*
X20153607Y15594987D01*
X20169671Y15577263D01*
X20183921Y15558050D01*
X20196218Y15537533D01*
X20206446Y15515909D01*
X20214504Y15493387D01*
X20220316Y15470183D01*
X20223826Y15446522D01*
X20225000Y15422630D01*
X20225000Y14935130D01*
X20223826Y14911238D01*
X20220316Y14887577D01*
X20214504Y14864373D01*
X20206446Y14841851D01*
X20196218Y14820227D01*
X20183921Y14799710D01*
X20169671Y14780497D01*
X20153607Y14762773D01*
X20135883Y14746709D01*
X20116670Y14732459D01*
X20096153Y14720162D01*
X20074529Y14709934D01*
X20052007Y14701876D01*
X20028803Y14696064D01*
X20005142Y14692554D01*
X19981250Y14691380D01*
X19068750Y14691380D01*
X19044858Y14692554D01*
X19021197Y14696064D01*
X18997993Y14701876D01*
X18975471Y14709934D01*
X18953847Y14720162D01*
X18933330Y14732459D01*
X18914117Y14746709D01*
X18896393Y14762773D01*
X18880329Y14780497D01*
X18866079Y14799710D01*
X18853782Y14820227D01*
X18843554Y14841851D01*
X18835496Y14864373D01*
X18829684Y14887577D01*
X18826174Y14911238D01*
X18825000Y14935130D01*
X18825000Y15422630D01*
X18826174Y15446522D01*
X18829684Y15470183D01*
X18835496Y15493387D01*
X18843554Y15515909D01*
X18853782Y15537533D01*
X18866079Y15558050D01*
X18880329Y15577263D01*
X18896393Y15594987D01*
X18914117Y15611051D01*
X18933330Y15625301D01*
X18953847Y15637598D01*
X18975471Y15647826D01*
X18997993Y15655884D01*
X19021197Y15661696D01*
X19044858Y15665206D01*
X19068750Y15666380D01*
X19981250Y15666380D01*
X20005142Y15665206D01*
X20005142Y15665206D01*
G37*
D11*
X19525000Y15178880D03*
D10*
G36*
X20005142Y13790206D02*
X20028803Y13786696D01*
X20052007Y13780884D01*
X20074529Y13772826D01*
X20096153Y13762598D01*
X20116670Y13750301D01*
X20135883Y13736051D01*
X20153607Y13719987D01*
X20169671Y13702263D01*
X20183921Y13683050D01*
X20196218Y13662533D01*
X20206446Y13640909D01*
X20214504Y13618387D01*
X20220316Y13595183D01*
X20223826Y13571522D01*
X20225000Y13547630D01*
X20225000Y13060130D01*
X20223826Y13036238D01*
X20220316Y13012577D01*
X20214504Y12989373D01*
X20206446Y12966851D01*
X20196218Y12945227D01*
X20183921Y12924710D01*
X20169671Y12905497D01*
X20153607Y12887773D01*
X20135883Y12871709D01*
X20116670Y12857459D01*
X20096153Y12845162D01*
X20074529Y12834934D01*
X20052007Y12826876D01*
X20028803Y12821064D01*
X20005142Y12817554D01*
X19981250Y12816380D01*
X19068750Y12816380D01*
X19044858Y12817554D01*
X19021197Y12821064D01*
X18997993Y12826876D01*
X18975471Y12834934D01*
X18953847Y12845162D01*
X18933330Y12857459D01*
X18914117Y12871709D01*
X18896393Y12887773D01*
X18880329Y12905497D01*
X18866079Y12924710D01*
X18853782Y12945227D01*
X18843554Y12966851D01*
X18835496Y12989373D01*
X18829684Y13012577D01*
X18826174Y13036238D01*
X18825000Y13060130D01*
X18825000Y13547630D01*
X18826174Y13571522D01*
X18829684Y13595183D01*
X18835496Y13618387D01*
X18843554Y13640909D01*
X18853782Y13662533D01*
X18866079Y13683050D01*
X18880329Y13702263D01*
X18896393Y13719987D01*
X18914117Y13736051D01*
X18933330Y13750301D01*
X18953847Y13762598D01*
X18975471Y13772826D01*
X18997993Y13780884D01*
X19021197Y13786696D01*
X19044858Y13790206D01*
X19068750Y13791380D01*
X19981250Y13791380D01*
X20005142Y13790206D01*
X20005142Y13790206D01*
G37*
D11*
X19525000Y13303880D03*
G04 #@! TD*
D10*
G04 #@! TO.C,C3*
G36*
X18055142Y13790206D02*
X18078803Y13786696D01*
X18102007Y13780884D01*
X18124529Y13772826D01*
X18146153Y13762598D01*
X18166670Y13750301D01*
X18185883Y13736051D01*
X18203607Y13719987D01*
X18219671Y13702263D01*
X18233921Y13683050D01*
X18246218Y13662533D01*
X18256446Y13640909D01*
X18264504Y13618387D01*
X18270316Y13595183D01*
X18273826Y13571522D01*
X18275000Y13547630D01*
X18275000Y13060130D01*
X18273826Y13036238D01*
X18270316Y13012577D01*
X18264504Y12989373D01*
X18256446Y12966851D01*
X18246218Y12945227D01*
X18233921Y12924710D01*
X18219671Y12905497D01*
X18203607Y12887773D01*
X18185883Y12871709D01*
X18166670Y12857459D01*
X18146153Y12845162D01*
X18124529Y12834934D01*
X18102007Y12826876D01*
X18078803Y12821064D01*
X18055142Y12817554D01*
X18031250Y12816380D01*
X17118750Y12816380D01*
X17094858Y12817554D01*
X17071197Y12821064D01*
X17047993Y12826876D01*
X17025471Y12834934D01*
X17003847Y12845162D01*
X16983330Y12857459D01*
X16964117Y12871709D01*
X16946393Y12887773D01*
X16930329Y12905497D01*
X16916079Y12924710D01*
X16903782Y12945227D01*
X16893554Y12966851D01*
X16885496Y12989373D01*
X16879684Y13012577D01*
X16876174Y13036238D01*
X16875000Y13060130D01*
X16875000Y13547630D01*
X16876174Y13571522D01*
X16879684Y13595183D01*
X16885496Y13618387D01*
X16893554Y13640909D01*
X16903782Y13662533D01*
X16916079Y13683050D01*
X16930329Y13702263D01*
X16946393Y13719987D01*
X16964117Y13736051D01*
X16983330Y13750301D01*
X17003847Y13762598D01*
X17025471Y13772826D01*
X17047993Y13780884D01*
X17071197Y13786696D01*
X17094858Y13790206D01*
X17118750Y13791380D01*
X18031250Y13791380D01*
X18055142Y13790206D01*
X18055142Y13790206D01*
G37*
D11*
X17575000Y13303880D03*
D10*
G36*
X18055142Y15665206D02*
X18078803Y15661696D01*
X18102007Y15655884D01*
X18124529Y15647826D01*
X18146153Y15637598D01*
X18166670Y15625301D01*
X18185883Y15611051D01*
X18203607Y15594987D01*
X18219671Y15577263D01*
X18233921Y15558050D01*
X18246218Y15537533D01*
X18256446Y15515909D01*
X18264504Y15493387D01*
X18270316Y15470183D01*
X18273826Y15446522D01*
X18275000Y15422630D01*
X18275000Y14935130D01*
X18273826Y14911238D01*
X18270316Y14887577D01*
X18264504Y14864373D01*
X18256446Y14841851D01*
X18246218Y14820227D01*
X18233921Y14799710D01*
X18219671Y14780497D01*
X18203607Y14762773D01*
X18185883Y14746709D01*
X18166670Y14732459D01*
X18146153Y14720162D01*
X18124529Y14709934D01*
X18102007Y14701876D01*
X18078803Y14696064D01*
X18055142Y14692554D01*
X18031250Y14691380D01*
X17118750Y14691380D01*
X17094858Y14692554D01*
X17071197Y14696064D01*
X17047993Y14701876D01*
X17025471Y14709934D01*
X17003847Y14720162D01*
X16983330Y14732459D01*
X16964117Y14746709D01*
X16946393Y14762773D01*
X16930329Y14780497D01*
X16916079Y14799710D01*
X16903782Y14820227D01*
X16893554Y14841851D01*
X16885496Y14864373D01*
X16879684Y14887577D01*
X16876174Y14911238D01*
X16875000Y14935130D01*
X16875000Y15422630D01*
X16876174Y15446522D01*
X16879684Y15470183D01*
X16885496Y15493387D01*
X16893554Y15515909D01*
X16903782Y15537533D01*
X16916079Y15558050D01*
X16930329Y15577263D01*
X16946393Y15594987D01*
X16964117Y15611051D01*
X16983330Y15625301D01*
X17003847Y15637598D01*
X17025471Y15647826D01*
X17047993Y15655884D01*
X17071197Y15661696D01*
X17094858Y15665206D01*
X17118750Y15666380D01*
X18031250Y15666380D01*
X18055142Y15665206D01*
X18055142Y15665206D01*
G37*
D11*
X17575000Y15178880D03*
G04 #@! TD*
D10*
G04 #@! TO.C,C4*
G36*
X28206142Y13790206D02*
X28229803Y13786696D01*
X28253007Y13780884D01*
X28275529Y13772826D01*
X28297153Y13762598D01*
X28317670Y13750301D01*
X28336883Y13736051D01*
X28354607Y13719987D01*
X28370671Y13702263D01*
X28384921Y13683050D01*
X28397218Y13662533D01*
X28407446Y13640909D01*
X28415504Y13618387D01*
X28421316Y13595183D01*
X28424826Y13571522D01*
X28426000Y13547630D01*
X28426000Y13060130D01*
X28424826Y13036238D01*
X28421316Y13012577D01*
X28415504Y12989373D01*
X28407446Y12966851D01*
X28397218Y12945227D01*
X28384921Y12924710D01*
X28370671Y12905497D01*
X28354607Y12887773D01*
X28336883Y12871709D01*
X28317670Y12857459D01*
X28297153Y12845162D01*
X28275529Y12834934D01*
X28253007Y12826876D01*
X28229803Y12821064D01*
X28206142Y12817554D01*
X28182250Y12816380D01*
X27269750Y12816380D01*
X27245858Y12817554D01*
X27222197Y12821064D01*
X27198993Y12826876D01*
X27176471Y12834934D01*
X27154847Y12845162D01*
X27134330Y12857459D01*
X27115117Y12871709D01*
X27097393Y12887773D01*
X27081329Y12905497D01*
X27067079Y12924710D01*
X27054782Y12945227D01*
X27044554Y12966851D01*
X27036496Y12989373D01*
X27030684Y13012577D01*
X27027174Y13036238D01*
X27026000Y13060130D01*
X27026000Y13547630D01*
X27027174Y13571522D01*
X27030684Y13595183D01*
X27036496Y13618387D01*
X27044554Y13640909D01*
X27054782Y13662533D01*
X27067079Y13683050D01*
X27081329Y13702263D01*
X27097393Y13719987D01*
X27115117Y13736051D01*
X27134330Y13750301D01*
X27154847Y13762598D01*
X27176471Y13772826D01*
X27198993Y13780884D01*
X27222197Y13786696D01*
X27245858Y13790206D01*
X27269750Y13791380D01*
X28182250Y13791380D01*
X28206142Y13790206D01*
X28206142Y13790206D01*
G37*
D11*
X27726000Y13303880D03*
D10*
G36*
X28206142Y15665206D02*
X28229803Y15661696D01*
X28253007Y15655884D01*
X28275529Y15647826D01*
X28297153Y15637598D01*
X28317670Y15625301D01*
X28336883Y15611051D01*
X28354607Y15594987D01*
X28370671Y15577263D01*
X28384921Y15558050D01*
X28397218Y15537533D01*
X28407446Y15515909D01*
X28415504Y15493387D01*
X28421316Y15470183D01*
X28424826Y15446522D01*
X28426000Y15422630D01*
X28426000Y14935130D01*
X28424826Y14911238D01*
X28421316Y14887577D01*
X28415504Y14864373D01*
X28407446Y14841851D01*
X28397218Y14820227D01*
X28384921Y14799710D01*
X28370671Y14780497D01*
X28354607Y14762773D01*
X28336883Y14746709D01*
X28317670Y14732459D01*
X28297153Y14720162D01*
X28275529Y14709934D01*
X28253007Y14701876D01*
X28229803Y14696064D01*
X28206142Y14692554D01*
X28182250Y14691380D01*
X27269750Y14691380D01*
X27245858Y14692554D01*
X27222197Y14696064D01*
X27198993Y14701876D01*
X27176471Y14709934D01*
X27154847Y14720162D01*
X27134330Y14732459D01*
X27115117Y14746709D01*
X27097393Y14762773D01*
X27081329Y14780497D01*
X27067079Y14799710D01*
X27054782Y14820227D01*
X27044554Y14841851D01*
X27036496Y14864373D01*
X27030684Y14887577D01*
X27027174Y14911238D01*
X27026000Y14935130D01*
X27026000Y15422630D01*
X27027174Y15446522D01*
X27030684Y15470183D01*
X27036496Y15493387D01*
X27044554Y15515909D01*
X27054782Y15537533D01*
X27067079Y15558050D01*
X27081329Y15577263D01*
X27097393Y15594987D01*
X27115117Y15611051D01*
X27134330Y15625301D01*
X27154847Y15637598D01*
X27176471Y15647826D01*
X27198993Y15655884D01*
X27222197Y15661696D01*
X27245858Y15665206D01*
X27269750Y15666380D01*
X28182250Y15666380D01*
X28206142Y15665206D01*
X28206142Y15665206D01*
G37*
D11*
X27726000Y15178880D03*
G04 #@! TD*
D10*
G04 #@! TO.C,C5*
G36*
X34830142Y12698826D02*
X34853803Y12695316D01*
X34877007Y12689504D01*
X34899529Y12681446D01*
X34921153Y12671218D01*
X34941670Y12658921D01*
X34960883Y12644671D01*
X34978607Y12628607D01*
X34994671Y12610883D01*
X35008921Y12591670D01*
X35021218Y12571153D01*
X35031446Y12549529D01*
X35039504Y12527007D01*
X35045316Y12503803D01*
X35048826Y12480142D01*
X35050000Y12456250D01*
X35050000Y11543750D01*
X35048826Y11519858D01*
X35045316Y11496197D01*
X35039504Y11472993D01*
X35031446Y11450471D01*
X35021218Y11428847D01*
X35008921Y11408330D01*
X34994671Y11389117D01*
X34978607Y11371393D01*
X34960883Y11355329D01*
X34941670Y11341079D01*
X34921153Y11328782D01*
X34899529Y11318554D01*
X34877007Y11310496D01*
X34853803Y11304684D01*
X34830142Y11301174D01*
X34806250Y11300000D01*
X34318750Y11300000D01*
X34294858Y11301174D01*
X34271197Y11304684D01*
X34247993Y11310496D01*
X34225471Y11318554D01*
X34203847Y11328782D01*
X34183330Y11341079D01*
X34164117Y11355329D01*
X34146393Y11371393D01*
X34130329Y11389117D01*
X34116079Y11408330D01*
X34103782Y11428847D01*
X34093554Y11450471D01*
X34085496Y11472993D01*
X34079684Y11496197D01*
X34076174Y11519858D01*
X34075000Y11543750D01*
X34075000Y12456250D01*
X34076174Y12480142D01*
X34079684Y12503803D01*
X34085496Y12527007D01*
X34093554Y12549529D01*
X34103782Y12571153D01*
X34116079Y12591670D01*
X34130329Y12610883D01*
X34146393Y12628607D01*
X34164117Y12644671D01*
X34183330Y12658921D01*
X34203847Y12671218D01*
X34225471Y12681446D01*
X34247993Y12689504D01*
X34271197Y12695316D01*
X34294858Y12698826D01*
X34318750Y12700000D01*
X34806250Y12700000D01*
X34830142Y12698826D01*
X34830142Y12698826D01*
G37*
D11*
X34562500Y12000000D03*
D10*
G36*
X36705142Y12698826D02*
X36728803Y12695316D01*
X36752007Y12689504D01*
X36774529Y12681446D01*
X36796153Y12671218D01*
X36816670Y12658921D01*
X36835883Y12644671D01*
X36853607Y12628607D01*
X36869671Y12610883D01*
X36883921Y12591670D01*
X36896218Y12571153D01*
X36906446Y12549529D01*
X36914504Y12527007D01*
X36920316Y12503803D01*
X36923826Y12480142D01*
X36925000Y12456250D01*
X36925000Y11543750D01*
X36923826Y11519858D01*
X36920316Y11496197D01*
X36914504Y11472993D01*
X36906446Y11450471D01*
X36896218Y11428847D01*
X36883921Y11408330D01*
X36869671Y11389117D01*
X36853607Y11371393D01*
X36835883Y11355329D01*
X36816670Y11341079D01*
X36796153Y11328782D01*
X36774529Y11318554D01*
X36752007Y11310496D01*
X36728803Y11304684D01*
X36705142Y11301174D01*
X36681250Y11300000D01*
X36193750Y11300000D01*
X36169858Y11301174D01*
X36146197Y11304684D01*
X36122993Y11310496D01*
X36100471Y11318554D01*
X36078847Y11328782D01*
X36058330Y11341079D01*
X36039117Y11355329D01*
X36021393Y11371393D01*
X36005329Y11389117D01*
X35991079Y11408330D01*
X35978782Y11428847D01*
X35968554Y11450471D01*
X35960496Y11472993D01*
X35954684Y11496197D01*
X35951174Y11519858D01*
X35950000Y11543750D01*
X35950000Y12456250D01*
X35951174Y12480142D01*
X35954684Y12503803D01*
X35960496Y12527007D01*
X35968554Y12549529D01*
X35978782Y12571153D01*
X35991079Y12591670D01*
X36005329Y12610883D01*
X36021393Y12628607D01*
X36039117Y12644671D01*
X36058330Y12658921D01*
X36078847Y12671218D01*
X36100471Y12681446D01*
X36122993Y12689504D01*
X36146197Y12695316D01*
X36169858Y12698826D01*
X36193750Y12700000D01*
X36681250Y12700000D01*
X36705142Y12698826D01*
X36705142Y12698826D01*
G37*
D11*
X36437500Y12000000D03*
G04 #@! TD*
D10*
G04 #@! TO.C,C6*
G36*
X18349642Y5705826D02*
X18373303Y5702316D01*
X18396507Y5696504D01*
X18419029Y5688446D01*
X18440653Y5678218D01*
X18461170Y5665921D01*
X18480383Y5651671D01*
X18498107Y5635607D01*
X18514171Y5617883D01*
X18528421Y5598670D01*
X18540718Y5578153D01*
X18550946Y5556529D01*
X18559004Y5534007D01*
X18564816Y5510803D01*
X18568326Y5487142D01*
X18569500Y5463250D01*
X18569500Y4550750D01*
X18568326Y4526858D01*
X18564816Y4503197D01*
X18559004Y4479993D01*
X18550946Y4457471D01*
X18540718Y4435847D01*
X18528421Y4415330D01*
X18514171Y4396117D01*
X18498107Y4378393D01*
X18480383Y4362329D01*
X18461170Y4348079D01*
X18440653Y4335782D01*
X18419029Y4325554D01*
X18396507Y4317496D01*
X18373303Y4311684D01*
X18349642Y4308174D01*
X18325750Y4307000D01*
X17838250Y4307000D01*
X17814358Y4308174D01*
X17790697Y4311684D01*
X17767493Y4317496D01*
X17744971Y4325554D01*
X17723347Y4335782D01*
X17702830Y4348079D01*
X17683617Y4362329D01*
X17665893Y4378393D01*
X17649829Y4396117D01*
X17635579Y4415330D01*
X17623282Y4435847D01*
X17613054Y4457471D01*
X17604996Y4479993D01*
X17599184Y4503197D01*
X17595674Y4526858D01*
X17594500Y4550750D01*
X17594500Y5463250D01*
X17595674Y5487142D01*
X17599184Y5510803D01*
X17604996Y5534007D01*
X17613054Y5556529D01*
X17623282Y5578153D01*
X17635579Y5598670D01*
X17649829Y5617883D01*
X17665893Y5635607D01*
X17683617Y5651671D01*
X17702830Y5665921D01*
X17723347Y5678218D01*
X17744971Y5688446D01*
X17767493Y5696504D01*
X17790697Y5702316D01*
X17814358Y5705826D01*
X17838250Y5707000D01*
X18325750Y5707000D01*
X18349642Y5705826D01*
X18349642Y5705826D01*
G37*
D11*
X18082000Y5007000D03*
D10*
G36*
X16474642Y5705826D02*
X16498303Y5702316D01*
X16521507Y5696504D01*
X16544029Y5688446D01*
X16565653Y5678218D01*
X16586170Y5665921D01*
X16605383Y5651671D01*
X16623107Y5635607D01*
X16639171Y5617883D01*
X16653421Y5598670D01*
X16665718Y5578153D01*
X16675946Y5556529D01*
X16684004Y5534007D01*
X16689816Y5510803D01*
X16693326Y5487142D01*
X16694500Y5463250D01*
X16694500Y4550750D01*
X16693326Y4526858D01*
X16689816Y4503197D01*
X16684004Y4479993D01*
X16675946Y4457471D01*
X16665718Y4435847D01*
X16653421Y4415330D01*
X16639171Y4396117D01*
X16623107Y4378393D01*
X16605383Y4362329D01*
X16586170Y4348079D01*
X16565653Y4335782D01*
X16544029Y4325554D01*
X16521507Y4317496D01*
X16498303Y4311684D01*
X16474642Y4308174D01*
X16450750Y4307000D01*
X15963250Y4307000D01*
X15939358Y4308174D01*
X15915697Y4311684D01*
X15892493Y4317496D01*
X15869971Y4325554D01*
X15848347Y4335782D01*
X15827830Y4348079D01*
X15808617Y4362329D01*
X15790893Y4378393D01*
X15774829Y4396117D01*
X15760579Y4415330D01*
X15748282Y4435847D01*
X15738054Y4457471D01*
X15729996Y4479993D01*
X15724184Y4503197D01*
X15720674Y4526858D01*
X15719500Y4550750D01*
X15719500Y5463250D01*
X15720674Y5487142D01*
X15724184Y5510803D01*
X15729996Y5534007D01*
X15738054Y5556529D01*
X15748282Y5578153D01*
X15760579Y5598670D01*
X15774829Y5617883D01*
X15790893Y5635607D01*
X15808617Y5651671D01*
X15827830Y5665921D01*
X15848347Y5678218D01*
X15869971Y5688446D01*
X15892493Y5696504D01*
X15915697Y5702316D01*
X15939358Y5705826D01*
X15963250Y5707000D01*
X16450750Y5707000D01*
X16474642Y5705826D01*
X16474642Y5705826D01*
G37*
D11*
X16207000Y5007000D03*
G04 #@! TD*
D10*
G04 #@! TO.C,C7*
G36*
X10730142Y12498826D02*
X10753803Y12495316D01*
X10777007Y12489504D01*
X10799529Y12481446D01*
X10821153Y12471218D01*
X10841670Y12458921D01*
X10860883Y12444671D01*
X10878607Y12428607D01*
X10894671Y12410883D01*
X10908921Y12391670D01*
X10921218Y12371153D01*
X10931446Y12349529D01*
X10939504Y12327007D01*
X10945316Y12303803D01*
X10948826Y12280142D01*
X10950000Y12256250D01*
X10950000Y11343750D01*
X10948826Y11319858D01*
X10945316Y11296197D01*
X10939504Y11272993D01*
X10931446Y11250471D01*
X10921218Y11228847D01*
X10908921Y11208330D01*
X10894671Y11189117D01*
X10878607Y11171393D01*
X10860883Y11155329D01*
X10841670Y11141079D01*
X10821153Y11128782D01*
X10799529Y11118554D01*
X10777007Y11110496D01*
X10753803Y11104684D01*
X10730142Y11101174D01*
X10706250Y11100000D01*
X10218750Y11100000D01*
X10194858Y11101174D01*
X10171197Y11104684D01*
X10147993Y11110496D01*
X10125471Y11118554D01*
X10103847Y11128782D01*
X10083330Y11141079D01*
X10064117Y11155329D01*
X10046393Y11171393D01*
X10030329Y11189117D01*
X10016079Y11208330D01*
X10003782Y11228847D01*
X9993554Y11250471D01*
X9985496Y11272993D01*
X9979684Y11296197D01*
X9976174Y11319858D01*
X9975000Y11343750D01*
X9975000Y12256250D01*
X9976174Y12280142D01*
X9979684Y12303803D01*
X9985496Y12327007D01*
X9993554Y12349529D01*
X10003782Y12371153D01*
X10016079Y12391670D01*
X10030329Y12410883D01*
X10046393Y12428607D01*
X10064117Y12444671D01*
X10083330Y12458921D01*
X10103847Y12471218D01*
X10125471Y12481446D01*
X10147993Y12489504D01*
X10171197Y12495316D01*
X10194858Y12498826D01*
X10218750Y12500000D01*
X10706250Y12500000D01*
X10730142Y12498826D01*
X10730142Y12498826D01*
G37*
D11*
X10462500Y11800000D03*
D10*
G36*
X12605142Y12498826D02*
X12628803Y12495316D01*
X12652007Y12489504D01*
X12674529Y12481446D01*
X12696153Y12471218D01*
X12716670Y12458921D01*
X12735883Y12444671D01*
X12753607Y12428607D01*
X12769671Y12410883D01*
X12783921Y12391670D01*
X12796218Y12371153D01*
X12806446Y12349529D01*
X12814504Y12327007D01*
X12820316Y12303803D01*
X12823826Y12280142D01*
X12825000Y12256250D01*
X12825000Y11343750D01*
X12823826Y11319858D01*
X12820316Y11296197D01*
X12814504Y11272993D01*
X12806446Y11250471D01*
X12796218Y11228847D01*
X12783921Y11208330D01*
X12769671Y11189117D01*
X12753607Y11171393D01*
X12735883Y11155329D01*
X12716670Y11141079D01*
X12696153Y11128782D01*
X12674529Y11118554D01*
X12652007Y11110496D01*
X12628803Y11104684D01*
X12605142Y11101174D01*
X12581250Y11100000D01*
X12093750Y11100000D01*
X12069858Y11101174D01*
X12046197Y11104684D01*
X12022993Y11110496D01*
X12000471Y11118554D01*
X11978847Y11128782D01*
X11958330Y11141079D01*
X11939117Y11155329D01*
X11921393Y11171393D01*
X11905329Y11189117D01*
X11891079Y11208330D01*
X11878782Y11228847D01*
X11868554Y11250471D01*
X11860496Y11272993D01*
X11854684Y11296197D01*
X11851174Y11319858D01*
X11850000Y11343750D01*
X11850000Y12256250D01*
X11851174Y12280142D01*
X11854684Y12303803D01*
X11860496Y12327007D01*
X11868554Y12349529D01*
X11878782Y12371153D01*
X11891079Y12391670D01*
X11905329Y12410883D01*
X11921393Y12428607D01*
X11939117Y12444671D01*
X11958330Y12458921D01*
X11978847Y12471218D01*
X12000471Y12481446D01*
X12022993Y12489504D01*
X12046197Y12495316D01*
X12069858Y12498826D01*
X12093750Y12500000D01*
X12581250Y12500000D01*
X12605142Y12498826D01*
X12605142Y12498826D01*
G37*
D11*
X12337500Y11800000D03*
G04 #@! TD*
D16*
G04 #@! TO.C,D1*
X13200000Y15075000D03*
X10400000Y15075000D03*
G04 #@! TD*
D10*
G04 #@! TO.C,R1*
G36*
X34835845Y14190206D02*
X34859506Y14186696D01*
X34882710Y14180884D01*
X34905232Y14172826D01*
X34926856Y14162598D01*
X34947373Y14150301D01*
X34966586Y14136051D01*
X34984310Y14119987D01*
X35000374Y14102263D01*
X35014624Y14083050D01*
X35026921Y14062533D01*
X35037149Y14040909D01*
X35045207Y14018387D01*
X35051019Y13995183D01*
X35054529Y13971522D01*
X35055703Y13947630D01*
X35055703Y13460130D01*
X35054529Y13436238D01*
X35051019Y13412577D01*
X35045207Y13389373D01*
X35037149Y13366851D01*
X35026921Y13345227D01*
X35014624Y13324710D01*
X35000374Y13305497D01*
X34984310Y13287773D01*
X34966586Y13271709D01*
X34947373Y13257459D01*
X34926856Y13245162D01*
X34905232Y13234934D01*
X34882710Y13226876D01*
X34859506Y13221064D01*
X34835845Y13217554D01*
X34811953Y13216380D01*
X33899453Y13216380D01*
X33875561Y13217554D01*
X33851900Y13221064D01*
X33828696Y13226876D01*
X33806174Y13234934D01*
X33784550Y13245162D01*
X33764033Y13257459D01*
X33744820Y13271709D01*
X33727096Y13287773D01*
X33711032Y13305497D01*
X33696782Y13324710D01*
X33684485Y13345227D01*
X33674257Y13366851D01*
X33666199Y13389373D01*
X33660387Y13412577D01*
X33656877Y13436238D01*
X33655703Y13460130D01*
X33655703Y13947630D01*
X33656877Y13971522D01*
X33660387Y13995183D01*
X33666199Y14018387D01*
X33674257Y14040909D01*
X33684485Y14062533D01*
X33696782Y14083050D01*
X33711032Y14102263D01*
X33727096Y14119987D01*
X33744820Y14136051D01*
X33764033Y14150301D01*
X33784550Y14162598D01*
X33806174Y14172826D01*
X33828696Y14180884D01*
X33851900Y14186696D01*
X33875561Y14190206D01*
X33899453Y14191380D01*
X34811953Y14191380D01*
X34835845Y14190206D01*
X34835845Y14190206D01*
G37*
D11*
X34355703Y13703880D03*
D10*
G36*
X34835845Y16065206D02*
X34859506Y16061696D01*
X34882710Y16055884D01*
X34905232Y16047826D01*
X34926856Y16037598D01*
X34947373Y16025301D01*
X34966586Y16011051D01*
X34984310Y15994987D01*
X35000374Y15977263D01*
X35014624Y15958050D01*
X35026921Y15937533D01*
X35037149Y15915909D01*
X35045207Y15893387D01*
X35051019Y15870183D01*
X35054529Y15846522D01*
X35055703Y15822630D01*
X35055703Y15335130D01*
X35054529Y15311238D01*
X35051019Y15287577D01*
X35045207Y15264373D01*
X35037149Y15241851D01*
X35026921Y15220227D01*
X35014624Y15199710D01*
X35000374Y15180497D01*
X34984310Y15162773D01*
X34966586Y15146709D01*
X34947373Y15132459D01*
X34926856Y15120162D01*
X34905232Y15109934D01*
X34882710Y15101876D01*
X34859506Y15096064D01*
X34835845Y15092554D01*
X34811953Y15091380D01*
X33899453Y15091380D01*
X33875561Y15092554D01*
X33851900Y15096064D01*
X33828696Y15101876D01*
X33806174Y15109934D01*
X33784550Y15120162D01*
X33764033Y15132459D01*
X33744820Y15146709D01*
X33727096Y15162773D01*
X33711032Y15180497D01*
X33696782Y15199710D01*
X33684485Y15220227D01*
X33674257Y15241851D01*
X33666199Y15264373D01*
X33660387Y15287577D01*
X33656877Y15311238D01*
X33655703Y15335130D01*
X33655703Y15822630D01*
X33656877Y15846522D01*
X33660387Y15870183D01*
X33666199Y15893387D01*
X33674257Y15915909D01*
X33684485Y15937533D01*
X33696782Y15958050D01*
X33711032Y15977263D01*
X33727096Y15994987D01*
X33744820Y16011051D01*
X33764033Y16025301D01*
X33784550Y16037598D01*
X33806174Y16047826D01*
X33828696Y16055884D01*
X33851900Y16061696D01*
X33875561Y16065206D01*
X33899453Y16066380D01*
X34811953Y16066380D01*
X34835845Y16065206D01*
X34835845Y16065206D01*
G37*
D11*
X34355703Y15578880D03*
G04 #@! TD*
D10*
G04 #@! TO.C,R2*
G36*
X32835845Y14190206D02*
X32859506Y14186696D01*
X32882710Y14180884D01*
X32905232Y14172826D01*
X32926856Y14162598D01*
X32947373Y14150301D01*
X32966586Y14136051D01*
X32984310Y14119987D01*
X33000374Y14102263D01*
X33014624Y14083050D01*
X33026921Y14062533D01*
X33037149Y14040909D01*
X33045207Y14018387D01*
X33051019Y13995183D01*
X33054529Y13971522D01*
X33055703Y13947630D01*
X33055703Y13460130D01*
X33054529Y13436238D01*
X33051019Y13412577D01*
X33045207Y13389373D01*
X33037149Y13366851D01*
X33026921Y13345227D01*
X33014624Y13324710D01*
X33000374Y13305497D01*
X32984310Y13287773D01*
X32966586Y13271709D01*
X32947373Y13257459D01*
X32926856Y13245162D01*
X32905232Y13234934D01*
X32882710Y13226876D01*
X32859506Y13221064D01*
X32835845Y13217554D01*
X32811953Y13216380D01*
X31899453Y13216380D01*
X31875561Y13217554D01*
X31851900Y13221064D01*
X31828696Y13226876D01*
X31806174Y13234934D01*
X31784550Y13245162D01*
X31764033Y13257459D01*
X31744820Y13271709D01*
X31727096Y13287773D01*
X31711032Y13305497D01*
X31696782Y13324710D01*
X31684485Y13345227D01*
X31674257Y13366851D01*
X31666199Y13389373D01*
X31660387Y13412577D01*
X31656877Y13436238D01*
X31655703Y13460130D01*
X31655703Y13947630D01*
X31656877Y13971522D01*
X31660387Y13995183D01*
X31666199Y14018387D01*
X31674257Y14040909D01*
X31684485Y14062533D01*
X31696782Y14083050D01*
X31711032Y14102263D01*
X31727096Y14119987D01*
X31744820Y14136051D01*
X31764033Y14150301D01*
X31784550Y14162598D01*
X31806174Y14172826D01*
X31828696Y14180884D01*
X31851900Y14186696D01*
X31875561Y14190206D01*
X31899453Y14191380D01*
X32811953Y14191380D01*
X32835845Y14190206D01*
X32835845Y14190206D01*
G37*
D11*
X32355703Y13703880D03*
D10*
G36*
X32835845Y16065206D02*
X32859506Y16061696D01*
X32882710Y16055884D01*
X32905232Y16047826D01*
X32926856Y16037598D01*
X32947373Y16025301D01*
X32966586Y16011051D01*
X32984310Y15994987D01*
X33000374Y15977263D01*
X33014624Y15958050D01*
X33026921Y15937533D01*
X33037149Y15915909D01*
X33045207Y15893387D01*
X33051019Y15870183D01*
X33054529Y15846522D01*
X33055703Y15822630D01*
X33055703Y15335130D01*
X33054529Y15311238D01*
X33051019Y15287577D01*
X33045207Y15264373D01*
X33037149Y15241851D01*
X33026921Y15220227D01*
X33014624Y15199710D01*
X33000374Y15180497D01*
X32984310Y15162773D01*
X32966586Y15146709D01*
X32947373Y15132459D01*
X32926856Y15120162D01*
X32905232Y15109934D01*
X32882710Y15101876D01*
X32859506Y15096064D01*
X32835845Y15092554D01*
X32811953Y15091380D01*
X31899453Y15091380D01*
X31875561Y15092554D01*
X31851900Y15096064D01*
X31828696Y15101876D01*
X31806174Y15109934D01*
X31784550Y15120162D01*
X31764033Y15132459D01*
X31744820Y15146709D01*
X31727096Y15162773D01*
X31711032Y15180497D01*
X31696782Y15199710D01*
X31684485Y15220227D01*
X31674257Y15241851D01*
X31666199Y15264373D01*
X31660387Y15287577D01*
X31656877Y15311238D01*
X31655703Y15335130D01*
X31655703Y15822630D01*
X31656877Y15846522D01*
X31660387Y15870183D01*
X31666199Y15893387D01*
X31674257Y15915909D01*
X31684485Y15937533D01*
X31696782Y15958050D01*
X31711032Y15977263D01*
X31727096Y15994987D01*
X31744820Y16011051D01*
X31764033Y16025301D01*
X31784550Y16037598D01*
X31806174Y16047826D01*
X31828696Y16055884D01*
X31851900Y16061696D01*
X31875561Y16065206D01*
X31899453Y16066380D01*
X32811953Y16066380D01*
X32835845Y16065206D01*
X32835845Y16065206D01*
G37*
D11*
X32355703Y15578880D03*
G04 #@! TD*
D10*
G04 #@! TO.C,R3*
G36*
X36835845Y14190206D02*
X36859506Y14186696D01*
X36882710Y14180884D01*
X36905232Y14172826D01*
X36926856Y14162598D01*
X36947373Y14150301D01*
X36966586Y14136051D01*
X36984310Y14119987D01*
X37000374Y14102263D01*
X37014624Y14083050D01*
X37026921Y14062533D01*
X37037149Y14040909D01*
X37045207Y14018387D01*
X37051019Y13995183D01*
X37054529Y13971522D01*
X37055703Y13947630D01*
X37055703Y13460130D01*
X37054529Y13436238D01*
X37051019Y13412577D01*
X37045207Y13389373D01*
X37037149Y13366851D01*
X37026921Y13345227D01*
X37014624Y13324710D01*
X37000374Y13305497D01*
X36984310Y13287773D01*
X36966586Y13271709D01*
X36947373Y13257459D01*
X36926856Y13245162D01*
X36905232Y13234934D01*
X36882710Y13226876D01*
X36859506Y13221064D01*
X36835845Y13217554D01*
X36811953Y13216380D01*
X35899453Y13216380D01*
X35875561Y13217554D01*
X35851900Y13221064D01*
X35828696Y13226876D01*
X35806174Y13234934D01*
X35784550Y13245162D01*
X35764033Y13257459D01*
X35744820Y13271709D01*
X35727096Y13287773D01*
X35711032Y13305497D01*
X35696782Y13324710D01*
X35684485Y13345227D01*
X35674257Y13366851D01*
X35666199Y13389373D01*
X35660387Y13412577D01*
X35656877Y13436238D01*
X35655703Y13460130D01*
X35655703Y13947630D01*
X35656877Y13971522D01*
X35660387Y13995183D01*
X35666199Y14018387D01*
X35674257Y14040909D01*
X35684485Y14062533D01*
X35696782Y14083050D01*
X35711032Y14102263D01*
X35727096Y14119987D01*
X35744820Y14136051D01*
X35764033Y14150301D01*
X35784550Y14162598D01*
X35806174Y14172826D01*
X35828696Y14180884D01*
X35851900Y14186696D01*
X35875561Y14190206D01*
X35899453Y14191380D01*
X36811953Y14191380D01*
X36835845Y14190206D01*
X36835845Y14190206D01*
G37*
D11*
X36355703Y13703880D03*
D10*
G36*
X36835845Y16065206D02*
X36859506Y16061696D01*
X36882710Y16055884D01*
X36905232Y16047826D01*
X36926856Y16037598D01*
X36947373Y16025301D01*
X36966586Y16011051D01*
X36984310Y15994987D01*
X37000374Y15977263D01*
X37014624Y15958050D01*
X37026921Y15937533D01*
X37037149Y15915909D01*
X37045207Y15893387D01*
X37051019Y15870183D01*
X37054529Y15846522D01*
X37055703Y15822630D01*
X37055703Y15335130D01*
X37054529Y15311238D01*
X37051019Y15287577D01*
X37045207Y15264373D01*
X37037149Y15241851D01*
X37026921Y15220227D01*
X37014624Y15199710D01*
X37000374Y15180497D01*
X36984310Y15162773D01*
X36966586Y15146709D01*
X36947373Y15132459D01*
X36926856Y15120162D01*
X36905232Y15109934D01*
X36882710Y15101876D01*
X36859506Y15096064D01*
X36835845Y15092554D01*
X36811953Y15091380D01*
X35899453Y15091380D01*
X35875561Y15092554D01*
X35851900Y15096064D01*
X35828696Y15101876D01*
X35806174Y15109934D01*
X35784550Y15120162D01*
X35764033Y15132459D01*
X35744820Y15146709D01*
X35727096Y15162773D01*
X35711032Y15180497D01*
X35696782Y15199710D01*
X35684485Y15220227D01*
X35674257Y15241851D01*
X35666199Y15264373D01*
X35660387Y15287577D01*
X35656877Y15311238D01*
X35655703Y15335130D01*
X35655703Y15822630D01*
X35656877Y15846522D01*
X35660387Y15870183D01*
X35666199Y15893387D01*
X35674257Y15915909D01*
X35684485Y15937533D01*
X35696782Y15958050D01*
X35711032Y15977263D01*
X35727096Y15994987D01*
X35744820Y16011051D01*
X35764033Y16025301D01*
X35784550Y16037598D01*
X35806174Y16047826D01*
X35828696Y16055884D01*
X35851900Y16061696D01*
X35875561Y16065206D01*
X35899453Y16066380D01*
X36811953Y16066380D01*
X36835845Y16065206D01*
X36835845Y16065206D01*
G37*
D11*
X36355703Y15578880D03*
G04 #@! TD*
D10*
G04 #@! TO.C,R4*
G36*
X22619142Y6086826D02*
X22642803Y6083316D01*
X22666007Y6077504D01*
X22688529Y6069446D01*
X22710153Y6059218D01*
X22730670Y6046921D01*
X22749883Y6032671D01*
X22767607Y6016607D01*
X22783671Y5998883D01*
X22797921Y5979670D01*
X22810218Y5959153D01*
X22820446Y5937529D01*
X22828504Y5915007D01*
X22834316Y5891803D01*
X22837826Y5868142D01*
X22839000Y5844250D01*
X22839000Y4931750D01*
X22837826Y4907858D01*
X22834316Y4884197D01*
X22828504Y4860993D01*
X22820446Y4838471D01*
X22810218Y4816847D01*
X22797921Y4796330D01*
X22783671Y4777117D01*
X22767607Y4759393D01*
X22749883Y4743329D01*
X22730670Y4729079D01*
X22710153Y4716782D01*
X22688529Y4706554D01*
X22666007Y4698496D01*
X22642803Y4692684D01*
X22619142Y4689174D01*
X22595250Y4688000D01*
X22107750Y4688000D01*
X22083858Y4689174D01*
X22060197Y4692684D01*
X22036993Y4698496D01*
X22014471Y4706554D01*
X21992847Y4716782D01*
X21972330Y4729079D01*
X21953117Y4743329D01*
X21935393Y4759393D01*
X21919329Y4777117D01*
X21905079Y4796330D01*
X21892782Y4816847D01*
X21882554Y4838471D01*
X21874496Y4860993D01*
X21868684Y4884197D01*
X21865174Y4907858D01*
X21864000Y4931750D01*
X21864000Y5844250D01*
X21865174Y5868142D01*
X21868684Y5891803D01*
X21874496Y5915007D01*
X21882554Y5937529D01*
X21892782Y5959153D01*
X21905079Y5979670D01*
X21919329Y5998883D01*
X21935393Y6016607D01*
X21953117Y6032671D01*
X21972330Y6046921D01*
X21992847Y6059218D01*
X22014471Y6069446D01*
X22036993Y6077504D01*
X22060197Y6083316D01*
X22083858Y6086826D01*
X22107750Y6088000D01*
X22595250Y6088000D01*
X22619142Y6086826D01*
X22619142Y6086826D01*
G37*
D11*
X22351500Y5388000D03*
D10*
G36*
X24494142Y6086826D02*
X24517803Y6083316D01*
X24541007Y6077504D01*
X24563529Y6069446D01*
X24585153Y6059218D01*
X24605670Y6046921D01*
X24624883Y6032671D01*
X24642607Y6016607D01*
X24658671Y5998883D01*
X24672921Y5979670D01*
X24685218Y5959153D01*
X24695446Y5937529D01*
X24703504Y5915007D01*
X24709316Y5891803D01*
X24712826Y5868142D01*
X24714000Y5844250D01*
X24714000Y4931750D01*
X24712826Y4907858D01*
X24709316Y4884197D01*
X24703504Y4860993D01*
X24695446Y4838471D01*
X24685218Y4816847D01*
X24672921Y4796330D01*
X24658671Y4777117D01*
X24642607Y4759393D01*
X24624883Y4743329D01*
X24605670Y4729079D01*
X24585153Y4716782D01*
X24563529Y4706554D01*
X24541007Y4698496D01*
X24517803Y4692684D01*
X24494142Y4689174D01*
X24470250Y4688000D01*
X23982750Y4688000D01*
X23958858Y4689174D01*
X23935197Y4692684D01*
X23911993Y4698496D01*
X23889471Y4706554D01*
X23867847Y4716782D01*
X23847330Y4729079D01*
X23828117Y4743329D01*
X23810393Y4759393D01*
X23794329Y4777117D01*
X23780079Y4796330D01*
X23767782Y4816847D01*
X23757554Y4838471D01*
X23749496Y4860993D01*
X23743684Y4884197D01*
X23740174Y4907858D01*
X23739000Y4931750D01*
X23739000Y5844250D01*
X23740174Y5868142D01*
X23743684Y5891803D01*
X23749496Y5915007D01*
X23757554Y5937529D01*
X23767782Y5959153D01*
X23780079Y5979670D01*
X23794329Y5998883D01*
X23810393Y6016607D01*
X23828117Y6032671D01*
X23847330Y6046921D01*
X23867847Y6059218D01*
X23889471Y6069446D01*
X23911993Y6077504D01*
X23935197Y6083316D01*
X23958858Y6086826D01*
X23982750Y6088000D01*
X24470250Y6088000D01*
X24494142Y6086826D01*
X24494142Y6086826D01*
G37*
D11*
X24226500Y5388000D03*
G04 #@! TD*
D10*
G04 #@! TO.C,R5*
G36*
X26048142Y6086826D02*
X26071803Y6083316D01*
X26095007Y6077504D01*
X26117529Y6069446D01*
X26139153Y6059218D01*
X26159670Y6046921D01*
X26178883Y6032671D01*
X26196607Y6016607D01*
X26212671Y5998883D01*
X26226921Y5979670D01*
X26239218Y5959153D01*
X26249446Y5937529D01*
X26257504Y5915007D01*
X26263316Y5891803D01*
X26266826Y5868142D01*
X26268000Y5844250D01*
X26268000Y4931750D01*
X26266826Y4907858D01*
X26263316Y4884197D01*
X26257504Y4860993D01*
X26249446Y4838471D01*
X26239218Y4816847D01*
X26226921Y4796330D01*
X26212671Y4777117D01*
X26196607Y4759393D01*
X26178883Y4743329D01*
X26159670Y4729079D01*
X26139153Y4716782D01*
X26117529Y4706554D01*
X26095007Y4698496D01*
X26071803Y4692684D01*
X26048142Y4689174D01*
X26024250Y4688000D01*
X25536750Y4688000D01*
X25512858Y4689174D01*
X25489197Y4692684D01*
X25465993Y4698496D01*
X25443471Y4706554D01*
X25421847Y4716782D01*
X25401330Y4729079D01*
X25382117Y4743329D01*
X25364393Y4759393D01*
X25348329Y4777117D01*
X25334079Y4796330D01*
X25321782Y4816847D01*
X25311554Y4838471D01*
X25303496Y4860993D01*
X25297684Y4884197D01*
X25294174Y4907858D01*
X25293000Y4931750D01*
X25293000Y5844250D01*
X25294174Y5868142D01*
X25297684Y5891803D01*
X25303496Y5915007D01*
X25311554Y5937529D01*
X25321782Y5959153D01*
X25334079Y5979670D01*
X25348329Y5998883D01*
X25364393Y6016607D01*
X25382117Y6032671D01*
X25401330Y6046921D01*
X25421847Y6059218D01*
X25443471Y6069446D01*
X25465993Y6077504D01*
X25489197Y6083316D01*
X25512858Y6086826D01*
X25536750Y6088000D01*
X26024250Y6088000D01*
X26048142Y6086826D01*
X26048142Y6086826D01*
G37*
D11*
X25780500Y5388000D03*
D10*
G36*
X27923142Y6086826D02*
X27946803Y6083316D01*
X27970007Y6077504D01*
X27992529Y6069446D01*
X28014153Y6059218D01*
X28034670Y6046921D01*
X28053883Y6032671D01*
X28071607Y6016607D01*
X28087671Y5998883D01*
X28101921Y5979670D01*
X28114218Y5959153D01*
X28124446Y5937529D01*
X28132504Y5915007D01*
X28138316Y5891803D01*
X28141826Y5868142D01*
X28143000Y5844250D01*
X28143000Y4931750D01*
X28141826Y4907858D01*
X28138316Y4884197D01*
X28132504Y4860993D01*
X28124446Y4838471D01*
X28114218Y4816847D01*
X28101921Y4796330D01*
X28087671Y4777117D01*
X28071607Y4759393D01*
X28053883Y4743329D01*
X28034670Y4729079D01*
X28014153Y4716782D01*
X27992529Y4706554D01*
X27970007Y4698496D01*
X27946803Y4692684D01*
X27923142Y4689174D01*
X27899250Y4688000D01*
X27411750Y4688000D01*
X27387858Y4689174D01*
X27364197Y4692684D01*
X27340993Y4698496D01*
X27318471Y4706554D01*
X27296847Y4716782D01*
X27276330Y4729079D01*
X27257117Y4743329D01*
X27239393Y4759393D01*
X27223329Y4777117D01*
X27209079Y4796330D01*
X27196782Y4816847D01*
X27186554Y4838471D01*
X27178496Y4860993D01*
X27172684Y4884197D01*
X27169174Y4907858D01*
X27168000Y4931750D01*
X27168000Y5844250D01*
X27169174Y5868142D01*
X27172684Y5891803D01*
X27178496Y5915007D01*
X27186554Y5937529D01*
X27196782Y5959153D01*
X27209079Y5979670D01*
X27223329Y5998883D01*
X27239393Y6016607D01*
X27257117Y6032671D01*
X27276330Y6046921D01*
X27296847Y6059218D01*
X27318471Y6069446D01*
X27340993Y6077504D01*
X27364197Y6083316D01*
X27387858Y6086826D01*
X27411750Y6088000D01*
X27899250Y6088000D01*
X27923142Y6086826D01*
X27923142Y6086826D01*
G37*
D11*
X27655500Y5388000D03*
G04 #@! TD*
D10*
G04 #@! TO.C,R6*
G36*
X29701142Y9896826D02*
X29724803Y9893316D01*
X29748007Y9887504D01*
X29770529Y9879446D01*
X29792153Y9869218D01*
X29812670Y9856921D01*
X29831883Y9842671D01*
X29849607Y9826607D01*
X29865671Y9808883D01*
X29879921Y9789670D01*
X29892218Y9769153D01*
X29902446Y9747529D01*
X29910504Y9725007D01*
X29916316Y9701803D01*
X29919826Y9678142D01*
X29921000Y9654250D01*
X29921000Y8741750D01*
X29919826Y8717858D01*
X29916316Y8694197D01*
X29910504Y8670993D01*
X29902446Y8648471D01*
X29892218Y8626847D01*
X29879921Y8606330D01*
X29865671Y8587117D01*
X29849607Y8569393D01*
X29831883Y8553329D01*
X29812670Y8539079D01*
X29792153Y8526782D01*
X29770529Y8516554D01*
X29748007Y8508496D01*
X29724803Y8502684D01*
X29701142Y8499174D01*
X29677250Y8498000D01*
X29189750Y8498000D01*
X29165858Y8499174D01*
X29142197Y8502684D01*
X29118993Y8508496D01*
X29096471Y8516554D01*
X29074847Y8526782D01*
X29054330Y8539079D01*
X29035117Y8553329D01*
X29017393Y8569393D01*
X29001329Y8587117D01*
X28987079Y8606330D01*
X28974782Y8626847D01*
X28964554Y8648471D01*
X28956496Y8670993D01*
X28950684Y8694197D01*
X28947174Y8717858D01*
X28946000Y8741750D01*
X28946000Y9654250D01*
X28947174Y9678142D01*
X28950684Y9701803D01*
X28956496Y9725007D01*
X28964554Y9747529D01*
X28974782Y9769153D01*
X28987079Y9789670D01*
X29001329Y9808883D01*
X29017393Y9826607D01*
X29035117Y9842671D01*
X29054330Y9856921D01*
X29074847Y9869218D01*
X29096471Y9879446D01*
X29118993Y9887504D01*
X29142197Y9893316D01*
X29165858Y9896826D01*
X29189750Y9898000D01*
X29677250Y9898000D01*
X29701142Y9896826D01*
X29701142Y9896826D01*
G37*
D11*
X29433500Y9198000D03*
D10*
G36*
X27826142Y9896826D02*
X27849803Y9893316D01*
X27873007Y9887504D01*
X27895529Y9879446D01*
X27917153Y9869218D01*
X27937670Y9856921D01*
X27956883Y9842671D01*
X27974607Y9826607D01*
X27990671Y9808883D01*
X28004921Y9789670D01*
X28017218Y9769153D01*
X28027446Y9747529D01*
X28035504Y9725007D01*
X28041316Y9701803D01*
X28044826Y9678142D01*
X28046000Y9654250D01*
X28046000Y8741750D01*
X28044826Y8717858D01*
X28041316Y8694197D01*
X28035504Y8670993D01*
X28027446Y8648471D01*
X28017218Y8626847D01*
X28004921Y8606330D01*
X27990671Y8587117D01*
X27974607Y8569393D01*
X27956883Y8553329D01*
X27937670Y8539079D01*
X27917153Y8526782D01*
X27895529Y8516554D01*
X27873007Y8508496D01*
X27849803Y8502684D01*
X27826142Y8499174D01*
X27802250Y8498000D01*
X27314750Y8498000D01*
X27290858Y8499174D01*
X27267197Y8502684D01*
X27243993Y8508496D01*
X27221471Y8516554D01*
X27199847Y8526782D01*
X27179330Y8539079D01*
X27160117Y8553329D01*
X27142393Y8569393D01*
X27126329Y8587117D01*
X27112079Y8606330D01*
X27099782Y8626847D01*
X27089554Y8648471D01*
X27081496Y8670993D01*
X27075684Y8694197D01*
X27072174Y8717858D01*
X27071000Y8741750D01*
X27071000Y9654250D01*
X27072174Y9678142D01*
X27075684Y9701803D01*
X27081496Y9725007D01*
X27089554Y9747529D01*
X27099782Y9769153D01*
X27112079Y9789670D01*
X27126329Y9808883D01*
X27142393Y9826607D01*
X27160117Y9842671D01*
X27179330Y9856921D01*
X27199847Y9869218D01*
X27221471Y9879446D01*
X27243993Y9887504D01*
X27267197Y9893316D01*
X27290858Y9896826D01*
X27314750Y9898000D01*
X27802250Y9898000D01*
X27826142Y9896826D01*
X27826142Y9896826D01*
G37*
D11*
X27558500Y9198000D03*
G04 #@! TD*
D10*
G04 #@! TO.C,R7*
G36*
X27826142Y7991826D02*
X27849803Y7988316D01*
X27873007Y7982504D01*
X27895529Y7974446D01*
X27917153Y7964218D01*
X27937670Y7951921D01*
X27956883Y7937671D01*
X27974607Y7921607D01*
X27990671Y7903883D01*
X28004921Y7884670D01*
X28017218Y7864153D01*
X28027446Y7842529D01*
X28035504Y7820007D01*
X28041316Y7796803D01*
X28044826Y7773142D01*
X28046000Y7749250D01*
X28046000Y6836750D01*
X28044826Y6812858D01*
X28041316Y6789197D01*
X28035504Y6765993D01*
X28027446Y6743471D01*
X28017218Y6721847D01*
X28004921Y6701330D01*
X27990671Y6682117D01*
X27974607Y6664393D01*
X27956883Y6648329D01*
X27937670Y6634079D01*
X27917153Y6621782D01*
X27895529Y6611554D01*
X27873007Y6603496D01*
X27849803Y6597684D01*
X27826142Y6594174D01*
X27802250Y6593000D01*
X27314750Y6593000D01*
X27290858Y6594174D01*
X27267197Y6597684D01*
X27243993Y6603496D01*
X27221471Y6611554D01*
X27199847Y6621782D01*
X27179330Y6634079D01*
X27160117Y6648329D01*
X27142393Y6664393D01*
X27126329Y6682117D01*
X27112079Y6701330D01*
X27099782Y6721847D01*
X27089554Y6743471D01*
X27081496Y6765993D01*
X27075684Y6789197D01*
X27072174Y6812858D01*
X27071000Y6836750D01*
X27071000Y7749250D01*
X27072174Y7773142D01*
X27075684Y7796803D01*
X27081496Y7820007D01*
X27089554Y7842529D01*
X27099782Y7864153D01*
X27112079Y7884670D01*
X27126329Y7903883D01*
X27142393Y7921607D01*
X27160117Y7937671D01*
X27179330Y7951921D01*
X27199847Y7964218D01*
X27221471Y7974446D01*
X27243993Y7982504D01*
X27267197Y7988316D01*
X27290858Y7991826D01*
X27314750Y7993000D01*
X27802250Y7993000D01*
X27826142Y7991826D01*
X27826142Y7991826D01*
G37*
D11*
X27558500Y7293000D03*
D10*
G36*
X29701142Y7991826D02*
X29724803Y7988316D01*
X29748007Y7982504D01*
X29770529Y7974446D01*
X29792153Y7964218D01*
X29812670Y7951921D01*
X29831883Y7937671D01*
X29849607Y7921607D01*
X29865671Y7903883D01*
X29879921Y7884670D01*
X29892218Y7864153D01*
X29902446Y7842529D01*
X29910504Y7820007D01*
X29916316Y7796803D01*
X29919826Y7773142D01*
X29921000Y7749250D01*
X29921000Y6836750D01*
X29919826Y6812858D01*
X29916316Y6789197D01*
X29910504Y6765993D01*
X29902446Y6743471D01*
X29892218Y6721847D01*
X29879921Y6701330D01*
X29865671Y6682117D01*
X29849607Y6664393D01*
X29831883Y6648329D01*
X29812670Y6634079D01*
X29792153Y6621782D01*
X29770529Y6611554D01*
X29748007Y6603496D01*
X29724803Y6597684D01*
X29701142Y6594174D01*
X29677250Y6593000D01*
X29189750Y6593000D01*
X29165858Y6594174D01*
X29142197Y6597684D01*
X29118993Y6603496D01*
X29096471Y6611554D01*
X29074847Y6621782D01*
X29054330Y6634079D01*
X29035117Y6648329D01*
X29017393Y6664393D01*
X29001329Y6682117D01*
X28987079Y6701330D01*
X28974782Y6721847D01*
X28964554Y6743471D01*
X28956496Y6765993D01*
X28950684Y6789197D01*
X28947174Y6812858D01*
X28946000Y6836750D01*
X28946000Y7749250D01*
X28947174Y7773142D01*
X28950684Y7796803D01*
X28956496Y7820007D01*
X28964554Y7842529D01*
X28974782Y7864153D01*
X28987079Y7884670D01*
X29001329Y7903883D01*
X29017393Y7921607D01*
X29035117Y7937671D01*
X29054330Y7951921D01*
X29074847Y7964218D01*
X29096471Y7974446D01*
X29118993Y7982504D01*
X29142197Y7988316D01*
X29165858Y7991826D01*
X29189750Y7993000D01*
X29677250Y7993000D01*
X29701142Y7991826D01*
X29701142Y7991826D01*
G37*
D11*
X29433500Y7293000D03*
G04 #@! TD*
D10*
G04 #@! TO.C,R8*
G36*
X23430142Y9254826D02*
X23453803Y9251316D01*
X23477007Y9245504D01*
X23499529Y9237446D01*
X23521153Y9227218D01*
X23541670Y9214921D01*
X23560883Y9200671D01*
X23578607Y9184607D01*
X23594671Y9166883D01*
X23608921Y9147670D01*
X23621218Y9127153D01*
X23631446Y9105529D01*
X23639504Y9083007D01*
X23645316Y9059803D01*
X23648826Y9036142D01*
X23650000Y9012250D01*
X23650000Y8524750D01*
X23648826Y8500858D01*
X23645316Y8477197D01*
X23639504Y8453993D01*
X23631446Y8431471D01*
X23621218Y8409847D01*
X23608921Y8389330D01*
X23594671Y8370117D01*
X23578607Y8352393D01*
X23560883Y8336329D01*
X23541670Y8322079D01*
X23521153Y8309782D01*
X23499529Y8299554D01*
X23477007Y8291496D01*
X23453803Y8285684D01*
X23430142Y8282174D01*
X23406250Y8281000D01*
X22493750Y8281000D01*
X22469858Y8282174D01*
X22446197Y8285684D01*
X22422993Y8291496D01*
X22400471Y8299554D01*
X22378847Y8309782D01*
X22358330Y8322079D01*
X22339117Y8336329D01*
X22321393Y8352393D01*
X22305329Y8370117D01*
X22291079Y8389330D01*
X22278782Y8409847D01*
X22268554Y8431471D01*
X22260496Y8453993D01*
X22254684Y8477197D01*
X22251174Y8500858D01*
X22250000Y8524750D01*
X22250000Y9012250D01*
X22251174Y9036142D01*
X22254684Y9059803D01*
X22260496Y9083007D01*
X22268554Y9105529D01*
X22278782Y9127153D01*
X22291079Y9147670D01*
X22305329Y9166883D01*
X22321393Y9184607D01*
X22339117Y9200671D01*
X22358330Y9214921D01*
X22378847Y9227218D01*
X22400471Y9237446D01*
X22422993Y9245504D01*
X22446197Y9251316D01*
X22469858Y9254826D01*
X22493750Y9256000D01*
X23406250Y9256000D01*
X23430142Y9254826D01*
X23430142Y9254826D01*
G37*
D11*
X22950000Y8768500D03*
D10*
G36*
X23430142Y11129826D02*
X23453803Y11126316D01*
X23477007Y11120504D01*
X23499529Y11112446D01*
X23521153Y11102218D01*
X23541670Y11089921D01*
X23560883Y11075671D01*
X23578607Y11059607D01*
X23594671Y11041883D01*
X23608921Y11022670D01*
X23621218Y11002153D01*
X23631446Y10980529D01*
X23639504Y10958007D01*
X23645316Y10934803D01*
X23648826Y10911142D01*
X23650000Y10887250D01*
X23650000Y10399750D01*
X23648826Y10375858D01*
X23645316Y10352197D01*
X23639504Y10328993D01*
X23631446Y10306471D01*
X23621218Y10284847D01*
X23608921Y10264330D01*
X23594671Y10245117D01*
X23578607Y10227393D01*
X23560883Y10211329D01*
X23541670Y10197079D01*
X23521153Y10184782D01*
X23499529Y10174554D01*
X23477007Y10166496D01*
X23453803Y10160684D01*
X23430142Y10157174D01*
X23406250Y10156000D01*
X22493750Y10156000D01*
X22469858Y10157174D01*
X22446197Y10160684D01*
X22422993Y10166496D01*
X22400471Y10174554D01*
X22378847Y10184782D01*
X22358330Y10197079D01*
X22339117Y10211329D01*
X22321393Y10227393D01*
X22305329Y10245117D01*
X22291079Y10264330D01*
X22278782Y10284847D01*
X22268554Y10306471D01*
X22260496Y10328993D01*
X22254684Y10352197D01*
X22251174Y10375858D01*
X22250000Y10399750D01*
X22250000Y10887250D01*
X22251174Y10911142D01*
X22254684Y10934803D01*
X22260496Y10958007D01*
X22268554Y10980529D01*
X22278782Y11002153D01*
X22291079Y11022670D01*
X22305329Y11041883D01*
X22321393Y11059607D01*
X22339117Y11075671D01*
X22358330Y11089921D01*
X22378847Y11102218D01*
X22400471Y11112446D01*
X22422993Y11120504D01*
X22446197Y11126316D01*
X22469858Y11129826D01*
X22493750Y11131000D01*
X23406250Y11131000D01*
X23430142Y11129826D01*
X23430142Y11129826D01*
G37*
D11*
X22950000Y10643500D03*
G04 #@! TD*
D17*
G04 #@! TO.C,U2*
X21654000Y13074000D03*
X21654000Y14974000D03*
X23654000Y14024000D03*
G04 #@! TD*
D10*
G04 #@! TO.C,U6*
G36*
X31103351Y9774639D02*
X31110632Y9773559D01*
X31117771Y9771771D01*
X31124701Y9769291D01*
X31131355Y9766144D01*
X31137668Y9762360D01*
X31143579Y9757976D01*
X31149033Y9753033D01*
X31153976Y9747579D01*
X31158360Y9741668D01*
X31162144Y9735355D01*
X31165291Y9728701D01*
X31167771Y9721771D01*
X31169559Y9714632D01*
X31170639Y9707351D01*
X31171000Y9700000D01*
X31171000Y9200000D01*
X31170639Y9192649D01*
X31169559Y9185368D01*
X31167771Y9178229D01*
X31165291Y9171299D01*
X31162144Y9164645D01*
X31158360Y9158332D01*
X31153976Y9152421D01*
X31149033Y9146967D01*
X31143579Y9142024D01*
X31137668Y9137640D01*
X31131355Y9133856D01*
X31124701Y9130709D01*
X31117771Y9128229D01*
X31110632Y9126441D01*
X31103351Y9125361D01*
X31096000Y9125000D01*
X30946000Y9125000D01*
X30938649Y9125361D01*
X30931368Y9126441D01*
X30924229Y9128229D01*
X30917299Y9130709D01*
X30910645Y9133856D01*
X30904332Y9137640D01*
X30898421Y9142024D01*
X30892967Y9146967D01*
X30888024Y9152421D01*
X30883640Y9158332D01*
X30879856Y9164645D01*
X30876709Y9171299D01*
X30874229Y9178229D01*
X30872441Y9185368D01*
X30871361Y9192649D01*
X30871000Y9200000D01*
X30871000Y9700000D01*
X30871361Y9707351D01*
X30872441Y9714632D01*
X30874229Y9721771D01*
X30876709Y9728701D01*
X30879856Y9735355D01*
X30883640Y9741668D01*
X30888024Y9747579D01*
X30892967Y9753033D01*
X30898421Y9757976D01*
X30904332Y9762360D01*
X30910645Y9766144D01*
X30917299Y9769291D01*
X30924229Y9771771D01*
X30931368Y9773559D01*
X30938649Y9774639D01*
X30946000Y9775000D01*
X31096000Y9775000D01*
X31103351Y9774639D01*
X31103351Y9774639D01*
G37*
D18*
X31021000Y9450000D03*
D10*
G36*
X32403351Y9774639D02*
X32410632Y9773559D01*
X32417771Y9771771D01*
X32424701Y9769291D01*
X32431355Y9766144D01*
X32437668Y9762360D01*
X32443579Y9757976D01*
X32449033Y9753033D01*
X32453976Y9747579D01*
X32458360Y9741668D01*
X32462144Y9735355D01*
X32465291Y9728701D01*
X32467771Y9721771D01*
X32469559Y9714632D01*
X32470639Y9707351D01*
X32471000Y9700000D01*
X32471000Y9200000D01*
X32470639Y9192649D01*
X32469559Y9185368D01*
X32467771Y9178229D01*
X32465291Y9171299D01*
X32462144Y9164645D01*
X32458360Y9158332D01*
X32453976Y9152421D01*
X32449033Y9146967D01*
X32443579Y9142024D01*
X32437668Y9137640D01*
X32431355Y9133856D01*
X32424701Y9130709D01*
X32417771Y9128229D01*
X32410632Y9126441D01*
X32403351Y9125361D01*
X32396000Y9125000D01*
X32246000Y9125000D01*
X32238649Y9125361D01*
X32231368Y9126441D01*
X32224229Y9128229D01*
X32217299Y9130709D01*
X32210645Y9133856D01*
X32204332Y9137640D01*
X32198421Y9142024D01*
X32192967Y9146967D01*
X32188024Y9152421D01*
X32183640Y9158332D01*
X32179856Y9164645D01*
X32176709Y9171299D01*
X32174229Y9178229D01*
X32172441Y9185368D01*
X32171361Y9192649D01*
X32171000Y9200000D01*
X32171000Y9700000D01*
X32171361Y9707351D01*
X32172441Y9714632D01*
X32174229Y9721771D01*
X32176709Y9728701D01*
X32179856Y9735355D01*
X32183640Y9741668D01*
X32188024Y9747579D01*
X32192967Y9753033D01*
X32198421Y9757976D01*
X32204332Y9762360D01*
X32210645Y9766144D01*
X32217299Y9769291D01*
X32224229Y9771771D01*
X32231368Y9773559D01*
X32238649Y9774639D01*
X32246000Y9775000D01*
X32396000Y9775000D01*
X32403351Y9774639D01*
X32403351Y9774639D01*
G37*
D18*
X32321000Y9450000D03*
D10*
G36*
X32403351Y7974639D02*
X32410632Y7973559D01*
X32417771Y7971771D01*
X32424701Y7969291D01*
X32431355Y7966144D01*
X32437668Y7962360D01*
X32443579Y7957976D01*
X32449033Y7953033D01*
X32453976Y7947579D01*
X32458360Y7941668D01*
X32462144Y7935355D01*
X32465291Y7928701D01*
X32467771Y7921771D01*
X32469559Y7914632D01*
X32470639Y7907351D01*
X32471000Y7900000D01*
X32471000Y7400000D01*
X32470639Y7392649D01*
X32469559Y7385368D01*
X32467771Y7378229D01*
X32465291Y7371299D01*
X32462144Y7364645D01*
X32458360Y7358332D01*
X32453976Y7352421D01*
X32449033Y7346967D01*
X32443579Y7342024D01*
X32437668Y7337640D01*
X32431355Y7333856D01*
X32424701Y7330709D01*
X32417771Y7328229D01*
X32410632Y7326441D01*
X32403351Y7325361D01*
X32396000Y7325000D01*
X32246000Y7325000D01*
X32238649Y7325361D01*
X32231368Y7326441D01*
X32224229Y7328229D01*
X32217299Y7330709D01*
X32210645Y7333856D01*
X32204332Y7337640D01*
X32198421Y7342024D01*
X32192967Y7346967D01*
X32188024Y7352421D01*
X32183640Y7358332D01*
X32179856Y7364645D01*
X32176709Y7371299D01*
X32174229Y7378229D01*
X32172441Y7385368D01*
X32171361Y7392649D01*
X32171000Y7400000D01*
X32171000Y7900000D01*
X32171361Y7907351D01*
X32172441Y7914632D01*
X32174229Y7921771D01*
X32176709Y7928701D01*
X32179856Y7935355D01*
X32183640Y7941668D01*
X32188024Y7947579D01*
X32192967Y7953033D01*
X32198421Y7957976D01*
X32204332Y7962360D01*
X32210645Y7966144D01*
X32217299Y7969291D01*
X32224229Y7971771D01*
X32231368Y7973559D01*
X32238649Y7974639D01*
X32246000Y7975000D01*
X32396000Y7975000D01*
X32403351Y7974639D01*
X32403351Y7974639D01*
G37*
D18*
X32321000Y7650000D03*
D10*
G36*
X31103351Y7974639D02*
X31110632Y7973559D01*
X31117771Y7971771D01*
X31124701Y7969291D01*
X31131355Y7966144D01*
X31137668Y7962360D01*
X31143579Y7957976D01*
X31149033Y7953033D01*
X31153976Y7947579D01*
X31158360Y7941668D01*
X31162144Y7935355D01*
X31165291Y7928701D01*
X31167771Y7921771D01*
X31169559Y7914632D01*
X31170639Y7907351D01*
X31171000Y7900000D01*
X31171000Y7400000D01*
X31170639Y7392649D01*
X31169559Y7385368D01*
X31167771Y7378229D01*
X31165291Y7371299D01*
X31162144Y7364645D01*
X31158360Y7358332D01*
X31153976Y7352421D01*
X31149033Y7346967D01*
X31143579Y7342024D01*
X31137668Y7337640D01*
X31131355Y7333856D01*
X31124701Y7330709D01*
X31117771Y7328229D01*
X31110632Y7326441D01*
X31103351Y7325361D01*
X31096000Y7325000D01*
X30946000Y7325000D01*
X30938649Y7325361D01*
X30931368Y7326441D01*
X30924229Y7328229D01*
X30917299Y7330709D01*
X30910645Y7333856D01*
X30904332Y7337640D01*
X30898421Y7342024D01*
X30892967Y7346967D01*
X30888024Y7352421D01*
X30883640Y7358332D01*
X30879856Y7364645D01*
X30876709Y7371299D01*
X30874229Y7378229D01*
X30872441Y7385368D01*
X30871361Y7392649D01*
X30871000Y7400000D01*
X30871000Y7900000D01*
X30871361Y7907351D01*
X30872441Y7914632D01*
X30874229Y7921771D01*
X30876709Y7928701D01*
X30879856Y7935355D01*
X30883640Y7941668D01*
X30888024Y7947579D01*
X30892967Y7953033D01*
X30898421Y7957976D01*
X30904332Y7962360D01*
X30910645Y7966144D01*
X30917299Y7969291D01*
X30924229Y7971771D01*
X30931368Y7973559D01*
X30938649Y7974639D01*
X30946000Y7975000D01*
X31096000Y7975000D01*
X31103351Y7974639D01*
X31103351Y7974639D01*
G37*
D18*
X31021000Y7650000D03*
G04 #@! TD*
M02*
