G04 #@! TF.GenerationSoftware,KiCad,Pcbnew,5.0.2-bee76a0~70~ubuntu18.04.1*
G04 #@! TF.CreationDate,2019-11-03T13:57:03-05:00*
G04 #@! TF.ProjectId,ESP-AHT10-Extra,4553502d-4148-4543-9130-2d4578747261,rev?*
G04 #@! TF.SameCoordinates,PXa08e777PY66b80cc*
G04 #@! TF.FileFunction,Copper,L2,Bot*
G04 #@! TF.FilePolarity,Positive*
%FSLAX46Y46*%
G04 Gerber Fmt 4.6, Leading zero omitted, Abs format (unit mm)*
G04 Created by KiCad (PCBNEW 5.0.2-bee76a0~70~ubuntu18.04.1) date Sun 03 Nov 2019 01:57:03 PM EST*
%MOMM*%
%LPD*%
G01*
G04 APERTURE LIST*
G04 #@! TA.AperFunction,SMDPad,CuDef*
%ADD10R,1.000000X1.250000*%
G04 #@! TD*
G04 #@! TA.AperFunction,SMDPad,CuDef*
%ADD11R,1.250000X1.000000*%
G04 #@! TD*
G04 #@! TA.AperFunction,ConnectorPad*
%ADD12R,8.000000X1.900000*%
G04 #@! TD*
G04 #@! TA.AperFunction,ConnectorPad*
%ADD13R,7.500000X2.000000*%
G04 #@! TD*
G04 #@! TA.AperFunction,SMDPad,CuDef*
%ADD14R,1.300000X0.700000*%
G04 #@! TD*
G04 #@! TA.AperFunction,SMDPad,CuDef*
%ADD15R,0.700000X1.300000*%
G04 #@! TD*
G04 #@! TA.AperFunction,SMDPad,CuDef*
%ADD16R,1.550000X0.600000*%
G04 #@! TD*
G04 #@! TA.AperFunction,SMDPad,CuDef*
%ADD17R,1.060000X0.650000*%
G04 #@! TD*
G04 #@! TA.AperFunction,ComponentPad*
%ADD18R,1.100000X2.500000*%
G04 #@! TD*
G04 #@! TA.AperFunction,ComponentPad*
%ADD19O,1.100000X2.500000*%
G04 #@! TD*
G04 #@! TA.AperFunction,SMDPad,CuDef*
%ADD20O,0.800000X1.000000*%
G04 #@! TD*
G04 #@! TA.AperFunction,SMDPad,CuDef*
%ADD21R,0.800000X1.000000*%
G04 #@! TD*
G04 #@! TA.AperFunction,ComponentPad*
%ADD22O,2.400000X1.700000*%
G04 #@! TD*
G04 #@! TA.AperFunction,ViaPad*
%ADD23C,1.200000*%
G04 #@! TD*
G04 #@! TA.AperFunction,Conductor*
%ADD24C,0.300000*%
G04 #@! TD*
G04 #@! TA.AperFunction,Conductor*
%ADD25C,0.500000*%
G04 #@! TD*
G04 #@! TA.AperFunction,Conductor*
%ADD26C,0.254000*%
G04 #@! TD*
G04 APERTURE END LIST*
D10*
G04 #@! TO.P,C1,1*
G04 #@! TO.N,3V3*
X-18500000Y8500000D03*
G04 #@! TO.P,C1,2*
G04 #@! TO.N,GND*
X-16500000Y8500000D03*
G04 #@! TD*
D11*
G04 #@! TO.P,C2,2*
G04 #@! TO.N,GND*
X-18000000Y13000000D03*
G04 #@! TO.P,C2,1*
G04 #@! TO.N,Net-(C2-Pad1)*
X-18000000Y15000000D03*
G04 #@! TD*
G04 #@! TO.P,C3,2*
G04 #@! TO.N,3V3*
X-12000000Y15000000D03*
G04 #@! TO.P,C3,1*
G04 #@! TO.N,GND*
X-12000000Y13000000D03*
G04 #@! TD*
G04 #@! TO.P,C4,1*
G04 #@! TO.N,3V3*
X-10105703Y14958620D03*
G04 #@! TO.P,C4,2*
G04 #@! TO.N,GND*
X-10105703Y12958620D03*
G04 #@! TD*
D10*
G04 #@! TO.P,C5,2*
G04 #@! TO.N,GND*
X-1855703Y11958620D03*
G04 #@! TO.P,C5,1*
G04 #@! TO.N,3V3*
X-3855703Y11958620D03*
G04 #@! TD*
D12*
G04 #@! TO.P,J1,1*
G04 #@! TO.N,Net-(C2-Pad1)*
X-35396486Y13906246D03*
G04 #@! TO.P,J1,4*
G04 #@! TO.N,GND*
X-35396486Y6286246D03*
D13*
G04 #@! TO.P,J1,3*
G04 #@! TO.N,UD+*
X-35146486Y8796246D03*
G04 #@! TO.P,J1,2*
G04 #@! TO.N,UD-*
X-35146486Y11396246D03*
G04 #@! TD*
D14*
G04 #@! TO.P,R1,1*
G04 #@! TO.N,3V3*
X-4000000Y13550000D03*
G04 #@! TO.P,R1,2*
G04 #@! TO.N,Net-(R1-Pad2)*
X-4000000Y15450000D03*
G04 #@! TD*
G04 #@! TO.P,R2,1*
G04 #@! TO.N,Net-(R2-Pad1)*
X-6000000Y13550000D03*
G04 #@! TO.P,R2,2*
G04 #@! TO.N,Net-(R2-Pad2)*
X-6000000Y15450000D03*
G04 #@! TD*
G04 #@! TO.P,R3,2*
G04 #@! TO.N,Net-(R2-Pad1)*
X-2000000Y15500000D03*
G04 #@! TO.P,R3,1*
G04 #@! TO.N,3V3*
X-2000000Y13600000D03*
G04 #@! TD*
D15*
G04 #@! TO.P,R4,2*
G04 #@! TO.N,GND*
X-16450000Y5500000D03*
G04 #@! TO.P,R4,1*
G04 #@! TO.N,Net-(R4-Pad1)*
X-14550000Y5500000D03*
G04 #@! TD*
G04 #@! TO.P,R5,2*
G04 #@! TO.N,Net-(R5-Pad2)*
X-8450000Y10500000D03*
G04 #@! TO.P,R5,1*
G04 #@! TO.N,3V3*
X-6550000Y10500000D03*
G04 #@! TD*
G04 #@! TO.P,R6,1*
G04 #@! TO.N,3V3*
X-8450000Y8500000D03*
G04 #@! TO.P,R6,2*
G04 #@! TO.N,SDA*
X-6550000Y8500000D03*
G04 #@! TD*
G04 #@! TO.P,R7,2*
G04 #@! TO.N,SCL*
X-6550000Y6500000D03*
G04 #@! TO.P,R7,1*
G04 #@! TO.N,3V3*
X-8450000Y6500000D03*
G04 #@! TD*
D16*
G04 #@! TO.P,U1,1*
G04 #@! TO.N,UD+*
X-26346486Y8491246D03*
G04 #@! TO.P,U1,2*
G04 #@! TO.N,UD-*
X-26346486Y9761246D03*
G04 #@! TO.P,U1,3*
G04 #@! TO.N,GND*
X-26346486Y11031246D03*
G04 #@! TO.P,U1,4*
G04 #@! TO.N,N/C*
X-26346486Y12301246D03*
G04 #@! TO.P,U1,5*
G04 #@! TO.N,3V3*
X-20946486Y12301246D03*
G04 #@! TO.P,U1,6*
G04 #@! TO.N,eRX*
X-20946486Y11031246D03*
G04 #@! TO.P,U1,7*
G04 #@! TO.N,eTX*
X-20946486Y9761246D03*
G04 #@! TO.P,U1,8*
G04 #@! TO.N,3V3*
X-20946486Y8491246D03*
G04 #@! TD*
D17*
G04 #@! TO.P,U2,1*
G04 #@! TO.N,Net-(C2-Pad1)*
X-13900000Y14950000D03*
G04 #@! TO.P,U2,2*
G04 #@! TO.N,GND*
X-13900000Y14000000D03*
G04 #@! TO.P,U2,3*
G04 #@! TO.N,Net-(C2-Pad1)*
X-13900000Y13050000D03*
G04 #@! TO.P,U2,4*
G04 #@! TO.N,N/C*
X-16100000Y13050000D03*
G04 #@! TO.P,U2,5*
G04 #@! TO.N,3V3*
X-16100000Y14950000D03*
G04 #@! TD*
D18*
G04 #@! TO.P,U3,1*
G04 #@! TO.N,Net-(R2-Pad1)*
X-2146486Y18096246D03*
D19*
G04 #@! TO.P,U3,2*
G04 #@! TO.N,N/C*
X-4146486Y18096246D03*
G04 #@! TO.P,U3,3*
G04 #@! TO.N,Net-(R1-Pad2)*
X-6146486Y18096246D03*
G04 #@! TO.P,U3,4*
G04 #@! TO.N,Net-(R2-Pad2)*
X-8146486Y18096246D03*
G04 #@! TO.P,U3,5*
G04 #@! TO.N,N/C*
X-10146486Y18096246D03*
G04 #@! TO.P,U3,6*
X-12146486Y18096246D03*
G04 #@! TO.P,U3,7*
X-14146486Y18096246D03*
G04 #@! TO.P,U3,8*
G04 #@! TO.N,3V3*
X-16146486Y18096246D03*
G04 #@! TO.P,U3,9*
G04 #@! TO.N,GND*
X-16146486Y2696246D03*
G04 #@! TO.P,U3,10*
G04 #@! TO.N,Net-(R4-Pad1)*
X-14146486Y2796246D03*
G04 #@! TO.P,U3,11*
G04 #@! TO.N,N/C*
X-12146486Y2696246D03*
G04 #@! TO.P,U3,12*
G04 #@! TO.N,Net-(R5-Pad2)*
X-10146486Y2696246D03*
G04 #@! TO.P,U3,13*
G04 #@! TO.N,SDA*
X-8146486Y2696246D03*
G04 #@! TO.P,U3,14*
G04 #@! TO.N,SCL*
X-6146486Y2696246D03*
G04 #@! TO.P,U3,15*
G04 #@! TO.N,eRX*
X-4146486Y2696246D03*
G04 #@! TO.P,U3,16*
G04 #@! TO.N,eTX*
X-2146486Y2696246D03*
G04 #@! TD*
D20*
G04 #@! TO.P,U4,1*
G04 #@! TO.N,GND*
X-1230000Y7150000D03*
D21*
G04 #@! TO.P,U4,2*
G04 #@! TO.N,SDA*
X-2500000Y7150000D03*
G04 #@! TO.P,U4,3*
G04 #@! TO.N,SCL*
X-3770000Y7150000D03*
G04 #@! TO.P,U4,4*
G04 #@! TO.N,3V3*
X-3770000Y9850000D03*
G04 #@! TO.P,U4,5*
G04 #@! TO.N,GND*
X-2500000Y9850000D03*
G04 #@! TO.P,U4,6*
G04 #@! TO.N,N/C*
X-1230000Y9850000D03*
G04 #@! TD*
D22*
G04 #@! TO.P,SW1,2*
G04 #@! TO.N,GND*
X-20920000Y15460000D03*
G04 #@! TO.P,SW1,1*
G04 #@! TO.N,Net-(R2-Pad2)*
X-20920000Y18000000D03*
G04 #@! TO.P,SW1,2*
G04 #@! TO.N,GND*
X-26000000Y15460000D03*
G04 #@! TO.P,SW1,1*
G04 #@! TO.N,Net-(R2-Pad2)*
X-26000000Y18000000D03*
G04 #@! TD*
G04 #@! TO.P,SW2,1*
G04 #@! TO.N,Net-(R5-Pad2)*
X-21000000Y3000000D03*
G04 #@! TO.P,SW2,2*
G04 #@! TO.N,GND*
X-21000000Y5540000D03*
G04 #@! TO.P,SW2,1*
G04 #@! TO.N,Net-(R5-Pad2)*
X-26080000Y3000000D03*
G04 #@! TO.P,SW2,2*
G04 #@! TO.N,GND*
X-26080000Y5540000D03*
G04 #@! TD*
D23*
G04 #@! TO.N,3V3*
X-19100000Y11600000D03*
X-5700000Y11499996D03*
G04 #@! TO.N,eRX*
X-12000000Y5100000D03*
X-4099999Y4400000D03*
G04 #@! TO.N,eTX*
X-13100000Y6500000D03*
X-2300000Y5400000D03*
G04 #@! TD*
D24*
G04 #@! TO.N,3V3*
X-21000000Y8437732D02*
X-20946486Y8491246D01*
X-16000000Y17249760D02*
X-16146486Y17396246D01*
X-16000000Y15000000D02*
X-16000000Y17249760D01*
X-8450000Y6500000D02*
X-8450000Y8500000D01*
X-4875000Y10500000D02*
X-4000000Y11375000D01*
X-4000000Y11375000D02*
X-4000000Y11500000D01*
X-6550000Y10500000D02*
X-4875000Y10500000D01*
X-3770000Y11270000D02*
X-4000000Y11500000D01*
X-3770000Y9850000D02*
X-3770000Y11270000D01*
X-3950000Y13600000D02*
X-4000000Y13550000D01*
X-2000000Y13600000D02*
X-3950000Y13600000D01*
X-4000000Y13550000D02*
X-4000000Y11500000D01*
X-10000000Y15000000D02*
X-12000000Y15000000D01*
X-6550000Y11450000D02*
X-6550000Y10500000D01*
X-9300000Y15000000D02*
X-8000000Y13700000D01*
X-10000000Y15000000D02*
X-9300000Y15000000D01*
X-8000000Y12900000D02*
X-6550000Y11450000D01*
X-8000000Y13700000D02*
X-8000000Y12900000D01*
X-19801246Y12301246D02*
X-19699999Y12199999D01*
X-20946486Y12301246D02*
X-19801246Y12301246D01*
X-19699999Y12199999D02*
X-19100000Y11600000D01*
X-10000000Y15000000D02*
X-9875000Y15000000D01*
X-5700000Y11400000D02*
X-5700000Y11499996D01*
X-6500000Y10600000D02*
X-5700000Y11400000D01*
X-6550000Y10200000D02*
X-6550000Y10500000D01*
X-7200000Y9550000D02*
X-6550000Y10200000D01*
X-7500000Y9550000D02*
X-7200000Y9550000D01*
X-8450000Y8500000D02*
X-8450000Y8600000D01*
X-8450000Y8600000D02*
X-7500000Y9550000D01*
X-16024999Y15775001D02*
X-16100000Y15700000D01*
X-12900001Y15775001D02*
X-16024999Y15775001D01*
X-12000000Y15000000D02*
X-12125000Y15000000D01*
X-16100000Y15700000D02*
X-16100000Y14950000D01*
X-12125000Y15000000D02*
X-12900001Y15775001D01*
X-22448754Y12301246D02*
X-20946486Y12301246D01*
X-23000000Y11750000D02*
X-22448754Y12301246D01*
X-23000000Y8950000D02*
X-23000000Y11750000D01*
X-20946486Y8491246D02*
X-22541246Y8491246D01*
X-22541246Y8491246D02*
X-23000000Y8950000D01*
X-20946486Y8491246D02*
X-18508754Y8491246D01*
X-18508754Y8491246D02*
X-18500000Y8500000D01*
G04 #@! TO.N,GND*
X-2500000Y11000000D02*
X-2500000Y9850000D01*
X-2000000Y11500000D02*
X-2500000Y11000000D01*
X-2500000Y8950002D02*
X-1230000Y7680002D01*
X-1230000Y7680002D02*
X-1230000Y7150000D01*
X-2500000Y9850000D02*
X-2500000Y8950002D01*
X-13000000Y14000000D02*
X-12000000Y13000000D01*
X-13900000Y14000000D02*
X-13000000Y14000000D01*
X-12000000Y11900000D02*
X-12000000Y13000000D01*
X-12200000Y11700000D02*
X-12000000Y11900000D01*
X-17500000Y11700000D02*
X-12200000Y11700000D01*
X-18000000Y13000000D02*
X-18000000Y12200000D01*
X-18000000Y12200000D02*
X-17500000Y11700000D01*
D25*
X-26826246Y6286246D02*
X-26080000Y5540000D01*
X-35396486Y6286246D02*
X-26826246Y6286246D01*
X-26080000Y5540000D02*
X-21000000Y5540000D01*
D24*
X-1230000Y6350000D02*
X-1230000Y7150000D01*
X-500000Y5620000D02*
X-1230000Y6350000D01*
X-500000Y1300000D02*
X-500000Y5620000D01*
X-1600000Y200000D02*
X-500000Y1300000D01*
X-26080000Y5540000D02*
X-20740000Y200000D01*
X-20740000Y200000D02*
X-1600000Y200000D01*
G04 #@! TO.N,Net-(C2-Pad1)*
X-14730000Y14950000D02*
X-13900000Y14950000D01*
X-15000000Y14680000D02*
X-14730000Y14950000D01*
X-15000000Y14000000D02*
X-15000000Y14680000D01*
X-16875000Y14000000D02*
X-15000000Y14000000D01*
X-18000000Y15000000D02*
X-17875000Y15000000D01*
X-17875000Y15000000D02*
X-16875000Y14000000D01*
X-15000000Y13320000D02*
X-14730000Y13050000D01*
X-14730000Y13050000D02*
X-13900000Y13050000D01*
X-15000000Y14000000D02*
X-15000000Y13320000D01*
D25*
X-19600000Y19600000D02*
X-18000000Y18000000D01*
X-18000000Y18000000D02*
X-18000000Y15000000D01*
X-35190240Y13700000D02*
X-24650000Y13700000D01*
X-35396486Y13906246D02*
X-35190240Y13700000D01*
X-24650000Y13700000D02*
X-23850000Y14500000D01*
X-23850000Y14500000D02*
X-23850000Y18350000D01*
X-22600000Y19600000D02*
X-19600000Y19600000D01*
X-23850000Y18350000D02*
X-22600000Y19600000D01*
G04 #@! TO.N,UD+*
X-26355240Y8500000D02*
X-26346486Y8491246D01*
X-34850240Y8500000D02*
X-26355240Y8500000D01*
X-35146486Y8796246D02*
X-34850240Y8500000D01*
G04 #@! TO.N,UD-*
X-29461486Y9761246D02*
X-27421486Y9761246D01*
X-35146486Y11396246D02*
X-31096486Y11396246D01*
X-27421486Y9761246D02*
X-26346486Y9761246D01*
X-31096486Y11396246D02*
X-29461486Y9761246D01*
D24*
G04 #@! TO.N,Net-(R1-Pad2)*
X-5896246Y17396246D02*
X-6146486Y17396246D01*
X-4950000Y16450000D02*
X-5896246Y17396246D01*
X-4950000Y16199760D02*
X-4950000Y16450000D01*
X-4000000Y15450000D02*
X-4200240Y15450000D01*
X-4200240Y15450000D02*
X-4950000Y16199760D01*
G04 #@! TO.N,Net-(R2-Pad1)*
X-2146486Y15646486D02*
X-2000000Y15500000D01*
X-2146486Y17396246D02*
X-2146486Y15646486D01*
X-5850000Y13550000D02*
X-6000000Y13550000D01*
X-4900000Y14500000D02*
X-5850000Y13550000D01*
X-3200000Y14500000D02*
X-4900000Y14500000D01*
X-2000000Y15500000D02*
X-2200000Y15500000D01*
X-2200000Y15500000D02*
X-3200000Y14500000D01*
G04 #@! TO.N,Net-(R2-Pad2)*
X-8146486Y16346486D02*
X-8146486Y17396246D01*
X-6000000Y15450000D02*
X-7250000Y15450000D01*
X-7250000Y15450000D02*
X-8146486Y16346486D01*
X-19239325Y20300000D02*
X-19289336Y20350011D01*
X-19289336Y20350011D02*
X-23299989Y20350011D01*
X-8146486Y17396246D02*
X-8146486Y19646486D01*
X-25650000Y18000000D02*
X-26000000Y18000000D01*
X-8146486Y19646486D02*
X-8800000Y20300000D01*
X-8800000Y20300000D02*
X-19239325Y20300000D01*
X-23299989Y20350011D02*
X-25650000Y18000000D01*
G04 #@! TO.N,Net-(R4-Pad1)*
X-14146486Y5096486D02*
X-14550000Y5500000D01*
X-14146486Y3396246D02*
X-14146486Y5096486D01*
G04 #@! TO.N,Net-(R5-Pad2)*
X-9100000Y10500000D02*
X-8450000Y10500000D01*
X-10146486Y9453514D02*
X-9100000Y10500000D01*
X-10146486Y3396246D02*
X-10146486Y9453514D01*
X-20650000Y3000000D02*
X-21000000Y3000000D01*
X-18500011Y850011D02*
X-20650000Y3000000D01*
X-10146486Y3396246D02*
X-10146486Y1353514D01*
X-10649989Y850011D02*
X-18500011Y850011D01*
X-10146486Y1353514D02*
X-10649989Y850011D01*
G04 #@! TO.N,SDA*
X-5900000Y8500000D02*
X-6550000Y8500000D01*
X-3050000Y8500000D02*
X-5900000Y8500000D01*
X-2500000Y7950000D02*
X-3050000Y8500000D01*
X-2500000Y7150000D02*
X-2500000Y7950000D01*
X-6550000Y8350000D02*
X-6550000Y8500000D01*
X-7500000Y7400000D02*
X-6550000Y8350000D01*
X-8146486Y3396246D02*
X-7500000Y4042732D01*
X-7500000Y4042732D02*
X-7500000Y7400000D01*
G04 #@! TO.N,SCL*
X-4420000Y6500000D02*
X-3770000Y7150000D01*
X-6550000Y6500000D02*
X-4420000Y6500000D01*
X-6300000Y6250000D02*
X-6550000Y6500000D01*
X-6146486Y3396246D02*
X-6300000Y3549760D01*
X-6300000Y3549760D02*
X-6300000Y6250000D01*
G04 #@! TO.N,eRX*
X-4099999Y3442733D02*
X-4099999Y3551472D01*
X-4099999Y3551472D02*
X-4099999Y4400000D01*
X-4146486Y3396246D02*
X-4099999Y3442733D01*
X-12000000Y8100000D02*
X-12000000Y5948528D01*
X-14400000Y10500000D02*
X-12000000Y8100000D01*
X-19728004Y10500000D02*
X-14400000Y10500000D01*
X-20946486Y11031246D02*
X-20259250Y11031246D01*
X-12000000Y5948528D02*
X-12000000Y5100000D01*
X-20259250Y11031246D02*
X-19728004Y10500000D01*
G04 #@! TO.N,eTX*
X-2146486Y3396246D02*
X-2300000Y3549760D01*
X-2300000Y3549760D02*
X-2300000Y4551472D01*
X-2300000Y4551472D02*
X-2300000Y5400000D01*
X-13100000Y7348528D02*
X-13100000Y6500000D01*
X-20946486Y9761246D02*
X-20835227Y9649987D01*
X-15401459Y9649987D02*
X-13100000Y7348528D01*
X-20835227Y9649987D02*
X-15401459Y9649987D01*
G04 #@! TD*
D26*
G04 #@! TO.N,GND*
G36*
X-22784092Y18000000D02*
X-22668839Y17420582D01*
X-22340625Y16929375D01*
X-22031416Y16722768D01*
X-22409856Y16420251D01*
X-22690562Y15910952D01*
X-22711476Y15816890D01*
X-22590155Y15587000D01*
X-21047000Y15587000D01*
X-21047000Y15607000D01*
X-20793000Y15607000D01*
X-20793000Y15587000D01*
X-20773000Y15587000D01*
X-20773000Y15333000D01*
X-20793000Y15333000D01*
X-20793000Y13975000D01*
X-20443000Y13975000D01*
X-19884382Y14136640D01*
X-19430144Y14499749D01*
X-19272440Y14785879D01*
X-19272440Y14500000D01*
X-19223157Y14252235D01*
X-19082809Y14042191D01*
X-19021680Y14001346D01*
X-19163327Y13859698D01*
X-19260000Y13626309D01*
X-19260000Y13285750D01*
X-19101250Y13127000D01*
X-18127000Y13127000D01*
X-18127000Y13147000D01*
X-17873000Y13147000D01*
X-17873000Y13127000D01*
X-17853000Y13127000D01*
X-17853000Y12873000D01*
X-17873000Y12873000D01*
X-17873000Y12853000D01*
X-18127000Y12853000D01*
X-18127000Y12873000D01*
X-19101250Y12873000D01*
X-19139250Y12835000D01*
X-19213778Y12835000D01*
X-19235293Y12867199D01*
X-19494954Y13040700D01*
X-19723930Y13086246D01*
X-19723934Y13086246D01*
X-19767272Y13094866D01*
X-19923721Y13199403D01*
X-20171486Y13248686D01*
X-21721486Y13248686D01*
X-21969251Y13199403D01*
X-22138601Y13086246D01*
X-22371442Y13086246D01*
X-22448754Y13101624D01*
X-22526066Y13086246D01*
X-22526070Y13086246D01*
X-22755046Y13040700D01*
X-23014707Y12867199D01*
X-23058503Y12801654D01*
X-23500410Y12359747D01*
X-23565952Y12315953D01*
X-23609746Y12250411D01*
X-23609749Y12250408D01*
X-23739454Y12056291D01*
X-23800378Y11750000D01*
X-23784999Y11672683D01*
X-23785000Y9027312D01*
X-23800378Y8950000D01*
X-23785000Y8872688D01*
X-23785000Y8872685D01*
X-23751160Y8702560D01*
X-23739454Y8643709D01*
X-23643430Y8500000D01*
X-23565953Y8384047D01*
X-23500408Y8340251D01*
X-23150995Y7990838D01*
X-23107199Y7925293D01*
X-22847538Y7751792D01*
X-22618562Y7706246D01*
X-22618558Y7706246D01*
X-22541247Y7690868D01*
X-22463936Y7706246D01*
X-22138601Y7706246D01*
X-21969251Y7593089D01*
X-21721486Y7543806D01*
X-20171486Y7543806D01*
X-19923721Y7593089D01*
X-19754371Y7706246D01*
X-19613873Y7706246D01*
X-19598157Y7627235D01*
X-19457809Y7417191D01*
X-19247765Y7276843D01*
X-19000000Y7227560D01*
X-18000000Y7227560D01*
X-17752235Y7276843D01*
X-17542191Y7417191D01*
X-17501346Y7478320D01*
X-17359698Y7336673D01*
X-17126309Y7240000D01*
X-16785750Y7240000D01*
X-16627000Y7398750D01*
X-16627000Y8373000D01*
X-16373000Y8373000D01*
X-16373000Y7398750D01*
X-16214250Y7240000D01*
X-15873691Y7240000D01*
X-15640302Y7336673D01*
X-15461673Y7515301D01*
X-15365000Y7748690D01*
X-15365000Y8214250D01*
X-15523750Y8373000D01*
X-16373000Y8373000D01*
X-16627000Y8373000D01*
X-16647000Y8373000D01*
X-16647000Y8627000D01*
X-16627000Y8627000D01*
X-16627000Y8647000D01*
X-16373000Y8647000D01*
X-16373000Y8627000D01*
X-15523750Y8627000D01*
X-15506189Y8644560D01*
X-14104091Y7242462D01*
X-14146982Y7199571D01*
X-14313551Y6797440D01*
X-14900000Y6797440D01*
X-15147765Y6748157D01*
X-15357809Y6607809D01*
X-15498157Y6397765D01*
X-15503721Y6369791D01*
X-15561673Y6509699D01*
X-15740302Y6688327D01*
X-15973691Y6785000D01*
X-16164250Y6785000D01*
X-16323000Y6626250D01*
X-16323000Y5627000D01*
X-16303000Y5627000D01*
X-16303000Y5373000D01*
X-16323000Y5373000D01*
X-16323000Y5353000D01*
X-16577000Y5353000D01*
X-16577000Y5373000D01*
X-17276250Y5373000D01*
X-17435000Y5214250D01*
X-17435000Y4723690D01*
X-17338327Y4490301D01*
X-17159698Y4311673D01*
X-16970369Y4233250D01*
X-17192682Y3967059D01*
X-17331486Y3523246D01*
X-17331486Y2823246D01*
X-16273486Y2823246D01*
X-16273486Y2843246D01*
X-16019486Y2843246D01*
X-16019486Y2823246D01*
X-15999486Y2823246D01*
X-15999486Y2569246D01*
X-16019486Y2569246D01*
X-16019486Y2549246D01*
X-16273486Y2549246D01*
X-16273486Y2569246D01*
X-17331486Y2569246D01*
X-17331486Y1869246D01*
X-17258228Y1635011D01*
X-18174854Y1635011D01*
X-19202925Y2663082D01*
X-19135908Y3000000D01*
X-19251161Y3579418D01*
X-19579375Y4070625D01*
X-19888584Y4277232D01*
X-19510144Y4579749D01*
X-19229438Y5089048D01*
X-19208524Y5183110D01*
X-19329845Y5413000D01*
X-20873000Y5413000D01*
X-20873000Y5393000D01*
X-21127000Y5393000D01*
X-21127000Y5413000D01*
X-22670155Y5413000D01*
X-22791476Y5183110D01*
X-22770562Y5089048D01*
X-22489856Y4579749D01*
X-22111416Y4277232D01*
X-22420625Y4070625D01*
X-22748839Y3579418D01*
X-22864092Y3000000D01*
X-22748839Y2420582D01*
X-22420625Y1929375D01*
X-21929418Y1601161D01*
X-21496256Y1515000D01*
X-20503744Y1515000D01*
X-20313082Y1552925D01*
X-19453777Y693620D01*
X-27370703Y693620D01*
X-27370703Y1842564D01*
X-27009418Y1601161D01*
X-26576256Y1515000D01*
X-25583744Y1515000D01*
X-25150582Y1601161D01*
X-24659375Y1929375D01*
X-24331161Y2420582D01*
X-24215908Y3000000D01*
X-24331161Y3579418D01*
X-24659375Y4070625D01*
X-24968584Y4277232D01*
X-24590144Y4579749D01*
X-24309438Y5089048D01*
X-24288524Y5183110D01*
X-24409845Y5413000D01*
X-25953000Y5413000D01*
X-25953000Y5393000D01*
X-26207000Y5393000D01*
X-26207000Y5413000D01*
X-26227000Y5413000D01*
X-26227000Y5667000D01*
X-26207000Y5667000D01*
X-26207000Y7025000D01*
X-25953000Y7025000D01*
X-25953000Y5667000D01*
X-24409845Y5667000D01*
X-24288524Y5896890D01*
X-22791476Y5896890D01*
X-22670155Y5667000D01*
X-21127000Y5667000D01*
X-21127000Y7025000D01*
X-20873000Y7025000D01*
X-20873000Y5667000D01*
X-19329845Y5667000D01*
X-19208524Y5896890D01*
X-19229438Y5990952D01*
X-19386716Y6276310D01*
X-17435000Y6276310D01*
X-17435000Y5785750D01*
X-17276250Y5627000D01*
X-16577000Y5627000D01*
X-16577000Y6626250D01*
X-16735750Y6785000D01*
X-16926309Y6785000D01*
X-17159698Y6688327D01*
X-17338327Y6509699D01*
X-17435000Y6276310D01*
X-19386716Y6276310D01*
X-19510144Y6500251D01*
X-19964382Y6863360D01*
X-20523000Y7025000D01*
X-20873000Y7025000D01*
X-21127000Y7025000D01*
X-21477000Y7025000D01*
X-22035618Y6863360D01*
X-22489856Y6500251D01*
X-22770562Y5990952D01*
X-22791476Y5896890D01*
X-24288524Y5896890D01*
X-24309438Y5990952D01*
X-24590144Y6500251D01*
X-25044382Y6863360D01*
X-25603000Y7025000D01*
X-25953000Y7025000D01*
X-26207000Y7025000D01*
X-26557000Y7025000D01*
X-27115618Y6863360D01*
X-27569856Y6500251D01*
X-27850562Y5990952D01*
X-27871476Y5896890D01*
X-27750156Y5667002D01*
X-27873000Y5667002D01*
X-27873000Y7615000D01*
X-27402043Y7615000D01*
X-27369251Y7593089D01*
X-27121486Y7543806D01*
X-25571486Y7543806D01*
X-25323721Y7593089D01*
X-25113677Y7733437D01*
X-24973329Y7943481D01*
X-24924046Y8191246D01*
X-24924046Y8791246D01*
X-24973329Y9039011D01*
X-25031618Y9126246D01*
X-24973329Y9213481D01*
X-24924046Y9461246D01*
X-24924046Y10061246D01*
X-24973329Y10309011D01*
X-25026254Y10388218D01*
X-24936486Y10604936D01*
X-24936486Y10745496D01*
X-25095236Y10904246D01*
X-26219486Y10904246D01*
X-26219486Y10884246D01*
X-26473486Y10884246D01*
X-26473486Y10904246D01*
X-27597736Y10904246D01*
X-27756486Y10745496D01*
X-27756486Y10646246D01*
X-27873000Y10646246D01*
X-27873000Y12815000D01*
X-27726408Y12815000D01*
X-27768926Y12601246D01*
X-27768926Y12001246D01*
X-27719643Y11753481D01*
X-27666718Y11674274D01*
X-27756486Y11457556D01*
X-27756486Y11316996D01*
X-27597736Y11158246D01*
X-26473486Y11158246D01*
X-26473486Y11178246D01*
X-26219486Y11178246D01*
X-26219486Y11158246D01*
X-25095236Y11158246D01*
X-24936486Y11316996D01*
X-24936486Y11457556D01*
X-25026254Y11674274D01*
X-24973329Y11753481D01*
X-24924046Y12001246D01*
X-24924046Y12601246D01*
X-24966564Y12815000D01*
X-24737161Y12815000D01*
X-24650000Y12797663D01*
X-24562839Y12815000D01*
X-24562835Y12815000D01*
X-24304690Y12866348D01*
X-24011951Y13061951D01*
X-23962575Y13135847D01*
X-23285844Y13812577D01*
X-23211951Y13861951D01*
X-23136413Y13975000D01*
X-23016348Y14154690D01*
X-22995292Y14260546D01*
X-22965000Y14412835D01*
X-22965000Y14412839D01*
X-22947663Y14500000D01*
X-22965000Y14587161D01*
X-22965000Y15103110D01*
X-22711476Y15103110D01*
X-22690562Y15009048D01*
X-22409856Y14499749D01*
X-21955618Y14136640D01*
X-21397000Y13975000D01*
X-21047000Y13975000D01*
X-21047000Y15333000D01*
X-22590155Y15333000D01*
X-22711476Y15103110D01*
X-22965000Y15103110D01*
X-22965000Y17983422D01*
X-22743289Y18205133D01*
X-22784092Y18000000D01*
X-22784092Y18000000D01*
G37*
X-22784092Y18000000D02*
X-22668839Y17420582D01*
X-22340625Y16929375D01*
X-22031416Y16722768D01*
X-22409856Y16420251D01*
X-22690562Y15910952D01*
X-22711476Y15816890D01*
X-22590155Y15587000D01*
X-21047000Y15587000D01*
X-21047000Y15607000D01*
X-20793000Y15607000D01*
X-20793000Y15587000D01*
X-20773000Y15587000D01*
X-20773000Y15333000D01*
X-20793000Y15333000D01*
X-20793000Y13975000D01*
X-20443000Y13975000D01*
X-19884382Y14136640D01*
X-19430144Y14499749D01*
X-19272440Y14785879D01*
X-19272440Y14500000D01*
X-19223157Y14252235D01*
X-19082809Y14042191D01*
X-19021680Y14001346D01*
X-19163327Y13859698D01*
X-19260000Y13626309D01*
X-19260000Y13285750D01*
X-19101250Y13127000D01*
X-18127000Y13127000D01*
X-18127000Y13147000D01*
X-17873000Y13147000D01*
X-17873000Y13127000D01*
X-17853000Y13127000D01*
X-17853000Y12873000D01*
X-17873000Y12873000D01*
X-17873000Y12853000D01*
X-18127000Y12853000D01*
X-18127000Y12873000D01*
X-19101250Y12873000D01*
X-19139250Y12835000D01*
X-19213778Y12835000D01*
X-19235293Y12867199D01*
X-19494954Y13040700D01*
X-19723930Y13086246D01*
X-19723934Y13086246D01*
X-19767272Y13094866D01*
X-19923721Y13199403D01*
X-20171486Y13248686D01*
X-21721486Y13248686D01*
X-21969251Y13199403D01*
X-22138601Y13086246D01*
X-22371442Y13086246D01*
X-22448754Y13101624D01*
X-22526066Y13086246D01*
X-22526070Y13086246D01*
X-22755046Y13040700D01*
X-23014707Y12867199D01*
X-23058503Y12801654D01*
X-23500410Y12359747D01*
X-23565952Y12315953D01*
X-23609746Y12250411D01*
X-23609749Y12250408D01*
X-23739454Y12056291D01*
X-23800378Y11750000D01*
X-23784999Y11672683D01*
X-23785000Y9027312D01*
X-23800378Y8950000D01*
X-23785000Y8872688D01*
X-23785000Y8872685D01*
X-23751160Y8702560D01*
X-23739454Y8643709D01*
X-23643430Y8500000D01*
X-23565953Y8384047D01*
X-23500408Y8340251D01*
X-23150995Y7990838D01*
X-23107199Y7925293D01*
X-22847538Y7751792D01*
X-22618562Y7706246D01*
X-22618558Y7706246D01*
X-22541247Y7690868D01*
X-22463936Y7706246D01*
X-22138601Y7706246D01*
X-21969251Y7593089D01*
X-21721486Y7543806D01*
X-20171486Y7543806D01*
X-19923721Y7593089D01*
X-19754371Y7706246D01*
X-19613873Y7706246D01*
X-19598157Y7627235D01*
X-19457809Y7417191D01*
X-19247765Y7276843D01*
X-19000000Y7227560D01*
X-18000000Y7227560D01*
X-17752235Y7276843D01*
X-17542191Y7417191D01*
X-17501346Y7478320D01*
X-17359698Y7336673D01*
X-17126309Y7240000D01*
X-16785750Y7240000D01*
X-16627000Y7398750D01*
X-16627000Y8373000D01*
X-16373000Y8373000D01*
X-16373000Y7398750D01*
X-16214250Y7240000D01*
X-15873691Y7240000D01*
X-15640302Y7336673D01*
X-15461673Y7515301D01*
X-15365000Y7748690D01*
X-15365000Y8214250D01*
X-15523750Y8373000D01*
X-16373000Y8373000D01*
X-16627000Y8373000D01*
X-16647000Y8373000D01*
X-16647000Y8627000D01*
X-16627000Y8627000D01*
X-16627000Y8647000D01*
X-16373000Y8647000D01*
X-16373000Y8627000D01*
X-15523750Y8627000D01*
X-15506189Y8644560D01*
X-14104091Y7242462D01*
X-14146982Y7199571D01*
X-14313551Y6797440D01*
X-14900000Y6797440D01*
X-15147765Y6748157D01*
X-15357809Y6607809D01*
X-15498157Y6397765D01*
X-15503721Y6369791D01*
X-15561673Y6509699D01*
X-15740302Y6688327D01*
X-15973691Y6785000D01*
X-16164250Y6785000D01*
X-16323000Y6626250D01*
X-16323000Y5627000D01*
X-16303000Y5627000D01*
X-16303000Y5373000D01*
X-16323000Y5373000D01*
X-16323000Y5353000D01*
X-16577000Y5353000D01*
X-16577000Y5373000D01*
X-17276250Y5373000D01*
X-17435000Y5214250D01*
X-17435000Y4723690D01*
X-17338327Y4490301D01*
X-17159698Y4311673D01*
X-16970369Y4233250D01*
X-17192682Y3967059D01*
X-17331486Y3523246D01*
X-17331486Y2823246D01*
X-16273486Y2823246D01*
X-16273486Y2843246D01*
X-16019486Y2843246D01*
X-16019486Y2823246D01*
X-15999486Y2823246D01*
X-15999486Y2569246D01*
X-16019486Y2569246D01*
X-16019486Y2549246D01*
X-16273486Y2549246D01*
X-16273486Y2569246D01*
X-17331486Y2569246D01*
X-17331486Y1869246D01*
X-17258228Y1635011D01*
X-18174854Y1635011D01*
X-19202925Y2663082D01*
X-19135908Y3000000D01*
X-19251161Y3579418D01*
X-19579375Y4070625D01*
X-19888584Y4277232D01*
X-19510144Y4579749D01*
X-19229438Y5089048D01*
X-19208524Y5183110D01*
X-19329845Y5413000D01*
X-20873000Y5413000D01*
X-20873000Y5393000D01*
X-21127000Y5393000D01*
X-21127000Y5413000D01*
X-22670155Y5413000D01*
X-22791476Y5183110D01*
X-22770562Y5089048D01*
X-22489856Y4579749D01*
X-22111416Y4277232D01*
X-22420625Y4070625D01*
X-22748839Y3579418D01*
X-22864092Y3000000D01*
X-22748839Y2420582D01*
X-22420625Y1929375D01*
X-21929418Y1601161D01*
X-21496256Y1515000D01*
X-20503744Y1515000D01*
X-20313082Y1552925D01*
X-19453777Y693620D01*
X-27370703Y693620D01*
X-27370703Y1842564D01*
X-27009418Y1601161D01*
X-26576256Y1515000D01*
X-25583744Y1515000D01*
X-25150582Y1601161D01*
X-24659375Y1929375D01*
X-24331161Y2420582D01*
X-24215908Y3000000D01*
X-24331161Y3579418D01*
X-24659375Y4070625D01*
X-24968584Y4277232D01*
X-24590144Y4579749D01*
X-24309438Y5089048D01*
X-24288524Y5183110D01*
X-24409845Y5413000D01*
X-25953000Y5413000D01*
X-25953000Y5393000D01*
X-26207000Y5393000D01*
X-26207000Y5413000D01*
X-26227000Y5413000D01*
X-26227000Y5667000D01*
X-26207000Y5667000D01*
X-26207000Y7025000D01*
X-25953000Y7025000D01*
X-25953000Y5667000D01*
X-24409845Y5667000D01*
X-24288524Y5896890D01*
X-22791476Y5896890D01*
X-22670155Y5667000D01*
X-21127000Y5667000D01*
X-21127000Y7025000D01*
X-20873000Y7025000D01*
X-20873000Y5667000D01*
X-19329845Y5667000D01*
X-19208524Y5896890D01*
X-19229438Y5990952D01*
X-19386716Y6276310D01*
X-17435000Y6276310D01*
X-17435000Y5785750D01*
X-17276250Y5627000D01*
X-16577000Y5627000D01*
X-16577000Y6626250D01*
X-16735750Y6785000D01*
X-16926309Y6785000D01*
X-17159698Y6688327D01*
X-17338327Y6509699D01*
X-17435000Y6276310D01*
X-19386716Y6276310D01*
X-19510144Y6500251D01*
X-19964382Y6863360D01*
X-20523000Y7025000D01*
X-20873000Y7025000D01*
X-21127000Y7025000D01*
X-21477000Y7025000D01*
X-22035618Y6863360D01*
X-22489856Y6500251D01*
X-22770562Y5990952D01*
X-22791476Y5896890D01*
X-24288524Y5896890D01*
X-24309438Y5990952D01*
X-24590144Y6500251D01*
X-25044382Y6863360D01*
X-25603000Y7025000D01*
X-25953000Y7025000D01*
X-26207000Y7025000D01*
X-26557000Y7025000D01*
X-27115618Y6863360D01*
X-27569856Y6500251D01*
X-27850562Y5990952D01*
X-27871476Y5896890D01*
X-27750156Y5667002D01*
X-27873000Y5667002D01*
X-27873000Y7615000D01*
X-27402043Y7615000D01*
X-27369251Y7593089D01*
X-27121486Y7543806D01*
X-25571486Y7543806D01*
X-25323721Y7593089D01*
X-25113677Y7733437D01*
X-24973329Y7943481D01*
X-24924046Y8191246D01*
X-24924046Y8791246D01*
X-24973329Y9039011D01*
X-25031618Y9126246D01*
X-24973329Y9213481D01*
X-24924046Y9461246D01*
X-24924046Y10061246D01*
X-24973329Y10309011D01*
X-25026254Y10388218D01*
X-24936486Y10604936D01*
X-24936486Y10745496D01*
X-25095236Y10904246D01*
X-26219486Y10904246D01*
X-26219486Y10884246D01*
X-26473486Y10884246D01*
X-26473486Y10904246D01*
X-27597736Y10904246D01*
X-27756486Y10745496D01*
X-27756486Y10646246D01*
X-27873000Y10646246D01*
X-27873000Y12815000D01*
X-27726408Y12815000D01*
X-27768926Y12601246D01*
X-27768926Y12001246D01*
X-27719643Y11753481D01*
X-27666718Y11674274D01*
X-27756486Y11457556D01*
X-27756486Y11316996D01*
X-27597736Y11158246D01*
X-26473486Y11158246D01*
X-26473486Y11178246D01*
X-26219486Y11178246D01*
X-26219486Y11158246D01*
X-25095236Y11158246D01*
X-24936486Y11316996D01*
X-24936486Y11457556D01*
X-25026254Y11674274D01*
X-24973329Y11753481D01*
X-24924046Y12001246D01*
X-24924046Y12601246D01*
X-24966564Y12815000D01*
X-24737161Y12815000D01*
X-24650000Y12797663D01*
X-24562839Y12815000D01*
X-24562835Y12815000D01*
X-24304690Y12866348D01*
X-24011951Y13061951D01*
X-23962575Y13135847D01*
X-23285844Y13812577D01*
X-23211951Y13861951D01*
X-23136413Y13975000D01*
X-23016348Y14154690D01*
X-22995292Y14260546D01*
X-22965000Y14412835D01*
X-22965000Y14412839D01*
X-22947663Y14500000D01*
X-22965000Y14587161D01*
X-22965000Y15103110D01*
X-22711476Y15103110D01*
X-22690562Y15009048D01*
X-22409856Y14499749D01*
X-21955618Y14136640D01*
X-21397000Y13975000D01*
X-21047000Y13975000D01*
X-21047000Y15333000D01*
X-22590155Y15333000D01*
X-22711476Y15103110D01*
X-22965000Y15103110D01*
X-22965000Y17983422D01*
X-22743289Y18205133D01*
X-22784092Y18000000D01*
G36*
X-8785000Y13374843D02*
X-8785000Y12977312D01*
X-8800378Y12900000D01*
X-8785000Y12822688D01*
X-8785000Y12822684D01*
X-8767557Y12734996D01*
X-8739454Y12593709D01*
X-8609749Y12399592D01*
X-8609746Y12399589D01*
X-8565952Y12334047D01*
X-8500410Y12290253D01*
X-7984653Y11774496D01*
X-8100000Y11797440D01*
X-8800000Y11797440D01*
X-9047765Y11748157D01*
X-9257809Y11607809D01*
X-9398157Y11397765D01*
X-9433227Y11221457D01*
X-9665953Y11065953D01*
X-9709748Y11000409D01*
X-10646896Y10063261D01*
X-10712438Y10019467D01*
X-10756232Y9953925D01*
X-10756235Y9953922D01*
X-10885940Y9759805D01*
X-10946864Y9453514D01*
X-10931485Y9376197D01*
X-10931486Y5747587D01*
X-10953018Y5799571D01*
X-11215000Y6061553D01*
X-11215000Y8022688D01*
X-11199622Y8100000D01*
X-11215000Y8177312D01*
X-11215000Y8177316D01*
X-11260546Y8406292D01*
X-11434047Y8665953D01*
X-11499592Y8709749D01*
X-13790252Y11000409D01*
X-13834047Y11065953D01*
X-14093708Y11239454D01*
X-14322684Y11285000D01*
X-14322688Y11285000D01*
X-14400000Y11300378D01*
X-14477312Y11285000D01*
X-17893723Y11285000D01*
X-17865000Y11354343D01*
X-17865000Y11845657D01*
X-17873012Y11865000D01*
X-17872998Y11865000D01*
X-17872998Y12023748D01*
X-17714250Y11865000D01*
X-17248690Y11865000D01*
X-17015301Y11961673D01*
X-16854716Y12122258D01*
X-16630000Y12077560D01*
X-15570000Y12077560D01*
X-15322235Y12126843D01*
X-15112191Y12267191D01*
X-15068736Y12332225D01*
X-15036292Y12310546D01*
X-14898459Y12283129D01*
X-14887809Y12267191D01*
X-14677765Y12126843D01*
X-14430000Y12077560D01*
X-13370000Y12077560D01*
X-13145284Y12122258D01*
X-12984699Y11961673D01*
X-12751310Y11865000D01*
X-12285750Y11865000D01*
X-12127000Y12023750D01*
X-12127000Y12873000D01*
X-11873000Y12873000D01*
X-11873000Y12023750D01*
X-11714250Y11865000D01*
X-11248690Y11865000D01*
X-11097665Y11927556D01*
X-11090402Y11920293D01*
X-10857013Y11823620D01*
X-10391453Y11823620D01*
X-10232703Y11982370D01*
X-10232703Y12831620D01*
X-9978703Y12831620D01*
X-9978703Y11982370D01*
X-9819953Y11823620D01*
X-9354393Y11823620D01*
X-9121004Y11920293D01*
X-8942376Y12098922D01*
X-8845703Y12332311D01*
X-8845703Y12672870D01*
X-9004453Y12831620D01*
X-9978703Y12831620D01*
X-10232703Y12831620D01*
X-10857370Y12831620D01*
X-10898750Y12873000D01*
X-11873000Y12873000D01*
X-12127000Y12873000D01*
X-12147000Y12873000D01*
X-12147000Y13127000D01*
X-12127000Y13127000D01*
X-12127000Y13147000D01*
X-11873000Y13147000D01*
X-11873000Y13127000D01*
X-11248333Y13127000D01*
X-11206953Y13085620D01*
X-10232703Y13085620D01*
X-10232703Y13105620D01*
X-9978703Y13105620D01*
X-9978703Y13085620D01*
X-9004453Y13085620D01*
X-8845703Y13244370D01*
X-8845703Y13435546D01*
X-8785000Y13374843D01*
X-8785000Y13374843D01*
G37*
X-8785000Y13374843D02*
X-8785000Y12977312D01*
X-8800378Y12900000D01*
X-8785000Y12822688D01*
X-8785000Y12822684D01*
X-8767557Y12734996D01*
X-8739454Y12593709D01*
X-8609749Y12399592D01*
X-8609746Y12399589D01*
X-8565952Y12334047D01*
X-8500410Y12290253D01*
X-7984653Y11774496D01*
X-8100000Y11797440D01*
X-8800000Y11797440D01*
X-9047765Y11748157D01*
X-9257809Y11607809D01*
X-9398157Y11397765D01*
X-9433227Y11221457D01*
X-9665953Y11065953D01*
X-9709748Y11000409D01*
X-10646896Y10063261D01*
X-10712438Y10019467D01*
X-10756232Y9953925D01*
X-10756235Y9953922D01*
X-10885940Y9759805D01*
X-10946864Y9453514D01*
X-10931485Y9376197D01*
X-10931486Y5747587D01*
X-10953018Y5799571D01*
X-11215000Y6061553D01*
X-11215000Y8022688D01*
X-11199622Y8100000D01*
X-11215000Y8177312D01*
X-11215000Y8177316D01*
X-11260546Y8406292D01*
X-11434047Y8665953D01*
X-11499592Y8709749D01*
X-13790252Y11000409D01*
X-13834047Y11065953D01*
X-14093708Y11239454D01*
X-14322684Y11285000D01*
X-14322688Y11285000D01*
X-14400000Y11300378D01*
X-14477312Y11285000D01*
X-17893723Y11285000D01*
X-17865000Y11354343D01*
X-17865000Y11845657D01*
X-17873012Y11865000D01*
X-17872998Y11865000D01*
X-17872998Y12023748D01*
X-17714250Y11865000D01*
X-17248690Y11865000D01*
X-17015301Y11961673D01*
X-16854716Y12122258D01*
X-16630000Y12077560D01*
X-15570000Y12077560D01*
X-15322235Y12126843D01*
X-15112191Y12267191D01*
X-15068736Y12332225D01*
X-15036292Y12310546D01*
X-14898459Y12283129D01*
X-14887809Y12267191D01*
X-14677765Y12126843D01*
X-14430000Y12077560D01*
X-13370000Y12077560D01*
X-13145284Y12122258D01*
X-12984699Y11961673D01*
X-12751310Y11865000D01*
X-12285750Y11865000D01*
X-12127000Y12023750D01*
X-12127000Y12873000D01*
X-11873000Y12873000D01*
X-11873000Y12023750D01*
X-11714250Y11865000D01*
X-11248690Y11865000D01*
X-11097665Y11927556D01*
X-11090402Y11920293D01*
X-10857013Y11823620D01*
X-10391453Y11823620D01*
X-10232703Y11982370D01*
X-10232703Y12831620D01*
X-9978703Y12831620D01*
X-9978703Y11982370D01*
X-9819953Y11823620D01*
X-9354393Y11823620D01*
X-9121004Y11920293D01*
X-8942376Y12098922D01*
X-8845703Y12332311D01*
X-8845703Y12672870D01*
X-9004453Y12831620D01*
X-9978703Y12831620D01*
X-10232703Y12831620D01*
X-10857370Y12831620D01*
X-10898750Y12873000D01*
X-11873000Y12873000D01*
X-12127000Y12873000D01*
X-12147000Y12873000D01*
X-12147000Y13127000D01*
X-12127000Y13127000D01*
X-12127000Y13147000D01*
X-11873000Y13147000D01*
X-11873000Y13127000D01*
X-11248333Y13127000D01*
X-11206953Y13085620D01*
X-10232703Y13085620D01*
X-10232703Y13105620D01*
X-9978703Y13105620D01*
X-9978703Y13085620D01*
X-9004453Y13085620D01*
X-8845703Y13244370D01*
X-8845703Y13435546D01*
X-8785000Y13374843D01*
G36*
X-27670155Y15587000D02*
X-26127000Y15587000D01*
X-26127000Y15607000D01*
X-25873000Y15607000D01*
X-25873000Y15587000D01*
X-25853000Y15587000D01*
X-25853000Y15333000D01*
X-25873000Y15333000D01*
X-25873000Y15313000D01*
X-26127000Y15313000D01*
X-26127000Y15333000D01*
X-27670155Y15333000D01*
X-27791476Y15103110D01*
X-27770562Y15009048D01*
X-27536843Y14585000D01*
X-27873000Y14585000D01*
X-27873000Y15505509D01*
X-27818920Y15516266D01*
X-27681340Y15608194D01*
X-27670155Y15587000D01*
X-27670155Y15587000D01*
G37*
X-27670155Y15587000D02*
X-26127000Y15587000D01*
X-26127000Y15607000D01*
X-25873000Y15607000D01*
X-25873000Y15587000D01*
X-25853000Y15587000D01*
X-25853000Y15333000D01*
X-25873000Y15333000D01*
X-25873000Y15313000D01*
X-26127000Y15313000D01*
X-26127000Y15333000D01*
X-27670155Y15333000D01*
X-27791476Y15103110D01*
X-27770562Y15009048D01*
X-27536843Y14585000D01*
X-27873000Y14585000D01*
X-27873000Y15505509D01*
X-27818920Y15516266D01*
X-27681340Y15608194D01*
X-27670155Y15587000D01*
G04 #@! TD*
M02*
