G04 #@! TF.GenerationSoftware,KiCad,Pcbnew,5.0.2-bee76a0~70~ubuntu18.04.1*
G04 #@! TF.CreationDate,2019-11-16T22:21:55-05:00*
G04 #@! TF.ProjectId,ESP-AHT10-Extra,4553502d-4148-4543-9130-2d4578747261,1.2*
G04 #@! TF.SameCoordinates,PX7bfa480PY66c2270*
G04 #@! TF.FileFunction,Copper,L2,Bot*
G04 #@! TF.FilePolarity,Positive*
%FSLAX46Y46*%
G04 Gerber Fmt 4.6, Leading zero omitted, Abs format (unit mm)*
G04 Created by KiCad (PCBNEW 5.0.2-bee76a0~70~ubuntu18.04.1) date Sat 16 Nov 2019 10:21:55 PM EST*
%MOMM*%
%LPD*%
G01*
G04 APERTURE LIST*
G04 #@! TA.AperFunction,Conductor*
%ADD10C,0.050000*%
G04 #@! TD*
G04 #@! TA.AperFunction,SMDPad,CuDef*
%ADD11C,0.975000*%
G04 #@! TD*
G04 #@! TA.AperFunction,ConnectorPad*
%ADD12C,1.500000*%
G04 #@! TD*
G04 #@! TA.AperFunction,ConnectorPad*
%ADD13C,1.900000*%
G04 #@! TD*
G04 #@! TA.AperFunction,SMDPad,CuDef*
%ADD14R,1.550000X0.600000*%
G04 #@! TD*
G04 #@! TA.AperFunction,SMDPad,CuDef*
%ADD15R,0.650000X1.060000*%
G04 #@! TD*
G04 #@! TA.AperFunction,ComponentPad*
%ADD16R,1.100000X2.500000*%
G04 #@! TD*
G04 #@! TA.AperFunction,ComponentPad*
%ADD17O,1.100000X2.500000*%
G04 #@! TD*
G04 #@! TA.AperFunction,ComponentPad*
%ADD18O,1.600000X2.000000*%
G04 #@! TD*
G04 #@! TA.AperFunction,SMDPad,CuDef*
%ADD19O,0.650000X1.500000*%
G04 #@! TD*
G04 #@! TA.AperFunction,SMDPad,CuDef*
%ADD20R,0.650000X1.500000*%
G04 #@! TD*
G04 #@! TA.AperFunction,SMDPad,CuDef*
%ADD21R,1.060000X0.650000*%
G04 #@! TD*
G04 #@! TA.AperFunction,SMDPad,CuDef*
%ADD22R,1.100000X1.100000*%
G04 #@! TD*
G04 #@! TA.AperFunction,ViaPad*
%ADD23C,1.200000*%
G04 #@! TD*
G04 #@! TA.AperFunction,Conductor*
%ADD24C,0.300000*%
G04 #@! TD*
G04 #@! TA.AperFunction,Conductor*
%ADD25C,0.500000*%
G04 #@! TD*
G04 #@! TA.AperFunction,Conductor*
%ADD26C,0.400000*%
G04 #@! TD*
G04 #@! TA.AperFunction,Conductor*
%ADD27C,0.254000*%
G04 #@! TD*
G04 APERTURE END LIST*
D10*
G04 #@! TO.N,Net-(D1-Pad1)*
G04 #@! TO.C,F1*
G36*
X16155142Y15636326D02*
X16178803Y15632816D01*
X16202007Y15627004D01*
X16224529Y15618946D01*
X16246153Y15608718D01*
X16266670Y15596421D01*
X16285883Y15582171D01*
X16303607Y15566107D01*
X16319671Y15548383D01*
X16333921Y15529170D01*
X16346218Y15508653D01*
X16356446Y15487029D01*
X16364504Y15464507D01*
X16370316Y15441303D01*
X16373826Y15417642D01*
X16375000Y15393750D01*
X16375000Y14906250D01*
X16373826Y14882358D01*
X16370316Y14858697D01*
X16364504Y14835493D01*
X16356446Y14812971D01*
X16346218Y14791347D01*
X16333921Y14770830D01*
X16319671Y14751617D01*
X16303607Y14733893D01*
X16285883Y14717829D01*
X16266670Y14703579D01*
X16246153Y14691282D01*
X16224529Y14681054D01*
X16202007Y14672996D01*
X16178803Y14667184D01*
X16155142Y14663674D01*
X16131250Y14662500D01*
X15218750Y14662500D01*
X15194858Y14663674D01*
X15171197Y14667184D01*
X15147993Y14672996D01*
X15125471Y14681054D01*
X15103847Y14691282D01*
X15083330Y14703579D01*
X15064117Y14717829D01*
X15046393Y14733893D01*
X15030329Y14751617D01*
X15016079Y14770830D01*
X15003782Y14791347D01*
X14993554Y14812971D01*
X14985496Y14835493D01*
X14979684Y14858697D01*
X14976174Y14882358D01*
X14975000Y14906250D01*
X14975000Y15393750D01*
X14976174Y15417642D01*
X14979684Y15441303D01*
X14985496Y15464507D01*
X14993554Y15487029D01*
X15003782Y15508653D01*
X15016079Y15529170D01*
X15030329Y15548383D01*
X15046393Y15566107D01*
X15064117Y15582171D01*
X15083330Y15596421D01*
X15103847Y15608718D01*
X15125471Y15618946D01*
X15147993Y15627004D01*
X15171197Y15632816D01*
X15194858Y15636326D01*
X15218750Y15637500D01*
X16131250Y15637500D01*
X16155142Y15636326D01*
X16155142Y15636326D01*
G37*
D11*
G04 #@! TD*
G04 #@! TO.P,F1,2*
G04 #@! TO.N,Net-(D1-Pad1)*
X15675000Y15150000D03*
D10*
G04 #@! TO.N,5V*
G04 #@! TO.C,F1*
G36*
X16155142Y13761326D02*
X16178803Y13757816D01*
X16202007Y13752004D01*
X16224529Y13743946D01*
X16246153Y13733718D01*
X16266670Y13721421D01*
X16285883Y13707171D01*
X16303607Y13691107D01*
X16319671Y13673383D01*
X16333921Y13654170D01*
X16346218Y13633653D01*
X16356446Y13612029D01*
X16364504Y13589507D01*
X16370316Y13566303D01*
X16373826Y13542642D01*
X16375000Y13518750D01*
X16375000Y13031250D01*
X16373826Y13007358D01*
X16370316Y12983697D01*
X16364504Y12960493D01*
X16356446Y12937971D01*
X16346218Y12916347D01*
X16333921Y12895830D01*
X16319671Y12876617D01*
X16303607Y12858893D01*
X16285883Y12842829D01*
X16266670Y12828579D01*
X16246153Y12816282D01*
X16224529Y12806054D01*
X16202007Y12797996D01*
X16178803Y12792184D01*
X16155142Y12788674D01*
X16131250Y12787500D01*
X15218750Y12787500D01*
X15194858Y12788674D01*
X15171197Y12792184D01*
X15147993Y12797996D01*
X15125471Y12806054D01*
X15103847Y12816282D01*
X15083330Y12828579D01*
X15064117Y12842829D01*
X15046393Y12858893D01*
X15030329Y12876617D01*
X15016079Y12895830D01*
X15003782Y12916347D01*
X14993554Y12937971D01*
X14985496Y12960493D01*
X14979684Y12983697D01*
X14976174Y13007358D01*
X14975000Y13031250D01*
X14975000Y13518750D01*
X14976174Y13542642D01*
X14979684Y13566303D01*
X14985496Y13589507D01*
X14993554Y13612029D01*
X15003782Y13633653D01*
X15016079Y13654170D01*
X15030329Y13673383D01*
X15046393Y13691107D01*
X15064117Y13707171D01*
X15083330Y13721421D01*
X15103847Y13733718D01*
X15125471Y13743946D01*
X15147993Y13752004D01*
X15171197Y13757816D01*
X15194858Y13761326D01*
X15218750Y13762500D01*
X16131250Y13762500D01*
X16155142Y13761326D01*
X16155142Y13761326D01*
G37*
D11*
G04 #@! TD*
G04 #@! TO.P,F1,1*
G04 #@! TO.N,5V*
X15675000Y13275000D03*
D10*
G04 #@! TO.N,UD-*
G04 #@! TO.C,J1*
G36*
X8620973Y12385820D02*
X8657376Y12380420D01*
X8693074Y12371479D01*
X8727723Y12359081D01*
X8760991Y12343346D01*
X8792556Y12324427D01*
X8822114Y12302505D01*
X8849382Y12277791D01*
X8874096Y12250523D01*
X8896018Y12220965D01*
X8914937Y12189400D01*
X8930672Y12156132D01*
X8943070Y12121483D01*
X8952011Y12085785D01*
X8957411Y12049382D01*
X8959217Y12012626D01*
X8959217Y11262626D01*
X8957411Y11225870D01*
X8952011Y11189467D01*
X8943070Y11153769D01*
X8930672Y11119120D01*
X8914937Y11085852D01*
X8896018Y11054287D01*
X8874096Y11024729D01*
X8849382Y10997461D01*
X8822114Y10972747D01*
X8792556Y10950825D01*
X8760991Y10931906D01*
X8727723Y10916171D01*
X8693074Y10903773D01*
X8657376Y10894832D01*
X8620973Y10889432D01*
X8584217Y10887626D01*
X1834217Y10887626D01*
X1797461Y10889432D01*
X1761058Y10894832D01*
X1725360Y10903773D01*
X1690711Y10916171D01*
X1657443Y10931906D01*
X1625878Y10950825D01*
X1596320Y10972747D01*
X1569052Y10997461D01*
X1544338Y11024729D01*
X1522416Y11054287D01*
X1503497Y11085852D01*
X1487762Y11119120D01*
X1475364Y11153769D01*
X1466423Y11189467D01*
X1461023Y11225870D01*
X1459217Y11262626D01*
X1459217Y12012626D01*
X1461023Y12049382D01*
X1466423Y12085785D01*
X1475364Y12121483D01*
X1487762Y12156132D01*
X1503497Y12189400D01*
X1522416Y12220965D01*
X1544338Y12250523D01*
X1569052Y12277791D01*
X1596320Y12302505D01*
X1625878Y12324427D01*
X1657443Y12343346D01*
X1690711Y12359081D01*
X1725360Y12371479D01*
X1761058Y12380420D01*
X1797461Y12385820D01*
X1834217Y12387626D01*
X8584217Y12387626D01*
X8620973Y12385820D01*
X8620973Y12385820D01*
G37*
D12*
G04 #@! TD*
G04 #@! TO.P,J1,2*
G04 #@! TO.N,UD-*
X5209217Y11637626D03*
D10*
G04 #@! TO.N,UD+*
G04 #@! TO.C,J1*
G36*
X8620973Y9885820D02*
X8657376Y9880420D01*
X8693074Y9871479D01*
X8727723Y9859081D01*
X8760991Y9843346D01*
X8792556Y9824427D01*
X8822114Y9802505D01*
X8849382Y9777791D01*
X8874096Y9750523D01*
X8896018Y9720965D01*
X8914937Y9689400D01*
X8930672Y9656132D01*
X8943070Y9621483D01*
X8952011Y9585785D01*
X8957411Y9549382D01*
X8959217Y9512626D01*
X8959217Y8762626D01*
X8957411Y8725870D01*
X8952011Y8689467D01*
X8943070Y8653769D01*
X8930672Y8619120D01*
X8914937Y8585852D01*
X8896018Y8554287D01*
X8874096Y8524729D01*
X8849382Y8497461D01*
X8822114Y8472747D01*
X8792556Y8450825D01*
X8760991Y8431906D01*
X8727723Y8416171D01*
X8693074Y8403773D01*
X8657376Y8394832D01*
X8620973Y8389432D01*
X8584217Y8387626D01*
X1834217Y8387626D01*
X1797461Y8389432D01*
X1761058Y8394832D01*
X1725360Y8403773D01*
X1690711Y8416171D01*
X1657443Y8431906D01*
X1625878Y8450825D01*
X1596320Y8472747D01*
X1569052Y8497461D01*
X1544338Y8524729D01*
X1522416Y8554287D01*
X1503497Y8585852D01*
X1487762Y8619120D01*
X1475364Y8653769D01*
X1466423Y8689467D01*
X1461023Y8725870D01*
X1459217Y8762626D01*
X1459217Y9512626D01*
X1461023Y9549382D01*
X1466423Y9585785D01*
X1475364Y9621483D01*
X1487762Y9656132D01*
X1503497Y9689400D01*
X1522416Y9720965D01*
X1544338Y9750523D01*
X1569052Y9777791D01*
X1596320Y9802505D01*
X1625878Y9824427D01*
X1657443Y9843346D01*
X1690711Y9859081D01*
X1725360Y9871479D01*
X1761058Y9880420D01*
X1797461Y9885820D01*
X1834217Y9887626D01*
X8584217Y9887626D01*
X8620973Y9885820D01*
X8620973Y9885820D01*
G37*
D12*
G04 #@! TD*
G04 #@! TO.P,J1,3*
G04 #@! TO.N,UD+*
X5209217Y9137626D03*
D10*
G04 #@! TO.N,GND*
G04 #@! TO.C,J1*
G36*
X8530775Y7525339D02*
X8576885Y7518499D01*
X8622102Y7507173D01*
X8665992Y7491469D01*
X8708130Y7471539D01*
X8748113Y7447574D01*
X8785554Y7419806D01*
X8820093Y7388502D01*
X8851397Y7353963D01*
X8879165Y7316522D01*
X8903130Y7276539D01*
X8923060Y7234401D01*
X8938764Y7190511D01*
X8950090Y7145294D01*
X8956930Y7099184D01*
X8959217Y7052626D01*
X8959217Y6102626D01*
X8956930Y6056068D01*
X8950090Y6009958D01*
X8938764Y5964741D01*
X8923060Y5920851D01*
X8903130Y5878713D01*
X8879165Y5838730D01*
X8851397Y5801289D01*
X8820093Y5766750D01*
X8785554Y5735446D01*
X8748113Y5707678D01*
X8708130Y5683713D01*
X8665992Y5663783D01*
X8622102Y5648079D01*
X8576885Y5636753D01*
X8530775Y5629913D01*
X8484217Y5627626D01*
X1434217Y5627626D01*
X1387659Y5629913D01*
X1341549Y5636753D01*
X1296332Y5648079D01*
X1252442Y5663783D01*
X1210304Y5683713D01*
X1170321Y5707678D01*
X1132880Y5735446D01*
X1098341Y5766750D01*
X1067037Y5801289D01*
X1039269Y5838730D01*
X1015304Y5878713D01*
X995374Y5920851D01*
X979670Y5964741D01*
X968344Y6009958D01*
X961504Y6056068D01*
X959217Y6102626D01*
X959217Y7052626D01*
X961504Y7099184D01*
X968344Y7145294D01*
X979670Y7190511D01*
X995374Y7234401D01*
X1015304Y7276539D01*
X1039269Y7316522D01*
X1067037Y7353963D01*
X1098341Y7388502D01*
X1132880Y7419806D01*
X1170321Y7447574D01*
X1210304Y7471539D01*
X1252442Y7491469D01*
X1296332Y7507173D01*
X1341549Y7518499D01*
X1387659Y7525339D01*
X1434217Y7527626D01*
X8484217Y7527626D01*
X8530775Y7525339D01*
X8530775Y7525339D01*
G37*
D13*
G04 #@! TD*
G04 #@! TO.P,J1,4*
G04 #@! TO.N,GND*
X4959217Y6577626D03*
D10*
G04 #@! TO.N,VBUS*
G04 #@! TO.C,J1*
G36*
X8530775Y15145339D02*
X8576885Y15138499D01*
X8622102Y15127173D01*
X8665992Y15111469D01*
X8708130Y15091539D01*
X8748113Y15067574D01*
X8785554Y15039806D01*
X8820093Y15008502D01*
X8851397Y14973963D01*
X8879165Y14936522D01*
X8903130Y14896539D01*
X8923060Y14854401D01*
X8938764Y14810511D01*
X8950090Y14765294D01*
X8956930Y14719184D01*
X8959217Y14672626D01*
X8959217Y13722626D01*
X8956930Y13676068D01*
X8950090Y13629958D01*
X8938764Y13584741D01*
X8923060Y13540851D01*
X8903130Y13498713D01*
X8879165Y13458730D01*
X8851397Y13421289D01*
X8820093Y13386750D01*
X8785554Y13355446D01*
X8748113Y13327678D01*
X8708130Y13303713D01*
X8665992Y13283783D01*
X8622102Y13268079D01*
X8576885Y13256753D01*
X8530775Y13249913D01*
X8484217Y13247626D01*
X1434217Y13247626D01*
X1387659Y13249913D01*
X1341549Y13256753D01*
X1296332Y13268079D01*
X1252442Y13283783D01*
X1210304Y13303713D01*
X1170321Y13327678D01*
X1132880Y13355446D01*
X1098341Y13386750D01*
X1067037Y13421289D01*
X1039269Y13458730D01*
X1015304Y13498713D01*
X995374Y13540851D01*
X979670Y13584741D01*
X968344Y13629958D01*
X961504Y13676068D01*
X959217Y13722626D01*
X959217Y14672626D01*
X961504Y14719184D01*
X968344Y14765294D01*
X979670Y14810511D01*
X995374Y14854401D01*
X1015304Y14896539D01*
X1039269Y14936522D01*
X1067037Y14973963D01*
X1098341Y15008502D01*
X1132880Y15039806D01*
X1170321Y15067574D01*
X1210304Y15091539D01*
X1252442Y15111469D01*
X1296332Y15127173D01*
X1341549Y15138499D01*
X1387659Y15145339D01*
X1434217Y15147626D01*
X8484217Y15147626D01*
X8530775Y15145339D01*
X8530775Y15145339D01*
G37*
D13*
G04 #@! TD*
G04 #@! TO.P,J1,1*
G04 #@! TO.N,VBUS*
X4959217Y14197626D03*
D14*
G04 #@! TO.P,U1,1*
G04 #@! TO.N,UDP+*
X15359217Y6832626D03*
G04 #@! TO.P,U1,2*
G04 #@! TO.N,UDP-*
X15359217Y8102626D03*
G04 #@! TO.P,U1,3*
G04 #@! TO.N,GND*
X15359217Y9372626D03*
G04 #@! TO.P,U1,4*
G04 #@! TO.N,RESET*
X15359217Y10642626D03*
G04 #@! TO.P,U1,5*
G04 #@! TO.N,5V*
X20759217Y10642626D03*
G04 #@! TO.P,U1,6*
G04 #@! TO.N,eRX*
X20759217Y9372626D03*
G04 #@! TO.P,U1,7*
G04 #@! TO.N,Net-(R8-Pad2)*
X20759217Y8102626D03*
G04 #@! TO.P,U1,8*
G04 #@! TO.N,Net-(C6-Pad1)*
X20759217Y6832626D03*
G04 #@! TD*
D15*
G04 #@! TO.P,U2,1*
G04 #@! TO.N,5V*
X25305703Y12991380D03*
G04 #@! TO.P,U2,2*
G04 #@! TO.N,GND*
X24355703Y12991380D03*
G04 #@! TO.P,U2,3*
G04 #@! TO.N,5V*
X23405703Y12991380D03*
G04 #@! TO.P,U2,4*
G04 #@! TO.N,N/C*
X23405703Y15191380D03*
G04 #@! TO.P,U2,5*
G04 #@! TO.N,3V3*
X25305703Y15191380D03*
G04 #@! TD*
D16*
G04 #@! TO.P,U3,1*
G04 #@! TO.N,Net-(R2-Pad1)*
X36209217Y18137626D03*
D17*
G04 #@! TO.P,U3,2*
G04 #@! TO.N,N/C*
X34209217Y18137626D03*
G04 #@! TO.P,U3,3*
G04 #@! TO.N,Net-(R1-Pad2)*
X32209217Y18137626D03*
G04 #@! TO.P,U3,4*
G04 #@! TO.N,RESET*
X30209217Y18137626D03*
G04 #@! TO.P,U3,5*
G04 #@! TO.N,WLED*
X28209217Y18137626D03*
G04 #@! TO.P,U3,6*
G04 #@! TO.N,N/C*
X26209217Y18137626D03*
G04 #@! TO.P,U3,7*
X24209217Y18137626D03*
G04 #@! TO.P,U3,8*
G04 #@! TO.N,3V3*
X22209217Y18137626D03*
G04 #@! TO.P,U3,9*
G04 #@! TO.N,GND*
X22209217Y2737626D03*
G04 #@! TO.P,U3,10*
G04 #@! TO.N,Net-(R4-Pad1)*
X24209217Y2837626D03*
G04 #@! TO.P,U3,11*
G04 #@! TO.N,N/C*
X26209217Y2737626D03*
G04 #@! TO.P,U3,12*
G04 #@! TO.N,Net-(R5-Pad2)*
X28209217Y2737626D03*
G04 #@! TO.P,U3,13*
G04 #@! TO.N,SDA*
X30209217Y2737626D03*
G04 #@! TO.P,U3,14*
G04 #@! TO.N,SCL*
X32209217Y2737626D03*
G04 #@! TO.P,U3,15*
G04 #@! TO.N,eRX*
X34209217Y2737626D03*
G04 #@! TO.P,U3,16*
G04 #@! TO.N,eTX*
X36209217Y2737626D03*
G04 #@! TD*
D18*
G04 #@! TO.P,SW1,2*
G04 #@! TO.N,GND*
X13450000Y18500000D03*
G04 #@! TO.P,SW1,1*
G04 #@! TO.N,RESET*
X20050000Y18500000D03*
G04 #@! TD*
G04 #@! TO.P,SW2,1*
G04 #@! TO.N,Net-(R5-Pad2)*
X13450000Y2250000D03*
G04 #@! TO.P,SW2,2*
G04 #@! TO.N,GND*
X20050000Y2250000D03*
G04 #@! TD*
D19*
G04 #@! TO.P,U4,1*
G04 #@! TO.N,GND*
X37125703Y6941380D03*
D20*
G04 #@! TO.P,U4,2*
G04 #@! TO.N,SDA*
X35855703Y6941380D03*
G04 #@! TO.P,U4,3*
G04 #@! TO.N,SCL*
X34585703Y6941380D03*
G04 #@! TO.P,U4,4*
G04 #@! TO.N,3V3*
X34585703Y10141380D03*
G04 #@! TO.P,U4,5*
G04 #@! TO.N,GND*
X35855703Y10141380D03*
G04 #@! TO.P,U4,6*
G04 #@! TO.N,N/C*
X37125703Y10141380D03*
G04 #@! TD*
D21*
G04 #@! TO.P,U5,1*
G04 #@! TO.N,UD+*
X10250000Y8075000D03*
G04 #@! TO.P,U5,2*
G04 #@! TO.N,GND*
X10250000Y9025000D03*
G04 #@! TO.P,U5,3*
G04 #@! TO.N,UD-*
X10250000Y9975000D03*
G04 #@! TO.P,U5,4*
G04 #@! TO.N,UDP-*
X12450000Y9975000D03*
G04 #@! TO.P,U5,6*
G04 #@! TO.N,UDP+*
X12450000Y8075000D03*
G04 #@! TO.P,U5,5*
G04 #@! TO.N,5V*
X12450000Y9025000D03*
G04 #@! TD*
D10*
G04 #@! TO.N,GND*
G04 #@! TO.C,C1*
G36*
X27780142Y13790206D02*
X27803803Y13786696D01*
X27827007Y13780884D01*
X27849529Y13772826D01*
X27871153Y13762598D01*
X27891670Y13750301D01*
X27910883Y13736051D01*
X27928607Y13719987D01*
X27944671Y13702263D01*
X27958921Y13683050D01*
X27971218Y13662533D01*
X27981446Y13640909D01*
X27989504Y13618387D01*
X27995316Y13595183D01*
X27998826Y13571522D01*
X28000000Y13547630D01*
X28000000Y13060130D01*
X27998826Y13036238D01*
X27995316Y13012577D01*
X27989504Y12989373D01*
X27981446Y12966851D01*
X27971218Y12945227D01*
X27958921Y12924710D01*
X27944671Y12905497D01*
X27928607Y12887773D01*
X27910883Y12871709D01*
X27891670Y12857459D01*
X27871153Y12845162D01*
X27849529Y12834934D01*
X27827007Y12826876D01*
X27803803Y12821064D01*
X27780142Y12817554D01*
X27756250Y12816380D01*
X26843750Y12816380D01*
X26819858Y12817554D01*
X26796197Y12821064D01*
X26772993Y12826876D01*
X26750471Y12834934D01*
X26728847Y12845162D01*
X26708330Y12857459D01*
X26689117Y12871709D01*
X26671393Y12887773D01*
X26655329Y12905497D01*
X26641079Y12924710D01*
X26628782Y12945227D01*
X26618554Y12966851D01*
X26610496Y12989373D01*
X26604684Y13012577D01*
X26601174Y13036238D01*
X26600000Y13060130D01*
X26600000Y13547630D01*
X26601174Y13571522D01*
X26604684Y13595183D01*
X26610496Y13618387D01*
X26618554Y13640909D01*
X26628782Y13662533D01*
X26641079Y13683050D01*
X26655329Y13702263D01*
X26671393Y13719987D01*
X26689117Y13736051D01*
X26708330Y13750301D01*
X26728847Y13762598D01*
X26750471Y13772826D01*
X26772993Y13780884D01*
X26796197Y13786696D01*
X26819858Y13790206D01*
X26843750Y13791380D01*
X27756250Y13791380D01*
X27780142Y13790206D01*
X27780142Y13790206D01*
G37*
D11*
G04 #@! TD*
G04 #@! TO.P,C1,2*
G04 #@! TO.N,GND*
X27300000Y13303880D03*
D10*
G04 #@! TO.N,3V3*
G04 #@! TO.C,C1*
G36*
X27780142Y15665206D02*
X27803803Y15661696D01*
X27827007Y15655884D01*
X27849529Y15647826D01*
X27871153Y15637598D01*
X27891670Y15625301D01*
X27910883Y15611051D01*
X27928607Y15594987D01*
X27944671Y15577263D01*
X27958921Y15558050D01*
X27971218Y15537533D01*
X27981446Y15515909D01*
X27989504Y15493387D01*
X27995316Y15470183D01*
X27998826Y15446522D01*
X28000000Y15422630D01*
X28000000Y14935130D01*
X27998826Y14911238D01*
X27995316Y14887577D01*
X27989504Y14864373D01*
X27981446Y14841851D01*
X27971218Y14820227D01*
X27958921Y14799710D01*
X27944671Y14780497D01*
X27928607Y14762773D01*
X27910883Y14746709D01*
X27891670Y14732459D01*
X27871153Y14720162D01*
X27849529Y14709934D01*
X27827007Y14701876D01*
X27803803Y14696064D01*
X27780142Y14692554D01*
X27756250Y14691380D01*
X26843750Y14691380D01*
X26819858Y14692554D01*
X26796197Y14696064D01*
X26772993Y14701876D01*
X26750471Y14709934D01*
X26728847Y14720162D01*
X26708330Y14732459D01*
X26689117Y14746709D01*
X26671393Y14762773D01*
X26655329Y14780497D01*
X26641079Y14799710D01*
X26628782Y14820227D01*
X26618554Y14841851D01*
X26610496Y14864373D01*
X26604684Y14887577D01*
X26601174Y14911238D01*
X26600000Y14935130D01*
X26600000Y15422630D01*
X26601174Y15446522D01*
X26604684Y15470183D01*
X26610496Y15493387D01*
X26618554Y15515909D01*
X26628782Y15537533D01*
X26641079Y15558050D01*
X26655329Y15577263D01*
X26671393Y15594987D01*
X26689117Y15611051D01*
X26708330Y15625301D01*
X26728847Y15637598D01*
X26750471Y15647826D01*
X26772993Y15655884D01*
X26796197Y15661696D01*
X26819858Y15665206D01*
X26843750Y15666380D01*
X27756250Y15666380D01*
X27780142Y15665206D01*
X27780142Y15665206D01*
G37*
D11*
G04 #@! TD*
G04 #@! TO.P,C1,1*
G04 #@! TO.N,3V3*
X27300000Y15178880D03*
D10*
G04 #@! TO.N,5V*
G04 #@! TO.C,C2*
G36*
X20005142Y13790206D02*
X20028803Y13786696D01*
X20052007Y13780884D01*
X20074529Y13772826D01*
X20096153Y13762598D01*
X20116670Y13750301D01*
X20135883Y13736051D01*
X20153607Y13719987D01*
X20169671Y13702263D01*
X20183921Y13683050D01*
X20196218Y13662533D01*
X20206446Y13640909D01*
X20214504Y13618387D01*
X20220316Y13595183D01*
X20223826Y13571522D01*
X20225000Y13547630D01*
X20225000Y13060130D01*
X20223826Y13036238D01*
X20220316Y13012577D01*
X20214504Y12989373D01*
X20206446Y12966851D01*
X20196218Y12945227D01*
X20183921Y12924710D01*
X20169671Y12905497D01*
X20153607Y12887773D01*
X20135883Y12871709D01*
X20116670Y12857459D01*
X20096153Y12845162D01*
X20074529Y12834934D01*
X20052007Y12826876D01*
X20028803Y12821064D01*
X20005142Y12817554D01*
X19981250Y12816380D01*
X19068750Y12816380D01*
X19044858Y12817554D01*
X19021197Y12821064D01*
X18997993Y12826876D01*
X18975471Y12834934D01*
X18953847Y12845162D01*
X18933330Y12857459D01*
X18914117Y12871709D01*
X18896393Y12887773D01*
X18880329Y12905497D01*
X18866079Y12924710D01*
X18853782Y12945227D01*
X18843554Y12966851D01*
X18835496Y12989373D01*
X18829684Y13012577D01*
X18826174Y13036238D01*
X18825000Y13060130D01*
X18825000Y13547630D01*
X18826174Y13571522D01*
X18829684Y13595183D01*
X18835496Y13618387D01*
X18843554Y13640909D01*
X18853782Y13662533D01*
X18866079Y13683050D01*
X18880329Y13702263D01*
X18896393Y13719987D01*
X18914117Y13736051D01*
X18933330Y13750301D01*
X18953847Y13762598D01*
X18975471Y13772826D01*
X18997993Y13780884D01*
X19021197Y13786696D01*
X19044858Y13790206D01*
X19068750Y13791380D01*
X19981250Y13791380D01*
X20005142Y13790206D01*
X20005142Y13790206D01*
G37*
D11*
G04 #@! TD*
G04 #@! TO.P,C2,1*
G04 #@! TO.N,5V*
X19525000Y13303880D03*
D10*
G04 #@! TO.N,GND*
G04 #@! TO.C,C2*
G36*
X20005142Y15665206D02*
X20028803Y15661696D01*
X20052007Y15655884D01*
X20074529Y15647826D01*
X20096153Y15637598D01*
X20116670Y15625301D01*
X20135883Y15611051D01*
X20153607Y15594987D01*
X20169671Y15577263D01*
X20183921Y15558050D01*
X20196218Y15537533D01*
X20206446Y15515909D01*
X20214504Y15493387D01*
X20220316Y15470183D01*
X20223826Y15446522D01*
X20225000Y15422630D01*
X20225000Y14935130D01*
X20223826Y14911238D01*
X20220316Y14887577D01*
X20214504Y14864373D01*
X20206446Y14841851D01*
X20196218Y14820227D01*
X20183921Y14799710D01*
X20169671Y14780497D01*
X20153607Y14762773D01*
X20135883Y14746709D01*
X20116670Y14732459D01*
X20096153Y14720162D01*
X20074529Y14709934D01*
X20052007Y14701876D01*
X20028803Y14696064D01*
X20005142Y14692554D01*
X19981250Y14691380D01*
X19068750Y14691380D01*
X19044858Y14692554D01*
X19021197Y14696064D01*
X18997993Y14701876D01*
X18975471Y14709934D01*
X18953847Y14720162D01*
X18933330Y14732459D01*
X18914117Y14746709D01*
X18896393Y14762773D01*
X18880329Y14780497D01*
X18866079Y14799710D01*
X18853782Y14820227D01*
X18843554Y14841851D01*
X18835496Y14864373D01*
X18829684Y14887577D01*
X18826174Y14911238D01*
X18825000Y14935130D01*
X18825000Y15422630D01*
X18826174Y15446522D01*
X18829684Y15470183D01*
X18835496Y15493387D01*
X18843554Y15515909D01*
X18853782Y15537533D01*
X18866079Y15558050D01*
X18880329Y15577263D01*
X18896393Y15594987D01*
X18914117Y15611051D01*
X18933330Y15625301D01*
X18953847Y15637598D01*
X18975471Y15647826D01*
X18997993Y15655884D01*
X19021197Y15661696D01*
X19044858Y15665206D01*
X19068750Y15666380D01*
X19981250Y15666380D01*
X20005142Y15665206D01*
X20005142Y15665206D01*
G37*
D11*
G04 #@! TD*
G04 #@! TO.P,C2,2*
G04 #@! TO.N,GND*
X19525000Y15178880D03*
D10*
G04 #@! TO.N,GND*
G04 #@! TO.C,C3*
G36*
X18055142Y15665206D02*
X18078803Y15661696D01*
X18102007Y15655884D01*
X18124529Y15647826D01*
X18146153Y15637598D01*
X18166670Y15625301D01*
X18185883Y15611051D01*
X18203607Y15594987D01*
X18219671Y15577263D01*
X18233921Y15558050D01*
X18246218Y15537533D01*
X18256446Y15515909D01*
X18264504Y15493387D01*
X18270316Y15470183D01*
X18273826Y15446522D01*
X18275000Y15422630D01*
X18275000Y14935130D01*
X18273826Y14911238D01*
X18270316Y14887577D01*
X18264504Y14864373D01*
X18256446Y14841851D01*
X18246218Y14820227D01*
X18233921Y14799710D01*
X18219671Y14780497D01*
X18203607Y14762773D01*
X18185883Y14746709D01*
X18166670Y14732459D01*
X18146153Y14720162D01*
X18124529Y14709934D01*
X18102007Y14701876D01*
X18078803Y14696064D01*
X18055142Y14692554D01*
X18031250Y14691380D01*
X17118750Y14691380D01*
X17094858Y14692554D01*
X17071197Y14696064D01*
X17047993Y14701876D01*
X17025471Y14709934D01*
X17003847Y14720162D01*
X16983330Y14732459D01*
X16964117Y14746709D01*
X16946393Y14762773D01*
X16930329Y14780497D01*
X16916079Y14799710D01*
X16903782Y14820227D01*
X16893554Y14841851D01*
X16885496Y14864373D01*
X16879684Y14887577D01*
X16876174Y14911238D01*
X16875000Y14935130D01*
X16875000Y15422630D01*
X16876174Y15446522D01*
X16879684Y15470183D01*
X16885496Y15493387D01*
X16893554Y15515909D01*
X16903782Y15537533D01*
X16916079Y15558050D01*
X16930329Y15577263D01*
X16946393Y15594987D01*
X16964117Y15611051D01*
X16983330Y15625301D01*
X17003847Y15637598D01*
X17025471Y15647826D01*
X17047993Y15655884D01*
X17071197Y15661696D01*
X17094858Y15665206D01*
X17118750Y15666380D01*
X18031250Y15666380D01*
X18055142Y15665206D01*
X18055142Y15665206D01*
G37*
D11*
G04 #@! TD*
G04 #@! TO.P,C3,2*
G04 #@! TO.N,GND*
X17575000Y15178880D03*
D10*
G04 #@! TO.N,5V*
G04 #@! TO.C,C3*
G36*
X18055142Y13790206D02*
X18078803Y13786696D01*
X18102007Y13780884D01*
X18124529Y13772826D01*
X18146153Y13762598D01*
X18166670Y13750301D01*
X18185883Y13736051D01*
X18203607Y13719987D01*
X18219671Y13702263D01*
X18233921Y13683050D01*
X18246218Y13662533D01*
X18256446Y13640909D01*
X18264504Y13618387D01*
X18270316Y13595183D01*
X18273826Y13571522D01*
X18275000Y13547630D01*
X18275000Y13060130D01*
X18273826Y13036238D01*
X18270316Y13012577D01*
X18264504Y12989373D01*
X18256446Y12966851D01*
X18246218Y12945227D01*
X18233921Y12924710D01*
X18219671Y12905497D01*
X18203607Y12887773D01*
X18185883Y12871709D01*
X18166670Y12857459D01*
X18146153Y12845162D01*
X18124529Y12834934D01*
X18102007Y12826876D01*
X18078803Y12821064D01*
X18055142Y12817554D01*
X18031250Y12816380D01*
X17118750Y12816380D01*
X17094858Y12817554D01*
X17071197Y12821064D01*
X17047993Y12826876D01*
X17025471Y12834934D01*
X17003847Y12845162D01*
X16983330Y12857459D01*
X16964117Y12871709D01*
X16946393Y12887773D01*
X16930329Y12905497D01*
X16916079Y12924710D01*
X16903782Y12945227D01*
X16893554Y12966851D01*
X16885496Y12989373D01*
X16879684Y13012577D01*
X16876174Y13036238D01*
X16875000Y13060130D01*
X16875000Y13547630D01*
X16876174Y13571522D01*
X16879684Y13595183D01*
X16885496Y13618387D01*
X16893554Y13640909D01*
X16903782Y13662533D01*
X16916079Y13683050D01*
X16930329Y13702263D01*
X16946393Y13719987D01*
X16964117Y13736051D01*
X16983330Y13750301D01*
X17003847Y13762598D01*
X17025471Y13772826D01*
X17047993Y13780884D01*
X17071197Y13786696D01*
X17094858Y13790206D01*
X17118750Y13791380D01*
X18031250Y13791380D01*
X18055142Y13790206D01*
X18055142Y13790206D01*
G37*
D11*
G04 #@! TD*
G04 #@! TO.P,C3,1*
G04 #@! TO.N,5V*
X17575000Y13303880D03*
D10*
G04 #@! TO.N,GND*
G04 #@! TO.C,C4*
G36*
X29730142Y13790206D02*
X29753803Y13786696D01*
X29777007Y13780884D01*
X29799529Y13772826D01*
X29821153Y13762598D01*
X29841670Y13750301D01*
X29860883Y13736051D01*
X29878607Y13719987D01*
X29894671Y13702263D01*
X29908921Y13683050D01*
X29921218Y13662533D01*
X29931446Y13640909D01*
X29939504Y13618387D01*
X29945316Y13595183D01*
X29948826Y13571522D01*
X29950000Y13547630D01*
X29950000Y13060130D01*
X29948826Y13036238D01*
X29945316Y13012577D01*
X29939504Y12989373D01*
X29931446Y12966851D01*
X29921218Y12945227D01*
X29908921Y12924710D01*
X29894671Y12905497D01*
X29878607Y12887773D01*
X29860883Y12871709D01*
X29841670Y12857459D01*
X29821153Y12845162D01*
X29799529Y12834934D01*
X29777007Y12826876D01*
X29753803Y12821064D01*
X29730142Y12817554D01*
X29706250Y12816380D01*
X28793750Y12816380D01*
X28769858Y12817554D01*
X28746197Y12821064D01*
X28722993Y12826876D01*
X28700471Y12834934D01*
X28678847Y12845162D01*
X28658330Y12857459D01*
X28639117Y12871709D01*
X28621393Y12887773D01*
X28605329Y12905497D01*
X28591079Y12924710D01*
X28578782Y12945227D01*
X28568554Y12966851D01*
X28560496Y12989373D01*
X28554684Y13012577D01*
X28551174Y13036238D01*
X28550000Y13060130D01*
X28550000Y13547630D01*
X28551174Y13571522D01*
X28554684Y13595183D01*
X28560496Y13618387D01*
X28568554Y13640909D01*
X28578782Y13662533D01*
X28591079Y13683050D01*
X28605329Y13702263D01*
X28621393Y13719987D01*
X28639117Y13736051D01*
X28658330Y13750301D01*
X28678847Y13762598D01*
X28700471Y13772826D01*
X28722993Y13780884D01*
X28746197Y13786696D01*
X28769858Y13790206D01*
X28793750Y13791380D01*
X29706250Y13791380D01*
X29730142Y13790206D01*
X29730142Y13790206D01*
G37*
D11*
G04 #@! TD*
G04 #@! TO.P,C4,2*
G04 #@! TO.N,GND*
X29250000Y13303880D03*
D10*
G04 #@! TO.N,3V3*
G04 #@! TO.C,C4*
G36*
X29730142Y15665206D02*
X29753803Y15661696D01*
X29777007Y15655884D01*
X29799529Y15647826D01*
X29821153Y15637598D01*
X29841670Y15625301D01*
X29860883Y15611051D01*
X29878607Y15594987D01*
X29894671Y15577263D01*
X29908921Y15558050D01*
X29921218Y15537533D01*
X29931446Y15515909D01*
X29939504Y15493387D01*
X29945316Y15470183D01*
X29948826Y15446522D01*
X29950000Y15422630D01*
X29950000Y14935130D01*
X29948826Y14911238D01*
X29945316Y14887577D01*
X29939504Y14864373D01*
X29931446Y14841851D01*
X29921218Y14820227D01*
X29908921Y14799710D01*
X29894671Y14780497D01*
X29878607Y14762773D01*
X29860883Y14746709D01*
X29841670Y14732459D01*
X29821153Y14720162D01*
X29799529Y14709934D01*
X29777007Y14701876D01*
X29753803Y14696064D01*
X29730142Y14692554D01*
X29706250Y14691380D01*
X28793750Y14691380D01*
X28769858Y14692554D01*
X28746197Y14696064D01*
X28722993Y14701876D01*
X28700471Y14709934D01*
X28678847Y14720162D01*
X28658330Y14732459D01*
X28639117Y14746709D01*
X28621393Y14762773D01*
X28605329Y14780497D01*
X28591079Y14799710D01*
X28578782Y14820227D01*
X28568554Y14841851D01*
X28560496Y14864373D01*
X28554684Y14887577D01*
X28551174Y14911238D01*
X28550000Y14935130D01*
X28550000Y15422630D01*
X28551174Y15446522D01*
X28554684Y15470183D01*
X28560496Y15493387D01*
X28568554Y15515909D01*
X28578782Y15537533D01*
X28591079Y15558050D01*
X28605329Y15577263D01*
X28621393Y15594987D01*
X28639117Y15611051D01*
X28658330Y15625301D01*
X28678847Y15637598D01*
X28700471Y15647826D01*
X28722993Y15655884D01*
X28746197Y15661696D01*
X28769858Y15665206D01*
X28793750Y15666380D01*
X29706250Y15666380D01*
X29730142Y15665206D01*
X29730142Y15665206D01*
G37*
D11*
G04 #@! TD*
G04 #@! TO.P,C4,1*
G04 #@! TO.N,3V3*
X29250000Y15178880D03*
D10*
G04 #@! TO.N,3V3*
G04 #@! TO.C,C5*
G36*
X34830142Y12698826D02*
X34853803Y12695316D01*
X34877007Y12689504D01*
X34899529Y12681446D01*
X34921153Y12671218D01*
X34941670Y12658921D01*
X34960883Y12644671D01*
X34978607Y12628607D01*
X34994671Y12610883D01*
X35008921Y12591670D01*
X35021218Y12571153D01*
X35031446Y12549529D01*
X35039504Y12527007D01*
X35045316Y12503803D01*
X35048826Y12480142D01*
X35050000Y12456250D01*
X35050000Y11543750D01*
X35048826Y11519858D01*
X35045316Y11496197D01*
X35039504Y11472993D01*
X35031446Y11450471D01*
X35021218Y11428847D01*
X35008921Y11408330D01*
X34994671Y11389117D01*
X34978607Y11371393D01*
X34960883Y11355329D01*
X34941670Y11341079D01*
X34921153Y11328782D01*
X34899529Y11318554D01*
X34877007Y11310496D01*
X34853803Y11304684D01*
X34830142Y11301174D01*
X34806250Y11300000D01*
X34318750Y11300000D01*
X34294858Y11301174D01*
X34271197Y11304684D01*
X34247993Y11310496D01*
X34225471Y11318554D01*
X34203847Y11328782D01*
X34183330Y11341079D01*
X34164117Y11355329D01*
X34146393Y11371393D01*
X34130329Y11389117D01*
X34116079Y11408330D01*
X34103782Y11428847D01*
X34093554Y11450471D01*
X34085496Y11472993D01*
X34079684Y11496197D01*
X34076174Y11519858D01*
X34075000Y11543750D01*
X34075000Y12456250D01*
X34076174Y12480142D01*
X34079684Y12503803D01*
X34085496Y12527007D01*
X34093554Y12549529D01*
X34103782Y12571153D01*
X34116079Y12591670D01*
X34130329Y12610883D01*
X34146393Y12628607D01*
X34164117Y12644671D01*
X34183330Y12658921D01*
X34203847Y12671218D01*
X34225471Y12681446D01*
X34247993Y12689504D01*
X34271197Y12695316D01*
X34294858Y12698826D01*
X34318750Y12700000D01*
X34806250Y12700000D01*
X34830142Y12698826D01*
X34830142Y12698826D01*
G37*
D11*
G04 #@! TD*
G04 #@! TO.P,C5,1*
G04 #@! TO.N,3V3*
X34562500Y12000000D03*
D10*
G04 #@! TO.N,GND*
G04 #@! TO.C,C5*
G36*
X36705142Y12698826D02*
X36728803Y12695316D01*
X36752007Y12689504D01*
X36774529Y12681446D01*
X36796153Y12671218D01*
X36816670Y12658921D01*
X36835883Y12644671D01*
X36853607Y12628607D01*
X36869671Y12610883D01*
X36883921Y12591670D01*
X36896218Y12571153D01*
X36906446Y12549529D01*
X36914504Y12527007D01*
X36920316Y12503803D01*
X36923826Y12480142D01*
X36925000Y12456250D01*
X36925000Y11543750D01*
X36923826Y11519858D01*
X36920316Y11496197D01*
X36914504Y11472993D01*
X36906446Y11450471D01*
X36896218Y11428847D01*
X36883921Y11408330D01*
X36869671Y11389117D01*
X36853607Y11371393D01*
X36835883Y11355329D01*
X36816670Y11341079D01*
X36796153Y11328782D01*
X36774529Y11318554D01*
X36752007Y11310496D01*
X36728803Y11304684D01*
X36705142Y11301174D01*
X36681250Y11300000D01*
X36193750Y11300000D01*
X36169858Y11301174D01*
X36146197Y11304684D01*
X36122993Y11310496D01*
X36100471Y11318554D01*
X36078847Y11328782D01*
X36058330Y11341079D01*
X36039117Y11355329D01*
X36021393Y11371393D01*
X36005329Y11389117D01*
X35991079Y11408330D01*
X35978782Y11428847D01*
X35968554Y11450471D01*
X35960496Y11472993D01*
X35954684Y11496197D01*
X35951174Y11519858D01*
X35950000Y11543750D01*
X35950000Y12456250D01*
X35951174Y12480142D01*
X35954684Y12503803D01*
X35960496Y12527007D01*
X35968554Y12549529D01*
X35978782Y12571153D01*
X35991079Y12591670D01*
X36005329Y12610883D01*
X36021393Y12628607D01*
X36039117Y12644671D01*
X36058330Y12658921D01*
X36078847Y12671218D01*
X36100471Y12681446D01*
X36122993Y12689504D01*
X36146197Y12695316D01*
X36169858Y12698826D01*
X36193750Y12700000D01*
X36681250Y12700000D01*
X36705142Y12698826D01*
X36705142Y12698826D01*
G37*
D11*
G04 #@! TD*
G04 #@! TO.P,C5,2*
G04 #@! TO.N,GND*
X36437500Y12000000D03*
D10*
G04 #@! TO.N,Net-(C6-Pad1)*
G04 #@! TO.C,C6*
G36*
X19005142Y5698826D02*
X19028803Y5695316D01*
X19052007Y5689504D01*
X19074529Y5681446D01*
X19096153Y5671218D01*
X19116670Y5658921D01*
X19135883Y5644671D01*
X19153607Y5628607D01*
X19169671Y5610883D01*
X19183921Y5591670D01*
X19196218Y5571153D01*
X19206446Y5549529D01*
X19214504Y5527007D01*
X19220316Y5503803D01*
X19223826Y5480142D01*
X19225000Y5456250D01*
X19225000Y4543750D01*
X19223826Y4519858D01*
X19220316Y4496197D01*
X19214504Y4472993D01*
X19206446Y4450471D01*
X19196218Y4428847D01*
X19183921Y4408330D01*
X19169671Y4389117D01*
X19153607Y4371393D01*
X19135883Y4355329D01*
X19116670Y4341079D01*
X19096153Y4328782D01*
X19074529Y4318554D01*
X19052007Y4310496D01*
X19028803Y4304684D01*
X19005142Y4301174D01*
X18981250Y4300000D01*
X18493750Y4300000D01*
X18469858Y4301174D01*
X18446197Y4304684D01*
X18422993Y4310496D01*
X18400471Y4318554D01*
X18378847Y4328782D01*
X18358330Y4341079D01*
X18339117Y4355329D01*
X18321393Y4371393D01*
X18305329Y4389117D01*
X18291079Y4408330D01*
X18278782Y4428847D01*
X18268554Y4450471D01*
X18260496Y4472993D01*
X18254684Y4496197D01*
X18251174Y4519858D01*
X18250000Y4543750D01*
X18250000Y5456250D01*
X18251174Y5480142D01*
X18254684Y5503803D01*
X18260496Y5527007D01*
X18268554Y5549529D01*
X18278782Y5571153D01*
X18291079Y5591670D01*
X18305329Y5610883D01*
X18321393Y5628607D01*
X18339117Y5644671D01*
X18358330Y5658921D01*
X18378847Y5671218D01*
X18400471Y5681446D01*
X18422993Y5689504D01*
X18446197Y5695316D01*
X18469858Y5698826D01*
X18493750Y5700000D01*
X18981250Y5700000D01*
X19005142Y5698826D01*
X19005142Y5698826D01*
G37*
D11*
G04 #@! TD*
G04 #@! TO.P,C6,1*
G04 #@! TO.N,Net-(C6-Pad1)*
X18737500Y5000000D03*
D10*
G04 #@! TO.N,GND*
G04 #@! TO.C,C6*
G36*
X17130142Y5698826D02*
X17153803Y5695316D01*
X17177007Y5689504D01*
X17199529Y5681446D01*
X17221153Y5671218D01*
X17241670Y5658921D01*
X17260883Y5644671D01*
X17278607Y5628607D01*
X17294671Y5610883D01*
X17308921Y5591670D01*
X17321218Y5571153D01*
X17331446Y5549529D01*
X17339504Y5527007D01*
X17345316Y5503803D01*
X17348826Y5480142D01*
X17350000Y5456250D01*
X17350000Y4543750D01*
X17348826Y4519858D01*
X17345316Y4496197D01*
X17339504Y4472993D01*
X17331446Y4450471D01*
X17321218Y4428847D01*
X17308921Y4408330D01*
X17294671Y4389117D01*
X17278607Y4371393D01*
X17260883Y4355329D01*
X17241670Y4341079D01*
X17221153Y4328782D01*
X17199529Y4318554D01*
X17177007Y4310496D01*
X17153803Y4304684D01*
X17130142Y4301174D01*
X17106250Y4300000D01*
X16618750Y4300000D01*
X16594858Y4301174D01*
X16571197Y4304684D01*
X16547993Y4310496D01*
X16525471Y4318554D01*
X16503847Y4328782D01*
X16483330Y4341079D01*
X16464117Y4355329D01*
X16446393Y4371393D01*
X16430329Y4389117D01*
X16416079Y4408330D01*
X16403782Y4428847D01*
X16393554Y4450471D01*
X16385496Y4472993D01*
X16379684Y4496197D01*
X16376174Y4519858D01*
X16375000Y4543750D01*
X16375000Y5456250D01*
X16376174Y5480142D01*
X16379684Y5503803D01*
X16385496Y5527007D01*
X16393554Y5549529D01*
X16403782Y5571153D01*
X16416079Y5591670D01*
X16430329Y5610883D01*
X16446393Y5628607D01*
X16464117Y5644671D01*
X16483330Y5658921D01*
X16503847Y5671218D01*
X16525471Y5681446D01*
X16547993Y5689504D01*
X16571197Y5695316D01*
X16594858Y5698826D01*
X16618750Y5700000D01*
X17106250Y5700000D01*
X17130142Y5698826D01*
X17130142Y5698826D01*
G37*
D11*
G04 #@! TD*
G04 #@! TO.P,C6,2*
G04 #@! TO.N,GND*
X16862500Y5000000D03*
D10*
G04 #@! TO.N,5V*
G04 #@! TO.C,C7*
G36*
X10730142Y12498826D02*
X10753803Y12495316D01*
X10777007Y12489504D01*
X10799529Y12481446D01*
X10821153Y12471218D01*
X10841670Y12458921D01*
X10860883Y12444671D01*
X10878607Y12428607D01*
X10894671Y12410883D01*
X10908921Y12391670D01*
X10921218Y12371153D01*
X10931446Y12349529D01*
X10939504Y12327007D01*
X10945316Y12303803D01*
X10948826Y12280142D01*
X10950000Y12256250D01*
X10950000Y11343750D01*
X10948826Y11319858D01*
X10945316Y11296197D01*
X10939504Y11272993D01*
X10931446Y11250471D01*
X10921218Y11228847D01*
X10908921Y11208330D01*
X10894671Y11189117D01*
X10878607Y11171393D01*
X10860883Y11155329D01*
X10841670Y11141079D01*
X10821153Y11128782D01*
X10799529Y11118554D01*
X10777007Y11110496D01*
X10753803Y11104684D01*
X10730142Y11101174D01*
X10706250Y11100000D01*
X10218750Y11100000D01*
X10194858Y11101174D01*
X10171197Y11104684D01*
X10147993Y11110496D01*
X10125471Y11118554D01*
X10103847Y11128782D01*
X10083330Y11141079D01*
X10064117Y11155329D01*
X10046393Y11171393D01*
X10030329Y11189117D01*
X10016079Y11208330D01*
X10003782Y11228847D01*
X9993554Y11250471D01*
X9985496Y11272993D01*
X9979684Y11296197D01*
X9976174Y11319858D01*
X9975000Y11343750D01*
X9975000Y12256250D01*
X9976174Y12280142D01*
X9979684Y12303803D01*
X9985496Y12327007D01*
X9993554Y12349529D01*
X10003782Y12371153D01*
X10016079Y12391670D01*
X10030329Y12410883D01*
X10046393Y12428607D01*
X10064117Y12444671D01*
X10083330Y12458921D01*
X10103847Y12471218D01*
X10125471Y12481446D01*
X10147993Y12489504D01*
X10171197Y12495316D01*
X10194858Y12498826D01*
X10218750Y12500000D01*
X10706250Y12500000D01*
X10730142Y12498826D01*
X10730142Y12498826D01*
G37*
D11*
G04 #@! TD*
G04 #@! TO.P,C7,1*
G04 #@! TO.N,5V*
X10462500Y11800000D03*
D10*
G04 #@! TO.N,GND*
G04 #@! TO.C,C7*
G36*
X12605142Y12498826D02*
X12628803Y12495316D01*
X12652007Y12489504D01*
X12674529Y12481446D01*
X12696153Y12471218D01*
X12716670Y12458921D01*
X12735883Y12444671D01*
X12753607Y12428607D01*
X12769671Y12410883D01*
X12783921Y12391670D01*
X12796218Y12371153D01*
X12806446Y12349529D01*
X12814504Y12327007D01*
X12820316Y12303803D01*
X12823826Y12280142D01*
X12825000Y12256250D01*
X12825000Y11343750D01*
X12823826Y11319858D01*
X12820316Y11296197D01*
X12814504Y11272993D01*
X12806446Y11250471D01*
X12796218Y11228847D01*
X12783921Y11208330D01*
X12769671Y11189117D01*
X12753607Y11171393D01*
X12735883Y11155329D01*
X12716670Y11141079D01*
X12696153Y11128782D01*
X12674529Y11118554D01*
X12652007Y11110496D01*
X12628803Y11104684D01*
X12605142Y11101174D01*
X12581250Y11100000D01*
X12093750Y11100000D01*
X12069858Y11101174D01*
X12046197Y11104684D01*
X12022993Y11110496D01*
X12000471Y11118554D01*
X11978847Y11128782D01*
X11958330Y11141079D01*
X11939117Y11155329D01*
X11921393Y11171393D01*
X11905329Y11189117D01*
X11891079Y11208330D01*
X11878782Y11228847D01*
X11868554Y11250471D01*
X11860496Y11272993D01*
X11854684Y11296197D01*
X11851174Y11319858D01*
X11850000Y11343750D01*
X11850000Y12256250D01*
X11851174Y12280142D01*
X11854684Y12303803D01*
X11860496Y12327007D01*
X11868554Y12349529D01*
X11878782Y12371153D01*
X11891079Y12391670D01*
X11905329Y12410883D01*
X11921393Y12428607D01*
X11939117Y12444671D01*
X11958330Y12458921D01*
X11978847Y12471218D01*
X12000471Y12481446D01*
X12022993Y12489504D01*
X12046197Y12495316D01*
X12069858Y12498826D01*
X12093750Y12500000D01*
X12581250Y12500000D01*
X12605142Y12498826D01*
X12605142Y12498826D01*
G37*
D11*
G04 #@! TD*
G04 #@! TO.P,C7,2*
G04 #@! TO.N,GND*
X12337500Y11800000D03*
D10*
G04 #@! TO.N,GND*
G04 #@! TO.C,C8*
G36*
X21955142Y15665206D02*
X21978803Y15661696D01*
X22002007Y15655884D01*
X22024529Y15647826D01*
X22046153Y15637598D01*
X22066670Y15625301D01*
X22085883Y15611051D01*
X22103607Y15594987D01*
X22119671Y15577263D01*
X22133921Y15558050D01*
X22146218Y15537533D01*
X22156446Y15515909D01*
X22164504Y15493387D01*
X22170316Y15470183D01*
X22173826Y15446522D01*
X22175000Y15422630D01*
X22175000Y14935130D01*
X22173826Y14911238D01*
X22170316Y14887577D01*
X22164504Y14864373D01*
X22156446Y14841851D01*
X22146218Y14820227D01*
X22133921Y14799710D01*
X22119671Y14780497D01*
X22103607Y14762773D01*
X22085883Y14746709D01*
X22066670Y14732459D01*
X22046153Y14720162D01*
X22024529Y14709934D01*
X22002007Y14701876D01*
X21978803Y14696064D01*
X21955142Y14692554D01*
X21931250Y14691380D01*
X21018750Y14691380D01*
X20994858Y14692554D01*
X20971197Y14696064D01*
X20947993Y14701876D01*
X20925471Y14709934D01*
X20903847Y14720162D01*
X20883330Y14732459D01*
X20864117Y14746709D01*
X20846393Y14762773D01*
X20830329Y14780497D01*
X20816079Y14799710D01*
X20803782Y14820227D01*
X20793554Y14841851D01*
X20785496Y14864373D01*
X20779684Y14887577D01*
X20776174Y14911238D01*
X20775000Y14935130D01*
X20775000Y15422630D01*
X20776174Y15446522D01*
X20779684Y15470183D01*
X20785496Y15493387D01*
X20793554Y15515909D01*
X20803782Y15537533D01*
X20816079Y15558050D01*
X20830329Y15577263D01*
X20846393Y15594987D01*
X20864117Y15611051D01*
X20883330Y15625301D01*
X20903847Y15637598D01*
X20925471Y15647826D01*
X20947993Y15655884D01*
X20971197Y15661696D01*
X20994858Y15665206D01*
X21018750Y15666380D01*
X21931250Y15666380D01*
X21955142Y15665206D01*
X21955142Y15665206D01*
G37*
D11*
G04 #@! TD*
G04 #@! TO.P,C8,2*
G04 #@! TO.N,GND*
X21475000Y15178880D03*
D10*
G04 #@! TO.N,5V*
G04 #@! TO.C,C8*
G36*
X21955142Y13790206D02*
X21978803Y13786696D01*
X22002007Y13780884D01*
X22024529Y13772826D01*
X22046153Y13762598D01*
X22066670Y13750301D01*
X22085883Y13736051D01*
X22103607Y13719987D01*
X22119671Y13702263D01*
X22133921Y13683050D01*
X22146218Y13662533D01*
X22156446Y13640909D01*
X22164504Y13618387D01*
X22170316Y13595183D01*
X22173826Y13571522D01*
X22175000Y13547630D01*
X22175000Y13060130D01*
X22173826Y13036238D01*
X22170316Y13012577D01*
X22164504Y12989373D01*
X22156446Y12966851D01*
X22146218Y12945227D01*
X22133921Y12924710D01*
X22119671Y12905497D01*
X22103607Y12887773D01*
X22085883Y12871709D01*
X22066670Y12857459D01*
X22046153Y12845162D01*
X22024529Y12834934D01*
X22002007Y12826876D01*
X21978803Y12821064D01*
X21955142Y12817554D01*
X21931250Y12816380D01*
X21018750Y12816380D01*
X20994858Y12817554D01*
X20971197Y12821064D01*
X20947993Y12826876D01*
X20925471Y12834934D01*
X20903847Y12845162D01*
X20883330Y12857459D01*
X20864117Y12871709D01*
X20846393Y12887773D01*
X20830329Y12905497D01*
X20816079Y12924710D01*
X20803782Y12945227D01*
X20793554Y12966851D01*
X20785496Y12989373D01*
X20779684Y13012577D01*
X20776174Y13036238D01*
X20775000Y13060130D01*
X20775000Y13547630D01*
X20776174Y13571522D01*
X20779684Y13595183D01*
X20785496Y13618387D01*
X20793554Y13640909D01*
X20803782Y13662533D01*
X20816079Y13683050D01*
X20830329Y13702263D01*
X20846393Y13719987D01*
X20864117Y13736051D01*
X20883330Y13750301D01*
X20903847Y13762598D01*
X20925471Y13772826D01*
X20947993Y13780884D01*
X20971197Y13786696D01*
X20994858Y13790206D01*
X21018750Y13791380D01*
X21931250Y13791380D01*
X21955142Y13790206D01*
X21955142Y13790206D01*
G37*
D11*
G04 #@! TD*
G04 #@! TO.P,C8,1*
G04 #@! TO.N,5V*
X21475000Y13303880D03*
D22*
G04 #@! TO.P,D1,1*
G04 #@! TO.N,Net-(D1-Pad1)*
X13200000Y15075000D03*
G04 #@! TO.P,D1,2*
G04 #@! TO.N,VBUS*
X10400000Y15075000D03*
G04 #@! TD*
D10*
G04 #@! TO.N,3V3*
G04 #@! TO.C,R1*
G36*
X34835845Y14190206D02*
X34859506Y14186696D01*
X34882710Y14180884D01*
X34905232Y14172826D01*
X34926856Y14162598D01*
X34947373Y14150301D01*
X34966586Y14136051D01*
X34984310Y14119987D01*
X35000374Y14102263D01*
X35014624Y14083050D01*
X35026921Y14062533D01*
X35037149Y14040909D01*
X35045207Y14018387D01*
X35051019Y13995183D01*
X35054529Y13971522D01*
X35055703Y13947630D01*
X35055703Y13460130D01*
X35054529Y13436238D01*
X35051019Y13412577D01*
X35045207Y13389373D01*
X35037149Y13366851D01*
X35026921Y13345227D01*
X35014624Y13324710D01*
X35000374Y13305497D01*
X34984310Y13287773D01*
X34966586Y13271709D01*
X34947373Y13257459D01*
X34926856Y13245162D01*
X34905232Y13234934D01*
X34882710Y13226876D01*
X34859506Y13221064D01*
X34835845Y13217554D01*
X34811953Y13216380D01*
X33899453Y13216380D01*
X33875561Y13217554D01*
X33851900Y13221064D01*
X33828696Y13226876D01*
X33806174Y13234934D01*
X33784550Y13245162D01*
X33764033Y13257459D01*
X33744820Y13271709D01*
X33727096Y13287773D01*
X33711032Y13305497D01*
X33696782Y13324710D01*
X33684485Y13345227D01*
X33674257Y13366851D01*
X33666199Y13389373D01*
X33660387Y13412577D01*
X33656877Y13436238D01*
X33655703Y13460130D01*
X33655703Y13947630D01*
X33656877Y13971522D01*
X33660387Y13995183D01*
X33666199Y14018387D01*
X33674257Y14040909D01*
X33684485Y14062533D01*
X33696782Y14083050D01*
X33711032Y14102263D01*
X33727096Y14119987D01*
X33744820Y14136051D01*
X33764033Y14150301D01*
X33784550Y14162598D01*
X33806174Y14172826D01*
X33828696Y14180884D01*
X33851900Y14186696D01*
X33875561Y14190206D01*
X33899453Y14191380D01*
X34811953Y14191380D01*
X34835845Y14190206D01*
X34835845Y14190206D01*
G37*
D11*
G04 #@! TD*
G04 #@! TO.P,R1,1*
G04 #@! TO.N,3V3*
X34355703Y13703880D03*
D10*
G04 #@! TO.N,Net-(R1-Pad2)*
G04 #@! TO.C,R1*
G36*
X34835845Y16065206D02*
X34859506Y16061696D01*
X34882710Y16055884D01*
X34905232Y16047826D01*
X34926856Y16037598D01*
X34947373Y16025301D01*
X34966586Y16011051D01*
X34984310Y15994987D01*
X35000374Y15977263D01*
X35014624Y15958050D01*
X35026921Y15937533D01*
X35037149Y15915909D01*
X35045207Y15893387D01*
X35051019Y15870183D01*
X35054529Y15846522D01*
X35055703Y15822630D01*
X35055703Y15335130D01*
X35054529Y15311238D01*
X35051019Y15287577D01*
X35045207Y15264373D01*
X35037149Y15241851D01*
X35026921Y15220227D01*
X35014624Y15199710D01*
X35000374Y15180497D01*
X34984310Y15162773D01*
X34966586Y15146709D01*
X34947373Y15132459D01*
X34926856Y15120162D01*
X34905232Y15109934D01*
X34882710Y15101876D01*
X34859506Y15096064D01*
X34835845Y15092554D01*
X34811953Y15091380D01*
X33899453Y15091380D01*
X33875561Y15092554D01*
X33851900Y15096064D01*
X33828696Y15101876D01*
X33806174Y15109934D01*
X33784550Y15120162D01*
X33764033Y15132459D01*
X33744820Y15146709D01*
X33727096Y15162773D01*
X33711032Y15180497D01*
X33696782Y15199710D01*
X33684485Y15220227D01*
X33674257Y15241851D01*
X33666199Y15264373D01*
X33660387Y15287577D01*
X33656877Y15311238D01*
X33655703Y15335130D01*
X33655703Y15822630D01*
X33656877Y15846522D01*
X33660387Y15870183D01*
X33666199Y15893387D01*
X33674257Y15915909D01*
X33684485Y15937533D01*
X33696782Y15958050D01*
X33711032Y15977263D01*
X33727096Y15994987D01*
X33744820Y16011051D01*
X33764033Y16025301D01*
X33784550Y16037598D01*
X33806174Y16047826D01*
X33828696Y16055884D01*
X33851900Y16061696D01*
X33875561Y16065206D01*
X33899453Y16066380D01*
X34811953Y16066380D01*
X34835845Y16065206D01*
X34835845Y16065206D01*
G37*
D11*
G04 #@! TD*
G04 #@! TO.P,R1,2*
G04 #@! TO.N,Net-(R1-Pad2)*
X34355703Y15578880D03*
D10*
G04 #@! TO.N,Net-(R2-Pad1)*
G04 #@! TO.C,R2*
G36*
X32835845Y14190206D02*
X32859506Y14186696D01*
X32882710Y14180884D01*
X32905232Y14172826D01*
X32926856Y14162598D01*
X32947373Y14150301D01*
X32966586Y14136051D01*
X32984310Y14119987D01*
X33000374Y14102263D01*
X33014624Y14083050D01*
X33026921Y14062533D01*
X33037149Y14040909D01*
X33045207Y14018387D01*
X33051019Y13995183D01*
X33054529Y13971522D01*
X33055703Y13947630D01*
X33055703Y13460130D01*
X33054529Y13436238D01*
X33051019Y13412577D01*
X33045207Y13389373D01*
X33037149Y13366851D01*
X33026921Y13345227D01*
X33014624Y13324710D01*
X33000374Y13305497D01*
X32984310Y13287773D01*
X32966586Y13271709D01*
X32947373Y13257459D01*
X32926856Y13245162D01*
X32905232Y13234934D01*
X32882710Y13226876D01*
X32859506Y13221064D01*
X32835845Y13217554D01*
X32811953Y13216380D01*
X31899453Y13216380D01*
X31875561Y13217554D01*
X31851900Y13221064D01*
X31828696Y13226876D01*
X31806174Y13234934D01*
X31784550Y13245162D01*
X31764033Y13257459D01*
X31744820Y13271709D01*
X31727096Y13287773D01*
X31711032Y13305497D01*
X31696782Y13324710D01*
X31684485Y13345227D01*
X31674257Y13366851D01*
X31666199Y13389373D01*
X31660387Y13412577D01*
X31656877Y13436238D01*
X31655703Y13460130D01*
X31655703Y13947630D01*
X31656877Y13971522D01*
X31660387Y13995183D01*
X31666199Y14018387D01*
X31674257Y14040909D01*
X31684485Y14062533D01*
X31696782Y14083050D01*
X31711032Y14102263D01*
X31727096Y14119987D01*
X31744820Y14136051D01*
X31764033Y14150301D01*
X31784550Y14162598D01*
X31806174Y14172826D01*
X31828696Y14180884D01*
X31851900Y14186696D01*
X31875561Y14190206D01*
X31899453Y14191380D01*
X32811953Y14191380D01*
X32835845Y14190206D01*
X32835845Y14190206D01*
G37*
D11*
G04 #@! TD*
G04 #@! TO.P,R2,1*
G04 #@! TO.N,Net-(R2-Pad1)*
X32355703Y13703880D03*
D10*
G04 #@! TO.N,RESET*
G04 #@! TO.C,R2*
G36*
X32835845Y16065206D02*
X32859506Y16061696D01*
X32882710Y16055884D01*
X32905232Y16047826D01*
X32926856Y16037598D01*
X32947373Y16025301D01*
X32966586Y16011051D01*
X32984310Y15994987D01*
X33000374Y15977263D01*
X33014624Y15958050D01*
X33026921Y15937533D01*
X33037149Y15915909D01*
X33045207Y15893387D01*
X33051019Y15870183D01*
X33054529Y15846522D01*
X33055703Y15822630D01*
X33055703Y15335130D01*
X33054529Y15311238D01*
X33051019Y15287577D01*
X33045207Y15264373D01*
X33037149Y15241851D01*
X33026921Y15220227D01*
X33014624Y15199710D01*
X33000374Y15180497D01*
X32984310Y15162773D01*
X32966586Y15146709D01*
X32947373Y15132459D01*
X32926856Y15120162D01*
X32905232Y15109934D01*
X32882710Y15101876D01*
X32859506Y15096064D01*
X32835845Y15092554D01*
X32811953Y15091380D01*
X31899453Y15091380D01*
X31875561Y15092554D01*
X31851900Y15096064D01*
X31828696Y15101876D01*
X31806174Y15109934D01*
X31784550Y15120162D01*
X31764033Y15132459D01*
X31744820Y15146709D01*
X31727096Y15162773D01*
X31711032Y15180497D01*
X31696782Y15199710D01*
X31684485Y15220227D01*
X31674257Y15241851D01*
X31666199Y15264373D01*
X31660387Y15287577D01*
X31656877Y15311238D01*
X31655703Y15335130D01*
X31655703Y15822630D01*
X31656877Y15846522D01*
X31660387Y15870183D01*
X31666199Y15893387D01*
X31674257Y15915909D01*
X31684485Y15937533D01*
X31696782Y15958050D01*
X31711032Y15977263D01*
X31727096Y15994987D01*
X31744820Y16011051D01*
X31764033Y16025301D01*
X31784550Y16037598D01*
X31806174Y16047826D01*
X31828696Y16055884D01*
X31851900Y16061696D01*
X31875561Y16065206D01*
X31899453Y16066380D01*
X32811953Y16066380D01*
X32835845Y16065206D01*
X32835845Y16065206D01*
G37*
D11*
G04 #@! TD*
G04 #@! TO.P,R2,2*
G04 #@! TO.N,RESET*
X32355703Y15578880D03*
D10*
G04 #@! TO.N,3V3*
G04 #@! TO.C,R3*
G36*
X36835845Y14190206D02*
X36859506Y14186696D01*
X36882710Y14180884D01*
X36905232Y14172826D01*
X36926856Y14162598D01*
X36947373Y14150301D01*
X36966586Y14136051D01*
X36984310Y14119987D01*
X37000374Y14102263D01*
X37014624Y14083050D01*
X37026921Y14062533D01*
X37037149Y14040909D01*
X37045207Y14018387D01*
X37051019Y13995183D01*
X37054529Y13971522D01*
X37055703Y13947630D01*
X37055703Y13460130D01*
X37054529Y13436238D01*
X37051019Y13412577D01*
X37045207Y13389373D01*
X37037149Y13366851D01*
X37026921Y13345227D01*
X37014624Y13324710D01*
X37000374Y13305497D01*
X36984310Y13287773D01*
X36966586Y13271709D01*
X36947373Y13257459D01*
X36926856Y13245162D01*
X36905232Y13234934D01*
X36882710Y13226876D01*
X36859506Y13221064D01*
X36835845Y13217554D01*
X36811953Y13216380D01*
X35899453Y13216380D01*
X35875561Y13217554D01*
X35851900Y13221064D01*
X35828696Y13226876D01*
X35806174Y13234934D01*
X35784550Y13245162D01*
X35764033Y13257459D01*
X35744820Y13271709D01*
X35727096Y13287773D01*
X35711032Y13305497D01*
X35696782Y13324710D01*
X35684485Y13345227D01*
X35674257Y13366851D01*
X35666199Y13389373D01*
X35660387Y13412577D01*
X35656877Y13436238D01*
X35655703Y13460130D01*
X35655703Y13947630D01*
X35656877Y13971522D01*
X35660387Y13995183D01*
X35666199Y14018387D01*
X35674257Y14040909D01*
X35684485Y14062533D01*
X35696782Y14083050D01*
X35711032Y14102263D01*
X35727096Y14119987D01*
X35744820Y14136051D01*
X35764033Y14150301D01*
X35784550Y14162598D01*
X35806174Y14172826D01*
X35828696Y14180884D01*
X35851900Y14186696D01*
X35875561Y14190206D01*
X35899453Y14191380D01*
X36811953Y14191380D01*
X36835845Y14190206D01*
X36835845Y14190206D01*
G37*
D11*
G04 #@! TD*
G04 #@! TO.P,R3,1*
G04 #@! TO.N,3V3*
X36355703Y13703880D03*
D10*
G04 #@! TO.N,Net-(R2-Pad1)*
G04 #@! TO.C,R3*
G36*
X36835845Y16065206D02*
X36859506Y16061696D01*
X36882710Y16055884D01*
X36905232Y16047826D01*
X36926856Y16037598D01*
X36947373Y16025301D01*
X36966586Y16011051D01*
X36984310Y15994987D01*
X37000374Y15977263D01*
X37014624Y15958050D01*
X37026921Y15937533D01*
X37037149Y15915909D01*
X37045207Y15893387D01*
X37051019Y15870183D01*
X37054529Y15846522D01*
X37055703Y15822630D01*
X37055703Y15335130D01*
X37054529Y15311238D01*
X37051019Y15287577D01*
X37045207Y15264373D01*
X37037149Y15241851D01*
X37026921Y15220227D01*
X37014624Y15199710D01*
X37000374Y15180497D01*
X36984310Y15162773D01*
X36966586Y15146709D01*
X36947373Y15132459D01*
X36926856Y15120162D01*
X36905232Y15109934D01*
X36882710Y15101876D01*
X36859506Y15096064D01*
X36835845Y15092554D01*
X36811953Y15091380D01*
X35899453Y15091380D01*
X35875561Y15092554D01*
X35851900Y15096064D01*
X35828696Y15101876D01*
X35806174Y15109934D01*
X35784550Y15120162D01*
X35764033Y15132459D01*
X35744820Y15146709D01*
X35727096Y15162773D01*
X35711032Y15180497D01*
X35696782Y15199710D01*
X35684485Y15220227D01*
X35674257Y15241851D01*
X35666199Y15264373D01*
X35660387Y15287577D01*
X35656877Y15311238D01*
X35655703Y15335130D01*
X35655703Y15822630D01*
X35656877Y15846522D01*
X35660387Y15870183D01*
X35666199Y15893387D01*
X35674257Y15915909D01*
X35684485Y15937533D01*
X35696782Y15958050D01*
X35711032Y15977263D01*
X35727096Y15994987D01*
X35744820Y16011051D01*
X35764033Y16025301D01*
X35784550Y16037598D01*
X35806174Y16047826D01*
X35828696Y16055884D01*
X35851900Y16061696D01*
X35875561Y16065206D01*
X35899453Y16066380D01*
X36811953Y16066380D01*
X36835845Y16065206D01*
X36835845Y16065206D01*
G37*
D11*
G04 #@! TD*
G04 #@! TO.P,R3,2*
G04 #@! TO.N,Net-(R2-Pad1)*
X36355703Y15578880D03*
D10*
G04 #@! TO.N,GND*
G04 #@! TO.C,R4*
G36*
X23780142Y6240206D02*
X23803803Y6236696D01*
X23827007Y6230884D01*
X23849529Y6222826D01*
X23871153Y6212598D01*
X23891670Y6200301D01*
X23910883Y6186051D01*
X23928607Y6169987D01*
X23944671Y6152263D01*
X23958921Y6133050D01*
X23971218Y6112533D01*
X23981446Y6090909D01*
X23989504Y6068387D01*
X23995316Y6045183D01*
X23998826Y6021522D01*
X24000000Y5997630D01*
X24000000Y5085130D01*
X23998826Y5061238D01*
X23995316Y5037577D01*
X23989504Y5014373D01*
X23981446Y4991851D01*
X23971218Y4970227D01*
X23958921Y4949710D01*
X23944671Y4930497D01*
X23928607Y4912773D01*
X23910883Y4896709D01*
X23891670Y4882459D01*
X23871153Y4870162D01*
X23849529Y4859934D01*
X23827007Y4851876D01*
X23803803Y4846064D01*
X23780142Y4842554D01*
X23756250Y4841380D01*
X23268750Y4841380D01*
X23244858Y4842554D01*
X23221197Y4846064D01*
X23197993Y4851876D01*
X23175471Y4859934D01*
X23153847Y4870162D01*
X23133330Y4882459D01*
X23114117Y4896709D01*
X23096393Y4912773D01*
X23080329Y4930497D01*
X23066079Y4949710D01*
X23053782Y4970227D01*
X23043554Y4991851D01*
X23035496Y5014373D01*
X23029684Y5037577D01*
X23026174Y5061238D01*
X23025000Y5085130D01*
X23025000Y5997630D01*
X23026174Y6021522D01*
X23029684Y6045183D01*
X23035496Y6068387D01*
X23043554Y6090909D01*
X23053782Y6112533D01*
X23066079Y6133050D01*
X23080329Y6152263D01*
X23096393Y6169987D01*
X23114117Y6186051D01*
X23133330Y6200301D01*
X23153847Y6212598D01*
X23175471Y6222826D01*
X23197993Y6230884D01*
X23221197Y6236696D01*
X23244858Y6240206D01*
X23268750Y6241380D01*
X23756250Y6241380D01*
X23780142Y6240206D01*
X23780142Y6240206D01*
G37*
D11*
G04 #@! TD*
G04 #@! TO.P,R4,2*
G04 #@! TO.N,GND*
X23512500Y5541380D03*
D10*
G04 #@! TO.N,Net-(R4-Pad1)*
G04 #@! TO.C,R4*
G36*
X25655142Y6240206D02*
X25678803Y6236696D01*
X25702007Y6230884D01*
X25724529Y6222826D01*
X25746153Y6212598D01*
X25766670Y6200301D01*
X25785883Y6186051D01*
X25803607Y6169987D01*
X25819671Y6152263D01*
X25833921Y6133050D01*
X25846218Y6112533D01*
X25856446Y6090909D01*
X25864504Y6068387D01*
X25870316Y6045183D01*
X25873826Y6021522D01*
X25875000Y5997630D01*
X25875000Y5085130D01*
X25873826Y5061238D01*
X25870316Y5037577D01*
X25864504Y5014373D01*
X25856446Y4991851D01*
X25846218Y4970227D01*
X25833921Y4949710D01*
X25819671Y4930497D01*
X25803607Y4912773D01*
X25785883Y4896709D01*
X25766670Y4882459D01*
X25746153Y4870162D01*
X25724529Y4859934D01*
X25702007Y4851876D01*
X25678803Y4846064D01*
X25655142Y4842554D01*
X25631250Y4841380D01*
X25143750Y4841380D01*
X25119858Y4842554D01*
X25096197Y4846064D01*
X25072993Y4851876D01*
X25050471Y4859934D01*
X25028847Y4870162D01*
X25008330Y4882459D01*
X24989117Y4896709D01*
X24971393Y4912773D01*
X24955329Y4930497D01*
X24941079Y4949710D01*
X24928782Y4970227D01*
X24918554Y4991851D01*
X24910496Y5014373D01*
X24904684Y5037577D01*
X24901174Y5061238D01*
X24900000Y5085130D01*
X24900000Y5997630D01*
X24901174Y6021522D01*
X24904684Y6045183D01*
X24910496Y6068387D01*
X24918554Y6090909D01*
X24928782Y6112533D01*
X24941079Y6133050D01*
X24955329Y6152263D01*
X24971393Y6169987D01*
X24989117Y6186051D01*
X25008330Y6200301D01*
X25028847Y6212598D01*
X25050471Y6222826D01*
X25072993Y6230884D01*
X25096197Y6236696D01*
X25119858Y6240206D01*
X25143750Y6241380D01*
X25631250Y6241380D01*
X25655142Y6240206D01*
X25655142Y6240206D01*
G37*
D11*
G04 #@! TD*
G04 #@! TO.P,R4,1*
G04 #@! TO.N,Net-(R4-Pad1)*
X25387500Y5541380D03*
D10*
G04 #@! TO.N,Net-(R5-Pad2)*
G04 #@! TO.C,R5*
G36*
X30580142Y11198826D02*
X30603803Y11195316D01*
X30627007Y11189504D01*
X30649529Y11181446D01*
X30671153Y11171218D01*
X30691670Y11158921D01*
X30710883Y11144671D01*
X30728607Y11128607D01*
X30744671Y11110883D01*
X30758921Y11091670D01*
X30771218Y11071153D01*
X30781446Y11049529D01*
X30789504Y11027007D01*
X30795316Y11003803D01*
X30798826Y10980142D01*
X30800000Y10956250D01*
X30800000Y10043750D01*
X30798826Y10019858D01*
X30795316Y9996197D01*
X30789504Y9972993D01*
X30781446Y9950471D01*
X30771218Y9928847D01*
X30758921Y9908330D01*
X30744671Y9889117D01*
X30728607Y9871393D01*
X30710883Y9855329D01*
X30691670Y9841079D01*
X30671153Y9828782D01*
X30649529Y9818554D01*
X30627007Y9810496D01*
X30603803Y9804684D01*
X30580142Y9801174D01*
X30556250Y9800000D01*
X30068750Y9800000D01*
X30044858Y9801174D01*
X30021197Y9804684D01*
X29997993Y9810496D01*
X29975471Y9818554D01*
X29953847Y9828782D01*
X29933330Y9841079D01*
X29914117Y9855329D01*
X29896393Y9871393D01*
X29880329Y9889117D01*
X29866079Y9908330D01*
X29853782Y9928847D01*
X29843554Y9950471D01*
X29835496Y9972993D01*
X29829684Y9996197D01*
X29826174Y10019858D01*
X29825000Y10043750D01*
X29825000Y10956250D01*
X29826174Y10980142D01*
X29829684Y11003803D01*
X29835496Y11027007D01*
X29843554Y11049529D01*
X29853782Y11071153D01*
X29866079Y11091670D01*
X29880329Y11110883D01*
X29896393Y11128607D01*
X29914117Y11144671D01*
X29933330Y11158921D01*
X29953847Y11171218D01*
X29975471Y11181446D01*
X29997993Y11189504D01*
X30021197Y11195316D01*
X30044858Y11198826D01*
X30068750Y11200000D01*
X30556250Y11200000D01*
X30580142Y11198826D01*
X30580142Y11198826D01*
G37*
D11*
G04 #@! TD*
G04 #@! TO.P,R5,2*
G04 #@! TO.N,Net-(R5-Pad2)*
X30312500Y10500000D03*
D10*
G04 #@! TO.N,3V3*
G04 #@! TO.C,R5*
G36*
X32455142Y11198826D02*
X32478803Y11195316D01*
X32502007Y11189504D01*
X32524529Y11181446D01*
X32546153Y11171218D01*
X32566670Y11158921D01*
X32585883Y11144671D01*
X32603607Y11128607D01*
X32619671Y11110883D01*
X32633921Y11091670D01*
X32646218Y11071153D01*
X32656446Y11049529D01*
X32664504Y11027007D01*
X32670316Y11003803D01*
X32673826Y10980142D01*
X32675000Y10956250D01*
X32675000Y10043750D01*
X32673826Y10019858D01*
X32670316Y9996197D01*
X32664504Y9972993D01*
X32656446Y9950471D01*
X32646218Y9928847D01*
X32633921Y9908330D01*
X32619671Y9889117D01*
X32603607Y9871393D01*
X32585883Y9855329D01*
X32566670Y9841079D01*
X32546153Y9828782D01*
X32524529Y9818554D01*
X32502007Y9810496D01*
X32478803Y9804684D01*
X32455142Y9801174D01*
X32431250Y9800000D01*
X31943750Y9800000D01*
X31919858Y9801174D01*
X31896197Y9804684D01*
X31872993Y9810496D01*
X31850471Y9818554D01*
X31828847Y9828782D01*
X31808330Y9841079D01*
X31789117Y9855329D01*
X31771393Y9871393D01*
X31755329Y9889117D01*
X31741079Y9908330D01*
X31728782Y9928847D01*
X31718554Y9950471D01*
X31710496Y9972993D01*
X31704684Y9996197D01*
X31701174Y10019858D01*
X31700000Y10043750D01*
X31700000Y10956250D01*
X31701174Y10980142D01*
X31704684Y11003803D01*
X31710496Y11027007D01*
X31718554Y11049529D01*
X31728782Y11071153D01*
X31741079Y11091670D01*
X31755329Y11110883D01*
X31771393Y11128607D01*
X31789117Y11144671D01*
X31808330Y11158921D01*
X31828847Y11171218D01*
X31850471Y11181446D01*
X31872993Y11189504D01*
X31896197Y11195316D01*
X31919858Y11198826D01*
X31943750Y11200000D01*
X32431250Y11200000D01*
X32455142Y11198826D01*
X32455142Y11198826D01*
G37*
D11*
G04 #@! TD*
G04 #@! TO.P,R5,1*
G04 #@! TO.N,3V3*
X32187500Y10500000D03*
D10*
G04 #@! TO.N,SDA*
G04 #@! TO.C,R6*
G36*
X32455142Y9240206D02*
X32478803Y9236696D01*
X32502007Y9230884D01*
X32524529Y9222826D01*
X32546153Y9212598D01*
X32566670Y9200301D01*
X32585883Y9186051D01*
X32603607Y9169987D01*
X32619671Y9152263D01*
X32633921Y9133050D01*
X32646218Y9112533D01*
X32656446Y9090909D01*
X32664504Y9068387D01*
X32670316Y9045183D01*
X32673826Y9021522D01*
X32675000Y8997630D01*
X32675000Y8085130D01*
X32673826Y8061238D01*
X32670316Y8037577D01*
X32664504Y8014373D01*
X32656446Y7991851D01*
X32646218Y7970227D01*
X32633921Y7949710D01*
X32619671Y7930497D01*
X32603607Y7912773D01*
X32585883Y7896709D01*
X32566670Y7882459D01*
X32546153Y7870162D01*
X32524529Y7859934D01*
X32502007Y7851876D01*
X32478803Y7846064D01*
X32455142Y7842554D01*
X32431250Y7841380D01*
X31943750Y7841380D01*
X31919858Y7842554D01*
X31896197Y7846064D01*
X31872993Y7851876D01*
X31850471Y7859934D01*
X31828847Y7870162D01*
X31808330Y7882459D01*
X31789117Y7896709D01*
X31771393Y7912773D01*
X31755329Y7930497D01*
X31741079Y7949710D01*
X31728782Y7970227D01*
X31718554Y7991851D01*
X31710496Y8014373D01*
X31704684Y8037577D01*
X31701174Y8061238D01*
X31700000Y8085130D01*
X31700000Y8997630D01*
X31701174Y9021522D01*
X31704684Y9045183D01*
X31710496Y9068387D01*
X31718554Y9090909D01*
X31728782Y9112533D01*
X31741079Y9133050D01*
X31755329Y9152263D01*
X31771393Y9169987D01*
X31789117Y9186051D01*
X31808330Y9200301D01*
X31828847Y9212598D01*
X31850471Y9222826D01*
X31872993Y9230884D01*
X31896197Y9236696D01*
X31919858Y9240206D01*
X31943750Y9241380D01*
X32431250Y9241380D01*
X32455142Y9240206D01*
X32455142Y9240206D01*
G37*
D11*
G04 #@! TD*
G04 #@! TO.P,R6,2*
G04 #@! TO.N,SDA*
X32187500Y8541380D03*
D10*
G04 #@! TO.N,3V3*
G04 #@! TO.C,R6*
G36*
X30580142Y9240206D02*
X30603803Y9236696D01*
X30627007Y9230884D01*
X30649529Y9222826D01*
X30671153Y9212598D01*
X30691670Y9200301D01*
X30710883Y9186051D01*
X30728607Y9169987D01*
X30744671Y9152263D01*
X30758921Y9133050D01*
X30771218Y9112533D01*
X30781446Y9090909D01*
X30789504Y9068387D01*
X30795316Y9045183D01*
X30798826Y9021522D01*
X30800000Y8997630D01*
X30800000Y8085130D01*
X30798826Y8061238D01*
X30795316Y8037577D01*
X30789504Y8014373D01*
X30781446Y7991851D01*
X30771218Y7970227D01*
X30758921Y7949710D01*
X30744671Y7930497D01*
X30728607Y7912773D01*
X30710883Y7896709D01*
X30691670Y7882459D01*
X30671153Y7870162D01*
X30649529Y7859934D01*
X30627007Y7851876D01*
X30603803Y7846064D01*
X30580142Y7842554D01*
X30556250Y7841380D01*
X30068750Y7841380D01*
X30044858Y7842554D01*
X30021197Y7846064D01*
X29997993Y7851876D01*
X29975471Y7859934D01*
X29953847Y7870162D01*
X29933330Y7882459D01*
X29914117Y7896709D01*
X29896393Y7912773D01*
X29880329Y7930497D01*
X29866079Y7949710D01*
X29853782Y7970227D01*
X29843554Y7991851D01*
X29835496Y8014373D01*
X29829684Y8037577D01*
X29826174Y8061238D01*
X29825000Y8085130D01*
X29825000Y8997630D01*
X29826174Y9021522D01*
X29829684Y9045183D01*
X29835496Y9068387D01*
X29843554Y9090909D01*
X29853782Y9112533D01*
X29866079Y9133050D01*
X29880329Y9152263D01*
X29896393Y9169987D01*
X29914117Y9186051D01*
X29933330Y9200301D01*
X29953847Y9212598D01*
X29975471Y9222826D01*
X29997993Y9230884D01*
X30021197Y9236696D01*
X30044858Y9240206D01*
X30068750Y9241380D01*
X30556250Y9241380D01*
X30580142Y9240206D01*
X30580142Y9240206D01*
G37*
D11*
G04 #@! TD*
G04 #@! TO.P,R6,1*
G04 #@! TO.N,3V3*
X30312500Y8541380D03*
D10*
G04 #@! TO.N,3V3*
G04 #@! TO.C,R7*
G36*
X30580142Y7240206D02*
X30603803Y7236696D01*
X30627007Y7230884D01*
X30649529Y7222826D01*
X30671153Y7212598D01*
X30691670Y7200301D01*
X30710883Y7186051D01*
X30728607Y7169987D01*
X30744671Y7152263D01*
X30758921Y7133050D01*
X30771218Y7112533D01*
X30781446Y7090909D01*
X30789504Y7068387D01*
X30795316Y7045183D01*
X30798826Y7021522D01*
X30800000Y6997630D01*
X30800000Y6085130D01*
X30798826Y6061238D01*
X30795316Y6037577D01*
X30789504Y6014373D01*
X30781446Y5991851D01*
X30771218Y5970227D01*
X30758921Y5949710D01*
X30744671Y5930497D01*
X30728607Y5912773D01*
X30710883Y5896709D01*
X30691670Y5882459D01*
X30671153Y5870162D01*
X30649529Y5859934D01*
X30627007Y5851876D01*
X30603803Y5846064D01*
X30580142Y5842554D01*
X30556250Y5841380D01*
X30068750Y5841380D01*
X30044858Y5842554D01*
X30021197Y5846064D01*
X29997993Y5851876D01*
X29975471Y5859934D01*
X29953847Y5870162D01*
X29933330Y5882459D01*
X29914117Y5896709D01*
X29896393Y5912773D01*
X29880329Y5930497D01*
X29866079Y5949710D01*
X29853782Y5970227D01*
X29843554Y5991851D01*
X29835496Y6014373D01*
X29829684Y6037577D01*
X29826174Y6061238D01*
X29825000Y6085130D01*
X29825000Y6997630D01*
X29826174Y7021522D01*
X29829684Y7045183D01*
X29835496Y7068387D01*
X29843554Y7090909D01*
X29853782Y7112533D01*
X29866079Y7133050D01*
X29880329Y7152263D01*
X29896393Y7169987D01*
X29914117Y7186051D01*
X29933330Y7200301D01*
X29953847Y7212598D01*
X29975471Y7222826D01*
X29997993Y7230884D01*
X30021197Y7236696D01*
X30044858Y7240206D01*
X30068750Y7241380D01*
X30556250Y7241380D01*
X30580142Y7240206D01*
X30580142Y7240206D01*
G37*
D11*
G04 #@! TD*
G04 #@! TO.P,R7,1*
G04 #@! TO.N,3V3*
X30312500Y6541380D03*
D10*
G04 #@! TO.N,SCL*
G04 #@! TO.C,R7*
G36*
X32455142Y7240206D02*
X32478803Y7236696D01*
X32502007Y7230884D01*
X32524529Y7222826D01*
X32546153Y7212598D01*
X32566670Y7200301D01*
X32585883Y7186051D01*
X32603607Y7169987D01*
X32619671Y7152263D01*
X32633921Y7133050D01*
X32646218Y7112533D01*
X32656446Y7090909D01*
X32664504Y7068387D01*
X32670316Y7045183D01*
X32673826Y7021522D01*
X32675000Y6997630D01*
X32675000Y6085130D01*
X32673826Y6061238D01*
X32670316Y6037577D01*
X32664504Y6014373D01*
X32656446Y5991851D01*
X32646218Y5970227D01*
X32633921Y5949710D01*
X32619671Y5930497D01*
X32603607Y5912773D01*
X32585883Y5896709D01*
X32566670Y5882459D01*
X32546153Y5870162D01*
X32524529Y5859934D01*
X32502007Y5851876D01*
X32478803Y5846064D01*
X32455142Y5842554D01*
X32431250Y5841380D01*
X31943750Y5841380D01*
X31919858Y5842554D01*
X31896197Y5846064D01*
X31872993Y5851876D01*
X31850471Y5859934D01*
X31828847Y5870162D01*
X31808330Y5882459D01*
X31789117Y5896709D01*
X31771393Y5912773D01*
X31755329Y5930497D01*
X31741079Y5949710D01*
X31728782Y5970227D01*
X31718554Y5991851D01*
X31710496Y6014373D01*
X31704684Y6037577D01*
X31701174Y6061238D01*
X31700000Y6085130D01*
X31700000Y6997630D01*
X31701174Y7021522D01*
X31704684Y7045183D01*
X31710496Y7068387D01*
X31718554Y7090909D01*
X31728782Y7112533D01*
X31741079Y7133050D01*
X31755329Y7152263D01*
X31771393Y7169987D01*
X31789117Y7186051D01*
X31808330Y7200301D01*
X31828847Y7212598D01*
X31850471Y7222826D01*
X31872993Y7230884D01*
X31896197Y7236696D01*
X31919858Y7240206D01*
X31943750Y7241380D01*
X32431250Y7241380D01*
X32455142Y7240206D01*
X32455142Y7240206D01*
G37*
D11*
G04 #@! TD*
G04 #@! TO.P,R7,2*
G04 #@! TO.N,SCL*
X32187500Y6541380D03*
D10*
G04 #@! TO.N,Net-(R8-Pad2)*
G04 #@! TO.C,R8*
G36*
X23430142Y8548826D02*
X23453803Y8545316D01*
X23477007Y8539504D01*
X23499529Y8531446D01*
X23521153Y8521218D01*
X23541670Y8508921D01*
X23560883Y8494671D01*
X23578607Y8478607D01*
X23594671Y8460883D01*
X23608921Y8441670D01*
X23621218Y8421153D01*
X23631446Y8399529D01*
X23639504Y8377007D01*
X23645316Y8353803D01*
X23648826Y8330142D01*
X23650000Y8306250D01*
X23650000Y7818750D01*
X23648826Y7794858D01*
X23645316Y7771197D01*
X23639504Y7747993D01*
X23631446Y7725471D01*
X23621218Y7703847D01*
X23608921Y7683330D01*
X23594671Y7664117D01*
X23578607Y7646393D01*
X23560883Y7630329D01*
X23541670Y7616079D01*
X23521153Y7603782D01*
X23499529Y7593554D01*
X23477007Y7585496D01*
X23453803Y7579684D01*
X23430142Y7576174D01*
X23406250Y7575000D01*
X22493750Y7575000D01*
X22469858Y7576174D01*
X22446197Y7579684D01*
X22422993Y7585496D01*
X22400471Y7593554D01*
X22378847Y7603782D01*
X22358330Y7616079D01*
X22339117Y7630329D01*
X22321393Y7646393D01*
X22305329Y7664117D01*
X22291079Y7683330D01*
X22278782Y7703847D01*
X22268554Y7725471D01*
X22260496Y7747993D01*
X22254684Y7771197D01*
X22251174Y7794858D01*
X22250000Y7818750D01*
X22250000Y8306250D01*
X22251174Y8330142D01*
X22254684Y8353803D01*
X22260496Y8377007D01*
X22268554Y8399529D01*
X22278782Y8421153D01*
X22291079Y8441670D01*
X22305329Y8460883D01*
X22321393Y8478607D01*
X22339117Y8494671D01*
X22358330Y8508921D01*
X22378847Y8521218D01*
X22400471Y8531446D01*
X22422993Y8539504D01*
X22446197Y8545316D01*
X22469858Y8548826D01*
X22493750Y8550000D01*
X23406250Y8550000D01*
X23430142Y8548826D01*
X23430142Y8548826D01*
G37*
D11*
G04 #@! TD*
G04 #@! TO.P,R8,2*
G04 #@! TO.N,Net-(R8-Pad2)*
X22950000Y8062500D03*
D10*
G04 #@! TO.N,eTX*
G04 #@! TO.C,R8*
G36*
X23430142Y10423826D02*
X23453803Y10420316D01*
X23477007Y10414504D01*
X23499529Y10406446D01*
X23521153Y10396218D01*
X23541670Y10383921D01*
X23560883Y10369671D01*
X23578607Y10353607D01*
X23594671Y10335883D01*
X23608921Y10316670D01*
X23621218Y10296153D01*
X23631446Y10274529D01*
X23639504Y10252007D01*
X23645316Y10228803D01*
X23648826Y10205142D01*
X23650000Y10181250D01*
X23650000Y9693750D01*
X23648826Y9669858D01*
X23645316Y9646197D01*
X23639504Y9622993D01*
X23631446Y9600471D01*
X23621218Y9578847D01*
X23608921Y9558330D01*
X23594671Y9539117D01*
X23578607Y9521393D01*
X23560883Y9505329D01*
X23541670Y9491079D01*
X23521153Y9478782D01*
X23499529Y9468554D01*
X23477007Y9460496D01*
X23453803Y9454684D01*
X23430142Y9451174D01*
X23406250Y9450000D01*
X22493750Y9450000D01*
X22469858Y9451174D01*
X22446197Y9454684D01*
X22422993Y9460496D01*
X22400471Y9468554D01*
X22378847Y9478782D01*
X22358330Y9491079D01*
X22339117Y9505329D01*
X22321393Y9521393D01*
X22305329Y9539117D01*
X22291079Y9558330D01*
X22278782Y9578847D01*
X22268554Y9600471D01*
X22260496Y9622993D01*
X22254684Y9646197D01*
X22251174Y9669858D01*
X22250000Y9693750D01*
X22250000Y10181250D01*
X22251174Y10205142D01*
X22254684Y10228803D01*
X22260496Y10252007D01*
X22268554Y10274529D01*
X22278782Y10296153D01*
X22291079Y10316670D01*
X22305329Y10335883D01*
X22321393Y10353607D01*
X22339117Y10369671D01*
X22358330Y10383921D01*
X22378847Y10396218D01*
X22400471Y10406446D01*
X22422993Y10414504D01*
X22446197Y10420316D01*
X22469858Y10423826D01*
X22493750Y10425000D01*
X23406250Y10425000D01*
X23430142Y10423826D01*
X23430142Y10423826D01*
G37*
D11*
G04 #@! TD*
G04 #@! TO.P,R8,1*
G04 #@! TO.N,eTX*
X22950000Y9937500D03*
D23*
G04 #@! TO.N,GND*
X28250000Y11800000D03*
X37225000Y11950000D03*
X12950000Y5300000D03*
X13226828Y16906817D03*
G04 #@! TO.N,eRX*
X24550002Y8050000D03*
X34050000Y5025000D03*
G04 #@! TO.N,eTX*
X36239335Y5243178D03*
G04 #@! TO.N,5V*
X21500000Y12000000D03*
G04 #@! TO.N,eTX*
X25650000Y9950000D03*
G04 #@! TO.N,RESET*
X14500000Y10850000D03*
X18350000Y19550000D03*
G04 #@! TO.N,WLED*
X28250000Y16750000D03*
G04 #@! TD*
D24*
G04 #@! TO.N,3V3*
X25305703Y15346380D02*
X25305703Y15141380D01*
X24264467Y16387616D02*
X25305703Y15346380D01*
X23259227Y16387616D02*
X24264467Y16387616D01*
X22209217Y17437626D02*
X23259227Y16387616D01*
X27255703Y15141380D02*
X27355703Y15041380D01*
X25305703Y15141380D02*
X27255703Y15141380D01*
X33400000Y12000000D02*
X33700000Y12000000D01*
X33700000Y12000000D02*
X34500000Y12000000D01*
X27364323Y15050000D02*
X27355703Y15041380D01*
X29250000Y15050000D02*
X27364323Y15050000D01*
X30800000Y14650000D02*
X30400000Y15050000D01*
X30800000Y12900000D02*
X30800000Y14650000D01*
X30400000Y15050000D02*
X29250000Y15050000D01*
X33400000Y12000000D02*
X31700000Y12000000D01*
X31700000Y12000000D02*
X30800000Y12900000D01*
X34355703Y10121380D02*
X34585703Y9891380D01*
X34355703Y13694297D02*
X34355703Y10121380D01*
X34350000Y13700000D02*
X34355703Y13694297D01*
X36400000Y13350000D02*
X36050000Y13700000D01*
X36050000Y13700000D02*
X34350000Y13700000D01*
X30100000Y6700000D02*
X30100000Y8291380D01*
X30250000Y6550000D02*
X30100000Y6700000D01*
X30100000Y8291380D02*
X30350000Y8541380D01*
X30350000Y8541380D02*
X30350000Y8650000D01*
X32200000Y10800000D02*
X33400000Y12000000D01*
X32200000Y10500000D02*
X32200000Y10800000D01*
X30350000Y8650000D02*
X32200000Y10500000D01*
G04 #@! TO.N,GND*
X37125703Y7824297D02*
X37125703Y7191380D01*
X35855703Y9094297D02*
X37125703Y7824297D01*
X35855703Y11041380D02*
X35855703Y9094297D01*
X36355703Y11541380D02*
X35855703Y11041380D01*
D25*
X4959217Y6577626D02*
X5686843Y5850000D01*
D24*
X16800000Y5975000D02*
X16800000Y5050000D01*
X16800000Y9006843D02*
X16800000Y5975000D01*
X16434217Y9372626D02*
X16800000Y9006843D01*
D25*
X18750000Y2250000D02*
X20050000Y2250000D01*
X18475000Y2250000D02*
X18750000Y2250000D01*
X16800000Y3925000D02*
X18475000Y2250000D01*
X16800000Y5050000D02*
X16800000Y3925000D01*
D24*
X24355703Y12941380D02*
X24355703Y12111380D01*
X27161379Y11911379D02*
X27355703Y12105703D01*
X27355703Y12105703D02*
X27355703Y13041380D01*
X24355703Y12111380D02*
X24555704Y11911379D01*
X24555704Y11911379D02*
X27161379Y11911379D01*
D25*
X22941380Y5541380D02*
X23500000Y5541380D01*
X22209217Y3437626D02*
X22209217Y4809217D01*
X22209217Y4809217D02*
X22941380Y5541380D01*
D24*
X36500000Y12000000D02*
X37175000Y12000000D01*
X37175000Y12000000D02*
X37225000Y11950000D01*
X29250000Y12250000D02*
X29250000Y13050000D01*
X28250000Y11800000D02*
X28800000Y11800000D01*
X28800000Y11800000D02*
X29250000Y12250000D01*
D26*
X21021591Y2250000D02*
X22209217Y3437626D01*
X20050000Y2250000D02*
X21021591Y2250000D01*
D25*
X5686843Y5850000D02*
X11350000Y5850000D01*
D24*
X10250000Y9025000D02*
X10880746Y9025000D01*
X11350000Y8555746D02*
X11350000Y5850000D01*
X10880746Y9025000D02*
X11350000Y8555746D01*
D25*
X16800000Y5050000D02*
X16550000Y5300000D01*
X11350000Y5850000D02*
X11900000Y5300000D01*
X16550000Y5300000D02*
X13798528Y5300000D01*
X13798528Y5300000D02*
X12950000Y5300000D01*
D24*
X16800000Y5000000D02*
X13250000Y5000000D01*
D25*
X11900000Y5300000D02*
X12101472Y5300000D01*
X12101472Y5300000D02*
X12950000Y5300000D01*
D24*
X13250000Y5000000D02*
X12950000Y5300000D01*
X13450000Y17129989D02*
X13226828Y16906817D01*
X13450000Y18500000D02*
X13450000Y17129989D01*
X12400000Y11800000D02*
X12850000Y11800000D01*
X12850000Y11800000D02*
X13250000Y12200000D01*
X13250000Y12200000D02*
X16150000Y12200000D01*
X16150000Y12200000D02*
X17100000Y11250000D01*
X16434217Y9372626D02*
X15359217Y9372626D01*
X17100000Y10038409D02*
X16434217Y9372626D01*
X17100000Y11250000D02*
X17100000Y10038409D01*
D25*
G04 #@! TO.N,UD+*
X9220000Y8075000D02*
X10250000Y8075000D01*
X8145000Y9150000D02*
X9220000Y8075000D01*
X5209217Y9137626D02*
X5221591Y9150000D01*
X5221591Y9150000D02*
X8145000Y9150000D01*
G04 #@! TO.N,UD-*
X8395000Y11625000D02*
X5221843Y11625000D01*
X5221843Y11625000D02*
X5209217Y11637626D01*
X10250000Y9975000D02*
X10045000Y9975000D01*
X10045000Y9975000D02*
X8395000Y11625000D01*
D24*
G04 #@! TO.N,Net-(R1-Pad2)*
X32459457Y17437626D02*
X32209217Y17437626D01*
X33405703Y16491380D02*
X32459457Y17437626D01*
X33405703Y16241140D02*
X33405703Y16491380D01*
X34355703Y15491380D02*
X34155463Y15491380D01*
X34155463Y15491380D02*
X33405703Y16241140D01*
D26*
G04 #@! TO.N,RESET*
X30209217Y18393275D02*
X30209217Y17437626D01*
X20050000Y18700000D02*
X21287636Y19937636D01*
X28664856Y19937636D02*
X30209217Y18393275D01*
X21287636Y19937636D02*
X28664856Y19937636D01*
X20050000Y18500000D02*
X20050000Y18700000D01*
D24*
G04 #@! TO.N,Net-(R4-Pad1)*
X25500000Y5150000D02*
X25500000Y5550000D01*
X24209217Y3437626D02*
X24209217Y3859217D01*
X24209217Y3859217D02*
X25500000Y5150000D01*
G04 #@! TO.N,Net-(R5-Pad2)*
X29250000Y9500000D02*
X30250000Y10500000D01*
X28209217Y3437626D02*
X29250000Y4478409D01*
X29250000Y4478409D02*
X29250000Y9500000D01*
D26*
X28209217Y1609217D02*
X28209217Y3437626D01*
X27300000Y700000D02*
X28209217Y1609217D01*
X13450000Y2250000D02*
X16350000Y2250000D01*
X17900000Y700000D02*
X27300000Y700000D01*
X16350000Y2250000D02*
X17900000Y700000D01*
D24*
G04 #@! TO.N,SDA*
X35855703Y7191380D02*
X35855703Y7944297D01*
X35258620Y8541380D02*
X32455703Y8541380D01*
X35855703Y7944297D02*
X35258620Y8541380D01*
G04 #@! TO.N,SCL*
X32441380Y7191380D02*
X34585703Y7191380D01*
X32250000Y7000000D02*
X32441380Y7191380D01*
X32250000Y3478409D02*
X32250000Y6541380D01*
X32209217Y3437626D02*
X32250000Y3478409D01*
G04 #@! TO.N,eRX*
X34050000Y3596843D02*
X34050000Y4176472D01*
X34209217Y3437626D02*
X34050000Y3596843D01*
X34050000Y4176472D02*
X34050000Y5025000D01*
X24550002Y8474998D02*
X24550002Y8050000D01*
X24025000Y9000000D02*
X24550002Y8474998D01*
X21850000Y9000000D02*
X24025000Y9000000D01*
X20759217Y9372626D02*
X21477374Y9372626D01*
X21477374Y9372626D02*
X21850000Y9000000D01*
G04 #@! TO.N,eTX*
X36239335Y3467744D02*
X36239335Y4394650D01*
X36239335Y4394650D02*
X36239335Y5243178D01*
X36209217Y3437626D02*
X36239335Y3467744D01*
D25*
G04 #@! TO.N,VBUS*
X9522626Y14197626D02*
X10400000Y15075000D01*
X4959217Y14197626D02*
X9522626Y14197626D01*
G04 #@! TO.N,UDP+*
X15350463Y6841380D02*
X15359217Y6832626D01*
D24*
X13067374Y6832626D02*
X14284217Y6832626D01*
X14284217Y6832626D02*
X15359217Y6832626D01*
X12450000Y7450000D02*
X13067374Y6832626D01*
X12450000Y8075000D02*
X12450000Y7450000D01*
G04 #@! TO.N,UDP-*
X13825000Y9430000D02*
X13825000Y8325000D01*
X14284217Y8102626D02*
X15359217Y8102626D01*
X13280000Y9975000D02*
X13825000Y9430000D01*
X13825000Y8325000D02*
X14047374Y8102626D01*
X14047374Y8102626D02*
X14284217Y8102626D01*
X12450000Y9975000D02*
X13280000Y9975000D01*
G04 #@! TO.N,Net-(C6-Pad1)*
X20705703Y6779112D02*
X20759217Y6832626D01*
X18900000Y6450000D02*
X18900000Y5050000D01*
X20759217Y6832626D02*
X19282626Y6832626D01*
X19282626Y6832626D02*
X18900000Y6450000D01*
G04 #@! TO.N,5V*
X23405703Y13135677D02*
X23405703Y12941380D01*
X17600000Y12200000D02*
X17600000Y13000000D01*
X20759217Y10642626D02*
X19157374Y10642626D01*
X19157374Y10642626D02*
X17600000Y12200000D01*
X11350000Y9474998D02*
X11799998Y9025000D01*
X15400000Y13050000D02*
X15125000Y13325000D01*
X10212500Y11962500D02*
X11350000Y10825000D01*
X11799998Y9025000D02*
X12450000Y9025000D01*
X15675000Y13050000D02*
X15400000Y13050000D01*
X15125000Y13325000D02*
X11575000Y13325000D01*
X11575000Y13325000D02*
X10212500Y11962500D01*
X11350000Y10825000D02*
X11350000Y9474998D01*
X25305703Y13894297D02*
X25305703Y12941380D01*
X25100000Y14100000D02*
X25305703Y13894297D01*
X23600000Y14100000D02*
X25100000Y14100000D01*
X23400000Y13900000D02*
X23600000Y14100000D01*
X23405703Y12941380D02*
X23405703Y13894297D01*
X23405703Y13894297D02*
X23400000Y13900000D01*
X21475000Y13303880D02*
X21475000Y12025000D01*
X21475000Y12025000D02*
X21500000Y12000000D01*
G04 #@! TO.N,Net-(R2-Pad1)*
X32505703Y13591380D02*
X32355703Y13591380D01*
X36209217Y15687866D02*
X36355703Y15541380D01*
X36355703Y15541380D02*
X36155703Y15541380D01*
X36209217Y17437626D02*
X36209217Y15687866D01*
X36155703Y15541380D02*
X35214323Y14600000D01*
X35214323Y14600000D02*
X33514323Y14600000D01*
X33514323Y14600000D02*
X32505703Y13591380D01*
G04 #@! TO.N,SDA*
X32250000Y8450000D02*
X32250000Y8541380D01*
X31250000Y7450000D02*
X32250000Y8450000D01*
X31250000Y5100000D02*
X31250000Y7450000D01*
X30209217Y3437626D02*
X30209217Y4059217D01*
X30209217Y4059217D02*
X31250000Y5100000D01*
G04 #@! TO.N,eTX*
X25650000Y9950000D02*
X22950000Y9950000D01*
D25*
G04 #@! TO.N,5V*
X23097083Y13250000D02*
X23405703Y12941380D01*
X15700000Y13200000D02*
X15750000Y13250000D01*
X15750000Y13250000D02*
X23097083Y13250000D01*
D24*
G04 #@! TO.N,Net-(R8-Pad2)*
X22897374Y8102626D02*
X22925000Y8075000D01*
X20759217Y8102626D02*
X22897374Y8102626D01*
D25*
G04 #@! TO.N,Net-(D1-Pad1)*
X15525000Y15075000D02*
X15675000Y14925000D01*
X13200000Y15075000D02*
X15525000Y15075000D01*
D24*
G04 #@! TO.N,RESET*
X15348528Y10850000D02*
X14500000Y10850000D01*
X15359217Y10839311D02*
X15348528Y10850000D01*
X15359217Y10642626D02*
X15359217Y10839311D01*
X18350000Y19100000D02*
X18350000Y19550000D01*
X18950000Y18500000D02*
X18350000Y19100000D01*
X20050000Y18500000D02*
X18950000Y18500000D01*
X30209217Y16740783D02*
X30209217Y17437626D01*
X32355703Y15491380D02*
X31458620Y15491380D01*
X31458620Y15491380D02*
X30209217Y16740783D01*
G04 #@! TO.N,WLED*
X28209217Y17437626D02*
X28209217Y16790783D01*
X28209217Y16790783D02*
X28250000Y16750000D01*
G04 #@! TD*
D27*
G04 #@! TO.N,GND*
G36*
X14588584Y12401084D02*
X14877706Y12207898D01*
X15218750Y12140060D01*
X16131250Y12140060D01*
X16472294Y12207898D01*
X16646611Y12324373D01*
X16777706Y12236778D01*
X16805825Y12231185D01*
X16799622Y12200000D01*
X16815000Y12122688D01*
X16815000Y12122685D01*
X16846863Y11962500D01*
X16860546Y11893709D01*
X16977478Y11718709D01*
X17034047Y11634047D01*
X17099592Y11590251D01*
X18547627Y10142215D01*
X18591421Y10076673D01*
X18656963Y10032879D01*
X18656965Y10032877D01*
X18712226Y9995953D01*
X18851082Y9903172D01*
X19080058Y9857626D01*
X19080062Y9857626D01*
X19157373Y9842248D01*
X19234684Y9857626D01*
X19373575Y9857626D01*
X19336777Y9672626D01*
X19336777Y9072626D01*
X19386060Y8824861D01*
X19444349Y8737626D01*
X19386060Y8650391D01*
X19336777Y8402626D01*
X19336777Y7802626D01*
X19373575Y7617626D01*
X19359938Y7617626D01*
X19282626Y7633004D01*
X19205314Y7617626D01*
X19205310Y7617626D01*
X18976334Y7572080D01*
X18716673Y7398579D01*
X18672877Y7333034D01*
X18399592Y7059749D01*
X18334047Y7015953D01*
X18290251Y6950408D01*
X18211551Y6832625D01*
X18160546Y6756291D01*
X18115000Y6527315D01*
X18115000Y6527312D01*
X18099622Y6450000D01*
X18115000Y6372688D01*
X18115000Y6254408D01*
X17863584Y6086416D01*
X17862793Y6085233D01*
X17709698Y6238327D01*
X17476309Y6335000D01*
X17148250Y6335000D01*
X16989500Y6176250D01*
X16989500Y5127000D01*
X17009500Y5127000D01*
X17009500Y4873000D01*
X16989500Y4873000D01*
X16989500Y3823750D01*
X17148250Y3665000D01*
X17476309Y3665000D01*
X17709698Y3761673D01*
X17862793Y3914767D01*
X17863584Y3913584D01*
X18152706Y3720398D01*
X18493750Y3652560D01*
X18981250Y3652560D01*
X19322294Y3720398D01*
X19611416Y3913584D01*
X19804602Y4202706D01*
X19872440Y4543750D01*
X19872440Y5456250D01*
X19804602Y5797294D01*
X19693983Y5962846D01*
X19736452Y5934469D01*
X19984217Y5885186D01*
X21534217Y5885186D01*
X21781982Y5934469D01*
X21992026Y6074817D01*
X22132374Y6284861D01*
X22148849Y6367690D01*
X22390000Y6367690D01*
X22390000Y5827130D01*
X22548750Y5668380D01*
X23385500Y5668380D01*
X23385500Y6717630D01*
X23226750Y6876380D01*
X22898691Y6876380D01*
X22665302Y6779707D01*
X22486673Y6601079D01*
X22390000Y6367690D01*
X22148849Y6367690D01*
X22181657Y6532626D01*
X22181657Y6989639D01*
X22493750Y6927560D01*
X23406250Y6927560D01*
X23747294Y6995398D01*
X23813688Y7039761D01*
X23850431Y7003018D01*
X24304345Y6815000D01*
X24793753Y6815000D01*
X24513584Y6627796D01*
X24512793Y6626613D01*
X24359698Y6779707D01*
X24126309Y6876380D01*
X23798250Y6876380D01*
X23639500Y6717630D01*
X23639500Y5668380D01*
X23659500Y5668380D01*
X23659500Y5414380D01*
X23639500Y5414380D01*
X23639500Y5394380D01*
X23385500Y5394380D01*
X23385500Y5414380D01*
X22548750Y5414380D01*
X22390000Y5255630D01*
X22390000Y4715070D01*
X22461651Y4542089D01*
X22336217Y4455987D01*
X22336217Y2864626D01*
X22356217Y2864626D01*
X22356217Y2610626D01*
X22336217Y2610626D01*
X22336217Y2590626D01*
X22082217Y2590626D01*
X22082217Y2610626D01*
X22062217Y2610626D01*
X22062217Y2864626D01*
X22082217Y2864626D01*
X22082217Y4455987D01*
X21899473Y4581429D01*
X21873071Y4581024D01*
X21461099Y4365350D01*
X21163021Y4008439D01*
X21024217Y3564626D01*
X21024217Y3487001D01*
X20954424Y3570637D01*
X20456730Y3831442D01*
X20399039Y3841904D01*
X20177000Y3719915D01*
X20177000Y2377000D01*
X20197000Y2377000D01*
X20197000Y2123000D01*
X20177000Y2123000D01*
X20177000Y2103000D01*
X19923000Y2103000D01*
X19923000Y2123000D01*
X18770529Y2123000D01*
X18618066Y1897114D01*
X18731159Y1535000D01*
X18245868Y1535000D01*
X17177982Y2602886D01*
X18618066Y2602886D01*
X18770529Y2377000D01*
X19923000Y2377000D01*
X19923000Y3719915D01*
X19700961Y3841904D01*
X19643270Y3831442D01*
X19145576Y3570637D01*
X18785572Y3139226D01*
X18618066Y2602886D01*
X17177982Y2602886D01*
X16998587Y2782280D01*
X16952001Y2852001D01*
X16675801Y3036552D01*
X16432237Y3085000D01*
X16432233Y3085000D01*
X16350000Y3101357D01*
X16267767Y3085000D01*
X14751565Y3085000D01*
X14484577Y3484577D01*
X14009909Y3801740D01*
X13450000Y3913113D01*
X12912985Y3806294D01*
X12870238Y4021196D01*
X12786271Y4223909D01*
X12764223Y4277138D01*
X12547451Y4601562D01*
X12434763Y4714250D01*
X15740000Y4714250D01*
X15740000Y4173690D01*
X15836673Y3940301D01*
X16015302Y3761673D01*
X16248691Y3665000D01*
X16576750Y3665000D01*
X16735500Y3823750D01*
X16735500Y4873000D01*
X15898750Y4873000D01*
X15740000Y4714250D01*
X12434763Y4714250D01*
X12377000Y4772012D01*
X12377000Y6412843D01*
X12457625Y6332218D01*
X12501421Y6266673D01*
X12761082Y6093172D01*
X12990058Y6047626D01*
X12990062Y6047626D01*
X13067374Y6032248D01*
X13144686Y6047626D01*
X14167102Y6047626D01*
X14336452Y5934469D01*
X14584217Y5885186D01*
X15764387Y5885186D01*
X15740000Y5826310D01*
X15740000Y5285750D01*
X15898750Y5127000D01*
X16735500Y5127000D01*
X16735500Y6176250D01*
X16690122Y6221628D01*
X16732374Y6284861D01*
X16781657Y6532626D01*
X16781657Y7132626D01*
X16732374Y7380391D01*
X16674085Y7467626D01*
X16732374Y7554861D01*
X16781657Y7802626D01*
X16781657Y8402626D01*
X16732374Y8650391D01*
X16679449Y8729598D01*
X16769217Y8946316D01*
X16769217Y9086876D01*
X16610467Y9245626D01*
X15486217Y9245626D01*
X15486217Y9225626D01*
X15232217Y9225626D01*
X15232217Y9245626D01*
X15212217Y9245626D01*
X15212217Y9499626D01*
X15232217Y9499626D01*
X15232217Y9519626D01*
X15486217Y9519626D01*
X15486217Y9499626D01*
X16610467Y9499626D01*
X16769217Y9658376D01*
X16769217Y9798936D01*
X16679449Y10015654D01*
X16732374Y10094861D01*
X16781657Y10342626D01*
X16781657Y10942626D01*
X16732374Y11190391D01*
X16592026Y11400435D01*
X16381982Y11540783D01*
X16134217Y11590066D01*
X15651743Y11590066D01*
X15470420Y11626133D01*
X15199571Y11896982D01*
X14745657Y12085000D01*
X14254343Y12085000D01*
X13800429Y11896982D01*
X13453018Y11549571D01*
X13444718Y11529532D01*
X13301250Y11673000D01*
X12464500Y11673000D01*
X12464500Y11653000D01*
X12377000Y11653000D01*
X12377000Y11947000D01*
X12464500Y11947000D01*
X12464500Y11927000D01*
X13301250Y11927000D01*
X13460000Y12085750D01*
X13460000Y12540000D01*
X14495763Y12540000D01*
X14588584Y12401084D01*
X14588584Y12401084D01*
G37*
X14588584Y12401084D02*
X14877706Y12207898D01*
X15218750Y12140060D01*
X16131250Y12140060D01*
X16472294Y12207898D01*
X16646611Y12324373D01*
X16777706Y12236778D01*
X16805825Y12231185D01*
X16799622Y12200000D01*
X16815000Y12122688D01*
X16815000Y12122685D01*
X16846863Y11962500D01*
X16860546Y11893709D01*
X16977478Y11718709D01*
X17034047Y11634047D01*
X17099592Y11590251D01*
X18547627Y10142215D01*
X18591421Y10076673D01*
X18656963Y10032879D01*
X18656965Y10032877D01*
X18712226Y9995953D01*
X18851082Y9903172D01*
X19080058Y9857626D01*
X19080062Y9857626D01*
X19157373Y9842248D01*
X19234684Y9857626D01*
X19373575Y9857626D01*
X19336777Y9672626D01*
X19336777Y9072626D01*
X19386060Y8824861D01*
X19444349Y8737626D01*
X19386060Y8650391D01*
X19336777Y8402626D01*
X19336777Y7802626D01*
X19373575Y7617626D01*
X19359938Y7617626D01*
X19282626Y7633004D01*
X19205314Y7617626D01*
X19205310Y7617626D01*
X18976334Y7572080D01*
X18716673Y7398579D01*
X18672877Y7333034D01*
X18399592Y7059749D01*
X18334047Y7015953D01*
X18290251Y6950408D01*
X18211551Y6832625D01*
X18160546Y6756291D01*
X18115000Y6527315D01*
X18115000Y6527312D01*
X18099622Y6450000D01*
X18115000Y6372688D01*
X18115000Y6254408D01*
X17863584Y6086416D01*
X17862793Y6085233D01*
X17709698Y6238327D01*
X17476309Y6335000D01*
X17148250Y6335000D01*
X16989500Y6176250D01*
X16989500Y5127000D01*
X17009500Y5127000D01*
X17009500Y4873000D01*
X16989500Y4873000D01*
X16989500Y3823750D01*
X17148250Y3665000D01*
X17476309Y3665000D01*
X17709698Y3761673D01*
X17862793Y3914767D01*
X17863584Y3913584D01*
X18152706Y3720398D01*
X18493750Y3652560D01*
X18981250Y3652560D01*
X19322294Y3720398D01*
X19611416Y3913584D01*
X19804602Y4202706D01*
X19872440Y4543750D01*
X19872440Y5456250D01*
X19804602Y5797294D01*
X19693983Y5962846D01*
X19736452Y5934469D01*
X19984217Y5885186D01*
X21534217Y5885186D01*
X21781982Y5934469D01*
X21992026Y6074817D01*
X22132374Y6284861D01*
X22148849Y6367690D01*
X22390000Y6367690D01*
X22390000Y5827130D01*
X22548750Y5668380D01*
X23385500Y5668380D01*
X23385500Y6717630D01*
X23226750Y6876380D01*
X22898691Y6876380D01*
X22665302Y6779707D01*
X22486673Y6601079D01*
X22390000Y6367690D01*
X22148849Y6367690D01*
X22181657Y6532626D01*
X22181657Y6989639D01*
X22493750Y6927560D01*
X23406250Y6927560D01*
X23747294Y6995398D01*
X23813688Y7039761D01*
X23850431Y7003018D01*
X24304345Y6815000D01*
X24793753Y6815000D01*
X24513584Y6627796D01*
X24512793Y6626613D01*
X24359698Y6779707D01*
X24126309Y6876380D01*
X23798250Y6876380D01*
X23639500Y6717630D01*
X23639500Y5668380D01*
X23659500Y5668380D01*
X23659500Y5414380D01*
X23639500Y5414380D01*
X23639500Y5394380D01*
X23385500Y5394380D01*
X23385500Y5414380D01*
X22548750Y5414380D01*
X22390000Y5255630D01*
X22390000Y4715070D01*
X22461651Y4542089D01*
X22336217Y4455987D01*
X22336217Y2864626D01*
X22356217Y2864626D01*
X22356217Y2610626D01*
X22336217Y2610626D01*
X22336217Y2590626D01*
X22082217Y2590626D01*
X22082217Y2610626D01*
X22062217Y2610626D01*
X22062217Y2864626D01*
X22082217Y2864626D01*
X22082217Y4455987D01*
X21899473Y4581429D01*
X21873071Y4581024D01*
X21461099Y4365350D01*
X21163021Y4008439D01*
X21024217Y3564626D01*
X21024217Y3487001D01*
X20954424Y3570637D01*
X20456730Y3831442D01*
X20399039Y3841904D01*
X20177000Y3719915D01*
X20177000Y2377000D01*
X20197000Y2377000D01*
X20197000Y2123000D01*
X20177000Y2123000D01*
X20177000Y2103000D01*
X19923000Y2103000D01*
X19923000Y2123000D01*
X18770529Y2123000D01*
X18618066Y1897114D01*
X18731159Y1535000D01*
X18245868Y1535000D01*
X17177982Y2602886D01*
X18618066Y2602886D01*
X18770529Y2377000D01*
X19923000Y2377000D01*
X19923000Y3719915D01*
X19700961Y3841904D01*
X19643270Y3831442D01*
X19145576Y3570637D01*
X18785572Y3139226D01*
X18618066Y2602886D01*
X17177982Y2602886D01*
X16998587Y2782280D01*
X16952001Y2852001D01*
X16675801Y3036552D01*
X16432237Y3085000D01*
X16432233Y3085000D01*
X16350000Y3101357D01*
X16267767Y3085000D01*
X14751565Y3085000D01*
X14484577Y3484577D01*
X14009909Y3801740D01*
X13450000Y3913113D01*
X12912985Y3806294D01*
X12870238Y4021196D01*
X12786271Y4223909D01*
X12764223Y4277138D01*
X12547451Y4601562D01*
X12434763Y4714250D01*
X15740000Y4714250D01*
X15740000Y4173690D01*
X15836673Y3940301D01*
X16015302Y3761673D01*
X16248691Y3665000D01*
X16576750Y3665000D01*
X16735500Y3823750D01*
X16735500Y4873000D01*
X15898750Y4873000D01*
X15740000Y4714250D01*
X12434763Y4714250D01*
X12377000Y4772012D01*
X12377000Y6412843D01*
X12457625Y6332218D01*
X12501421Y6266673D01*
X12761082Y6093172D01*
X12990058Y6047626D01*
X12990062Y6047626D01*
X13067374Y6032248D01*
X13144686Y6047626D01*
X14167102Y6047626D01*
X14336452Y5934469D01*
X14584217Y5885186D01*
X15764387Y5885186D01*
X15740000Y5826310D01*
X15740000Y5285750D01*
X15898750Y5127000D01*
X16735500Y5127000D01*
X16735500Y6176250D01*
X16690122Y6221628D01*
X16732374Y6284861D01*
X16781657Y6532626D01*
X16781657Y7132626D01*
X16732374Y7380391D01*
X16674085Y7467626D01*
X16732374Y7554861D01*
X16781657Y7802626D01*
X16781657Y8402626D01*
X16732374Y8650391D01*
X16679449Y8729598D01*
X16769217Y8946316D01*
X16769217Y9086876D01*
X16610467Y9245626D01*
X15486217Y9245626D01*
X15486217Y9225626D01*
X15232217Y9225626D01*
X15232217Y9245626D01*
X15212217Y9245626D01*
X15212217Y9499626D01*
X15232217Y9499626D01*
X15232217Y9519626D01*
X15486217Y9519626D01*
X15486217Y9499626D01*
X16610467Y9499626D01*
X16769217Y9658376D01*
X16769217Y9798936D01*
X16679449Y10015654D01*
X16732374Y10094861D01*
X16781657Y10342626D01*
X16781657Y10942626D01*
X16732374Y11190391D01*
X16592026Y11400435D01*
X16381982Y11540783D01*
X16134217Y11590066D01*
X15651743Y11590066D01*
X15470420Y11626133D01*
X15199571Y11896982D01*
X14745657Y12085000D01*
X14254343Y12085000D01*
X13800429Y11896982D01*
X13453018Y11549571D01*
X13444718Y11529532D01*
X13301250Y11673000D01*
X12464500Y11673000D01*
X12464500Y11653000D01*
X12377000Y11653000D01*
X12377000Y11947000D01*
X12464500Y11947000D01*
X12464500Y11927000D01*
X13301250Y11927000D01*
X13460000Y12085750D01*
X13460000Y12540000D01*
X14495763Y12540000D01*
X14588584Y12401084D01*
G36*
X27427000Y13430880D02*
X29123000Y13430880D01*
X29123000Y13450880D01*
X29377000Y13450880D01*
X29377000Y13430880D01*
X29397000Y13430880D01*
X29397000Y13176880D01*
X29377000Y13176880D01*
X29377000Y12340130D01*
X29535750Y12181380D01*
X30076310Y12181380D01*
X30309699Y12278053D01*
X30310744Y12279098D01*
X30788625Y11801218D01*
X30556250Y11847440D01*
X30068750Y11847440D01*
X29727706Y11779602D01*
X29438584Y11586416D01*
X29245398Y11297294D01*
X29177560Y10956250D01*
X29177560Y10537717D01*
X28749590Y10109747D01*
X28684048Y10065953D01*
X28640254Y10000411D01*
X28640251Y10000408D01*
X28510546Y9806291D01*
X28449622Y9500000D01*
X28465001Y9422683D01*
X28465000Y4803567D01*
X28291006Y4629572D01*
X28209217Y4645841D01*
X27746854Y4553871D01*
X27354881Y4291963D01*
X27209217Y4073963D01*
X27063554Y4291963D01*
X26671581Y4553871D01*
X26367870Y4614283D01*
X26454602Y4744086D01*
X26522440Y5085130D01*
X26522440Y5997630D01*
X26454602Y6338674D01*
X26261416Y6627796D01*
X25972294Y6820982D01*
X25631250Y6888820D01*
X25143750Y6888820D01*
X24816933Y6823812D01*
X25249573Y7003018D01*
X25596984Y7350429D01*
X25785002Y7804343D01*
X25785002Y8295657D01*
X25611304Y8715000D01*
X25895657Y8715000D01*
X26349571Y8903018D01*
X26696982Y9250429D01*
X26885000Y9704343D01*
X26885000Y10195657D01*
X26696982Y10649571D01*
X26349571Y10996982D01*
X25895657Y11185000D01*
X25404343Y11185000D01*
X24950429Y10996982D01*
X24688447Y10735000D01*
X24087476Y10735000D01*
X24036416Y10811416D01*
X23747294Y11004602D01*
X23406250Y11072440D01*
X22493750Y11072440D01*
X22275600Y11029047D01*
X22546982Y11300429D01*
X22735000Y11754343D01*
X22735000Y11928664D01*
X22832938Y11863223D01*
X23080703Y11813940D01*
X23730703Y11813940D01*
X23868334Y11841316D01*
X23904393Y11826380D01*
X24069953Y11826380D01*
X24228703Y11985130D01*
X24228703Y12063721D01*
X24328860Y12213615D01*
X24355703Y12348565D01*
X24382546Y12213615D01*
X24482703Y12063721D01*
X24482703Y11985130D01*
X24641453Y11826380D01*
X24807013Y11826380D01*
X24843072Y11841316D01*
X24980703Y11813940D01*
X25630703Y11813940D01*
X25878468Y11863223D01*
X26088512Y12003571D01*
X26228860Y12213615D01*
X26241573Y12277526D01*
X26473690Y12181380D01*
X27014250Y12181380D01*
X27173000Y12340130D01*
X27173000Y13176880D01*
X27427000Y13176880D01*
X27427000Y12340130D01*
X27585750Y12181380D01*
X28126310Y12181380D01*
X28275000Y12242969D01*
X28423690Y12181380D01*
X28964250Y12181380D01*
X29123000Y12340130D01*
X29123000Y13176880D01*
X27427000Y13176880D01*
X27173000Y13176880D01*
X27153000Y13176880D01*
X27153000Y13430880D01*
X27173000Y13430880D01*
X27173000Y13450880D01*
X27427000Y13450880D01*
X27427000Y13430880D01*
X27427000Y13430880D01*
G37*
X27427000Y13430880D02*
X29123000Y13430880D01*
X29123000Y13450880D01*
X29377000Y13450880D01*
X29377000Y13430880D01*
X29397000Y13430880D01*
X29397000Y13176880D01*
X29377000Y13176880D01*
X29377000Y12340130D01*
X29535750Y12181380D01*
X30076310Y12181380D01*
X30309699Y12278053D01*
X30310744Y12279098D01*
X30788625Y11801218D01*
X30556250Y11847440D01*
X30068750Y11847440D01*
X29727706Y11779602D01*
X29438584Y11586416D01*
X29245398Y11297294D01*
X29177560Y10956250D01*
X29177560Y10537717D01*
X28749590Y10109747D01*
X28684048Y10065953D01*
X28640254Y10000411D01*
X28640251Y10000408D01*
X28510546Y9806291D01*
X28449622Y9500000D01*
X28465001Y9422683D01*
X28465000Y4803567D01*
X28291006Y4629572D01*
X28209217Y4645841D01*
X27746854Y4553871D01*
X27354881Y4291963D01*
X27209217Y4073963D01*
X27063554Y4291963D01*
X26671581Y4553871D01*
X26367870Y4614283D01*
X26454602Y4744086D01*
X26522440Y5085130D01*
X26522440Y5997630D01*
X26454602Y6338674D01*
X26261416Y6627796D01*
X25972294Y6820982D01*
X25631250Y6888820D01*
X25143750Y6888820D01*
X24816933Y6823812D01*
X25249573Y7003018D01*
X25596984Y7350429D01*
X25785002Y7804343D01*
X25785002Y8295657D01*
X25611304Y8715000D01*
X25895657Y8715000D01*
X26349571Y8903018D01*
X26696982Y9250429D01*
X26885000Y9704343D01*
X26885000Y10195657D01*
X26696982Y10649571D01*
X26349571Y10996982D01*
X25895657Y11185000D01*
X25404343Y11185000D01*
X24950429Y10996982D01*
X24688447Y10735000D01*
X24087476Y10735000D01*
X24036416Y10811416D01*
X23747294Y11004602D01*
X23406250Y11072440D01*
X22493750Y11072440D01*
X22275600Y11029047D01*
X22546982Y11300429D01*
X22735000Y11754343D01*
X22735000Y11928664D01*
X22832938Y11863223D01*
X23080703Y11813940D01*
X23730703Y11813940D01*
X23868334Y11841316D01*
X23904393Y11826380D01*
X24069953Y11826380D01*
X24228703Y11985130D01*
X24228703Y12063721D01*
X24328860Y12213615D01*
X24355703Y12348565D01*
X24382546Y12213615D01*
X24482703Y12063721D01*
X24482703Y11985130D01*
X24641453Y11826380D01*
X24807013Y11826380D01*
X24843072Y11841316D01*
X24980703Y11813940D01*
X25630703Y11813940D01*
X25878468Y11863223D01*
X26088512Y12003571D01*
X26228860Y12213615D01*
X26241573Y12277526D01*
X26473690Y12181380D01*
X27014250Y12181380D01*
X27173000Y12340130D01*
X27173000Y13176880D01*
X27427000Y13176880D01*
X27427000Y12340130D01*
X27585750Y12181380D01*
X28126310Y12181380D01*
X28275000Y12242969D01*
X28423690Y12181380D01*
X28964250Y12181380D01*
X29123000Y12340130D01*
X29123000Y13176880D01*
X27427000Y13176880D01*
X27173000Y13176880D01*
X27153000Y13176880D01*
X27153000Y13430880D01*
X27173000Y13430880D01*
X27173000Y13450880D01*
X27427000Y13450880D01*
X27427000Y13430880D01*
G36*
X37540000Y11783607D02*
X37490740Y11783510D01*
X37401252Y11872998D01*
X37540000Y11872998D01*
X37540000Y11783607D01*
X37540000Y11783607D01*
G37*
X37540000Y11783607D02*
X37490740Y11783510D01*
X37401252Y11872998D01*
X37540000Y11872998D01*
X37540000Y11783607D01*
G36*
X36564500Y12127000D02*
X36584500Y12127000D01*
X36584500Y11873000D01*
X36564500Y11873000D01*
X36564500Y11853000D01*
X36310500Y11853000D01*
X36310500Y11873000D01*
X36290500Y11873000D01*
X36290500Y12127000D01*
X36310500Y12127000D01*
X36310500Y12147000D01*
X36564500Y12147000D01*
X36564500Y12127000D01*
X36564500Y12127000D01*
G37*
X36564500Y12127000D02*
X36584500Y12127000D01*
X36584500Y11873000D01*
X36564500Y11873000D01*
X36564500Y11853000D01*
X36310500Y11853000D01*
X36310500Y11873000D01*
X36290500Y11873000D01*
X36290500Y12127000D01*
X36310500Y12127000D01*
X36310500Y12147000D01*
X36564500Y12147000D01*
X36564500Y12127000D01*
G36*
X37540000Y12127002D02*
X37401252Y12127002D01*
X37540000Y12265750D01*
X37540000Y12127002D01*
X37540000Y12127002D01*
G37*
X37540000Y12127002D02*
X37401252Y12127002D01*
X37540000Y12265750D01*
X37540000Y12127002D01*
G36*
X17115000Y19795657D02*
X17115000Y19304343D01*
X17303018Y18850429D01*
X17650429Y18503018D01*
X17968627Y18371216D01*
X18340253Y17999590D01*
X18384047Y17934047D01*
X18449589Y17890253D01*
X18449591Y17890251D01*
X18511862Y17848643D01*
X18643708Y17760546D01*
X18696271Y17750091D01*
X18698260Y17740091D01*
X19015424Y17265423D01*
X19490092Y16948260D01*
X20050000Y16836887D01*
X20609909Y16948260D01*
X21041042Y17236334D01*
X21092972Y16975263D01*
X21354880Y16583289D01*
X21746853Y16321381D01*
X21847405Y16301380D01*
X21760750Y16301380D01*
X21602000Y16142630D01*
X21602000Y15305880D01*
X21622000Y15305880D01*
X21622000Y15051880D01*
X21602000Y15051880D01*
X21602000Y15031880D01*
X21348000Y15031880D01*
X21348000Y15051880D01*
X19652000Y15051880D01*
X19652000Y15031880D01*
X19398000Y15031880D01*
X19398000Y15051880D01*
X17702000Y15051880D01*
X17702000Y15031880D01*
X17448000Y15031880D01*
X17448000Y15051880D01*
X17428000Y15051880D01*
X17428000Y15305880D01*
X17448000Y15305880D01*
X17448000Y16142630D01*
X17702000Y16142630D01*
X17702000Y15305880D01*
X19398000Y15305880D01*
X19398000Y16142630D01*
X19652000Y16142630D01*
X19652000Y15305880D01*
X21348000Y15305880D01*
X21348000Y16142630D01*
X21189250Y16301380D01*
X20648690Y16301380D01*
X20500000Y16239791D01*
X20351310Y16301380D01*
X19810750Y16301380D01*
X19652000Y16142630D01*
X19398000Y16142630D01*
X19239250Y16301380D01*
X18698690Y16301380D01*
X18550000Y16239791D01*
X18401310Y16301380D01*
X17860750Y16301380D01*
X17702000Y16142630D01*
X17448000Y16142630D01*
X17289250Y16301380D01*
X16748690Y16301380D01*
X16515301Y16204707D01*
X16505505Y16194911D01*
X16472294Y16217102D01*
X16131250Y16284940D01*
X15218750Y16284940D01*
X14877706Y16217102D01*
X14588584Y16023916D01*
X14545877Y15960000D01*
X14289868Y15960000D01*
X14207809Y16082809D01*
X13997765Y16223157D01*
X13750000Y16272440D01*
X12650000Y16272440D01*
X12627287Y16267922D01*
X12764223Y16472862D01*
X12833396Y16639861D01*
X12870238Y16728804D01*
X12920753Y16982760D01*
X13043270Y16918558D01*
X13100961Y16908096D01*
X13323000Y17030085D01*
X13323000Y18373000D01*
X13577000Y18373000D01*
X13577000Y17030085D01*
X13799039Y16908096D01*
X13856730Y16918558D01*
X14354424Y17179363D01*
X14714428Y17610774D01*
X14881934Y18147114D01*
X14729471Y18373000D01*
X13577000Y18373000D01*
X13323000Y18373000D01*
X13303000Y18373000D01*
X13303000Y18627000D01*
X13323000Y18627000D01*
X13323000Y18647000D01*
X13577000Y18647000D01*
X13577000Y18627000D01*
X14729471Y18627000D01*
X14881934Y18852886D01*
X14714428Y19389226D01*
X14354424Y19820637D01*
X13945433Y20034959D01*
X13957631Y20037787D01*
X14013955Y20040000D01*
X17216211Y20040000D01*
X17115000Y19795657D01*
X17115000Y19795657D01*
G37*
X17115000Y19795657D02*
X17115000Y19304343D01*
X17303018Y18850429D01*
X17650429Y18503018D01*
X17968627Y18371216D01*
X18340253Y17999590D01*
X18384047Y17934047D01*
X18449589Y17890253D01*
X18449591Y17890251D01*
X18511862Y17848643D01*
X18643708Y17760546D01*
X18696271Y17750091D01*
X18698260Y17740091D01*
X19015424Y17265423D01*
X19490092Y16948260D01*
X20050000Y16836887D01*
X20609909Y16948260D01*
X21041042Y17236334D01*
X21092972Y16975263D01*
X21354880Y16583289D01*
X21746853Y16321381D01*
X21847405Y16301380D01*
X21760750Y16301380D01*
X21602000Y16142630D01*
X21602000Y15305880D01*
X21622000Y15305880D01*
X21622000Y15051880D01*
X21602000Y15051880D01*
X21602000Y15031880D01*
X21348000Y15031880D01*
X21348000Y15051880D01*
X19652000Y15051880D01*
X19652000Y15031880D01*
X19398000Y15031880D01*
X19398000Y15051880D01*
X17702000Y15051880D01*
X17702000Y15031880D01*
X17448000Y15031880D01*
X17448000Y15051880D01*
X17428000Y15051880D01*
X17428000Y15305880D01*
X17448000Y15305880D01*
X17448000Y16142630D01*
X17702000Y16142630D01*
X17702000Y15305880D01*
X19398000Y15305880D01*
X19398000Y16142630D01*
X19652000Y16142630D01*
X19652000Y15305880D01*
X21348000Y15305880D01*
X21348000Y16142630D01*
X21189250Y16301380D01*
X20648690Y16301380D01*
X20500000Y16239791D01*
X20351310Y16301380D01*
X19810750Y16301380D01*
X19652000Y16142630D01*
X19398000Y16142630D01*
X19239250Y16301380D01*
X18698690Y16301380D01*
X18550000Y16239791D01*
X18401310Y16301380D01*
X17860750Y16301380D01*
X17702000Y16142630D01*
X17448000Y16142630D01*
X17289250Y16301380D01*
X16748690Y16301380D01*
X16515301Y16204707D01*
X16505505Y16194911D01*
X16472294Y16217102D01*
X16131250Y16284940D01*
X15218750Y16284940D01*
X14877706Y16217102D01*
X14588584Y16023916D01*
X14545877Y15960000D01*
X14289868Y15960000D01*
X14207809Y16082809D01*
X13997765Y16223157D01*
X13750000Y16272440D01*
X12650000Y16272440D01*
X12627287Y16267922D01*
X12764223Y16472862D01*
X12833396Y16639861D01*
X12870238Y16728804D01*
X12920753Y16982760D01*
X13043270Y16918558D01*
X13100961Y16908096D01*
X13323000Y17030085D01*
X13323000Y18373000D01*
X13577000Y18373000D01*
X13577000Y17030085D01*
X13799039Y16908096D01*
X13856730Y16918558D01*
X14354424Y17179363D01*
X14714428Y17610774D01*
X14881934Y18147114D01*
X14729471Y18373000D01*
X13577000Y18373000D01*
X13323000Y18373000D01*
X13303000Y18373000D01*
X13303000Y18627000D01*
X13323000Y18627000D01*
X13323000Y18647000D01*
X13577000Y18647000D01*
X13577000Y18627000D01*
X14729471Y18627000D01*
X14881934Y18852886D01*
X14714428Y19389226D01*
X14354424Y19820637D01*
X13945433Y20034959D01*
X13957631Y20037787D01*
X14013955Y20040000D01*
X17216211Y20040000D01*
X17115000Y19795657D01*
G04 #@! TD*
M02*
