G04 #@! TF.GenerationSoftware,KiCad,Pcbnew,5.0.2-bee76a0~70~ubuntu18.04.1*
G04 #@! TF.CreationDate,2019-11-16T10:07:33-05:00*
G04 #@! TF.ProjectId,ESP-AHT10-Extra,4553502d-4148-4543-9130-2d4578747261,1.2*
G04 #@! TF.SameCoordinates,PX7bfa480PY66c2270*
G04 #@! TF.FileFunction,Soldermask,Bot*
G04 #@! TF.FilePolarity,Negative*
%FSLAX46Y46*%
G04 Gerber Fmt 4.6, Leading zero omitted, Abs format (unit mm)*
G04 Created by KiCad (PCBNEW 5.0.2-bee76a0~70~ubuntu18.04.1) date Sat 16 Nov 2019 10:07:33 AM EST*
%MOMM*%
%LPD*%
G01*
G04 APERTURE LIST*
%ADD10C,0.150000*%
%ADD11C,0.050000*%
G04 APERTURE END LIST*
D10*
G04 #@! TO.C,J1*
G36*
X8659217Y4387626D02*
X8659217Y16387626D01*
X59217Y16387626D01*
X59217Y4387626D01*
X8659217Y4387626D01*
G37*
X8659217Y4387626D02*
X8659217Y16387626D01*
X59217Y16387626D01*
X59217Y4387626D01*
X8659217Y4387626D01*
D11*
G36*
X13616821Y3288687D02*
X13616824Y3288686D01*
X13616825Y3288686D01*
X13777239Y3240025D01*
X13777241Y3240024D01*
X13777244Y3240023D01*
X13925078Y3161005D01*
X14054659Y3054659D01*
X14161005Y2925078D01*
X14240023Y2777244D01*
X14240024Y2777241D01*
X14240025Y2777239D01*
X14288686Y2616825D01*
X14288686Y2616822D01*
X14288687Y2616820D01*
X14301000Y2491803D01*
X14301000Y2008196D01*
X14288687Y1883179D01*
X14288686Y1883176D01*
X14288686Y1883175D01*
X14265434Y1806522D01*
X14240023Y1722756D01*
X14161005Y1574922D01*
X14054659Y1445341D01*
X13925078Y1338995D01*
X13777243Y1259977D01*
X13777240Y1259976D01*
X13777238Y1259975D01*
X13616824Y1211314D01*
X13616823Y1211314D01*
X13616820Y1211313D01*
X13450000Y1194883D01*
X13283179Y1211313D01*
X13283176Y1211314D01*
X13283175Y1211314D01*
X13122761Y1259975D01*
X13122759Y1259976D01*
X13122756Y1259977D01*
X12974922Y1338995D01*
X12845341Y1445341D01*
X12738995Y1574922D01*
X12659977Y1722757D01*
X12635905Y1802113D01*
X12611314Y1883176D01*
X12611314Y1883177D01*
X12611313Y1883180D01*
X12599000Y2008197D01*
X12599000Y2491804D01*
X12611313Y2616821D01*
X12659977Y2777244D01*
X12738993Y2925074D01*
X12845344Y3054661D01*
X12974923Y3161005D01*
X13122757Y3240023D01*
X13122760Y3240024D01*
X13122762Y3240025D01*
X13283176Y3288686D01*
X13283177Y3288686D01*
X13283180Y3288687D01*
X13450000Y3305117D01*
X13616821Y3288687D01*
X13616821Y3288687D01*
G37*
G36*
X20216821Y3288687D02*
X20216824Y3288686D01*
X20216825Y3288686D01*
X20377239Y3240025D01*
X20377241Y3240024D01*
X20377244Y3240023D01*
X20525078Y3161005D01*
X20654659Y3054659D01*
X20761005Y2925078D01*
X20840023Y2777244D01*
X20840024Y2777241D01*
X20840025Y2777239D01*
X20888686Y2616825D01*
X20888686Y2616822D01*
X20888687Y2616820D01*
X20901000Y2491803D01*
X20901000Y2008196D01*
X20888687Y1883179D01*
X20888686Y1883176D01*
X20888686Y1883175D01*
X20865434Y1806522D01*
X20840023Y1722756D01*
X20761005Y1574922D01*
X20654659Y1445341D01*
X20525078Y1338995D01*
X20377243Y1259977D01*
X20377240Y1259976D01*
X20377238Y1259975D01*
X20216824Y1211314D01*
X20216823Y1211314D01*
X20216820Y1211313D01*
X20050000Y1194883D01*
X19883179Y1211313D01*
X19883176Y1211314D01*
X19883175Y1211314D01*
X19722761Y1259975D01*
X19722759Y1259976D01*
X19722756Y1259977D01*
X19574922Y1338995D01*
X19445341Y1445341D01*
X19338995Y1574922D01*
X19259977Y1722757D01*
X19235905Y1802113D01*
X19211314Y1883176D01*
X19211314Y1883177D01*
X19211313Y1883180D01*
X19199000Y2008197D01*
X19199000Y2491804D01*
X19211313Y2616821D01*
X19259977Y2777244D01*
X19338993Y2925074D01*
X19445344Y3054661D01*
X19574923Y3161005D01*
X19722757Y3240023D01*
X19722760Y3240024D01*
X19722762Y3240025D01*
X19883176Y3288686D01*
X19883177Y3288686D01*
X19883180Y3288687D01*
X20050000Y3305117D01*
X20216821Y3288687D01*
X20216821Y3288687D01*
G37*
G36*
X28327035Y4029930D02*
X28440322Y3995564D01*
X28544730Y3939757D01*
X28636244Y3864653D01*
X28711348Y3773139D01*
X28767155Y3668731D01*
X28801521Y3555444D01*
X28810217Y3467145D01*
X28810217Y2008107D01*
X28801521Y1919808D01*
X28767155Y1806521D01*
X28715883Y1710599D01*
X28711347Y1702113D01*
X28636244Y1610599D01*
X28598579Y1579689D01*
X28544729Y1535495D01*
X28440321Y1479688D01*
X28327034Y1445322D01*
X28209217Y1433719D01*
X28091399Y1445322D01*
X27978112Y1479688D01*
X27873705Y1535495D01*
X27825662Y1574923D01*
X27782190Y1610599D01*
X27748337Y1651850D01*
X27707086Y1702114D01*
X27651279Y1806522D01*
X27616913Y1919809D01*
X27608217Y2008108D01*
X27608218Y3467145D01*
X27616914Y3555444D01*
X27651280Y3668731D01*
X27707087Y3773139D01*
X27782191Y3864653D01*
X27873705Y3939757D01*
X27978113Y3995564D01*
X28091400Y4029930D01*
X28209217Y4041533D01*
X28327035Y4029930D01*
X28327035Y4029930D01*
G37*
G36*
X30327035Y4029930D02*
X30440322Y3995564D01*
X30544730Y3939757D01*
X30636244Y3864653D01*
X30711348Y3773139D01*
X30767155Y3668731D01*
X30801521Y3555444D01*
X30810217Y3467145D01*
X30810217Y2008107D01*
X30801521Y1919808D01*
X30767155Y1806521D01*
X30715883Y1710599D01*
X30711347Y1702113D01*
X30636244Y1610599D01*
X30598579Y1579689D01*
X30544729Y1535495D01*
X30440321Y1479688D01*
X30327034Y1445322D01*
X30209217Y1433719D01*
X30091399Y1445322D01*
X29978112Y1479688D01*
X29873705Y1535495D01*
X29825662Y1574923D01*
X29782190Y1610599D01*
X29748337Y1651850D01*
X29707086Y1702114D01*
X29651279Y1806522D01*
X29616913Y1919809D01*
X29608217Y2008108D01*
X29608218Y3467145D01*
X29616914Y3555444D01*
X29651280Y3668731D01*
X29707087Y3773139D01*
X29782191Y3864653D01*
X29873705Y3939757D01*
X29978113Y3995564D01*
X30091400Y4029930D01*
X30209217Y4041533D01*
X30327035Y4029930D01*
X30327035Y4029930D01*
G37*
G36*
X26327035Y4029930D02*
X26440322Y3995564D01*
X26544730Y3939757D01*
X26636244Y3864653D01*
X26711348Y3773139D01*
X26767155Y3668731D01*
X26801521Y3555444D01*
X26810217Y3467145D01*
X26810217Y2008107D01*
X26801521Y1919808D01*
X26767155Y1806521D01*
X26715883Y1710599D01*
X26711347Y1702113D01*
X26636244Y1610599D01*
X26598579Y1579689D01*
X26544729Y1535495D01*
X26440321Y1479688D01*
X26327034Y1445322D01*
X26209217Y1433719D01*
X26091399Y1445322D01*
X25978112Y1479688D01*
X25873705Y1535495D01*
X25825662Y1574923D01*
X25782190Y1610599D01*
X25748337Y1651850D01*
X25707086Y1702114D01*
X25651279Y1806522D01*
X25616913Y1919809D01*
X25608217Y2008108D01*
X25608218Y3467145D01*
X25616914Y3555444D01*
X25651280Y3668731D01*
X25707087Y3773139D01*
X25782191Y3864653D01*
X25873705Y3939757D01*
X25978113Y3995564D01*
X26091400Y4029930D01*
X26209217Y4041533D01*
X26327035Y4029930D01*
X26327035Y4029930D01*
G37*
G36*
X22327035Y4029930D02*
X22440322Y3995564D01*
X22544730Y3939757D01*
X22636244Y3864653D01*
X22711348Y3773139D01*
X22767155Y3668731D01*
X22801521Y3555444D01*
X22810217Y3467145D01*
X22810217Y2008107D01*
X22801521Y1919808D01*
X22767155Y1806521D01*
X22715883Y1710599D01*
X22711347Y1702113D01*
X22636244Y1610599D01*
X22598579Y1579689D01*
X22544729Y1535495D01*
X22440321Y1479688D01*
X22327034Y1445322D01*
X22209217Y1433719D01*
X22091399Y1445322D01*
X21978112Y1479688D01*
X21873705Y1535495D01*
X21825662Y1574923D01*
X21782190Y1610599D01*
X21748337Y1651850D01*
X21707086Y1702114D01*
X21651279Y1806522D01*
X21616913Y1919809D01*
X21608217Y2008108D01*
X21608218Y3467145D01*
X21616914Y3555444D01*
X21651280Y3668731D01*
X21707087Y3773139D01*
X21782191Y3864653D01*
X21873705Y3939757D01*
X21978113Y3995564D01*
X22091400Y4029930D01*
X22209217Y4041533D01*
X22327035Y4029930D01*
X22327035Y4029930D01*
G37*
G36*
X36327035Y4029930D02*
X36440322Y3995564D01*
X36544730Y3939757D01*
X36636244Y3864653D01*
X36711348Y3773139D01*
X36767155Y3668731D01*
X36801521Y3555444D01*
X36810217Y3467145D01*
X36810217Y2008107D01*
X36801521Y1919808D01*
X36767155Y1806521D01*
X36715883Y1710599D01*
X36711347Y1702113D01*
X36636244Y1610599D01*
X36598579Y1579689D01*
X36544729Y1535495D01*
X36440321Y1479688D01*
X36327034Y1445322D01*
X36209217Y1433719D01*
X36091399Y1445322D01*
X35978112Y1479688D01*
X35873705Y1535495D01*
X35825662Y1574923D01*
X35782190Y1610599D01*
X35748337Y1651850D01*
X35707086Y1702114D01*
X35651279Y1806522D01*
X35616913Y1919809D01*
X35608217Y2008108D01*
X35608218Y3467145D01*
X35616914Y3555444D01*
X35651280Y3668731D01*
X35707087Y3773139D01*
X35782191Y3864653D01*
X35873705Y3939757D01*
X35978113Y3995564D01*
X36091400Y4029930D01*
X36209217Y4041533D01*
X36327035Y4029930D01*
X36327035Y4029930D01*
G37*
G36*
X34327035Y4029930D02*
X34440322Y3995564D01*
X34544730Y3939757D01*
X34636244Y3864653D01*
X34711348Y3773139D01*
X34767155Y3668731D01*
X34801521Y3555444D01*
X34810217Y3467145D01*
X34810217Y2008107D01*
X34801521Y1919808D01*
X34767155Y1806521D01*
X34715883Y1710599D01*
X34711347Y1702113D01*
X34636244Y1610599D01*
X34598579Y1579689D01*
X34544729Y1535495D01*
X34440321Y1479688D01*
X34327034Y1445322D01*
X34209217Y1433719D01*
X34091399Y1445322D01*
X33978112Y1479688D01*
X33873705Y1535495D01*
X33825662Y1574923D01*
X33782190Y1610599D01*
X33748337Y1651850D01*
X33707086Y1702114D01*
X33651279Y1806522D01*
X33616913Y1919809D01*
X33608217Y2008108D01*
X33608218Y3467145D01*
X33616914Y3555444D01*
X33651280Y3668731D01*
X33707087Y3773139D01*
X33782191Y3864653D01*
X33873705Y3939757D01*
X33978113Y3995564D01*
X34091400Y4029930D01*
X34209217Y4041533D01*
X34327035Y4029930D01*
X34327035Y4029930D01*
G37*
G36*
X32327035Y4029930D02*
X32440322Y3995564D01*
X32544730Y3939757D01*
X32636244Y3864653D01*
X32711348Y3773139D01*
X32767155Y3668731D01*
X32801521Y3555444D01*
X32810217Y3467145D01*
X32810217Y2008107D01*
X32801521Y1919808D01*
X32767155Y1806521D01*
X32715883Y1710599D01*
X32711347Y1702113D01*
X32636244Y1610599D01*
X32598579Y1579689D01*
X32544729Y1535495D01*
X32440321Y1479688D01*
X32327034Y1445322D01*
X32209217Y1433719D01*
X32091399Y1445322D01*
X31978112Y1479688D01*
X31873705Y1535495D01*
X31825662Y1574923D01*
X31782190Y1610599D01*
X31748337Y1651850D01*
X31707086Y1702114D01*
X31651279Y1806522D01*
X31616913Y1919809D01*
X31608217Y2008108D01*
X31608218Y3467145D01*
X31616914Y3555444D01*
X31651280Y3668731D01*
X31707087Y3773139D01*
X31782191Y3864653D01*
X31873705Y3939757D01*
X31978113Y3995564D01*
X32091400Y4029930D01*
X32209217Y4041533D01*
X32327035Y4029930D01*
X32327035Y4029930D01*
G37*
G36*
X24327035Y4129930D02*
X24440322Y4095564D01*
X24544730Y4039757D01*
X24636244Y3964653D01*
X24711348Y3873139D01*
X24767155Y3768731D01*
X24801521Y3655444D01*
X24810217Y3567145D01*
X24810217Y2108107D01*
X24801521Y2019808D01*
X24767155Y1906521D01*
X24711348Y1802114D01*
X24711347Y1802113D01*
X24636244Y1710599D01*
X24594993Y1676746D01*
X24544729Y1635495D01*
X24440321Y1579688D01*
X24327034Y1545322D01*
X24209217Y1533719D01*
X24091399Y1545322D01*
X23978112Y1579688D01*
X23873705Y1635495D01*
X23859789Y1646915D01*
X23782190Y1710599D01*
X23748337Y1751850D01*
X23707086Y1802114D01*
X23651279Y1906522D01*
X23616913Y2019809D01*
X23608217Y2108108D01*
X23608218Y3567145D01*
X23616914Y3655444D01*
X23651280Y3768731D01*
X23707087Y3873139D01*
X23782191Y3964653D01*
X23873705Y4039757D01*
X23978113Y4095564D01*
X24091400Y4129930D01*
X24209217Y4141533D01*
X24327035Y4129930D01*
X24327035Y4129930D01*
G37*
G36*
X17351000Y4324000D02*
X16249000Y4324000D01*
X16249000Y5676000D01*
X17351000Y5676000D01*
X17351000Y4324000D01*
X17351000Y4324000D01*
G37*
G36*
X19351000Y4324000D02*
X18249000Y4324000D01*
X18249000Y5676000D01*
X19351000Y5676000D01*
X19351000Y4324000D01*
X19351000Y4324000D01*
G37*
G36*
X25801000Y4840380D02*
X24999000Y4840380D01*
X24999000Y6242380D01*
X25801000Y6242380D01*
X25801000Y4840380D01*
X25801000Y4840380D01*
G37*
G36*
X23901000Y4840380D02*
X23099000Y4840380D01*
X23099000Y6242380D01*
X23901000Y6242380D01*
X23901000Y4840380D01*
X23901000Y4840380D01*
G37*
G36*
X8657545Y7569617D02*
X8739603Y7544725D01*
X8815222Y7504305D01*
X8881502Y7449911D01*
X8935896Y7383631D01*
X8976316Y7308012D01*
X9001208Y7225954D01*
X9010217Y7134486D01*
X9010217Y6020766D01*
X9001208Y5929298D01*
X8976316Y5847240D01*
X8935896Y5771621D01*
X8881502Y5705341D01*
X8815222Y5650947D01*
X8739603Y5610527D01*
X8657545Y5585635D01*
X8566077Y5576626D01*
X1352357Y5576626D01*
X1260889Y5585635D01*
X1178831Y5610527D01*
X1103212Y5650947D01*
X1036932Y5705341D01*
X982538Y5771621D01*
X942118Y5847240D01*
X917226Y5929298D01*
X908217Y6020766D01*
X908217Y7134486D01*
X917226Y7225954D01*
X942118Y7308012D01*
X982538Y7383631D01*
X1036932Y7449911D01*
X1103212Y7504305D01*
X1178831Y7544725D01*
X1260889Y7569617D01*
X1352357Y7578626D01*
X8566077Y7578626D01*
X8657545Y7569617D01*
X8657545Y7569617D01*
G37*
G36*
X32601000Y5840380D02*
X31799000Y5840380D01*
X31799000Y7242380D01*
X32601000Y7242380D01*
X32601000Y5840380D01*
X32601000Y5840380D01*
G37*
G36*
X30701000Y5840380D02*
X29899000Y5840380D01*
X29899000Y7242380D01*
X30701000Y7242380D01*
X30701000Y5840380D01*
X30701000Y5840380D01*
G37*
G36*
X37199412Y7736940D02*
X37270283Y7715441D01*
X37335611Y7680523D01*
X37392862Y7633539D01*
X37439849Y7576284D01*
X37474763Y7510965D01*
X37496263Y7440090D01*
X37501703Y7384852D01*
X37501703Y6497908D01*
X37496263Y6442670D01*
X37474763Y6371795D01*
X37439849Y6306476D01*
X37392862Y6249221D01*
X37335607Y6202234D01*
X37270288Y6167320D01*
X37199413Y6145820D01*
X37125703Y6138561D01*
X37051994Y6145820D01*
X36981119Y6167320D01*
X36915800Y6202234D01*
X36858545Y6249221D01*
X36811558Y6306476D01*
X36776644Y6371795D01*
X36755144Y6442670D01*
X36749704Y6497908D01*
X36749703Y7384851D01*
X36755143Y7440089D01*
X36776642Y7510960D01*
X36811560Y7576288D01*
X36858544Y7633539D01*
X36915799Y7680526D01*
X36981118Y7715440D01*
X37051993Y7736940D01*
X37125703Y7744199D01*
X37199412Y7736940D01*
X37199412Y7736940D01*
G37*
G36*
X36231703Y6140380D02*
X35479703Y6140380D01*
X35479703Y7742380D01*
X36231703Y7742380D01*
X36231703Y6140380D01*
X36231703Y6140380D01*
G37*
G36*
X34961703Y6140380D02*
X34209703Y6140380D01*
X34209703Y7742380D01*
X34961703Y7742380D01*
X34961703Y6140380D01*
X34961703Y6140380D01*
G37*
G36*
X16185217Y6481626D02*
X14533217Y6481626D01*
X14533217Y7183626D01*
X16185217Y7183626D01*
X16185217Y6481626D01*
X16185217Y6481626D01*
G37*
G36*
X21585217Y6481626D02*
X19933217Y6481626D01*
X19933217Y7183626D01*
X21585217Y7183626D01*
X21585217Y6481626D01*
X21585217Y6481626D01*
G37*
G36*
X23651000Y7649000D02*
X22249000Y7649000D01*
X22249000Y8451000D01*
X23651000Y8451000D01*
X23651000Y7649000D01*
X23651000Y7649000D01*
G37*
G36*
X13031000Y7699000D02*
X11869000Y7699000D01*
X11869000Y10351000D01*
X13031000Y10351000D01*
X13031000Y7699000D01*
X13031000Y7699000D01*
G37*
G36*
X10831000Y7699000D02*
X9669000Y7699000D01*
X9669000Y10351000D01*
X10831000Y10351000D01*
X10831000Y7699000D01*
X10831000Y7699000D01*
G37*
G36*
X21585217Y7751626D02*
X19933217Y7751626D01*
X19933217Y8453626D01*
X21585217Y8453626D01*
X21585217Y7751626D01*
X21585217Y7751626D01*
G37*
G36*
X16185217Y7751626D02*
X14533217Y7751626D01*
X14533217Y8453626D01*
X16185217Y8453626D01*
X16185217Y7751626D01*
X16185217Y7751626D01*
G37*
G36*
X32601000Y7840380D02*
X31799000Y7840380D01*
X31799000Y9242380D01*
X32601000Y9242380D01*
X32601000Y7840380D01*
X32601000Y7840380D01*
G37*
G36*
X30701000Y7840380D02*
X29899000Y7840380D01*
X29899000Y9242380D01*
X30701000Y9242380D01*
X30701000Y7840380D01*
X30701000Y7840380D01*
G37*
G36*
X8738039Y9931539D02*
X8801331Y9912339D01*
X8859665Y9881159D01*
X8910791Y9839200D01*
X8952750Y9788074D01*
X8983930Y9729740D01*
X9003130Y9666448D01*
X9010217Y9594487D01*
X9010217Y8680765D01*
X9003130Y8608804D01*
X8983930Y8545512D01*
X8952750Y8487178D01*
X8910791Y8436052D01*
X8859665Y8394093D01*
X8801331Y8362913D01*
X8738039Y8343713D01*
X8666078Y8336626D01*
X1752356Y8336626D01*
X1680395Y8343713D01*
X1617103Y8362913D01*
X1558769Y8394093D01*
X1507643Y8436052D01*
X1465684Y8487178D01*
X1434504Y8545512D01*
X1415304Y8608804D01*
X1408217Y8680765D01*
X1408217Y9594487D01*
X1415304Y9666448D01*
X1434504Y9729740D01*
X1465684Y9788074D01*
X1507643Y9839200D01*
X1558769Y9881159D01*
X1617103Y9912339D01*
X1680395Y9931539D01*
X1752356Y9938626D01*
X8666078Y9938626D01*
X8738039Y9931539D01*
X8738039Y9931539D01*
G37*
G36*
X21585217Y9021626D02*
X19933217Y9021626D01*
X19933217Y9723626D01*
X21585217Y9723626D01*
X21585217Y9021626D01*
X21585217Y9021626D01*
G37*
G36*
X16185217Y9021626D02*
X14533217Y9021626D01*
X14533217Y9723626D01*
X16185217Y9723626D01*
X16185217Y9021626D01*
X16185217Y9021626D01*
G37*
G36*
X34961703Y9340380D02*
X34209703Y9340380D01*
X34209703Y10942380D01*
X34961703Y10942380D01*
X34961703Y9340380D01*
X34961703Y9340380D01*
G37*
G36*
X36231703Y9340380D02*
X35479703Y9340380D01*
X35479703Y10942380D01*
X36231703Y10942380D01*
X36231703Y9340380D01*
X36231703Y9340380D01*
G37*
G36*
X37501703Y9340380D02*
X36749703Y9340380D01*
X36749703Y10942380D01*
X37501703Y10942380D01*
X37501703Y9340380D01*
X37501703Y9340380D01*
G37*
G36*
X23651000Y9549000D02*
X22249000Y9549000D01*
X22249000Y10351000D01*
X23651000Y10351000D01*
X23651000Y9549000D01*
X23651000Y9549000D01*
G37*
G36*
X30701000Y9799000D02*
X29899000Y9799000D01*
X29899000Y11201000D01*
X30701000Y11201000D01*
X30701000Y9799000D01*
X30701000Y9799000D01*
G37*
G36*
X32601000Y9799000D02*
X31799000Y9799000D01*
X31799000Y11201000D01*
X32601000Y11201000D01*
X32601000Y9799000D01*
X32601000Y9799000D01*
G37*
G36*
X16185217Y10291626D02*
X14533217Y10291626D01*
X14533217Y10993626D01*
X16185217Y10993626D01*
X16185217Y10291626D01*
X16185217Y10291626D01*
G37*
G36*
X21585217Y10291626D02*
X19933217Y10291626D01*
X19933217Y10993626D01*
X21585217Y10993626D01*
X21585217Y10291626D01*
X21585217Y10291626D01*
G37*
G36*
X8738039Y12431539D02*
X8801331Y12412339D01*
X8859665Y12381159D01*
X8910791Y12339200D01*
X8952750Y12288074D01*
X8983930Y12229740D01*
X9003130Y12166448D01*
X9010217Y12094487D01*
X9010217Y11180765D01*
X9003130Y11108804D01*
X8983930Y11045512D01*
X8952750Y10987178D01*
X8910791Y10936052D01*
X8859665Y10894093D01*
X8801331Y10862913D01*
X8738039Y10843713D01*
X8666078Y10836626D01*
X1752356Y10836626D01*
X1680395Y10843713D01*
X1617103Y10862913D01*
X1558769Y10894093D01*
X1507643Y10936052D01*
X1465684Y10987178D01*
X1434504Y11045512D01*
X1415304Y11108804D01*
X1408217Y11180765D01*
X1408217Y12094487D01*
X1415304Y12166448D01*
X1434504Y12229740D01*
X1465684Y12288074D01*
X1507643Y12339200D01*
X1558769Y12381159D01*
X1617103Y12412339D01*
X1680395Y12431539D01*
X1752356Y12438626D01*
X8666078Y12438626D01*
X8738039Y12431539D01*
X8738039Y12431539D01*
G37*
G36*
X10951000Y11124000D02*
X9849000Y11124000D01*
X9849000Y12476000D01*
X10951000Y12476000D01*
X10951000Y11124000D01*
X10951000Y11124000D01*
G37*
G36*
X12951000Y11124000D02*
X11849000Y11124000D01*
X11849000Y12476000D01*
X12951000Y12476000D01*
X12951000Y11124000D01*
X12951000Y11124000D01*
G37*
G36*
X35051000Y11324000D02*
X33949000Y11324000D01*
X33949000Y12676000D01*
X35051000Y12676000D01*
X35051000Y11324000D01*
X35051000Y11324000D01*
G37*
G36*
X37051000Y11324000D02*
X35949000Y11324000D01*
X35949000Y12676000D01*
X37051000Y12676000D01*
X37051000Y11324000D01*
X37051000Y11324000D01*
G37*
G36*
X25681703Y12410380D02*
X23029703Y12410380D01*
X23029703Y13572380D01*
X25681703Y13572380D01*
X25681703Y12410380D01*
X25681703Y12410380D01*
G37*
G36*
X27976000Y12690380D02*
X26624000Y12690380D01*
X26624000Y13792380D01*
X27976000Y13792380D01*
X27976000Y12690380D01*
X27976000Y12690380D01*
G37*
G36*
X29926000Y12690380D02*
X28574000Y12690380D01*
X28574000Y13792380D01*
X29926000Y13792380D01*
X29926000Y12690380D01*
X29926000Y12690380D01*
G37*
G36*
X22151000Y12690380D02*
X20799000Y12690380D01*
X20799000Y13792380D01*
X22151000Y13792380D01*
X22151000Y12690380D01*
X22151000Y12690380D01*
G37*
G36*
X18251000Y12690380D02*
X16899000Y12690380D01*
X16899000Y13792380D01*
X18251000Y13792380D01*
X18251000Y12690380D01*
X18251000Y12690380D01*
G37*
G36*
X20201000Y12690380D02*
X18849000Y12690380D01*
X18849000Y13792380D01*
X20201000Y13792380D01*
X20201000Y12690380D01*
X20201000Y12690380D01*
G37*
G36*
X16259466Y13808935D02*
X16298137Y13797204D01*
X16333779Y13778152D01*
X16365017Y13752517D01*
X16390652Y13721279D01*
X16409704Y13685637D01*
X16421435Y13646966D01*
X16426000Y13600612D01*
X16426000Y12949388D01*
X16421435Y12903034D01*
X16409704Y12864363D01*
X16390652Y12828721D01*
X16365017Y12797483D01*
X16333779Y12771848D01*
X16298137Y12752796D01*
X16259466Y12741065D01*
X16213112Y12736500D01*
X15136888Y12736500D01*
X15090534Y12741065D01*
X15051863Y12752796D01*
X15016221Y12771848D01*
X14984983Y12797483D01*
X14959348Y12828721D01*
X14940296Y12864363D01*
X14928565Y12903034D01*
X14924000Y12949388D01*
X14924000Y13600612D01*
X14928565Y13646966D01*
X14940296Y13685637D01*
X14959348Y13721279D01*
X14984983Y13752517D01*
X15016221Y13778152D01*
X15051863Y13797204D01*
X15090534Y13808935D01*
X15136888Y13813500D01*
X16213112Y13813500D01*
X16259466Y13808935D01*
X16259466Y13808935D01*
G37*
G36*
X37056703Y13090380D02*
X35654703Y13090380D01*
X35654703Y13892380D01*
X37056703Y13892380D01*
X37056703Y13090380D01*
X37056703Y13090380D01*
G37*
G36*
X33056703Y13090380D02*
X31654703Y13090380D01*
X31654703Y13892380D01*
X33056703Y13892380D01*
X33056703Y13090380D01*
X33056703Y13090380D01*
G37*
G36*
X35056703Y13090380D02*
X33654703Y13090380D01*
X33654703Y13892380D01*
X35056703Y13892380D01*
X35056703Y13090380D01*
X35056703Y13090380D01*
G37*
G36*
X8657545Y15189617D02*
X8739603Y15164725D01*
X8815222Y15124305D01*
X8881502Y15069911D01*
X8935896Y15003631D01*
X8976316Y14928012D01*
X9001208Y14845954D01*
X9010217Y14754486D01*
X9010217Y13640766D01*
X9001208Y13549298D01*
X8976316Y13467240D01*
X8935896Y13391621D01*
X8881502Y13325341D01*
X8815222Y13270947D01*
X8739603Y13230527D01*
X8657545Y13205635D01*
X8566077Y13196626D01*
X1352357Y13196626D01*
X1260889Y13205635D01*
X1178831Y13230527D01*
X1103212Y13270947D01*
X1036932Y13325341D01*
X982538Y13391621D01*
X942118Y13467240D01*
X917226Y13549298D01*
X908217Y13640766D01*
X908217Y14754486D01*
X917226Y14845954D01*
X942118Y14928012D01*
X982538Y15003631D01*
X1036932Y15069911D01*
X1103212Y15124305D01*
X1178831Y15164725D01*
X1260889Y15189617D01*
X1352357Y15198626D01*
X8566077Y15198626D01*
X8657545Y15189617D01*
X8657545Y15189617D01*
G37*
G36*
X11001000Y14474000D02*
X9799000Y14474000D01*
X9799000Y15676000D01*
X11001000Y15676000D01*
X11001000Y14474000D01*
X11001000Y14474000D01*
G37*
G36*
X13801000Y14474000D02*
X12599000Y14474000D01*
X12599000Y15676000D01*
X13801000Y15676000D01*
X13801000Y14474000D01*
X13801000Y14474000D01*
G37*
G36*
X25681703Y14610380D02*
X24929703Y14610380D01*
X24929703Y15772380D01*
X25681703Y15772380D01*
X25681703Y14610380D01*
X25681703Y14610380D01*
G37*
G36*
X23781703Y14610380D02*
X23029703Y14610380D01*
X23029703Y15772380D01*
X23781703Y15772380D01*
X23781703Y14610380D01*
X23781703Y14610380D01*
G37*
G36*
X16259466Y15683935D02*
X16298137Y15672204D01*
X16333779Y15653152D01*
X16365017Y15627517D01*
X16390652Y15596279D01*
X16409704Y15560637D01*
X16421435Y15521966D01*
X16426000Y15475612D01*
X16426000Y14824388D01*
X16421435Y14778034D01*
X16409704Y14739363D01*
X16390652Y14703721D01*
X16365017Y14672483D01*
X16333779Y14646848D01*
X16298137Y14627796D01*
X16259466Y14616065D01*
X16213112Y14611500D01*
X15136888Y14611500D01*
X15090534Y14616065D01*
X15051863Y14627796D01*
X15016221Y14646848D01*
X14984983Y14672483D01*
X14959348Y14703721D01*
X14940296Y14739363D01*
X14928565Y14778034D01*
X14924000Y14824388D01*
X14924000Y15475612D01*
X14928565Y15521966D01*
X14940296Y15560637D01*
X14959348Y15596279D01*
X14984983Y15627517D01*
X15016221Y15653152D01*
X15051863Y15672204D01*
X15090534Y15683935D01*
X15136888Y15688500D01*
X16213112Y15688500D01*
X16259466Y15683935D01*
X16259466Y15683935D01*
G37*
G36*
X29926000Y14690380D02*
X28574000Y14690380D01*
X28574000Y15792380D01*
X29926000Y15792380D01*
X29926000Y14690380D01*
X29926000Y14690380D01*
G37*
G36*
X27976000Y14690380D02*
X26624000Y14690380D01*
X26624000Y15792380D01*
X27976000Y15792380D01*
X27976000Y14690380D01*
X27976000Y14690380D01*
G37*
G36*
X22151000Y14690380D02*
X20799000Y14690380D01*
X20799000Y15792380D01*
X22151000Y15792380D01*
X22151000Y14690380D01*
X22151000Y14690380D01*
G37*
G36*
X20201000Y14690380D02*
X18849000Y14690380D01*
X18849000Y15792380D01*
X20201000Y15792380D01*
X20201000Y14690380D01*
X20201000Y14690380D01*
G37*
G36*
X18251000Y14690380D02*
X16899000Y14690380D01*
X16899000Y15792380D01*
X18251000Y15792380D01*
X18251000Y14690380D01*
X18251000Y14690380D01*
G37*
G36*
X37056703Y14990380D02*
X35654703Y14990380D01*
X35654703Y15792380D01*
X37056703Y15792380D01*
X37056703Y14990380D01*
X37056703Y14990380D01*
G37*
G36*
X35056703Y14990380D02*
X33654703Y14990380D01*
X33654703Y15792380D01*
X35056703Y15792380D01*
X35056703Y14990380D01*
X35056703Y14990380D01*
G37*
G36*
X33056703Y14990380D02*
X31654703Y14990380D01*
X31654703Y15792380D01*
X33056703Y15792380D01*
X33056703Y14990380D01*
X33056703Y14990380D01*
G37*
G36*
X22327035Y19429930D02*
X22440322Y19395564D01*
X22544730Y19339757D01*
X22636244Y19264653D01*
X22711348Y19173139D01*
X22767155Y19068731D01*
X22801521Y18955444D01*
X22810217Y18867145D01*
X22810217Y17408107D01*
X22801521Y17319808D01*
X22767155Y17206521D01*
X22711348Y17102114D01*
X22711347Y17102113D01*
X22636244Y17010599D01*
X22594993Y16976746D01*
X22544729Y16935495D01*
X22440321Y16879688D01*
X22327034Y16845322D01*
X22209217Y16833719D01*
X22091399Y16845322D01*
X21978112Y16879688D01*
X21873705Y16935495D01*
X21859789Y16946915D01*
X21782190Y17010599D01*
X21748337Y17051850D01*
X21707086Y17102114D01*
X21651279Y17206522D01*
X21616913Y17319809D01*
X21608217Y17408108D01*
X21608218Y18867145D01*
X21616914Y18955444D01*
X21651280Y19068731D01*
X21707087Y19173139D01*
X21782191Y19264653D01*
X21873705Y19339757D01*
X21978113Y19395564D01*
X22091400Y19429930D01*
X22209217Y19441533D01*
X22327035Y19429930D01*
X22327035Y19429930D01*
G37*
G36*
X24327035Y19429930D02*
X24440322Y19395564D01*
X24544730Y19339757D01*
X24636244Y19264653D01*
X24711348Y19173139D01*
X24767155Y19068731D01*
X24801521Y18955444D01*
X24810217Y18867145D01*
X24810217Y17408107D01*
X24801521Y17319808D01*
X24767155Y17206521D01*
X24711348Y17102114D01*
X24711347Y17102113D01*
X24636244Y17010599D01*
X24594993Y16976746D01*
X24544729Y16935495D01*
X24440321Y16879688D01*
X24327034Y16845322D01*
X24209217Y16833719D01*
X24091399Y16845322D01*
X23978112Y16879688D01*
X23873705Y16935495D01*
X23859789Y16946915D01*
X23782190Y17010599D01*
X23748337Y17051850D01*
X23707086Y17102114D01*
X23651279Y17206522D01*
X23616913Y17319809D01*
X23608217Y17408108D01*
X23608218Y18867145D01*
X23616914Y18955444D01*
X23651280Y19068731D01*
X23707087Y19173139D01*
X23782191Y19264653D01*
X23873705Y19339757D01*
X23978113Y19395564D01*
X24091400Y19429930D01*
X24209217Y19441533D01*
X24327035Y19429930D01*
X24327035Y19429930D01*
G37*
G36*
X26327035Y19429930D02*
X26440322Y19395564D01*
X26544730Y19339757D01*
X26636244Y19264653D01*
X26711348Y19173139D01*
X26767155Y19068731D01*
X26801521Y18955444D01*
X26810217Y18867145D01*
X26810217Y17408107D01*
X26801521Y17319808D01*
X26767155Y17206521D01*
X26711348Y17102114D01*
X26711347Y17102113D01*
X26636244Y17010599D01*
X26594993Y16976746D01*
X26544729Y16935495D01*
X26440321Y16879688D01*
X26327034Y16845322D01*
X26209217Y16833719D01*
X26091399Y16845322D01*
X25978112Y16879688D01*
X25873705Y16935495D01*
X25859789Y16946915D01*
X25782190Y17010599D01*
X25748337Y17051850D01*
X25707086Y17102114D01*
X25651279Y17206522D01*
X25616913Y17319809D01*
X25608217Y17408108D01*
X25608218Y18867145D01*
X25616914Y18955444D01*
X25651280Y19068731D01*
X25707087Y19173139D01*
X25782191Y19264653D01*
X25873705Y19339757D01*
X25978113Y19395564D01*
X26091400Y19429930D01*
X26209217Y19441533D01*
X26327035Y19429930D01*
X26327035Y19429930D01*
G37*
G36*
X28327035Y19429930D02*
X28440322Y19395564D01*
X28544730Y19339757D01*
X28636244Y19264653D01*
X28711348Y19173139D01*
X28767155Y19068731D01*
X28801521Y18955444D01*
X28810217Y18867145D01*
X28810217Y17408107D01*
X28801521Y17319808D01*
X28767155Y17206521D01*
X28711348Y17102114D01*
X28711347Y17102113D01*
X28636244Y17010599D01*
X28594993Y16976746D01*
X28544729Y16935495D01*
X28440321Y16879688D01*
X28327034Y16845322D01*
X28209217Y16833719D01*
X28091399Y16845322D01*
X27978112Y16879688D01*
X27873705Y16935495D01*
X27859789Y16946915D01*
X27782190Y17010599D01*
X27748337Y17051850D01*
X27707086Y17102114D01*
X27651279Y17206522D01*
X27616913Y17319809D01*
X27608217Y17408108D01*
X27608218Y18867145D01*
X27616914Y18955444D01*
X27651280Y19068731D01*
X27707087Y19173139D01*
X27782191Y19264653D01*
X27873705Y19339757D01*
X27978113Y19395564D01*
X28091400Y19429930D01*
X28209217Y19441533D01*
X28327035Y19429930D01*
X28327035Y19429930D01*
G37*
G36*
X30327035Y19429930D02*
X30440322Y19395564D01*
X30544730Y19339757D01*
X30636244Y19264653D01*
X30711348Y19173139D01*
X30767155Y19068731D01*
X30801521Y18955444D01*
X30810217Y18867145D01*
X30810217Y17408107D01*
X30801521Y17319808D01*
X30767155Y17206521D01*
X30711348Y17102114D01*
X30711347Y17102113D01*
X30636244Y17010599D01*
X30594993Y16976746D01*
X30544729Y16935495D01*
X30440321Y16879688D01*
X30327034Y16845322D01*
X30209217Y16833719D01*
X30091399Y16845322D01*
X29978112Y16879688D01*
X29873705Y16935495D01*
X29859789Y16946915D01*
X29782190Y17010599D01*
X29748337Y17051850D01*
X29707086Y17102114D01*
X29651279Y17206522D01*
X29616913Y17319809D01*
X29608217Y17408108D01*
X29608218Y18867145D01*
X29616914Y18955444D01*
X29651280Y19068731D01*
X29707087Y19173139D01*
X29782191Y19264653D01*
X29873705Y19339757D01*
X29978113Y19395564D01*
X30091400Y19429930D01*
X30209217Y19441533D01*
X30327035Y19429930D01*
X30327035Y19429930D01*
G37*
G36*
X32327035Y19429930D02*
X32440322Y19395564D01*
X32544730Y19339757D01*
X32636244Y19264653D01*
X32711348Y19173139D01*
X32767155Y19068731D01*
X32801521Y18955444D01*
X32810217Y18867145D01*
X32810217Y17408107D01*
X32801521Y17319808D01*
X32767155Y17206521D01*
X32711348Y17102114D01*
X32711347Y17102113D01*
X32636244Y17010599D01*
X32594993Y16976746D01*
X32544729Y16935495D01*
X32440321Y16879688D01*
X32327034Y16845322D01*
X32209217Y16833719D01*
X32091399Y16845322D01*
X31978112Y16879688D01*
X31873705Y16935495D01*
X31859789Y16946915D01*
X31782190Y17010599D01*
X31748337Y17051850D01*
X31707086Y17102114D01*
X31651279Y17206522D01*
X31616913Y17319809D01*
X31608217Y17408108D01*
X31608218Y18867145D01*
X31616914Y18955444D01*
X31651280Y19068731D01*
X31707087Y19173139D01*
X31782191Y19264653D01*
X31873705Y19339757D01*
X31978113Y19395564D01*
X32091400Y19429930D01*
X32209217Y19441533D01*
X32327035Y19429930D01*
X32327035Y19429930D01*
G37*
G36*
X34327035Y19429930D02*
X34440322Y19395564D01*
X34544730Y19339757D01*
X34636244Y19264653D01*
X34711348Y19173139D01*
X34767155Y19068731D01*
X34801521Y18955444D01*
X34810217Y18867145D01*
X34810217Y17408107D01*
X34801521Y17319808D01*
X34767155Y17206521D01*
X34711348Y17102114D01*
X34711347Y17102113D01*
X34636244Y17010599D01*
X34594993Y16976746D01*
X34544729Y16935495D01*
X34440321Y16879688D01*
X34327034Y16845322D01*
X34209217Y16833719D01*
X34091399Y16845322D01*
X33978112Y16879688D01*
X33873705Y16935495D01*
X33859789Y16946915D01*
X33782190Y17010599D01*
X33748337Y17051850D01*
X33707086Y17102114D01*
X33651279Y17206522D01*
X33616913Y17319809D01*
X33608217Y17408108D01*
X33608218Y18867145D01*
X33616914Y18955444D01*
X33651280Y19068731D01*
X33707087Y19173139D01*
X33782191Y19264653D01*
X33873705Y19339757D01*
X33978113Y19395564D01*
X34091400Y19429930D01*
X34209217Y19441533D01*
X34327035Y19429930D01*
X34327035Y19429930D01*
G37*
G36*
X36810217Y16836626D02*
X35608217Y16836626D01*
X35608217Y19438626D01*
X36810217Y19438626D01*
X36810217Y16836626D01*
X36810217Y16836626D01*
G37*
G36*
X13616820Y19538687D02*
X13616823Y19538686D01*
X13616824Y19538686D01*
X13777238Y19490025D01*
X13777240Y19490024D01*
X13777243Y19490023D01*
X13925078Y19411005D01*
X14054659Y19304659D01*
X14161005Y19175078D01*
X14240023Y19027244D01*
X14240023Y19027243D01*
X14240025Y19027239D01*
X14261804Y18955442D01*
X14288687Y18866821D01*
X14301000Y18741804D01*
X14301000Y18258197D01*
X14288687Y18133180D01*
X14288686Y18133178D01*
X14288686Y18133175D01*
X14240025Y17972761D01*
X14240023Y17972756D01*
X14161005Y17824922D01*
X14054659Y17695341D01*
X13925078Y17588995D01*
X13777244Y17509977D01*
X13777241Y17509976D01*
X13777239Y17509975D01*
X13616825Y17461314D01*
X13616824Y17461314D01*
X13616821Y17461313D01*
X13450000Y17444883D01*
X13283180Y17461313D01*
X13283177Y17461314D01*
X13283176Y17461314D01*
X13122762Y17509975D01*
X13122760Y17509976D01*
X13122757Y17509977D01*
X12974923Y17588995D01*
X12845344Y17695339D01*
X12738993Y17824926D01*
X12659977Y17972756D01*
X12611313Y18133179D01*
X12599000Y18258196D01*
X12599000Y18741803D01*
X12611313Y18866820D01*
X12611314Y18866824D01*
X12659975Y19027238D01*
X12659976Y19027240D01*
X12659977Y19027243D01*
X12738995Y19175078D01*
X12845341Y19304659D01*
X12974922Y19411005D01*
X13122756Y19490023D01*
X13122759Y19490024D01*
X13122761Y19490025D01*
X13283175Y19538686D01*
X13283176Y19538686D01*
X13283179Y19538687D01*
X13450000Y19555117D01*
X13616820Y19538687D01*
X13616820Y19538687D01*
G37*
G36*
X20216820Y19538687D02*
X20216823Y19538686D01*
X20216824Y19538686D01*
X20377238Y19490025D01*
X20377240Y19490024D01*
X20377243Y19490023D01*
X20525078Y19411005D01*
X20654659Y19304659D01*
X20761005Y19175078D01*
X20840023Y19027244D01*
X20840023Y19027243D01*
X20840025Y19027239D01*
X20861804Y18955442D01*
X20888687Y18866821D01*
X20901000Y18741804D01*
X20901000Y18258197D01*
X20888687Y18133180D01*
X20888686Y18133178D01*
X20888686Y18133175D01*
X20840025Y17972761D01*
X20840023Y17972756D01*
X20761005Y17824922D01*
X20654659Y17695341D01*
X20525078Y17588995D01*
X20377244Y17509977D01*
X20377241Y17509976D01*
X20377239Y17509975D01*
X20216825Y17461314D01*
X20216824Y17461314D01*
X20216821Y17461313D01*
X20050000Y17444883D01*
X19883180Y17461313D01*
X19883177Y17461314D01*
X19883176Y17461314D01*
X19722762Y17509975D01*
X19722760Y17509976D01*
X19722757Y17509977D01*
X19574923Y17588995D01*
X19445344Y17695339D01*
X19338993Y17824926D01*
X19259977Y17972756D01*
X19211313Y18133179D01*
X19199000Y18258196D01*
X19199000Y18741803D01*
X19211313Y18866820D01*
X19211314Y18866824D01*
X19259975Y19027238D01*
X19259976Y19027240D01*
X19259977Y19027243D01*
X19338995Y19175078D01*
X19445341Y19304659D01*
X19574922Y19411005D01*
X19722756Y19490023D01*
X19722759Y19490024D01*
X19722761Y19490025D01*
X19883175Y19538686D01*
X19883176Y19538686D01*
X19883179Y19538687D01*
X20050000Y19555117D01*
X20216820Y19538687D01*
X20216820Y19538687D01*
G37*
M02*
