G04 #@! TF.GenerationSoftware,KiCad,Pcbnew,5.0.2-bee76a0~70~ubuntu18.04.1*
G04 #@! TF.CreationDate,2020-03-17T18:57:39-04:00*
G04 #@! TF.ProjectId,ESP-AHT10-Extra,4553502d-4148-4543-9130-2d4578747261,1.4*
G04 #@! TF.SameCoordinates,PX7bfa480PY66c2270*
G04 #@! TF.FileFunction,Soldermask,Top*
G04 #@! TF.FilePolarity,Negative*
%FSLAX46Y46*%
G04 Gerber Fmt 4.6, Leading zero omitted, Abs format (unit mm)*
G04 Created by KiCad (PCBNEW 5.0.2-bee76a0~70~ubuntu18.04.1) date Tue 17 Mar 2020 06:57:39 PM EDT*
%MOMM*%
%LPD*%
G01*
G04 APERTURE LIST*
%ADD10C,0.050000*%
G04 APERTURE END LIST*
D10*
G36*
X13616821Y3288687D02*
X13616824Y3288686D01*
X13616825Y3288686D01*
X13777239Y3240025D01*
X13777241Y3240024D01*
X13777244Y3240023D01*
X13925078Y3161005D01*
X14054659Y3054659D01*
X14161005Y2925078D01*
X14240023Y2777244D01*
X14240024Y2777241D01*
X14240025Y2777239D01*
X14288686Y2616825D01*
X14288686Y2616822D01*
X14288687Y2616820D01*
X14301000Y2491803D01*
X14301000Y2008196D01*
X14288687Y1883179D01*
X14288686Y1883176D01*
X14288686Y1883175D01*
X14265434Y1806522D01*
X14240023Y1722756D01*
X14161005Y1574922D01*
X14054659Y1445341D01*
X13925078Y1338995D01*
X13777243Y1259977D01*
X13777240Y1259976D01*
X13777238Y1259975D01*
X13616824Y1211314D01*
X13616823Y1211314D01*
X13616820Y1211313D01*
X13450000Y1194883D01*
X13283179Y1211313D01*
X13283176Y1211314D01*
X13283175Y1211314D01*
X13122761Y1259975D01*
X13122759Y1259976D01*
X13122756Y1259977D01*
X12974922Y1338995D01*
X12845341Y1445341D01*
X12738995Y1574922D01*
X12659977Y1722757D01*
X12635905Y1802113D01*
X12611314Y1883176D01*
X12611314Y1883177D01*
X12611313Y1883180D01*
X12599000Y2008197D01*
X12599000Y2491804D01*
X12611313Y2616821D01*
X12659977Y2777244D01*
X12738993Y2925074D01*
X12845344Y3054661D01*
X12974923Y3161005D01*
X13122757Y3240023D01*
X13122760Y3240024D01*
X13122762Y3240025D01*
X13283176Y3288686D01*
X13283177Y3288686D01*
X13283180Y3288687D01*
X13450000Y3305117D01*
X13616821Y3288687D01*
X13616821Y3288687D01*
G37*
G36*
X20216821Y3288687D02*
X20216824Y3288686D01*
X20216825Y3288686D01*
X20377239Y3240025D01*
X20377241Y3240024D01*
X20377244Y3240023D01*
X20525078Y3161005D01*
X20654659Y3054659D01*
X20761005Y2925078D01*
X20840023Y2777244D01*
X20840024Y2777241D01*
X20840025Y2777239D01*
X20888686Y2616825D01*
X20888686Y2616822D01*
X20888687Y2616820D01*
X20901000Y2491803D01*
X20901000Y2008196D01*
X20888687Y1883179D01*
X20888686Y1883176D01*
X20888686Y1883175D01*
X20865434Y1806522D01*
X20840023Y1722756D01*
X20761005Y1574922D01*
X20654659Y1445341D01*
X20525078Y1338995D01*
X20377243Y1259977D01*
X20377240Y1259976D01*
X20377238Y1259975D01*
X20216824Y1211314D01*
X20216823Y1211314D01*
X20216820Y1211313D01*
X20050000Y1194883D01*
X19883179Y1211313D01*
X19883176Y1211314D01*
X19883175Y1211314D01*
X19722761Y1259975D01*
X19722759Y1259976D01*
X19722756Y1259977D01*
X19574922Y1338995D01*
X19445341Y1445341D01*
X19338995Y1574922D01*
X19259977Y1722757D01*
X19235905Y1802113D01*
X19211314Y1883176D01*
X19211314Y1883177D01*
X19211313Y1883180D01*
X19199000Y2008197D01*
X19199000Y2491804D01*
X19211313Y2616821D01*
X19259977Y2777244D01*
X19338993Y2925074D01*
X19445344Y3054661D01*
X19574923Y3161005D01*
X19722757Y3240023D01*
X19722760Y3240024D01*
X19722762Y3240025D01*
X19883176Y3288686D01*
X19883177Y3288686D01*
X19883180Y3288687D01*
X20050000Y3305117D01*
X20216821Y3288687D01*
X20216821Y3288687D01*
G37*
G36*
X26327035Y4029930D02*
X26440322Y3995564D01*
X26544730Y3939757D01*
X26636244Y3864653D01*
X26711348Y3773139D01*
X26767155Y3668731D01*
X26801521Y3555444D01*
X26810217Y3467145D01*
X26810217Y2008107D01*
X26801521Y1919808D01*
X26767155Y1806521D01*
X26715883Y1710599D01*
X26711347Y1702113D01*
X26636244Y1610599D01*
X26598579Y1579689D01*
X26544729Y1535495D01*
X26440321Y1479688D01*
X26327034Y1445322D01*
X26209217Y1433719D01*
X26091399Y1445322D01*
X25978112Y1479688D01*
X25873705Y1535495D01*
X25825662Y1574923D01*
X25782190Y1610599D01*
X25748337Y1651850D01*
X25707086Y1702114D01*
X25651279Y1806522D01*
X25616913Y1919809D01*
X25608217Y2008108D01*
X25608218Y3467145D01*
X25616914Y3555444D01*
X25651280Y3668731D01*
X25707087Y3773139D01*
X25782191Y3864653D01*
X25873705Y3939757D01*
X25978113Y3995564D01*
X26091400Y4029930D01*
X26209217Y4041533D01*
X26327035Y4029930D01*
X26327035Y4029930D01*
G37*
G36*
X28327035Y4029930D02*
X28440322Y3995564D01*
X28544730Y3939757D01*
X28636244Y3864653D01*
X28711348Y3773139D01*
X28767155Y3668731D01*
X28801521Y3555444D01*
X28810217Y3467145D01*
X28810217Y2008107D01*
X28801521Y1919808D01*
X28767155Y1806521D01*
X28715883Y1710599D01*
X28711347Y1702113D01*
X28636244Y1610599D01*
X28598579Y1579689D01*
X28544729Y1535495D01*
X28440321Y1479688D01*
X28327034Y1445322D01*
X28209217Y1433719D01*
X28091399Y1445322D01*
X27978112Y1479688D01*
X27873705Y1535495D01*
X27825662Y1574923D01*
X27782190Y1610599D01*
X27748337Y1651850D01*
X27707086Y1702114D01*
X27651279Y1806522D01*
X27616913Y1919809D01*
X27608217Y2008108D01*
X27608218Y3467145D01*
X27616914Y3555444D01*
X27651280Y3668731D01*
X27707087Y3773139D01*
X27782191Y3864653D01*
X27873705Y3939757D01*
X27978113Y3995564D01*
X28091400Y4029930D01*
X28209217Y4041533D01*
X28327035Y4029930D01*
X28327035Y4029930D01*
G37*
G36*
X30082890Y5251983D02*
X30201361Y5202911D01*
X30201364Y5202909D01*
X30210386Y5196881D01*
X30307992Y5131662D01*
X30398662Y5040992D01*
X30469911Y4934361D01*
X30518983Y4815890D01*
X30544000Y4690119D01*
X30544000Y4561881D01*
X30518983Y4436110D01*
X30469911Y4317639D01*
X30469909Y4317636D01*
X30422937Y4247337D01*
X30398662Y4211008D01*
X30390524Y4202870D01*
X30374978Y4183928D01*
X30363427Y4162317D01*
X30356314Y4138868D01*
X30353912Y4114482D01*
X30356314Y4090096D01*
X30363427Y4066647D01*
X30374978Y4045036D01*
X30390524Y4026094D01*
X30409466Y4010548D01*
X30433984Y3998951D01*
X30544730Y3939757D01*
X30636244Y3864653D01*
X30711348Y3773139D01*
X30767155Y3668731D01*
X30801521Y3555444D01*
X30810217Y3467145D01*
X30810217Y2008107D01*
X30801521Y1919808D01*
X30767155Y1806521D01*
X30715883Y1710599D01*
X30711347Y1702113D01*
X30636244Y1610599D01*
X30598579Y1579689D01*
X30544729Y1535495D01*
X30440321Y1479688D01*
X30327034Y1445322D01*
X30209217Y1433719D01*
X30091399Y1445322D01*
X29978112Y1479688D01*
X29873705Y1535495D01*
X29825662Y1574923D01*
X29782190Y1610599D01*
X29748337Y1651850D01*
X29707086Y1702114D01*
X29651279Y1806522D01*
X29616913Y1919809D01*
X29608217Y2008108D01*
X29608218Y3467145D01*
X29616914Y3555444D01*
X29651280Y3668731D01*
X29707087Y3773139D01*
X29738113Y3810944D01*
X29751727Y3831319D01*
X29761105Y3853958D01*
X29765885Y3877991D01*
X29765885Y3902495D01*
X29761104Y3926529D01*
X29751727Y3949168D01*
X29738113Y3969542D01*
X29720786Y3986869D01*
X29689322Y4005728D01*
X29584639Y4049089D01*
X29515086Y4095563D01*
X29478012Y4120335D01*
X29478011Y4120336D01*
X29478008Y4120338D01*
X29387338Y4211008D01*
X29363064Y4247337D01*
X29316091Y4317636D01*
X29316089Y4317639D01*
X29267017Y4436110D01*
X29242000Y4561881D01*
X29242000Y4690119D01*
X29267017Y4815890D01*
X29316089Y4934361D01*
X29387338Y5040992D01*
X29478008Y5131662D01*
X29575615Y5196881D01*
X29584636Y5202909D01*
X29584639Y5202911D01*
X29703110Y5251983D01*
X29828881Y5277000D01*
X29957119Y5277000D01*
X30082890Y5251983D01*
X30082890Y5251983D01*
G37*
G36*
X32114890Y5378983D02*
X32233361Y5329911D01*
X32233364Y5329909D01*
X32312548Y5277000D01*
X32339992Y5258662D01*
X32430662Y5167992D01*
X32501911Y5061361D01*
X32550983Y4942890D01*
X32576000Y4817119D01*
X32576000Y4688881D01*
X32550983Y4563110D01*
X32501911Y4444639D01*
X32430662Y4338008D01*
X32339991Y4247337D01*
X32331914Y4241940D01*
X32312973Y4226394D01*
X32297427Y4207452D01*
X32285876Y4185841D01*
X32278764Y4162392D01*
X32276362Y4138006D01*
X32278764Y4113619D01*
X32285878Y4090170D01*
X32297429Y4068559D01*
X32312975Y4049618D01*
X32331917Y4034072D01*
X32365076Y4018390D01*
X32440322Y3995564D01*
X32544730Y3939757D01*
X32636244Y3864653D01*
X32711348Y3773139D01*
X32767155Y3668731D01*
X32801521Y3555444D01*
X32810217Y3467145D01*
X32810217Y2008107D01*
X32801521Y1919808D01*
X32767155Y1806521D01*
X32715883Y1710599D01*
X32711347Y1702113D01*
X32636244Y1610599D01*
X32598579Y1579689D01*
X32544729Y1535495D01*
X32440321Y1479688D01*
X32327034Y1445322D01*
X32209217Y1433719D01*
X32091399Y1445322D01*
X31978112Y1479688D01*
X31873705Y1535495D01*
X31825662Y1574923D01*
X31782190Y1610599D01*
X31748337Y1651850D01*
X31707086Y1702114D01*
X31651279Y1806522D01*
X31616913Y1919809D01*
X31608217Y2008108D01*
X31608218Y3467145D01*
X31616914Y3555444D01*
X31651280Y3668731D01*
X31707087Y3773139D01*
X31782191Y3864653D01*
X31826030Y3900631D01*
X31843357Y3917958D01*
X31856971Y3938332D01*
X31866348Y3960971D01*
X31871129Y3985005D01*
X31871129Y4009509D01*
X31866349Y4033542D01*
X31856971Y4056181D01*
X31843357Y4076556D01*
X31826030Y4093883D01*
X31805656Y4107497D01*
X31783017Y4116874D01*
X31771117Y4119855D01*
X31768704Y4120335D01*
X31735110Y4127017D01*
X31706499Y4138868D01*
X31616639Y4176089D01*
X31602044Y4185841D01*
X31510012Y4247335D01*
X31510011Y4247336D01*
X31510008Y4247338D01*
X31419338Y4338008D01*
X31348089Y4444639D01*
X31299017Y4563110D01*
X31274000Y4688881D01*
X31274000Y4817119D01*
X31299017Y4942890D01*
X31348089Y5061361D01*
X31419338Y5167992D01*
X31510008Y5258662D01*
X31537453Y5277000D01*
X31616636Y5329909D01*
X31616639Y5329911D01*
X31735110Y5378983D01*
X31860881Y5404000D01*
X31989119Y5404000D01*
X32114890Y5378983D01*
X32114890Y5378983D01*
G37*
G36*
X34327035Y4029930D02*
X34440322Y3995564D01*
X34544730Y3939757D01*
X34636244Y3864653D01*
X34711348Y3773139D01*
X34767155Y3668731D01*
X34801521Y3555444D01*
X34810217Y3467145D01*
X34810217Y2008107D01*
X34801521Y1919808D01*
X34767155Y1806521D01*
X34715883Y1710599D01*
X34711347Y1702113D01*
X34636244Y1610599D01*
X34598579Y1579689D01*
X34544729Y1535495D01*
X34440321Y1479688D01*
X34327034Y1445322D01*
X34209217Y1433719D01*
X34091399Y1445322D01*
X33978112Y1479688D01*
X33873705Y1535495D01*
X33825662Y1574923D01*
X33782190Y1610599D01*
X33748337Y1651850D01*
X33707086Y1702114D01*
X33651279Y1806522D01*
X33616913Y1919809D01*
X33608217Y2008108D01*
X33608218Y3467145D01*
X33616914Y3555444D01*
X33651280Y3668731D01*
X33707087Y3773139D01*
X33782191Y3864653D01*
X33873705Y3939757D01*
X33978113Y3995564D01*
X34091400Y4029930D01*
X34209217Y4041533D01*
X34327035Y4029930D01*
X34327035Y4029930D01*
G37*
G36*
X36327035Y4029930D02*
X36440322Y3995564D01*
X36544730Y3939757D01*
X36636244Y3864653D01*
X36711348Y3773139D01*
X36767155Y3668731D01*
X36801521Y3555444D01*
X36810217Y3467145D01*
X36810217Y2008107D01*
X36801521Y1919808D01*
X36767155Y1806521D01*
X36715883Y1710599D01*
X36711347Y1702113D01*
X36636244Y1610599D01*
X36598579Y1579689D01*
X36544729Y1535495D01*
X36440321Y1479688D01*
X36327034Y1445322D01*
X36209217Y1433719D01*
X36091399Y1445322D01*
X35978112Y1479688D01*
X35873705Y1535495D01*
X35825662Y1574923D01*
X35782190Y1610599D01*
X35748337Y1651850D01*
X35707086Y1702114D01*
X35651279Y1806522D01*
X35616913Y1919809D01*
X35608217Y2008108D01*
X35608218Y3467145D01*
X35616914Y3555444D01*
X35651280Y3668731D01*
X35707087Y3773139D01*
X35782191Y3864653D01*
X35873705Y3939757D01*
X35978113Y3995564D01*
X36091400Y4029930D01*
X36209217Y4041533D01*
X36327035Y4029930D01*
X36327035Y4029930D01*
G37*
G36*
X22327035Y4029930D02*
X22440322Y3995564D01*
X22544730Y3939757D01*
X22636244Y3864653D01*
X22711348Y3773139D01*
X22767155Y3668731D01*
X22801521Y3555444D01*
X22810217Y3467145D01*
X22810217Y2008107D01*
X22801521Y1919808D01*
X22767155Y1806521D01*
X22715883Y1710599D01*
X22711347Y1702113D01*
X22636244Y1610599D01*
X22598579Y1579689D01*
X22544729Y1535495D01*
X22440321Y1479688D01*
X22327034Y1445322D01*
X22209217Y1433719D01*
X22091399Y1445322D01*
X21978112Y1479688D01*
X21873705Y1535495D01*
X21825662Y1574923D01*
X21782190Y1610599D01*
X21748337Y1651850D01*
X21707086Y1702114D01*
X21651279Y1806522D01*
X21616913Y1919809D01*
X21608217Y2008108D01*
X21608218Y3467145D01*
X21616914Y3555444D01*
X21651280Y3668731D01*
X21707087Y3773139D01*
X21782191Y3864653D01*
X21873705Y3939757D01*
X21978113Y3995564D01*
X22091400Y4029930D01*
X22209217Y4041533D01*
X22327035Y4029930D01*
X22327035Y4029930D01*
G37*
G36*
X24327035Y4129930D02*
X24440322Y4095564D01*
X24544730Y4039757D01*
X24636244Y3964653D01*
X24711348Y3873139D01*
X24767155Y3768731D01*
X24801521Y3655444D01*
X24810217Y3567145D01*
X24810217Y2108107D01*
X24801521Y2019808D01*
X24767155Y1906521D01*
X24711348Y1802114D01*
X24711347Y1802113D01*
X24636244Y1710599D01*
X24594993Y1676746D01*
X24544729Y1635495D01*
X24440321Y1579688D01*
X24327034Y1545322D01*
X24209217Y1533719D01*
X24091399Y1545322D01*
X23978112Y1579688D01*
X23873705Y1635495D01*
X23859789Y1646915D01*
X23782190Y1710599D01*
X23748337Y1751850D01*
X23707086Y1802114D01*
X23651279Y1906522D01*
X23616913Y2019809D01*
X23608217Y2108108D01*
X23608218Y3567145D01*
X23616914Y3655444D01*
X23651280Y3768731D01*
X23707087Y3873139D01*
X23782191Y3964653D01*
X23873705Y4039757D01*
X23978113Y4095564D01*
X24091400Y4129930D01*
X24209217Y4141533D01*
X24327035Y4129930D01*
X24327035Y4129930D01*
G37*
G36*
X13763390Y5632983D02*
X13881861Y5583911D01*
X13881864Y5583909D01*
X13961554Y5530662D01*
X13988492Y5512662D01*
X14079162Y5421992D01*
X14150411Y5315361D01*
X14199483Y5196890D01*
X14224500Y5071119D01*
X14224500Y4942881D01*
X14199483Y4817110D01*
X14150411Y4698639D01*
X14150409Y4698636D01*
X14091190Y4610008D01*
X14079162Y4592008D01*
X13988492Y4501338D01*
X13988489Y4501336D01*
X13988488Y4501335D01*
X13903632Y4444636D01*
X13881861Y4430089D01*
X13763390Y4381017D01*
X13637619Y4356000D01*
X13509381Y4356000D01*
X13383610Y4381017D01*
X13265139Y4430089D01*
X13243368Y4444636D01*
X13158512Y4501335D01*
X13158511Y4501336D01*
X13158508Y4501338D01*
X13067838Y4592008D01*
X13055811Y4610008D01*
X12996591Y4698636D01*
X12996589Y4698639D01*
X12947517Y4817110D01*
X12922500Y4942881D01*
X12922500Y5071119D01*
X12947517Y5196890D01*
X12996589Y5315361D01*
X13067838Y5421992D01*
X13158508Y5512662D01*
X13185447Y5530662D01*
X13265136Y5583909D01*
X13265139Y5583911D01*
X13383610Y5632983D01*
X13509381Y5658000D01*
X13637619Y5658000D01*
X13763390Y5632983D01*
X13763390Y5632983D01*
G37*
G36*
X34239890Y5650983D02*
X34358361Y5601911D01*
X34464992Y5530662D01*
X34555662Y5439992D01*
X34555664Y5439989D01*
X34555665Y5439988D01*
X34567692Y5421988D01*
X34626911Y5333361D01*
X34675983Y5214890D01*
X34701000Y5089119D01*
X34701000Y4960881D01*
X34675983Y4835110D01*
X34626911Y4716639D01*
X34626909Y4716636D01*
X34560465Y4617195D01*
X34555662Y4610008D01*
X34464992Y4519338D01*
X34464989Y4519336D01*
X34464988Y4519335D01*
X34438049Y4501335D01*
X34358361Y4448089D01*
X34239890Y4399017D01*
X34114119Y4374000D01*
X33985881Y4374000D01*
X33860110Y4399017D01*
X33741639Y4448089D01*
X33661951Y4501335D01*
X33635012Y4519335D01*
X33635011Y4519336D01*
X33635008Y4519338D01*
X33544338Y4610008D01*
X33539536Y4617195D01*
X33473091Y4716636D01*
X33473089Y4716639D01*
X33424017Y4835110D01*
X33399000Y4960881D01*
X33399000Y5089119D01*
X33424017Y5214890D01*
X33473089Y5333361D01*
X33532308Y5421988D01*
X33544335Y5439988D01*
X33544336Y5439989D01*
X33544338Y5439992D01*
X33635008Y5530662D01*
X33741639Y5601911D01*
X33860110Y5650983D01*
X33985881Y5676000D01*
X34114119Y5676000D01*
X34239890Y5650983D01*
X34239890Y5650983D01*
G37*
G36*
X36429225Y5869161D02*
X36547696Y5820089D01*
X36547699Y5820087D01*
X36627651Y5766665D01*
X36654327Y5748840D01*
X36744997Y5658170D01*
X36744999Y5658167D01*
X36745000Y5658166D01*
X36761827Y5632983D01*
X36816246Y5551539D01*
X36865318Y5433068D01*
X36890335Y5307297D01*
X36890335Y5179059D01*
X36865318Y5053288D01*
X36816246Y4934817D01*
X36816244Y4934814D01*
X36749624Y4835110D01*
X36744997Y4828186D01*
X36654327Y4737516D01*
X36654324Y4737514D01*
X36654323Y4737513D01*
X36583393Y4690119D01*
X36547696Y4666267D01*
X36429225Y4617195D01*
X36303454Y4592178D01*
X36175216Y4592178D01*
X36049445Y4617195D01*
X35930974Y4666267D01*
X35895277Y4690119D01*
X35824347Y4737513D01*
X35824346Y4737514D01*
X35824343Y4737516D01*
X35733673Y4828186D01*
X35729047Y4835110D01*
X35662426Y4934814D01*
X35662424Y4934817D01*
X35613352Y5053288D01*
X35588335Y5179059D01*
X35588335Y5307297D01*
X35613352Y5433068D01*
X35662424Y5551539D01*
X35716843Y5632983D01*
X35733670Y5658166D01*
X35733671Y5658167D01*
X35733673Y5658170D01*
X35824343Y5748840D01*
X35851020Y5766665D01*
X35930971Y5820087D01*
X35930974Y5820089D01*
X36049445Y5869161D01*
X36175216Y5894178D01*
X36303454Y5894178D01*
X36429225Y5869161D01*
X36429225Y5869161D01*
G37*
G36*
X26399890Y5886983D02*
X26518361Y5837911D01*
X26624992Y5766662D01*
X26715662Y5675992D01*
X26715664Y5675989D01*
X26715665Y5675988D01*
X26727573Y5658166D01*
X26786911Y5569361D01*
X26835983Y5450890D01*
X26861000Y5325119D01*
X26861000Y5196881D01*
X26835983Y5071110D01*
X26786911Y4952639D01*
X26715662Y4846008D01*
X26624992Y4755338D01*
X26624989Y4755336D01*
X26624988Y4755335D01*
X26527384Y4690118D01*
X26518361Y4684089D01*
X26399890Y4635017D01*
X26274119Y4610000D01*
X26145881Y4610000D01*
X26020110Y4635017D01*
X25901639Y4684089D01*
X25892616Y4690118D01*
X25795012Y4755335D01*
X25795011Y4755336D01*
X25795008Y4755338D01*
X25704338Y4846008D01*
X25633089Y4952639D01*
X25584017Y5071110D01*
X25559000Y5196881D01*
X25559000Y5325119D01*
X25584017Y5450890D01*
X25633089Y5569361D01*
X25692427Y5658166D01*
X25704335Y5675988D01*
X25704336Y5675989D01*
X25704338Y5675992D01*
X25795008Y5766662D01*
X25901639Y5837911D01*
X26020110Y5886983D01*
X26145881Y5912000D01*
X26274119Y5912000D01*
X26399890Y5886983D01*
X26399890Y5886983D01*
G37*
G36*
X15377000Y8035000D02*
X13675000Y8035000D01*
X13675000Y8837000D01*
X15377000Y8837000D01*
X15377000Y8035000D01*
X15377000Y8035000D01*
G37*
G36*
X18462390Y9379483D02*
X18580861Y9330411D01*
X18687492Y9259162D01*
X18778162Y9168492D01*
X18778164Y9168489D01*
X18778165Y9168488D01*
X18836140Y9081722D01*
X18849411Y9061861D01*
X18898483Y8943390D01*
X18923500Y8817619D01*
X18923500Y8689381D01*
X18898483Y8563610D01*
X18849411Y8445139D01*
X18849409Y8445136D01*
X18797260Y8367089D01*
X18778162Y8338508D01*
X18687492Y8247838D01*
X18580861Y8176589D01*
X18462390Y8127517D01*
X18336619Y8102500D01*
X18208381Y8102500D01*
X18082610Y8127517D01*
X17964139Y8176589D01*
X17857508Y8247838D01*
X17766838Y8338508D01*
X17747741Y8367089D01*
X17695591Y8445136D01*
X17695589Y8445139D01*
X17646517Y8563610D01*
X17621500Y8689381D01*
X17621500Y8817619D01*
X17646517Y8943390D01*
X17695589Y9061861D01*
X17708860Y9081722D01*
X17766835Y9168488D01*
X17766836Y9168489D01*
X17766838Y9168492D01*
X17857508Y9259162D01*
X17964139Y9330411D01*
X18082610Y9379483D01*
X18208381Y9404500D01*
X18336619Y9404500D01*
X18462390Y9379483D01*
X18462390Y9379483D01*
G37*
G36*
X24875890Y9569983D02*
X24994361Y9520911D01*
X25100992Y9449662D01*
X25191662Y9358992D01*
X25191664Y9358989D01*
X25191665Y9358988D01*
X25210761Y9330409D01*
X25262911Y9252361D01*
X25311983Y9133890D01*
X25337000Y9008119D01*
X25337000Y8879881D01*
X25311983Y8754110D01*
X25262911Y8635639D01*
X25262909Y8635636D01*
X25214783Y8563610D01*
X25191662Y8529008D01*
X25100992Y8438338D01*
X24994361Y8367089D01*
X24875890Y8318017D01*
X24750119Y8293000D01*
X24621881Y8293000D01*
X24496110Y8318017D01*
X24377639Y8367089D01*
X24271008Y8438338D01*
X24180338Y8529008D01*
X24157218Y8563610D01*
X24109091Y8635636D01*
X24109089Y8635639D01*
X24060017Y8754110D01*
X24035000Y8879881D01*
X24035000Y9008119D01*
X24060017Y9133890D01*
X24109089Y9252361D01*
X24161239Y9330409D01*
X24180335Y9358988D01*
X24180336Y9358989D01*
X24180338Y9358992D01*
X24271008Y9449662D01*
X24377639Y9520911D01*
X24496110Y9569983D01*
X24621881Y9595000D01*
X24750119Y9595000D01*
X24875890Y9569983D01*
X24875890Y9569983D01*
G37*
G36*
X17078966Y9937435D02*
X17117637Y9925704D01*
X17153279Y9906652D01*
X17184517Y9881017D01*
X17210152Y9849779D01*
X17229204Y9814137D01*
X17240935Y9775466D01*
X17245500Y9729112D01*
X17245500Y9077888D01*
X17240935Y9031534D01*
X17229204Y8992863D01*
X17210152Y8957221D01*
X17184517Y8925983D01*
X17153279Y8900348D01*
X17117637Y8881296D01*
X17078966Y8869565D01*
X17032612Y8865000D01*
X15956388Y8865000D01*
X15910034Y8869565D01*
X15871363Y8881296D01*
X15835721Y8900348D01*
X15804483Y8925983D01*
X15778848Y8957221D01*
X15759796Y8992863D01*
X15748065Y9031534D01*
X15743500Y9077888D01*
X15743500Y9729112D01*
X15748065Y9775466D01*
X15759796Y9814137D01*
X15778848Y9849779D01*
X15804483Y9881017D01*
X15835721Y9906652D01*
X15871363Y9925704D01*
X15910034Y9937435D01*
X15956388Y9942000D01*
X17032612Y9942000D01*
X17078966Y9937435D01*
X17078966Y9937435D01*
G37*
G36*
X15377000Y9305000D02*
X13675000Y9305000D01*
X13675000Y10107000D01*
X15377000Y10107000D01*
X15377000Y9305000D01*
X15377000Y9305000D01*
G37*
G36*
X24989890Y11275983D02*
X25108361Y11226911D01*
X25108364Y11226909D01*
X25197846Y11167119D01*
X25214992Y11155662D01*
X25305662Y11064992D01*
X25305664Y11064989D01*
X25305665Y11064988D01*
X25323109Y11038881D01*
X25376911Y10958361D01*
X25425983Y10839890D01*
X25451000Y10714119D01*
X25451000Y10585881D01*
X25425983Y10460110D01*
X25376911Y10341639D01*
X25305662Y10235008D01*
X25214992Y10144338D01*
X25108361Y10073089D01*
X24989890Y10024017D01*
X24864119Y9999000D01*
X24735881Y9999000D01*
X24610110Y10024017D01*
X24491639Y10073089D01*
X24385008Y10144338D01*
X24294338Y10235008D01*
X24223089Y10341639D01*
X24174017Y10460110D01*
X24149000Y10585881D01*
X24149000Y10714119D01*
X24174017Y10839890D01*
X24223089Y10958361D01*
X24276891Y11038881D01*
X24294335Y11064988D01*
X24294336Y11064989D01*
X24294338Y11064992D01*
X24385008Y11155662D01*
X24402155Y11167119D01*
X24491636Y11226909D01*
X24491639Y11226911D01*
X24610110Y11275983D01*
X24735881Y11301000D01*
X24864119Y11301000D01*
X24989890Y11275983D01*
X24989890Y11275983D01*
G37*
G36*
X29447890Y11728983D02*
X29566361Y11679911D01*
X29566364Y11679909D01*
X29655999Y11620017D01*
X29672992Y11608662D01*
X29763662Y11517992D01*
X29834911Y11411361D01*
X29883983Y11292890D01*
X29909000Y11167119D01*
X29909000Y11038881D01*
X29883983Y10913110D01*
X29834911Y10794639D01*
X29834909Y10794636D01*
X29781109Y10714118D01*
X29763662Y10688008D01*
X29672992Y10597338D01*
X29672989Y10597336D01*
X29672988Y10597335D01*
X29639561Y10575000D01*
X29566361Y10526089D01*
X29447890Y10477017D01*
X29322119Y10452000D01*
X29193881Y10452000D01*
X29068110Y10477017D01*
X28949639Y10526089D01*
X28876439Y10575000D01*
X28843012Y10597335D01*
X28843011Y10597336D01*
X28843008Y10597338D01*
X28752338Y10688008D01*
X28734892Y10714118D01*
X28681091Y10794636D01*
X28681089Y10794639D01*
X28632017Y10913110D01*
X28607000Y11038881D01*
X28607000Y11167119D01*
X28632017Y11292890D01*
X28681089Y11411361D01*
X28752338Y11517992D01*
X28843008Y11608662D01*
X28860002Y11620017D01*
X28949636Y11679909D01*
X28949639Y11679911D01*
X29068110Y11728983D01*
X29193881Y11754000D01*
X29322119Y11754000D01*
X29447890Y11728983D01*
X29447890Y11728983D01*
G37*
G36*
X15377000Y10575000D02*
X13675000Y10575000D01*
X13675000Y11377000D01*
X15377000Y11377000D01*
X15377000Y10575000D01*
X15377000Y10575000D01*
G37*
G36*
X17078966Y11812435D02*
X17117637Y11800704D01*
X17153279Y11781652D01*
X17184517Y11756017D01*
X17210152Y11724779D01*
X17229204Y11689137D01*
X17240935Y11650466D01*
X17245500Y11604112D01*
X17245500Y10952888D01*
X17240935Y10906534D01*
X17229204Y10867863D01*
X17210152Y10832221D01*
X17184517Y10800983D01*
X17153279Y10775348D01*
X17117637Y10756296D01*
X17078966Y10744565D01*
X17032612Y10740000D01*
X15956388Y10740000D01*
X15910034Y10744565D01*
X15871363Y10756296D01*
X15835721Y10775348D01*
X15804483Y10800983D01*
X15778848Y10832221D01*
X15759796Y10867863D01*
X15748065Y10906534D01*
X15743500Y10952888D01*
X15743500Y11604112D01*
X15748065Y11650466D01*
X15759796Y11689137D01*
X15778848Y11724779D01*
X15804483Y11756017D01*
X15835721Y11781652D01*
X15871363Y11800704D01*
X15910034Y11812435D01*
X15956388Y11817000D01*
X17032612Y11817000D01*
X17078966Y11812435D01*
X17078966Y11812435D01*
G37*
G36*
X37414890Y12575983D02*
X37533361Y12526911D01*
X37533364Y12526909D01*
X37577131Y12497665D01*
X37639992Y12455662D01*
X37730662Y12364992D01*
X37801911Y12258361D01*
X37850983Y12139890D01*
X37876000Y12014119D01*
X37876000Y11885881D01*
X37850983Y11760110D01*
X37801911Y11641639D01*
X37801909Y11641636D01*
X37758729Y11577012D01*
X37730662Y11535008D01*
X37639992Y11444338D01*
X37533361Y11373089D01*
X37414890Y11324017D01*
X37289119Y11299000D01*
X37160881Y11299000D01*
X37035110Y11324017D01*
X36916639Y11373089D01*
X36810008Y11444338D01*
X36719338Y11535008D01*
X36691272Y11577012D01*
X36648091Y11641636D01*
X36648089Y11641639D01*
X36599017Y11760110D01*
X36574000Y11885881D01*
X36574000Y12014119D01*
X36599017Y12139890D01*
X36648089Y12258361D01*
X36719338Y12364992D01*
X36810008Y12455662D01*
X36872870Y12497665D01*
X36916636Y12526909D01*
X36916639Y12526911D01*
X37035110Y12575983D01*
X37160881Y12601000D01*
X37289119Y12601000D01*
X37414890Y12575983D01*
X37414890Y12575983D01*
G37*
G36*
X22589890Y12617983D02*
X22708361Y12568911D01*
X22708364Y12568909D01*
X22812420Y12499381D01*
X22814992Y12497662D01*
X22905662Y12406992D01*
X22905664Y12406989D01*
X22905665Y12406988D01*
X22970391Y12310119D01*
X22976911Y12300361D01*
X23025983Y12181890D01*
X23051000Y12056119D01*
X23051000Y11927881D01*
X23025983Y11802110D01*
X22976911Y11683639D01*
X22976909Y11683636D01*
X22923773Y11604112D01*
X22905662Y11577008D01*
X22814992Y11486338D01*
X22814989Y11486336D01*
X22814988Y11486335D01*
X22708364Y11415091D01*
X22708361Y11415089D01*
X22589890Y11366017D01*
X22464119Y11341000D01*
X22335881Y11341000D01*
X22210110Y11366017D01*
X22091639Y11415089D01*
X22091636Y11415091D01*
X21985012Y11486335D01*
X21985011Y11486336D01*
X21985008Y11486338D01*
X21894338Y11577008D01*
X21876228Y11604112D01*
X21823091Y11683636D01*
X21823089Y11683639D01*
X21774017Y11802110D01*
X21749000Y11927881D01*
X21749000Y12056119D01*
X21774017Y12181890D01*
X21823089Y12300361D01*
X21829609Y12310119D01*
X21894335Y12406988D01*
X21894336Y12406989D01*
X21894338Y12406992D01*
X21985008Y12497662D01*
X21987581Y12499381D01*
X22091636Y12568909D01*
X22091639Y12568911D01*
X22210110Y12617983D01*
X22335881Y12643000D01*
X22464119Y12643000D01*
X22589890Y12617983D01*
X22589890Y12617983D01*
G37*
G36*
X18779890Y12871983D02*
X18898361Y12822911D01*
X19004992Y12751662D01*
X19095662Y12660992D01*
X19166911Y12554361D01*
X19215983Y12435890D01*
X19241000Y12310119D01*
X19241000Y12181881D01*
X19215983Y12056110D01*
X19166911Y11937639D01*
X19095662Y11831008D01*
X19004992Y11740338D01*
X19004989Y11740336D01*
X19004988Y11740335D01*
X18920132Y11683636D01*
X18898361Y11669089D01*
X18779890Y11620017D01*
X18654119Y11595000D01*
X18525881Y11595000D01*
X18400110Y11620017D01*
X18281639Y11669089D01*
X18259868Y11683636D01*
X18175012Y11740335D01*
X18175011Y11740336D01*
X18175008Y11740338D01*
X18084338Y11831008D01*
X18013089Y11937639D01*
X17964017Y12056110D01*
X17939000Y12181881D01*
X17939000Y12310119D01*
X17964017Y12435890D01*
X18013089Y12554361D01*
X18084338Y12660992D01*
X18175008Y12751662D01*
X18281639Y12822911D01*
X18400110Y12871983D01*
X18525881Y12897000D01*
X18654119Y12897000D01*
X18779890Y12871983D01*
X18779890Y12871983D01*
G37*
G36*
X15377000Y11845000D02*
X13675000Y11845000D01*
X13675000Y12647000D01*
X15377000Y12647000D01*
X15377000Y11845000D01*
X15377000Y11845000D01*
G37*
G36*
X12556890Y13189483D02*
X12675361Y13140411D01*
X12675364Y13140409D01*
X12734332Y13101008D01*
X12781992Y13069162D01*
X12872662Y12978492D01*
X12872664Y12978489D01*
X12872665Y12978488D01*
X12943829Y12871983D01*
X12943911Y12871861D01*
X12992983Y12753390D01*
X13018000Y12627619D01*
X13018000Y12499381D01*
X12992983Y12373610D01*
X12943911Y12255139D01*
X12943909Y12255136D01*
X12894968Y12181890D01*
X12872662Y12148508D01*
X12781992Y12057838D01*
X12781989Y12057836D01*
X12781988Y12057835D01*
X12779418Y12056118D01*
X12675361Y11986589D01*
X12556890Y11937517D01*
X12431119Y11912500D01*
X12302881Y11912500D01*
X12177110Y11937517D01*
X12058639Y11986589D01*
X11954582Y12056118D01*
X11952012Y12057835D01*
X11952011Y12057836D01*
X11952008Y12057838D01*
X11861338Y12148508D01*
X11839033Y12181890D01*
X11790091Y12255136D01*
X11790089Y12255139D01*
X11741017Y12373610D01*
X11716000Y12499381D01*
X11716000Y12627619D01*
X11741017Y12753390D01*
X11790089Y12871861D01*
X11790171Y12871983D01*
X11861335Y12978488D01*
X11861336Y12978489D01*
X11861338Y12978492D01*
X11952008Y13069162D01*
X11999669Y13101008D01*
X12058636Y13140409D01*
X12058639Y13140411D01*
X12177110Y13189483D01*
X12302881Y13214500D01*
X12431119Y13214500D01*
X12556890Y13189483D01*
X12556890Y13189483D01*
G37*
G36*
X29765390Y14141983D02*
X29883861Y14092911D01*
X29990492Y14021662D01*
X30081162Y13930992D01*
X30152411Y13824361D01*
X30201483Y13705890D01*
X30226500Y13580119D01*
X30226500Y13451881D01*
X30201483Y13326110D01*
X30152411Y13207639D01*
X30152409Y13207636D01*
X30107491Y13140411D01*
X30081162Y13101008D01*
X29990492Y13010338D01*
X29990489Y13010336D01*
X29990488Y13010335D01*
X29883864Y12939091D01*
X29883861Y12939089D01*
X29765390Y12890017D01*
X29639619Y12865000D01*
X29511381Y12865000D01*
X29385610Y12890017D01*
X29267139Y12939089D01*
X29267136Y12939091D01*
X29160512Y13010335D01*
X29160511Y13010336D01*
X29160508Y13010338D01*
X29069838Y13101008D01*
X29043510Y13140411D01*
X28998591Y13207636D01*
X28998589Y13207639D01*
X28949517Y13326110D01*
X28924500Y13451881D01*
X28924500Y13580119D01*
X28949517Y13705890D01*
X28998589Y13824361D01*
X29069838Y13930992D01*
X29160508Y14021662D01*
X29267139Y14092911D01*
X29385610Y14141983D01*
X29511381Y14167000D01*
X29639619Y14167000D01*
X29765390Y14141983D01*
X29765390Y14141983D01*
G37*
G36*
X13616820Y19538687D02*
X13616823Y19538686D01*
X13616824Y19538686D01*
X13777238Y19490025D01*
X13777240Y19490024D01*
X13777243Y19490023D01*
X13925078Y19411005D01*
X14054659Y19304659D01*
X14161005Y19175078D01*
X14240023Y19027244D01*
X14240023Y19027243D01*
X14240025Y19027239D01*
X14261804Y18955442D01*
X14288687Y18866821D01*
X14301000Y18741804D01*
X14301000Y18258197D01*
X14288687Y18133180D01*
X14288686Y18133178D01*
X14288686Y18133175D01*
X14240025Y17972761D01*
X14240023Y17972756D01*
X14161005Y17824922D01*
X14054659Y17695341D01*
X13925078Y17588995D01*
X13766906Y17504451D01*
X13766708Y17504370D01*
X13766515Y17504242D01*
X13766382Y17504171D01*
X13766389Y17504158D01*
X13746280Y17490836D01*
X13728885Y17473577D01*
X13715191Y17453256D01*
X13705725Y17430654D01*
X13700850Y17406639D01*
X13700754Y17382135D01*
X13705440Y17358083D01*
X13714728Y17335408D01*
X13728262Y17314980D01*
X13745521Y17297585D01*
X13765842Y17283891D01*
X13788444Y17274425D01*
X13800813Y17271301D01*
X13863293Y17258873D01*
X13890390Y17253483D01*
X13924343Y17239419D01*
X14008861Y17204411D01*
X14115492Y17133162D01*
X14206162Y17042492D01*
X14206164Y17042489D01*
X14206165Y17042488D01*
X14277409Y16935864D01*
X14277411Y16935861D01*
X14326483Y16817390D01*
X14351500Y16691619D01*
X14351500Y16563381D01*
X14326483Y16437610D01*
X14277411Y16319139D01*
X14206162Y16212508D01*
X14115492Y16121838D01*
X14008861Y16050589D01*
X13890390Y16001517D01*
X13764619Y15976500D01*
X13636381Y15976500D01*
X13510610Y16001517D01*
X13392139Y16050589D01*
X13285508Y16121838D01*
X13194838Y16212508D01*
X13123589Y16319139D01*
X13074517Y16437610D01*
X13049500Y16563381D01*
X13049500Y16691619D01*
X13074517Y16817390D01*
X13123589Y16935861D01*
X13123591Y16935864D01*
X13194835Y17042488D01*
X13194836Y17042489D01*
X13194838Y17042492D01*
X13285508Y17133162D01*
X13392139Y17204411D01*
X13411238Y17212322D01*
X13432849Y17223873D01*
X13451791Y17239419D01*
X13467337Y17258361D01*
X13478888Y17279972D01*
X13486001Y17303421D01*
X13488403Y17327807D01*
X13486001Y17352193D01*
X13478888Y17375642D01*
X13467337Y17397253D01*
X13451791Y17416195D01*
X13432849Y17431741D01*
X13411238Y17443292D01*
X13387789Y17450405D01*
X13375655Y17452205D01*
X13283180Y17461313D01*
X13283177Y17461314D01*
X13283176Y17461314D01*
X13122762Y17509975D01*
X13122760Y17509976D01*
X13122757Y17509977D01*
X12974923Y17588995D01*
X12845344Y17695339D01*
X12738993Y17824926D01*
X12659977Y17972756D01*
X12611313Y18133179D01*
X12599000Y18258196D01*
X12599000Y18741803D01*
X12611313Y18866820D01*
X12611314Y18866824D01*
X12659975Y19027238D01*
X12659976Y19027240D01*
X12659977Y19027243D01*
X12738995Y19175078D01*
X12845341Y19304659D01*
X12974922Y19411005D01*
X13122756Y19490023D01*
X13122759Y19490024D01*
X13122761Y19490025D01*
X13283175Y19538686D01*
X13283176Y19538686D01*
X13283179Y19538687D01*
X13450000Y19555117D01*
X13616820Y19538687D01*
X13616820Y19538687D01*
G37*
G36*
X34327035Y19429930D02*
X34440322Y19395564D01*
X34544730Y19339757D01*
X34636244Y19264653D01*
X34711348Y19173139D01*
X34767155Y19068731D01*
X34801521Y18955444D01*
X34810217Y18867145D01*
X34810217Y17408107D01*
X34801521Y17319808D01*
X34767155Y17206521D01*
X34711348Y17102114D01*
X34711347Y17102113D01*
X34636244Y17010599D01*
X34594993Y16976746D01*
X34544729Y16935495D01*
X34440321Y16879688D01*
X34327034Y16845322D01*
X34209217Y16833719D01*
X34091399Y16845322D01*
X33978112Y16879688D01*
X33873705Y16935495D01*
X33859789Y16946915D01*
X33782190Y17010599D01*
X33748337Y17051850D01*
X33707086Y17102114D01*
X33651279Y17206522D01*
X33616913Y17319809D01*
X33608217Y17408108D01*
X33608218Y18867145D01*
X33616914Y18955444D01*
X33651280Y19068731D01*
X33707087Y19173139D01*
X33782191Y19264653D01*
X33873705Y19339757D01*
X33978113Y19395564D01*
X34091400Y19429930D01*
X34209217Y19441533D01*
X34327035Y19429930D01*
X34327035Y19429930D01*
G37*
G36*
X32327035Y19429930D02*
X32440322Y19395564D01*
X32544730Y19339757D01*
X32636244Y19264653D01*
X32711348Y19173139D01*
X32767155Y19068731D01*
X32801521Y18955444D01*
X32810217Y18867145D01*
X32810217Y17408107D01*
X32801521Y17319808D01*
X32767155Y17206521D01*
X32711348Y17102114D01*
X32711347Y17102113D01*
X32636244Y17010599D01*
X32594993Y16976746D01*
X32544729Y16935495D01*
X32440321Y16879688D01*
X32327034Y16845322D01*
X32209217Y16833719D01*
X32091399Y16845322D01*
X31978112Y16879688D01*
X31873705Y16935495D01*
X31859789Y16946915D01*
X31782190Y17010599D01*
X31748337Y17051850D01*
X31707086Y17102114D01*
X31651279Y17206522D01*
X31616913Y17319809D01*
X31608217Y17408108D01*
X31608218Y18867145D01*
X31616914Y18955444D01*
X31651280Y19068731D01*
X31707087Y19173139D01*
X31782191Y19264653D01*
X31873705Y19339757D01*
X31978113Y19395564D01*
X32091400Y19429930D01*
X32209217Y19441533D01*
X32327035Y19429930D01*
X32327035Y19429930D01*
G37*
G36*
X30327035Y19429930D02*
X30440322Y19395564D01*
X30544730Y19339757D01*
X30636244Y19264653D01*
X30711348Y19173139D01*
X30767155Y19068731D01*
X30801521Y18955444D01*
X30810217Y18867145D01*
X30810217Y17408107D01*
X30801521Y17319808D01*
X30767155Y17206521D01*
X30711348Y17102114D01*
X30711347Y17102113D01*
X30636244Y17010599D01*
X30594993Y16976746D01*
X30544729Y16935495D01*
X30440321Y16879688D01*
X30327034Y16845322D01*
X30209217Y16833719D01*
X30091399Y16845322D01*
X29978112Y16879688D01*
X29873705Y16935495D01*
X29859789Y16946915D01*
X29782190Y17010599D01*
X29748337Y17051850D01*
X29707086Y17102114D01*
X29651279Y17206522D01*
X29616913Y17319809D01*
X29608217Y17408108D01*
X29608218Y18867145D01*
X29616914Y18955444D01*
X29651280Y19068731D01*
X29707087Y19173139D01*
X29782191Y19264653D01*
X29873705Y19339757D01*
X29978113Y19395564D01*
X30091400Y19429930D01*
X30209217Y19441533D01*
X30327035Y19429930D01*
X30327035Y19429930D01*
G37*
G36*
X28327035Y19429930D02*
X28440322Y19395564D01*
X28544730Y19339757D01*
X28636244Y19264653D01*
X28711348Y19173139D01*
X28767155Y19068731D01*
X28801521Y18955444D01*
X28810217Y18867145D01*
X28810217Y17408107D01*
X28801521Y17319808D01*
X28767155Y17206521D01*
X28711348Y17102114D01*
X28711347Y17102113D01*
X28636244Y17010599D01*
X28594993Y16976746D01*
X28544729Y16935495D01*
X28440321Y16879688D01*
X28327034Y16845322D01*
X28209217Y16833719D01*
X28091399Y16845322D01*
X27978112Y16879688D01*
X27873705Y16935495D01*
X27859789Y16946915D01*
X27782190Y17010599D01*
X27748337Y17051850D01*
X27707086Y17102114D01*
X27651279Y17206522D01*
X27616913Y17319809D01*
X27608217Y17408108D01*
X27608218Y18867145D01*
X27616914Y18955444D01*
X27651280Y19068731D01*
X27707087Y19173139D01*
X27782191Y19264653D01*
X27873705Y19339757D01*
X27978113Y19395564D01*
X28091400Y19429930D01*
X28209217Y19441533D01*
X28327035Y19429930D01*
X28327035Y19429930D01*
G37*
G36*
X26327035Y19429930D02*
X26440322Y19395564D01*
X26544730Y19339757D01*
X26636244Y19264653D01*
X26711348Y19173139D01*
X26767155Y19068731D01*
X26801521Y18955444D01*
X26810217Y18867145D01*
X26810217Y17408107D01*
X26801521Y17319808D01*
X26767155Y17206521D01*
X26711348Y17102114D01*
X26711347Y17102113D01*
X26636244Y17010599D01*
X26594993Y16976746D01*
X26544729Y16935495D01*
X26440321Y16879688D01*
X26327034Y16845322D01*
X26209217Y16833719D01*
X26091399Y16845322D01*
X25978112Y16879688D01*
X25873705Y16935495D01*
X25859789Y16946915D01*
X25782190Y17010599D01*
X25748337Y17051850D01*
X25707086Y17102114D01*
X25651279Y17206522D01*
X25616913Y17319809D01*
X25608217Y17408108D01*
X25608218Y18867145D01*
X25616914Y18955444D01*
X25651280Y19068731D01*
X25707087Y19173139D01*
X25782191Y19264653D01*
X25873705Y19339757D01*
X25978113Y19395564D01*
X26091400Y19429930D01*
X26209217Y19441533D01*
X26327035Y19429930D01*
X26327035Y19429930D01*
G37*
G36*
X24327035Y19429930D02*
X24440322Y19395564D01*
X24544730Y19339757D01*
X24636244Y19264653D01*
X24711348Y19173139D01*
X24767155Y19068731D01*
X24801521Y18955444D01*
X24810217Y18867145D01*
X24810217Y17408107D01*
X24801521Y17319808D01*
X24767155Y17206521D01*
X24711348Y17102114D01*
X24711347Y17102113D01*
X24636244Y17010599D01*
X24594993Y16976746D01*
X24544729Y16935495D01*
X24440321Y16879688D01*
X24327034Y16845322D01*
X24209217Y16833719D01*
X24091399Y16845322D01*
X23978112Y16879688D01*
X23873705Y16935495D01*
X23859789Y16946915D01*
X23782190Y17010599D01*
X23748337Y17051850D01*
X23707086Y17102114D01*
X23651279Y17206522D01*
X23616913Y17319809D01*
X23608217Y17408108D01*
X23608218Y18867145D01*
X23616914Y18955444D01*
X23651280Y19068731D01*
X23707087Y19173139D01*
X23782191Y19264653D01*
X23873705Y19339757D01*
X23978113Y19395564D01*
X24091400Y19429930D01*
X24209217Y19441533D01*
X24327035Y19429930D01*
X24327035Y19429930D01*
G37*
G36*
X22327035Y19429930D02*
X22440322Y19395564D01*
X22544730Y19339757D01*
X22636244Y19264653D01*
X22711348Y19173139D01*
X22767155Y19068731D01*
X22801521Y18955444D01*
X22810217Y18867145D01*
X22810217Y17408107D01*
X22801521Y17319808D01*
X22767155Y17206521D01*
X22711348Y17102114D01*
X22711347Y17102113D01*
X22636244Y17010599D01*
X22594993Y16976746D01*
X22544729Y16935495D01*
X22440321Y16879688D01*
X22327034Y16845322D01*
X22209217Y16833719D01*
X22091399Y16845322D01*
X21978112Y16879688D01*
X21873705Y16935495D01*
X21859789Y16946915D01*
X21782190Y17010599D01*
X21748337Y17051850D01*
X21707086Y17102114D01*
X21651279Y17206522D01*
X21616913Y17319809D01*
X21608217Y17408108D01*
X21608218Y18867145D01*
X21616914Y18955444D01*
X21651280Y19068731D01*
X21707087Y19173139D01*
X21782191Y19264653D01*
X21873705Y19339757D01*
X21978113Y19395564D01*
X22091400Y19429930D01*
X22209217Y19441533D01*
X22327035Y19429930D01*
X22327035Y19429930D01*
G37*
G36*
X36810217Y16836626D02*
X35608217Y16836626D01*
X35608217Y19438626D01*
X36810217Y19438626D01*
X36810217Y16836626D01*
X36810217Y16836626D01*
G37*
G36*
X20216820Y19538687D02*
X20216823Y19538686D01*
X20216824Y19538686D01*
X20377238Y19490025D01*
X20377240Y19490024D01*
X20377243Y19490023D01*
X20525078Y19411005D01*
X20654659Y19304659D01*
X20761005Y19175078D01*
X20840023Y19027244D01*
X20840023Y19027243D01*
X20840025Y19027239D01*
X20861804Y18955442D01*
X20888687Y18866821D01*
X20901000Y18741804D01*
X20901000Y18258197D01*
X20888687Y18133180D01*
X20888686Y18133178D01*
X20888686Y18133175D01*
X20840025Y17972761D01*
X20840023Y17972756D01*
X20761005Y17824922D01*
X20654659Y17695341D01*
X20525078Y17588995D01*
X20377244Y17509977D01*
X20377241Y17509976D01*
X20377239Y17509975D01*
X20216825Y17461314D01*
X20216824Y17461314D01*
X20216821Y17461313D01*
X20050000Y17444883D01*
X19883180Y17461313D01*
X19883177Y17461314D01*
X19883176Y17461314D01*
X19722762Y17509975D01*
X19722760Y17509976D01*
X19722757Y17509977D01*
X19574923Y17588995D01*
X19445344Y17695339D01*
X19338993Y17824926D01*
X19259977Y17972756D01*
X19211313Y18133179D01*
X19199000Y18258196D01*
X19199000Y18741803D01*
X19211313Y18866820D01*
X19211314Y18866824D01*
X19259975Y19027238D01*
X19259976Y19027240D01*
X19259977Y19027243D01*
X19338995Y19175078D01*
X19445341Y19304659D01*
X19574922Y19411005D01*
X19722756Y19490023D01*
X19722759Y19490024D01*
X19722761Y19490025D01*
X19883175Y19538686D01*
X19883176Y19538686D01*
X19883179Y19538687D01*
X20050000Y19555117D01*
X20216820Y19538687D01*
X20216820Y19538687D01*
G37*
M02*
