G04 #@! TF.GenerationSoftware,KiCad,Pcbnew,5.0.2-bee76a0~70~ubuntu18.04.1*
G04 #@! TF.CreationDate,2019-11-03T19:10:38-05:00*
G04 #@! TF.ProjectId,ESP-AHT10-Extra,4553502d-4148-4543-9130-2d4578747261,rev?*
G04 #@! TF.SameCoordinates,PX7bfa480PY66c2270*
G04 #@! TF.FileFunction,Copper,L2,Bot*
G04 #@! TF.FilePolarity,Positive*
%FSLAX46Y46*%
G04 Gerber Fmt 4.6, Leading zero omitted, Abs format (unit mm)*
G04 Created by KiCad (PCBNEW 5.0.2-bee76a0~70~ubuntu18.04.1) date Sun 03 Nov 2019 07:10:38 PM EST*
%MOMM*%
%LPD*%
G01*
G04 APERTURE LIST*
G04 #@! TA.AperFunction,SMDPad,CuDef*
%ADD10R,1.000000X1.250000*%
G04 #@! TD*
G04 #@! TA.AperFunction,SMDPad,CuDef*
%ADD11R,1.250000X1.000000*%
G04 #@! TD*
G04 #@! TA.AperFunction,ConnectorPad*
%ADD12R,8.000000X1.900000*%
G04 #@! TD*
G04 #@! TA.AperFunction,ConnectorPad*
%ADD13R,7.500000X2.000000*%
G04 #@! TD*
G04 #@! TA.AperFunction,SMDPad,CuDef*
%ADD14R,1.300000X0.700000*%
G04 #@! TD*
G04 #@! TA.AperFunction,SMDPad,CuDef*
%ADD15R,0.700000X1.300000*%
G04 #@! TD*
G04 #@! TA.AperFunction,SMDPad,CuDef*
%ADD16R,1.550000X0.600000*%
G04 #@! TD*
G04 #@! TA.AperFunction,SMDPad,CuDef*
%ADD17R,0.650000X1.060000*%
G04 #@! TD*
G04 #@! TA.AperFunction,ComponentPad*
%ADD18R,1.100000X2.500000*%
G04 #@! TD*
G04 #@! TA.AperFunction,ComponentPad*
%ADD19O,1.100000X2.500000*%
G04 #@! TD*
G04 #@! TA.AperFunction,SMDPad,CuDef*
%ADD20O,0.800000X1.000000*%
G04 #@! TD*
G04 #@! TA.AperFunction,SMDPad,CuDef*
%ADD21R,0.800000X1.000000*%
G04 #@! TD*
G04 #@! TA.AperFunction,ComponentPad*
%ADD22O,1.600000X2.000000*%
G04 #@! TD*
G04 #@! TA.AperFunction,ViaPad*
%ADD23C,1.200000*%
G04 #@! TD*
G04 #@! TA.AperFunction,Conductor*
%ADD24C,0.300000*%
G04 #@! TD*
G04 #@! TA.AperFunction,Conductor*
%ADD25C,0.500000*%
G04 #@! TD*
G04 #@! TA.AperFunction,Conductor*
%ADD26C,0.400000*%
G04 #@! TD*
G04 #@! TA.AperFunction,Conductor*
%ADD27C,0.254000*%
G04 #@! TD*
G04 APERTURE END LIST*
D10*
G04 #@! TO.P,C1,1*
G04 #@! TO.N,3V3*
X18000000Y6750000D03*
G04 #@! TO.P,C1,2*
G04 #@! TO.N,GND*
X16000000Y6750000D03*
G04 #@! TD*
D11*
G04 #@! TO.P,C2,2*
G04 #@! TO.N,GND*
X21500000Y13041380D03*
G04 #@! TO.P,C2,1*
G04 #@! TO.N,Net-(C2-Pad1)*
X21500000Y15041380D03*
G04 #@! TD*
G04 #@! TO.P,C3,2*
G04 #@! TO.N,3V3*
X27355703Y15041380D03*
G04 #@! TO.P,C3,1*
G04 #@! TO.N,GND*
X27355703Y13041380D03*
G04 #@! TD*
G04 #@! TO.P,C4,1*
G04 #@! TO.N,3V3*
X29250000Y15000000D03*
G04 #@! TO.P,C4,2*
G04 #@! TO.N,GND*
X29250000Y13000000D03*
G04 #@! TD*
D10*
G04 #@! TO.P,C5,2*
G04 #@! TO.N,GND*
X36500000Y12000000D03*
G04 #@! TO.P,C5,1*
G04 #@! TO.N,3V3*
X34500000Y12000000D03*
G04 #@! TD*
D12*
G04 #@! TO.P,J1,1*
G04 #@! TO.N,Net-(C2-Pad1)*
X4959217Y14197626D03*
G04 #@! TO.P,J1,4*
G04 #@! TO.N,GND*
X4959217Y6577626D03*
D13*
G04 #@! TO.P,J1,3*
G04 #@! TO.N,UD+*
X5209217Y9087626D03*
G04 #@! TO.P,J1,2*
G04 #@! TO.N,UD-*
X5209217Y11687626D03*
G04 #@! TD*
D14*
G04 #@! TO.P,R1,1*
G04 #@! TO.N,3V3*
X34355703Y13591380D03*
G04 #@! TO.P,R1,2*
G04 #@! TO.N,Net-(R1-Pad2)*
X34355703Y15491380D03*
G04 #@! TD*
G04 #@! TO.P,R2,1*
G04 #@! TO.N,Net-(R2-Pad1)*
X32355703Y13591380D03*
G04 #@! TO.P,R2,2*
G04 #@! TO.N,Net-(R2-Pad2)*
X32355703Y15491380D03*
G04 #@! TD*
G04 #@! TO.P,R3,2*
G04 #@! TO.N,Net-(R2-Pad1)*
X36355703Y15541380D03*
G04 #@! TO.P,R3,1*
G04 #@! TO.N,3V3*
X36355703Y13641380D03*
G04 #@! TD*
D15*
G04 #@! TO.P,R4,2*
G04 #@! TO.N,GND*
X21905703Y5541380D03*
G04 #@! TO.P,R4,1*
G04 #@! TO.N,Net-(R4-Pad1)*
X23805703Y5541380D03*
G04 #@! TD*
G04 #@! TO.P,R5,2*
G04 #@! TO.N,Net-(R5-Pad2)*
X29905703Y10541380D03*
G04 #@! TO.P,R5,1*
G04 #@! TO.N,3V3*
X31805703Y10541380D03*
G04 #@! TD*
G04 #@! TO.P,R6,1*
G04 #@! TO.N,3V3*
X29905703Y8541380D03*
G04 #@! TO.P,R6,2*
G04 #@! TO.N,SDA*
X31805703Y8541380D03*
G04 #@! TD*
G04 #@! TO.P,R7,2*
G04 #@! TO.N,SCL*
X31805703Y6541380D03*
G04 #@! TO.P,R7,1*
G04 #@! TO.N,3V3*
X29905703Y6541380D03*
G04 #@! TD*
D16*
G04 #@! TO.P,U1,1*
G04 #@! TO.N,UD+*
X13259217Y8532626D03*
G04 #@! TO.P,U1,2*
G04 #@! TO.N,UD-*
X13259217Y9802626D03*
G04 #@! TO.P,U1,3*
G04 #@! TO.N,GND*
X13259217Y11072626D03*
G04 #@! TO.P,U1,4*
G04 #@! TO.N,N/C*
X13259217Y12342626D03*
G04 #@! TO.P,U1,5*
G04 #@! TO.N,3V3*
X18659217Y12342626D03*
G04 #@! TO.P,U1,6*
G04 #@! TO.N,eRX*
X18659217Y11072626D03*
G04 #@! TO.P,U1,7*
G04 #@! TO.N,eTX*
X18659217Y9802626D03*
G04 #@! TO.P,U1,8*
G04 #@! TO.N,3V3*
X18659217Y8532626D03*
G04 #@! TD*
D17*
G04 #@! TO.P,U2,1*
G04 #@! TO.N,Net-(C2-Pad1)*
X25305703Y12941380D03*
G04 #@! TO.P,U2,2*
G04 #@! TO.N,GND*
X24355703Y12941380D03*
G04 #@! TO.P,U2,3*
G04 #@! TO.N,Net-(C2-Pad1)*
X23405703Y12941380D03*
G04 #@! TO.P,U2,4*
G04 #@! TO.N,N/C*
X23405703Y15141380D03*
G04 #@! TO.P,U2,5*
G04 #@! TO.N,3V3*
X25305703Y15141380D03*
G04 #@! TD*
D18*
G04 #@! TO.P,U3,1*
G04 #@! TO.N,Net-(R2-Pad1)*
X36209217Y18137626D03*
D19*
G04 #@! TO.P,U3,2*
G04 #@! TO.N,N/C*
X34209217Y18137626D03*
G04 #@! TO.P,U3,3*
G04 #@! TO.N,Net-(R1-Pad2)*
X32209217Y18137626D03*
G04 #@! TO.P,U3,4*
G04 #@! TO.N,Net-(R2-Pad2)*
X30209217Y18137626D03*
G04 #@! TO.P,U3,5*
G04 #@! TO.N,N/C*
X28209217Y18137626D03*
G04 #@! TO.P,U3,6*
X26209217Y18137626D03*
G04 #@! TO.P,U3,7*
X24209217Y18137626D03*
G04 #@! TO.P,U3,8*
G04 #@! TO.N,3V3*
X22209217Y18137626D03*
G04 #@! TO.P,U3,9*
G04 #@! TO.N,GND*
X22209217Y2737626D03*
G04 #@! TO.P,U3,10*
G04 #@! TO.N,Net-(R4-Pad1)*
X24209217Y2837626D03*
G04 #@! TO.P,U3,11*
G04 #@! TO.N,N/C*
X26209217Y2737626D03*
G04 #@! TO.P,U3,12*
G04 #@! TO.N,Net-(R5-Pad2)*
X28209217Y2737626D03*
G04 #@! TO.P,U3,13*
G04 #@! TO.N,SDA*
X30209217Y2737626D03*
G04 #@! TO.P,U3,14*
G04 #@! TO.N,SCL*
X32209217Y2737626D03*
G04 #@! TO.P,U3,15*
G04 #@! TO.N,eRX*
X34209217Y2737626D03*
G04 #@! TO.P,U3,16*
G04 #@! TO.N,eTX*
X36209217Y2737626D03*
G04 #@! TD*
D20*
G04 #@! TO.P,U4,1*
G04 #@! TO.N,GND*
X37125703Y7191380D03*
D21*
G04 #@! TO.P,U4,2*
G04 #@! TO.N,SDA*
X35855703Y7191380D03*
G04 #@! TO.P,U4,3*
G04 #@! TO.N,SCL*
X34585703Y7191380D03*
G04 #@! TO.P,U4,4*
G04 #@! TO.N,3V3*
X34585703Y9891380D03*
G04 #@! TO.P,U4,5*
G04 #@! TO.N,GND*
X35855703Y9891380D03*
G04 #@! TO.P,U4,6*
G04 #@! TO.N,N/C*
X37125703Y9891380D03*
G04 #@! TD*
D22*
G04 #@! TO.P,SW1,2*
G04 #@! TO.N,GND*
X13450000Y18500000D03*
G04 #@! TO.P,SW1,1*
G04 #@! TO.N,Net-(R2-Pad2)*
X20050000Y18500000D03*
G04 #@! TD*
G04 #@! TO.P,SW2,1*
G04 #@! TO.N,Net-(R5-Pad2)*
X13450000Y2250000D03*
G04 #@! TO.P,SW2,2*
G04 #@! TO.N,GND*
X20050000Y2250000D03*
G04 #@! TD*
D23*
G04 #@! TO.N,3V3*
X17000000Y13250000D03*
X17250022Y17000000D03*
G04 #@! TO.N,GND*
X13500004Y14000000D03*
X13499998Y16950010D03*
X27250000Y11500000D03*
X37200000Y5500000D03*
G04 #@! TO.N,Net-(R5-Pad2)*
X14250000Y4250000D03*
X27750000Y4750000D03*
G04 #@! TO.N,eRX*
X34000000Y4500000D03*
X21249990Y8500000D03*
G04 #@! TO.N,eTX*
X21500000Y10050013D03*
X35650047Y5486447D03*
G04 #@! TD*
D24*
G04 #@! TO.N,3V3*
X18605703Y8479112D02*
X18659217Y8532626D01*
X29905703Y6541380D02*
X29905703Y8541380D01*
X34585703Y11311380D02*
X34355703Y11541380D01*
X34585703Y9891380D02*
X34585703Y11311380D01*
X34405703Y13641380D02*
X34355703Y13591380D01*
X36355703Y13641380D02*
X34405703Y13641380D01*
X34355703Y13591380D02*
X34355703Y11541380D01*
X31805703Y10241380D02*
X31805703Y10541380D01*
X29905703Y8641380D02*
X30855703Y9591380D01*
X29905703Y8541380D02*
X29905703Y8641380D01*
X30855703Y9591380D02*
X31155703Y9591380D01*
X31155703Y9591380D02*
X31805703Y10241380D01*
X31855703Y10641380D02*
X31800002Y10697081D01*
X31800002Y11151472D02*
X31800002Y12000000D01*
X30900000Y12900002D02*
X31800002Y12000000D01*
X30900000Y13350000D02*
X30900000Y12900002D01*
X29250000Y15000000D02*
X30900000Y13350000D01*
X31800002Y10697081D02*
X31800002Y11151472D01*
X31805703Y10541380D02*
X33191380Y10541380D01*
X34191380Y11541380D02*
X34355703Y11541380D01*
X33191380Y10541380D02*
X34191380Y11541380D01*
X25305703Y15346380D02*
X25305703Y15141380D01*
X24264467Y16387616D02*
X25305703Y15346380D01*
X23259227Y16387616D02*
X24264467Y16387616D01*
X22209217Y17437626D02*
X23259227Y16387616D01*
X27255703Y15141380D02*
X27355703Y15041380D01*
X25305703Y15141380D02*
X27255703Y15141380D01*
X29208620Y15041380D02*
X29250000Y15000000D01*
X27355703Y15041380D02*
X29208620Y15041380D01*
X17156949Y12342626D02*
X18659217Y12342626D01*
X16750000Y11935677D02*
X17156949Y12342626D01*
X16750000Y8847083D02*
X16750000Y11935677D01*
X18659217Y8532626D02*
X17064457Y8532626D01*
X17064457Y8532626D02*
X16750000Y8847083D01*
X18659217Y7409217D02*
X18000000Y6750000D01*
X18659217Y8532626D02*
X18659217Y7409217D01*
X22209217Y17437626D02*
X21771591Y17000000D01*
X18098550Y17000000D02*
X17250022Y17000000D01*
X21771591Y17000000D02*
X18098550Y17000000D01*
X18659217Y12342626D02*
X18659217Y12590783D01*
X18000000Y13250000D02*
X17000000Y13250000D01*
X18659217Y12590783D02*
X18000000Y13250000D01*
G04 #@! TO.N,GND*
X35855703Y11041380D02*
X35855703Y9891380D01*
X36355703Y11541380D02*
X35855703Y11041380D01*
X37125703Y8024297D02*
X37125703Y7191380D01*
X35855703Y9891380D02*
X35855703Y9294297D01*
X35855703Y9294297D02*
X37125703Y8024297D01*
X22755001Y11911379D02*
X21625000Y13041380D01*
X24155702Y11911379D02*
X22755001Y11911379D01*
X21625000Y13041380D02*
X21500000Y13041380D01*
X24355703Y12111380D02*
X24155702Y11911379D01*
X24355703Y12941380D02*
X24355703Y12111380D01*
D25*
X15827626Y6577626D02*
X16000000Y6750000D01*
X4959217Y6577626D02*
X15827626Y6577626D01*
D24*
X15250000Y7750000D02*
X16000000Y7000000D01*
X15250000Y10156843D02*
X15250000Y7750000D01*
X16000000Y7000000D02*
X16000000Y6750000D01*
X14334217Y11072626D02*
X15250000Y10156843D01*
X14334217Y11072626D02*
X13259217Y11072626D01*
X21021591Y2250000D02*
X22209217Y3437626D01*
X20050000Y2250000D02*
X21021591Y2250000D01*
X22209217Y5237866D02*
X21905703Y5541380D01*
X22209217Y3437626D02*
X22209217Y5237866D01*
D26*
X36664856Y937616D02*
X37309227Y1581987D01*
X23853578Y937616D02*
X36664856Y937616D01*
X22209217Y2581977D02*
X23853578Y937616D01*
X22209217Y3437626D02*
X22209217Y2581977D01*
D24*
X14599999Y12900005D02*
X14100003Y13400001D01*
X14100003Y13400001D02*
X13500004Y14000000D01*
X14599999Y11338408D02*
X14599999Y12900005D01*
X14334217Y11072626D02*
X14599999Y11338408D01*
X13450000Y18500000D02*
X13450000Y17000008D01*
X13450000Y17000008D02*
X13499998Y16950010D01*
D26*
X27355703Y13041380D02*
X27355703Y11605703D01*
X27355703Y11605703D02*
X27250000Y11500000D01*
X37125703Y5574297D02*
X37200000Y5500000D01*
X37125703Y7191380D02*
X37125703Y5574297D01*
X37309227Y1581987D02*
X37200000Y5500000D01*
D24*
G04 #@! TO.N,Net-(C2-Pad1)*
X23405703Y13135677D02*
X23405703Y12941380D01*
X21500000Y15041380D02*
X23405703Y13135677D01*
X25105702Y13971381D02*
X25305703Y13771380D01*
X23605704Y13971381D02*
X25105702Y13971381D01*
X25305703Y13771380D02*
X25305703Y12941380D01*
X23405703Y13771380D02*
X23605704Y13971381D01*
X23405703Y12941380D02*
X23405703Y13771380D01*
D25*
X19816390Y15599990D02*
X20375000Y15041380D01*
X20375000Y15041380D02*
X21500000Y15041380D01*
X9459217Y14197626D02*
X10861581Y15599990D01*
X4959217Y14197626D02*
X9459217Y14197626D01*
X10861581Y15599990D02*
X19816390Y15599990D01*
G04 #@! TO.N,UD+*
X13250463Y8541380D02*
X13259217Y8532626D01*
X5209217Y8837626D02*
X5505463Y8541380D01*
X11984217Y8532626D02*
X13259217Y8532626D01*
X10014217Y8532626D02*
X11984217Y8532626D01*
X9459217Y9087626D02*
X10014217Y8532626D01*
X5209217Y9087626D02*
X9459217Y9087626D01*
G04 #@! TO.N,UD-*
X11094217Y9802626D02*
X11984217Y9802626D01*
X9459217Y11437626D02*
X11094217Y9802626D01*
X11984217Y9802626D02*
X13259217Y9802626D01*
X5209217Y11437626D02*
X9459217Y11437626D01*
D24*
G04 #@! TO.N,Net-(R1-Pad2)*
X32459457Y17437626D02*
X32209217Y17437626D01*
X33405703Y16491380D02*
X32459457Y17437626D01*
X33405703Y16241140D02*
X33405703Y16491380D01*
X34355703Y15491380D02*
X34155463Y15491380D01*
X34155463Y15491380D02*
X33405703Y16241140D01*
G04 #@! TO.N,Net-(R2-Pad1)*
X36209217Y15687866D02*
X36355703Y15541380D01*
X36209217Y17437626D02*
X36209217Y15687866D01*
X32505703Y13591380D02*
X32355703Y13591380D01*
X33455703Y14541380D02*
X32505703Y13591380D01*
X35155703Y14541380D02*
X33455703Y14541380D01*
X36355703Y15541380D02*
X36155703Y15541380D01*
X36155703Y15541380D02*
X35155703Y14541380D01*
G04 #@! TO.N,Net-(R2-Pad2)*
X30209217Y16387866D02*
X30209217Y17437626D01*
X32355703Y15491380D02*
X31105703Y15491380D01*
X31105703Y15491380D02*
X30209217Y16387866D01*
D26*
X30209217Y18393275D02*
X30209217Y17437626D01*
X20050000Y18700000D02*
X21287636Y19937636D01*
X28664856Y19937636D02*
X30209217Y18393275D01*
X21287636Y19937636D02*
X28664856Y19937636D01*
X20050000Y18500000D02*
X20050000Y18700000D01*
D24*
G04 #@! TO.N,Net-(R4-Pad1)*
X24209217Y5137866D02*
X23805703Y5541380D01*
X24209217Y3437626D02*
X24209217Y5137866D01*
G04 #@! TO.N,Net-(R5-Pad2)*
X29255703Y10541380D02*
X29905703Y10541380D01*
X28209217Y9494894D02*
X29255703Y10541380D01*
X28209217Y3437626D02*
X28209217Y9494894D01*
X13450000Y3450000D02*
X14250000Y4250000D01*
X13450000Y2250000D02*
X13450000Y3450000D01*
X28250000Y3478409D02*
X28209217Y3437626D01*
X27750000Y4750000D02*
X28250000Y4250000D01*
X28250000Y4250000D02*
X28250000Y3478409D01*
G04 #@! TO.N,SDA*
X31805703Y8391380D02*
X31805703Y8541380D01*
X30855703Y7441380D02*
X31805703Y8391380D01*
X30209217Y3437626D02*
X30855703Y4084112D01*
X30855703Y4084112D02*
X30855703Y7441380D01*
X35208620Y8541380D02*
X32455703Y8541380D01*
X32455703Y8541380D02*
X31805703Y8541380D01*
X35855703Y7191380D02*
X35855703Y7894297D01*
X35855703Y7894297D02*
X35208620Y8541380D01*
G04 #@! TO.N,SCL*
X33935703Y6541380D02*
X34585703Y7191380D01*
X31805703Y6541380D02*
X33935703Y6541380D01*
X32055703Y6291380D02*
X31805703Y6541380D01*
X32209217Y3437626D02*
X32055703Y3591140D01*
X32055703Y3591140D02*
X32055703Y6291380D01*
G04 #@! TO.N,eRX*
X34000000Y3646843D02*
X34000000Y3651472D01*
X34000000Y3651472D02*
X34000000Y4500000D01*
X34209217Y3437626D02*
X34000000Y3646843D01*
X18659217Y11072626D02*
X19734217Y11072626D01*
X19734217Y11072626D02*
X19811605Y11150014D01*
X22098518Y8500000D02*
X21249990Y8500000D01*
X22600005Y9001487D02*
X22098518Y8500000D01*
X19811605Y11150014D02*
X22028001Y11150014D01*
X22600005Y10578010D02*
X22600005Y9001487D01*
X22028001Y11150014D02*
X22600005Y10578010D01*
G04 #@! TO.N,eTX*
X21252613Y9802626D02*
X21500000Y10050013D01*
X18659217Y9802626D02*
X21252613Y9802626D01*
X35650047Y4637919D02*
X35650047Y5486447D01*
X35650047Y3996796D02*
X35650047Y4637919D01*
X36209217Y3437626D02*
X35650047Y3996796D01*
G04 #@! TD*
D27*
G04 #@! TO.N,GND*
G36*
X37515001Y735000D02*
X20583521Y735000D01*
X20954424Y929363D01*
X21283017Y1323133D01*
X21461099Y1109902D01*
X21873071Y894228D01*
X21899473Y893823D01*
X22082217Y1019265D01*
X22082217Y2610626D01*
X22062217Y2610626D01*
X22062217Y2864626D01*
X22082217Y2864626D01*
X22082217Y2884626D01*
X22336217Y2884626D01*
X22336217Y2864626D01*
X22356217Y2864626D01*
X22356217Y2610626D01*
X22336217Y2610626D01*
X22336217Y1019265D01*
X22518961Y893823D01*
X22545363Y894228D01*
X22957335Y1109902D01*
X23242547Y1451408D01*
X23354880Y1283289D01*
X23746853Y1021381D01*
X24209217Y929411D01*
X24671580Y1021381D01*
X25063554Y1283289D01*
X25175808Y1451289D01*
X25354880Y1183289D01*
X25746853Y921381D01*
X26209217Y829411D01*
X26671580Y921381D01*
X27063554Y1183289D01*
X27209217Y1401289D01*
X27354880Y1183289D01*
X27746853Y921381D01*
X28209217Y829411D01*
X28671580Y921381D01*
X29063554Y1183289D01*
X29209217Y1401289D01*
X29354880Y1183289D01*
X29746853Y921381D01*
X30209217Y829411D01*
X30671580Y921381D01*
X31063554Y1183289D01*
X31209217Y1401289D01*
X31354880Y1183289D01*
X31746853Y921381D01*
X32209217Y829411D01*
X32671580Y921381D01*
X33063554Y1183289D01*
X33209217Y1401289D01*
X33354880Y1183289D01*
X33746853Y921381D01*
X34209217Y829411D01*
X34671580Y921381D01*
X35063554Y1183289D01*
X35209217Y1401289D01*
X35354880Y1183289D01*
X35746853Y921381D01*
X36209217Y829411D01*
X36671580Y921381D01*
X37063554Y1183289D01*
X37325462Y1575262D01*
X37394217Y1920916D01*
X37394217Y3554336D01*
X37325462Y3899990D01*
X37063554Y4291963D01*
X36671581Y4553871D01*
X36498460Y4588307D01*
X36697029Y4786876D01*
X36749843Y4914380D01*
X37515001Y4914380D01*
X37515001Y735000D01*
X37515001Y735000D01*
G37*
X37515001Y735000D02*
X20583521Y735000D01*
X20954424Y929363D01*
X21283017Y1323133D01*
X21461099Y1109902D01*
X21873071Y894228D01*
X21899473Y893823D01*
X22082217Y1019265D01*
X22082217Y2610626D01*
X22062217Y2610626D01*
X22062217Y2864626D01*
X22082217Y2864626D01*
X22082217Y2884626D01*
X22336217Y2884626D01*
X22336217Y2864626D01*
X22356217Y2864626D01*
X22356217Y2610626D01*
X22336217Y2610626D01*
X22336217Y1019265D01*
X22518961Y893823D01*
X22545363Y894228D01*
X22957335Y1109902D01*
X23242547Y1451408D01*
X23354880Y1283289D01*
X23746853Y1021381D01*
X24209217Y929411D01*
X24671580Y1021381D01*
X25063554Y1283289D01*
X25175808Y1451289D01*
X25354880Y1183289D01*
X25746853Y921381D01*
X26209217Y829411D01*
X26671580Y921381D01*
X27063554Y1183289D01*
X27209217Y1401289D01*
X27354880Y1183289D01*
X27746853Y921381D01*
X28209217Y829411D01*
X28671580Y921381D01*
X29063554Y1183289D01*
X29209217Y1401289D01*
X29354880Y1183289D01*
X29746853Y921381D01*
X30209217Y829411D01*
X30671580Y921381D01*
X31063554Y1183289D01*
X31209217Y1401289D01*
X31354880Y1183289D01*
X31746853Y921381D01*
X32209217Y829411D01*
X32671580Y921381D01*
X33063554Y1183289D01*
X33209217Y1401289D01*
X33354880Y1183289D01*
X33746853Y921381D01*
X34209217Y829411D01*
X34671580Y921381D01*
X35063554Y1183289D01*
X35209217Y1401289D01*
X35354880Y1183289D01*
X35746853Y921381D01*
X36209217Y829411D01*
X36671580Y921381D01*
X37063554Y1183289D01*
X37325462Y1575262D01*
X37394217Y1920916D01*
X37394217Y3554336D01*
X37325462Y3899990D01*
X37063554Y4291963D01*
X36671581Y4553871D01*
X36498460Y4588307D01*
X36697029Y4786876D01*
X36749843Y4914380D01*
X37515001Y4914380D01*
X37515001Y735000D01*
G36*
X19687575Y14477227D02*
X19736951Y14403331D01*
X20029690Y14207728D01*
X20287835Y14156380D01*
X20287839Y14156380D01*
X20375000Y14139043D01*
X20379524Y14139943D01*
X20417191Y14083571D01*
X20478320Y14042726D01*
X20336673Y13901078D01*
X20240000Y13667689D01*
X20240000Y13327130D01*
X20398750Y13168380D01*
X21373000Y13168380D01*
X21373000Y13188380D01*
X21627000Y13188380D01*
X21627000Y13168380D01*
X21647000Y13168380D01*
X21647000Y12914380D01*
X21627000Y12914380D01*
X21627000Y12894380D01*
X21373000Y12894380D01*
X21373000Y12914380D01*
X20398750Y12914380D01*
X20240000Y12755630D01*
X20240000Y12415071D01*
X20336673Y12181682D01*
X20515301Y12003053D01*
X20679561Y11935014D01*
X20060252Y11935014D01*
X20081657Y12042626D01*
X20081657Y12642626D01*
X20032374Y12890391D01*
X19892026Y13100435D01*
X19681982Y13240783D01*
X19434217Y13290066D01*
X19070091Y13290066D01*
X18609749Y13750408D01*
X18565953Y13815953D01*
X18306292Y13989454D01*
X18077316Y14035000D01*
X18077312Y14035000D01*
X18000000Y14050378D01*
X17955105Y14041448D01*
X17699571Y14296982D01*
X17245657Y14485000D01*
X16754343Y14485000D01*
X16300429Y14296982D01*
X15953018Y13949571D01*
X15765000Y13495657D01*
X15765000Y13004343D01*
X15953018Y12550429D01*
X16111056Y12392391D01*
X16010546Y12241968D01*
X15949622Y11935677D01*
X15965001Y11858360D01*
X15965000Y8924395D01*
X15949622Y8847083D01*
X15965000Y8769771D01*
X15965000Y8769768D01*
X16010546Y8540792D01*
X16184047Y8281130D01*
X16249592Y8237334D01*
X16454708Y8032218D01*
X16469554Y8010000D01*
X16285750Y8010000D01*
X16127000Y7851250D01*
X16127000Y6877000D01*
X16147000Y6877000D01*
X16147000Y6623000D01*
X16127000Y6623000D01*
X16127000Y5648750D01*
X16285750Y5490000D01*
X16626309Y5490000D01*
X16859698Y5586673D01*
X17001346Y5728320D01*
X17042191Y5667191D01*
X17252235Y5526843D01*
X17500000Y5477560D01*
X18500000Y5477560D01*
X18747765Y5526843D01*
X18957809Y5667191D01*
X19098157Y5877235D01*
X19147440Y6125000D01*
X19147440Y6317690D01*
X20920703Y6317690D01*
X20920703Y5827130D01*
X21079453Y5668380D01*
X21778703Y5668380D01*
X21778703Y6667630D01*
X21619953Y6826380D01*
X21429394Y6826380D01*
X21196005Y6729707D01*
X21017376Y6551079D01*
X20920703Y6317690D01*
X19147440Y6317690D01*
X19147440Y6787283D01*
X19159625Y6799468D01*
X19225170Y6843264D01*
X19398671Y7102925D01*
X19444217Y7331901D01*
X19444217Y7331905D01*
X19459595Y7409217D01*
X19444217Y7486529D01*
X19444217Y7587175D01*
X19681982Y7634469D01*
X19892026Y7774817D01*
X20032374Y7984861D01*
X20062947Y8138564D01*
X20203008Y7800429D01*
X20550419Y7453018D01*
X21004333Y7265000D01*
X21495647Y7265000D01*
X21949561Y7453018D01*
X22220410Y7723867D01*
X22404810Y7760546D01*
X22664471Y7934047D01*
X22708267Y7999592D01*
X23100413Y8391738D01*
X23165958Y8435534D01*
X23339459Y8695195D01*
X23385005Y8924171D01*
X23385005Y8924175D01*
X23400383Y9001487D01*
X23385005Y9078799D01*
X23385005Y10500698D01*
X23400383Y10578010D01*
X23385005Y10655322D01*
X23385005Y10655326D01*
X23339459Y10884302D01*
X23309120Y10929707D01*
X23209754Y11078419D01*
X23209752Y11078421D01*
X23165958Y11143963D01*
X23100416Y11187757D01*
X22637750Y11650422D01*
X22593954Y11715967D01*
X22334293Y11889468D01*
X22249270Y11906380D01*
X22251310Y11906380D01*
X22484699Y12003053D01*
X22547721Y12066075D01*
X22622894Y11953571D01*
X22832938Y11813223D01*
X23080703Y11763940D01*
X23730703Y11763940D01*
X23868334Y11791316D01*
X23904393Y11776380D01*
X24069953Y11776380D01*
X24228703Y11935130D01*
X24228703Y12013721D01*
X24328860Y12163615D01*
X24355703Y12298565D01*
X24382546Y12163615D01*
X24482703Y12013721D01*
X24482703Y11935130D01*
X24641453Y11776380D01*
X24807013Y11776380D01*
X24843072Y11791316D01*
X24980703Y11763940D01*
X25630703Y11763940D01*
X25878468Y11813223D01*
X26088512Y11953571D01*
X26221483Y12152575D01*
X26371004Y12003053D01*
X26604393Y11906380D01*
X27069953Y11906380D01*
X27228703Y12065130D01*
X27228703Y12914380D01*
X27482703Y12914380D01*
X27482703Y12065130D01*
X27641453Y11906380D01*
X28107013Y11906380D01*
X28258038Y11968936D01*
X28265301Y11961673D01*
X28498690Y11865000D01*
X28964250Y11865000D01*
X29123000Y12023750D01*
X29123000Y12873000D01*
X28498333Y12873000D01*
X28456953Y12914380D01*
X27482703Y12914380D01*
X27228703Y12914380D01*
X27208703Y12914380D01*
X27208703Y13168380D01*
X27228703Y13168380D01*
X27228703Y13188380D01*
X27482703Y13188380D01*
X27482703Y13168380D01*
X28107370Y13168380D01*
X28148750Y13127000D01*
X29123000Y13127000D01*
X29123000Y13147000D01*
X29377000Y13147000D01*
X29377000Y13127000D01*
X29397000Y13127000D01*
X29397000Y12873000D01*
X29377000Y12873000D01*
X29377000Y12023750D01*
X29535750Y11865000D01*
X30001310Y11865000D01*
X30234699Y11961673D01*
X30413327Y12140302D01*
X30453224Y12236621D01*
X31015002Y11674842D01*
X31015002Y11660620D01*
X30997894Y11649189D01*
X30857546Y11439145D01*
X30855703Y11429880D01*
X30853860Y11439145D01*
X30713512Y11649189D01*
X30503468Y11789537D01*
X30255703Y11838820D01*
X29555703Y11838820D01*
X29307938Y11789537D01*
X29097894Y11649189D01*
X28957546Y11439145D01*
X28922476Y11262837D01*
X28689750Y11107333D01*
X28645954Y11041788D01*
X27708807Y10104641D01*
X27643265Y10060847D01*
X27599471Y9995305D01*
X27599468Y9995302D01*
X27469763Y9801185D01*
X27408839Y9494894D01*
X27424218Y9417577D01*
X27424217Y5951811D01*
X27050429Y5796982D01*
X26703018Y5449571D01*
X26515000Y4995657D01*
X26515000Y4585017D01*
X26209217Y4645841D01*
X25746854Y4553871D01*
X25354881Y4291963D01*
X25242626Y4123962D01*
X25063554Y4391963D01*
X24994217Y4438293D01*
X24994217Y5060554D01*
X25009595Y5137866D01*
X24994217Y5215178D01*
X24994217Y5215182D01*
X24948671Y5444158D01*
X24803143Y5661955D01*
X24803143Y6191380D01*
X24753860Y6439145D01*
X24613512Y6649189D01*
X24403468Y6789537D01*
X24155703Y6838820D01*
X23455703Y6838820D01*
X23207938Y6789537D01*
X22997894Y6649189D01*
X22857546Y6439145D01*
X22851982Y6411171D01*
X22794030Y6551079D01*
X22615401Y6729707D01*
X22382012Y6826380D01*
X22191453Y6826380D01*
X22032703Y6667630D01*
X22032703Y5668380D01*
X22052703Y5668380D01*
X22052703Y5414380D01*
X22032703Y5414380D01*
X22032703Y5394380D01*
X21778703Y5394380D01*
X21778703Y5414380D01*
X21079453Y5414380D01*
X20920703Y5255630D01*
X20920703Y4765070D01*
X21017376Y4531681D01*
X21196005Y4353053D01*
X21385334Y4274630D01*
X21163021Y4008439D01*
X21024217Y3564626D01*
X21024217Y3487001D01*
X20954424Y3570637D01*
X20456730Y3831442D01*
X20399039Y3841904D01*
X20177000Y3719915D01*
X20177000Y2377000D01*
X20197000Y2377000D01*
X20197000Y2123000D01*
X20177000Y2123000D01*
X20177000Y2103000D01*
X19923000Y2103000D01*
X19923000Y2123000D01*
X18770529Y2123000D01*
X18618066Y1897114D01*
X18785572Y1360774D01*
X19145576Y929363D01*
X19516479Y735000D01*
X14064893Y735000D01*
X14484576Y1015423D01*
X14801740Y1490091D01*
X14885000Y1908667D01*
X14885000Y2591332D01*
X14882702Y2602886D01*
X18618066Y2602886D01*
X18770529Y2377000D01*
X19923000Y2377000D01*
X19923000Y3719915D01*
X19700961Y3841904D01*
X19643270Y3831442D01*
X19145576Y3570637D01*
X18785572Y3139226D01*
X18618066Y2602886D01*
X14882702Y2602886D01*
X14801740Y3009908D01*
X14732725Y3113197D01*
X14949571Y3203018D01*
X15296982Y3550429D01*
X15485000Y4004343D01*
X15485000Y4495657D01*
X15296982Y4949571D01*
X14949571Y5296982D01*
X14495657Y5485000D01*
X14004343Y5485000D01*
X13550429Y5296982D01*
X13203018Y4949571D01*
X13015000Y4495657D01*
X13015000Y4125157D01*
X12985000Y4095157D01*
X12985000Y4177613D01*
X12999399Y4250000D01*
X12942354Y4536783D01*
X12779905Y4779905D01*
X12536783Y4942354D01*
X12377000Y4974137D01*
X12377000Y6464250D01*
X14865000Y6464250D01*
X14865000Y5998690D01*
X14961673Y5765301D01*
X15140302Y5586673D01*
X15373691Y5490000D01*
X15714250Y5490000D01*
X15873000Y5648750D01*
X15873000Y6623000D01*
X15023750Y6623000D01*
X14865000Y6464250D01*
X12377000Y6464250D01*
X12377000Y7501310D01*
X14865000Y7501310D01*
X14865000Y7035750D01*
X15023750Y6877000D01*
X15873000Y6877000D01*
X15873000Y7851250D01*
X15714250Y8010000D01*
X15373691Y8010000D01*
X15140302Y7913327D01*
X14961673Y7734699D01*
X14865000Y7501310D01*
X12377000Y7501310D01*
X12377000Y7606513D01*
X12484217Y7585186D01*
X14034217Y7585186D01*
X14281982Y7634469D01*
X14492026Y7774817D01*
X14632374Y7984861D01*
X14681657Y8232626D01*
X14681657Y8832626D01*
X14632374Y9080391D01*
X14574085Y9167626D01*
X14632374Y9254861D01*
X14681657Y9502626D01*
X14681657Y10102626D01*
X14632374Y10350391D01*
X14579449Y10429598D01*
X14669217Y10646316D01*
X14669217Y10786876D01*
X14510467Y10945626D01*
X13386217Y10945626D01*
X13386217Y10925626D01*
X13132217Y10925626D01*
X13132217Y10945626D01*
X13112217Y10945626D01*
X13112217Y11199626D01*
X13132217Y11199626D01*
X13132217Y11219626D01*
X13386217Y11219626D01*
X13386217Y11199626D01*
X14510467Y11199626D01*
X14669217Y11358376D01*
X14669217Y11498936D01*
X14579449Y11715654D01*
X14632374Y11794861D01*
X14681657Y12042626D01*
X14681657Y12642626D01*
X14632374Y12890391D01*
X14492026Y13100435D01*
X14281982Y13240783D01*
X14034217Y13290066D01*
X12484217Y13290066D01*
X12377000Y13268739D01*
X12377000Y14714990D01*
X19449812Y14714990D01*
X19687575Y14477227D01*
X19687575Y14477227D01*
G37*
X19687575Y14477227D02*
X19736951Y14403331D01*
X20029690Y14207728D01*
X20287835Y14156380D01*
X20287839Y14156380D01*
X20375000Y14139043D01*
X20379524Y14139943D01*
X20417191Y14083571D01*
X20478320Y14042726D01*
X20336673Y13901078D01*
X20240000Y13667689D01*
X20240000Y13327130D01*
X20398750Y13168380D01*
X21373000Y13168380D01*
X21373000Y13188380D01*
X21627000Y13188380D01*
X21627000Y13168380D01*
X21647000Y13168380D01*
X21647000Y12914380D01*
X21627000Y12914380D01*
X21627000Y12894380D01*
X21373000Y12894380D01*
X21373000Y12914380D01*
X20398750Y12914380D01*
X20240000Y12755630D01*
X20240000Y12415071D01*
X20336673Y12181682D01*
X20515301Y12003053D01*
X20679561Y11935014D01*
X20060252Y11935014D01*
X20081657Y12042626D01*
X20081657Y12642626D01*
X20032374Y12890391D01*
X19892026Y13100435D01*
X19681982Y13240783D01*
X19434217Y13290066D01*
X19070091Y13290066D01*
X18609749Y13750408D01*
X18565953Y13815953D01*
X18306292Y13989454D01*
X18077316Y14035000D01*
X18077312Y14035000D01*
X18000000Y14050378D01*
X17955105Y14041448D01*
X17699571Y14296982D01*
X17245657Y14485000D01*
X16754343Y14485000D01*
X16300429Y14296982D01*
X15953018Y13949571D01*
X15765000Y13495657D01*
X15765000Y13004343D01*
X15953018Y12550429D01*
X16111056Y12392391D01*
X16010546Y12241968D01*
X15949622Y11935677D01*
X15965001Y11858360D01*
X15965000Y8924395D01*
X15949622Y8847083D01*
X15965000Y8769771D01*
X15965000Y8769768D01*
X16010546Y8540792D01*
X16184047Y8281130D01*
X16249592Y8237334D01*
X16454708Y8032218D01*
X16469554Y8010000D01*
X16285750Y8010000D01*
X16127000Y7851250D01*
X16127000Y6877000D01*
X16147000Y6877000D01*
X16147000Y6623000D01*
X16127000Y6623000D01*
X16127000Y5648750D01*
X16285750Y5490000D01*
X16626309Y5490000D01*
X16859698Y5586673D01*
X17001346Y5728320D01*
X17042191Y5667191D01*
X17252235Y5526843D01*
X17500000Y5477560D01*
X18500000Y5477560D01*
X18747765Y5526843D01*
X18957809Y5667191D01*
X19098157Y5877235D01*
X19147440Y6125000D01*
X19147440Y6317690D01*
X20920703Y6317690D01*
X20920703Y5827130D01*
X21079453Y5668380D01*
X21778703Y5668380D01*
X21778703Y6667630D01*
X21619953Y6826380D01*
X21429394Y6826380D01*
X21196005Y6729707D01*
X21017376Y6551079D01*
X20920703Y6317690D01*
X19147440Y6317690D01*
X19147440Y6787283D01*
X19159625Y6799468D01*
X19225170Y6843264D01*
X19398671Y7102925D01*
X19444217Y7331901D01*
X19444217Y7331905D01*
X19459595Y7409217D01*
X19444217Y7486529D01*
X19444217Y7587175D01*
X19681982Y7634469D01*
X19892026Y7774817D01*
X20032374Y7984861D01*
X20062947Y8138564D01*
X20203008Y7800429D01*
X20550419Y7453018D01*
X21004333Y7265000D01*
X21495647Y7265000D01*
X21949561Y7453018D01*
X22220410Y7723867D01*
X22404810Y7760546D01*
X22664471Y7934047D01*
X22708267Y7999592D01*
X23100413Y8391738D01*
X23165958Y8435534D01*
X23339459Y8695195D01*
X23385005Y8924171D01*
X23385005Y8924175D01*
X23400383Y9001487D01*
X23385005Y9078799D01*
X23385005Y10500698D01*
X23400383Y10578010D01*
X23385005Y10655322D01*
X23385005Y10655326D01*
X23339459Y10884302D01*
X23309120Y10929707D01*
X23209754Y11078419D01*
X23209752Y11078421D01*
X23165958Y11143963D01*
X23100416Y11187757D01*
X22637750Y11650422D01*
X22593954Y11715967D01*
X22334293Y11889468D01*
X22249270Y11906380D01*
X22251310Y11906380D01*
X22484699Y12003053D01*
X22547721Y12066075D01*
X22622894Y11953571D01*
X22832938Y11813223D01*
X23080703Y11763940D01*
X23730703Y11763940D01*
X23868334Y11791316D01*
X23904393Y11776380D01*
X24069953Y11776380D01*
X24228703Y11935130D01*
X24228703Y12013721D01*
X24328860Y12163615D01*
X24355703Y12298565D01*
X24382546Y12163615D01*
X24482703Y12013721D01*
X24482703Y11935130D01*
X24641453Y11776380D01*
X24807013Y11776380D01*
X24843072Y11791316D01*
X24980703Y11763940D01*
X25630703Y11763940D01*
X25878468Y11813223D01*
X26088512Y11953571D01*
X26221483Y12152575D01*
X26371004Y12003053D01*
X26604393Y11906380D01*
X27069953Y11906380D01*
X27228703Y12065130D01*
X27228703Y12914380D01*
X27482703Y12914380D01*
X27482703Y12065130D01*
X27641453Y11906380D01*
X28107013Y11906380D01*
X28258038Y11968936D01*
X28265301Y11961673D01*
X28498690Y11865000D01*
X28964250Y11865000D01*
X29123000Y12023750D01*
X29123000Y12873000D01*
X28498333Y12873000D01*
X28456953Y12914380D01*
X27482703Y12914380D01*
X27228703Y12914380D01*
X27208703Y12914380D01*
X27208703Y13168380D01*
X27228703Y13168380D01*
X27228703Y13188380D01*
X27482703Y13188380D01*
X27482703Y13168380D01*
X28107370Y13168380D01*
X28148750Y13127000D01*
X29123000Y13127000D01*
X29123000Y13147000D01*
X29377000Y13147000D01*
X29377000Y13127000D01*
X29397000Y13127000D01*
X29397000Y12873000D01*
X29377000Y12873000D01*
X29377000Y12023750D01*
X29535750Y11865000D01*
X30001310Y11865000D01*
X30234699Y11961673D01*
X30413327Y12140302D01*
X30453224Y12236621D01*
X31015002Y11674842D01*
X31015002Y11660620D01*
X30997894Y11649189D01*
X30857546Y11439145D01*
X30855703Y11429880D01*
X30853860Y11439145D01*
X30713512Y11649189D01*
X30503468Y11789537D01*
X30255703Y11838820D01*
X29555703Y11838820D01*
X29307938Y11789537D01*
X29097894Y11649189D01*
X28957546Y11439145D01*
X28922476Y11262837D01*
X28689750Y11107333D01*
X28645954Y11041788D01*
X27708807Y10104641D01*
X27643265Y10060847D01*
X27599471Y9995305D01*
X27599468Y9995302D01*
X27469763Y9801185D01*
X27408839Y9494894D01*
X27424218Y9417577D01*
X27424217Y5951811D01*
X27050429Y5796982D01*
X26703018Y5449571D01*
X26515000Y4995657D01*
X26515000Y4585017D01*
X26209217Y4645841D01*
X25746854Y4553871D01*
X25354881Y4291963D01*
X25242626Y4123962D01*
X25063554Y4391963D01*
X24994217Y4438293D01*
X24994217Y5060554D01*
X25009595Y5137866D01*
X24994217Y5215178D01*
X24994217Y5215182D01*
X24948671Y5444158D01*
X24803143Y5661955D01*
X24803143Y6191380D01*
X24753860Y6439145D01*
X24613512Y6649189D01*
X24403468Y6789537D01*
X24155703Y6838820D01*
X23455703Y6838820D01*
X23207938Y6789537D01*
X22997894Y6649189D01*
X22857546Y6439145D01*
X22851982Y6411171D01*
X22794030Y6551079D01*
X22615401Y6729707D01*
X22382012Y6826380D01*
X22191453Y6826380D01*
X22032703Y6667630D01*
X22032703Y5668380D01*
X22052703Y5668380D01*
X22052703Y5414380D01*
X22032703Y5414380D01*
X22032703Y5394380D01*
X21778703Y5394380D01*
X21778703Y5414380D01*
X21079453Y5414380D01*
X20920703Y5255630D01*
X20920703Y4765070D01*
X21017376Y4531681D01*
X21196005Y4353053D01*
X21385334Y4274630D01*
X21163021Y4008439D01*
X21024217Y3564626D01*
X21024217Y3487001D01*
X20954424Y3570637D01*
X20456730Y3831442D01*
X20399039Y3841904D01*
X20177000Y3719915D01*
X20177000Y2377000D01*
X20197000Y2377000D01*
X20197000Y2123000D01*
X20177000Y2123000D01*
X20177000Y2103000D01*
X19923000Y2103000D01*
X19923000Y2123000D01*
X18770529Y2123000D01*
X18618066Y1897114D01*
X18785572Y1360774D01*
X19145576Y929363D01*
X19516479Y735000D01*
X14064893Y735000D01*
X14484576Y1015423D01*
X14801740Y1490091D01*
X14885000Y1908667D01*
X14885000Y2591332D01*
X14882702Y2602886D01*
X18618066Y2602886D01*
X18770529Y2377000D01*
X19923000Y2377000D01*
X19923000Y3719915D01*
X19700961Y3841904D01*
X19643270Y3831442D01*
X19145576Y3570637D01*
X18785572Y3139226D01*
X18618066Y2602886D01*
X14882702Y2602886D01*
X14801740Y3009908D01*
X14732725Y3113197D01*
X14949571Y3203018D01*
X15296982Y3550429D01*
X15485000Y4004343D01*
X15485000Y4495657D01*
X15296982Y4949571D01*
X14949571Y5296982D01*
X14495657Y5485000D01*
X14004343Y5485000D01*
X13550429Y5296982D01*
X13203018Y4949571D01*
X13015000Y4495657D01*
X13015000Y4125157D01*
X12985000Y4095157D01*
X12985000Y4177613D01*
X12999399Y4250000D01*
X12942354Y4536783D01*
X12779905Y4779905D01*
X12536783Y4942354D01*
X12377000Y4974137D01*
X12377000Y6464250D01*
X14865000Y6464250D01*
X14865000Y5998690D01*
X14961673Y5765301D01*
X15140302Y5586673D01*
X15373691Y5490000D01*
X15714250Y5490000D01*
X15873000Y5648750D01*
X15873000Y6623000D01*
X15023750Y6623000D01*
X14865000Y6464250D01*
X12377000Y6464250D01*
X12377000Y7501310D01*
X14865000Y7501310D01*
X14865000Y7035750D01*
X15023750Y6877000D01*
X15873000Y6877000D01*
X15873000Y7851250D01*
X15714250Y8010000D01*
X15373691Y8010000D01*
X15140302Y7913327D01*
X14961673Y7734699D01*
X14865000Y7501310D01*
X12377000Y7501310D01*
X12377000Y7606513D01*
X12484217Y7585186D01*
X14034217Y7585186D01*
X14281982Y7634469D01*
X14492026Y7774817D01*
X14632374Y7984861D01*
X14681657Y8232626D01*
X14681657Y8832626D01*
X14632374Y9080391D01*
X14574085Y9167626D01*
X14632374Y9254861D01*
X14681657Y9502626D01*
X14681657Y10102626D01*
X14632374Y10350391D01*
X14579449Y10429598D01*
X14669217Y10646316D01*
X14669217Y10786876D01*
X14510467Y10945626D01*
X13386217Y10945626D01*
X13386217Y10925626D01*
X13132217Y10925626D01*
X13132217Y10945626D01*
X13112217Y10945626D01*
X13112217Y11199626D01*
X13132217Y11199626D01*
X13132217Y11219626D01*
X13386217Y11219626D01*
X13386217Y11199626D01*
X14510467Y11199626D01*
X14669217Y11358376D01*
X14669217Y11498936D01*
X14579449Y11715654D01*
X14632374Y11794861D01*
X14681657Y12042626D01*
X14681657Y12642626D01*
X14632374Y12890391D01*
X14492026Y13100435D01*
X14281982Y13240783D01*
X14034217Y13290066D01*
X12484217Y13290066D01*
X12377000Y13268739D01*
X12377000Y14714990D01*
X19449812Y14714990D01*
X19687575Y14477227D01*
G36*
X19015423Y19734576D02*
X18698260Y19259908D01*
X18615000Y18841332D01*
X18615000Y18158667D01*
X18689327Y17785000D01*
X18211575Y17785000D01*
X17949593Y18046982D01*
X17495679Y18235000D01*
X17004365Y18235000D01*
X16550451Y18046982D01*
X16203040Y17699571D01*
X16015022Y17245657D01*
X16015022Y16754343D01*
X16126592Y16484990D01*
X12996413Y16484990D01*
X12999399Y16500000D01*
X12985000Y16572388D01*
X12985000Y16949093D01*
X13043270Y16918558D01*
X13100961Y16908096D01*
X13323000Y17030085D01*
X13323000Y18373000D01*
X13577000Y18373000D01*
X13577000Y17030085D01*
X13799039Y16908096D01*
X13856730Y16918558D01*
X14354424Y17179363D01*
X14714428Y17610774D01*
X14881934Y18147114D01*
X14729471Y18373000D01*
X13577000Y18373000D01*
X13323000Y18373000D01*
X13303000Y18373000D01*
X13303000Y18627000D01*
X13323000Y18627000D01*
X13323000Y18647000D01*
X13577000Y18647000D01*
X13577000Y18627000D01*
X14729471Y18627000D01*
X14881934Y18852886D01*
X14714428Y19389226D01*
X14354424Y19820637D01*
X13983521Y20015000D01*
X19435106Y20015000D01*
X19015423Y19734576D01*
X19015423Y19734576D01*
G37*
X19015423Y19734576D02*
X18698260Y19259908D01*
X18615000Y18841332D01*
X18615000Y18158667D01*
X18689327Y17785000D01*
X18211575Y17785000D01*
X17949593Y18046982D01*
X17495679Y18235000D01*
X17004365Y18235000D01*
X16550451Y18046982D01*
X16203040Y17699571D01*
X16015022Y17245657D01*
X16015022Y16754343D01*
X16126592Y16484990D01*
X12996413Y16484990D01*
X12999399Y16500000D01*
X12985000Y16572388D01*
X12985000Y16949093D01*
X13043270Y16918558D01*
X13100961Y16908096D01*
X13323000Y17030085D01*
X13323000Y18373000D01*
X13577000Y18373000D01*
X13577000Y17030085D01*
X13799039Y16908096D01*
X13856730Y16918558D01*
X14354424Y17179363D01*
X14714428Y17610774D01*
X14881934Y18147114D01*
X14729471Y18373000D01*
X13577000Y18373000D01*
X13323000Y18373000D01*
X13303000Y18373000D01*
X13303000Y18627000D01*
X13323000Y18627000D01*
X13323000Y18647000D01*
X13577000Y18647000D01*
X13577000Y18627000D01*
X14729471Y18627000D01*
X14881934Y18852886D01*
X14714428Y19389226D01*
X14354424Y19820637D01*
X13983521Y20015000D01*
X19435106Y20015000D01*
X19015423Y19734576D01*
G04 #@! TD*
M02*
