G04 #@! TF.GenerationSoftware,KiCad,Pcbnew,5.0.2-bee76a0~70~ubuntu18.04.1*
G04 #@! TF.CreationDate,2020-03-17T19:10:12-04:00*
G04 #@! TF.ProjectId,ESP-AHT10-Extra,4553502d-4148-4543-9130-2d4578747261,1.6*
G04 #@! TF.SameCoordinates,PX7bfa480PY66c2270*
G04 #@! TF.FileFunction,Legend,Bot*
G04 #@! TF.FilePolarity,Positive*
%FSLAX46Y46*%
G04 Gerber Fmt 4.6, Leading zero omitted, Abs format (unit mm)*
G04 Created by KiCad (PCBNEW 5.0.2-bee76a0~70~ubuntu18.04.1) date Tue 17 Mar 2020 07:10:12 PM EDT*
%MOMM*%
%LPD*%
G01*
G04 APERTURE LIST*
%ADD10C,0.250000*%
%ADD11C,0.120000*%
%ADD12C,0.150000*%
G04 APERTURE END LIST*
D10*
X11011904Y5750000D02*
X11107142Y5797620D01*
X11250000Y5797620D01*
X11392857Y5750000D01*
X11488095Y5654762D01*
X11535714Y5559524D01*
X11583333Y5369048D01*
X11583333Y5226191D01*
X11535714Y5035715D01*
X11488095Y4940477D01*
X11392857Y4845239D01*
X11250000Y4797620D01*
X11154761Y4797620D01*
X11011904Y4845239D01*
X10964285Y4892858D01*
X10964285Y5226191D01*
X11154761Y5226191D01*
X10535714Y4797620D02*
X10535714Y5797620D01*
X9964285Y4797620D01*
X9964285Y5797620D01*
X9488095Y4797620D02*
X9488095Y5797620D01*
X9250000Y5797620D01*
X9107142Y5750000D01*
X9011904Y5654762D01*
X8964285Y5559524D01*
X8916666Y5369048D01*
X8916666Y5226191D01*
X8964285Y5035715D01*
X9011904Y4940477D01*
X9107142Y4845239D01*
X9250000Y4797620D01*
X9488095Y4797620D01*
X10190476Y14047620D02*
X10666666Y14047620D01*
X10714285Y13571429D01*
X10666666Y13619048D01*
X10571428Y13666667D01*
X10333333Y13666667D01*
X10238095Y13619048D01*
X10190476Y13571429D01*
X10142857Y13476191D01*
X10142857Y13238096D01*
X10190476Y13142858D01*
X10238095Y13095239D01*
X10333333Y13047620D01*
X10571428Y13047620D01*
X10666666Y13095239D01*
X10714285Y13142858D01*
X9857142Y14047620D02*
X9523809Y13047620D01*
X9190476Y14047620D01*
D11*
G04 #@! TO.C,F1*
X14451000Y13953922D02*
X14451000Y14471078D01*
X15871000Y13953922D02*
X15871000Y14471078D01*
D12*
G04 #@! TO.C,U1*
X15984217Y6162626D02*
X15984217Y6212626D01*
X20134217Y6162626D02*
X20134217Y6307626D01*
X20134217Y11312626D02*
X20134217Y11167626D01*
X15984217Y11312626D02*
X15984217Y11167626D01*
X15984217Y6162626D02*
X20134217Y6162626D01*
X15984217Y11312626D02*
X20134217Y11312626D01*
X15984217Y6212626D02*
X14584217Y6212626D01*
G04 #@! TO.C,U4*
X38355703Y6541380D02*
X38355703Y10541380D01*
X38355703Y10541380D02*
X33355703Y10541380D01*
X33355703Y10541380D02*
X33355703Y6541380D01*
X33355703Y6541380D02*
X38355703Y6541380D01*
X38179310Y6941380D02*
G75*
G03X38179310Y6941380I-223607J0D01*
G01*
D11*
G04 #@! TO.C,U5*
X10450000Y10635000D02*
X12250000Y10635000D01*
X12250000Y7415000D02*
X9800000Y7415000D01*
G04 #@! TO.C,C1*
X26486000Y14499958D02*
X26486000Y13982802D01*
X25066000Y14499958D02*
X25066000Y13982802D01*
G04 #@! TO.C,C2*
X18815000Y14499958D02*
X18815000Y13982802D01*
X20235000Y14499958D02*
X20235000Y13982802D01*
G04 #@! TO.C,C3*
X18285000Y14499958D02*
X18285000Y13982802D01*
X16865000Y14499958D02*
X16865000Y13982802D01*
G04 #@! TO.C,C4*
X28436000Y14499958D02*
X28436000Y13982802D01*
X27016000Y14499958D02*
X27016000Y13982802D01*
G04 #@! TO.C,C5*
X34889922Y11290000D02*
X35407078Y11290000D01*
X34889922Y12710000D02*
X35407078Y12710000D01*
G04 #@! TO.C,C6*
X17403078Y5717000D02*
X16885922Y5717000D01*
X17403078Y4297000D02*
X16885922Y4297000D01*
G04 #@! TO.C,C7*
X11141422Y11090000D02*
X11658578Y11090000D01*
X11141422Y12510000D02*
X11658578Y12510000D01*
G04 #@! TO.C,D1*
X14000000Y16075000D02*
X14000000Y14075000D01*
X14000000Y14075000D02*
X10150000Y14075000D01*
X14000000Y16075000D02*
X10150000Y16075000D01*
G04 #@! TO.C,R1*
X34540000Y14351922D02*
X34540000Y14869078D01*
X33120000Y14351922D02*
X33120000Y14869078D01*
G04 #@! TO.C,R2*
X32127000Y14336922D02*
X32127000Y14854078D01*
X30707000Y14336922D02*
X30707000Y14854078D01*
G04 #@! TO.C,R3*
X37065703Y14382802D02*
X37065703Y14899958D01*
X35645703Y14382802D02*
X35645703Y14899958D01*
G04 #@! TO.C,R4*
X23547578Y4678000D02*
X23030422Y4678000D01*
X23547578Y6098000D02*
X23030422Y6098000D01*
G04 #@! TO.C,R5*
X28952000Y8059578D02*
X28952000Y7542422D01*
X27532000Y8059578D02*
X27532000Y7542422D01*
G04 #@! TO.C,R6*
X30855922Y9527000D02*
X31373078Y9527000D01*
X30855922Y8107000D02*
X31373078Y8107000D01*
G04 #@! TO.C,R7*
X30855922Y6075000D02*
X31373078Y6075000D01*
X30855922Y7495000D02*
X31373078Y7495000D01*
G04 #@! TO.C,R8*
X23660000Y9964578D02*
X23660000Y9447422D01*
X22240000Y9964578D02*
X22240000Y9447422D01*
G04 #@! TO.C,U2*
X23414000Y15604000D02*
X23414000Y14674000D01*
X23414000Y12444000D02*
X23414000Y13374000D01*
X23414000Y12444000D02*
X21254000Y12444000D01*
X23414000Y15604000D02*
X21954000Y15604000D01*
G04 #@! TO.C,F1*
D12*
X15469333Y16635429D02*
X15802666Y16635429D01*
X15802666Y16111620D02*
X15802666Y17111620D01*
X15326476Y17111620D01*
X14421714Y16111620D02*
X14993142Y16111620D01*
X14707428Y16111620D02*
X14707428Y17111620D01*
X14802666Y16968762D01*
X14897904Y16873524D01*
X14993142Y16825905D01*
G04 #@! TO.C,U1*
X21011904Y5797620D02*
X21011904Y4988096D01*
X20964285Y4892858D01*
X20916666Y4845239D01*
X20821428Y4797620D01*
X20630952Y4797620D01*
X20535714Y4845239D01*
X20488095Y4892858D01*
X20440476Y4988096D01*
X20440476Y5797620D01*
X19440476Y4797620D02*
X20011904Y4797620D01*
X19726190Y4797620D02*
X19726190Y5797620D01*
X19821428Y5654762D01*
X19916666Y5559524D01*
X20011904Y5511905D01*
G04 #@! TO.C,U4*
X38011904Y6097620D02*
X38011904Y5288096D01*
X37964285Y5192858D01*
X37916666Y5145239D01*
X37821428Y5097620D01*
X37630952Y5097620D01*
X37535714Y5145239D01*
X37488095Y5192858D01*
X37440476Y5288096D01*
X37440476Y6097620D01*
X36535714Y5764286D02*
X36535714Y5097620D01*
X36773809Y6145239D02*
X37011904Y5430953D01*
X36392857Y5430953D01*
G04 #@! TO.C,U5*
X13261904Y7047620D02*
X13261904Y6238096D01*
X13214285Y6142858D01*
X13166666Y6095239D01*
X13071428Y6047620D01*
X12880952Y6047620D01*
X12785714Y6095239D01*
X12738095Y6142858D01*
X12690476Y6238096D01*
X12690476Y7047620D01*
X11738095Y7047620D02*
X12214285Y7047620D01*
X12261904Y6571429D01*
X12214285Y6619048D01*
X12119047Y6666667D01*
X11880952Y6666667D01*
X11785714Y6619048D01*
X11738095Y6571429D01*
X11690476Y6476191D01*
X11690476Y6238096D01*
X11738095Y6142858D01*
X11785714Y6095239D01*
X11880952Y6047620D01*
X12119047Y6047620D01*
X12214285Y6095239D01*
X12261904Y6142858D01*
G04 #@! TO.C,C1*
X25892666Y15892858D02*
X25940285Y15845239D01*
X26083142Y15797620D01*
X26178380Y15797620D01*
X26321238Y15845239D01*
X26416476Y15940477D01*
X26464095Y16035715D01*
X26511714Y16226191D01*
X26511714Y16369048D01*
X26464095Y16559524D01*
X26416476Y16654762D01*
X26321238Y16750000D01*
X26178380Y16797620D01*
X26083142Y16797620D01*
X25940285Y16750000D01*
X25892666Y16702381D01*
X24940285Y15797620D02*
X25511714Y15797620D01*
X25226000Y15797620D02*
X25226000Y16797620D01*
X25321238Y16654762D01*
X25416476Y16559524D01*
X25511714Y16511905D01*
G04 #@! TO.C,C2*
X19716666Y16333858D02*
X19764285Y16286239D01*
X19907142Y16238620D01*
X20002380Y16238620D01*
X20145238Y16286239D01*
X20240476Y16381477D01*
X20288095Y16476715D01*
X20335714Y16667191D01*
X20335714Y16810048D01*
X20288095Y17000524D01*
X20240476Y17095762D01*
X20145238Y17191000D01*
X20002380Y17238620D01*
X19907142Y17238620D01*
X19764285Y17191000D01*
X19716666Y17143381D01*
X19335714Y17143381D02*
X19288095Y17191000D01*
X19192857Y17238620D01*
X18954761Y17238620D01*
X18859523Y17191000D01*
X18811904Y17143381D01*
X18764285Y17048143D01*
X18764285Y16952905D01*
X18811904Y16810048D01*
X19383333Y16238620D01*
X18764285Y16238620D01*
G04 #@! TO.C,C3*
X17816666Y16333858D02*
X17864285Y16286239D01*
X18007142Y16238620D01*
X18102380Y16238620D01*
X18245238Y16286239D01*
X18340476Y16381477D01*
X18388095Y16476715D01*
X18435714Y16667191D01*
X18435714Y16810048D01*
X18388095Y17000524D01*
X18340476Y17095762D01*
X18245238Y17191000D01*
X18102380Y17238620D01*
X18007142Y17238620D01*
X17864285Y17191000D01*
X17816666Y17143381D01*
X17483333Y17238620D02*
X16864285Y17238620D01*
X17197619Y16857667D01*
X17054761Y16857667D01*
X16959523Y16810048D01*
X16911904Y16762429D01*
X16864285Y16667191D01*
X16864285Y16429096D01*
X16911904Y16333858D01*
X16959523Y16286239D01*
X17054761Y16238620D01*
X17340476Y16238620D01*
X17435714Y16286239D01*
X17483333Y16333858D01*
G04 #@! TO.C,C4*
X27892666Y15892858D02*
X27940285Y15845239D01*
X28083142Y15797620D01*
X28178380Y15797620D01*
X28321238Y15845239D01*
X28416476Y15940477D01*
X28464095Y16035715D01*
X28511714Y16226191D01*
X28511714Y16369048D01*
X28464095Y16559524D01*
X28416476Y16654762D01*
X28321238Y16750000D01*
X28178380Y16797620D01*
X28083142Y16797620D01*
X27940285Y16750000D01*
X27892666Y16702381D01*
X27035523Y16464286D02*
X27035523Y15797620D01*
X27273619Y16845239D02*
X27511714Y16130953D01*
X26892666Y16130953D01*
G04 #@! TO.C,C5*
X32815166Y11642858D02*
X32862785Y11595239D01*
X33005642Y11547620D01*
X33100880Y11547620D01*
X33243738Y11595239D01*
X33338976Y11690477D01*
X33386595Y11785715D01*
X33434214Y11976191D01*
X33434214Y12119048D01*
X33386595Y12309524D01*
X33338976Y12404762D01*
X33243738Y12500000D01*
X33100880Y12547620D01*
X33005642Y12547620D01*
X32862785Y12500000D01*
X32815166Y12452381D01*
X31910404Y12547620D02*
X32386595Y12547620D01*
X32434214Y12071429D01*
X32386595Y12119048D01*
X32291357Y12166667D01*
X32053261Y12166667D01*
X31958023Y12119048D01*
X31910404Y12071429D01*
X31862785Y11976191D01*
X31862785Y11738096D01*
X31910404Y11642858D01*
X31958023Y11595239D01*
X32053261Y11547620D01*
X32291357Y11547620D01*
X32386595Y11595239D01*
X32434214Y11642858D01*
G04 #@! TO.C,C6*
X14761166Y4649858D02*
X14808785Y4602239D01*
X14951642Y4554620D01*
X15046880Y4554620D01*
X15189738Y4602239D01*
X15284976Y4697477D01*
X15332595Y4792715D01*
X15380214Y4983191D01*
X15380214Y5126048D01*
X15332595Y5316524D01*
X15284976Y5411762D01*
X15189738Y5507000D01*
X15046880Y5554620D01*
X14951642Y5554620D01*
X14808785Y5507000D01*
X14761166Y5459381D01*
X13904023Y5554620D02*
X14094500Y5554620D01*
X14189738Y5507000D01*
X14237357Y5459381D01*
X14332595Y5316524D01*
X14380214Y5126048D01*
X14380214Y4745096D01*
X14332595Y4649858D01*
X14284976Y4602239D01*
X14189738Y4554620D01*
X13999261Y4554620D01*
X13904023Y4602239D01*
X13856404Y4649858D01*
X13808785Y4745096D01*
X13808785Y4983191D01*
X13856404Y5078429D01*
X13904023Y5126048D01*
X13999261Y5173667D01*
X14189738Y5173667D01*
X14284976Y5126048D01*
X14332595Y5078429D01*
X14380214Y4983191D01*
G04 #@! TO.C,C7*
X14166666Y11392858D02*
X14214285Y11345239D01*
X14357142Y11297620D01*
X14452380Y11297620D01*
X14595238Y11345239D01*
X14690476Y11440477D01*
X14738095Y11535715D01*
X14785714Y11726191D01*
X14785714Y11869048D01*
X14738095Y12059524D01*
X14690476Y12154762D01*
X14595238Y12250000D01*
X14452380Y12297620D01*
X14357142Y12297620D01*
X14214285Y12250000D01*
X14166666Y12202381D01*
X13833333Y12297620D02*
X13166666Y12297620D01*
X13595238Y11297620D01*
G04 #@! TO.C,D1*
X13863095Y16372620D02*
X13863095Y17372620D01*
X13625000Y17372620D01*
X13482142Y17325000D01*
X13386904Y17229762D01*
X13339285Y17134524D01*
X13291666Y16944048D01*
X13291666Y16801191D01*
X13339285Y16610715D01*
X13386904Y16515477D01*
X13482142Y16420239D01*
X13625000Y16372620D01*
X13863095Y16372620D01*
X12339285Y16372620D02*
X12910714Y16372620D01*
X12625000Y16372620D02*
X12625000Y17372620D01*
X12720238Y17229762D01*
X12815476Y17134524D01*
X12910714Y17086905D01*
G04 #@! TO.C,R1*
X33907630Y16107216D02*
X34174297Y16488168D01*
X34364773Y16107216D02*
X34364773Y16907216D01*
X34060011Y16907216D01*
X33983820Y16869120D01*
X33945725Y16831025D01*
X33907630Y16754835D01*
X33907630Y16640549D01*
X33945725Y16564359D01*
X33983820Y16526263D01*
X34060011Y16488168D01*
X34364773Y16488168D01*
X33145725Y16107216D02*
X33602868Y16107216D01*
X33374297Y16107216D02*
X33374297Y16907216D01*
X33450487Y16792930D01*
X33526677Y16716740D01*
X33602868Y16678644D01*
G04 #@! TO.C,R2*
X31594630Y16092216D02*
X31861297Y16473168D01*
X32051773Y16092216D02*
X32051773Y16892216D01*
X31747011Y16892216D01*
X31670820Y16854120D01*
X31632725Y16816025D01*
X31594630Y16739835D01*
X31594630Y16625549D01*
X31632725Y16549359D01*
X31670820Y16511263D01*
X31747011Y16473168D01*
X32051773Y16473168D01*
X31289868Y16816025D02*
X31251773Y16854120D01*
X31175582Y16892216D01*
X30985106Y16892216D01*
X30908916Y16854120D01*
X30870820Y16816025D01*
X30832725Y16739835D01*
X30832725Y16663644D01*
X30870820Y16549359D01*
X31327963Y16092216D01*
X30832725Y16092216D01*
G04 #@! TO.C,R3*
X37633333Y16138096D02*
X37900000Y16519048D01*
X38090476Y16138096D02*
X38090476Y16938096D01*
X37785714Y16938096D01*
X37709523Y16900000D01*
X37671428Y16861905D01*
X37633333Y16785715D01*
X37633333Y16671429D01*
X37671428Y16595239D01*
X37709523Y16557143D01*
X37785714Y16519048D01*
X38090476Y16519048D01*
X37366666Y16938096D02*
X36871428Y16938096D01*
X37138095Y16633334D01*
X37023809Y16633334D01*
X36947619Y16595239D01*
X36909523Y16557143D01*
X36871428Y16480953D01*
X36871428Y16290477D01*
X36909523Y16214286D01*
X36947619Y16176191D01*
X37023809Y16138096D01*
X37252380Y16138096D01*
X37328571Y16176191D01*
X37366666Y16214286D01*
G04 #@! TO.C,R4*
X23566666Y6397620D02*
X23900000Y6873810D01*
X24138095Y6397620D02*
X24138095Y7397620D01*
X23757142Y7397620D01*
X23661904Y7350000D01*
X23614285Y7302381D01*
X23566666Y7207143D01*
X23566666Y7064286D01*
X23614285Y6969048D01*
X23661904Y6921429D01*
X23757142Y6873810D01*
X24138095Y6873810D01*
X22709523Y7064286D02*
X22709523Y6397620D01*
X22947619Y7445239D02*
X23185714Y6730953D01*
X22566666Y6730953D01*
G04 #@! TO.C,R5*
X28472166Y9761620D02*
X28805500Y10237810D01*
X29043595Y9761620D02*
X29043595Y10761620D01*
X28662642Y10761620D01*
X28567404Y10714000D01*
X28519785Y10666381D01*
X28472166Y10571143D01*
X28472166Y10428286D01*
X28519785Y10333048D01*
X28567404Y10285429D01*
X28662642Y10237810D01*
X29043595Y10237810D01*
X27567404Y10761620D02*
X28043595Y10761620D01*
X28091214Y10285429D01*
X28043595Y10333048D01*
X27948357Y10380667D01*
X27710261Y10380667D01*
X27615023Y10333048D01*
X27567404Y10285429D01*
X27519785Y10190191D01*
X27519785Y9952096D01*
X27567404Y9856858D01*
X27615023Y9809239D01*
X27710261Y9761620D01*
X27948357Y9761620D01*
X28043595Y9809239D01*
X28091214Y9856858D01*
G04 #@! TO.C,R6*
X31202666Y9825120D02*
X31536000Y10301310D01*
X31774095Y9825120D02*
X31774095Y10825120D01*
X31393142Y10825120D01*
X31297904Y10777500D01*
X31250285Y10729881D01*
X31202666Y10634643D01*
X31202666Y10491786D01*
X31250285Y10396548D01*
X31297904Y10348929D01*
X31393142Y10301310D01*
X31774095Y10301310D01*
X30345523Y10825120D02*
X30536000Y10825120D01*
X30631238Y10777500D01*
X30678857Y10729881D01*
X30774095Y10587024D01*
X30821714Y10396548D01*
X30821714Y10015596D01*
X30774095Y9920358D01*
X30726476Y9872739D01*
X30631238Y9825120D01*
X30440761Y9825120D01*
X30345523Y9872739D01*
X30297904Y9920358D01*
X30250285Y10015596D01*
X30250285Y10253691D01*
X30297904Y10348929D01*
X30345523Y10396548D01*
X30440761Y10444167D01*
X30631238Y10444167D01*
X30726476Y10396548D01*
X30774095Y10348929D01*
X30821714Y10253691D01*
G04 #@! TO.C,R7*
X31202666Y4681620D02*
X31536000Y5157810D01*
X31774095Y4681620D02*
X31774095Y5681620D01*
X31393142Y5681620D01*
X31297904Y5634000D01*
X31250285Y5586381D01*
X31202666Y5491143D01*
X31202666Y5348286D01*
X31250285Y5253048D01*
X31297904Y5205429D01*
X31393142Y5157810D01*
X31774095Y5157810D01*
X30869333Y5681620D02*
X30202666Y5681620D01*
X30631238Y4681620D01*
G04 #@! TO.C,R8*
X23166666Y11253620D02*
X23500000Y11729810D01*
X23738095Y11253620D02*
X23738095Y12253620D01*
X23357142Y12253620D01*
X23261904Y12206000D01*
X23214285Y12158381D01*
X23166666Y12063143D01*
X23166666Y11920286D01*
X23214285Y11825048D01*
X23261904Y11777429D01*
X23357142Y11729810D01*
X23738095Y11729810D01*
X22595238Y11825048D02*
X22690476Y11872667D01*
X22738095Y11920286D01*
X22785714Y12015524D01*
X22785714Y12063143D01*
X22738095Y12158381D01*
X22690476Y12206000D01*
X22595238Y12253620D01*
X22404761Y12253620D01*
X22309523Y12206000D01*
X22261904Y12158381D01*
X22214285Y12063143D01*
X22214285Y12015524D01*
X22261904Y11920286D01*
X22309523Y11872667D01*
X22404761Y11825048D01*
X22595238Y11825048D01*
X22690476Y11777429D01*
X22738095Y11729810D01*
X22785714Y11634572D01*
X22785714Y11444096D01*
X22738095Y11348858D01*
X22690476Y11301239D01*
X22595238Y11253620D01*
X22404761Y11253620D01*
X22309523Y11301239D01*
X22261904Y11348858D01*
X22214285Y11444096D01*
X22214285Y11634572D01*
X22261904Y11729810D01*
X22309523Y11777429D01*
X22404761Y11825048D01*
G04 #@! TO.C,U2*
X24050904Y16794120D02*
X24050904Y15984596D01*
X24003285Y15889358D01*
X23955666Y15841739D01*
X23860428Y15794120D01*
X23669952Y15794120D01*
X23574714Y15841739D01*
X23527095Y15889358D01*
X23479476Y15984596D01*
X23479476Y16794120D01*
X23050904Y16698881D02*
X23003285Y16746500D01*
X22908047Y16794120D01*
X22669952Y16794120D01*
X22574714Y16746500D01*
X22527095Y16698881D01*
X22479476Y16603643D01*
X22479476Y16508405D01*
X22527095Y16365548D01*
X23098523Y15794120D01*
X22479476Y15794120D01*
G04 #@! TD*
M02*
