G04 #@! TF.GenerationSoftware,KiCad,Pcbnew,5.0.2-bee76a0~70~ubuntu18.04.1*
G04 #@! TF.CreationDate,2020-03-17T19:10:12-04:00*
G04 #@! TF.ProjectId,ESP-AHT10-Extra,4553502d-4148-4543-9130-2d4578747261,1.6*
G04 #@! TF.SameCoordinates,PX7bfa480PY66c2270*
G04 #@! TF.FileFunction,Legend,Top*
G04 #@! TF.FilePolarity,Positive*
%FSLAX46Y46*%
G04 Gerber Fmt 4.6, Leading zero omitted, Abs format (unit mm)*
G04 Created by KiCad (PCBNEW 5.0.2-bee76a0~70~ubuntu18.04.1) date Tue 17 Mar 2020 07:10:12 PM EDT*
%MOMM*%
%LPD*%
G01*
G04 APERTURE LIST*
%ADD10C,0.200000*%
%ADD11C,0.300000*%
%ADD12C,0.120000*%
%ADD13C,0.152400*%
%ADD14C,0.150000*%
G04 APERTURE END LIST*
D10*
X19479738Y12436239D02*
X19432119Y12531477D01*
X19432119Y12721953D01*
X19479738Y12817191D01*
X19527357Y12864810D01*
X19622595Y12912429D01*
X19908309Y12912429D01*
X20003547Y12864810D01*
X20051166Y12817191D01*
X20098785Y12721953D01*
X20098785Y12531477D01*
X20051166Y12436239D01*
X20098785Y12007667D02*
X19098785Y12007667D01*
X20051166Y12007667D02*
X20098785Y11912429D01*
X20098785Y11721953D01*
X20051166Y11626715D01*
X20003547Y11579096D01*
X19908309Y11531477D01*
X19622595Y11531477D01*
X19527357Y11579096D01*
X19479738Y11626715D01*
X19432119Y11721953D01*
X19432119Y11912429D01*
X19479738Y12007667D01*
X19479738Y10721953D02*
X19432119Y10817191D01*
X19432119Y11007667D01*
X19479738Y11102905D01*
X19574976Y11150524D01*
X19955928Y11150524D01*
X20051166Y11102905D01*
X20098785Y11007667D01*
X20098785Y10817191D01*
X20051166Y10721953D01*
X19955928Y10674334D01*
X19860690Y10674334D01*
X19765452Y11150524D01*
X19432119Y10245762D02*
X20098785Y10245762D01*
X19908309Y10245762D02*
X20003547Y10198143D01*
X20051166Y10150524D01*
X20098785Y10055286D01*
X20098785Y9960048D01*
X19432119Y9626715D02*
X20098785Y9626715D01*
X20432119Y9626715D02*
X20384500Y9674334D01*
X20336880Y9626715D01*
X20384500Y9579096D01*
X20432119Y9626715D01*
X20336880Y9626715D01*
X19432119Y9007667D02*
X19479738Y9102905D01*
X19527357Y9150524D01*
X19622595Y9198143D01*
X19908309Y9198143D01*
X20003547Y9150524D01*
X20051166Y9102905D01*
X20098785Y9007667D01*
X20098785Y8864810D01*
X20051166Y8769572D01*
X20003547Y8721953D01*
X19908309Y8674334D01*
X19622595Y8674334D01*
X19527357Y8721953D01*
X19479738Y8769572D01*
X19432119Y8864810D01*
X19432119Y9007667D01*
X19432119Y7817191D02*
X20432119Y7817191D01*
X19479738Y7817191D02*
X19432119Y7912429D01*
X19432119Y8102905D01*
X19479738Y8198143D01*
X19527357Y8245762D01*
X19622595Y8293381D01*
X19908309Y8293381D01*
X20003547Y8245762D01*
X20051166Y8198143D01*
X20098785Y8102905D01*
X20098785Y7912429D01*
X20051166Y7817191D01*
X18636880Y14007667D02*
X18684500Y13960048D01*
X18732119Y13864810D01*
X18732119Y13626715D01*
X18684500Y13531477D01*
X18636880Y13483858D01*
X18541642Y13436239D01*
X18446404Y13436239D01*
X18303547Y13483858D01*
X17732119Y14055286D01*
X17732119Y13436239D01*
X18732119Y12817191D02*
X18732119Y12721953D01*
X18684500Y12626715D01*
X18636880Y12579096D01*
X18541642Y12531477D01*
X18351166Y12483858D01*
X18113071Y12483858D01*
X17922595Y12531477D01*
X17827357Y12579096D01*
X17779738Y12626715D01*
X17732119Y12721953D01*
X17732119Y12817191D01*
X17779738Y12912429D01*
X17827357Y12960048D01*
X17922595Y13007667D01*
X18113071Y13055286D01*
X18351166Y13055286D01*
X18541642Y13007667D01*
X18636880Y12960048D01*
X18684500Y12912429D01*
X18732119Y12817191D01*
X18636880Y12102905D02*
X18684500Y12055286D01*
X18732119Y11960048D01*
X18732119Y11721953D01*
X18684500Y11626715D01*
X18636880Y11579096D01*
X18541642Y11531477D01*
X18446404Y11531477D01*
X18303547Y11579096D01*
X17732119Y12150524D01*
X17732119Y11531477D01*
X18732119Y10912429D02*
X18732119Y10817191D01*
X18684500Y10721953D01*
X18636880Y10674334D01*
X18541642Y10626715D01*
X18351166Y10579096D01*
X18113071Y10579096D01*
X17922595Y10626715D01*
X17827357Y10674334D01*
X17779738Y10721953D01*
X17732119Y10817191D01*
X17732119Y10912429D01*
X17779738Y11007667D01*
X17827357Y11055286D01*
X17922595Y11102905D01*
X18113071Y11150524D01*
X18351166Y11150524D01*
X18541642Y11102905D01*
X18636880Y11055286D01*
X18684500Y11007667D01*
X18732119Y10912429D01*
X18398785Y9483858D02*
X17732119Y9245762D01*
X18398785Y9007667D01*
X17732119Y8102905D02*
X17732119Y8674334D01*
X17732119Y8388620D02*
X18732119Y8388620D01*
X18589261Y8483858D01*
X18494023Y8579096D01*
X18446404Y8674334D01*
X17827357Y7674334D02*
X17779738Y7626715D01*
X17732119Y7674334D01*
X17779738Y7721953D01*
X17827357Y7674334D01*
X17732119Y7674334D01*
X18732119Y6769572D02*
X18732119Y6960048D01*
X18684500Y7055286D01*
X18636880Y7102905D01*
X18494023Y7198143D01*
X18303547Y7245762D01*
X17922595Y7245762D01*
X17827357Y7198143D01*
X17779738Y7150524D01*
X17732119Y7055286D01*
X17732119Y6864810D01*
X17779738Y6769572D01*
X17827357Y6721953D01*
X17922595Y6674334D01*
X18160690Y6674334D01*
X18255928Y6721953D01*
X18303547Y6769572D01*
X18351166Y6864810D01*
X18351166Y7055286D01*
X18303547Y7150524D01*
X18255928Y7198143D01*
X18160690Y7245762D01*
D11*
X18642857Y6178572D02*
X18642857Y4678572D01*
X18071428Y4678572D01*
X17928571Y4750000D01*
X17857142Y4821429D01*
X17785714Y4964286D01*
X17785714Y5178572D01*
X17857142Y5321429D01*
X17928571Y5392858D01*
X18071428Y5464286D01*
X18642857Y5464286D01*
X16285714Y6178572D02*
X16785714Y5464286D01*
X17142857Y6178572D02*
X17142857Y4678572D01*
X16571428Y4678572D01*
X16428571Y4750000D01*
X16357142Y4821429D01*
X16285714Y4964286D01*
X16285714Y5178572D01*
X16357142Y5321429D01*
X16428571Y5392858D01*
X16571428Y5464286D01*
X17142857Y5464286D01*
X14857142Y4750000D02*
X15000000Y4678572D01*
X15214285Y4678572D01*
X15428571Y4750000D01*
X15571428Y4892858D01*
X15642857Y5035715D01*
X15714285Y5321429D01*
X15714285Y5535715D01*
X15642857Y5821429D01*
X15571428Y5964286D01*
X15428571Y6107143D01*
X15214285Y6178572D01*
X15071428Y6178572D01*
X14857142Y6107143D01*
X14785714Y6035715D01*
X14785714Y5535715D01*
X15071428Y5535715D01*
X15928571Y14571429D02*
X15428571Y15285715D01*
X15071428Y14571429D02*
X15071428Y16071429D01*
X15642857Y16071429D01*
X15785714Y16000000D01*
X15857142Y15928572D01*
X15928571Y15785715D01*
X15928571Y15571429D01*
X15857142Y15428572D01*
X15785714Y15357143D01*
X15642857Y15285715D01*
X15071428Y15285715D01*
X16500000Y14642858D02*
X16714285Y14571429D01*
X17071428Y14571429D01*
X17214285Y14642858D01*
X17285714Y14714286D01*
X17357142Y14857143D01*
X17357142Y15000000D01*
X17285714Y15142858D01*
X17214285Y15214286D01*
X17071428Y15285715D01*
X16785714Y15357143D01*
X16642857Y15428572D01*
X16571428Y15500000D01*
X16500000Y15642858D01*
X16500000Y15785715D01*
X16571428Y15928572D01*
X16642857Y16000000D01*
X16785714Y16071429D01*
X17142857Y16071429D01*
X17357142Y16000000D01*
X17785714Y16071429D02*
X18642857Y16071429D01*
X18214285Y14571429D02*
X18214285Y16071429D01*
X10857142Y15214286D02*
X10857142Y14714286D01*
X10071428Y14500000D02*
X10071428Y15214286D01*
X11571428Y15214286D01*
X11571428Y14500000D01*
X10142857Y13928572D02*
X10071428Y13714286D01*
X10071428Y13357143D01*
X10142857Y13214286D01*
X10214285Y13142858D01*
X10357142Y13071429D01*
X10500000Y13071429D01*
X10642857Y13142858D01*
X10714285Y13214286D01*
X10785714Y13357143D01*
X10857142Y13642858D01*
X10928571Y13785715D01*
X11000000Y13857143D01*
X11142857Y13928572D01*
X11285714Y13928572D01*
X11428571Y13857143D01*
X11500000Y13785715D01*
X11571428Y13642858D01*
X11571428Y13285715D01*
X11500000Y13071429D01*
X10071428Y12428572D02*
X11571428Y12428572D01*
X11571428Y11857143D01*
X11500000Y11714286D01*
X11428571Y11642858D01*
X11285714Y11571429D01*
X11071428Y11571429D01*
X10928571Y11642858D01*
X10857142Y11714286D01*
X10785714Y11857143D01*
X10785714Y12428572D01*
X10642857Y10928572D02*
X10642857Y9785715D01*
X10071428Y10357143D02*
X11214285Y10357143D01*
X10500000Y9142858D02*
X10500000Y8428572D01*
X10071428Y9285715D02*
X11571428Y8785715D01*
X10071428Y8285715D01*
X10071428Y7785715D02*
X11571428Y7785715D01*
X10857142Y7785715D02*
X10857142Y6928572D01*
X10071428Y6928572D02*
X11571428Y6928572D01*
X11571428Y6428572D02*
X11571428Y5571429D01*
X10071428Y6000000D02*
X11571428Y6000000D01*
D12*
G04 #@! TO.C,C8*
X15784500Y10082422D02*
X15784500Y10599578D01*
X17204500Y10082422D02*
X17204500Y10599578D01*
D13*
G04 #@! TO.C,U3*
X21350217Y18453626D02*
X20588217Y18453626D01*
X20588217Y18453626D02*
X20588217Y2451626D01*
X20588217Y2451626D02*
X21350217Y2451626D01*
D14*
G04 #@! TO.C,SW1*
X15250000Y19000000D02*
X15250000Y18000000D01*
X18250000Y19000000D02*
X15250000Y19000000D01*
X18250000Y18000000D02*
X18250000Y19000000D01*
X15250000Y18000000D02*
X18250000Y18000000D01*
X19750000Y20250000D02*
X19750000Y19750000D01*
X13750000Y20250000D02*
X19750000Y20250000D01*
X13750000Y19750000D02*
X13750000Y20250000D01*
X19750000Y16750000D02*
X19750000Y17250000D01*
X13750000Y16750000D02*
X19750000Y16750000D01*
X13750000Y17250000D02*
X13750000Y16750000D01*
G04 #@! TO.C,SW2*
X19750000Y3500000D02*
X19750000Y4000000D01*
X19750000Y4000000D02*
X13750000Y4000000D01*
X13750000Y4000000D02*
X13750000Y3500000D01*
X19750000Y1000000D02*
X19750000Y500000D01*
X19750000Y500000D02*
X13750000Y500000D01*
X13750000Y500000D02*
X13750000Y1000000D01*
X18250000Y2750000D02*
X15250000Y2750000D01*
X15250000Y2750000D02*
X15250000Y1750000D01*
X15250000Y1750000D02*
X18250000Y1750000D01*
X18250000Y1750000D02*
X18250000Y2750000D01*
G04 #@! TO.C,U6*
X15026000Y13641000D02*
X12026000Y13641000D01*
X15026000Y7091000D02*
X12026000Y7091000D01*
X12026000Y7091000D02*
X12026000Y13591000D01*
X15026000Y13591000D02*
X15026000Y12841000D01*
X15026000Y7091000D02*
X15026000Y7841000D01*
X12726000Y9941000D02*
X12726000Y10741000D01*
X12726000Y10741000D02*
X13326000Y10741000D01*
X13326000Y10741000D02*
X13326000Y9941000D01*
X13326000Y9941000D02*
X12726000Y9941000D01*
G04 #@! TO.C,C8*
X16264333Y12396858D02*
X16216714Y12349239D01*
X16073857Y12301620D01*
X15978619Y12301620D01*
X15835761Y12349239D01*
X15740523Y12444477D01*
X15692904Y12539715D01*
X15645285Y12730191D01*
X15645285Y12873048D01*
X15692904Y13063524D01*
X15740523Y13158762D01*
X15835761Y13254000D01*
X15978619Y13301620D01*
X16073857Y13301620D01*
X16216714Y13254000D01*
X16264333Y13206381D01*
X16835761Y12873048D02*
X16740523Y12920667D01*
X16692904Y12968286D01*
X16645285Y13063524D01*
X16645285Y13111143D01*
X16692904Y13206381D01*
X16740523Y13254000D01*
X16835761Y13301620D01*
X17026238Y13301620D01*
X17121476Y13254000D01*
X17169095Y13206381D01*
X17216714Y13111143D01*
X17216714Y13063524D01*
X17169095Y12968286D01*
X17121476Y12920667D01*
X17026238Y12873048D01*
X16835761Y12873048D01*
X16740523Y12825429D01*
X16692904Y12777810D01*
X16645285Y12682572D01*
X16645285Y12492096D01*
X16692904Y12396858D01*
X16740523Y12349239D01*
X16835761Y12301620D01*
X17026238Y12301620D01*
X17121476Y12349239D01*
X17169095Y12396858D01*
X17216714Y12492096D01*
X17216714Y12682572D01*
X17169095Y12777810D01*
X17121476Y12825429D01*
X17026238Y12873048D01*
G04 #@! TO.C,U6*
X12811595Y14952620D02*
X12811595Y14143096D01*
X12859214Y14047858D01*
X12906833Y14000239D01*
X13002071Y13952620D01*
X13192547Y13952620D01*
X13287785Y14000239D01*
X13335404Y14047858D01*
X13383023Y14143096D01*
X13383023Y14952620D01*
X14287785Y14952620D02*
X14097309Y14952620D01*
X14002071Y14905000D01*
X13954452Y14857381D01*
X13859214Y14714524D01*
X13811595Y14524048D01*
X13811595Y14143096D01*
X13859214Y14047858D01*
X13906833Y14000239D01*
X14002071Y13952620D01*
X14192547Y13952620D01*
X14287785Y14000239D01*
X14335404Y14047858D01*
X14383023Y14143096D01*
X14383023Y14381191D01*
X14335404Y14476429D01*
X14287785Y14524048D01*
X14192547Y14571667D01*
X14002071Y14571667D01*
X13906833Y14524048D01*
X13859214Y14476429D01*
X13811595Y14381191D01*
G04 #@! TD*
M02*
