G04 #@! TF.GenerationSoftware,KiCad,Pcbnew,5.0.2-bee76a0~70~ubuntu18.04.1*
G04 #@! TF.CreationDate,2020-03-17T19:10:12-04:00*
G04 #@! TF.ProjectId,ESP-AHT10-Extra,4553502d-4148-4543-9130-2d4578747261,1.6*
G04 #@! TF.SameCoordinates,PX7bfa480PY66c2270*
G04 #@! TF.FileFunction,Other,Fab,Top*
%FSLAX46Y46*%
G04 Gerber Fmt 4.6, Leading zero omitted, Abs format (unit mm)*
G04 Created by KiCad (PCBNEW 5.0.2-bee76a0~70~ubuntu18.04.1) date Tue 17 Mar 2020 07:10:12 PM EDT*
%MOMM*%
%LPD*%
G01*
G04 APERTURE LIST*
%ADD10C,0.100000*%
%ADD11C,0.050000*%
%ADD12C,0.150000*%
%ADD13C,0.080000*%
G04 APERTURE END LIST*
D10*
G04 #@! TO.C,C8*
X17094500Y9341000D02*
X15894500Y9341000D01*
X15894500Y9341000D02*
X15894500Y11341000D01*
X15894500Y11341000D02*
X17094500Y11341000D01*
X17094500Y11341000D02*
X17094500Y9341000D01*
D11*
G04 #@! TO.C,U3*
X44609217Y2437626D02*
X20609217Y2437626D01*
X20609217Y2445626D02*
X20609217Y18445626D01*
X20609217Y18445626D02*
X44609217Y18445626D01*
X44609217Y18445626D02*
X44609217Y2445626D01*
D12*
G04 #@! TO.C,SW1*
X20000000Y16500000D02*
X13500000Y16500000D01*
X20000000Y20500000D02*
X20000000Y16500000D01*
X13500000Y20500000D02*
X20000000Y20500000D01*
X13500000Y16500000D02*
X13500000Y20500000D01*
G04 #@! TO.C,SW2*
X20000000Y4250000D02*
X20000000Y250000D01*
X20000000Y250000D02*
X13500000Y250000D01*
X13500000Y250000D02*
X13500000Y4250000D01*
X13500000Y4250000D02*
X20000000Y4250000D01*
G04 #@! TO.C,U6*
X15126000Y7741000D02*
X15126000Y6941000D01*
X15126000Y6941000D02*
X11926000Y6941000D01*
X11926000Y6941000D02*
X11926000Y13741000D01*
X11926000Y13741000D02*
X15126000Y13741000D01*
X15126000Y13741000D02*
X15126000Y12941000D01*
G04 #@! TD*
G04 #@! TO.C,C8*
X15486380Y-3541547D02*
X15486380Y-4112976D01*
X15486380Y-3827261D02*
X14486380Y-3827261D01*
X14629238Y-3922500D01*
X14724476Y-4017738D01*
X14772095Y-4112976D01*
X14486380Y-2922500D02*
X14486380Y-2827261D01*
X14534000Y-2732023D01*
X14581619Y-2684404D01*
X14676857Y-2636785D01*
X14867333Y-2589166D01*
X15105428Y-2589166D01*
X15295904Y-2636785D01*
X15391142Y-2684404D01*
X15438761Y-2732023D01*
X15486380Y-2827261D01*
X15486380Y-2922500D01*
X15438761Y-3017738D01*
X15391142Y-3065357D01*
X15295904Y-3112976D01*
X15105428Y-3160595D01*
X14867333Y-3160595D01*
X14676857Y-3112976D01*
X14581619Y-3065357D01*
X14534000Y-3017738D01*
X14486380Y-2922500D01*
X14486380Y-1970119D02*
X14486380Y-1874880D01*
X14534000Y-1779642D01*
X14581619Y-1732023D01*
X14676857Y-1684404D01*
X14867333Y-1636785D01*
X15105428Y-1636785D01*
X15295904Y-1684404D01*
X15391142Y-1732023D01*
X15438761Y-1779642D01*
X15486380Y-1874880D01*
X15486380Y-1970119D01*
X15438761Y-2065357D01*
X15391142Y-2112976D01*
X15295904Y-2160595D01*
X15105428Y-2208214D01*
X14867333Y-2208214D01*
X14676857Y-2160595D01*
X14581619Y-2112976D01*
X14534000Y-2065357D01*
X14486380Y-1970119D01*
X14819714Y-1208214D02*
X15486380Y-1208214D01*
X14914952Y-1208214D02*
X14867333Y-1160595D01*
X14819714Y-1065357D01*
X14819714Y-922500D01*
X14867333Y-827261D01*
X14962571Y-779642D01*
X15486380Y-779642D01*
D13*
X16673071Y10257667D02*
X16696880Y10233858D01*
X16720690Y10162429D01*
X16720690Y10114810D01*
X16696880Y10043381D01*
X16649261Y9995762D01*
X16601642Y9971953D01*
X16506404Y9948143D01*
X16434976Y9948143D01*
X16339738Y9971953D01*
X16292119Y9995762D01*
X16244500Y10043381D01*
X16220690Y10114810D01*
X16220690Y10162429D01*
X16244500Y10233858D01*
X16268309Y10257667D01*
X16434976Y10543381D02*
X16411166Y10495762D01*
X16387357Y10471953D01*
X16339738Y10448143D01*
X16315928Y10448143D01*
X16268309Y10471953D01*
X16244500Y10495762D01*
X16220690Y10543381D01*
X16220690Y10638620D01*
X16244500Y10686239D01*
X16268309Y10710048D01*
X16315928Y10733858D01*
X16339738Y10733858D01*
X16387357Y10710048D01*
X16411166Y10686239D01*
X16434976Y10638620D01*
X16434976Y10543381D01*
X16458785Y10495762D01*
X16482595Y10471953D01*
X16530214Y10448143D01*
X16625452Y10448143D01*
X16673071Y10471953D01*
X16696880Y10495762D01*
X16720690Y10543381D01*
X16720690Y10638620D01*
X16696880Y10686239D01*
X16673071Y10710048D01*
X16625452Y10733858D01*
X16530214Y10733858D01*
X16482595Y10710048D01*
X16458785Y10686239D01*
X16434976Y10638620D01*
G04 #@! TO.C,U3*
D12*
X35137788Y6675722D02*
X35137788Y7009055D01*
X35661597Y7151912D02*
X35661597Y6675722D01*
X34661597Y6675722D01*
X34661597Y7151912D01*
X35613978Y7532865D02*
X35661597Y7675722D01*
X35661597Y7913817D01*
X35613978Y8009055D01*
X35566359Y8056674D01*
X35471121Y8104293D01*
X35375883Y8104293D01*
X35280645Y8056674D01*
X35233026Y8009055D01*
X35185407Y7913817D01*
X35137788Y7723341D01*
X35090169Y7628103D01*
X35042550Y7580484D01*
X34947312Y7532865D01*
X34852074Y7532865D01*
X34756836Y7580484D01*
X34709217Y7628103D01*
X34661597Y7723341D01*
X34661597Y7961436D01*
X34709217Y8104293D01*
X35661597Y8532865D02*
X34661597Y8532865D01*
X34661597Y8913817D01*
X34709217Y9009055D01*
X34756836Y9056674D01*
X34852074Y9104293D01*
X34994931Y9104293D01*
X35090169Y9056674D01*
X35137788Y9009055D01*
X35185407Y8913817D01*
X35185407Y8532865D01*
X35280645Y9532865D02*
X35280645Y10294769D01*
X35661597Y11294769D02*
X35661597Y10723341D01*
X35661597Y11009055D02*
X34661597Y11009055D01*
X34804455Y10913817D01*
X34899693Y10818579D01*
X34947312Y10723341D01*
X34756836Y11675722D02*
X34709217Y11723341D01*
X34661597Y11818579D01*
X34661597Y12056674D01*
X34709217Y12151912D01*
X34756836Y12199531D01*
X34852074Y12247150D01*
X34947312Y12247150D01*
X35090169Y12199531D01*
X35661597Y11628103D01*
X35661597Y12247150D01*
G04 #@! TO.C,U6*
X13216380Y-7930666D02*
X14216380Y-7597333D01*
X13216380Y-7264000D01*
X13692571Y-6930666D02*
X13692571Y-6597333D01*
X14216380Y-6454476D02*
X14216380Y-6930666D01*
X13216380Y-6930666D01*
X13216380Y-6454476D01*
X14216380Y-6025904D02*
X13216380Y-6025904D01*
X13930666Y-5692571D01*
X13216380Y-5359238D01*
X14216380Y-5359238D01*
X14216380Y-4406857D02*
X14216380Y-4883047D01*
X13216380Y-4883047D01*
X13216380Y-4168761D02*
X13216380Y-3502095D01*
X14216380Y-3930666D01*
X13216380Y-3216380D02*
X13216380Y-2549714D01*
X14216380Y-2978285D01*
X13216380Y-1978285D02*
X13216380Y-1883047D01*
X13264000Y-1787809D01*
X13311619Y-1740190D01*
X13406857Y-1692571D01*
X13597333Y-1644952D01*
X13835428Y-1644952D01*
X14025904Y-1692571D01*
X14121142Y-1740190D01*
X14168761Y-1787809D01*
X14216380Y-1883047D01*
X14216380Y-1978285D01*
X14168761Y-2073523D01*
X14121142Y-2121142D01*
X14025904Y-2168761D01*
X13835428Y-2216380D01*
X13597333Y-2216380D01*
X13406857Y-2168761D01*
X13311619Y-2121142D01*
X13264000Y-2073523D01*
X13216380Y-1978285D01*
X13216380Y-1025904D02*
X13216380Y-930666D01*
X13264000Y-835428D01*
X13311619Y-787809D01*
X13406857Y-740190D01*
X13597333Y-692571D01*
X13835428Y-692571D01*
X14025904Y-740190D01*
X14121142Y-787809D01*
X14168761Y-835428D01*
X14216380Y-930666D01*
X14216380Y-1025904D01*
X14168761Y-1121142D01*
X14121142Y-1168761D01*
X14025904Y-1216380D01*
X13835428Y-1264000D01*
X13597333Y-1264000D01*
X13406857Y-1216380D01*
X13311619Y-1168761D01*
X13264000Y-1121142D01*
X13216380Y-1025904D01*
G04 #@! TD*
M02*
