G04 #@! TF.GenerationSoftware,KiCad,Pcbnew,5.0.2-bee76a0~70~ubuntu18.04.1*
G04 #@! TF.CreationDate,2020-01-10T18:50:58-05:00*
G04 #@! TF.ProjectId,ESP-AHT10-Extra,4553502d-4148-4543-9130-2d4578747261,1.4*
G04 #@! TF.SameCoordinates,PX7bfa480PY66c2270*
G04 #@! TF.FileFunction,Other,Fab,Bot*
%FSLAX46Y46*%
G04 Gerber Fmt 4.6, Leading zero omitted, Abs format (unit mm)*
G04 Created by KiCad (PCBNEW 5.0.2-bee76a0~70~ubuntu18.04.1) date Fri 10 Jan 2020 06:50:58 PM EST*
%MOMM*%
%LPD*%
G01*
G04 APERTURE LIST*
%ADD10C,0.100000*%
%ADD11C,0.150000*%
%ADD12C,0.080000*%
%ADD13C,0.075000*%
G04 APERTURE END LIST*
D10*
G04 #@! TO.C,F1*
X14561000Y15212500D02*
X14561000Y13212500D01*
X15761000Y15212500D02*
X14561000Y15212500D01*
X15761000Y13212500D02*
X15761000Y15212500D01*
X14561000Y13212500D02*
X15761000Y13212500D01*
G04 #@! TO.C,U1*
X17109217Y6287626D02*
X20009217Y6287626D01*
X20009217Y6287626D02*
X20009217Y11187626D01*
X20009217Y11187626D02*
X16109217Y11187626D01*
X16109217Y11187626D02*
X16109217Y7287626D01*
X16109217Y7287626D02*
X17109217Y6287626D01*
D11*
G04 #@! TO.C,U4*
X38555703Y6341380D02*
X38555703Y10741380D01*
X38555703Y10741380D02*
X33155703Y10741380D01*
X33155703Y10741380D02*
X33155703Y6341380D01*
X33155703Y6341380D02*
X38555703Y6341380D01*
D10*
G04 #@! TO.C,U5*
X10450000Y8125000D02*
X11100000Y7475000D01*
X12250000Y7475000D02*
X11100000Y7475000D01*
X10450000Y8125000D02*
X10450000Y10575000D01*
X12250000Y10575000D02*
X10450000Y10575000D01*
X12250000Y7475000D02*
X12250000Y10575000D01*
G04 #@! TO.C,C1*
X26376000Y13241380D02*
X26376000Y15241380D01*
X25176000Y13241380D02*
X26376000Y13241380D01*
X25176000Y15241380D02*
X25176000Y13241380D01*
X26376000Y15241380D02*
X25176000Y15241380D01*
G04 #@! TO.C,C2*
X20125000Y15241380D02*
X18925000Y15241380D01*
X18925000Y15241380D02*
X18925000Y13241380D01*
X18925000Y13241380D02*
X20125000Y13241380D01*
X20125000Y13241380D02*
X20125000Y15241380D01*
G04 #@! TO.C,C3*
X18175000Y13241380D02*
X18175000Y15241380D01*
X16975000Y13241380D02*
X18175000Y13241380D01*
X16975000Y15241380D02*
X16975000Y13241380D01*
X18175000Y15241380D02*
X16975000Y15241380D01*
G04 #@! TO.C,C4*
X28326000Y13241380D02*
X28326000Y15241380D01*
X27126000Y13241380D02*
X28326000Y13241380D01*
X27126000Y15241380D02*
X27126000Y13241380D01*
X28326000Y15241380D02*
X27126000Y15241380D01*
G04 #@! TO.C,C5*
X34500000Y12600000D02*
X34500000Y11400000D01*
X34500000Y11400000D02*
X36500000Y11400000D01*
X36500000Y11400000D02*
X36500000Y12600000D01*
X36500000Y12600000D02*
X34500000Y12600000D01*
G04 #@! TO.C,C6*
X18144500Y4407000D02*
X18144500Y5607000D01*
X18144500Y5607000D02*
X16144500Y5607000D01*
X16144500Y5607000D02*
X16144500Y4407000D01*
X16144500Y4407000D02*
X18144500Y4407000D01*
G04 #@! TO.C,C7*
X10400000Y12400000D02*
X10400000Y11200000D01*
X10400000Y11200000D02*
X12400000Y11200000D01*
X12400000Y11200000D02*
X12400000Y12400000D01*
X12400000Y12400000D02*
X10400000Y12400000D01*
G04 #@! TO.C,D1*
X11550000Y15075000D02*
X11050000Y15075000D01*
X11550000Y14675000D02*
X12150000Y15075000D01*
X11550000Y15475000D02*
X11550000Y14675000D01*
X12150000Y15075000D02*
X11550000Y15475000D01*
X12150000Y15075000D02*
X12150000Y14525000D01*
X12150000Y15075000D02*
X12150000Y15625000D01*
X12550000Y15075000D02*
X12150000Y15075000D01*
X13200000Y14175000D02*
X13200000Y15975000D01*
X10400000Y14175000D02*
X13200000Y14175000D01*
X10400000Y15975000D02*
X10400000Y14175000D01*
X13200000Y15975000D02*
X10400000Y15975000D01*
G04 #@! TO.C,R1*
X33755703Y13641380D02*
X34955703Y13641380D01*
X34955703Y13641380D02*
X34955703Y15641380D01*
X34955703Y15641380D02*
X33755703Y15641380D01*
X33755703Y15641380D02*
X33755703Y13641380D01*
G04 #@! TO.C,R2*
X31755703Y13641380D02*
X32955703Y13641380D01*
X32955703Y13641380D02*
X32955703Y15641380D01*
X32955703Y15641380D02*
X31755703Y15641380D01*
X31755703Y15641380D02*
X31755703Y13641380D01*
G04 #@! TO.C,R3*
X35755703Y13641380D02*
X36955703Y13641380D01*
X36955703Y13641380D02*
X36955703Y15641380D01*
X36955703Y15641380D02*
X35755703Y15641380D01*
X35755703Y15641380D02*
X35755703Y13641380D01*
G04 #@! TO.C,R4*
X23450000Y4941380D02*
X25450000Y4941380D01*
X23450000Y6141380D02*
X23450000Y4941380D01*
X25450000Y6141380D02*
X23450000Y6141380D01*
X25450000Y4941380D02*
X25450000Y6141380D01*
G04 #@! TO.C,R5*
X30250000Y9900000D02*
X32250000Y9900000D01*
X30250000Y11100000D02*
X30250000Y9900000D01*
X32250000Y11100000D02*
X30250000Y11100000D01*
X32250000Y9900000D02*
X32250000Y11100000D01*
G04 #@! TO.C,R6*
X32250000Y9141380D02*
X30250000Y9141380D01*
X32250000Y7941380D02*
X32250000Y9141380D01*
X30250000Y7941380D02*
X32250000Y7941380D01*
X30250000Y9141380D02*
X30250000Y7941380D01*
G04 #@! TO.C,R7*
X30250000Y7141380D02*
X30250000Y5941380D01*
X30250000Y5941380D02*
X32250000Y5941380D01*
X32250000Y5941380D02*
X32250000Y7141380D01*
X32250000Y7141380D02*
X30250000Y7141380D01*
G04 #@! TO.C,R8*
X23550000Y8000000D02*
X23550000Y10000000D01*
X22350000Y8000000D02*
X23550000Y8000000D01*
X22350000Y10000000D02*
X22350000Y8000000D01*
X23550000Y10000000D02*
X22350000Y10000000D01*
G04 #@! TO.C,U2*
X21954000Y13074000D02*
X21954000Y15524000D01*
X22504000Y12504000D02*
X23354000Y12504000D01*
X21954000Y13074000D02*
X22504000Y12504000D01*
X23354000Y12504000D02*
X23354000Y15544000D01*
X21954000Y15544000D02*
X23354000Y15544000D01*
G04 #@! TD*
G04 #@! TO.C,F1*
D11*
X15663380Y21704167D02*
X15711000Y21751786D01*
X15758619Y21847024D01*
X15758619Y22085120D01*
X15711000Y22180358D01*
X15663380Y22227977D01*
X15568142Y22275596D01*
X15472904Y22275596D01*
X15330047Y22227977D01*
X14758619Y21656548D01*
X14758619Y22275596D01*
X15758619Y22894643D02*
X15758619Y22989881D01*
X15711000Y23085120D01*
X15663380Y23132739D01*
X15568142Y23180358D01*
X15377666Y23227977D01*
X15139571Y23227977D01*
X14949095Y23180358D01*
X14853857Y23132739D01*
X14806238Y23085120D01*
X14758619Y22989881D01*
X14758619Y22894643D01*
X14806238Y22799405D01*
X14853857Y22751786D01*
X14949095Y22704167D01*
X15139571Y22656548D01*
X15377666Y22656548D01*
X15568142Y22704167D01*
X15663380Y22751786D01*
X15711000Y22799405D01*
X15758619Y22894643D01*
X15758619Y23847024D02*
X15758619Y23942262D01*
X15711000Y24037500D01*
X15663380Y24085120D01*
X15568142Y24132739D01*
X15377666Y24180358D01*
X15139571Y24180358D01*
X14949095Y24132739D01*
X14853857Y24085120D01*
X14806238Y24037500D01*
X14758619Y23942262D01*
X14758619Y23847024D01*
X14806238Y23751786D01*
X14853857Y23704167D01*
X14949095Y23656548D01*
X15139571Y23608929D01*
X15377666Y23608929D01*
X15568142Y23656548D01*
X15663380Y23704167D01*
X15711000Y23751786D01*
X15758619Y23847024D01*
X14758619Y24608929D02*
X15425285Y24608929D01*
X15330047Y24608929D02*
X15377666Y24656548D01*
X15425285Y24751786D01*
X15425285Y24894643D01*
X15377666Y24989881D01*
X15282428Y25037500D01*
X14758619Y25037500D01*
X15282428Y25037500D02*
X15377666Y25085120D01*
X15425285Y25180358D01*
X15425285Y25323215D01*
X15377666Y25418453D01*
X15282428Y25466072D01*
X14758619Y25466072D01*
X15044333Y25894643D02*
X15044333Y26370834D01*
X14758619Y25799405D02*
X15758619Y26132739D01*
X14758619Y26466072D01*
D12*
X15125285Y14379167D02*
X15125285Y14545834D01*
X15387190Y14545834D02*
X14887190Y14545834D01*
X14887190Y14307739D01*
X15387190Y13855358D02*
X15387190Y14141072D01*
X15387190Y13998215D02*
X14887190Y13998215D01*
X14958619Y14045834D01*
X15006238Y14093453D01*
X15030047Y14141072D01*
G04 #@! TO.C,U1*
D11*
X19366666Y21417858D02*
X19414285Y21370239D01*
X19557142Y21322620D01*
X19652380Y21322620D01*
X19795238Y21370239D01*
X19890476Y21465477D01*
X19938095Y21560715D01*
X19985714Y21751191D01*
X19985714Y21894048D01*
X19938095Y22084524D01*
X19890476Y22179762D01*
X19795238Y22275000D01*
X19652380Y22322620D01*
X19557142Y22322620D01*
X19414285Y22275000D01*
X19366666Y22227381D01*
X18938095Y21322620D02*
X18938095Y22322620D01*
X18938095Y21846429D02*
X18366666Y21846429D01*
X18366666Y21322620D02*
X18366666Y22322620D01*
X17985714Y22322620D02*
X17366666Y22322620D01*
X17700000Y21941667D01*
X17557142Y21941667D01*
X17461904Y21894048D01*
X17414285Y21846429D01*
X17366666Y21751191D01*
X17366666Y21513096D01*
X17414285Y21417858D01*
X17461904Y21370239D01*
X17557142Y21322620D01*
X17842857Y21322620D01*
X17938095Y21370239D01*
X17985714Y21417858D01*
X17033333Y22322620D02*
X16414285Y22322620D01*
X16747619Y21941667D01*
X16604761Y21941667D01*
X16509523Y21894048D01*
X16461904Y21846429D01*
X16414285Y21751191D01*
X16414285Y21513096D01*
X16461904Y21417858D01*
X16509523Y21370239D01*
X16604761Y21322620D01*
X16890476Y21322620D01*
X16985714Y21370239D01*
X17033333Y21417858D01*
X15795238Y22322620D02*
X15700000Y22322620D01*
X15604761Y22275000D01*
X15557142Y22227381D01*
X15509523Y22132143D01*
X15461904Y21941667D01*
X15461904Y21703572D01*
X15509523Y21513096D01*
X15557142Y21417858D01*
X15604761Y21370239D01*
X15700000Y21322620D01*
X15795238Y21322620D01*
X15890476Y21370239D01*
X15938095Y21417858D01*
X15985714Y21513096D01*
X16033333Y21703572D01*
X16033333Y21941667D01*
X15985714Y22132143D01*
X15938095Y22227381D01*
X15890476Y22275000D01*
X15795238Y22322620D01*
X15033333Y21322620D02*
X15033333Y22322620D01*
X14461904Y21322620D01*
X14461904Y22322620D01*
X18821121Y9285246D02*
X18821121Y8475722D01*
X18773502Y8380484D01*
X18725883Y8332865D01*
X18630645Y8285246D01*
X18440169Y8285246D01*
X18344931Y8332865D01*
X18297312Y8380484D01*
X18249693Y8475722D01*
X18249693Y9285246D01*
X17249693Y8285246D02*
X17821121Y8285246D01*
X17535407Y8285246D02*
X17535407Y9285246D01*
X17630645Y9142388D01*
X17725883Y9047150D01*
X17821121Y8999531D01*
G04 #@! TO.C,U4*
X42866666Y10745239D02*
X42866666Y10269048D01*
X43152380Y10840477D02*
X42152380Y10507143D01*
X43152380Y10173810D01*
X43152380Y9840477D02*
X42152380Y9840477D01*
X42628571Y9840477D02*
X42628571Y9269048D01*
X43152380Y9269048D02*
X42152380Y9269048D01*
X42152380Y8935715D02*
X42152380Y8364286D01*
X43152380Y8650000D02*
X42152380Y8650000D01*
X43152380Y7507143D02*
X43152380Y8078572D01*
X43152380Y7792858D02*
X42152380Y7792858D01*
X42295238Y7888096D01*
X42390476Y7983334D01*
X42438095Y8078572D01*
X42152380Y6888096D02*
X42152380Y6792858D01*
X42200000Y6697620D01*
X42247619Y6650000D01*
X42342857Y6602381D01*
X42533333Y6554762D01*
X42771428Y6554762D01*
X42961904Y6602381D01*
X43057142Y6650000D01*
X43104761Y6697620D01*
X43152380Y6792858D01*
X43152380Y6888096D01*
X43104761Y6983334D01*
X43057142Y7030953D01*
X42961904Y7078572D01*
X42771428Y7126191D01*
X42533333Y7126191D01*
X42342857Y7078572D01*
X42247619Y7030953D01*
X42200000Y6983334D01*
X42152380Y6888096D01*
G04 #@! TO.C,U5*
X10652380Y2215477D02*
X11461904Y2215477D01*
X11557142Y2167858D01*
X11604761Y2120239D01*
X11652380Y2025000D01*
X11652380Y1834524D01*
X11604761Y1739286D01*
X11557142Y1691667D01*
X11461904Y1644048D01*
X10652380Y1644048D01*
X11604761Y1215477D02*
X11652380Y1072620D01*
X11652380Y834524D01*
X11604761Y739286D01*
X11557142Y691667D01*
X11461904Y644048D01*
X11366666Y644048D01*
X11271428Y691667D01*
X11223809Y739286D01*
X11176190Y834524D01*
X11128571Y1025000D01*
X11080952Y1120239D01*
X11033333Y1167858D01*
X10938095Y1215477D01*
X10842857Y1215477D01*
X10747619Y1167858D01*
X10700000Y1120239D01*
X10652380Y1025000D01*
X10652380Y786905D01*
X10700000Y644048D01*
X11128571Y-117857D02*
X11176190Y-260714D01*
X11223809Y-308333D01*
X11319047Y-355952D01*
X11461904Y-355952D01*
X11557142Y-308333D01*
X11604761Y-260714D01*
X11652380Y-165476D01*
X11652380Y215477D01*
X10652380Y215477D01*
X10652380Y-117857D01*
X10700000Y-213095D01*
X10747619Y-260714D01*
X10842857Y-308333D01*
X10938095Y-308333D01*
X11033333Y-260714D01*
X11080952Y-213095D01*
X11128571Y-117857D01*
X11128571Y215477D01*
X11652380Y-1260714D02*
X11652380Y-784523D01*
X10652380Y-784523D01*
X11557142Y-2165476D02*
X11604761Y-2117857D01*
X11652380Y-1975000D01*
X11652380Y-1879761D01*
X11604761Y-1736904D01*
X11509523Y-1641666D01*
X11414285Y-1594047D01*
X11223809Y-1546428D01*
X11080952Y-1546428D01*
X10890476Y-1594047D01*
X10795238Y-1641666D01*
X10700000Y-1736904D01*
X10652380Y-1879761D01*
X10652380Y-1975000D01*
X10700000Y-2117857D01*
X10747619Y-2165476D01*
X10652380Y-3022619D02*
X10652380Y-2832142D01*
X10700000Y-2736904D01*
X10747619Y-2689285D01*
X10890476Y-2594047D01*
X11080952Y-2546428D01*
X11461904Y-2546428D01*
X11557142Y-2594047D01*
X11604761Y-2641666D01*
X11652380Y-2736904D01*
X11652380Y-2927380D01*
X11604761Y-3022619D01*
X11557142Y-3070238D01*
X11461904Y-3117857D01*
X11223809Y-3117857D01*
X11128571Y-3070238D01*
X11080952Y-3022619D01*
X11033333Y-2927380D01*
X11033333Y-2736904D01*
X11080952Y-2641666D01*
X11128571Y-2594047D01*
X11223809Y-2546428D01*
X11271428Y-3546428D02*
X11271428Y-4308333D01*
X10747619Y-4736904D02*
X10700000Y-4784523D01*
X10652380Y-4879761D01*
X10652380Y-5117857D01*
X10700000Y-5213095D01*
X10747619Y-5260714D01*
X10842857Y-5308333D01*
X10938095Y-5308333D01*
X11080952Y-5260714D01*
X11652380Y-4689285D01*
X11652380Y-5308333D01*
X11604761Y-5689285D02*
X11652380Y-5832142D01*
X11652380Y-6070238D01*
X11604761Y-6165476D01*
X11557142Y-6213095D01*
X11461904Y-6260714D01*
X11366666Y-6260714D01*
X11271428Y-6213095D01*
X11223809Y-6165476D01*
X11176190Y-6070238D01*
X11128571Y-5879761D01*
X11080952Y-5784523D01*
X11033333Y-5736904D01*
X10938095Y-5689285D01*
X10842857Y-5689285D01*
X10747619Y-5736904D01*
X10700000Y-5784523D01*
X10652380Y-5879761D01*
X10652380Y-6117857D01*
X10700000Y-6260714D01*
X11557142Y-7260714D02*
X11604761Y-7213095D01*
X11652380Y-7070238D01*
X11652380Y-6975000D01*
X11604761Y-6832142D01*
X11509523Y-6736904D01*
X11414285Y-6689285D01*
X11223809Y-6641666D01*
X11080952Y-6641666D01*
X10890476Y-6689285D01*
X10795238Y-6736904D01*
X10700000Y-6832142D01*
X10652380Y-6975000D01*
X10652380Y-7070238D01*
X10700000Y-7213095D01*
X10747619Y-7260714D01*
X10652380Y-8117857D02*
X10652380Y-7927380D01*
X10700000Y-7832142D01*
X10747619Y-7784523D01*
X10890476Y-7689285D01*
X11080952Y-7641666D01*
X11461904Y-7641666D01*
X11557142Y-7689285D01*
X11604761Y-7736904D01*
X11652380Y-7832142D01*
X11652380Y-8022619D01*
X11604761Y-8117857D01*
X11557142Y-8165476D01*
X11461904Y-8213095D01*
X11223809Y-8213095D01*
X11128571Y-8165476D01*
X11080952Y-8117857D01*
X11033333Y-8022619D01*
X11033333Y-7832142D01*
X11080952Y-7736904D01*
X11128571Y-7689285D01*
X11223809Y-7641666D01*
D13*
X11623809Y8644048D02*
X11219047Y8644048D01*
X11171428Y8667858D01*
X11147619Y8691667D01*
X11123809Y8739286D01*
X11123809Y8834524D01*
X11147619Y8882143D01*
X11171428Y8905953D01*
X11219047Y8929762D01*
X11623809Y8929762D01*
X11623809Y9405953D02*
X11623809Y9167858D01*
X11385714Y9144048D01*
X11409523Y9167858D01*
X11433333Y9215477D01*
X11433333Y9334524D01*
X11409523Y9382143D01*
X11385714Y9405953D01*
X11338095Y9429762D01*
X11219047Y9429762D01*
X11171428Y9405953D01*
X11147619Y9382143D01*
X11123809Y9334524D01*
X11123809Y9215477D01*
X11147619Y9167858D01*
X11171428Y9144048D01*
G04 #@! TO.C,C1*
D11*
X26178380Y24119048D02*
X26178380Y24690477D01*
X26178380Y24404762D02*
X25178380Y24404762D01*
X25321238Y24500000D01*
X25416476Y24595239D01*
X25464095Y24690477D01*
X25178380Y23500000D02*
X25178380Y23404762D01*
X25226000Y23309524D01*
X25273619Y23261905D01*
X25368857Y23214286D01*
X25559333Y23166667D01*
X25797428Y23166667D01*
X25987904Y23214286D01*
X26083142Y23261905D01*
X26130761Y23309524D01*
X26178380Y23404762D01*
X26178380Y23500000D01*
X26130761Y23595239D01*
X26083142Y23642858D01*
X25987904Y23690477D01*
X25797428Y23738096D01*
X25559333Y23738096D01*
X25368857Y23690477D01*
X25273619Y23642858D01*
X25226000Y23595239D01*
X25178380Y23500000D01*
X25178380Y22547620D02*
X25178380Y22452381D01*
X25226000Y22357143D01*
X25273619Y22309524D01*
X25368857Y22261905D01*
X25559333Y22214286D01*
X25797428Y22214286D01*
X25987904Y22261905D01*
X26083142Y22309524D01*
X26130761Y22357143D01*
X26178380Y22452381D01*
X26178380Y22547620D01*
X26130761Y22642858D01*
X26083142Y22690477D01*
X25987904Y22738096D01*
X25797428Y22785715D01*
X25559333Y22785715D01*
X25368857Y22738096D01*
X25273619Y22690477D01*
X25226000Y22642858D01*
X25178380Y22547620D01*
X25511714Y21785715D02*
X26178380Y21785715D01*
X25606952Y21785715D02*
X25559333Y21738096D01*
X25511714Y21642858D01*
X25511714Y21500000D01*
X25559333Y21404762D01*
X25654571Y21357143D01*
X26178380Y21357143D01*
D12*
X25954571Y14324714D02*
X25978380Y14348523D01*
X26002190Y14419952D01*
X26002190Y14467571D01*
X25978380Y14539000D01*
X25930761Y14586619D01*
X25883142Y14610428D01*
X25787904Y14634238D01*
X25716476Y14634238D01*
X25621238Y14610428D01*
X25573619Y14586619D01*
X25526000Y14539000D01*
X25502190Y14467571D01*
X25502190Y14419952D01*
X25526000Y14348523D01*
X25549809Y14324714D01*
X26002190Y13848523D02*
X26002190Y14134238D01*
X26002190Y13991380D02*
X25502190Y13991380D01*
X25573619Y14039000D01*
X25621238Y14086619D01*
X25645047Y14134238D01*
G04 #@! TO.C,C2*
D11*
X20185380Y24826858D02*
X20185380Y25398286D01*
X20185380Y25112572D02*
X19185380Y25112572D01*
X19328238Y25207810D01*
X19423476Y25303048D01*
X19471095Y25398286D01*
X19185380Y24207810D02*
X19185380Y24112572D01*
X19233000Y24017334D01*
X19280619Y23969715D01*
X19375857Y23922096D01*
X19566333Y23874477D01*
X19804428Y23874477D01*
X19994904Y23922096D01*
X20090142Y23969715D01*
X20137761Y24017334D01*
X20185380Y24112572D01*
X20185380Y24207810D01*
X20137761Y24303048D01*
X20090142Y24350667D01*
X19994904Y24398286D01*
X19804428Y24445905D01*
X19566333Y24445905D01*
X19375857Y24398286D01*
X19280619Y24350667D01*
X19233000Y24303048D01*
X19185380Y24207810D01*
X19518714Y23017334D02*
X20185380Y23017334D01*
X19518714Y23445905D02*
X20042523Y23445905D01*
X20137761Y23398286D01*
X20185380Y23303048D01*
X20185380Y23160191D01*
X20137761Y23064953D01*
X20090142Y23017334D01*
D12*
X19703571Y14324714D02*
X19727380Y14348523D01*
X19751190Y14419952D01*
X19751190Y14467571D01*
X19727380Y14539000D01*
X19679761Y14586619D01*
X19632142Y14610428D01*
X19536904Y14634238D01*
X19465476Y14634238D01*
X19370238Y14610428D01*
X19322619Y14586619D01*
X19275000Y14539000D01*
X19251190Y14467571D01*
X19251190Y14419952D01*
X19275000Y14348523D01*
X19298809Y14324714D01*
X19298809Y14134238D02*
X19275000Y14110428D01*
X19251190Y14062809D01*
X19251190Y13943761D01*
X19275000Y13896142D01*
X19298809Y13872333D01*
X19346428Y13848523D01*
X19394047Y13848523D01*
X19465476Y13872333D01*
X19751190Y14158047D01*
X19751190Y13848523D01*
G04 #@! TO.C,C3*
D11*
X18026380Y25811048D02*
X18026380Y26382477D01*
X18026380Y26096762D02*
X17026380Y26096762D01*
X17169238Y26192000D01*
X17264476Y26287239D01*
X17312095Y26382477D01*
X17026380Y25192000D02*
X17026380Y25096762D01*
X17074000Y25001524D01*
X17121619Y24953905D01*
X17216857Y24906286D01*
X17407333Y24858667D01*
X17645428Y24858667D01*
X17835904Y24906286D01*
X17931142Y24953905D01*
X17978761Y25001524D01*
X18026380Y25096762D01*
X18026380Y25192000D01*
X17978761Y25287239D01*
X17931142Y25334858D01*
X17835904Y25382477D01*
X17645428Y25430096D01*
X17407333Y25430096D01*
X17216857Y25382477D01*
X17121619Y25334858D01*
X17074000Y25287239D01*
X17026380Y25192000D01*
X17026380Y24239620D02*
X17026380Y24144381D01*
X17074000Y24049143D01*
X17121619Y24001524D01*
X17216857Y23953905D01*
X17407333Y23906286D01*
X17645428Y23906286D01*
X17835904Y23953905D01*
X17931142Y24001524D01*
X17978761Y24049143D01*
X18026380Y24144381D01*
X18026380Y24239620D01*
X17978761Y24334858D01*
X17931142Y24382477D01*
X17835904Y24430096D01*
X17645428Y24477715D01*
X17407333Y24477715D01*
X17216857Y24430096D01*
X17121619Y24382477D01*
X17074000Y24334858D01*
X17026380Y24239620D01*
X17359714Y23477715D02*
X18026380Y23477715D01*
X17454952Y23477715D02*
X17407333Y23430096D01*
X17359714Y23334858D01*
X17359714Y23192000D01*
X17407333Y23096762D01*
X17502571Y23049143D01*
X18026380Y23049143D01*
D12*
X17753571Y14324714D02*
X17777380Y14348523D01*
X17801190Y14419952D01*
X17801190Y14467571D01*
X17777380Y14539000D01*
X17729761Y14586619D01*
X17682142Y14610428D01*
X17586904Y14634238D01*
X17515476Y14634238D01*
X17420238Y14610428D01*
X17372619Y14586619D01*
X17325000Y14539000D01*
X17301190Y14467571D01*
X17301190Y14419952D01*
X17325000Y14348523D01*
X17348809Y14324714D01*
X17301190Y14158047D02*
X17301190Y13848523D01*
X17491666Y14015190D01*
X17491666Y13943761D01*
X17515476Y13896142D01*
X17539285Y13872333D01*
X17586904Y13848523D01*
X17705952Y13848523D01*
X17753571Y13872333D01*
X17777380Y13896142D01*
X17801190Y13943761D01*
X17801190Y14086619D01*
X17777380Y14134238D01*
X17753571Y14158047D01*
G04 #@! TO.C,C4*
D11*
X27928380Y23392858D02*
X27928380Y23964286D01*
X27928380Y23678572D02*
X26928380Y23678572D01*
X27071238Y23773810D01*
X27166476Y23869048D01*
X27214095Y23964286D01*
X26928380Y22773810D02*
X26928380Y22678572D01*
X26976000Y22583334D01*
X27023619Y22535715D01*
X27118857Y22488096D01*
X27309333Y22440477D01*
X27547428Y22440477D01*
X27737904Y22488096D01*
X27833142Y22535715D01*
X27880761Y22583334D01*
X27928380Y22678572D01*
X27928380Y22773810D01*
X27880761Y22869048D01*
X27833142Y22916667D01*
X27737904Y22964286D01*
X27547428Y23011905D01*
X27309333Y23011905D01*
X27118857Y22964286D01*
X27023619Y22916667D01*
X26976000Y22869048D01*
X26928380Y22773810D01*
X27261714Y21583334D02*
X27928380Y21583334D01*
X27261714Y22011905D02*
X27785523Y22011905D01*
X27880761Y21964286D01*
X27928380Y21869048D01*
X27928380Y21726191D01*
X27880761Y21630953D01*
X27833142Y21583334D01*
D12*
X27904571Y14324714D02*
X27928380Y14348523D01*
X27952190Y14419952D01*
X27952190Y14467571D01*
X27928380Y14539000D01*
X27880761Y14586619D01*
X27833142Y14610428D01*
X27737904Y14634238D01*
X27666476Y14634238D01*
X27571238Y14610428D01*
X27523619Y14586619D01*
X27476000Y14539000D01*
X27452190Y14467571D01*
X27452190Y14419952D01*
X27476000Y14348523D01*
X27499809Y14324714D01*
X27618857Y13896142D02*
X27952190Y13896142D01*
X27428380Y14015190D02*
X27785523Y14134238D01*
X27785523Y13824714D01*
G04 #@! TO.C,C5*
D11*
X41369047Y11547620D02*
X41940476Y11547620D01*
X41654761Y11547620D02*
X41654761Y12547620D01*
X41750000Y12404762D01*
X41845238Y12309524D01*
X41940476Y12261905D01*
X40750000Y12547620D02*
X40654761Y12547620D01*
X40559523Y12500000D01*
X40511904Y12452381D01*
X40464285Y12357143D01*
X40416666Y12166667D01*
X40416666Y11928572D01*
X40464285Y11738096D01*
X40511904Y11642858D01*
X40559523Y11595239D01*
X40654761Y11547620D01*
X40750000Y11547620D01*
X40845238Y11595239D01*
X40892857Y11642858D01*
X40940476Y11738096D01*
X40988095Y11928572D01*
X40988095Y12166667D01*
X40940476Y12357143D01*
X40892857Y12452381D01*
X40845238Y12500000D01*
X40750000Y12547620D01*
X39797619Y12547620D02*
X39702380Y12547620D01*
X39607142Y12500000D01*
X39559523Y12452381D01*
X39511904Y12357143D01*
X39464285Y12166667D01*
X39464285Y11928572D01*
X39511904Y11738096D01*
X39559523Y11642858D01*
X39607142Y11595239D01*
X39702380Y11547620D01*
X39797619Y11547620D01*
X39892857Y11595239D01*
X39940476Y11642858D01*
X39988095Y11738096D01*
X40035714Y11928572D01*
X40035714Y12166667D01*
X39988095Y12357143D01*
X39940476Y12452381D01*
X39892857Y12500000D01*
X39797619Y12547620D01*
X39035714Y12214286D02*
X39035714Y11547620D01*
X39035714Y12119048D02*
X38988095Y12166667D01*
X38892857Y12214286D01*
X38750000Y12214286D01*
X38654761Y12166667D01*
X38607142Y12071429D01*
X38607142Y11547620D01*
D12*
X35583333Y11821429D02*
X35607142Y11797620D01*
X35678571Y11773810D01*
X35726190Y11773810D01*
X35797619Y11797620D01*
X35845238Y11845239D01*
X35869047Y11892858D01*
X35892857Y11988096D01*
X35892857Y12059524D01*
X35869047Y12154762D01*
X35845238Y12202381D01*
X35797619Y12250000D01*
X35726190Y12273810D01*
X35678571Y12273810D01*
X35607142Y12250000D01*
X35583333Y12226191D01*
X35130952Y12273810D02*
X35369047Y12273810D01*
X35392857Y12035715D01*
X35369047Y12059524D01*
X35321428Y12083334D01*
X35202380Y12083334D01*
X35154761Y12059524D01*
X35130952Y12035715D01*
X35107142Y11988096D01*
X35107142Y11869048D01*
X35130952Y11821429D01*
X35154761Y11797620D01*
X35202380Y11773810D01*
X35321428Y11773810D01*
X35369047Y11797620D01*
X35392857Y11821429D01*
G04 #@! TO.C,C6*
D11*
X18693047Y-1668380D02*
X19264476Y-1668380D01*
X18978761Y-1668380D02*
X18978761Y-668380D01*
X19074000Y-811238D01*
X19169238Y-906476D01*
X19264476Y-954095D01*
X18074000Y-668380D02*
X17978761Y-668380D01*
X17883523Y-716000D01*
X17835904Y-763619D01*
X17788285Y-858857D01*
X17740666Y-1049333D01*
X17740666Y-1287428D01*
X17788285Y-1477904D01*
X17835904Y-1573142D01*
X17883523Y-1620761D01*
X17978761Y-1668380D01*
X18074000Y-1668380D01*
X18169238Y-1620761D01*
X18216857Y-1573142D01*
X18264476Y-1477904D01*
X18312095Y-1287428D01*
X18312095Y-1049333D01*
X18264476Y-858857D01*
X18216857Y-763619D01*
X18169238Y-716000D01*
X18074000Y-668380D01*
X17121619Y-668380D02*
X17026380Y-668380D01*
X16931142Y-716000D01*
X16883523Y-763619D01*
X16835904Y-858857D01*
X16788285Y-1049333D01*
X16788285Y-1287428D01*
X16835904Y-1477904D01*
X16883523Y-1573142D01*
X16931142Y-1620761D01*
X17026380Y-1668380D01*
X17121619Y-1668380D01*
X17216857Y-1620761D01*
X17264476Y-1573142D01*
X17312095Y-1477904D01*
X17359714Y-1287428D01*
X17359714Y-1049333D01*
X17312095Y-858857D01*
X17264476Y-763619D01*
X17216857Y-716000D01*
X17121619Y-668380D01*
X16359714Y-1001714D02*
X16359714Y-1668380D01*
X16359714Y-1096952D02*
X16312095Y-1049333D01*
X16216857Y-1001714D01*
X16074000Y-1001714D01*
X15978761Y-1049333D01*
X15931142Y-1144571D01*
X15931142Y-1668380D01*
D12*
X17227833Y4828429D02*
X17251642Y4804620D01*
X17323071Y4780810D01*
X17370690Y4780810D01*
X17442119Y4804620D01*
X17489738Y4852239D01*
X17513547Y4899858D01*
X17537357Y4995096D01*
X17537357Y5066524D01*
X17513547Y5161762D01*
X17489738Y5209381D01*
X17442119Y5257000D01*
X17370690Y5280810D01*
X17323071Y5280810D01*
X17251642Y5257000D01*
X17227833Y5233191D01*
X16799261Y5280810D02*
X16894500Y5280810D01*
X16942119Y5257000D01*
X16965928Y5233191D01*
X17013547Y5161762D01*
X17037357Y5066524D01*
X17037357Y4876048D01*
X17013547Y4828429D01*
X16989738Y4804620D01*
X16942119Y4780810D01*
X16846880Y4780810D01*
X16799261Y4804620D01*
X16775452Y4828429D01*
X16751642Y4876048D01*
X16751642Y4995096D01*
X16775452Y5042715D01*
X16799261Y5066524D01*
X16846880Y5090334D01*
X16942119Y5090334D01*
X16989738Y5066524D01*
X17013547Y5042715D01*
X17037357Y4995096D01*
G04 #@! TO.C,C7*
D11*
X11119047Y17797620D02*
X11690476Y17797620D01*
X11404761Y17797620D02*
X11404761Y18797620D01*
X11500000Y18654762D01*
X11595238Y18559524D01*
X11690476Y18511905D01*
X10500000Y18797620D02*
X10404761Y18797620D01*
X10309523Y18750000D01*
X10261904Y18702381D01*
X10214285Y18607143D01*
X10166666Y18416667D01*
X10166666Y18178572D01*
X10214285Y17988096D01*
X10261904Y17892858D01*
X10309523Y17845239D01*
X10404761Y17797620D01*
X10500000Y17797620D01*
X10595238Y17845239D01*
X10642857Y17892858D01*
X10690476Y17988096D01*
X10738095Y18178572D01*
X10738095Y18416667D01*
X10690476Y18607143D01*
X10642857Y18702381D01*
X10595238Y18750000D01*
X10500000Y18797620D01*
X9547619Y18797620D02*
X9452380Y18797620D01*
X9357142Y18750000D01*
X9309523Y18702381D01*
X9261904Y18607143D01*
X9214285Y18416667D01*
X9214285Y18178572D01*
X9261904Y17988096D01*
X9309523Y17892858D01*
X9357142Y17845239D01*
X9452380Y17797620D01*
X9547619Y17797620D01*
X9642857Y17845239D01*
X9690476Y17892858D01*
X9738095Y17988096D01*
X9785714Y18178572D01*
X9785714Y18416667D01*
X9738095Y18607143D01*
X9690476Y18702381D01*
X9642857Y18750000D01*
X9547619Y18797620D01*
X8785714Y18464286D02*
X8785714Y17797620D01*
X8785714Y18369048D02*
X8738095Y18416667D01*
X8642857Y18464286D01*
X8500000Y18464286D01*
X8404761Y18416667D01*
X8357142Y18321429D01*
X8357142Y17797620D01*
D12*
X11483333Y11621429D02*
X11507142Y11597620D01*
X11578571Y11573810D01*
X11626190Y11573810D01*
X11697619Y11597620D01*
X11745238Y11645239D01*
X11769047Y11692858D01*
X11792857Y11788096D01*
X11792857Y11859524D01*
X11769047Y11954762D01*
X11745238Y12002381D01*
X11697619Y12050000D01*
X11626190Y12073810D01*
X11578571Y12073810D01*
X11507142Y12050000D01*
X11483333Y12026191D01*
X11316666Y12073810D02*
X10983333Y12073810D01*
X11197619Y11573810D01*
G04 #@! TO.C,D1*
D11*
X11329761Y19396429D02*
X11186904Y19348810D01*
X11139285Y19301191D01*
X11091666Y19205953D01*
X11091666Y19063096D01*
X11139285Y18967858D01*
X11186904Y18920239D01*
X11282142Y18872620D01*
X11663095Y18872620D01*
X11663095Y19872620D01*
X11329761Y19872620D01*
X11234523Y19825000D01*
X11186904Y19777381D01*
X11139285Y19682143D01*
X11139285Y19586905D01*
X11186904Y19491667D01*
X11234523Y19444048D01*
X11329761Y19396429D01*
X11663095Y19396429D01*
X10186904Y19872620D02*
X10663095Y19872620D01*
X10710714Y19396429D01*
X10663095Y19444048D01*
X10567857Y19491667D01*
X10329761Y19491667D01*
X10234523Y19444048D01*
X10186904Y19396429D01*
X10139285Y19301191D01*
X10139285Y19063096D01*
X10186904Y18967858D01*
X10234523Y18920239D01*
X10329761Y18872620D01*
X10567857Y18872620D01*
X10663095Y18920239D01*
X10710714Y18967858D01*
X9567857Y19444048D02*
X9663095Y19491667D01*
X9710714Y19539286D01*
X9758333Y19634524D01*
X9758333Y19682143D01*
X9710714Y19777381D01*
X9663095Y19825000D01*
X9567857Y19872620D01*
X9377380Y19872620D01*
X9282142Y19825000D01*
X9234523Y19777381D01*
X9186904Y19682143D01*
X9186904Y19634524D01*
X9234523Y19539286D01*
X9282142Y19491667D01*
X9377380Y19444048D01*
X9567857Y19444048D01*
X9663095Y19396429D01*
X9710714Y19348810D01*
X9758333Y19253572D01*
X9758333Y19063096D01*
X9710714Y18967858D01*
X9663095Y18920239D01*
X9567857Y18872620D01*
X9377380Y18872620D01*
X9282142Y18920239D01*
X9234523Y18967858D01*
X9186904Y19063096D01*
X9186904Y19253572D01*
X9234523Y19348810D01*
X9282142Y19396429D01*
X9377380Y19444048D01*
X8234523Y18872620D02*
X8805952Y18872620D01*
X8520238Y18872620D02*
X8520238Y19872620D01*
X8615476Y19729762D01*
X8710714Y19634524D01*
X8805952Y19586905D01*
X7901190Y19872620D02*
X7234523Y19872620D01*
X7663095Y18872620D01*
X6948809Y19872620D02*
X6710714Y18872620D01*
X6520238Y19586905D01*
X6329761Y18872620D01*
X6091666Y19872620D01*
G04 #@! TO.C,R1*
X34952380Y23390477D02*
X34952380Y23961905D01*
X34952380Y23676191D02*
X33952380Y23676191D01*
X34095238Y23771429D01*
X34190476Y23866667D01*
X34238095Y23961905D01*
X33952380Y22771429D02*
X33952380Y22676191D01*
X34000000Y22580953D01*
X34047619Y22533334D01*
X34142857Y22485715D01*
X34333333Y22438096D01*
X34571428Y22438096D01*
X34761904Y22485715D01*
X34857142Y22533334D01*
X34904761Y22580953D01*
X34952380Y22676191D01*
X34952380Y22771429D01*
X34904761Y22866667D01*
X34857142Y22914286D01*
X34761904Y22961905D01*
X34571428Y23009524D01*
X34333333Y23009524D01*
X34142857Y22961905D01*
X34047619Y22914286D01*
X34000000Y22866667D01*
X33952380Y22771429D01*
X34952380Y22009524D02*
X33952380Y22009524D01*
X34952380Y21438096D02*
X34380952Y21866667D01*
X33952380Y21438096D02*
X34523809Y22009524D01*
D12*
X34581893Y14724714D02*
X34343798Y14891380D01*
X34581893Y15010428D02*
X34081893Y15010428D01*
X34081893Y14819952D01*
X34105703Y14772333D01*
X34129512Y14748523D01*
X34177131Y14724714D01*
X34248560Y14724714D01*
X34296179Y14748523D01*
X34319988Y14772333D01*
X34343798Y14819952D01*
X34343798Y15010428D01*
X34581893Y14248523D02*
X34581893Y14534238D01*
X34581893Y14391380D02*
X34081893Y14391380D01*
X34153322Y14439000D01*
X34200941Y14486619D01*
X34224750Y14534238D01*
G04 #@! TO.C,R2*
D11*
X32952380Y22664286D02*
X32952380Y23235715D01*
X32952380Y22950000D02*
X31952380Y22950000D01*
X32095238Y23045239D01*
X32190476Y23140477D01*
X32238095Y23235715D01*
X32952380Y22235715D02*
X31952380Y22235715D01*
X32952380Y21664286D02*
X32380952Y22092858D01*
X31952380Y21664286D02*
X32523809Y22235715D01*
D12*
X32581893Y14724714D02*
X32343798Y14891380D01*
X32581893Y15010428D02*
X32081893Y15010428D01*
X32081893Y14819952D01*
X32105703Y14772333D01*
X32129512Y14748523D01*
X32177131Y14724714D01*
X32248560Y14724714D01*
X32296179Y14748523D01*
X32319988Y14772333D01*
X32343798Y14819952D01*
X32343798Y15010428D01*
X32129512Y14534238D02*
X32105703Y14510428D01*
X32081893Y14462809D01*
X32081893Y14343761D01*
X32105703Y14296142D01*
X32129512Y14272333D01*
X32177131Y14248523D01*
X32224750Y14248523D01*
X32296179Y14272333D01*
X32581893Y14558047D01*
X32581893Y14248523D01*
G04 #@! TO.C,R3*
D11*
X36702380Y23640477D02*
X36702380Y24211905D01*
X36702380Y23926191D02*
X35702380Y23926191D01*
X35845238Y24021429D01*
X35940476Y24116667D01*
X35988095Y24211905D01*
X35702380Y23021429D02*
X35702380Y22926191D01*
X35750000Y22830953D01*
X35797619Y22783334D01*
X35892857Y22735715D01*
X36083333Y22688096D01*
X36321428Y22688096D01*
X36511904Y22735715D01*
X36607142Y22783334D01*
X36654761Y22830953D01*
X36702380Y22926191D01*
X36702380Y23021429D01*
X36654761Y23116667D01*
X36607142Y23164286D01*
X36511904Y23211905D01*
X36321428Y23259524D01*
X36083333Y23259524D01*
X35892857Y23211905D01*
X35797619Y23164286D01*
X35750000Y23116667D01*
X35702380Y23021429D01*
X36702380Y22259524D02*
X35702380Y22259524D01*
X36702380Y21688096D02*
X36130952Y22116667D01*
X35702380Y21688096D02*
X36273809Y22259524D01*
D12*
X36581893Y14724714D02*
X36343798Y14891380D01*
X36581893Y15010428D02*
X36081893Y15010428D01*
X36081893Y14819952D01*
X36105703Y14772333D01*
X36129512Y14748523D01*
X36177131Y14724714D01*
X36248560Y14724714D01*
X36296179Y14748523D01*
X36319988Y14772333D01*
X36343798Y14819952D01*
X36343798Y15010428D01*
X36081893Y14558047D02*
X36081893Y14248523D01*
X36272369Y14415190D01*
X36272369Y14343761D01*
X36296179Y14296142D01*
X36319988Y14272333D01*
X36367607Y14248523D01*
X36486655Y14248523D01*
X36534274Y14272333D01*
X36558083Y14296142D01*
X36581893Y14343761D01*
X36581893Y14486619D01*
X36558083Y14534238D01*
X36534274Y14558047D01*
G04 #@! TO.C,R4*
D11*
X25440476Y-1452380D02*
X26011904Y-1452380D01*
X25726190Y-1452380D02*
X25726190Y-452380D01*
X25821428Y-595238D01*
X25916666Y-690476D01*
X26011904Y-738095D01*
X24821428Y-452380D02*
X24726190Y-452380D01*
X24630952Y-500000D01*
X24583333Y-547619D01*
X24535714Y-642857D01*
X24488095Y-833333D01*
X24488095Y-1071428D01*
X24535714Y-1261904D01*
X24583333Y-1357142D01*
X24630952Y-1404761D01*
X24726190Y-1452380D01*
X24821428Y-1452380D01*
X24916666Y-1404761D01*
X24964285Y-1357142D01*
X25011904Y-1261904D01*
X25059523Y-1071428D01*
X25059523Y-833333D01*
X25011904Y-642857D01*
X24964285Y-547619D01*
X24916666Y-500000D01*
X24821428Y-452380D01*
X24059523Y-1452380D02*
X24059523Y-452380D01*
X23488095Y-1452380D02*
X23916666Y-880952D01*
X23488095Y-452380D02*
X24059523Y-1023809D01*
D12*
X24533333Y5315190D02*
X24700000Y5553285D01*
X24819047Y5315190D02*
X24819047Y5815190D01*
X24628571Y5815190D01*
X24580952Y5791380D01*
X24557142Y5767571D01*
X24533333Y5719952D01*
X24533333Y5648523D01*
X24557142Y5600904D01*
X24580952Y5577095D01*
X24628571Y5553285D01*
X24819047Y5553285D01*
X24104761Y5648523D02*
X24104761Y5315190D01*
X24223809Y5839000D02*
X24342857Y5481857D01*
X24033333Y5481857D01*
G04 #@! TO.C,R5*
D11*
X40690476Y9547620D02*
X41261904Y9547620D01*
X40976190Y9547620D02*
X40976190Y10547620D01*
X41071428Y10404762D01*
X41166666Y10309524D01*
X41261904Y10261905D01*
X40071428Y10547620D02*
X39976190Y10547620D01*
X39880952Y10500000D01*
X39833333Y10452381D01*
X39785714Y10357143D01*
X39738095Y10166667D01*
X39738095Y9928572D01*
X39785714Y9738096D01*
X39833333Y9642858D01*
X39880952Y9595239D01*
X39976190Y9547620D01*
X40071428Y9547620D01*
X40166666Y9595239D01*
X40214285Y9642858D01*
X40261904Y9738096D01*
X40309523Y9928572D01*
X40309523Y10166667D01*
X40261904Y10357143D01*
X40214285Y10452381D01*
X40166666Y10500000D01*
X40071428Y10547620D01*
X39309523Y9547620D02*
X39309523Y10547620D01*
X38738095Y9547620D02*
X39166666Y10119048D01*
X38738095Y10547620D02*
X39309523Y9976191D01*
D12*
X31333333Y10273810D02*
X31500000Y10511905D01*
X31619047Y10273810D02*
X31619047Y10773810D01*
X31428571Y10773810D01*
X31380952Y10750000D01*
X31357142Y10726191D01*
X31333333Y10678572D01*
X31333333Y10607143D01*
X31357142Y10559524D01*
X31380952Y10535715D01*
X31428571Y10511905D01*
X31619047Y10511905D01*
X30880952Y10773810D02*
X31119047Y10773810D01*
X31142857Y10535715D01*
X31119047Y10559524D01*
X31071428Y10583334D01*
X30952380Y10583334D01*
X30904761Y10559524D01*
X30880952Y10535715D01*
X30857142Y10488096D01*
X30857142Y10369048D01*
X30880952Y10321429D01*
X30904761Y10297620D01*
X30952380Y10273810D01*
X31071428Y10273810D01*
X31119047Y10297620D01*
X31142857Y10321429D01*
G04 #@! TO.C,R6*
D11*
X40690476Y8047620D02*
X41261904Y8047620D01*
X40976190Y8047620D02*
X40976190Y9047620D01*
X41071428Y8904762D01*
X41166666Y8809524D01*
X41261904Y8761905D01*
X40071428Y9047620D02*
X39976190Y9047620D01*
X39880952Y9000000D01*
X39833333Y8952381D01*
X39785714Y8857143D01*
X39738095Y8666667D01*
X39738095Y8428572D01*
X39785714Y8238096D01*
X39833333Y8142858D01*
X39880952Y8095239D01*
X39976190Y8047620D01*
X40071428Y8047620D01*
X40166666Y8095239D01*
X40214285Y8142858D01*
X40261904Y8238096D01*
X40309523Y8428572D01*
X40309523Y8666667D01*
X40261904Y8857143D01*
X40214285Y8952381D01*
X40166666Y9000000D01*
X40071428Y9047620D01*
X39309523Y8047620D02*
X39309523Y9047620D01*
X38738095Y8047620D02*
X39166666Y8619048D01*
X38738095Y9047620D02*
X39309523Y8476191D01*
D12*
X31333333Y8315190D02*
X31500000Y8553285D01*
X31619047Y8315190D02*
X31619047Y8815190D01*
X31428571Y8815190D01*
X31380952Y8791380D01*
X31357142Y8767571D01*
X31333333Y8719952D01*
X31333333Y8648523D01*
X31357142Y8600904D01*
X31380952Y8577095D01*
X31428571Y8553285D01*
X31619047Y8553285D01*
X30904761Y8815190D02*
X31000000Y8815190D01*
X31047619Y8791380D01*
X31071428Y8767571D01*
X31119047Y8696142D01*
X31142857Y8600904D01*
X31142857Y8410428D01*
X31119047Y8362809D01*
X31095238Y8339000D01*
X31047619Y8315190D01*
X30952380Y8315190D01*
X30904761Y8339000D01*
X30880952Y8362809D01*
X30857142Y8410428D01*
X30857142Y8529476D01*
X30880952Y8577095D01*
X30904761Y8600904D01*
X30952380Y8624714D01*
X31047619Y8624714D01*
X31095238Y8600904D01*
X31119047Y8577095D01*
X31142857Y8529476D01*
G04 #@! TO.C,R7*
D11*
X40690476Y6047620D02*
X41261904Y6047620D01*
X40976190Y6047620D02*
X40976190Y7047620D01*
X41071428Y6904762D01*
X41166666Y6809524D01*
X41261904Y6761905D01*
X40071428Y7047620D02*
X39976190Y7047620D01*
X39880952Y7000000D01*
X39833333Y6952381D01*
X39785714Y6857143D01*
X39738095Y6666667D01*
X39738095Y6428572D01*
X39785714Y6238096D01*
X39833333Y6142858D01*
X39880952Y6095239D01*
X39976190Y6047620D01*
X40071428Y6047620D01*
X40166666Y6095239D01*
X40214285Y6142858D01*
X40261904Y6238096D01*
X40309523Y6428572D01*
X40309523Y6666667D01*
X40261904Y6857143D01*
X40214285Y6952381D01*
X40166666Y7000000D01*
X40071428Y7047620D01*
X39309523Y6047620D02*
X39309523Y7047620D01*
X38738095Y6047620D02*
X39166666Y6619048D01*
X38738095Y7047620D02*
X39309523Y6476191D01*
D12*
X31333333Y6315190D02*
X31500000Y6553285D01*
X31619047Y6315190D02*
X31619047Y6815190D01*
X31428571Y6815190D01*
X31380952Y6791380D01*
X31357142Y6767571D01*
X31333333Y6719952D01*
X31333333Y6648523D01*
X31357142Y6600904D01*
X31380952Y6577095D01*
X31428571Y6553285D01*
X31619047Y6553285D01*
X31166666Y6815190D02*
X30833333Y6815190D01*
X31047619Y6315190D01*
G04 #@! TO.C,R8*
D11*
X22535714Y-738095D02*
X23202380Y-738095D01*
X22154761Y-500000D02*
X22869047Y-261904D01*
X22869047Y-880952D01*
X22202380Y-1166666D02*
X22202380Y-1833333D01*
X23202380Y-1404761D01*
X22202380Y-2404761D02*
X22202380Y-2500000D01*
X22250000Y-2595238D01*
X22297619Y-2642857D01*
X22392857Y-2690476D01*
X22583333Y-2738095D01*
X22821428Y-2738095D01*
X23011904Y-2690476D01*
X23107142Y-2642857D01*
X23154761Y-2595238D01*
X23202380Y-2500000D01*
X23202380Y-2404761D01*
X23154761Y-2309523D01*
X23107142Y-2261904D01*
X23011904Y-2214285D01*
X22821428Y-2166666D01*
X22583333Y-2166666D01*
X22392857Y-2214285D01*
X22297619Y-2261904D01*
X22250000Y-2309523D01*
X22202380Y-2404761D01*
X23202380Y-3738095D02*
X22726190Y-3404761D01*
X23202380Y-3166666D02*
X22202380Y-3166666D01*
X22202380Y-3547619D01*
X22250000Y-3642857D01*
X22297619Y-3690476D01*
X22392857Y-3738095D01*
X22535714Y-3738095D01*
X22630952Y-3690476D01*
X22678571Y-3642857D01*
X22726190Y-3547619D01*
X22726190Y-3166666D01*
D12*
X23176190Y9083334D02*
X22938095Y9250000D01*
X23176190Y9369048D02*
X22676190Y9369048D01*
X22676190Y9178572D01*
X22700000Y9130953D01*
X22723809Y9107143D01*
X22771428Y9083334D01*
X22842857Y9083334D01*
X22890476Y9107143D01*
X22914285Y9130953D01*
X22938095Y9178572D01*
X22938095Y9369048D01*
X22890476Y8797620D02*
X22866666Y8845239D01*
X22842857Y8869048D01*
X22795238Y8892858D01*
X22771428Y8892858D01*
X22723809Y8869048D01*
X22700000Y8845239D01*
X22676190Y8797620D01*
X22676190Y8702381D01*
X22700000Y8654762D01*
X22723809Y8630953D01*
X22771428Y8607143D01*
X22795238Y8607143D01*
X22842857Y8630953D01*
X22866666Y8654762D01*
X22890476Y8702381D01*
X22890476Y8797620D01*
X22914285Y8845239D01*
X22938095Y8869048D01*
X22985714Y8892858D01*
X23080952Y8892858D01*
X23128571Y8869048D01*
X23152380Y8845239D01*
X23176190Y8797620D01*
X23176190Y8702381D01*
X23152380Y8654762D01*
X23128571Y8630953D01*
X23080952Y8607143D01*
X22985714Y8607143D01*
X22938095Y8630953D01*
X22914285Y8654762D01*
X22890476Y8702381D01*
G04 #@! TO.C,U2*
D11*
X25225428Y16071620D02*
X25225428Y17071620D01*
X25225428Y16595429D02*
X24654000Y16595429D01*
X24654000Y16071620D02*
X24654000Y17071620D01*
X24320666Y17071620D02*
X23749238Y17071620D01*
X24034952Y16071620D02*
X24034952Y17071620D01*
X23511142Y17071620D02*
X22844476Y17071620D01*
X23273047Y16071620D01*
X22511142Y16976381D02*
X22463523Y17024000D01*
X22368285Y17071620D01*
X22130190Y17071620D01*
X22034952Y17024000D01*
X21987333Y16976381D01*
X21939714Y16881143D01*
X21939714Y16785905D01*
X21987333Y16643048D01*
X22558761Y16071620D01*
X21939714Y16071620D01*
X21606380Y17071620D02*
X20987333Y17071620D01*
X21320666Y16690667D01*
X21177809Y16690667D01*
X21082571Y16643048D01*
X21034952Y16595429D01*
X20987333Y16500191D01*
X20987333Y16262096D01*
X21034952Y16166858D01*
X21082571Y16119239D01*
X21177809Y16071620D01*
X21463523Y16071620D01*
X21558761Y16119239D01*
X21606380Y16166858D01*
X20654000Y17071620D02*
X20034952Y17071620D01*
X20368285Y16690667D01*
X20225428Y16690667D01*
X20130190Y16643048D01*
X20082571Y16595429D01*
X20034952Y16500191D01*
X20034952Y16262096D01*
X20082571Y16166858D01*
X20130190Y16119239D01*
X20225428Y16071620D01*
X20511142Y16071620D01*
X20606380Y16119239D01*
X20654000Y16166858D01*
D13*
X22927809Y13643048D02*
X22523047Y13643048D01*
X22475428Y13666858D01*
X22451619Y13690667D01*
X22427809Y13738286D01*
X22427809Y13833524D01*
X22451619Y13881143D01*
X22475428Y13904953D01*
X22523047Y13928762D01*
X22927809Y13928762D01*
X22880190Y14143048D02*
X22904000Y14166858D01*
X22927809Y14214477D01*
X22927809Y14333524D01*
X22904000Y14381143D01*
X22880190Y14404953D01*
X22832571Y14428762D01*
X22784952Y14428762D01*
X22713523Y14404953D01*
X22427809Y14119239D01*
X22427809Y14428762D01*
G04 #@! TD*
M02*
