G04 #@! TF.GenerationSoftware,KiCad,Pcbnew,5.0.2-bee76a0~70~ubuntu18.04.1*
G04 #@! TF.CreationDate,2019-11-16T09:43:36-05:00*
G04 #@! TF.ProjectId,ESP-AHT10-Extra,4553502d-4148-4543-9130-2d4578747261,1.2*
G04 #@! TF.SameCoordinates,PX7bfa480PY66c2270*
G04 #@! TF.FileFunction,Paste,Bot*
G04 #@! TF.FilePolarity,Positive*
%FSLAX46Y46*%
G04 Gerber Fmt 4.6, Leading zero omitted, Abs format (unit mm)*
G04 Created by KiCad (PCBNEW 5.0.2-bee76a0~70~ubuntu18.04.1) date Sat 16 Nov 2019 09:43:36 AM EST*
%MOMM*%
%LPD*%
G01*
G04 APERTURE LIST*
%ADD10R,1.000000X1.250000*%
%ADD11C,0.050000*%
%ADD12C,0.975000*%
%ADD13R,1.250000X1.000000*%
%ADD14R,1.300000X0.700000*%
%ADD15R,0.700000X1.300000*%
%ADD16R,1.550000X0.600000*%
%ADD17R,0.650000X1.060000*%
%ADD18O,0.650000X1.500000*%
%ADD19R,0.650000X1.500000*%
%ADD20R,1.060000X0.650000*%
%ADD21R,1.100000X1.100000*%
G04 APERTURE END LIST*
D10*
G04 #@! TO.C,C7*
X12400000Y11800000D03*
X10400000Y11800000D03*
G04 #@! TD*
D11*
G04 #@! TO.C,F1*
G36*
X16155142Y15636326D02*
X16178803Y15632816D01*
X16202007Y15627004D01*
X16224529Y15618946D01*
X16246153Y15608718D01*
X16266670Y15596421D01*
X16285883Y15582171D01*
X16303607Y15566107D01*
X16319671Y15548383D01*
X16333921Y15529170D01*
X16346218Y15508653D01*
X16356446Y15487029D01*
X16364504Y15464507D01*
X16370316Y15441303D01*
X16373826Y15417642D01*
X16375000Y15393750D01*
X16375000Y14906250D01*
X16373826Y14882358D01*
X16370316Y14858697D01*
X16364504Y14835493D01*
X16356446Y14812971D01*
X16346218Y14791347D01*
X16333921Y14770830D01*
X16319671Y14751617D01*
X16303607Y14733893D01*
X16285883Y14717829D01*
X16266670Y14703579D01*
X16246153Y14691282D01*
X16224529Y14681054D01*
X16202007Y14672996D01*
X16178803Y14667184D01*
X16155142Y14663674D01*
X16131250Y14662500D01*
X15218750Y14662500D01*
X15194858Y14663674D01*
X15171197Y14667184D01*
X15147993Y14672996D01*
X15125471Y14681054D01*
X15103847Y14691282D01*
X15083330Y14703579D01*
X15064117Y14717829D01*
X15046393Y14733893D01*
X15030329Y14751617D01*
X15016079Y14770830D01*
X15003782Y14791347D01*
X14993554Y14812971D01*
X14985496Y14835493D01*
X14979684Y14858697D01*
X14976174Y14882358D01*
X14975000Y14906250D01*
X14975000Y15393750D01*
X14976174Y15417642D01*
X14979684Y15441303D01*
X14985496Y15464507D01*
X14993554Y15487029D01*
X15003782Y15508653D01*
X15016079Y15529170D01*
X15030329Y15548383D01*
X15046393Y15566107D01*
X15064117Y15582171D01*
X15083330Y15596421D01*
X15103847Y15608718D01*
X15125471Y15618946D01*
X15147993Y15627004D01*
X15171197Y15632816D01*
X15194858Y15636326D01*
X15218750Y15637500D01*
X16131250Y15637500D01*
X16155142Y15636326D01*
X16155142Y15636326D01*
G37*
D12*
X15675000Y15150000D03*
D11*
G36*
X16155142Y13761326D02*
X16178803Y13757816D01*
X16202007Y13752004D01*
X16224529Y13743946D01*
X16246153Y13733718D01*
X16266670Y13721421D01*
X16285883Y13707171D01*
X16303607Y13691107D01*
X16319671Y13673383D01*
X16333921Y13654170D01*
X16346218Y13633653D01*
X16356446Y13612029D01*
X16364504Y13589507D01*
X16370316Y13566303D01*
X16373826Y13542642D01*
X16375000Y13518750D01*
X16375000Y13031250D01*
X16373826Y13007358D01*
X16370316Y12983697D01*
X16364504Y12960493D01*
X16356446Y12937971D01*
X16346218Y12916347D01*
X16333921Y12895830D01*
X16319671Y12876617D01*
X16303607Y12858893D01*
X16285883Y12842829D01*
X16266670Y12828579D01*
X16246153Y12816282D01*
X16224529Y12806054D01*
X16202007Y12797996D01*
X16178803Y12792184D01*
X16155142Y12788674D01*
X16131250Y12787500D01*
X15218750Y12787500D01*
X15194858Y12788674D01*
X15171197Y12792184D01*
X15147993Y12797996D01*
X15125471Y12806054D01*
X15103847Y12816282D01*
X15083330Y12828579D01*
X15064117Y12842829D01*
X15046393Y12858893D01*
X15030329Y12876617D01*
X15016079Y12895830D01*
X15003782Y12916347D01*
X14993554Y12937971D01*
X14985496Y12960493D01*
X14979684Y12983697D01*
X14976174Y13007358D01*
X14975000Y13031250D01*
X14975000Y13518750D01*
X14976174Y13542642D01*
X14979684Y13566303D01*
X14985496Y13589507D01*
X14993554Y13612029D01*
X15003782Y13633653D01*
X15016079Y13654170D01*
X15030329Y13673383D01*
X15046393Y13691107D01*
X15064117Y13707171D01*
X15083330Y13721421D01*
X15103847Y13733718D01*
X15125471Y13743946D01*
X15147993Y13752004D01*
X15171197Y13757816D01*
X15194858Y13761326D01*
X15218750Y13762500D01*
X16131250Y13762500D01*
X16155142Y13761326D01*
X16155142Y13761326D01*
G37*
D12*
X15675000Y13275000D03*
G04 #@! TD*
D13*
G04 #@! TO.C,C1*
X27300000Y15241380D03*
X27300000Y13241380D03*
G04 #@! TD*
G04 #@! TO.C,C2*
X19525000Y15241380D03*
X19525000Y13241380D03*
G04 #@! TD*
G04 #@! TO.C,C3*
X17575000Y15241380D03*
X17575000Y13241380D03*
G04 #@! TD*
G04 #@! TO.C,C4*
X29250000Y15241380D03*
X29250000Y13241380D03*
G04 #@! TD*
D10*
G04 #@! TO.C,C5*
X36500000Y12000000D03*
X34500000Y12000000D03*
G04 #@! TD*
D14*
G04 #@! TO.C,R1*
X34355703Y13491380D03*
X34355703Y15391380D03*
G04 #@! TD*
G04 #@! TO.C,R2*
X32355703Y13491380D03*
X32355703Y15391380D03*
G04 #@! TD*
G04 #@! TO.C,R3*
X36355703Y15391380D03*
X36355703Y13491380D03*
G04 #@! TD*
D15*
G04 #@! TO.C,R4*
X23500000Y5541380D03*
X25400000Y5541380D03*
G04 #@! TD*
G04 #@! TO.C,R5*
X30300000Y10500000D03*
X32200000Y10500000D03*
G04 #@! TD*
G04 #@! TO.C,R6*
X30300000Y8541380D03*
X32200000Y8541380D03*
G04 #@! TD*
G04 #@! TO.C,R7*
X32200000Y6541380D03*
X30300000Y6541380D03*
G04 #@! TD*
D16*
G04 #@! TO.C,U1*
X15359217Y6832626D03*
X15359217Y8102626D03*
X15359217Y9372626D03*
X15359217Y10642626D03*
X20759217Y10642626D03*
X20759217Y9372626D03*
X20759217Y8102626D03*
X20759217Y6832626D03*
G04 #@! TD*
D17*
G04 #@! TO.C,U2*
X25305703Y12991380D03*
X24355703Y12991380D03*
X23405703Y12991380D03*
X23405703Y15191380D03*
X25305703Y15191380D03*
G04 #@! TD*
D18*
G04 #@! TO.C,U4*
X37125703Y6941380D03*
D19*
X35855703Y6941380D03*
X34585703Y6941380D03*
X34585703Y10141380D03*
X35855703Y10141380D03*
X37125703Y10141380D03*
G04 #@! TD*
D10*
G04 #@! TO.C,C6*
X16800000Y5000000D03*
X18800000Y5000000D03*
G04 #@! TD*
D20*
G04 #@! TO.C,U5*
X10250000Y8075000D03*
X10250000Y9025000D03*
X10250000Y9975000D03*
X12450000Y9975000D03*
X12450000Y8075000D03*
X12450000Y9025000D03*
G04 #@! TD*
D14*
G04 #@! TO.C,R8*
X22950000Y9950000D03*
X22950000Y8050000D03*
G04 #@! TD*
D13*
G04 #@! TO.C,C8*
X21475000Y15241380D03*
X21475000Y13241380D03*
G04 #@! TD*
D21*
G04 #@! TO.C,D1*
X10400000Y15075000D03*
X13200000Y15075000D03*
G04 #@! TD*
M02*
