G04 #@! TF.GenerationSoftware,KiCad,Pcbnew,5.0.2-bee76a0~70~ubuntu18.04.1*
G04 #@! TF.CreationDate,2019-11-16T09:46:47-05:00*
G04 #@! TF.ProjectId,ESP-AHT10-Extra,4553502d-4148-4543-9130-2d4578747261,1.2*
G04 #@! TF.SameCoordinates,PX7bfa480PY66c2270*
G04 #@! TF.FileFunction,Other,Fab,Bot*
%FSLAX46Y46*%
G04 Gerber Fmt 4.6, Leading zero omitted, Abs format (unit mm)*
G04 Created by KiCad (PCBNEW 5.0.2-bee76a0~70~ubuntu18.04.1) date Sat 16 Nov 2019 09:46:47 AM EST*
%MOMM*%
%LPD*%
G01*
G04 APERTURE LIST*
%ADD10C,0.100000*%
%ADD11C,0.150000*%
%ADD12C,0.080000*%
%ADD13C,0.075000*%
G04 APERTURE END LIST*
D10*
G04 #@! TO.C,C7*
X10400000Y11180000D02*
X12400000Y11180000D01*
X12400000Y11180000D02*
X12400000Y12420000D01*
X12400000Y12420000D02*
X10400000Y12420000D01*
X10400000Y12420000D02*
X10400000Y11180000D01*
G04 #@! TO.C,F1*
X15075000Y15212500D02*
X15075000Y13212500D01*
X16275000Y15212500D02*
X15075000Y15212500D01*
X16275000Y13212500D02*
X16275000Y15212500D01*
X15075000Y13212500D02*
X16275000Y13212500D01*
G04 #@! TO.C,C1*
X27920000Y15241380D02*
X26680000Y15241380D01*
X27920000Y13241380D02*
X27920000Y15241380D01*
X26680000Y13241380D02*
X27920000Y13241380D01*
X26680000Y15241380D02*
X26680000Y13241380D01*
G04 #@! TO.C,C2*
X20145000Y13241380D02*
X20145000Y15241380D01*
X20145000Y15241380D02*
X18905000Y15241380D01*
X18905000Y15241380D02*
X18905000Y13241380D01*
X18905000Y13241380D02*
X20145000Y13241380D01*
G04 #@! TO.C,C3*
X18195000Y13241380D02*
X18195000Y15241380D01*
X18195000Y15241380D02*
X16955000Y15241380D01*
X16955000Y15241380D02*
X16955000Y13241380D01*
X16955000Y13241380D02*
X18195000Y13241380D01*
G04 #@! TO.C,C4*
X29870000Y15241380D02*
X28630000Y15241380D01*
X29870000Y13241380D02*
X29870000Y15241380D01*
X28630000Y13241380D02*
X29870000Y13241380D01*
X28630000Y15241380D02*
X28630000Y13241380D01*
G04 #@! TO.C,C5*
X34500000Y11380000D02*
X36500000Y11380000D01*
X36500000Y11380000D02*
X36500000Y12620000D01*
X36500000Y12620000D02*
X34500000Y12620000D01*
X34500000Y12620000D02*
X34500000Y11380000D01*
G04 #@! TO.C,R1*
X33735703Y13441380D02*
X34975703Y13441380D01*
X33735703Y15441380D02*
X33735703Y13441380D01*
X34975703Y15441380D02*
X33735703Y15441380D01*
X34975703Y13441380D02*
X34975703Y15441380D01*
G04 #@! TO.C,R2*
X31735703Y13441380D02*
X32975703Y13441380D01*
X31735703Y15441380D02*
X31735703Y13441380D01*
X32975703Y15441380D02*
X31735703Y15441380D01*
X32975703Y13441380D02*
X32975703Y15441380D01*
G04 #@! TO.C,R3*
X36975703Y13441380D02*
X36975703Y15441380D01*
X36975703Y15441380D02*
X35735703Y15441380D01*
X35735703Y15441380D02*
X35735703Y13441380D01*
X35735703Y13441380D02*
X36975703Y13441380D01*
G04 #@! TO.C,R4*
X25450000Y6161380D02*
X23450000Y6161380D01*
X23450000Y6161380D02*
X23450000Y4921380D01*
X23450000Y4921380D02*
X25450000Y4921380D01*
X25450000Y4921380D02*
X25450000Y6161380D01*
G04 #@! TO.C,R5*
X32250000Y11120000D02*
X30250000Y11120000D01*
X30250000Y11120000D02*
X30250000Y9880000D01*
X30250000Y9880000D02*
X32250000Y9880000D01*
X32250000Y9880000D02*
X32250000Y11120000D01*
G04 #@! TO.C,R6*
X30250000Y9161380D02*
X30250000Y7921380D01*
X32250000Y9161380D02*
X30250000Y9161380D01*
X32250000Y7921380D02*
X32250000Y9161380D01*
X30250000Y7921380D02*
X32250000Y7921380D01*
G04 #@! TO.C,R7*
X30250000Y5921380D02*
X32250000Y5921380D01*
X32250000Y5921380D02*
X32250000Y7161380D01*
X32250000Y7161380D02*
X30250000Y7161380D01*
X30250000Y7161380D02*
X30250000Y5921380D01*
G04 #@! TO.C,U1*
X17109217Y6287626D02*
X20009217Y6287626D01*
X20009217Y6287626D02*
X20009217Y11187626D01*
X20009217Y11187626D02*
X16109217Y11187626D01*
X16109217Y11187626D02*
X16109217Y7287626D01*
X16109217Y7287626D02*
X17109217Y6287626D01*
G04 #@! TO.C,U2*
X25255703Y13191380D02*
X25905703Y13841380D01*
X25905703Y14991380D02*
X25905703Y13841380D01*
X25255703Y13191380D02*
X22805703Y13191380D01*
X22805703Y14991380D02*
X22805703Y13191380D01*
X25905703Y14991380D02*
X22805703Y14991380D01*
D11*
G04 #@! TO.C,U4*
X38555703Y6341380D02*
X38555703Y10741380D01*
X38555703Y10741380D02*
X33155703Y10741380D01*
X33155703Y10741380D02*
X33155703Y6341380D01*
X33155703Y6341380D02*
X38555703Y6341380D01*
D10*
G04 #@! TO.C,C6*
X18800000Y5620000D02*
X16800000Y5620000D01*
X16800000Y5620000D02*
X16800000Y4380000D01*
X16800000Y4380000D02*
X18800000Y4380000D01*
X18800000Y4380000D02*
X18800000Y5620000D01*
G04 #@! TO.C,U5*
X10450000Y8125000D02*
X11100000Y7475000D01*
X12250000Y7475000D02*
X11100000Y7475000D01*
X10450000Y8125000D02*
X10450000Y10575000D01*
X12250000Y10575000D02*
X10450000Y10575000D01*
X12250000Y7475000D02*
X12250000Y10575000D01*
G04 #@! TO.C,R8*
X23570000Y10000000D02*
X22330000Y10000000D01*
X23570000Y8000000D02*
X23570000Y10000000D01*
X22330000Y8000000D02*
X23570000Y8000000D01*
X22330000Y10000000D02*
X22330000Y8000000D01*
G04 #@! TO.C,C8*
X22095000Y13241380D02*
X22095000Y15241380D01*
X22095000Y15241380D02*
X20855000Y15241380D01*
X20855000Y15241380D02*
X20855000Y13241380D01*
X20855000Y13241380D02*
X22095000Y13241380D01*
G04 #@! TO.C,D1*
X13200000Y15975000D02*
X10400000Y15975000D01*
X10400000Y15975000D02*
X10400000Y14175000D01*
X10400000Y14175000D02*
X13200000Y14175000D01*
X13200000Y14175000D02*
X13200000Y15975000D01*
X12550000Y15075000D02*
X12150000Y15075000D01*
X12150000Y15075000D02*
X12150000Y15625000D01*
X12150000Y15075000D02*
X12150000Y14525000D01*
X12150000Y15075000D02*
X11550000Y15475000D01*
X11550000Y15475000D02*
X11550000Y14675000D01*
X11550000Y14675000D02*
X12150000Y15075000D01*
X11550000Y15075000D02*
X11050000Y15075000D01*
G04 #@! TD*
G04 #@! TO.C,C7*
D11*
X10644047Y16897620D02*
X11215476Y16897620D01*
X10929761Y16897620D02*
X10929761Y17897620D01*
X11025000Y17754762D01*
X11120238Y17659524D01*
X11215476Y17611905D01*
X10025000Y17897620D02*
X9929761Y17897620D01*
X9834523Y17850000D01*
X9786904Y17802381D01*
X9739285Y17707143D01*
X9691666Y17516667D01*
X9691666Y17278572D01*
X9739285Y17088096D01*
X9786904Y16992858D01*
X9834523Y16945239D01*
X9929761Y16897620D01*
X10025000Y16897620D01*
X10120238Y16945239D01*
X10167857Y16992858D01*
X10215476Y17088096D01*
X10263095Y17278572D01*
X10263095Y17516667D01*
X10215476Y17707143D01*
X10167857Y17802381D01*
X10120238Y17850000D01*
X10025000Y17897620D01*
X9072619Y17897620D02*
X8977380Y17897620D01*
X8882142Y17850000D01*
X8834523Y17802381D01*
X8786904Y17707143D01*
X8739285Y17516667D01*
X8739285Y17278572D01*
X8786904Y17088096D01*
X8834523Y16992858D01*
X8882142Y16945239D01*
X8977380Y16897620D01*
X9072619Y16897620D01*
X9167857Y16945239D01*
X9215476Y16992858D01*
X9263095Y17088096D01*
X9310714Y17278572D01*
X9310714Y17516667D01*
X9263095Y17707143D01*
X9215476Y17802381D01*
X9167857Y17850000D01*
X9072619Y17897620D01*
X8310714Y17564286D02*
X8310714Y16897620D01*
X8310714Y17469048D02*
X8263095Y17516667D01*
X8167857Y17564286D01*
X8025000Y17564286D01*
X7929761Y17516667D01*
X7882142Y17421429D01*
X7882142Y16897620D01*
G04 #@! TO.C,F1*
X16177380Y21704167D02*
X16225000Y21751786D01*
X16272619Y21847024D01*
X16272619Y22085120D01*
X16225000Y22180358D01*
X16177380Y22227977D01*
X16082142Y22275596D01*
X15986904Y22275596D01*
X15844047Y22227977D01*
X15272619Y21656548D01*
X15272619Y22275596D01*
X16272619Y22894643D02*
X16272619Y22989881D01*
X16225000Y23085120D01*
X16177380Y23132739D01*
X16082142Y23180358D01*
X15891666Y23227977D01*
X15653571Y23227977D01*
X15463095Y23180358D01*
X15367857Y23132739D01*
X15320238Y23085120D01*
X15272619Y22989881D01*
X15272619Y22894643D01*
X15320238Y22799405D01*
X15367857Y22751786D01*
X15463095Y22704167D01*
X15653571Y22656548D01*
X15891666Y22656548D01*
X16082142Y22704167D01*
X16177380Y22751786D01*
X16225000Y22799405D01*
X16272619Y22894643D01*
X16272619Y23847024D02*
X16272619Y23942262D01*
X16225000Y24037500D01*
X16177380Y24085120D01*
X16082142Y24132739D01*
X15891666Y24180358D01*
X15653571Y24180358D01*
X15463095Y24132739D01*
X15367857Y24085120D01*
X15320238Y24037500D01*
X15272619Y23942262D01*
X15272619Y23847024D01*
X15320238Y23751786D01*
X15367857Y23704167D01*
X15463095Y23656548D01*
X15653571Y23608929D01*
X15891666Y23608929D01*
X16082142Y23656548D01*
X16177380Y23704167D01*
X16225000Y23751786D01*
X16272619Y23847024D01*
X15272619Y24608929D02*
X15939285Y24608929D01*
X15844047Y24608929D02*
X15891666Y24656548D01*
X15939285Y24751786D01*
X15939285Y24894643D01*
X15891666Y24989881D01*
X15796428Y25037500D01*
X15272619Y25037500D01*
X15796428Y25037500D02*
X15891666Y25085120D01*
X15939285Y25180358D01*
X15939285Y25323215D01*
X15891666Y25418453D01*
X15796428Y25466072D01*
X15272619Y25466072D01*
X15558333Y25894643D02*
X15558333Y26370834D01*
X15272619Y25799405D02*
X16272619Y26132739D01*
X15272619Y26466072D01*
D12*
X15639285Y14379167D02*
X15639285Y14545834D01*
X15901190Y14545834D02*
X15401190Y14545834D01*
X15401190Y14307739D01*
X15901190Y13855358D02*
X15901190Y14141072D01*
X15901190Y13998215D02*
X15401190Y13998215D01*
X15472619Y14045834D01*
X15520238Y14093453D01*
X15544047Y14141072D01*
G04 #@! TO.C,C1*
D11*
X27702380Y24210428D02*
X27702380Y24781857D01*
X27702380Y24496142D02*
X26702380Y24496142D01*
X26845238Y24591380D01*
X26940476Y24686619D01*
X26988095Y24781857D01*
X26702380Y23591380D02*
X26702380Y23496142D01*
X26750000Y23400904D01*
X26797619Y23353285D01*
X26892857Y23305666D01*
X27083333Y23258047D01*
X27321428Y23258047D01*
X27511904Y23305666D01*
X27607142Y23353285D01*
X27654761Y23400904D01*
X27702380Y23496142D01*
X27702380Y23591380D01*
X27654761Y23686619D01*
X27607142Y23734238D01*
X27511904Y23781857D01*
X27321428Y23829476D01*
X27083333Y23829476D01*
X26892857Y23781857D01*
X26797619Y23734238D01*
X26750000Y23686619D01*
X26702380Y23591380D01*
X26702380Y22639000D02*
X26702380Y22543761D01*
X26750000Y22448523D01*
X26797619Y22400904D01*
X26892857Y22353285D01*
X27083333Y22305666D01*
X27321428Y22305666D01*
X27511904Y22353285D01*
X27607142Y22400904D01*
X27654761Y22448523D01*
X27702380Y22543761D01*
X27702380Y22639000D01*
X27654761Y22734238D01*
X27607142Y22781857D01*
X27511904Y22829476D01*
X27321428Y22877095D01*
X27083333Y22877095D01*
X26892857Y22829476D01*
X26797619Y22781857D01*
X26750000Y22734238D01*
X26702380Y22639000D01*
X27035714Y21877095D02*
X27702380Y21877095D01*
X27130952Y21877095D02*
X27083333Y21829476D01*
X27035714Y21734238D01*
X27035714Y21591380D01*
X27083333Y21496142D01*
X27178571Y21448523D01*
X27702380Y21448523D01*
G04 #@! TO.C,C2*
X20052380Y24909238D02*
X20052380Y25480666D01*
X20052380Y25194952D02*
X19052380Y25194952D01*
X19195238Y25290190D01*
X19290476Y25385428D01*
X19338095Y25480666D01*
X19052380Y24290190D02*
X19052380Y24194952D01*
X19100000Y24099714D01*
X19147619Y24052095D01*
X19242857Y24004476D01*
X19433333Y23956857D01*
X19671428Y23956857D01*
X19861904Y24004476D01*
X19957142Y24052095D01*
X20004761Y24099714D01*
X20052380Y24194952D01*
X20052380Y24290190D01*
X20004761Y24385428D01*
X19957142Y24433047D01*
X19861904Y24480666D01*
X19671428Y24528285D01*
X19433333Y24528285D01*
X19242857Y24480666D01*
X19147619Y24433047D01*
X19100000Y24385428D01*
X19052380Y24290190D01*
X19385714Y23099714D02*
X20052380Y23099714D01*
X19385714Y23528285D02*
X19909523Y23528285D01*
X20004761Y23480666D01*
X20052380Y23385428D01*
X20052380Y23242571D01*
X20004761Y23147333D01*
X19957142Y23099714D01*
G04 #@! TO.C,C3*
X18177380Y25760428D02*
X18177380Y26331857D01*
X18177380Y26046142D02*
X17177380Y26046142D01*
X17320238Y26141380D01*
X17415476Y26236619D01*
X17463095Y26331857D01*
X17177380Y25141380D02*
X17177380Y25046142D01*
X17225000Y24950904D01*
X17272619Y24903285D01*
X17367857Y24855666D01*
X17558333Y24808047D01*
X17796428Y24808047D01*
X17986904Y24855666D01*
X18082142Y24903285D01*
X18129761Y24950904D01*
X18177380Y25046142D01*
X18177380Y25141380D01*
X18129761Y25236619D01*
X18082142Y25284238D01*
X17986904Y25331857D01*
X17796428Y25379476D01*
X17558333Y25379476D01*
X17367857Y25331857D01*
X17272619Y25284238D01*
X17225000Y25236619D01*
X17177380Y25141380D01*
X17177380Y24189000D02*
X17177380Y24093761D01*
X17225000Y23998523D01*
X17272619Y23950904D01*
X17367857Y23903285D01*
X17558333Y23855666D01*
X17796428Y23855666D01*
X17986904Y23903285D01*
X18082142Y23950904D01*
X18129761Y23998523D01*
X18177380Y24093761D01*
X18177380Y24189000D01*
X18129761Y24284238D01*
X18082142Y24331857D01*
X17986904Y24379476D01*
X17796428Y24427095D01*
X17558333Y24427095D01*
X17367857Y24379476D01*
X17272619Y24331857D01*
X17225000Y24284238D01*
X17177380Y24189000D01*
X17510714Y23427095D02*
X18177380Y23427095D01*
X17605952Y23427095D02*
X17558333Y23379476D01*
X17510714Y23284238D01*
X17510714Y23141380D01*
X17558333Y23046142D01*
X17653571Y22998523D01*
X18177380Y22998523D01*
G04 #@! TO.C,C4*
X29452380Y23634238D02*
X29452380Y24205666D01*
X29452380Y23919952D02*
X28452380Y23919952D01*
X28595238Y24015190D01*
X28690476Y24110428D01*
X28738095Y24205666D01*
X28452380Y23015190D02*
X28452380Y22919952D01*
X28500000Y22824714D01*
X28547619Y22777095D01*
X28642857Y22729476D01*
X28833333Y22681857D01*
X29071428Y22681857D01*
X29261904Y22729476D01*
X29357142Y22777095D01*
X29404761Y22824714D01*
X29452380Y22919952D01*
X29452380Y23015190D01*
X29404761Y23110428D01*
X29357142Y23158047D01*
X29261904Y23205666D01*
X29071428Y23253285D01*
X28833333Y23253285D01*
X28642857Y23205666D01*
X28547619Y23158047D01*
X28500000Y23110428D01*
X28452380Y23015190D01*
X28785714Y21824714D02*
X29452380Y21824714D01*
X28785714Y22253285D02*
X29309523Y22253285D01*
X29404761Y22205666D01*
X29452380Y22110428D01*
X29452380Y21967571D01*
X29404761Y21872333D01*
X29357142Y21824714D01*
G04 #@! TO.C,C5*
X42819047Y11697620D02*
X43390476Y11697620D01*
X43104761Y11697620D02*
X43104761Y12697620D01*
X43200000Y12554762D01*
X43295238Y12459524D01*
X43390476Y12411905D01*
X42200000Y12697620D02*
X42104761Y12697620D01*
X42009523Y12650000D01*
X41961904Y12602381D01*
X41914285Y12507143D01*
X41866666Y12316667D01*
X41866666Y12078572D01*
X41914285Y11888096D01*
X41961904Y11792858D01*
X42009523Y11745239D01*
X42104761Y11697620D01*
X42200000Y11697620D01*
X42295238Y11745239D01*
X42342857Y11792858D01*
X42390476Y11888096D01*
X42438095Y12078572D01*
X42438095Y12316667D01*
X42390476Y12507143D01*
X42342857Y12602381D01*
X42295238Y12650000D01*
X42200000Y12697620D01*
X41247619Y12697620D02*
X41152380Y12697620D01*
X41057142Y12650000D01*
X41009523Y12602381D01*
X40961904Y12507143D01*
X40914285Y12316667D01*
X40914285Y12078572D01*
X40961904Y11888096D01*
X41009523Y11792858D01*
X41057142Y11745239D01*
X41152380Y11697620D01*
X41247619Y11697620D01*
X41342857Y11745239D01*
X41390476Y11792858D01*
X41438095Y11888096D01*
X41485714Y12078572D01*
X41485714Y12316667D01*
X41438095Y12507143D01*
X41390476Y12602381D01*
X41342857Y12650000D01*
X41247619Y12697620D01*
X40485714Y12364286D02*
X40485714Y11697620D01*
X40485714Y12269048D02*
X40438095Y12316667D01*
X40342857Y12364286D01*
X40200000Y12364286D01*
X40104761Y12316667D01*
X40057142Y12221429D01*
X40057142Y11697620D01*
G04 #@! TO.C,R1*
X34852380Y23140477D02*
X34852380Y23711905D01*
X34852380Y23426191D02*
X33852380Y23426191D01*
X33995238Y23521429D01*
X34090476Y23616667D01*
X34138095Y23711905D01*
X33852380Y22521429D02*
X33852380Y22426191D01*
X33900000Y22330953D01*
X33947619Y22283334D01*
X34042857Y22235715D01*
X34233333Y22188096D01*
X34471428Y22188096D01*
X34661904Y22235715D01*
X34757142Y22283334D01*
X34804761Y22330953D01*
X34852380Y22426191D01*
X34852380Y22521429D01*
X34804761Y22616667D01*
X34757142Y22664286D01*
X34661904Y22711905D01*
X34471428Y22759524D01*
X34233333Y22759524D01*
X34042857Y22711905D01*
X33947619Y22664286D01*
X33900000Y22616667D01*
X33852380Y22521429D01*
X34852380Y21759524D02*
X33852380Y21759524D01*
X34852380Y21188096D02*
X34280952Y21616667D01*
X33852380Y21188096D02*
X34423809Y21759524D01*
D13*
X34581893Y14524714D02*
X34343798Y14691380D01*
X34581893Y14810428D02*
X34081893Y14810428D01*
X34081893Y14619952D01*
X34105703Y14572333D01*
X34129512Y14548523D01*
X34177131Y14524714D01*
X34248560Y14524714D01*
X34296179Y14548523D01*
X34319988Y14572333D01*
X34343798Y14619952D01*
X34343798Y14810428D01*
X34581893Y14048523D02*
X34581893Y14334238D01*
X34581893Y14191380D02*
X34081893Y14191380D01*
X34153322Y14239000D01*
X34200941Y14286619D01*
X34224750Y14334238D01*
G04 #@! TO.C,R2*
D11*
X32652380Y22264286D02*
X32652380Y22835715D01*
X32652380Y22550000D02*
X31652380Y22550000D01*
X31795238Y22645239D01*
X31890476Y22740477D01*
X31938095Y22835715D01*
X32652380Y21835715D02*
X31652380Y21835715D01*
X32652380Y21264286D02*
X32080952Y21692858D01*
X31652380Y21264286D02*
X32223809Y21835715D01*
D13*
X32581893Y14524714D02*
X32343798Y14691380D01*
X32581893Y14810428D02*
X32081893Y14810428D01*
X32081893Y14619952D01*
X32105703Y14572333D01*
X32129512Y14548523D01*
X32177131Y14524714D01*
X32248560Y14524714D01*
X32296179Y14548523D01*
X32319988Y14572333D01*
X32343798Y14619952D01*
X32343798Y14810428D01*
X32129512Y14334238D02*
X32105703Y14310428D01*
X32081893Y14262809D01*
X32081893Y14143761D01*
X32105703Y14096142D01*
X32129512Y14072333D01*
X32177131Y14048523D01*
X32224750Y14048523D01*
X32296179Y14072333D01*
X32581893Y14358047D01*
X32581893Y14048523D01*
G04 #@! TO.C,R3*
D11*
X36652380Y23090477D02*
X36652380Y23661905D01*
X36652380Y23376191D02*
X35652380Y23376191D01*
X35795238Y23471429D01*
X35890476Y23566667D01*
X35938095Y23661905D01*
X35652380Y22471429D02*
X35652380Y22376191D01*
X35700000Y22280953D01*
X35747619Y22233334D01*
X35842857Y22185715D01*
X36033333Y22138096D01*
X36271428Y22138096D01*
X36461904Y22185715D01*
X36557142Y22233334D01*
X36604761Y22280953D01*
X36652380Y22376191D01*
X36652380Y22471429D01*
X36604761Y22566667D01*
X36557142Y22614286D01*
X36461904Y22661905D01*
X36271428Y22709524D01*
X36033333Y22709524D01*
X35842857Y22661905D01*
X35747619Y22614286D01*
X35700000Y22566667D01*
X35652380Y22471429D01*
X36652380Y21709524D02*
X35652380Y21709524D01*
X36652380Y21138096D02*
X36080952Y21566667D01*
X35652380Y21138096D02*
X36223809Y21709524D01*
D13*
X36581893Y14524714D02*
X36343798Y14691380D01*
X36581893Y14810428D02*
X36081893Y14810428D01*
X36081893Y14619952D01*
X36105703Y14572333D01*
X36129512Y14548523D01*
X36177131Y14524714D01*
X36248560Y14524714D01*
X36296179Y14548523D01*
X36319988Y14572333D01*
X36343798Y14619952D01*
X36343798Y14810428D01*
X36081893Y14358047D02*
X36081893Y14048523D01*
X36272369Y14215190D01*
X36272369Y14143761D01*
X36296179Y14096142D01*
X36319988Y14072333D01*
X36367607Y14048523D01*
X36486655Y14048523D01*
X36534274Y14072333D01*
X36558083Y14096142D01*
X36581893Y14143761D01*
X36581893Y14286619D01*
X36558083Y14334238D01*
X36534274Y14358047D01*
G04 #@! TO.C,R4*
D11*
X25065476Y-1702380D02*
X25636904Y-1702380D01*
X25351190Y-1702380D02*
X25351190Y-702380D01*
X25446428Y-845238D01*
X25541666Y-940476D01*
X25636904Y-988095D01*
X24446428Y-702380D02*
X24351190Y-702380D01*
X24255952Y-750000D01*
X24208333Y-797619D01*
X24160714Y-892857D01*
X24113095Y-1083333D01*
X24113095Y-1321428D01*
X24160714Y-1511904D01*
X24208333Y-1607142D01*
X24255952Y-1654761D01*
X24351190Y-1702380D01*
X24446428Y-1702380D01*
X24541666Y-1654761D01*
X24589285Y-1607142D01*
X24636904Y-1511904D01*
X24684523Y-1321428D01*
X24684523Y-1083333D01*
X24636904Y-892857D01*
X24589285Y-797619D01*
X24541666Y-750000D01*
X24446428Y-702380D01*
X23684523Y-1702380D02*
X23684523Y-702380D01*
X23113095Y-1702380D02*
X23541666Y-1130952D01*
X23113095Y-702380D02*
X23684523Y-1273809D01*
D13*
X24533333Y5315190D02*
X24700000Y5553285D01*
X24819047Y5315190D02*
X24819047Y5815190D01*
X24628571Y5815190D01*
X24580952Y5791380D01*
X24557142Y5767571D01*
X24533333Y5719952D01*
X24533333Y5648523D01*
X24557142Y5600904D01*
X24580952Y5577095D01*
X24628571Y5553285D01*
X24819047Y5553285D01*
X24104761Y5648523D02*
X24104761Y5315190D01*
X24223809Y5839000D02*
X24342857Y5481857D01*
X24033333Y5481857D01*
G04 #@! TO.C,R5*
D11*
X41084773Y9856240D02*
X41656201Y9856240D01*
X41370487Y9856240D02*
X41370487Y10856240D01*
X41465725Y10713382D01*
X41560963Y10618144D01*
X41656201Y10570525D01*
X40465725Y10856240D02*
X40370487Y10856240D01*
X40275249Y10808620D01*
X40227630Y10761001D01*
X40180011Y10665763D01*
X40132392Y10475287D01*
X40132392Y10237192D01*
X40180011Y10046716D01*
X40227630Y9951478D01*
X40275249Y9903859D01*
X40370487Y9856240D01*
X40465725Y9856240D01*
X40560963Y9903859D01*
X40608582Y9951478D01*
X40656201Y10046716D01*
X40703820Y10237192D01*
X40703820Y10475287D01*
X40656201Y10665763D01*
X40608582Y10761001D01*
X40560963Y10808620D01*
X40465725Y10856240D01*
X39703820Y9856240D02*
X39703820Y10856240D01*
X39132392Y9856240D02*
X39560963Y10427668D01*
X39132392Y10856240D02*
X39703820Y10284811D01*
D13*
X31333333Y10273810D02*
X31500000Y10511905D01*
X31619047Y10273810D02*
X31619047Y10773810D01*
X31428571Y10773810D01*
X31380952Y10750000D01*
X31357142Y10726191D01*
X31333333Y10678572D01*
X31333333Y10607143D01*
X31357142Y10559524D01*
X31380952Y10535715D01*
X31428571Y10511905D01*
X31619047Y10511905D01*
X30880952Y10773810D02*
X31119047Y10773810D01*
X31142857Y10535715D01*
X31119047Y10559524D01*
X31071428Y10583334D01*
X30952380Y10583334D01*
X30904761Y10559524D01*
X30880952Y10535715D01*
X30857142Y10488096D01*
X30857142Y10369048D01*
X30880952Y10321429D01*
X30904761Y10297620D01*
X30952380Y10273810D01*
X31071428Y10273810D01*
X31119047Y10297620D01*
X31142857Y10321429D01*
G04 #@! TO.C,R6*
D11*
X41084773Y8297620D02*
X41656201Y8297620D01*
X41370487Y8297620D02*
X41370487Y9297620D01*
X41465725Y9154762D01*
X41560963Y9059524D01*
X41656201Y9011905D01*
X40465725Y9297620D02*
X40370487Y9297620D01*
X40275249Y9250000D01*
X40227630Y9202381D01*
X40180011Y9107143D01*
X40132392Y8916667D01*
X40132392Y8678572D01*
X40180011Y8488096D01*
X40227630Y8392858D01*
X40275249Y8345239D01*
X40370487Y8297620D01*
X40465725Y8297620D01*
X40560963Y8345239D01*
X40608582Y8392858D01*
X40656201Y8488096D01*
X40703820Y8678572D01*
X40703820Y8916667D01*
X40656201Y9107143D01*
X40608582Y9202381D01*
X40560963Y9250000D01*
X40465725Y9297620D01*
X39703820Y8297620D02*
X39703820Y9297620D01*
X39132392Y8297620D02*
X39560963Y8869048D01*
X39132392Y9297620D02*
X39703820Y8726191D01*
D13*
X31333333Y8315190D02*
X31500000Y8553285D01*
X31619047Y8315190D02*
X31619047Y8815190D01*
X31428571Y8815190D01*
X31380952Y8791380D01*
X31357142Y8767571D01*
X31333333Y8719952D01*
X31333333Y8648523D01*
X31357142Y8600904D01*
X31380952Y8577095D01*
X31428571Y8553285D01*
X31619047Y8553285D01*
X30904761Y8815190D02*
X31000000Y8815190D01*
X31047619Y8791380D01*
X31071428Y8767571D01*
X31119047Y8696142D01*
X31142857Y8600904D01*
X31142857Y8410428D01*
X31119047Y8362809D01*
X31095238Y8339000D01*
X31047619Y8315190D01*
X30952380Y8315190D01*
X30904761Y8339000D01*
X30880952Y8362809D01*
X30857142Y8410428D01*
X30857142Y8529476D01*
X30880952Y8577095D01*
X30904761Y8600904D01*
X30952380Y8624714D01*
X31047619Y8624714D01*
X31095238Y8600904D01*
X31119047Y8577095D01*
X31142857Y8529476D01*
G04 #@! TO.C,R7*
D11*
X41084773Y6097620D02*
X41656201Y6097620D01*
X41370487Y6097620D02*
X41370487Y7097620D01*
X41465725Y6954762D01*
X41560963Y6859524D01*
X41656201Y6811905D01*
X40465725Y7097620D02*
X40370487Y7097620D01*
X40275249Y7050000D01*
X40227630Y7002381D01*
X40180011Y6907143D01*
X40132392Y6716667D01*
X40132392Y6478572D01*
X40180011Y6288096D01*
X40227630Y6192858D01*
X40275249Y6145239D01*
X40370487Y6097620D01*
X40465725Y6097620D01*
X40560963Y6145239D01*
X40608582Y6192858D01*
X40656201Y6288096D01*
X40703820Y6478572D01*
X40703820Y6716667D01*
X40656201Y6907143D01*
X40608582Y7002381D01*
X40560963Y7050000D01*
X40465725Y7097620D01*
X39703820Y6097620D02*
X39703820Y7097620D01*
X39132392Y6097620D02*
X39560963Y6669048D01*
X39132392Y7097620D02*
X39703820Y6526191D01*
D13*
X31333333Y6315190D02*
X31500000Y6553285D01*
X31619047Y6315190D02*
X31619047Y6815190D01*
X31428571Y6815190D01*
X31380952Y6791380D01*
X31357142Y6767571D01*
X31333333Y6719952D01*
X31333333Y6648523D01*
X31357142Y6600904D01*
X31380952Y6577095D01*
X31428571Y6553285D01*
X31619047Y6553285D01*
X31166666Y6815190D02*
X30833333Y6815190D01*
X31047619Y6315190D01*
G04 #@! TO.C,U1*
D11*
X19366666Y21417858D02*
X19414285Y21370239D01*
X19557142Y21322620D01*
X19652380Y21322620D01*
X19795238Y21370239D01*
X19890476Y21465477D01*
X19938095Y21560715D01*
X19985714Y21751191D01*
X19985714Y21894048D01*
X19938095Y22084524D01*
X19890476Y22179762D01*
X19795238Y22275000D01*
X19652380Y22322620D01*
X19557142Y22322620D01*
X19414285Y22275000D01*
X19366666Y22227381D01*
X18938095Y21322620D02*
X18938095Y22322620D01*
X18938095Y21846429D02*
X18366666Y21846429D01*
X18366666Y21322620D02*
X18366666Y22322620D01*
X17985714Y22322620D02*
X17366666Y22322620D01*
X17700000Y21941667D01*
X17557142Y21941667D01*
X17461904Y21894048D01*
X17414285Y21846429D01*
X17366666Y21751191D01*
X17366666Y21513096D01*
X17414285Y21417858D01*
X17461904Y21370239D01*
X17557142Y21322620D01*
X17842857Y21322620D01*
X17938095Y21370239D01*
X17985714Y21417858D01*
X17033333Y22322620D02*
X16414285Y22322620D01*
X16747619Y21941667D01*
X16604761Y21941667D01*
X16509523Y21894048D01*
X16461904Y21846429D01*
X16414285Y21751191D01*
X16414285Y21513096D01*
X16461904Y21417858D01*
X16509523Y21370239D01*
X16604761Y21322620D01*
X16890476Y21322620D01*
X16985714Y21370239D01*
X17033333Y21417858D01*
X15795238Y22322620D02*
X15700000Y22322620D01*
X15604761Y22275000D01*
X15557142Y22227381D01*
X15509523Y22132143D01*
X15461904Y21941667D01*
X15461904Y21703572D01*
X15509523Y21513096D01*
X15557142Y21417858D01*
X15604761Y21370239D01*
X15700000Y21322620D01*
X15795238Y21322620D01*
X15890476Y21370239D01*
X15938095Y21417858D01*
X15985714Y21513096D01*
X16033333Y21703572D01*
X16033333Y21941667D01*
X15985714Y22132143D01*
X15938095Y22227381D01*
X15890476Y22275000D01*
X15795238Y22322620D01*
X15033333Y21322620D02*
X15033333Y22322620D01*
X14461904Y21322620D01*
X14461904Y22322620D01*
X18821121Y9285246D02*
X18821121Y8475722D01*
X18773502Y8380484D01*
X18725883Y8332865D01*
X18630645Y8285246D01*
X18440169Y8285246D01*
X18344931Y8332865D01*
X18297312Y8380484D01*
X18249693Y8475722D01*
X18249693Y9285246D01*
X17249693Y8285246D02*
X17821121Y8285246D01*
X17535407Y8285246D02*
X17535407Y9285246D01*
X17630645Y9142388D01*
X17725883Y9047150D01*
X17821121Y8999531D01*
G04 #@! TO.C,U2*
X24952380Y26621429D02*
X23952380Y26621429D01*
X24428571Y26621429D02*
X24428571Y26050000D01*
X24952380Y26050000D02*
X23952380Y26050000D01*
X23952380Y25716667D02*
X23952380Y25145239D01*
X24952380Y25430953D02*
X23952380Y25430953D01*
X23952380Y24907143D02*
X23952380Y24240477D01*
X24952380Y24669048D01*
X24047619Y23907143D02*
X24000000Y23859524D01*
X23952380Y23764286D01*
X23952380Y23526191D01*
X24000000Y23430953D01*
X24047619Y23383334D01*
X24142857Y23335715D01*
X24238095Y23335715D01*
X24380952Y23383334D01*
X24952380Y23954762D01*
X24952380Y23335715D01*
X23952380Y23002381D02*
X23952380Y22383334D01*
X24333333Y22716667D01*
X24333333Y22573810D01*
X24380952Y22478572D01*
X24428571Y22430953D01*
X24523809Y22383334D01*
X24761904Y22383334D01*
X24857142Y22430953D01*
X24904761Y22478572D01*
X24952380Y22573810D01*
X24952380Y22859524D01*
X24904761Y22954762D01*
X24857142Y23002381D01*
X23952380Y22050000D02*
X23952380Y21430953D01*
X24333333Y21764286D01*
X24333333Y21621429D01*
X24380952Y21526191D01*
X24428571Y21478572D01*
X24523809Y21430953D01*
X24761904Y21430953D01*
X24857142Y21478572D01*
X24904761Y21526191D01*
X24952380Y21621429D01*
X24952380Y21907143D01*
X24904761Y22002381D01*
X24857142Y22050000D01*
D13*
X24736655Y14365190D02*
X24736655Y13960428D01*
X24712845Y13912809D01*
X24689036Y13889000D01*
X24641417Y13865190D01*
X24546179Y13865190D01*
X24498560Y13889000D01*
X24474750Y13912809D01*
X24450941Y13960428D01*
X24450941Y14365190D01*
X24236655Y14317571D02*
X24212845Y14341380D01*
X24165226Y14365190D01*
X24046179Y14365190D01*
X23998560Y14341380D01*
X23974750Y14317571D01*
X23950941Y14269952D01*
X23950941Y14222333D01*
X23974750Y14150904D01*
X24260464Y13865190D01*
X23950941Y13865190D01*
G04 #@! TO.C,U4*
D11*
X42866666Y10745239D02*
X42866666Y10269048D01*
X43152380Y10840477D02*
X42152380Y10507143D01*
X43152380Y10173810D01*
X43152380Y9840477D02*
X42152380Y9840477D01*
X42628571Y9840477D02*
X42628571Y9269048D01*
X43152380Y9269048D02*
X42152380Y9269048D01*
X42152380Y8935715D02*
X42152380Y8364286D01*
X43152380Y8650000D02*
X42152380Y8650000D01*
X43152380Y7507143D02*
X43152380Y8078572D01*
X43152380Y7792858D02*
X42152380Y7792858D01*
X42295238Y7888096D01*
X42390476Y7983334D01*
X42438095Y8078572D01*
X42152380Y6888096D02*
X42152380Y6792858D01*
X42200000Y6697620D01*
X42247619Y6650000D01*
X42342857Y6602381D01*
X42533333Y6554762D01*
X42771428Y6554762D01*
X42961904Y6602381D01*
X43057142Y6650000D01*
X43104761Y6697620D01*
X43152380Y6792858D01*
X43152380Y6888096D01*
X43104761Y6983334D01*
X43057142Y7030953D01*
X42961904Y7078572D01*
X42771428Y7126191D01*
X42533333Y7126191D01*
X42342857Y7078572D01*
X42247619Y7030953D01*
X42200000Y6983334D01*
X42152380Y6888096D01*
G04 #@! TO.C,C6*
X19069047Y-1602380D02*
X19640476Y-1602380D01*
X19354761Y-1602380D02*
X19354761Y-602380D01*
X19450000Y-745238D01*
X19545238Y-840476D01*
X19640476Y-888095D01*
X18450000Y-602380D02*
X18354761Y-602380D01*
X18259523Y-650000D01*
X18211904Y-697619D01*
X18164285Y-792857D01*
X18116666Y-983333D01*
X18116666Y-1221428D01*
X18164285Y-1411904D01*
X18211904Y-1507142D01*
X18259523Y-1554761D01*
X18354761Y-1602380D01*
X18450000Y-1602380D01*
X18545238Y-1554761D01*
X18592857Y-1507142D01*
X18640476Y-1411904D01*
X18688095Y-1221428D01*
X18688095Y-983333D01*
X18640476Y-792857D01*
X18592857Y-697619D01*
X18545238Y-650000D01*
X18450000Y-602380D01*
X17497619Y-602380D02*
X17402380Y-602380D01*
X17307142Y-650000D01*
X17259523Y-697619D01*
X17211904Y-792857D01*
X17164285Y-983333D01*
X17164285Y-1221428D01*
X17211904Y-1411904D01*
X17259523Y-1507142D01*
X17307142Y-1554761D01*
X17402380Y-1602380D01*
X17497619Y-1602380D01*
X17592857Y-1554761D01*
X17640476Y-1507142D01*
X17688095Y-1411904D01*
X17735714Y-1221428D01*
X17735714Y-983333D01*
X17688095Y-792857D01*
X17640476Y-697619D01*
X17592857Y-650000D01*
X17497619Y-602380D01*
X16735714Y-935714D02*
X16735714Y-1602380D01*
X16735714Y-1030952D02*
X16688095Y-983333D01*
X16592857Y-935714D01*
X16450000Y-935714D01*
X16354761Y-983333D01*
X16307142Y-1078571D01*
X16307142Y-1602380D01*
G04 #@! TO.C,U5*
X10652380Y2215477D02*
X11461904Y2215477D01*
X11557142Y2167858D01*
X11604761Y2120239D01*
X11652380Y2025000D01*
X11652380Y1834524D01*
X11604761Y1739286D01*
X11557142Y1691667D01*
X11461904Y1644048D01*
X10652380Y1644048D01*
X11604761Y1215477D02*
X11652380Y1072620D01*
X11652380Y834524D01*
X11604761Y739286D01*
X11557142Y691667D01*
X11461904Y644048D01*
X11366666Y644048D01*
X11271428Y691667D01*
X11223809Y739286D01*
X11176190Y834524D01*
X11128571Y1025000D01*
X11080952Y1120239D01*
X11033333Y1167858D01*
X10938095Y1215477D01*
X10842857Y1215477D01*
X10747619Y1167858D01*
X10700000Y1120239D01*
X10652380Y1025000D01*
X10652380Y786905D01*
X10700000Y644048D01*
X11128571Y-117857D02*
X11176190Y-260714D01*
X11223809Y-308333D01*
X11319047Y-355952D01*
X11461904Y-355952D01*
X11557142Y-308333D01*
X11604761Y-260714D01*
X11652380Y-165476D01*
X11652380Y215477D01*
X10652380Y215477D01*
X10652380Y-117857D01*
X10700000Y-213095D01*
X10747619Y-260714D01*
X10842857Y-308333D01*
X10938095Y-308333D01*
X11033333Y-260714D01*
X11080952Y-213095D01*
X11128571Y-117857D01*
X11128571Y215477D01*
X11652380Y-1260714D02*
X11652380Y-784523D01*
X10652380Y-784523D01*
X11557142Y-2165476D02*
X11604761Y-2117857D01*
X11652380Y-1975000D01*
X11652380Y-1879761D01*
X11604761Y-1736904D01*
X11509523Y-1641666D01*
X11414285Y-1594047D01*
X11223809Y-1546428D01*
X11080952Y-1546428D01*
X10890476Y-1594047D01*
X10795238Y-1641666D01*
X10700000Y-1736904D01*
X10652380Y-1879761D01*
X10652380Y-1975000D01*
X10700000Y-2117857D01*
X10747619Y-2165476D01*
X10652380Y-3022619D02*
X10652380Y-2832142D01*
X10700000Y-2736904D01*
X10747619Y-2689285D01*
X10890476Y-2594047D01*
X11080952Y-2546428D01*
X11461904Y-2546428D01*
X11557142Y-2594047D01*
X11604761Y-2641666D01*
X11652380Y-2736904D01*
X11652380Y-2927380D01*
X11604761Y-3022619D01*
X11557142Y-3070238D01*
X11461904Y-3117857D01*
X11223809Y-3117857D01*
X11128571Y-3070238D01*
X11080952Y-3022619D01*
X11033333Y-2927380D01*
X11033333Y-2736904D01*
X11080952Y-2641666D01*
X11128571Y-2594047D01*
X11223809Y-2546428D01*
X11271428Y-3546428D02*
X11271428Y-4308333D01*
X10747619Y-4736904D02*
X10700000Y-4784523D01*
X10652380Y-4879761D01*
X10652380Y-5117857D01*
X10700000Y-5213095D01*
X10747619Y-5260714D01*
X10842857Y-5308333D01*
X10938095Y-5308333D01*
X11080952Y-5260714D01*
X11652380Y-4689285D01*
X11652380Y-5308333D01*
X11604761Y-5689285D02*
X11652380Y-5832142D01*
X11652380Y-6070238D01*
X11604761Y-6165476D01*
X11557142Y-6213095D01*
X11461904Y-6260714D01*
X11366666Y-6260714D01*
X11271428Y-6213095D01*
X11223809Y-6165476D01*
X11176190Y-6070238D01*
X11128571Y-5879761D01*
X11080952Y-5784523D01*
X11033333Y-5736904D01*
X10938095Y-5689285D01*
X10842857Y-5689285D01*
X10747619Y-5736904D01*
X10700000Y-5784523D01*
X10652380Y-5879761D01*
X10652380Y-6117857D01*
X10700000Y-6260714D01*
X11557142Y-7260714D02*
X11604761Y-7213095D01*
X11652380Y-7070238D01*
X11652380Y-6975000D01*
X11604761Y-6832142D01*
X11509523Y-6736904D01*
X11414285Y-6689285D01*
X11223809Y-6641666D01*
X11080952Y-6641666D01*
X10890476Y-6689285D01*
X10795238Y-6736904D01*
X10700000Y-6832142D01*
X10652380Y-6975000D01*
X10652380Y-7070238D01*
X10700000Y-7213095D01*
X10747619Y-7260714D01*
X10652380Y-8117857D02*
X10652380Y-7927380D01*
X10700000Y-7832142D01*
X10747619Y-7784523D01*
X10890476Y-7689285D01*
X11080952Y-7641666D01*
X11461904Y-7641666D01*
X11557142Y-7689285D01*
X11604761Y-7736904D01*
X11652380Y-7832142D01*
X11652380Y-8022619D01*
X11604761Y-8117857D01*
X11557142Y-8165476D01*
X11461904Y-8213095D01*
X11223809Y-8213095D01*
X11128571Y-8165476D01*
X11080952Y-8117857D01*
X11033333Y-8022619D01*
X11033333Y-7832142D01*
X11080952Y-7736904D01*
X11128571Y-7689285D01*
X11223809Y-7641666D01*
D13*
X11623809Y8644048D02*
X11219047Y8644048D01*
X11171428Y8667858D01*
X11147619Y8691667D01*
X11123809Y8739286D01*
X11123809Y8834524D01*
X11147619Y8882143D01*
X11171428Y8905953D01*
X11219047Y8929762D01*
X11623809Y8929762D01*
X11623809Y9405953D02*
X11623809Y9167858D01*
X11385714Y9144048D01*
X11409523Y9167858D01*
X11433333Y9215477D01*
X11433333Y9334524D01*
X11409523Y9382143D01*
X11385714Y9405953D01*
X11338095Y9429762D01*
X11219047Y9429762D01*
X11171428Y9405953D01*
X11147619Y9382143D01*
X11123809Y9334524D01*
X11123809Y9215477D01*
X11147619Y9167858D01*
X11171428Y9144048D01*
G04 #@! TO.C,R8*
D11*
X22735714Y24461905D02*
X23402380Y24461905D01*
X22354761Y24700000D02*
X23069047Y24938096D01*
X23069047Y24319048D01*
X22402380Y24033334D02*
X22402380Y23366667D01*
X23402380Y23795239D01*
X22402380Y22795239D02*
X22402380Y22700000D01*
X22450000Y22604762D01*
X22497619Y22557143D01*
X22592857Y22509524D01*
X22783333Y22461905D01*
X23021428Y22461905D01*
X23211904Y22509524D01*
X23307142Y22557143D01*
X23354761Y22604762D01*
X23402380Y22700000D01*
X23402380Y22795239D01*
X23354761Y22890477D01*
X23307142Y22938096D01*
X23211904Y22985715D01*
X23021428Y23033334D01*
X22783333Y23033334D01*
X22592857Y22985715D01*
X22497619Y22938096D01*
X22450000Y22890477D01*
X22402380Y22795239D01*
X23402380Y21461905D02*
X22926190Y21795239D01*
X23402380Y22033334D02*
X22402380Y22033334D01*
X22402380Y21652381D01*
X22450000Y21557143D01*
X22497619Y21509524D01*
X22592857Y21461905D01*
X22735714Y21461905D01*
X22830952Y21509524D01*
X22878571Y21557143D01*
X22926190Y21652381D01*
X22926190Y22033334D01*
D13*
X23176190Y9083334D02*
X22938095Y9250000D01*
X23176190Y9369048D02*
X22676190Y9369048D01*
X22676190Y9178572D01*
X22700000Y9130953D01*
X22723809Y9107143D01*
X22771428Y9083334D01*
X22842857Y9083334D01*
X22890476Y9107143D01*
X22914285Y9130953D01*
X22938095Y9178572D01*
X22938095Y9369048D01*
X22890476Y8797620D02*
X22866666Y8845239D01*
X22842857Y8869048D01*
X22795238Y8892858D01*
X22771428Y8892858D01*
X22723809Y8869048D01*
X22700000Y8845239D01*
X22676190Y8797620D01*
X22676190Y8702381D01*
X22700000Y8654762D01*
X22723809Y8630953D01*
X22771428Y8607143D01*
X22795238Y8607143D01*
X22842857Y8630953D01*
X22866666Y8654762D01*
X22890476Y8702381D01*
X22890476Y8797620D01*
X22914285Y8845239D01*
X22938095Y8869048D01*
X22985714Y8892858D01*
X23080952Y8892858D01*
X23128571Y8869048D01*
X23152380Y8845239D01*
X23176190Y8797620D01*
X23176190Y8702381D01*
X23152380Y8654762D01*
X23128571Y8630953D01*
X23080952Y8607143D01*
X22985714Y8607143D01*
X22938095Y8630953D01*
X22914285Y8654762D01*
X22890476Y8702381D01*
G04 #@! TO.C,C8*
D11*
X22052380Y24934238D02*
X22052380Y25505666D01*
X22052380Y25219952D02*
X21052380Y25219952D01*
X21195238Y25315190D01*
X21290476Y25410428D01*
X21338095Y25505666D01*
X21052380Y24315190D02*
X21052380Y24219952D01*
X21100000Y24124714D01*
X21147619Y24077095D01*
X21242857Y24029476D01*
X21433333Y23981857D01*
X21671428Y23981857D01*
X21861904Y24029476D01*
X21957142Y24077095D01*
X22004761Y24124714D01*
X22052380Y24219952D01*
X22052380Y24315190D01*
X22004761Y24410428D01*
X21957142Y24458047D01*
X21861904Y24505666D01*
X21671428Y24553285D01*
X21433333Y24553285D01*
X21242857Y24505666D01*
X21147619Y24458047D01*
X21100000Y24410428D01*
X21052380Y24315190D01*
X21385714Y23124714D02*
X22052380Y23124714D01*
X21385714Y23553285D02*
X21909523Y23553285D01*
X22004761Y23505666D01*
X22052380Y23410428D01*
X22052380Y23267571D01*
X22004761Y23172333D01*
X21957142Y23124714D01*
G04 #@! TO.C,D1*
X11329761Y19396429D02*
X11186904Y19348810D01*
X11139285Y19301191D01*
X11091666Y19205953D01*
X11091666Y19063096D01*
X11139285Y18967858D01*
X11186904Y18920239D01*
X11282142Y18872620D01*
X11663095Y18872620D01*
X11663095Y19872620D01*
X11329761Y19872620D01*
X11234523Y19825000D01*
X11186904Y19777381D01*
X11139285Y19682143D01*
X11139285Y19586905D01*
X11186904Y19491667D01*
X11234523Y19444048D01*
X11329761Y19396429D01*
X11663095Y19396429D01*
X10186904Y19872620D02*
X10663095Y19872620D01*
X10710714Y19396429D01*
X10663095Y19444048D01*
X10567857Y19491667D01*
X10329761Y19491667D01*
X10234523Y19444048D01*
X10186904Y19396429D01*
X10139285Y19301191D01*
X10139285Y19063096D01*
X10186904Y18967858D01*
X10234523Y18920239D01*
X10329761Y18872620D01*
X10567857Y18872620D01*
X10663095Y18920239D01*
X10710714Y18967858D01*
X9567857Y19444048D02*
X9663095Y19491667D01*
X9710714Y19539286D01*
X9758333Y19634524D01*
X9758333Y19682143D01*
X9710714Y19777381D01*
X9663095Y19825000D01*
X9567857Y19872620D01*
X9377380Y19872620D01*
X9282142Y19825000D01*
X9234523Y19777381D01*
X9186904Y19682143D01*
X9186904Y19634524D01*
X9234523Y19539286D01*
X9282142Y19491667D01*
X9377380Y19444048D01*
X9567857Y19444048D01*
X9663095Y19396429D01*
X9710714Y19348810D01*
X9758333Y19253572D01*
X9758333Y19063096D01*
X9710714Y18967858D01*
X9663095Y18920239D01*
X9567857Y18872620D01*
X9377380Y18872620D01*
X9282142Y18920239D01*
X9234523Y18967858D01*
X9186904Y19063096D01*
X9186904Y19253572D01*
X9234523Y19348810D01*
X9282142Y19396429D01*
X9377380Y19444048D01*
X8234523Y18872620D02*
X8805952Y18872620D01*
X8520238Y18872620D02*
X8520238Y19872620D01*
X8615476Y19729762D01*
X8710714Y19634524D01*
X8805952Y19586905D01*
X7901190Y19872620D02*
X7234523Y19872620D01*
X7663095Y18872620D01*
X6948809Y19872620D02*
X6710714Y18872620D01*
X6520238Y19586905D01*
X6329761Y18872620D01*
X6091666Y19872620D01*
G04 #@! TD*
M02*
