G04 #@! TF.GenerationSoftware,KiCad,Pcbnew,5.0.2-bee76a0~70~ubuntu18.04.1*
G04 #@! TF.CreationDate,2019-11-16T19:09:58-05:00*
G04 #@! TF.ProjectId,ESP-AHT10-Extra,4553502d-4148-4543-9130-2d4578747261,1.2*
G04 #@! TF.SameCoordinates,PX7bfa480PY66c2270*
G04 #@! TF.FileFunction,Copper,L1,Top*
G04 #@! TF.FilePolarity,Positive*
%FSLAX46Y46*%
G04 Gerber Fmt 4.6, Leading zero omitted, Abs format (unit mm)*
G04 Created by KiCad (PCBNEW 5.0.2-bee76a0~70~ubuntu18.04.1) date Sat 16 Nov 2019 07:09:58 PM EST*
%MOMM*%
%LPD*%
G01*
G04 APERTURE LIST*
G04 #@! TA.AperFunction,NonConductor*
%ADD10C,0.300000*%
G04 #@! TD*
G04 #@! TA.AperFunction,ComponentPad*
%ADD11R,1.100000X2.500000*%
G04 #@! TD*
G04 #@! TA.AperFunction,ComponentPad*
%ADD12O,1.100000X2.500000*%
G04 #@! TD*
G04 #@! TA.AperFunction,ComponentPad*
%ADD13O,1.600000X2.000000*%
G04 #@! TD*
G04 #@! TA.AperFunction,Conductor*
%ADD14C,0.050000*%
G04 #@! TD*
G04 #@! TA.AperFunction,SMDPad,CuDef*
%ADD15C,0.975000*%
G04 #@! TD*
G04 #@! TA.AperFunction,SMDPad,CuDef*
%ADD16R,1.000000X1.500000*%
G04 #@! TD*
G04 #@! TA.AperFunction,ViaPad*
%ADD17C,1.200000*%
G04 #@! TD*
G04 #@! TA.AperFunction,Conductor*
%ADD18C,0.300000*%
G04 #@! TD*
G04 #@! TA.AperFunction,Conductor*
%ADD19C,0.254000*%
G04 #@! TD*
G04 APERTURE END LIST*
D10*
X10857142Y15214286D02*
X10857142Y14714286D01*
X10071428Y14500000D02*
X10071428Y15214286D01*
X11571428Y15214286D01*
X11571428Y14500000D01*
X10142857Y13928572D02*
X10071428Y13714286D01*
X10071428Y13357143D01*
X10142857Y13214286D01*
X10214285Y13142858D01*
X10357142Y13071429D01*
X10500000Y13071429D01*
X10642857Y13142858D01*
X10714285Y13214286D01*
X10785714Y13357143D01*
X10857142Y13642858D01*
X10928571Y13785715D01*
X11000000Y13857143D01*
X11142857Y13928572D01*
X11285714Y13928572D01*
X11428571Y13857143D01*
X11500000Y13785715D01*
X11571428Y13642858D01*
X11571428Y13285715D01*
X11500000Y13071429D01*
X10071428Y12428572D02*
X11571428Y12428572D01*
X11571428Y11857143D01*
X11500000Y11714286D01*
X11428571Y11642858D01*
X11285714Y11571429D01*
X11071428Y11571429D01*
X10928571Y11642858D01*
X10857142Y11714286D01*
X10785714Y11857143D01*
X10785714Y12428572D01*
X10642857Y10928572D02*
X10642857Y9785715D01*
X10071428Y10357143D02*
X11214285Y10357143D01*
X10500000Y9142858D02*
X10500000Y8428572D01*
X10071428Y9285715D02*
X11571428Y8785715D01*
X10071428Y8285715D01*
X10071428Y7785715D02*
X11571428Y7785715D01*
X10857142Y7785715D02*
X10857142Y6928572D01*
X10071428Y6928572D02*
X11571428Y6928572D01*
X11571428Y6428572D02*
X11571428Y5571429D01*
X10071428Y6000000D02*
X11571428Y6000000D01*
D11*
G04 #@! TO.P,U3,1*
G04 #@! TO.N,Net-(R2-Pad1)*
X36209217Y18137626D03*
D12*
G04 #@! TO.P,U3,2*
G04 #@! TO.N,N/C*
X34209217Y18137626D03*
G04 #@! TO.P,U3,3*
G04 #@! TO.N,Net-(R1-Pad2)*
X32209217Y18137626D03*
G04 #@! TO.P,U3,4*
G04 #@! TO.N,RESET*
X30209217Y18137626D03*
G04 #@! TO.P,U3,5*
G04 #@! TO.N,WLED*
X28209217Y18137626D03*
G04 #@! TO.P,U3,6*
G04 #@! TO.N,N/C*
X26209217Y18137626D03*
G04 #@! TO.P,U3,7*
X24209217Y18137626D03*
G04 #@! TO.P,U3,8*
G04 #@! TO.N,3V3*
X22209217Y18137626D03*
G04 #@! TO.P,U3,9*
G04 #@! TO.N,GND*
X22209217Y2737626D03*
G04 #@! TO.P,U3,10*
G04 #@! TO.N,Net-(R4-Pad1)*
X24209217Y2837626D03*
G04 #@! TO.P,U3,11*
G04 #@! TO.N,N/C*
X26209217Y2737626D03*
G04 #@! TO.P,U3,12*
G04 #@! TO.N,Net-(R5-Pad2)*
X28209217Y2737626D03*
G04 #@! TO.P,U3,13*
G04 #@! TO.N,SDA*
X30209217Y2737626D03*
G04 #@! TO.P,U3,14*
G04 #@! TO.N,SCL*
X32209217Y2737626D03*
G04 #@! TO.P,U3,15*
G04 #@! TO.N,eRX*
X34209217Y2737626D03*
G04 #@! TO.P,U3,16*
G04 #@! TO.N,eTX*
X36209217Y2737626D03*
G04 #@! TD*
D13*
G04 #@! TO.P,SW1,2*
G04 #@! TO.N,GND*
X13450000Y18500000D03*
G04 #@! TO.P,SW1,1*
G04 #@! TO.N,RESET*
X20050000Y18500000D03*
G04 #@! TD*
G04 #@! TO.P,SW2,1*
G04 #@! TO.N,Net-(R5-Pad2)*
X13450000Y2250000D03*
G04 #@! TO.P,SW2,2*
G04 #@! TO.N,GND*
X20050000Y2250000D03*
G04 #@! TD*
D14*
G04 #@! TO.N,GND*
G04 #@! TO.C,C9*
G36*
X18767642Y6698826D02*
X18791303Y6695316D01*
X18814507Y6689504D01*
X18837029Y6681446D01*
X18858653Y6671218D01*
X18879170Y6658921D01*
X18898383Y6644671D01*
X18916107Y6628607D01*
X18932171Y6610883D01*
X18946421Y6591670D01*
X18958718Y6571153D01*
X18968946Y6549529D01*
X18977004Y6527007D01*
X18982816Y6503803D01*
X18986326Y6480142D01*
X18987500Y6456250D01*
X18987500Y5543750D01*
X18986326Y5519858D01*
X18982816Y5496197D01*
X18977004Y5472993D01*
X18968946Y5450471D01*
X18958718Y5428847D01*
X18946421Y5408330D01*
X18932171Y5389117D01*
X18916107Y5371393D01*
X18898383Y5355329D01*
X18879170Y5341079D01*
X18858653Y5328782D01*
X18837029Y5318554D01*
X18814507Y5310496D01*
X18791303Y5304684D01*
X18767642Y5301174D01*
X18743750Y5300000D01*
X18256250Y5300000D01*
X18232358Y5301174D01*
X18208697Y5304684D01*
X18185493Y5310496D01*
X18162971Y5318554D01*
X18141347Y5328782D01*
X18120830Y5341079D01*
X18101617Y5355329D01*
X18083893Y5371393D01*
X18067829Y5389117D01*
X18053579Y5408330D01*
X18041282Y5428847D01*
X18031054Y5450471D01*
X18022996Y5472993D01*
X18017184Y5496197D01*
X18013674Y5519858D01*
X18012500Y5543750D01*
X18012500Y6456250D01*
X18013674Y6480142D01*
X18017184Y6503803D01*
X18022996Y6527007D01*
X18031054Y6549529D01*
X18041282Y6571153D01*
X18053579Y6591670D01*
X18067829Y6610883D01*
X18083893Y6628607D01*
X18101617Y6644671D01*
X18120830Y6658921D01*
X18141347Y6671218D01*
X18162971Y6681446D01*
X18185493Y6689504D01*
X18208697Y6695316D01*
X18232358Y6698826D01*
X18256250Y6700000D01*
X18743750Y6700000D01*
X18767642Y6698826D01*
X18767642Y6698826D01*
G37*
D15*
G04 #@! TD*
G04 #@! TO.P,C9,1*
G04 #@! TO.N,GND*
X18500000Y6000000D03*
D14*
G04 #@! TO.N,5V*
G04 #@! TO.C,C9*
G36*
X16892642Y6698826D02*
X16916303Y6695316D01*
X16939507Y6689504D01*
X16962029Y6681446D01*
X16983653Y6671218D01*
X17004170Y6658921D01*
X17023383Y6644671D01*
X17041107Y6628607D01*
X17057171Y6610883D01*
X17071421Y6591670D01*
X17083718Y6571153D01*
X17093946Y6549529D01*
X17102004Y6527007D01*
X17107816Y6503803D01*
X17111326Y6480142D01*
X17112500Y6456250D01*
X17112500Y5543750D01*
X17111326Y5519858D01*
X17107816Y5496197D01*
X17102004Y5472993D01*
X17093946Y5450471D01*
X17083718Y5428847D01*
X17071421Y5408330D01*
X17057171Y5389117D01*
X17041107Y5371393D01*
X17023383Y5355329D01*
X17004170Y5341079D01*
X16983653Y5328782D01*
X16962029Y5318554D01*
X16939507Y5310496D01*
X16916303Y5304684D01*
X16892642Y5301174D01*
X16868750Y5300000D01*
X16381250Y5300000D01*
X16357358Y5301174D01*
X16333697Y5304684D01*
X16310493Y5310496D01*
X16287971Y5318554D01*
X16266347Y5328782D01*
X16245830Y5341079D01*
X16226617Y5355329D01*
X16208893Y5371393D01*
X16192829Y5389117D01*
X16178579Y5408330D01*
X16166282Y5428847D01*
X16156054Y5450471D01*
X16147996Y5472993D01*
X16142184Y5496197D01*
X16138674Y5519858D01*
X16137500Y5543750D01*
X16137500Y6456250D01*
X16138674Y6480142D01*
X16142184Y6503803D01*
X16147996Y6527007D01*
X16156054Y6549529D01*
X16166282Y6571153D01*
X16178579Y6591670D01*
X16192829Y6610883D01*
X16208893Y6628607D01*
X16226617Y6644671D01*
X16245830Y6658921D01*
X16266347Y6671218D01*
X16287971Y6681446D01*
X16310493Y6689504D01*
X16333697Y6695316D01*
X16357358Y6698826D01*
X16381250Y6700000D01*
X16868750Y6700000D01*
X16892642Y6698826D01*
X16892642Y6698826D01*
G37*
D15*
G04 #@! TD*
G04 #@! TO.P,C9,2*
G04 #@! TO.N,5V*
X16625000Y6000000D03*
D16*
G04 #@! TO.P,D2,1*
G04 #@! TO.N,GND*
X19100000Y13039999D03*
G04 #@! TO.P,D2,2*
G04 #@! TO.N,Net-(D2-Pad2)*
X15900000Y13039999D03*
G04 #@! TO.P,D2,4*
G04 #@! TO.N,N/C*
X19100000Y8139999D03*
G04 #@! TO.P,D2,3*
G04 #@! TO.N,5V*
X15900000Y8139999D03*
G04 #@! TD*
D14*
G04 #@! TO.N,Net-(D2-Pad2)*
G04 #@! TO.C,R9*
G36*
X16892642Y15890206D02*
X16916303Y15886696D01*
X16939507Y15880884D01*
X16962029Y15872826D01*
X16983653Y15862598D01*
X17004170Y15850301D01*
X17023383Y15836051D01*
X17041107Y15819987D01*
X17057171Y15802263D01*
X17071421Y15783050D01*
X17083718Y15762533D01*
X17093946Y15740909D01*
X17102004Y15718387D01*
X17107816Y15695183D01*
X17111326Y15671522D01*
X17112500Y15647630D01*
X17112500Y14735130D01*
X17111326Y14711238D01*
X17107816Y14687577D01*
X17102004Y14664373D01*
X17093946Y14641851D01*
X17083718Y14620227D01*
X17071421Y14599710D01*
X17057171Y14580497D01*
X17041107Y14562773D01*
X17023383Y14546709D01*
X17004170Y14532459D01*
X16983653Y14520162D01*
X16962029Y14509934D01*
X16939507Y14501876D01*
X16916303Y14496064D01*
X16892642Y14492554D01*
X16868750Y14491380D01*
X16381250Y14491380D01*
X16357358Y14492554D01*
X16333697Y14496064D01*
X16310493Y14501876D01*
X16287971Y14509934D01*
X16266347Y14520162D01*
X16245830Y14532459D01*
X16226617Y14546709D01*
X16208893Y14562773D01*
X16192829Y14580497D01*
X16178579Y14599710D01*
X16166282Y14620227D01*
X16156054Y14641851D01*
X16147996Y14664373D01*
X16142184Y14687577D01*
X16138674Y14711238D01*
X16137500Y14735130D01*
X16137500Y15647630D01*
X16138674Y15671522D01*
X16142184Y15695183D01*
X16147996Y15718387D01*
X16156054Y15740909D01*
X16166282Y15762533D01*
X16178579Y15783050D01*
X16192829Y15802263D01*
X16208893Y15819987D01*
X16226617Y15836051D01*
X16245830Y15850301D01*
X16266347Y15862598D01*
X16287971Y15872826D01*
X16310493Y15880884D01*
X16333697Y15886696D01*
X16357358Y15890206D01*
X16381250Y15891380D01*
X16868750Y15891380D01*
X16892642Y15890206D01*
X16892642Y15890206D01*
G37*
D15*
G04 #@! TD*
G04 #@! TO.P,R9,1*
G04 #@! TO.N,Net-(D2-Pad2)*
X16625000Y15191380D03*
D14*
G04 #@! TO.N,WLED*
G04 #@! TO.C,R9*
G36*
X18767642Y15890206D02*
X18791303Y15886696D01*
X18814507Y15880884D01*
X18837029Y15872826D01*
X18858653Y15862598D01*
X18879170Y15850301D01*
X18898383Y15836051D01*
X18916107Y15819987D01*
X18932171Y15802263D01*
X18946421Y15783050D01*
X18958718Y15762533D01*
X18968946Y15740909D01*
X18977004Y15718387D01*
X18982816Y15695183D01*
X18986326Y15671522D01*
X18987500Y15647630D01*
X18987500Y14735130D01*
X18986326Y14711238D01*
X18982816Y14687577D01*
X18977004Y14664373D01*
X18968946Y14641851D01*
X18958718Y14620227D01*
X18946421Y14599710D01*
X18932171Y14580497D01*
X18916107Y14562773D01*
X18898383Y14546709D01*
X18879170Y14532459D01*
X18858653Y14520162D01*
X18837029Y14509934D01*
X18814507Y14501876D01*
X18791303Y14496064D01*
X18767642Y14492554D01*
X18743750Y14491380D01*
X18256250Y14491380D01*
X18232358Y14492554D01*
X18208697Y14496064D01*
X18185493Y14501876D01*
X18162971Y14509934D01*
X18141347Y14520162D01*
X18120830Y14532459D01*
X18101617Y14546709D01*
X18083893Y14562773D01*
X18067829Y14580497D01*
X18053579Y14599710D01*
X18041282Y14620227D01*
X18031054Y14641851D01*
X18022996Y14664373D01*
X18017184Y14687577D01*
X18013674Y14711238D01*
X18012500Y14735130D01*
X18012500Y15647630D01*
X18013674Y15671522D01*
X18017184Y15695183D01*
X18022996Y15718387D01*
X18031054Y15740909D01*
X18041282Y15762533D01*
X18053579Y15783050D01*
X18067829Y15802263D01*
X18083893Y15819987D01*
X18101617Y15836051D01*
X18120830Y15850301D01*
X18141347Y15862598D01*
X18162971Y15872826D01*
X18185493Y15880884D01*
X18208697Y15886696D01*
X18232358Y15890206D01*
X18256250Y15891380D01*
X18743750Y15891380D01*
X18767642Y15890206D01*
X18767642Y15890206D01*
G37*
D15*
G04 #@! TD*
G04 #@! TO.P,R9,2*
G04 #@! TO.N,WLED*
X18500000Y15191380D03*
D17*
G04 #@! TO.N,GND*
X28250000Y11800000D03*
X37225000Y11950000D03*
X12950000Y5300000D03*
X13226828Y16906817D03*
G04 #@! TO.N,eRX*
X24550002Y8050000D03*
X34050000Y5025000D03*
G04 #@! TO.N,eTX*
X36239335Y5243178D03*
G04 #@! TO.N,5V*
X21500000Y12000000D03*
G04 #@! TO.N,eTX*
X25650000Y9950000D03*
G04 #@! TO.N,RESET*
X14500000Y10850000D03*
X18350000Y19550000D03*
G04 #@! TO.N,WLED*
X28250000Y16750000D03*
G04 #@! TD*
D18*
G04 #@! TO.N,GND*
X28400000Y11950000D02*
X28250000Y11800000D01*
X37225000Y11950000D02*
X28400000Y11950000D01*
X12950000Y5300000D02*
X12350001Y5899999D01*
X12626829Y16306818D02*
X13226828Y16906817D01*
X12350001Y5899999D02*
X12350001Y16029990D01*
X12350001Y16029990D02*
X12626829Y16306818D01*
G04 #@! TO.N,eRX*
X24550002Y8050000D02*
X27575002Y5025000D01*
X33201472Y5025000D02*
X34050000Y5025000D01*
X27575002Y5025000D02*
X33201472Y5025000D01*
G04 #@! TO.N,GND*
X19000000Y13139999D02*
X19100000Y13039999D01*
G04 #@! TO.N,eTX*
X35639336Y5843177D02*
X36239335Y5243178D01*
X35032513Y6450000D02*
X35639336Y5843177D01*
X25650000Y8875000D02*
X28075000Y6450000D01*
X25650000Y9950000D02*
X25650000Y8875000D01*
X28075000Y6450000D02*
X35032513Y6450000D01*
G04 #@! TO.N,5V*
X15900000Y6725000D02*
X15900000Y8139999D01*
X16625000Y6000000D02*
X15900000Y6725000D01*
X17500000Y7250000D02*
X16625000Y6375000D01*
X17500000Y9500000D02*
X17500000Y7250000D01*
X18250000Y10250000D02*
X17500000Y9500000D01*
X21500000Y12000000D02*
X19750000Y10250000D01*
X16625000Y6375000D02*
X16625000Y6000000D01*
X19750000Y10250000D02*
X18250000Y10250000D01*
G04 #@! TO.N,RESET*
X17800000Y19550000D02*
X18350000Y19550000D01*
X14500000Y10850000D02*
X14500000Y16250000D01*
X14500000Y16250000D02*
X17800000Y19550000D01*
G04 #@! TO.N,Net-(D2-Pad2)*
X16625000Y13764999D02*
X15900000Y13039999D01*
X16625000Y15191380D02*
X16625000Y13764999D01*
G04 #@! TO.N,WLED*
X28209217Y17437626D02*
X28187626Y17437626D01*
X26691380Y15191380D02*
X18500000Y15191380D01*
X28250000Y16750000D02*
X26691380Y15191380D01*
G04 #@! TD*
D19*
G04 #@! TO.N,GND*
G36*
X14531978Y17392135D02*
X14714428Y17610774D01*
X14881934Y18147114D01*
X14729471Y18373000D01*
X13577000Y18373000D01*
X13577000Y17030085D01*
X13799039Y16908096D01*
X13856730Y16918558D01*
X14280432Y17140589D01*
X13999590Y16859747D01*
X13934048Y16815953D01*
X13890254Y16750411D01*
X13890251Y16750408D01*
X13760546Y16556291D01*
X13699622Y16250000D01*
X13715001Y16172683D01*
X13715000Y11811553D01*
X13453018Y11549571D01*
X13265000Y11095657D01*
X13265000Y10604343D01*
X13453018Y10150429D01*
X13800429Y9803018D01*
X14254343Y9615000D01*
X14745657Y9615000D01*
X15199571Y9803018D01*
X15546982Y10150429D01*
X15735000Y10604343D01*
X15735000Y11095657D01*
X15546982Y11549571D01*
X15453994Y11642559D01*
X16400000Y11642559D01*
X16647765Y11691842D01*
X16857809Y11832190D01*
X16998157Y12042234D01*
X17047440Y12289999D01*
X17047440Y12754249D01*
X17965000Y12754249D01*
X17965000Y12163690D01*
X18061673Y11930301D01*
X18240301Y11751672D01*
X18473690Y11654999D01*
X18814250Y11654999D01*
X18973000Y11813749D01*
X18973000Y12912999D01*
X19227000Y12912999D01*
X19227000Y11813749D01*
X19385750Y11654999D01*
X19726310Y11654999D01*
X19959699Y11751672D01*
X20138327Y11930301D01*
X20235000Y12163690D01*
X20235000Y12754249D01*
X20076250Y12912999D01*
X19227000Y12912999D01*
X18973000Y12912999D01*
X18123750Y12912999D01*
X17965000Y12754249D01*
X17047440Y12754249D01*
X17047440Y13077281D01*
X17125411Y13155252D01*
X17190953Y13199046D01*
X17234747Y13264588D01*
X17234749Y13264590D01*
X17364454Y13458707D01*
X17380705Y13540407D01*
X17410000Y13687683D01*
X17410000Y13687687D01*
X17425378Y13764999D01*
X17410000Y13842311D01*
X17410000Y14045552D01*
X17498916Y14104964D01*
X17562500Y14200124D01*
X17626084Y14104964D01*
X17915206Y13911778D01*
X17965000Y13901873D01*
X17965000Y13325749D01*
X18123750Y13166999D01*
X18973000Y13166999D01*
X18973000Y13186999D01*
X19227000Y13186999D01*
X19227000Y13166999D01*
X20076250Y13166999D01*
X20235000Y13325749D01*
X20235000Y13916308D01*
X20138327Y14149697D01*
X19959699Y14328326D01*
X19771260Y14406380D01*
X26614068Y14406380D01*
X26691380Y14391002D01*
X26768692Y14406380D01*
X26768696Y14406380D01*
X26997672Y14451926D01*
X27257333Y14625427D01*
X27301129Y14690972D01*
X28125157Y15515000D01*
X28495657Y15515000D01*
X28949571Y15703018D01*
X29296982Y16050429D01*
X29482405Y16498079D01*
X29746853Y16321381D01*
X30209217Y16229411D01*
X30671580Y16321381D01*
X31063554Y16583289D01*
X31209217Y16801289D01*
X31354880Y16583289D01*
X31746853Y16321381D01*
X32209217Y16229411D01*
X32671580Y16321381D01*
X33063554Y16583289D01*
X33209217Y16801289D01*
X33354880Y16583289D01*
X33746853Y16321381D01*
X34209217Y16229411D01*
X34671580Y16321381D01*
X35063554Y16583289D01*
X35081207Y16609709D01*
X35201408Y16429817D01*
X35411452Y16289469D01*
X35659217Y16240186D01*
X36759217Y16240186D01*
X37006982Y16289469D01*
X37217026Y16429817D01*
X37357374Y16639861D01*
X37406657Y16887626D01*
X37406657Y19387626D01*
X37381445Y19514379D01*
X37459549Y19379912D01*
X37537787Y19042369D01*
X37540000Y18986045D01*
X37540000Y11783607D01*
X30059398Y11768810D01*
X30010772Y11759028D01*
X29969635Y11731401D01*
X29942202Y11690134D01*
X29932649Y11641511D01*
X29943029Y7235000D01*
X28400158Y7235000D01*
X26540855Y9094302D01*
X26696982Y9250429D01*
X26885000Y9704343D01*
X26885000Y10195657D01*
X26696982Y10649571D01*
X26349571Y10996982D01*
X25895657Y11185000D01*
X25404343Y11185000D01*
X24950429Y10996982D01*
X24603018Y10649571D01*
X24415000Y10195657D01*
X24415000Y9704343D01*
X24588698Y9285000D01*
X24304345Y9285000D01*
X23850431Y9096982D01*
X23503020Y8749571D01*
X23315002Y8295657D01*
X23315002Y7804343D01*
X23503020Y7350429D01*
X23850431Y7003018D01*
X24304345Y6815000D01*
X24674845Y6815000D01*
X26965255Y4524589D01*
X27009049Y4459047D01*
X27074591Y4415253D01*
X27074593Y4415251D01*
X27178800Y4345622D01*
X27268710Y4285546D01*
X27340987Y4271169D01*
X27209217Y4073963D01*
X27063554Y4291963D01*
X26671581Y4553871D01*
X26209217Y4645841D01*
X25746854Y4553871D01*
X25354881Y4291963D01*
X25242626Y4123962D01*
X25063554Y4391963D01*
X24671581Y4653871D01*
X24209217Y4745841D01*
X23746854Y4653871D01*
X23354881Y4391963D01*
X23168307Y4112737D01*
X22957335Y4365350D01*
X22545363Y4581024D01*
X22518961Y4581429D01*
X22336217Y4455987D01*
X22336217Y2864626D01*
X22356217Y2864626D01*
X22356217Y2610626D01*
X22336217Y2610626D01*
X22336217Y1019265D01*
X22518961Y893823D01*
X22545363Y894228D01*
X22957335Y1109902D01*
X23242547Y1451408D01*
X23354880Y1283289D01*
X23746853Y1021381D01*
X24209217Y929411D01*
X24671580Y1021381D01*
X25063554Y1283289D01*
X25175808Y1451289D01*
X25354880Y1183289D01*
X25746853Y921381D01*
X26209217Y829411D01*
X26671580Y921381D01*
X27063554Y1183289D01*
X27209217Y1401289D01*
X27354880Y1183289D01*
X27746853Y921381D01*
X28209217Y829411D01*
X28671580Y921381D01*
X29063554Y1183289D01*
X29209217Y1401289D01*
X29354880Y1183289D01*
X29746853Y921381D01*
X30209217Y829411D01*
X30671580Y921381D01*
X31063554Y1183289D01*
X31209217Y1401289D01*
X31354880Y1183289D01*
X31746853Y921381D01*
X32209217Y829411D01*
X32671580Y921381D01*
X33063554Y1183289D01*
X33209217Y1401289D01*
X33354880Y1183289D01*
X33746853Y921381D01*
X34209217Y829411D01*
X34671580Y921381D01*
X35063554Y1183289D01*
X35209217Y1401289D01*
X35354880Y1183289D01*
X35746853Y921381D01*
X36209217Y829411D01*
X36671580Y921381D01*
X37063554Y1183289D01*
X37325462Y1575262D01*
X37394217Y1920916D01*
X37394217Y3554336D01*
X37325462Y3899990D01*
X37063554Y4291963D01*
X37046241Y4303531D01*
X37286317Y4543607D01*
X37443709Y4923583D01*
X37540001Y4922610D01*
X37540001Y1803077D01*
X37486399Y1446546D01*
X37353564Y1169917D01*
X37145264Y944580D01*
X36879912Y790451D01*
X36542369Y712213D01*
X36486045Y710000D01*
X20535814Y710000D01*
X20954424Y929363D01*
X21283017Y1323133D01*
X21461099Y1109902D01*
X21873071Y894228D01*
X21899473Y893823D01*
X22082217Y1019265D01*
X22082217Y2610626D01*
X22062217Y2610626D01*
X22062217Y2864626D01*
X22082217Y2864626D01*
X22082217Y4455987D01*
X21899473Y4581429D01*
X21873071Y4581024D01*
X21461099Y4365350D01*
X21163021Y4008439D01*
X21024217Y3564626D01*
X21024217Y3487001D01*
X20954424Y3570637D01*
X20456730Y3831442D01*
X20399039Y3841904D01*
X20177000Y3719915D01*
X20177000Y2377000D01*
X20197000Y2377000D01*
X20197000Y2123000D01*
X20177000Y2123000D01*
X20177000Y2103000D01*
X19923000Y2103000D01*
X19923000Y2123000D01*
X18770529Y2123000D01*
X18618066Y1897114D01*
X18785572Y1360774D01*
X19145576Y929363D01*
X19564186Y710000D01*
X14053070Y710000D01*
X14032179Y713141D01*
X14484576Y1015423D01*
X14801740Y1490091D01*
X14885000Y1908667D01*
X14885000Y2591332D01*
X14882702Y2602886D01*
X18618066Y2602886D01*
X18770529Y2377000D01*
X19923000Y2377000D01*
X19923000Y3719915D01*
X19700961Y3841904D01*
X19643270Y3831442D01*
X19145576Y3570637D01*
X18785572Y3139226D01*
X18618066Y2602886D01*
X14882702Y2602886D01*
X14801740Y3009908D01*
X14484577Y3484577D01*
X14009909Y3801740D01*
X13450000Y3913113D01*
X12912985Y3806294D01*
X12870238Y4021196D01*
X12764223Y4277137D01*
X12764223Y4277138D01*
X12547451Y4601562D01*
X12505442Y4643571D01*
X12540000Y4643571D01*
X12540000Y8889999D01*
X14752560Y8889999D01*
X14752560Y7389999D01*
X14801843Y7142234D01*
X14942191Y6932190D01*
X15115000Y6816722D01*
X15115000Y6802312D01*
X15099622Y6725000D01*
X15115000Y6647688D01*
X15115000Y6647685D01*
X15115822Y6643555D01*
X15160546Y6418709D01*
X15249387Y6285750D01*
X15334047Y6159047D01*
X15399592Y6115251D01*
X15490060Y6024783D01*
X15490060Y5543750D01*
X15557898Y5202706D01*
X15751084Y4913584D01*
X16040206Y4720398D01*
X16381250Y4652560D01*
X16868750Y4652560D01*
X17209794Y4720398D01*
X17498916Y4913584D01*
X17499707Y4914767D01*
X17652802Y4761673D01*
X17886191Y4665000D01*
X18214250Y4665000D01*
X18373000Y4823750D01*
X18373000Y5873000D01*
X18627000Y5873000D01*
X18627000Y4823750D01*
X18785750Y4665000D01*
X19113809Y4665000D01*
X19347198Y4761673D01*
X19525827Y4940301D01*
X19622500Y5173690D01*
X19622500Y5714250D01*
X19463750Y5873000D01*
X18627000Y5873000D01*
X18373000Y5873000D01*
X18353000Y5873000D01*
X18353000Y6127000D01*
X18373000Y6127000D01*
X18373000Y6147000D01*
X18627000Y6147000D01*
X18627000Y6127000D01*
X19463750Y6127000D01*
X19622500Y6285750D01*
X19622500Y6747034D01*
X19847765Y6791842D01*
X20057809Y6932190D01*
X20198157Y7142234D01*
X20247440Y7389999D01*
X20247440Y8889999D01*
X20198157Y9137764D01*
X20057809Y9347808D01*
X19869779Y9473446D01*
X20056292Y9510546D01*
X20315953Y9684047D01*
X20359749Y9749592D01*
X21375157Y10765000D01*
X21745657Y10765000D01*
X22199571Y10953018D01*
X22546982Y11300429D01*
X22735000Y11754343D01*
X22735000Y12245657D01*
X22546982Y12699571D01*
X22199571Y13046982D01*
X21745657Y13235000D01*
X21254343Y13235000D01*
X20800429Y13046982D01*
X20453018Y12699571D01*
X20265000Y12245657D01*
X20265000Y11875157D01*
X19424843Y11035000D01*
X18327310Y11035000D01*
X18249999Y11050378D01*
X18172688Y11035000D01*
X18172684Y11035000D01*
X17943708Y10989454D01*
X17824625Y10909885D01*
X17749591Y10859749D01*
X17749589Y10859747D01*
X17684047Y10815953D01*
X17640253Y10750411D01*
X16999592Y10109749D01*
X16934047Y10065953D01*
X16760546Y9806291D01*
X16715000Y9577315D01*
X16715000Y9577312D01*
X16699622Y9500000D01*
X16710288Y9446379D01*
X16647765Y9488156D01*
X16400000Y9537439D01*
X15400000Y9537439D01*
X15152235Y9488156D01*
X14942191Y9347808D01*
X14801843Y9137764D01*
X14752560Y8889999D01*
X12540000Y8889999D01*
X12540000Y16140987D01*
X12547451Y16148438D01*
X12764223Y16472862D01*
X12833396Y16639861D01*
X12870238Y16728804D01*
X12920753Y16982760D01*
X13043270Y16918558D01*
X13100961Y16908096D01*
X13323000Y17030085D01*
X13323000Y18373000D01*
X13303000Y18373000D01*
X13303000Y18627000D01*
X13323000Y18627000D01*
X13323000Y18647000D01*
X13577000Y18647000D01*
X13577000Y18627000D01*
X14729471Y18627000D01*
X14881934Y18852886D01*
X14714428Y19389226D01*
X14354424Y19820637D01*
X13945433Y20034959D01*
X13957631Y20037787D01*
X14013955Y20040000D01*
X17179843Y20040000D01*
X14531978Y17392135D01*
X14531978Y17392135D01*
G37*
X14531978Y17392135D02*
X14714428Y17610774D01*
X14881934Y18147114D01*
X14729471Y18373000D01*
X13577000Y18373000D01*
X13577000Y17030085D01*
X13799039Y16908096D01*
X13856730Y16918558D01*
X14280432Y17140589D01*
X13999590Y16859747D01*
X13934048Y16815953D01*
X13890254Y16750411D01*
X13890251Y16750408D01*
X13760546Y16556291D01*
X13699622Y16250000D01*
X13715001Y16172683D01*
X13715000Y11811553D01*
X13453018Y11549571D01*
X13265000Y11095657D01*
X13265000Y10604343D01*
X13453018Y10150429D01*
X13800429Y9803018D01*
X14254343Y9615000D01*
X14745657Y9615000D01*
X15199571Y9803018D01*
X15546982Y10150429D01*
X15735000Y10604343D01*
X15735000Y11095657D01*
X15546982Y11549571D01*
X15453994Y11642559D01*
X16400000Y11642559D01*
X16647765Y11691842D01*
X16857809Y11832190D01*
X16998157Y12042234D01*
X17047440Y12289999D01*
X17047440Y12754249D01*
X17965000Y12754249D01*
X17965000Y12163690D01*
X18061673Y11930301D01*
X18240301Y11751672D01*
X18473690Y11654999D01*
X18814250Y11654999D01*
X18973000Y11813749D01*
X18973000Y12912999D01*
X19227000Y12912999D01*
X19227000Y11813749D01*
X19385750Y11654999D01*
X19726310Y11654999D01*
X19959699Y11751672D01*
X20138327Y11930301D01*
X20235000Y12163690D01*
X20235000Y12754249D01*
X20076250Y12912999D01*
X19227000Y12912999D01*
X18973000Y12912999D01*
X18123750Y12912999D01*
X17965000Y12754249D01*
X17047440Y12754249D01*
X17047440Y13077281D01*
X17125411Y13155252D01*
X17190953Y13199046D01*
X17234747Y13264588D01*
X17234749Y13264590D01*
X17364454Y13458707D01*
X17380705Y13540407D01*
X17410000Y13687683D01*
X17410000Y13687687D01*
X17425378Y13764999D01*
X17410000Y13842311D01*
X17410000Y14045552D01*
X17498916Y14104964D01*
X17562500Y14200124D01*
X17626084Y14104964D01*
X17915206Y13911778D01*
X17965000Y13901873D01*
X17965000Y13325749D01*
X18123750Y13166999D01*
X18973000Y13166999D01*
X18973000Y13186999D01*
X19227000Y13186999D01*
X19227000Y13166999D01*
X20076250Y13166999D01*
X20235000Y13325749D01*
X20235000Y13916308D01*
X20138327Y14149697D01*
X19959699Y14328326D01*
X19771260Y14406380D01*
X26614068Y14406380D01*
X26691380Y14391002D01*
X26768692Y14406380D01*
X26768696Y14406380D01*
X26997672Y14451926D01*
X27257333Y14625427D01*
X27301129Y14690972D01*
X28125157Y15515000D01*
X28495657Y15515000D01*
X28949571Y15703018D01*
X29296982Y16050429D01*
X29482405Y16498079D01*
X29746853Y16321381D01*
X30209217Y16229411D01*
X30671580Y16321381D01*
X31063554Y16583289D01*
X31209217Y16801289D01*
X31354880Y16583289D01*
X31746853Y16321381D01*
X32209217Y16229411D01*
X32671580Y16321381D01*
X33063554Y16583289D01*
X33209217Y16801289D01*
X33354880Y16583289D01*
X33746853Y16321381D01*
X34209217Y16229411D01*
X34671580Y16321381D01*
X35063554Y16583289D01*
X35081207Y16609709D01*
X35201408Y16429817D01*
X35411452Y16289469D01*
X35659217Y16240186D01*
X36759217Y16240186D01*
X37006982Y16289469D01*
X37217026Y16429817D01*
X37357374Y16639861D01*
X37406657Y16887626D01*
X37406657Y19387626D01*
X37381445Y19514379D01*
X37459549Y19379912D01*
X37537787Y19042369D01*
X37540000Y18986045D01*
X37540000Y11783607D01*
X30059398Y11768810D01*
X30010772Y11759028D01*
X29969635Y11731401D01*
X29942202Y11690134D01*
X29932649Y11641511D01*
X29943029Y7235000D01*
X28400158Y7235000D01*
X26540855Y9094302D01*
X26696982Y9250429D01*
X26885000Y9704343D01*
X26885000Y10195657D01*
X26696982Y10649571D01*
X26349571Y10996982D01*
X25895657Y11185000D01*
X25404343Y11185000D01*
X24950429Y10996982D01*
X24603018Y10649571D01*
X24415000Y10195657D01*
X24415000Y9704343D01*
X24588698Y9285000D01*
X24304345Y9285000D01*
X23850431Y9096982D01*
X23503020Y8749571D01*
X23315002Y8295657D01*
X23315002Y7804343D01*
X23503020Y7350429D01*
X23850431Y7003018D01*
X24304345Y6815000D01*
X24674845Y6815000D01*
X26965255Y4524589D01*
X27009049Y4459047D01*
X27074591Y4415253D01*
X27074593Y4415251D01*
X27178800Y4345622D01*
X27268710Y4285546D01*
X27340987Y4271169D01*
X27209217Y4073963D01*
X27063554Y4291963D01*
X26671581Y4553871D01*
X26209217Y4645841D01*
X25746854Y4553871D01*
X25354881Y4291963D01*
X25242626Y4123962D01*
X25063554Y4391963D01*
X24671581Y4653871D01*
X24209217Y4745841D01*
X23746854Y4653871D01*
X23354881Y4391963D01*
X23168307Y4112737D01*
X22957335Y4365350D01*
X22545363Y4581024D01*
X22518961Y4581429D01*
X22336217Y4455987D01*
X22336217Y2864626D01*
X22356217Y2864626D01*
X22356217Y2610626D01*
X22336217Y2610626D01*
X22336217Y1019265D01*
X22518961Y893823D01*
X22545363Y894228D01*
X22957335Y1109902D01*
X23242547Y1451408D01*
X23354880Y1283289D01*
X23746853Y1021381D01*
X24209217Y929411D01*
X24671580Y1021381D01*
X25063554Y1283289D01*
X25175808Y1451289D01*
X25354880Y1183289D01*
X25746853Y921381D01*
X26209217Y829411D01*
X26671580Y921381D01*
X27063554Y1183289D01*
X27209217Y1401289D01*
X27354880Y1183289D01*
X27746853Y921381D01*
X28209217Y829411D01*
X28671580Y921381D01*
X29063554Y1183289D01*
X29209217Y1401289D01*
X29354880Y1183289D01*
X29746853Y921381D01*
X30209217Y829411D01*
X30671580Y921381D01*
X31063554Y1183289D01*
X31209217Y1401289D01*
X31354880Y1183289D01*
X31746853Y921381D01*
X32209217Y829411D01*
X32671580Y921381D01*
X33063554Y1183289D01*
X33209217Y1401289D01*
X33354880Y1183289D01*
X33746853Y921381D01*
X34209217Y829411D01*
X34671580Y921381D01*
X35063554Y1183289D01*
X35209217Y1401289D01*
X35354880Y1183289D01*
X35746853Y921381D01*
X36209217Y829411D01*
X36671580Y921381D01*
X37063554Y1183289D01*
X37325462Y1575262D01*
X37394217Y1920916D01*
X37394217Y3554336D01*
X37325462Y3899990D01*
X37063554Y4291963D01*
X37046241Y4303531D01*
X37286317Y4543607D01*
X37443709Y4923583D01*
X37540001Y4922610D01*
X37540001Y1803077D01*
X37486399Y1446546D01*
X37353564Y1169917D01*
X37145264Y944580D01*
X36879912Y790451D01*
X36542369Y712213D01*
X36486045Y710000D01*
X20535814Y710000D01*
X20954424Y929363D01*
X21283017Y1323133D01*
X21461099Y1109902D01*
X21873071Y894228D01*
X21899473Y893823D01*
X22082217Y1019265D01*
X22082217Y2610626D01*
X22062217Y2610626D01*
X22062217Y2864626D01*
X22082217Y2864626D01*
X22082217Y4455987D01*
X21899473Y4581429D01*
X21873071Y4581024D01*
X21461099Y4365350D01*
X21163021Y4008439D01*
X21024217Y3564626D01*
X21024217Y3487001D01*
X20954424Y3570637D01*
X20456730Y3831442D01*
X20399039Y3841904D01*
X20177000Y3719915D01*
X20177000Y2377000D01*
X20197000Y2377000D01*
X20197000Y2123000D01*
X20177000Y2123000D01*
X20177000Y2103000D01*
X19923000Y2103000D01*
X19923000Y2123000D01*
X18770529Y2123000D01*
X18618066Y1897114D01*
X18785572Y1360774D01*
X19145576Y929363D01*
X19564186Y710000D01*
X14053070Y710000D01*
X14032179Y713141D01*
X14484576Y1015423D01*
X14801740Y1490091D01*
X14885000Y1908667D01*
X14885000Y2591332D01*
X14882702Y2602886D01*
X18618066Y2602886D01*
X18770529Y2377000D01*
X19923000Y2377000D01*
X19923000Y3719915D01*
X19700961Y3841904D01*
X19643270Y3831442D01*
X19145576Y3570637D01*
X18785572Y3139226D01*
X18618066Y2602886D01*
X14882702Y2602886D01*
X14801740Y3009908D01*
X14484577Y3484577D01*
X14009909Y3801740D01*
X13450000Y3913113D01*
X12912985Y3806294D01*
X12870238Y4021196D01*
X12764223Y4277137D01*
X12764223Y4277138D01*
X12547451Y4601562D01*
X12505442Y4643571D01*
X12540000Y4643571D01*
X12540000Y8889999D01*
X14752560Y8889999D01*
X14752560Y7389999D01*
X14801843Y7142234D01*
X14942191Y6932190D01*
X15115000Y6816722D01*
X15115000Y6802312D01*
X15099622Y6725000D01*
X15115000Y6647688D01*
X15115000Y6647685D01*
X15115822Y6643555D01*
X15160546Y6418709D01*
X15249387Y6285750D01*
X15334047Y6159047D01*
X15399592Y6115251D01*
X15490060Y6024783D01*
X15490060Y5543750D01*
X15557898Y5202706D01*
X15751084Y4913584D01*
X16040206Y4720398D01*
X16381250Y4652560D01*
X16868750Y4652560D01*
X17209794Y4720398D01*
X17498916Y4913584D01*
X17499707Y4914767D01*
X17652802Y4761673D01*
X17886191Y4665000D01*
X18214250Y4665000D01*
X18373000Y4823750D01*
X18373000Y5873000D01*
X18627000Y5873000D01*
X18627000Y4823750D01*
X18785750Y4665000D01*
X19113809Y4665000D01*
X19347198Y4761673D01*
X19525827Y4940301D01*
X19622500Y5173690D01*
X19622500Y5714250D01*
X19463750Y5873000D01*
X18627000Y5873000D01*
X18373000Y5873000D01*
X18353000Y5873000D01*
X18353000Y6127000D01*
X18373000Y6127000D01*
X18373000Y6147000D01*
X18627000Y6147000D01*
X18627000Y6127000D01*
X19463750Y6127000D01*
X19622500Y6285750D01*
X19622500Y6747034D01*
X19847765Y6791842D01*
X20057809Y6932190D01*
X20198157Y7142234D01*
X20247440Y7389999D01*
X20247440Y8889999D01*
X20198157Y9137764D01*
X20057809Y9347808D01*
X19869779Y9473446D01*
X20056292Y9510546D01*
X20315953Y9684047D01*
X20359749Y9749592D01*
X21375157Y10765000D01*
X21745657Y10765000D01*
X22199571Y10953018D01*
X22546982Y11300429D01*
X22735000Y11754343D01*
X22735000Y12245657D01*
X22546982Y12699571D01*
X22199571Y13046982D01*
X21745657Y13235000D01*
X21254343Y13235000D01*
X20800429Y13046982D01*
X20453018Y12699571D01*
X20265000Y12245657D01*
X20265000Y11875157D01*
X19424843Y11035000D01*
X18327310Y11035000D01*
X18249999Y11050378D01*
X18172688Y11035000D01*
X18172684Y11035000D01*
X17943708Y10989454D01*
X17824625Y10909885D01*
X17749591Y10859749D01*
X17749589Y10859747D01*
X17684047Y10815953D01*
X17640253Y10750411D01*
X16999592Y10109749D01*
X16934047Y10065953D01*
X16760546Y9806291D01*
X16715000Y9577315D01*
X16715000Y9577312D01*
X16699622Y9500000D01*
X16710288Y9446379D01*
X16647765Y9488156D01*
X16400000Y9537439D01*
X15400000Y9537439D01*
X15152235Y9488156D01*
X14942191Y9347808D01*
X14801843Y9137764D01*
X14752560Y8889999D01*
X12540000Y8889999D01*
X12540000Y16140987D01*
X12547451Y16148438D01*
X12764223Y16472862D01*
X12833396Y16639861D01*
X12870238Y16728804D01*
X12920753Y16982760D01*
X13043270Y16918558D01*
X13100961Y16908096D01*
X13323000Y17030085D01*
X13323000Y18373000D01*
X13303000Y18373000D01*
X13303000Y18627000D01*
X13323000Y18627000D01*
X13323000Y18647000D01*
X13577000Y18647000D01*
X13577000Y18627000D01*
X14729471Y18627000D01*
X14881934Y18852886D01*
X14714428Y19389226D01*
X14354424Y19820637D01*
X13945433Y20034959D01*
X13957631Y20037787D01*
X14013955Y20040000D01*
X17179843Y20040000D01*
X14531978Y17392135D01*
G04 #@! TD*
M02*
