M48
;DRILL file {KiCad 5.0.2-bee76a0~70~ubuntu18.04.1} date Sun 03 Nov 2019 01:57:04 PM EST
;FORMAT={-:-/ absolute / metric / decimal}
FMAT,2
METRIC,TZ
T1C0.650
T2C0.800
%
G90
G05
T1
X-16.146Y17.396
X-16.146Y3.396
X-14.146Y17.396
X-14.146Y3.396
X-12.146Y17.396
X-12.146Y3.396
X-10.146Y17.396
X-10.146Y3.396
X-8.146Y17.396
X-8.146Y3.396
X-6.146Y17.396
X-6.146Y3.396
X-4.146Y17.396
X-4.146Y3.396
X-2.146Y17.396
X-2.146Y3.396
T2
X-19.1Y11.6
X-13.1Y6.5
X-12.Y5.1
X-5.7Y11.5
X-4.1Y4.4
X-2.3Y5.4
X-26.Y18.
X-26.Y15.46
X-20.92Y18.
X-20.92Y15.46
X-26.08Y5.54
X-26.08Y3.
X-21.Y5.54
X-21.Y3.
T0
M30
