G04 #@! TF.GenerationSoftware,KiCad,Pcbnew,5.0.2-bee76a0~70~ubuntu18.04.1*
G04 #@! TF.CreationDate,2019-11-03T13:57:03-05:00*
G04 #@! TF.ProjectId,ESP-AHT10-Extra,4553502d-4148-4543-9130-2d4578747261,rev?*
G04 #@! TF.SameCoordinates,PXa08e777PY66b80cc*
G04 #@! TF.FileFunction,Legend,Top*
G04 #@! TF.FilePolarity,Positive*
%FSLAX46Y46*%
G04 Gerber Fmt 4.6, Leading zero omitted, Abs format (unit mm)*
G04 Created by KiCad (PCBNEW 5.0.2-bee76a0~70~ubuntu18.04.1) date Sun 03 Nov 2019 01:57:03 PM EST*
%MOMM*%
%LPD*%
G01*
G04 APERTURE LIST*
%ADD10C,0.300000*%
%ADD11C,0.152400*%
%ADD12C,0.150000*%
G04 APERTURE END LIST*
D10*
X-39427132Y12865763D02*
X-38927132Y12865763D01*
X-38712846Y12080049D02*
X-39427132Y12080049D01*
X-39427132Y13580049D01*
X-38712846Y13580049D01*
X-38141418Y12151478D02*
X-37927132Y12080049D01*
X-37569989Y12080049D01*
X-37427132Y12151478D01*
X-37355703Y12222906D01*
X-37284275Y12365763D01*
X-37284275Y12508620D01*
X-37355703Y12651478D01*
X-37427132Y12722906D01*
X-37569989Y12794335D01*
X-37855703Y12865763D01*
X-37998561Y12937192D01*
X-38069989Y13008620D01*
X-38141418Y13151478D01*
X-38141418Y13294335D01*
X-38069989Y13437192D01*
X-37998561Y13508620D01*
X-37855703Y13580049D01*
X-37498561Y13580049D01*
X-37284275Y13508620D01*
X-36641418Y12080049D02*
X-36641418Y13580049D01*
X-36069989Y13580049D01*
X-35927132Y13508620D01*
X-35855703Y13437192D01*
X-35784275Y13294335D01*
X-35784275Y13080049D01*
X-35855703Y12937192D01*
X-35927132Y12865763D01*
X-36069989Y12794335D01*
X-36641418Y12794335D01*
X-35141418Y12651478D02*
X-33998561Y12651478D01*
X-33355703Y12508620D02*
X-32641418Y12508620D01*
X-33498561Y12080049D02*
X-32998561Y13580049D01*
X-32498561Y12080049D01*
X-31998561Y12080049D02*
X-31998561Y13580049D01*
X-31998561Y12865763D02*
X-31141418Y12865763D01*
X-31141418Y12080049D02*
X-31141418Y13580049D01*
X-30641418Y13580049D02*
X-29784275Y13580049D01*
X-30212846Y12080049D02*
X-30212846Y13580049D01*
X-28498561Y12080049D02*
X-29355703Y12080049D01*
X-28927132Y12080049D02*
X-28927132Y13580049D01*
X-29069989Y13365763D01*
X-29212846Y13222906D01*
X-29355703Y13151478D01*
X-27569989Y13580049D02*
X-27427132Y13580049D01*
X-27284275Y13508620D01*
X-27212846Y13437192D01*
X-27141418Y13294335D01*
X-27069989Y13008620D01*
X-27069989Y12651478D01*
X-27141418Y12365763D01*
X-27212846Y12222906D01*
X-27284275Y12151478D01*
X-27427132Y12080049D01*
X-27569989Y12080049D01*
X-27712846Y12151478D01*
X-27784275Y12222906D01*
X-27855703Y12365763D01*
X-27927132Y12651478D01*
X-27927132Y13008620D01*
X-27855703Y13294335D01*
X-27784275Y13437192D01*
X-27712846Y13508620D01*
X-27569989Y13580049D01*
X-26427132Y12651478D02*
X-25284275Y12651478D01*
X-25855703Y12080049D02*
X-25855703Y13222906D01*
X-35498561Y9601478D02*
X-35641418Y9530049D01*
X-35927132Y9530049D01*
X-36069989Y9601478D01*
X-36141418Y9672906D01*
X-36212846Y9815763D01*
X-36212846Y10244335D01*
X-36141418Y10387192D01*
X-36069989Y10458620D01*
X-35927132Y10530049D01*
X-35641418Y10530049D01*
X-35498561Y10458620D01*
X-34855703Y10530049D02*
X-34855703Y9030049D01*
X-34855703Y10458620D02*
X-34712846Y10530049D01*
X-34427132Y10530049D01*
X-34284275Y10458620D01*
X-34212846Y10387192D01*
X-34141418Y10244335D01*
X-34141418Y9815763D01*
X-34212846Y9672906D01*
X-34284275Y9601478D01*
X-34427132Y9530049D01*
X-34712846Y9530049D01*
X-34855703Y9601478D01*
X-32927132Y9601478D02*
X-33069989Y9530049D01*
X-33355703Y9530049D01*
X-33498561Y9601478D01*
X-33569989Y9744335D01*
X-33569989Y10315763D01*
X-33498561Y10458620D01*
X-33355703Y10530049D01*
X-33069989Y10530049D01*
X-32927132Y10458620D01*
X-32855703Y10315763D01*
X-32855703Y10172906D01*
X-33569989Y10030049D01*
X-32212846Y9530049D02*
X-32212846Y10530049D01*
X-32212846Y10244335D02*
X-32141418Y10387192D01*
X-32069989Y10458620D01*
X-31927132Y10530049D01*
X-31784275Y10530049D01*
X-31284275Y9530049D02*
X-31284275Y10530049D01*
X-31284275Y11030049D02*
X-31355703Y10958620D01*
X-31284275Y10887192D01*
X-31212846Y10958620D01*
X-31284275Y11030049D01*
X-31284275Y10887192D01*
X-30355703Y9530049D02*
X-30498561Y9601478D01*
X-30569989Y9672906D01*
X-30641418Y9815763D01*
X-30641418Y10244335D01*
X-30569989Y10387192D01*
X-30498561Y10458620D01*
X-30355703Y10530049D01*
X-30141418Y10530049D01*
X-29998561Y10458620D01*
X-29927132Y10387192D01*
X-29855703Y10244335D01*
X-29855703Y9815763D01*
X-29927132Y9672906D01*
X-29998561Y9601478D01*
X-30141418Y9530049D01*
X-30355703Y9530049D01*
X-28569989Y9530049D02*
X-28569989Y11030049D01*
X-28569989Y9601478D02*
X-28712846Y9530049D01*
X-28998561Y9530049D01*
X-29141418Y9601478D01*
X-29212846Y9672906D01*
X-29284275Y9815763D01*
X-29284275Y10244335D01*
X-29212846Y10387192D01*
X-29141418Y10458620D01*
X-28998561Y10530049D01*
X-28712846Y10530049D01*
X-28569989Y10458620D01*
X-34927132Y8337192D02*
X-34855703Y8408620D01*
X-34712846Y8480049D01*
X-34355703Y8480049D01*
X-34212846Y8408620D01*
X-34141418Y8337192D01*
X-34069989Y8194335D01*
X-34069989Y8051478D01*
X-34141418Y7837192D01*
X-34998561Y6980049D01*
X-34069989Y6980049D01*
X-33141418Y8480049D02*
X-32998561Y8480049D01*
X-32855703Y8408620D01*
X-32784275Y8337192D01*
X-32712846Y8194335D01*
X-32641418Y7908620D01*
X-32641418Y7551478D01*
X-32712846Y7265763D01*
X-32784275Y7122906D01*
X-32855703Y7051478D01*
X-32998561Y6980049D01*
X-33141418Y6980049D01*
X-33284275Y7051478D01*
X-33355703Y7122906D01*
X-33427132Y7265763D01*
X-33498561Y7551478D01*
X-33498561Y7908620D01*
X-33427132Y8194335D01*
X-33355703Y8337192D01*
X-33284275Y8408620D01*
X-33141418Y8480049D01*
X-31212846Y6980049D02*
X-32069989Y6980049D01*
X-31641418Y6980049D02*
X-31641418Y8480049D01*
X-31784275Y8265763D01*
X-31927132Y8122906D01*
X-32069989Y8051478D01*
X-30498561Y6980049D02*
X-30212846Y6980049D01*
X-30069989Y7051478D01*
X-29998561Y7122906D01*
X-29855703Y7337192D01*
X-29784275Y7622906D01*
X-29784275Y8194335D01*
X-29855703Y8337192D01*
X-29927132Y8408620D01*
X-30069989Y8480049D01*
X-30355703Y8480049D01*
X-30498561Y8408620D01*
X-30569989Y8337192D01*
X-30641418Y8194335D01*
X-30641418Y7837192D01*
X-30569989Y7694335D01*
X-30498561Y7622906D01*
X-30355703Y7551478D01*
X-30069989Y7551478D01*
X-29927132Y7622906D01*
X-29855703Y7694335D01*
X-29784275Y7837192D01*
X-20034275Y6887192D02*
X-18534275Y6887192D01*
X-18534275Y6315763D01*
X-18605703Y6172906D01*
X-18677132Y6101478D01*
X-18819989Y6030049D01*
X-19034275Y6030049D01*
X-19177132Y6101478D01*
X-19248561Y6172906D01*
X-19319989Y6315763D01*
X-19319989Y6887192D01*
X-20034275Y4530049D02*
X-19319989Y5030049D01*
X-20034275Y5387192D02*
X-18534275Y5387192D01*
X-18534275Y4815763D01*
X-18605703Y4672906D01*
X-18677132Y4601478D01*
X-18819989Y4530049D01*
X-19034275Y4530049D01*
X-19177132Y4601478D01*
X-19248561Y4672906D01*
X-19319989Y4815763D01*
X-19319989Y5387192D01*
X-18534275Y3601478D02*
X-18534275Y3315763D01*
X-18605703Y3172906D01*
X-18748561Y3030049D01*
X-19034275Y2958620D01*
X-19534275Y2958620D01*
X-19819989Y3030049D01*
X-19962846Y3172906D01*
X-20034275Y3315763D01*
X-20034275Y3601478D01*
X-19962846Y3744335D01*
X-19819989Y3887192D01*
X-19534275Y3958620D01*
X-19034275Y3958620D01*
X-18748561Y3887192D01*
X-18605703Y3744335D01*
X-18534275Y3601478D01*
X-18605703Y1530049D02*
X-18534275Y1672906D01*
X-18534275Y1887192D01*
X-18605703Y2101478D01*
X-18748561Y2244335D01*
X-18891418Y2315763D01*
X-19177132Y2387192D01*
X-19391418Y2387192D01*
X-19677132Y2315763D01*
X-19819989Y2244335D01*
X-19962846Y2101478D01*
X-20034275Y1887192D01*
X-20034275Y1744335D01*
X-19962846Y1530049D01*
X-19891418Y1458620D01*
X-19391418Y1458620D01*
X-19391418Y1744335D01*
X-20034275Y18887192D02*
X-19319989Y19387192D01*
X-20034275Y19744335D02*
X-18534275Y19744335D01*
X-18534275Y19172906D01*
X-18605703Y19030049D01*
X-18677132Y18958620D01*
X-18819989Y18887192D01*
X-19034275Y18887192D01*
X-19177132Y18958620D01*
X-19248561Y19030049D01*
X-19319989Y19172906D01*
X-19319989Y19744335D01*
X-19248561Y18244335D02*
X-19248561Y17744335D01*
X-20034275Y17530049D02*
X-20034275Y18244335D01*
X-18534275Y18244335D01*
X-18534275Y17530049D01*
X-19962846Y16958620D02*
X-20034275Y16744335D01*
X-20034275Y16387192D01*
X-19962846Y16244335D01*
X-19891418Y16172906D01*
X-19748561Y16101478D01*
X-19605703Y16101478D01*
X-19462846Y16172906D01*
X-19391418Y16244335D01*
X-19319989Y16387192D01*
X-19248561Y16672906D01*
X-19177132Y16815763D01*
X-19105703Y16887192D01*
X-18962846Y16958620D01*
X-18819989Y16958620D01*
X-18677132Y16887192D01*
X-18605703Y16815763D01*
X-18534275Y16672906D01*
X-18534275Y16315763D01*
X-18605703Y16101478D01*
X-19248561Y15458620D02*
X-19248561Y14958620D01*
X-20034275Y14744335D02*
X-20034275Y15458620D01*
X-18534275Y15458620D01*
X-18534275Y14744335D01*
X-18534275Y14315763D02*
X-18534275Y13458620D01*
X-20034275Y13887192D02*
X-18534275Y13887192D01*
D11*
G04 #@! TO.C,U3*
X-17005486Y18412246D02*
X-17767486Y18412246D01*
X-17767486Y18412246D02*
X-17767486Y2410246D01*
X-17767486Y2410246D02*
X-17005486Y2410246D01*
D12*
G04 #@! TO.C,SW1*
X-25250000Y14250000D02*
X-21750000Y14250000D01*
X-26250000Y17000000D02*
X-26250000Y16500000D01*
X-21000000Y17000000D02*
X-21000000Y16500000D01*
X-25250000Y19250000D02*
X-21750000Y19250000D01*
G04 #@! TO.C,SW2*
X-21750000Y1750000D02*
X-25250000Y1750000D01*
X-26000000Y4000000D02*
X-26000000Y4500000D01*
X-20750000Y4000000D02*
X-20750000Y4500000D01*
X-21750000Y6750000D02*
X-25250000Y6750000D01*
G04 #@! TD*
M02*
