G04 #@! TF.GenerationSoftware,KiCad,Pcbnew,5.0.2-bee76a0~70~ubuntu18.04.1*
G04 #@! TF.CreationDate,2020-01-11T12:57:47-05:00*
G04 #@! TF.ProjectId,ESP-AHT10-Extra,4553502d-4148-4543-9130-2d4578747261,1.4*
G04 #@! TF.SameCoordinates,PX7bfa480PY66c2270*
G04 #@! TF.FileFunction,Soldermask,Bot*
G04 #@! TF.FilePolarity,Negative*
%FSLAX46Y46*%
G04 Gerber Fmt 4.6, Leading zero omitted, Abs format (unit mm)*
G04 Created by KiCad (PCBNEW 5.0.2-bee76a0~70~ubuntu18.04.1) date Sat 11 Jan 2020 12:57:47 PM EST*
%MOMM*%
%LPD*%
G01*
G04 APERTURE LIST*
%ADD10C,0.150000*%
%ADD11C,0.050000*%
G04 APERTURE END LIST*
D10*
G04 #@! TO.C,J1*
G36*
X8659217Y4387626D02*
X8659217Y16387626D01*
X59217Y16387626D01*
X59217Y4387626D01*
X8659217Y4387626D01*
G37*
X8659217Y4387626D02*
X8659217Y16387626D01*
X59217Y16387626D01*
X59217Y4387626D01*
X8659217Y4387626D01*
D11*
G36*
X13616821Y3288687D02*
X13616824Y3288686D01*
X13616825Y3288686D01*
X13777239Y3240025D01*
X13777241Y3240024D01*
X13777244Y3240023D01*
X13925078Y3161005D01*
X14054659Y3054659D01*
X14161005Y2925078D01*
X14240023Y2777244D01*
X14240024Y2777241D01*
X14240025Y2777239D01*
X14288686Y2616825D01*
X14288686Y2616822D01*
X14288687Y2616820D01*
X14301000Y2491803D01*
X14301000Y2008196D01*
X14288687Y1883179D01*
X14288686Y1883176D01*
X14288686Y1883175D01*
X14265434Y1806522D01*
X14240023Y1722756D01*
X14161005Y1574922D01*
X14054659Y1445341D01*
X13925078Y1338995D01*
X13777243Y1259977D01*
X13777240Y1259976D01*
X13777238Y1259975D01*
X13616824Y1211314D01*
X13616823Y1211314D01*
X13616820Y1211313D01*
X13450000Y1194883D01*
X13283179Y1211313D01*
X13283176Y1211314D01*
X13283175Y1211314D01*
X13122761Y1259975D01*
X13122759Y1259976D01*
X13122756Y1259977D01*
X12974922Y1338995D01*
X12845341Y1445341D01*
X12738995Y1574922D01*
X12659977Y1722757D01*
X12635905Y1802113D01*
X12611314Y1883176D01*
X12611314Y1883177D01*
X12611313Y1883180D01*
X12599000Y2008197D01*
X12599000Y2491804D01*
X12611313Y2616821D01*
X12659977Y2777244D01*
X12738993Y2925074D01*
X12845344Y3054661D01*
X12974923Y3161005D01*
X13122757Y3240023D01*
X13122760Y3240024D01*
X13122762Y3240025D01*
X13283176Y3288686D01*
X13283177Y3288686D01*
X13283180Y3288687D01*
X13450000Y3305117D01*
X13616821Y3288687D01*
X13616821Y3288687D01*
G37*
G36*
X20216821Y3288687D02*
X20216824Y3288686D01*
X20216825Y3288686D01*
X20377239Y3240025D01*
X20377241Y3240024D01*
X20377244Y3240023D01*
X20525078Y3161005D01*
X20654659Y3054659D01*
X20761005Y2925078D01*
X20840023Y2777244D01*
X20840024Y2777241D01*
X20840025Y2777239D01*
X20888686Y2616825D01*
X20888686Y2616822D01*
X20888687Y2616820D01*
X20901000Y2491803D01*
X20901000Y2008196D01*
X20888687Y1883179D01*
X20888686Y1883176D01*
X20888686Y1883175D01*
X20865434Y1806522D01*
X20840023Y1722756D01*
X20761005Y1574922D01*
X20654659Y1445341D01*
X20525078Y1338995D01*
X20377243Y1259977D01*
X20377240Y1259976D01*
X20377238Y1259975D01*
X20216824Y1211314D01*
X20216823Y1211314D01*
X20216820Y1211313D01*
X20050000Y1194883D01*
X19883179Y1211313D01*
X19883176Y1211314D01*
X19883175Y1211314D01*
X19722761Y1259975D01*
X19722759Y1259976D01*
X19722756Y1259977D01*
X19574922Y1338995D01*
X19445341Y1445341D01*
X19338995Y1574922D01*
X19259977Y1722757D01*
X19235905Y1802113D01*
X19211314Y1883176D01*
X19211314Y1883177D01*
X19211313Y1883180D01*
X19199000Y2008197D01*
X19199000Y2491804D01*
X19211313Y2616821D01*
X19259977Y2777244D01*
X19338993Y2925074D01*
X19445344Y3054661D01*
X19574923Y3161005D01*
X19722757Y3240023D01*
X19722760Y3240024D01*
X19722762Y3240025D01*
X19883176Y3288686D01*
X19883177Y3288686D01*
X19883180Y3288687D01*
X20050000Y3305117D01*
X20216821Y3288687D01*
X20216821Y3288687D01*
G37*
G36*
X26327035Y4029930D02*
X26440322Y3995564D01*
X26544730Y3939757D01*
X26636244Y3864653D01*
X26711348Y3773139D01*
X26767155Y3668731D01*
X26801521Y3555444D01*
X26810217Y3467145D01*
X26810217Y2008107D01*
X26801521Y1919808D01*
X26767155Y1806521D01*
X26715883Y1710599D01*
X26711347Y1702113D01*
X26636244Y1610599D01*
X26598579Y1579689D01*
X26544729Y1535495D01*
X26440321Y1479688D01*
X26327034Y1445322D01*
X26209217Y1433719D01*
X26091399Y1445322D01*
X25978112Y1479688D01*
X25873705Y1535495D01*
X25825662Y1574923D01*
X25782190Y1610599D01*
X25748337Y1651850D01*
X25707086Y1702114D01*
X25651279Y1806522D01*
X25616913Y1919809D01*
X25608217Y2008108D01*
X25608218Y3467145D01*
X25616914Y3555444D01*
X25651280Y3668731D01*
X25707087Y3773139D01*
X25782191Y3864653D01*
X25873705Y3939757D01*
X25978113Y3995564D01*
X26091400Y4029930D01*
X26209217Y4041533D01*
X26327035Y4029930D01*
X26327035Y4029930D01*
G37*
G36*
X22327035Y4029930D02*
X22440322Y3995564D01*
X22544730Y3939757D01*
X22636244Y3864653D01*
X22711348Y3773139D01*
X22767155Y3668731D01*
X22801521Y3555444D01*
X22810217Y3467145D01*
X22810217Y2008107D01*
X22801521Y1919808D01*
X22767155Y1806521D01*
X22715883Y1710599D01*
X22711347Y1702113D01*
X22636244Y1610599D01*
X22598579Y1579689D01*
X22544729Y1535495D01*
X22440321Y1479688D01*
X22327034Y1445322D01*
X22209217Y1433719D01*
X22091399Y1445322D01*
X21978112Y1479688D01*
X21873705Y1535495D01*
X21825662Y1574923D01*
X21782190Y1610599D01*
X21748337Y1651850D01*
X21707086Y1702114D01*
X21651279Y1806522D01*
X21616913Y1919809D01*
X21608217Y2008108D01*
X21608218Y3467145D01*
X21616914Y3555444D01*
X21651280Y3668731D01*
X21707087Y3773139D01*
X21782191Y3864653D01*
X21873705Y3939757D01*
X21978113Y3995564D01*
X22091400Y4029930D01*
X22209217Y4041533D01*
X22327035Y4029930D01*
X22327035Y4029930D01*
G37*
G36*
X36327035Y4029930D02*
X36440322Y3995564D01*
X36544730Y3939757D01*
X36636244Y3864653D01*
X36711348Y3773139D01*
X36767155Y3668731D01*
X36801521Y3555444D01*
X36810217Y3467145D01*
X36810217Y2008107D01*
X36801521Y1919808D01*
X36767155Y1806521D01*
X36715883Y1710599D01*
X36711347Y1702113D01*
X36636244Y1610599D01*
X36598579Y1579689D01*
X36544729Y1535495D01*
X36440321Y1479688D01*
X36327034Y1445322D01*
X36209217Y1433719D01*
X36091399Y1445322D01*
X35978112Y1479688D01*
X35873705Y1535495D01*
X35825662Y1574923D01*
X35782190Y1610599D01*
X35748337Y1651850D01*
X35707086Y1702114D01*
X35651279Y1806522D01*
X35616913Y1919809D01*
X35608217Y2008108D01*
X35608218Y3467145D01*
X35616914Y3555444D01*
X35651280Y3668731D01*
X35707087Y3773139D01*
X35782191Y3864653D01*
X35873705Y3939757D01*
X35978113Y3995564D01*
X36091400Y4029930D01*
X36209217Y4041533D01*
X36327035Y4029930D01*
X36327035Y4029930D01*
G37*
G36*
X34327035Y4029930D02*
X34440322Y3995564D01*
X34544730Y3939757D01*
X34636244Y3864653D01*
X34711348Y3773139D01*
X34767155Y3668731D01*
X34801521Y3555444D01*
X34810217Y3467145D01*
X34810217Y2008107D01*
X34801521Y1919808D01*
X34767155Y1806521D01*
X34715883Y1710599D01*
X34711347Y1702113D01*
X34636244Y1610599D01*
X34598579Y1579689D01*
X34544729Y1535495D01*
X34440321Y1479688D01*
X34327034Y1445322D01*
X34209217Y1433719D01*
X34091399Y1445322D01*
X33978112Y1479688D01*
X33873705Y1535495D01*
X33825662Y1574923D01*
X33782190Y1610599D01*
X33748337Y1651850D01*
X33707086Y1702114D01*
X33651279Y1806522D01*
X33616913Y1919809D01*
X33608217Y2008108D01*
X33608218Y3467145D01*
X33616914Y3555444D01*
X33651280Y3668731D01*
X33707087Y3773139D01*
X33782191Y3864653D01*
X33873705Y3939757D01*
X33978113Y3995564D01*
X34091400Y4029930D01*
X34209217Y4041533D01*
X34327035Y4029930D01*
X34327035Y4029930D01*
G37*
G36*
X30327035Y4029930D02*
X30440322Y3995564D01*
X30544730Y3939757D01*
X30636244Y3864653D01*
X30711348Y3773139D01*
X30767155Y3668731D01*
X30801521Y3555444D01*
X30810217Y3467145D01*
X30810217Y2008107D01*
X30801521Y1919808D01*
X30767155Y1806521D01*
X30715883Y1710599D01*
X30711347Y1702113D01*
X30636244Y1610599D01*
X30598579Y1579689D01*
X30544729Y1535495D01*
X30440321Y1479688D01*
X30327034Y1445322D01*
X30209217Y1433719D01*
X30091399Y1445322D01*
X29978112Y1479688D01*
X29873705Y1535495D01*
X29825662Y1574923D01*
X29782190Y1610599D01*
X29748337Y1651850D01*
X29707086Y1702114D01*
X29651279Y1806522D01*
X29616913Y1919809D01*
X29608217Y2008108D01*
X29608218Y3467145D01*
X29616914Y3555444D01*
X29651280Y3668731D01*
X29707087Y3773139D01*
X29782191Y3864653D01*
X29873705Y3939757D01*
X29978113Y3995564D01*
X30091400Y4029930D01*
X30209217Y4041533D01*
X30327035Y4029930D01*
X30327035Y4029930D01*
G37*
G36*
X28327035Y4029930D02*
X28440322Y3995564D01*
X28544730Y3939757D01*
X28636244Y3864653D01*
X28711348Y3773139D01*
X28767155Y3668731D01*
X28801521Y3555444D01*
X28810217Y3467145D01*
X28810217Y2008107D01*
X28801521Y1919808D01*
X28767155Y1806521D01*
X28715883Y1710599D01*
X28711347Y1702113D01*
X28636244Y1610599D01*
X28598579Y1579689D01*
X28544729Y1535495D01*
X28440321Y1479688D01*
X28327034Y1445322D01*
X28209217Y1433719D01*
X28091399Y1445322D01*
X27978112Y1479688D01*
X27873705Y1535495D01*
X27825662Y1574923D01*
X27782190Y1610599D01*
X27748337Y1651850D01*
X27707086Y1702114D01*
X27651279Y1806522D01*
X27616913Y1919809D01*
X27608217Y2008108D01*
X27608218Y3467145D01*
X27616914Y3555444D01*
X27651280Y3668731D01*
X27707087Y3773139D01*
X27782191Y3864653D01*
X27873705Y3939757D01*
X27978113Y3995564D01*
X28091400Y4029930D01*
X28209217Y4041533D01*
X28327035Y4029930D01*
X28327035Y4029930D01*
G37*
G36*
X32327035Y4029930D02*
X32440322Y3995564D01*
X32544730Y3939757D01*
X32636244Y3864653D01*
X32711348Y3773139D01*
X32767155Y3668731D01*
X32801521Y3555444D01*
X32810217Y3467145D01*
X32810217Y2008107D01*
X32801521Y1919808D01*
X32767155Y1806521D01*
X32715883Y1710599D01*
X32711347Y1702113D01*
X32636244Y1610599D01*
X32598579Y1579689D01*
X32544729Y1535495D01*
X32440321Y1479688D01*
X32327034Y1445322D01*
X32209217Y1433719D01*
X32091399Y1445322D01*
X31978112Y1479688D01*
X31873705Y1535495D01*
X31825662Y1574923D01*
X31782190Y1610599D01*
X31748337Y1651850D01*
X31707086Y1702114D01*
X31651279Y1806522D01*
X31616913Y1919809D01*
X31608217Y2008108D01*
X31608218Y3467145D01*
X31616914Y3555444D01*
X31651280Y3668731D01*
X31707087Y3773139D01*
X31782191Y3864653D01*
X31873705Y3939757D01*
X31978113Y3995564D01*
X32091400Y4029930D01*
X32209217Y4041533D01*
X32327035Y4029930D01*
X32327035Y4029930D01*
G37*
G36*
X24327035Y4129930D02*
X24440322Y4095564D01*
X24544730Y4039757D01*
X24636244Y3964653D01*
X24711348Y3873139D01*
X24767155Y3768731D01*
X24801521Y3655444D01*
X24810217Y3567145D01*
X24810217Y2108107D01*
X24801521Y2019808D01*
X24767155Y1906521D01*
X24711348Y1802114D01*
X24711347Y1802113D01*
X24636244Y1710599D01*
X24594993Y1676746D01*
X24544729Y1635495D01*
X24440321Y1579688D01*
X24327034Y1545322D01*
X24209217Y1533719D01*
X24091399Y1545322D01*
X23978112Y1579688D01*
X23873705Y1635495D01*
X23859789Y1646915D01*
X23782190Y1710599D01*
X23748337Y1751850D01*
X23707086Y1802114D01*
X23651279Y1906522D01*
X23616913Y2019809D01*
X23608217Y2108108D01*
X23608218Y3567145D01*
X23616914Y3655444D01*
X23651280Y3768731D01*
X23707087Y3873139D01*
X23782191Y3964653D01*
X23873705Y4039757D01*
X23978113Y4095564D01*
X24091400Y4129930D01*
X24209217Y4141533D01*
X24327035Y4129930D01*
X24327035Y4129930D01*
G37*
G36*
X16578966Y5753435D02*
X16617637Y5741704D01*
X16653279Y5722652D01*
X16684517Y5697017D01*
X16710152Y5665779D01*
X16729204Y5630137D01*
X16740935Y5591466D01*
X16745500Y5545112D01*
X16745500Y4468888D01*
X16740935Y4422534D01*
X16729204Y4383863D01*
X16710152Y4348221D01*
X16684517Y4316983D01*
X16653279Y4291348D01*
X16617637Y4272296D01*
X16578966Y4260565D01*
X16532612Y4256000D01*
X15881388Y4256000D01*
X15835034Y4260565D01*
X15796363Y4272296D01*
X15760721Y4291348D01*
X15729483Y4316983D01*
X15703848Y4348221D01*
X15684796Y4383863D01*
X15673065Y4422534D01*
X15668500Y4468888D01*
X15668500Y5545112D01*
X15673065Y5591466D01*
X15684796Y5630137D01*
X15703848Y5665779D01*
X15729483Y5697017D01*
X15760721Y5722652D01*
X15796363Y5741704D01*
X15835034Y5753435D01*
X15881388Y5758000D01*
X16532612Y5758000D01*
X16578966Y5753435D01*
X16578966Y5753435D01*
G37*
G36*
X18453966Y5753435D02*
X18492637Y5741704D01*
X18528279Y5722652D01*
X18559517Y5697017D01*
X18585152Y5665779D01*
X18604204Y5630137D01*
X18615935Y5591466D01*
X18620500Y5545112D01*
X18620500Y4468888D01*
X18615935Y4422534D01*
X18604204Y4383863D01*
X18585152Y4348221D01*
X18559517Y4316983D01*
X18528279Y4291348D01*
X18492637Y4272296D01*
X18453966Y4260565D01*
X18407612Y4256000D01*
X17756388Y4256000D01*
X17710034Y4260565D01*
X17671363Y4272296D01*
X17635721Y4291348D01*
X17604483Y4316983D01*
X17578848Y4348221D01*
X17559796Y4383863D01*
X17548065Y4422534D01*
X17543500Y4468888D01*
X17543500Y5545112D01*
X17548065Y5591466D01*
X17559796Y5630137D01*
X17578848Y5665779D01*
X17604483Y5697017D01*
X17635721Y5722652D01*
X17671363Y5741704D01*
X17710034Y5753435D01*
X17756388Y5758000D01*
X18407612Y5758000D01*
X18453966Y5753435D01*
X18453966Y5753435D01*
G37*
G36*
X34239890Y5650983D02*
X34358361Y5601911D01*
X34358364Y5601909D01*
X34449105Y5541278D01*
X34464992Y5530662D01*
X34555662Y5439992D01*
X34555664Y5439989D01*
X34555665Y5439988D01*
X34626909Y5333364D01*
X34626911Y5333361D01*
X34675983Y5214890D01*
X34701000Y5089119D01*
X34701000Y4960881D01*
X34675983Y4835110D01*
X34626911Y4716639D01*
X34626909Y4716636D01*
X34560465Y4617195D01*
X34555662Y4610008D01*
X34464992Y4519338D01*
X34358361Y4448089D01*
X34239890Y4399017D01*
X34114119Y4374000D01*
X33985881Y4374000D01*
X33860110Y4399017D01*
X33741639Y4448089D01*
X33635008Y4519338D01*
X33544338Y4610008D01*
X33539536Y4617195D01*
X33473091Y4716636D01*
X33473089Y4716639D01*
X33424017Y4835110D01*
X33399000Y4960881D01*
X33399000Y5089119D01*
X33424017Y5214890D01*
X33473089Y5333361D01*
X33473091Y5333364D01*
X33544335Y5439988D01*
X33544336Y5439989D01*
X33544338Y5439992D01*
X33635008Y5530662D01*
X33650896Y5541278D01*
X33741636Y5601909D01*
X33741639Y5601911D01*
X33860110Y5650983D01*
X33985881Y5676000D01*
X34114119Y5676000D01*
X34239890Y5650983D01*
X34239890Y5650983D01*
G37*
G36*
X36246470Y5926992D02*
X36265412Y5911446D01*
X36287023Y5899895D01*
X36310472Y5892782D01*
X36429225Y5869161D01*
X36547696Y5820089D01*
X36547699Y5820087D01*
X36647451Y5753435D01*
X36654327Y5748840D01*
X36744997Y5658170D01*
X36744999Y5658167D01*
X36745000Y5658166D01*
X36793057Y5586243D01*
X36816246Y5551539D01*
X36865318Y5433068D01*
X36890335Y5307297D01*
X36890335Y5179059D01*
X36865318Y5053288D01*
X36816246Y4934817D01*
X36816244Y4934814D01*
X36749624Y4835110D01*
X36744997Y4828186D01*
X36654327Y4737516D01*
X36654324Y4737514D01*
X36654323Y4737513D01*
X36595162Y4697983D01*
X36547696Y4666267D01*
X36429225Y4617195D01*
X36303454Y4592178D01*
X36175216Y4592178D01*
X36049445Y4617195D01*
X35930974Y4666267D01*
X35883508Y4697983D01*
X35824347Y4737513D01*
X35824346Y4737514D01*
X35824343Y4737516D01*
X35733673Y4828186D01*
X35729047Y4835110D01*
X35662426Y4934814D01*
X35662424Y4934817D01*
X35613352Y5053288D01*
X35588335Y5179059D01*
X35588335Y5307297D01*
X35613352Y5433068D01*
X35662424Y5551539D01*
X35685613Y5586243D01*
X35733670Y5658166D01*
X35733671Y5658167D01*
X35733673Y5658170D01*
X35824343Y5748840D01*
X35831220Y5753435D01*
X35930971Y5820087D01*
X35930974Y5820089D01*
X36049445Y5869161D01*
X36168198Y5892782D01*
X36191647Y5899895D01*
X36213258Y5911446D01*
X36232200Y5926991D01*
X36239335Y5935685D01*
X36246470Y5926992D01*
X36246470Y5926992D01*
G37*
G36*
X26152466Y6134435D02*
X26191137Y6122704D01*
X26226779Y6103652D01*
X26258017Y6078017D01*
X26283652Y6046779D01*
X26302704Y6011137D01*
X26314435Y5972466D01*
X26319000Y5926112D01*
X26319000Y4849888D01*
X26314435Y4803534D01*
X26302704Y4764863D01*
X26283652Y4729221D01*
X26258017Y4697983D01*
X26226779Y4672348D01*
X26191137Y4653296D01*
X26152466Y4641565D01*
X26106112Y4637000D01*
X25454888Y4637000D01*
X25408534Y4641565D01*
X25369863Y4653296D01*
X25334221Y4672348D01*
X25302983Y4697983D01*
X25277348Y4729221D01*
X25258296Y4764863D01*
X25246565Y4803534D01*
X25242000Y4849888D01*
X25242000Y5926112D01*
X25246565Y5972466D01*
X25258296Y6011137D01*
X25277348Y6046779D01*
X25302983Y6078017D01*
X25334221Y6103652D01*
X25369863Y6122704D01*
X25408534Y6134435D01*
X25454888Y6139000D01*
X26106112Y6139000D01*
X26152466Y6134435D01*
X26152466Y6134435D01*
G37*
G36*
X22723466Y6134435D02*
X22762137Y6122704D01*
X22797779Y6103652D01*
X22829017Y6078017D01*
X22854652Y6046779D01*
X22873704Y6011137D01*
X22885435Y5972466D01*
X22890000Y5926112D01*
X22890000Y4849888D01*
X22885435Y4803534D01*
X22873704Y4764863D01*
X22854652Y4729221D01*
X22829017Y4697983D01*
X22797779Y4672348D01*
X22762137Y4653296D01*
X22723466Y4641565D01*
X22677112Y4637000D01*
X22025888Y4637000D01*
X21979534Y4641565D01*
X21940863Y4653296D01*
X21905221Y4672348D01*
X21873983Y4697983D01*
X21848348Y4729221D01*
X21829296Y4764863D01*
X21817565Y4803534D01*
X21813000Y4849888D01*
X21813000Y5926112D01*
X21817565Y5972466D01*
X21829296Y6011137D01*
X21848348Y6046779D01*
X21873983Y6078017D01*
X21905221Y6103652D01*
X21940863Y6122704D01*
X21979534Y6134435D01*
X22025888Y6139000D01*
X22677112Y6139000D01*
X22723466Y6134435D01*
X22723466Y6134435D01*
G37*
G36*
X24598466Y6134435D02*
X24637137Y6122704D01*
X24672779Y6103652D01*
X24704017Y6078017D01*
X24729652Y6046779D01*
X24748704Y6011137D01*
X24760435Y5972466D01*
X24765000Y5926112D01*
X24765000Y4849888D01*
X24760435Y4803534D01*
X24748704Y4764863D01*
X24729652Y4729221D01*
X24704017Y4697983D01*
X24672779Y4672348D01*
X24637137Y4653296D01*
X24598466Y4641565D01*
X24552112Y4637000D01*
X23900888Y4637000D01*
X23854534Y4641565D01*
X23815863Y4653296D01*
X23780221Y4672348D01*
X23748983Y4697983D01*
X23723348Y4729221D01*
X23704296Y4764863D01*
X23692565Y4803534D01*
X23688000Y4849888D01*
X23688000Y5926112D01*
X23692565Y5972466D01*
X23704296Y6011137D01*
X23723348Y6046779D01*
X23748983Y6078017D01*
X23780221Y6103652D01*
X23815863Y6122704D01*
X23854534Y6134435D01*
X23900888Y6139000D01*
X24552112Y6139000D01*
X24598466Y6134435D01*
X24598466Y6134435D01*
G37*
G36*
X28027466Y6134435D02*
X28066137Y6122704D01*
X28101779Y6103652D01*
X28133017Y6078017D01*
X28158652Y6046779D01*
X28177704Y6011137D01*
X28189435Y5972466D01*
X28194000Y5926112D01*
X28194000Y4849888D01*
X28189435Y4803534D01*
X28177704Y4764863D01*
X28158652Y4729221D01*
X28133017Y4697983D01*
X28101779Y4672348D01*
X28066137Y4653296D01*
X28027466Y4641565D01*
X27981112Y4637000D01*
X27329888Y4637000D01*
X27283534Y4641565D01*
X27244863Y4653296D01*
X27209221Y4672348D01*
X27177983Y4697983D01*
X27152348Y4729221D01*
X27133296Y4764863D01*
X27121565Y4803534D01*
X27117000Y4849888D01*
X27117000Y5926112D01*
X27121565Y5972466D01*
X27133296Y6011137D01*
X27152348Y6046779D01*
X27177983Y6078017D01*
X27209221Y6103652D01*
X27244863Y6122704D01*
X27283534Y6134435D01*
X27329888Y6139000D01*
X27981112Y6139000D01*
X28027466Y6134435D01*
X28027466Y6134435D01*
G37*
G36*
X8657545Y7569617D02*
X8739603Y7544725D01*
X8815222Y7504305D01*
X8881502Y7449911D01*
X8935896Y7383631D01*
X8976316Y7308012D01*
X9001208Y7225954D01*
X9010217Y7134486D01*
X9010217Y6020766D01*
X9001208Y5929298D01*
X8976316Y5847240D01*
X8935896Y5771621D01*
X8881502Y5705341D01*
X8815222Y5650947D01*
X8739603Y5610527D01*
X8657545Y5585635D01*
X8566077Y5576626D01*
X1352357Y5576626D01*
X1260889Y5585635D01*
X1178831Y5610527D01*
X1103212Y5650947D01*
X1036932Y5705341D01*
X982538Y5771621D01*
X942118Y5847240D01*
X917226Y5929298D01*
X908217Y6020766D01*
X908217Y7134486D01*
X917226Y7225954D01*
X942118Y7308012D01*
X982538Y7383631D01*
X1036932Y7449911D01*
X1103212Y7504305D01*
X1178831Y7544725D01*
X1260889Y7569617D01*
X1352357Y7578626D01*
X8566077Y7578626D01*
X8657545Y7569617D01*
X8657545Y7569617D01*
G37*
G36*
X36231703Y6104177D02*
X36213259Y6119314D01*
X36191648Y6130865D01*
X36168199Y6137978D01*
X36143812Y6140380D01*
X35479703Y6140380D01*
X35479703Y7742380D01*
X36231703Y7742380D01*
X36231703Y6104177D01*
X36231703Y6104177D01*
G37*
G36*
X37199412Y7736940D02*
X37270283Y7715441D01*
X37335611Y7680523D01*
X37392862Y7633539D01*
X37439849Y7576284D01*
X37474763Y7510965D01*
X37496263Y7440090D01*
X37501703Y7384852D01*
X37501703Y6497908D01*
X37496263Y6442670D01*
X37474763Y6371795D01*
X37439849Y6306476D01*
X37392862Y6249221D01*
X37335607Y6202234D01*
X37270288Y6167320D01*
X37199413Y6145820D01*
X37125703Y6138561D01*
X37051994Y6145820D01*
X36981119Y6167320D01*
X36915800Y6202234D01*
X36858545Y6249221D01*
X36811558Y6306476D01*
X36776644Y6371795D01*
X36755144Y6442670D01*
X36749704Y6497908D01*
X36749703Y7384851D01*
X36755143Y7440089D01*
X36776642Y7510960D01*
X36811560Y7576288D01*
X36858544Y7633539D01*
X36915799Y7680526D01*
X36981118Y7715440D01*
X37051993Y7736940D01*
X37125703Y7744199D01*
X37199412Y7736940D01*
X37199412Y7736940D01*
G37*
G36*
X34961703Y6140380D02*
X34209703Y6140380D01*
X34209703Y7742380D01*
X34961703Y7742380D01*
X34961703Y6140380D01*
X34961703Y6140380D01*
G37*
G36*
X21585217Y6481626D02*
X19933217Y6481626D01*
X19933217Y7183626D01*
X21585217Y7183626D01*
X21585217Y6481626D01*
X21585217Y6481626D01*
G37*
G36*
X16185217Y6481626D02*
X14533217Y6481626D01*
X14533217Y7183626D01*
X16185217Y7183626D01*
X16185217Y6481626D01*
X16185217Y6481626D01*
G37*
G36*
X27930466Y8039435D02*
X27969137Y8027704D01*
X28004779Y8008652D01*
X28036017Y7983017D01*
X28061652Y7951779D01*
X28080704Y7916137D01*
X28092435Y7877466D01*
X28097000Y7831112D01*
X28097000Y6754888D01*
X28092435Y6708534D01*
X28080704Y6669863D01*
X28061652Y6634221D01*
X28036017Y6602983D01*
X28004779Y6577348D01*
X27969137Y6558296D01*
X27930466Y6546565D01*
X27884112Y6542000D01*
X27232888Y6542000D01*
X27186534Y6546565D01*
X27147863Y6558296D01*
X27112221Y6577348D01*
X27080983Y6602983D01*
X27055348Y6634221D01*
X27036296Y6669863D01*
X27024565Y6708534D01*
X27020000Y6754888D01*
X27020000Y7831112D01*
X27024565Y7877466D01*
X27036296Y7916137D01*
X27055348Y7951779D01*
X27080983Y7983017D01*
X27112221Y8008652D01*
X27147863Y8027704D01*
X27186534Y8039435D01*
X27232888Y8044000D01*
X27884112Y8044000D01*
X27930466Y8039435D01*
X27930466Y8039435D01*
G37*
G36*
X29805466Y8039435D02*
X29844137Y8027704D01*
X29879779Y8008652D01*
X29911017Y7983017D01*
X29936652Y7951779D01*
X29955704Y7916137D01*
X29967435Y7877466D01*
X29972000Y7831112D01*
X29972000Y6754888D01*
X29967435Y6708534D01*
X29955704Y6669863D01*
X29936652Y6634221D01*
X29911017Y6602983D01*
X29879779Y6577348D01*
X29844137Y6558296D01*
X29805466Y6546565D01*
X29759112Y6542000D01*
X29107888Y6542000D01*
X29061534Y6546565D01*
X29022863Y6558296D01*
X28987221Y6577348D01*
X28955983Y6602983D01*
X28930348Y6634221D01*
X28911296Y6669863D01*
X28899565Y6708534D01*
X28895000Y6754888D01*
X28895000Y7831112D01*
X28899565Y7877466D01*
X28911296Y7916137D01*
X28930348Y7951779D01*
X28955983Y7983017D01*
X28987221Y8008652D01*
X29022863Y8027704D01*
X29061534Y8039435D01*
X29107888Y8044000D01*
X29759112Y8044000D01*
X29805466Y8039435D01*
X29805466Y8039435D01*
G37*
G36*
X31191293Y8024677D02*
X31198312Y8022548D01*
X31204775Y8019093D01*
X31210442Y8014442D01*
X31215093Y8008775D01*
X31218548Y8002312D01*
X31220677Y7995293D01*
X31222000Y7981860D01*
X31222000Y7318140D01*
X31220677Y7304707D01*
X31218548Y7297688D01*
X31215093Y7291225D01*
X31210442Y7285558D01*
X31204775Y7280907D01*
X31198312Y7277452D01*
X31191293Y7275323D01*
X31177860Y7274000D01*
X30864140Y7274000D01*
X30850707Y7275323D01*
X30843688Y7277452D01*
X30837225Y7280907D01*
X30831558Y7285558D01*
X30826907Y7291225D01*
X30823452Y7297688D01*
X30821323Y7304707D01*
X30820000Y7318140D01*
X30820000Y7981860D01*
X30821323Y7995293D01*
X30823452Y8002312D01*
X30826907Y8008775D01*
X30831558Y8014442D01*
X30837225Y8019093D01*
X30843688Y8022548D01*
X30850707Y8024677D01*
X30864140Y8026000D01*
X31177860Y8026000D01*
X31191293Y8024677D01*
X31191293Y8024677D01*
G37*
G36*
X32491293Y8024677D02*
X32498312Y8022548D01*
X32504775Y8019093D01*
X32510442Y8014442D01*
X32515093Y8008775D01*
X32518548Y8002312D01*
X32520677Y7995293D01*
X32522000Y7981860D01*
X32522000Y7318140D01*
X32520677Y7304707D01*
X32518548Y7297688D01*
X32515093Y7291225D01*
X32510442Y7285558D01*
X32504775Y7280907D01*
X32498312Y7277452D01*
X32491293Y7275323D01*
X32477860Y7274000D01*
X32164140Y7274000D01*
X32150707Y7275323D01*
X32143688Y7277452D01*
X32137225Y7280907D01*
X32131558Y7285558D01*
X32126907Y7291225D01*
X32123452Y7297688D01*
X32121323Y7304707D01*
X32120000Y7318140D01*
X32120000Y7981860D01*
X32121323Y7995293D01*
X32123452Y8002312D01*
X32126907Y8008775D01*
X32131558Y8014442D01*
X32137225Y8019093D01*
X32143688Y8022548D01*
X32150707Y8024677D01*
X32164140Y8026000D01*
X32477860Y8026000D01*
X32491293Y8024677D01*
X32491293Y8024677D01*
G37*
G36*
X13031000Y7699000D02*
X11869000Y7699000D01*
X11869000Y10351000D01*
X13031000Y10351000D01*
X13031000Y7699000D01*
X13031000Y7699000D01*
G37*
G36*
X10831000Y7699000D02*
X9669000Y7699000D01*
X9669000Y10351000D01*
X10831000Y10351000D01*
X10831000Y7699000D01*
X10831000Y7699000D01*
G37*
G36*
X21585217Y7751626D02*
X19933217Y7751626D01*
X19933217Y8453626D01*
X21585217Y8453626D01*
X21585217Y7751626D01*
X21585217Y7751626D01*
G37*
G36*
X16185217Y7751626D02*
X14533217Y7751626D01*
X14533217Y8453626D01*
X16185217Y8453626D01*
X16185217Y7751626D01*
X16185217Y7751626D01*
G37*
G36*
X23534466Y9302435D02*
X23573137Y9290704D01*
X23608779Y9271652D01*
X23640017Y9246017D01*
X23665652Y9214779D01*
X23684704Y9179137D01*
X23696435Y9140466D01*
X23701000Y9094112D01*
X23701000Y8442888D01*
X23696435Y8396534D01*
X23684704Y8357863D01*
X23665652Y8322221D01*
X23640017Y8290983D01*
X23608779Y8265348D01*
X23573137Y8246296D01*
X23534466Y8234565D01*
X23488112Y8230000D01*
X22411888Y8230000D01*
X22365534Y8234565D01*
X22326863Y8246296D01*
X22291221Y8265348D01*
X22259983Y8290983D01*
X22234348Y8322221D01*
X22215296Y8357863D01*
X22203565Y8396534D01*
X22199000Y8442888D01*
X22199000Y9094112D01*
X22203565Y9140466D01*
X22215296Y9179137D01*
X22234348Y9214779D01*
X22259983Y9246017D01*
X22291221Y9271652D01*
X22326863Y9290704D01*
X22365534Y9302435D01*
X22411888Y9307000D01*
X23488112Y9307000D01*
X23534466Y9302435D01*
X23534466Y9302435D01*
G37*
G36*
X24875890Y9569983D02*
X24994361Y9520911D01*
X25100992Y9449662D01*
X25191662Y9358992D01*
X25191664Y9358989D01*
X25191665Y9358988D01*
X25229859Y9301826D01*
X25262911Y9252361D01*
X25311983Y9133890D01*
X25337000Y9008119D01*
X25337000Y8879881D01*
X25311983Y8754110D01*
X25262911Y8635639D01*
X25262909Y8635636D01*
X25216823Y8566663D01*
X25191662Y8529008D01*
X25100992Y8438338D01*
X25100989Y8438336D01*
X25100988Y8438335D01*
X25034775Y8394093D01*
X24994361Y8367089D01*
X24875890Y8318017D01*
X24750119Y8293000D01*
X24621881Y8293000D01*
X24496110Y8318017D01*
X24377639Y8367089D01*
X24337225Y8394093D01*
X24271012Y8438335D01*
X24271011Y8438336D01*
X24271008Y8438338D01*
X24180338Y8529008D01*
X24155178Y8566663D01*
X24109091Y8635636D01*
X24109089Y8635639D01*
X24060017Y8754110D01*
X24035000Y8879881D01*
X24035000Y9008119D01*
X24060017Y9133890D01*
X24109089Y9252361D01*
X24142141Y9301826D01*
X24180335Y9358988D01*
X24180336Y9358989D01*
X24180338Y9358992D01*
X24271008Y9449662D01*
X24377639Y9520911D01*
X24496110Y9569983D01*
X24621881Y9595000D01*
X24750119Y9595000D01*
X24875890Y9569983D01*
X24875890Y9569983D01*
G37*
G36*
X8738039Y9931539D02*
X8801331Y9912339D01*
X8859665Y9881159D01*
X8910791Y9839200D01*
X8952750Y9788074D01*
X8983930Y9729740D01*
X9003130Y9666448D01*
X9010217Y9594487D01*
X9010217Y8680765D01*
X9003130Y8608804D01*
X8983930Y8545512D01*
X8952750Y8487178D01*
X8910791Y8436052D01*
X8859665Y8394093D01*
X8801331Y8362913D01*
X8738039Y8343713D01*
X8666078Y8336626D01*
X1752356Y8336626D01*
X1680395Y8343713D01*
X1617103Y8362913D01*
X1558769Y8394093D01*
X1507643Y8436052D01*
X1465684Y8487178D01*
X1434504Y8545512D01*
X1415304Y8608804D01*
X1408217Y8680765D01*
X1408217Y9594487D01*
X1415304Y9666448D01*
X1434504Y9729740D01*
X1465684Y9788074D01*
X1507643Y9839200D01*
X1558769Y9881159D01*
X1617103Y9912339D01*
X1680395Y9931539D01*
X1752356Y9938626D01*
X8666078Y9938626D01*
X8738039Y9931539D01*
X8738039Y9931539D01*
G37*
G36*
X27930466Y9944435D02*
X27969137Y9932704D01*
X28004779Y9913652D01*
X28036017Y9888017D01*
X28061652Y9856779D01*
X28080704Y9821137D01*
X28092435Y9782466D01*
X28097000Y9736112D01*
X28097000Y8659888D01*
X28092435Y8613534D01*
X28080704Y8574863D01*
X28061652Y8539221D01*
X28036017Y8507983D01*
X28004779Y8482348D01*
X27969137Y8463296D01*
X27930466Y8451565D01*
X27884112Y8447000D01*
X27232888Y8447000D01*
X27186534Y8451565D01*
X27147863Y8463296D01*
X27112221Y8482348D01*
X27080983Y8507983D01*
X27055348Y8539221D01*
X27036296Y8574863D01*
X27024565Y8613534D01*
X27020000Y8659888D01*
X27020000Y9736112D01*
X27024565Y9782466D01*
X27036296Y9821137D01*
X27055348Y9856779D01*
X27080983Y9888017D01*
X27112221Y9913652D01*
X27147863Y9932704D01*
X27186534Y9944435D01*
X27232888Y9949000D01*
X27884112Y9949000D01*
X27930466Y9944435D01*
X27930466Y9944435D01*
G37*
G36*
X29805466Y9944435D02*
X29844137Y9932704D01*
X29879779Y9913652D01*
X29911017Y9888017D01*
X29936652Y9856779D01*
X29955704Y9821137D01*
X29967435Y9782466D01*
X29972000Y9736112D01*
X29972000Y8659888D01*
X29967435Y8613534D01*
X29955704Y8574863D01*
X29936652Y8539221D01*
X29911017Y8507983D01*
X29879779Y8482348D01*
X29844137Y8463296D01*
X29805466Y8451565D01*
X29759112Y8447000D01*
X29107888Y8447000D01*
X29061534Y8451565D01*
X29022863Y8463296D01*
X28987221Y8482348D01*
X28955983Y8507983D01*
X28930348Y8539221D01*
X28911296Y8574863D01*
X28899565Y8613534D01*
X28895000Y8659888D01*
X28895000Y9736112D01*
X28899565Y9782466D01*
X28911296Y9821137D01*
X28930348Y9856779D01*
X28955983Y9888017D01*
X28987221Y9913652D01*
X29022863Y9932704D01*
X29061534Y9944435D01*
X29107888Y9949000D01*
X29759112Y9949000D01*
X29805466Y9944435D01*
X29805466Y9944435D01*
G37*
G36*
X16185217Y9021626D02*
X14533217Y9021626D01*
X14533217Y9723626D01*
X16185217Y9723626D01*
X16185217Y9021626D01*
X16185217Y9021626D01*
G37*
G36*
X21585217Y9021626D02*
X19933217Y9021626D01*
X19933217Y9723626D01*
X21585217Y9723626D01*
X21585217Y9021626D01*
X21585217Y9021626D01*
G37*
G36*
X32491293Y9824677D02*
X32498312Y9822548D01*
X32504775Y9819093D01*
X32510442Y9814442D01*
X32515093Y9808775D01*
X32518548Y9802312D01*
X32520677Y9795293D01*
X32522000Y9781860D01*
X32522000Y9118140D01*
X32520677Y9104707D01*
X32518548Y9097688D01*
X32515093Y9091225D01*
X32510442Y9085558D01*
X32504775Y9080907D01*
X32498312Y9077452D01*
X32491293Y9075323D01*
X32477860Y9074000D01*
X32164140Y9074000D01*
X32150707Y9075323D01*
X32143688Y9077452D01*
X32137225Y9080907D01*
X32131558Y9085558D01*
X32126907Y9091225D01*
X32123452Y9097688D01*
X32121323Y9104707D01*
X32120000Y9118140D01*
X32120000Y9781860D01*
X32121323Y9795293D01*
X32123452Y9802312D01*
X32126907Y9808775D01*
X32131558Y9814442D01*
X32137225Y9819093D01*
X32143688Y9822548D01*
X32150707Y9824677D01*
X32164140Y9826000D01*
X32477860Y9826000D01*
X32491293Y9824677D01*
X32491293Y9824677D01*
G37*
G36*
X31191293Y9824677D02*
X31198312Y9822548D01*
X31204775Y9819093D01*
X31210442Y9814442D01*
X31215093Y9808775D01*
X31218548Y9802312D01*
X31220677Y9795293D01*
X31222000Y9781860D01*
X31222000Y9118140D01*
X31220677Y9104707D01*
X31218548Y9097688D01*
X31215093Y9091225D01*
X31210442Y9085558D01*
X31204775Y9080907D01*
X31198312Y9077452D01*
X31191293Y9075323D01*
X31177860Y9074000D01*
X30864140Y9074000D01*
X30850707Y9075323D01*
X30843688Y9077452D01*
X30837225Y9080907D01*
X30831558Y9085558D01*
X30826907Y9091225D01*
X30823452Y9097688D01*
X30821323Y9104707D01*
X30820000Y9118140D01*
X30820000Y9781860D01*
X30821323Y9795293D01*
X30823452Y9802312D01*
X30826907Y9808775D01*
X30831558Y9814442D01*
X30837225Y9819093D01*
X30843688Y9822548D01*
X30850707Y9824677D01*
X30864140Y9826000D01*
X31177860Y9826000D01*
X31191293Y9824677D01*
X31191293Y9824677D01*
G37*
G36*
X36231703Y9340380D02*
X35479703Y9340380D01*
X35479703Y10942380D01*
X36231703Y10942380D01*
X36231703Y9340380D01*
X36231703Y9340380D01*
G37*
G36*
X37501703Y9340380D02*
X36749703Y9340380D01*
X36749703Y10942380D01*
X37501703Y10942380D01*
X37501703Y9340380D01*
X37501703Y9340380D01*
G37*
G36*
X34961703Y9340380D02*
X34209703Y9340380D01*
X34209703Y10942380D01*
X34961703Y10942380D01*
X34961703Y9340380D01*
X34961703Y9340380D01*
G37*
G36*
X24989890Y11275983D02*
X25108361Y11226911D01*
X25108364Y11226909D01*
X25210009Y11158992D01*
X25214992Y11155662D01*
X25305662Y11064992D01*
X25305664Y11064989D01*
X25305665Y11064988D01*
X25339320Y11014620D01*
X25376911Y10958361D01*
X25425983Y10839890D01*
X25451000Y10714119D01*
X25451000Y10585881D01*
X25425983Y10460110D01*
X25376911Y10341639D01*
X25305662Y10235008D01*
X25214992Y10144338D01*
X25214989Y10144336D01*
X25214988Y10144335D01*
X25162951Y10109565D01*
X25108361Y10073089D01*
X24989890Y10024017D01*
X24864119Y9999000D01*
X24735881Y9999000D01*
X24610110Y10024017D01*
X24491639Y10073089D01*
X24437049Y10109565D01*
X24385012Y10144335D01*
X24385011Y10144336D01*
X24385008Y10144338D01*
X24294338Y10235008D01*
X24223089Y10341639D01*
X24174017Y10460110D01*
X24149000Y10585881D01*
X24149000Y10714119D01*
X24174017Y10839890D01*
X24223089Y10958361D01*
X24260680Y11014620D01*
X24294335Y11064988D01*
X24294336Y11064989D01*
X24294338Y11064992D01*
X24385008Y11155662D01*
X24389992Y11158992D01*
X24491636Y11226909D01*
X24491639Y11226911D01*
X24610110Y11275983D01*
X24735881Y11301000D01*
X24864119Y11301000D01*
X24989890Y11275983D01*
X24989890Y11275983D01*
G37*
G36*
X31989890Y11375983D02*
X32108361Y11326911D01*
X32108364Y11326909D01*
X32205675Y11261888D01*
X32214992Y11255662D01*
X32305662Y11164992D01*
X32305664Y11164989D01*
X32305665Y11164988D01*
X32339655Y11114118D01*
X32376911Y11058361D01*
X32425983Y10939890D01*
X32451000Y10814119D01*
X32451000Y10685881D01*
X32425983Y10560110D01*
X32376911Y10441639D01*
X32305662Y10335008D01*
X32214992Y10244338D01*
X32214989Y10244336D01*
X32214988Y10244335D01*
X32144477Y10197221D01*
X32108361Y10173089D01*
X31989890Y10124017D01*
X31864119Y10099000D01*
X31735881Y10099000D01*
X31610110Y10124017D01*
X31491639Y10173089D01*
X31455523Y10197221D01*
X31385012Y10244335D01*
X31385011Y10244336D01*
X31385008Y10244338D01*
X31294338Y10335008D01*
X31223089Y10441639D01*
X31174017Y10560110D01*
X31149000Y10685881D01*
X31149000Y10814119D01*
X31174017Y10939890D01*
X31223089Y11058361D01*
X31260345Y11114118D01*
X31294335Y11164988D01*
X31294336Y11164989D01*
X31294338Y11164992D01*
X31385008Y11255662D01*
X31394326Y11261888D01*
X31491636Y11326909D01*
X31491639Y11326911D01*
X31610110Y11375983D01*
X31735881Y11401000D01*
X31864119Y11401000D01*
X31989890Y11375983D01*
X31989890Y11375983D01*
G37*
G36*
X23534466Y11177435D02*
X23573137Y11165704D01*
X23608779Y11146652D01*
X23640017Y11121017D01*
X23665652Y11089779D01*
X23684704Y11054137D01*
X23696435Y11015466D01*
X23701000Y10969112D01*
X23701000Y10317888D01*
X23696435Y10271534D01*
X23684704Y10232863D01*
X23665652Y10197221D01*
X23640017Y10165983D01*
X23608779Y10140348D01*
X23573137Y10121296D01*
X23534466Y10109565D01*
X23488112Y10105000D01*
X22411888Y10105000D01*
X22365534Y10109565D01*
X22326863Y10121296D01*
X22291221Y10140348D01*
X22259983Y10165983D01*
X22234348Y10197221D01*
X22215296Y10232863D01*
X22203565Y10271534D01*
X22199000Y10317888D01*
X22199000Y10969112D01*
X22203565Y11015466D01*
X22215296Y11054137D01*
X22234348Y11089779D01*
X22259983Y11121017D01*
X22291221Y11146652D01*
X22326863Y11165704D01*
X22365534Y11177435D01*
X22411888Y11182000D01*
X23488112Y11182000D01*
X23534466Y11177435D01*
X23534466Y11177435D01*
G37*
G36*
X16185217Y10291626D02*
X14533217Y10291626D01*
X14533217Y10993626D01*
X16185217Y10993626D01*
X16185217Y10291626D01*
X16185217Y10291626D01*
G37*
G36*
X21585217Y10291626D02*
X19933217Y10291626D01*
X19933217Y10993626D01*
X21585217Y10993626D01*
X21585217Y10291626D01*
X21585217Y10291626D01*
G37*
G36*
X27089890Y11675983D02*
X27208361Y11626911D01*
X27208364Y11626909D01*
X27231261Y11611610D01*
X27314992Y11555662D01*
X27405662Y11464992D01*
X27476911Y11358361D01*
X27525983Y11239890D01*
X27551000Y11114119D01*
X27551000Y10985881D01*
X27525983Y10860110D01*
X27476911Y10741639D01*
X27476909Y10741636D01*
X27439655Y10685881D01*
X27405662Y10635008D01*
X27314992Y10544338D01*
X27208361Y10473089D01*
X27089890Y10424017D01*
X26964119Y10399000D01*
X26835881Y10399000D01*
X26710110Y10424017D01*
X26591639Y10473089D01*
X26485008Y10544338D01*
X26394338Y10635008D01*
X26360346Y10685881D01*
X26323091Y10741636D01*
X26323089Y10741639D01*
X26274017Y10860110D01*
X26249000Y10985881D01*
X26249000Y11114119D01*
X26274017Y11239890D01*
X26323089Y11358361D01*
X26394338Y11464992D01*
X26485008Y11555662D01*
X26568740Y11611610D01*
X26591636Y11626909D01*
X26591639Y11626911D01*
X26710110Y11675983D01*
X26835881Y11701000D01*
X26964119Y11701000D01*
X27089890Y11675983D01*
X27089890Y11675983D01*
G37*
G36*
X8738039Y12431539D02*
X8801331Y12412339D01*
X8859665Y12381159D01*
X8910791Y12339200D01*
X8952750Y12288074D01*
X8983930Y12229740D01*
X9003130Y12166448D01*
X9010217Y12094487D01*
X9010217Y11180765D01*
X9003130Y11108804D01*
X8983930Y11045512D01*
X8952750Y10987178D01*
X8910791Y10936052D01*
X8859665Y10894093D01*
X8801331Y10862913D01*
X8738039Y10843713D01*
X8666078Y10836626D01*
X1752356Y10836626D01*
X1680395Y10843713D01*
X1617103Y10862913D01*
X1558769Y10894093D01*
X1507643Y10936052D01*
X1465684Y10987178D01*
X1434504Y11045512D01*
X1415304Y11108804D01*
X1408217Y11180765D01*
X1408217Y12094487D01*
X1415304Y12166448D01*
X1434504Y12229740D01*
X1465684Y12288074D01*
X1507643Y12339200D01*
X1558769Y12381159D01*
X1617103Y12412339D01*
X1680395Y12431539D01*
X1752356Y12438626D01*
X8666078Y12438626D01*
X8738039Y12431539D01*
X8738039Y12431539D01*
G37*
G36*
X10834466Y12546435D02*
X10873137Y12534704D01*
X10908779Y12515652D01*
X10940017Y12490017D01*
X10965652Y12458779D01*
X10984704Y12423137D01*
X10996435Y12384466D01*
X11001000Y12338112D01*
X11001000Y11261888D01*
X10996435Y11215534D01*
X10984704Y11176863D01*
X10965652Y11141221D01*
X10940017Y11109983D01*
X10908779Y11084348D01*
X10873137Y11065296D01*
X10834466Y11053565D01*
X10788112Y11049000D01*
X10136888Y11049000D01*
X10090534Y11053565D01*
X10051863Y11065296D01*
X10016221Y11084348D01*
X9984983Y11109983D01*
X9959348Y11141221D01*
X9940296Y11176863D01*
X9928565Y11215534D01*
X9924000Y11261888D01*
X9924000Y12338112D01*
X9928565Y12384466D01*
X9940296Y12423137D01*
X9959348Y12458779D01*
X9984983Y12490017D01*
X10016221Y12515652D01*
X10051863Y12534704D01*
X10090534Y12546435D01*
X10136888Y12551000D01*
X10788112Y12551000D01*
X10834466Y12546435D01*
X10834466Y12546435D01*
G37*
G36*
X12709466Y12546435D02*
X12748137Y12534704D01*
X12783779Y12515652D01*
X12815017Y12490017D01*
X12840652Y12458779D01*
X12859704Y12423137D01*
X12871435Y12384466D01*
X12876000Y12338112D01*
X12876000Y12140545D01*
X12878402Y12116159D01*
X12885515Y12092710D01*
X12897066Y12071099D01*
X12912612Y12052157D01*
X12931554Y12036611D01*
X12953165Y12025060D01*
X12976614Y12017947D01*
X13001000Y12015545D01*
X13025386Y12017947D01*
X13048835Y12025060D01*
X13070446Y12036611D01*
X13089388Y12052157D01*
X13104934Y12071099D01*
X13116485Y12092710D01*
X13123589Y12109861D01*
X13143654Y12139890D01*
X13194835Y12216488D01*
X13194836Y12216489D01*
X13194838Y12216492D01*
X13285508Y12307162D01*
X13306700Y12321322D01*
X13392136Y12378409D01*
X13392139Y12378411D01*
X13510610Y12427483D01*
X13636381Y12452500D01*
X13764619Y12452500D01*
X13890390Y12427483D01*
X14008861Y12378411D01*
X14008864Y12378409D01*
X14094301Y12321322D01*
X14115492Y12307162D01*
X14206162Y12216492D01*
X14206164Y12216489D01*
X14206165Y12216488D01*
X14257346Y12139890D01*
X14277411Y12109861D01*
X14326483Y11991390D01*
X14351500Y11865619D01*
X14351500Y11737381D01*
X14326483Y11611610D01*
X14277411Y11493139D01*
X14277409Y11493136D01*
X14215846Y11401000D01*
X14206162Y11386508D01*
X14115492Y11295838D01*
X14115489Y11295836D01*
X14115488Y11295835D01*
X14027624Y11237126D01*
X14008861Y11224589D01*
X13890390Y11175517D01*
X13764619Y11150500D01*
X13636381Y11150500D01*
X13510610Y11175517D01*
X13392139Y11224589D01*
X13373376Y11237126D01*
X13285512Y11295835D01*
X13285511Y11295836D01*
X13285508Y11295838D01*
X13194838Y11386508D01*
X13185155Y11401000D01*
X13123591Y11493136D01*
X13123589Y11493139D01*
X13116485Y11510290D01*
X13104934Y11531901D01*
X13089389Y11550843D01*
X13070447Y11566388D01*
X13048836Y11577940D01*
X13025387Y11585053D01*
X13001000Y11587455D01*
X12976614Y11585053D01*
X12953165Y11577940D01*
X12931554Y11566389D01*
X12912612Y11550844D01*
X12897067Y11531902D01*
X12885515Y11510291D01*
X12878402Y11486842D01*
X12876000Y11462455D01*
X12876000Y11261888D01*
X12871435Y11215534D01*
X12859704Y11176863D01*
X12840652Y11141221D01*
X12815017Y11109983D01*
X12783779Y11084348D01*
X12748137Y11065296D01*
X12709466Y11053565D01*
X12663112Y11049000D01*
X12011888Y11049000D01*
X11965534Y11053565D01*
X11926863Y11065296D01*
X11891221Y11084348D01*
X11859983Y11109983D01*
X11834348Y11141221D01*
X11815296Y11176863D01*
X11803565Y11215534D01*
X11799000Y11261888D01*
X11799000Y12338112D01*
X11803565Y12384466D01*
X11815296Y12423137D01*
X11834348Y12458779D01*
X11859983Y12490017D01*
X11891221Y12515652D01*
X11926863Y12534704D01*
X11965534Y12546435D01*
X12011888Y12551000D01*
X12663112Y12551000D01*
X12709466Y12546435D01*
X12709466Y12546435D01*
G37*
G36*
X34934466Y12746435D02*
X34973137Y12734704D01*
X35008779Y12715652D01*
X35040017Y12690017D01*
X35065652Y12658779D01*
X35084704Y12623137D01*
X35096435Y12584466D01*
X35101000Y12538112D01*
X35101000Y11461888D01*
X35096435Y11415534D01*
X35084704Y11376863D01*
X35065652Y11341221D01*
X35040017Y11309983D01*
X35008779Y11284348D01*
X34973137Y11265296D01*
X34934466Y11253565D01*
X34888112Y11249000D01*
X34236888Y11249000D01*
X34190534Y11253565D01*
X34151863Y11265296D01*
X34116221Y11284348D01*
X34084983Y11309983D01*
X34059348Y11341221D01*
X34040296Y11376863D01*
X34028565Y11415534D01*
X34024000Y11461888D01*
X34024000Y12538112D01*
X34028565Y12584466D01*
X34040296Y12623137D01*
X34059348Y12658779D01*
X34084983Y12690017D01*
X34116221Y12715652D01*
X34151863Y12734704D01*
X34190534Y12746435D01*
X34236888Y12751000D01*
X34888112Y12751000D01*
X34934466Y12746435D01*
X34934466Y12746435D01*
G37*
G36*
X36809466Y12746435D02*
X36848137Y12734704D01*
X36883779Y12715652D01*
X36915017Y12690017D01*
X36940653Y12658779D01*
X36946033Y12648714D01*
X36959647Y12628340D01*
X36976975Y12611013D01*
X36997350Y12597400D01*
X37019989Y12588023D01*
X37044022Y12583243D01*
X37080658Y12585043D01*
X37160881Y12601000D01*
X37289119Y12601000D01*
X37414890Y12575983D01*
X37533361Y12526911D01*
X37533364Y12526909D01*
X37635328Y12458779D01*
X37639992Y12455662D01*
X37730662Y12364992D01*
X37801911Y12258361D01*
X37850983Y12139890D01*
X37876000Y12014119D01*
X37876000Y11885881D01*
X37850983Y11760110D01*
X37801911Y11641639D01*
X37801909Y11641636D01*
X37741244Y11550844D01*
X37730662Y11535008D01*
X37639992Y11444338D01*
X37533361Y11373089D01*
X37414890Y11324017D01*
X37289119Y11299000D01*
X37160881Y11299000D01*
X37124465Y11306244D01*
X37035110Y11324017D01*
X37035108Y11324018D01*
X37034293Y11324180D01*
X37012428Y11330811D01*
X36988042Y11333212D01*
X36963656Y11330809D01*
X36940207Y11323695D01*
X36908749Y11304839D01*
X36883779Y11284348D01*
X36848137Y11265296D01*
X36809466Y11253565D01*
X36763112Y11249000D01*
X36111888Y11249000D01*
X36065534Y11253565D01*
X36026863Y11265296D01*
X35991221Y11284348D01*
X35959983Y11309983D01*
X35934348Y11341221D01*
X35915296Y11376863D01*
X35903565Y11415534D01*
X35899000Y11461888D01*
X35899000Y12538112D01*
X35903565Y12584466D01*
X35915296Y12623137D01*
X35934348Y12658779D01*
X35959983Y12690017D01*
X35991221Y12715652D01*
X36026863Y12734704D01*
X36065534Y12746435D01*
X36111888Y12751000D01*
X36763112Y12751000D01*
X36809466Y12746435D01*
X36809466Y12746435D01*
G37*
G36*
X29066890Y12575983D02*
X29185361Y12526911D01*
X29185364Y12526909D01*
X29287328Y12458779D01*
X29291992Y12455662D01*
X29382662Y12364992D01*
X29453911Y12258361D01*
X29502983Y12139890D01*
X29528000Y12014119D01*
X29528000Y11885881D01*
X29502983Y11760110D01*
X29453911Y11641639D01*
X29453909Y11641636D01*
X29393244Y11550844D01*
X29382662Y11535008D01*
X29291992Y11444338D01*
X29185361Y11373089D01*
X29066890Y11324017D01*
X28941119Y11299000D01*
X28812881Y11299000D01*
X28687110Y11324017D01*
X28568639Y11373089D01*
X28462008Y11444338D01*
X28371338Y11535008D01*
X28360757Y11550844D01*
X28300091Y11641636D01*
X28300089Y11641639D01*
X28251017Y11760110D01*
X28226000Y11885881D01*
X28226000Y12014119D01*
X28251017Y12139890D01*
X28300089Y12258361D01*
X28371338Y12364992D01*
X28462008Y12455662D01*
X28466673Y12458779D01*
X28568636Y12526909D01*
X28568639Y12526911D01*
X28687110Y12575983D01*
X28812881Y12601000D01*
X28941119Y12601000D01*
X29066890Y12575983D01*
X29066890Y12575983D01*
G37*
G36*
X22155000Y12623000D02*
X21153000Y12623000D01*
X21153000Y13525000D01*
X22155000Y13525000D01*
X22155000Y12623000D01*
X22155000Y12623000D01*
G37*
G36*
X15745466Y13808935D02*
X15784137Y13797204D01*
X15819779Y13778152D01*
X15851017Y13752517D01*
X15876652Y13721279D01*
X15895704Y13685637D01*
X15907435Y13646966D01*
X15912000Y13600612D01*
X15912000Y12949388D01*
X15907435Y12903034D01*
X15895704Y12864363D01*
X15876652Y12828721D01*
X15851017Y12797483D01*
X15819779Y12771848D01*
X15784137Y12752796D01*
X15745466Y12741065D01*
X15699112Y12736500D01*
X14622888Y12736500D01*
X14576534Y12741065D01*
X14537863Y12752796D01*
X14502221Y12771848D01*
X14470983Y12797483D01*
X14445348Y12828721D01*
X14426296Y12864363D01*
X14414565Y12903034D01*
X14410000Y12949388D01*
X14410000Y13600612D01*
X14414565Y13646966D01*
X14426296Y13685637D01*
X14445348Y13721279D01*
X14470983Y13752517D01*
X14502221Y13778152D01*
X14537863Y13797204D01*
X14576534Y13808935D01*
X14622888Y13813500D01*
X15699112Y13813500D01*
X15745466Y13808935D01*
X15745466Y13808935D01*
G37*
G36*
X28310466Y13837815D02*
X28349137Y13826084D01*
X28384779Y13807032D01*
X28416017Y13781397D01*
X28441652Y13750159D01*
X28460704Y13714517D01*
X28472435Y13675846D01*
X28477000Y13629492D01*
X28477000Y12978268D01*
X28472435Y12931914D01*
X28460704Y12893243D01*
X28441652Y12857601D01*
X28416017Y12826363D01*
X28384779Y12800728D01*
X28349137Y12781676D01*
X28310466Y12769945D01*
X28264112Y12765380D01*
X27187888Y12765380D01*
X27141534Y12769945D01*
X27102863Y12781676D01*
X27067221Y12800728D01*
X27035983Y12826363D01*
X27010348Y12857601D01*
X26991296Y12893243D01*
X26979565Y12931914D01*
X26975000Y12978268D01*
X26975000Y13629492D01*
X26979565Y13675846D01*
X26991296Y13714517D01*
X27010348Y13750159D01*
X27035983Y13781397D01*
X27067221Y13807032D01*
X27102863Y13826084D01*
X27141534Y13837815D01*
X27187888Y13842380D01*
X28264112Y13842380D01*
X28310466Y13837815D01*
X28310466Y13837815D01*
G37*
G36*
X18159466Y13837815D02*
X18198137Y13826084D01*
X18233779Y13807032D01*
X18265017Y13781397D01*
X18290652Y13750159D01*
X18309704Y13714517D01*
X18321435Y13675846D01*
X18326000Y13629492D01*
X18326000Y12978268D01*
X18321435Y12931914D01*
X18309704Y12893243D01*
X18290652Y12857601D01*
X18265017Y12826363D01*
X18233779Y12800728D01*
X18198137Y12781676D01*
X18159466Y12769945D01*
X18113112Y12765380D01*
X17036888Y12765380D01*
X16990534Y12769945D01*
X16951863Y12781676D01*
X16916221Y12800728D01*
X16884983Y12826363D01*
X16859348Y12857601D01*
X16840296Y12893243D01*
X16828565Y12931914D01*
X16824000Y12978268D01*
X16824000Y13629492D01*
X16828565Y13675846D01*
X16840296Y13714517D01*
X16859348Y13750159D01*
X16884983Y13781397D01*
X16916221Y13807032D01*
X16951863Y13826084D01*
X16990534Y13837815D01*
X17036888Y13842380D01*
X18113112Y13842380D01*
X18159466Y13837815D01*
X18159466Y13837815D01*
G37*
G36*
X20109466Y13837815D02*
X20148137Y13826084D01*
X20183779Y13807032D01*
X20215017Y13781397D01*
X20240652Y13750159D01*
X20259704Y13714517D01*
X20271435Y13675846D01*
X20276000Y13629492D01*
X20276000Y12978268D01*
X20271435Y12931914D01*
X20259704Y12893243D01*
X20240652Y12857601D01*
X20215017Y12826363D01*
X20183779Y12800728D01*
X20148137Y12781676D01*
X20109466Y12769945D01*
X20063112Y12765380D01*
X18986888Y12765380D01*
X18940534Y12769945D01*
X18901863Y12781676D01*
X18866221Y12800728D01*
X18834983Y12826363D01*
X18809348Y12857601D01*
X18790296Y12893243D01*
X18778565Y12931914D01*
X18774000Y12978268D01*
X18774000Y13629492D01*
X18778565Y13675846D01*
X18790296Y13714517D01*
X18809348Y13750159D01*
X18834983Y13781397D01*
X18866221Y13807032D01*
X18901863Y13826084D01*
X18940534Y13837815D01*
X18986888Y13842380D01*
X20063112Y13842380D01*
X20109466Y13837815D01*
X20109466Y13837815D01*
G37*
G36*
X26360466Y13837815D02*
X26399137Y13826084D01*
X26434779Y13807032D01*
X26466017Y13781397D01*
X26491652Y13750159D01*
X26510704Y13714517D01*
X26522435Y13675846D01*
X26527000Y13629492D01*
X26527000Y12978268D01*
X26522435Y12931914D01*
X26510704Y12893243D01*
X26491652Y12857601D01*
X26466017Y12826363D01*
X26434779Y12800728D01*
X26399137Y12781676D01*
X26360466Y12769945D01*
X26314112Y12765380D01*
X25237888Y12765380D01*
X25191534Y12769945D01*
X25152863Y12781676D01*
X25117221Y12800728D01*
X25085983Y12826363D01*
X25060348Y12857601D01*
X25041296Y12893243D01*
X25029565Y12931914D01*
X25025000Y12978268D01*
X25025000Y13629492D01*
X25029565Y13675846D01*
X25041296Y13714517D01*
X25060348Y13750159D01*
X25085983Y13781397D01*
X25117221Y13807032D01*
X25152863Y13826084D01*
X25191534Y13837815D01*
X25237888Y13842380D01*
X26314112Y13842380D01*
X26360466Y13837815D01*
X26360466Y13837815D01*
G37*
G36*
X34940169Y14237815D02*
X34978840Y14226084D01*
X35014482Y14207032D01*
X35045720Y14181397D01*
X35071355Y14150159D01*
X35090407Y14114517D01*
X35102138Y14075846D01*
X35106703Y14029492D01*
X35106703Y13378268D01*
X35102138Y13331914D01*
X35090407Y13293243D01*
X35071355Y13257601D01*
X35045720Y13226363D01*
X35014482Y13200728D01*
X34978840Y13181676D01*
X34940169Y13169945D01*
X34893815Y13165380D01*
X33817591Y13165380D01*
X33771237Y13169945D01*
X33732566Y13181676D01*
X33696924Y13200728D01*
X33665686Y13226363D01*
X33640051Y13257601D01*
X33620999Y13293243D01*
X33609268Y13331914D01*
X33604703Y13378268D01*
X33604703Y14029492D01*
X33609268Y14075846D01*
X33620999Y14114517D01*
X33640051Y14150159D01*
X33665686Y14181397D01*
X33696924Y14207032D01*
X33732566Y14226084D01*
X33771237Y14237815D01*
X33817591Y14242380D01*
X34893815Y14242380D01*
X34940169Y14237815D01*
X34940169Y14237815D01*
G37*
G36*
X32940169Y14237815D02*
X32978840Y14226084D01*
X33014482Y14207032D01*
X33045720Y14181397D01*
X33071355Y14150159D01*
X33090407Y14114517D01*
X33102138Y14075846D01*
X33106703Y14029492D01*
X33106703Y13378268D01*
X33102138Y13331914D01*
X33090407Y13293243D01*
X33071355Y13257601D01*
X33045720Y13226363D01*
X33014482Y13200728D01*
X32978840Y13181676D01*
X32940169Y13169945D01*
X32893815Y13165380D01*
X31817591Y13165380D01*
X31771237Y13169945D01*
X31732566Y13181676D01*
X31696924Y13200728D01*
X31665686Y13226363D01*
X31640051Y13257601D01*
X31620999Y13293243D01*
X31609268Y13331914D01*
X31604703Y13378268D01*
X31604703Y14029492D01*
X31609268Y14075846D01*
X31620999Y14114517D01*
X31640051Y14150159D01*
X31665686Y14181397D01*
X31696924Y14207032D01*
X31732566Y14226084D01*
X31771237Y14237815D01*
X31817591Y14242380D01*
X32893815Y14242380D01*
X32940169Y14237815D01*
X32940169Y14237815D01*
G37*
G36*
X36940169Y14237815D02*
X36978840Y14226084D01*
X37014482Y14207032D01*
X37045720Y14181397D01*
X37071355Y14150159D01*
X37090407Y14114517D01*
X37102138Y14075846D01*
X37106703Y14029492D01*
X37106703Y13378268D01*
X37102138Y13331914D01*
X37090407Y13293243D01*
X37071355Y13257601D01*
X37045720Y13226363D01*
X37014482Y13200728D01*
X36978840Y13181676D01*
X36940169Y13169945D01*
X36893815Y13165380D01*
X35817591Y13165380D01*
X35771237Y13169945D01*
X35732566Y13181676D01*
X35696924Y13200728D01*
X35665686Y13226363D01*
X35640051Y13257601D01*
X35620999Y13293243D01*
X35609268Y13331914D01*
X35604703Y13378268D01*
X35604703Y14029492D01*
X35609268Y14075846D01*
X35620999Y14114517D01*
X35640051Y14150159D01*
X35665686Y14181397D01*
X35696924Y14207032D01*
X35732566Y14226084D01*
X35771237Y14237815D01*
X35817591Y14242380D01*
X36893815Y14242380D01*
X36940169Y14237815D01*
X36940169Y14237815D01*
G37*
G36*
X8657545Y15189617D02*
X8739603Y15164725D01*
X8815222Y15124305D01*
X8881502Y15069911D01*
X8935896Y15003631D01*
X8976316Y14928012D01*
X9001208Y14845954D01*
X9010217Y14754486D01*
X9010217Y13640766D01*
X9001208Y13549298D01*
X8976316Y13467240D01*
X8935896Y13391621D01*
X8881502Y13325341D01*
X8815222Y13270947D01*
X8739603Y13230527D01*
X8657545Y13205635D01*
X8566077Y13196626D01*
X1352357Y13196626D01*
X1260889Y13205635D01*
X1178831Y13230527D01*
X1103212Y13270947D01*
X1036932Y13325341D01*
X982538Y13391621D01*
X942118Y13467240D01*
X917226Y13549298D01*
X908217Y13640766D01*
X908217Y14754486D01*
X917226Y14845954D01*
X942118Y14928012D01*
X982538Y15003631D01*
X1036932Y15069911D01*
X1103212Y15124305D01*
X1178831Y15164725D01*
X1260889Y15189617D01*
X1352357Y15198626D01*
X8566077Y15198626D01*
X8657545Y15189617D01*
X8657545Y15189617D01*
G37*
G36*
X24155000Y13573000D02*
X23153000Y13573000D01*
X23153000Y14475000D01*
X24155000Y14475000D01*
X24155000Y13573000D01*
X24155000Y13573000D01*
G37*
G36*
X13801000Y14474000D02*
X12599000Y14474000D01*
X12599000Y15676000D01*
X13801000Y15676000D01*
X13801000Y14474000D01*
X13801000Y14474000D01*
G37*
G36*
X11001000Y14474000D02*
X9799000Y14474000D01*
X9799000Y15676000D01*
X11001000Y15676000D01*
X11001000Y14474000D01*
X11001000Y14474000D01*
G37*
G36*
X22155000Y14523000D02*
X21153000Y14523000D01*
X21153000Y15425000D01*
X22155000Y15425000D01*
X22155000Y14523000D01*
X22155000Y14523000D01*
G37*
G36*
X15745466Y15683935D02*
X15784137Y15672204D01*
X15819779Y15653152D01*
X15851017Y15627517D01*
X15876652Y15596279D01*
X15895704Y15560637D01*
X15907435Y15521966D01*
X15912000Y15475612D01*
X15912000Y14824388D01*
X15907435Y14778034D01*
X15895704Y14739363D01*
X15876652Y14703721D01*
X15851017Y14672483D01*
X15819779Y14646848D01*
X15784137Y14627796D01*
X15745466Y14616065D01*
X15699112Y14611500D01*
X14622888Y14611500D01*
X14576534Y14616065D01*
X14537863Y14627796D01*
X14502221Y14646848D01*
X14470983Y14672483D01*
X14445348Y14703721D01*
X14426296Y14739363D01*
X14414565Y14778034D01*
X14410000Y14824388D01*
X14410000Y15475612D01*
X14414565Y15521966D01*
X14426296Y15560637D01*
X14445348Y15596279D01*
X14470983Y15627517D01*
X14502221Y15653152D01*
X14537863Y15672204D01*
X14576534Y15683935D01*
X14622888Y15688500D01*
X15699112Y15688500D01*
X15745466Y15683935D01*
X15745466Y15683935D01*
G37*
G36*
X20109466Y15712815D02*
X20148137Y15701084D01*
X20183779Y15682032D01*
X20215017Y15656397D01*
X20240652Y15625159D01*
X20259704Y15589517D01*
X20271435Y15550846D01*
X20276000Y15504492D01*
X20276000Y14853268D01*
X20271435Y14806914D01*
X20259704Y14768243D01*
X20240652Y14732601D01*
X20215017Y14701363D01*
X20183779Y14675728D01*
X20148137Y14656676D01*
X20109466Y14644945D01*
X20063112Y14640380D01*
X18986888Y14640380D01*
X18940534Y14644945D01*
X18901863Y14656676D01*
X18866221Y14675728D01*
X18834983Y14701363D01*
X18809348Y14732601D01*
X18790296Y14768243D01*
X18778565Y14806914D01*
X18774000Y14853268D01*
X18774000Y15504492D01*
X18778565Y15550846D01*
X18790296Y15589517D01*
X18809348Y15625159D01*
X18834983Y15656397D01*
X18866221Y15682032D01*
X18901863Y15701084D01*
X18940534Y15712815D01*
X18986888Y15717380D01*
X20063112Y15717380D01*
X20109466Y15712815D01*
X20109466Y15712815D01*
G37*
G36*
X26360466Y15712815D02*
X26399137Y15701084D01*
X26434779Y15682032D01*
X26466017Y15656397D01*
X26491652Y15625159D01*
X26510704Y15589517D01*
X26522435Y15550846D01*
X26527000Y15504492D01*
X26527000Y14853268D01*
X26522435Y14806914D01*
X26510704Y14768243D01*
X26491652Y14732601D01*
X26466017Y14701363D01*
X26434779Y14675728D01*
X26399137Y14656676D01*
X26360466Y14644945D01*
X26314112Y14640380D01*
X25237888Y14640380D01*
X25191534Y14644945D01*
X25152863Y14656676D01*
X25117221Y14675728D01*
X25085983Y14701363D01*
X25060348Y14732601D01*
X25041296Y14768243D01*
X25029565Y14806914D01*
X25025000Y14853268D01*
X25025000Y15504492D01*
X25029565Y15550846D01*
X25041296Y15589517D01*
X25060348Y15625159D01*
X25085983Y15656397D01*
X25117221Y15682032D01*
X25152863Y15701084D01*
X25191534Y15712815D01*
X25237888Y15717380D01*
X26314112Y15717380D01*
X26360466Y15712815D01*
X26360466Y15712815D01*
G37*
G36*
X28310466Y15712815D02*
X28349137Y15701084D01*
X28384779Y15682032D01*
X28416017Y15656397D01*
X28441652Y15625159D01*
X28460704Y15589517D01*
X28472435Y15550846D01*
X28477000Y15504492D01*
X28477000Y14853268D01*
X28472435Y14806914D01*
X28460704Y14768243D01*
X28441652Y14732601D01*
X28416017Y14701363D01*
X28384779Y14675728D01*
X28349137Y14656676D01*
X28310466Y14644945D01*
X28264112Y14640380D01*
X27187888Y14640380D01*
X27141534Y14644945D01*
X27102863Y14656676D01*
X27067221Y14675728D01*
X27035983Y14701363D01*
X27010348Y14732601D01*
X26991296Y14768243D01*
X26979565Y14806914D01*
X26975000Y14853268D01*
X26975000Y15504492D01*
X26979565Y15550846D01*
X26991296Y15589517D01*
X27010348Y15625159D01*
X27035983Y15656397D01*
X27067221Y15682032D01*
X27102863Y15701084D01*
X27141534Y15712815D01*
X27187888Y15717380D01*
X28264112Y15717380D01*
X28310466Y15712815D01*
X28310466Y15712815D01*
G37*
G36*
X18159466Y15712815D02*
X18198137Y15701084D01*
X18233779Y15682032D01*
X18265017Y15656397D01*
X18290652Y15625159D01*
X18309704Y15589517D01*
X18321435Y15550846D01*
X18326000Y15504492D01*
X18326000Y14853268D01*
X18321435Y14806914D01*
X18309704Y14768243D01*
X18290652Y14732601D01*
X18265017Y14701363D01*
X18233779Y14675728D01*
X18198137Y14656676D01*
X18159466Y14644945D01*
X18113112Y14640380D01*
X17036888Y14640380D01*
X16990534Y14644945D01*
X16951863Y14656676D01*
X16916221Y14675728D01*
X16884983Y14701363D01*
X16859348Y14732601D01*
X16840296Y14768243D01*
X16828565Y14806914D01*
X16824000Y14853268D01*
X16824000Y15504492D01*
X16828565Y15550846D01*
X16840296Y15589517D01*
X16859348Y15625159D01*
X16884983Y15656397D01*
X16916221Y15682032D01*
X16951863Y15701084D01*
X16990534Y15712815D01*
X17036888Y15717380D01*
X18113112Y15717380D01*
X18159466Y15712815D01*
X18159466Y15712815D01*
G37*
G36*
X36940169Y16112815D02*
X36978840Y16101084D01*
X37014482Y16082032D01*
X37045720Y16056397D01*
X37071355Y16025159D01*
X37090407Y15989517D01*
X37102138Y15950846D01*
X37106703Y15904492D01*
X37106703Y15253268D01*
X37102138Y15206914D01*
X37090407Y15168243D01*
X37071355Y15132601D01*
X37045720Y15101363D01*
X37014482Y15075728D01*
X36978840Y15056676D01*
X36940169Y15044945D01*
X36893815Y15040380D01*
X35817591Y15040380D01*
X35771237Y15044945D01*
X35732566Y15056676D01*
X35696924Y15075728D01*
X35665686Y15101363D01*
X35640051Y15132601D01*
X35620999Y15168243D01*
X35609268Y15206914D01*
X35604703Y15253268D01*
X35604703Y15904492D01*
X35609268Y15950846D01*
X35620999Y15989517D01*
X35640051Y16025159D01*
X35665686Y16056397D01*
X35696924Y16082032D01*
X35732566Y16101084D01*
X35771237Y16112815D01*
X35817591Y16117380D01*
X36893815Y16117380D01*
X36940169Y16112815D01*
X36940169Y16112815D01*
G37*
G36*
X32940169Y16112815D02*
X32978840Y16101084D01*
X33014482Y16082032D01*
X33045720Y16056397D01*
X33071355Y16025159D01*
X33090407Y15989517D01*
X33102138Y15950846D01*
X33106703Y15904492D01*
X33106703Y15253268D01*
X33102138Y15206914D01*
X33090407Y15168243D01*
X33071355Y15132601D01*
X33045720Y15101363D01*
X33014482Y15075728D01*
X32978840Y15056676D01*
X32940169Y15044945D01*
X32893815Y15040380D01*
X31817591Y15040380D01*
X31771237Y15044945D01*
X31732566Y15056676D01*
X31696924Y15075728D01*
X31665686Y15101363D01*
X31640051Y15132601D01*
X31620999Y15168243D01*
X31609268Y15206914D01*
X31604703Y15253268D01*
X31604703Y15904492D01*
X31609268Y15950846D01*
X31620999Y15989517D01*
X31640051Y16025159D01*
X31665686Y16056397D01*
X31696924Y16082032D01*
X31732566Y16101084D01*
X31771237Y16112815D01*
X31817591Y16117380D01*
X32893815Y16117380D01*
X32940169Y16112815D01*
X32940169Y16112815D01*
G37*
G36*
X34940169Y16112815D02*
X34978840Y16101084D01*
X35014482Y16082032D01*
X35045720Y16056397D01*
X35071355Y16025159D01*
X35090407Y15989517D01*
X35102138Y15950846D01*
X35106703Y15904492D01*
X35106703Y15253268D01*
X35102138Y15206914D01*
X35090407Y15168243D01*
X35071355Y15132601D01*
X35045720Y15101363D01*
X35014482Y15075728D01*
X34978840Y15056676D01*
X34940169Y15044945D01*
X34893815Y15040380D01*
X33817591Y15040380D01*
X33771237Y15044945D01*
X33732566Y15056676D01*
X33696924Y15075728D01*
X33665686Y15101363D01*
X33640051Y15132601D01*
X33620999Y15168243D01*
X33609268Y15206914D01*
X33604703Y15253268D01*
X33604703Y15904492D01*
X33609268Y15950846D01*
X33620999Y15989517D01*
X33640051Y16025159D01*
X33665686Y16056397D01*
X33696924Y16082032D01*
X33732566Y16101084D01*
X33771237Y16112815D01*
X33817591Y16117380D01*
X34893815Y16117380D01*
X34940169Y16112815D01*
X34940169Y16112815D01*
G37*
G36*
X13616820Y19538687D02*
X13616823Y19538686D01*
X13616824Y19538686D01*
X13777238Y19490025D01*
X13777240Y19490024D01*
X13777243Y19490023D01*
X13925078Y19411005D01*
X14054659Y19304659D01*
X14161005Y19175078D01*
X14240023Y19027244D01*
X14240023Y19027243D01*
X14240025Y19027239D01*
X14261804Y18955442D01*
X14288687Y18866821D01*
X14301000Y18741804D01*
X14301000Y18258197D01*
X14288687Y18133180D01*
X14288686Y18133178D01*
X14288686Y18133175D01*
X14240025Y17972761D01*
X14240023Y17972756D01*
X14161005Y17824922D01*
X14054659Y17695341D01*
X13925078Y17588995D01*
X13766906Y17504451D01*
X13766708Y17504370D01*
X13766515Y17504242D01*
X13766382Y17504171D01*
X13766389Y17504158D01*
X13746280Y17490836D01*
X13728885Y17473577D01*
X13715191Y17453256D01*
X13705725Y17430654D01*
X13700850Y17406639D01*
X13700754Y17382135D01*
X13705440Y17358083D01*
X13714728Y17335408D01*
X13728262Y17314980D01*
X13745521Y17297585D01*
X13765842Y17283891D01*
X13788444Y17274425D01*
X13800813Y17271301D01*
X13863293Y17258873D01*
X13890390Y17253483D01*
X13924343Y17239419D01*
X14008861Y17204411D01*
X14115492Y17133162D01*
X14206162Y17042492D01*
X14206164Y17042489D01*
X14206165Y17042488D01*
X14277409Y16935864D01*
X14277411Y16935861D01*
X14326483Y16817390D01*
X14351500Y16691619D01*
X14351500Y16563381D01*
X14326483Y16437610D01*
X14277411Y16319139D01*
X14206162Y16212508D01*
X14115492Y16121838D01*
X14115489Y16121836D01*
X14115488Y16121835D01*
X14040909Y16072003D01*
X14008861Y16050589D01*
X13890390Y16001517D01*
X13764619Y15976500D01*
X13636381Y15976500D01*
X13510610Y16001517D01*
X13392139Y16050589D01*
X13360091Y16072003D01*
X13285512Y16121835D01*
X13285511Y16121836D01*
X13285508Y16121838D01*
X13194838Y16212508D01*
X13123589Y16319139D01*
X13074517Y16437610D01*
X13049500Y16563381D01*
X13049500Y16691619D01*
X13074517Y16817390D01*
X13123589Y16935861D01*
X13123591Y16935864D01*
X13194835Y17042488D01*
X13194836Y17042489D01*
X13194838Y17042492D01*
X13285508Y17133162D01*
X13392139Y17204411D01*
X13411238Y17212322D01*
X13432849Y17223873D01*
X13451791Y17239419D01*
X13467337Y17258361D01*
X13478888Y17279972D01*
X13486001Y17303421D01*
X13488403Y17327807D01*
X13486001Y17352193D01*
X13478888Y17375642D01*
X13467337Y17397253D01*
X13451791Y17416195D01*
X13432849Y17431741D01*
X13411238Y17443292D01*
X13387789Y17450405D01*
X13375655Y17452205D01*
X13283180Y17461313D01*
X13283177Y17461314D01*
X13283176Y17461314D01*
X13122762Y17509975D01*
X13122760Y17509976D01*
X13122757Y17509977D01*
X12974923Y17588995D01*
X12845344Y17695339D01*
X12738993Y17824926D01*
X12659977Y17972756D01*
X12611313Y18133179D01*
X12599000Y18258196D01*
X12599000Y18741803D01*
X12611313Y18866820D01*
X12611314Y18866824D01*
X12659975Y19027238D01*
X12659976Y19027240D01*
X12659977Y19027243D01*
X12738995Y19175078D01*
X12845341Y19304659D01*
X12974922Y19411005D01*
X13122756Y19490023D01*
X13122759Y19490024D01*
X13122761Y19490025D01*
X13283175Y19538686D01*
X13283176Y19538686D01*
X13283179Y19538687D01*
X13450000Y19555117D01*
X13616820Y19538687D01*
X13616820Y19538687D01*
G37*
G36*
X24327035Y19429930D02*
X24440322Y19395564D01*
X24544730Y19339757D01*
X24636244Y19264653D01*
X24711348Y19173139D01*
X24767155Y19068731D01*
X24801521Y18955444D01*
X24810217Y18867145D01*
X24810217Y17408107D01*
X24801521Y17319808D01*
X24767155Y17206521D01*
X24711348Y17102114D01*
X24711347Y17102113D01*
X24636244Y17010599D01*
X24594993Y16976746D01*
X24544729Y16935495D01*
X24440321Y16879688D01*
X24327034Y16845322D01*
X24209217Y16833719D01*
X24091399Y16845322D01*
X23978112Y16879688D01*
X23873705Y16935495D01*
X23859789Y16946915D01*
X23782190Y17010599D01*
X23748337Y17051850D01*
X23707086Y17102114D01*
X23651279Y17206522D01*
X23616913Y17319809D01*
X23608217Y17408108D01*
X23608218Y18867145D01*
X23616914Y18955444D01*
X23651280Y19068731D01*
X23707087Y19173139D01*
X23782191Y19264653D01*
X23873705Y19339757D01*
X23978113Y19395564D01*
X24091400Y19429930D01*
X24209217Y19441533D01*
X24327035Y19429930D01*
X24327035Y19429930D01*
G37*
G36*
X34327035Y19429930D02*
X34440322Y19395564D01*
X34544730Y19339757D01*
X34636244Y19264653D01*
X34711348Y19173139D01*
X34767155Y19068731D01*
X34801521Y18955444D01*
X34810217Y18867145D01*
X34810217Y17408107D01*
X34801521Y17319808D01*
X34767155Y17206521D01*
X34711348Y17102114D01*
X34711347Y17102113D01*
X34636244Y17010599D01*
X34594993Y16976746D01*
X34544729Y16935495D01*
X34440321Y16879688D01*
X34327034Y16845322D01*
X34209217Y16833719D01*
X34091399Y16845322D01*
X33978112Y16879688D01*
X33873705Y16935495D01*
X33859789Y16946915D01*
X33782190Y17010599D01*
X33748337Y17051850D01*
X33707086Y17102114D01*
X33651279Y17206522D01*
X33616913Y17319809D01*
X33608217Y17408108D01*
X33608218Y18867145D01*
X33616914Y18955444D01*
X33651280Y19068731D01*
X33707087Y19173139D01*
X33782191Y19264653D01*
X33873705Y19339757D01*
X33978113Y19395564D01*
X34091400Y19429930D01*
X34209217Y19441533D01*
X34327035Y19429930D01*
X34327035Y19429930D01*
G37*
G36*
X32327035Y19429930D02*
X32440322Y19395564D01*
X32544730Y19339757D01*
X32636244Y19264653D01*
X32711348Y19173139D01*
X32767155Y19068731D01*
X32801521Y18955444D01*
X32810217Y18867145D01*
X32810217Y17408107D01*
X32801521Y17319808D01*
X32767155Y17206521D01*
X32711348Y17102114D01*
X32711347Y17102113D01*
X32636244Y17010599D01*
X32594993Y16976746D01*
X32544729Y16935495D01*
X32440321Y16879688D01*
X32327034Y16845322D01*
X32209217Y16833719D01*
X32091399Y16845322D01*
X31978112Y16879688D01*
X31873705Y16935495D01*
X31859789Y16946915D01*
X31782190Y17010599D01*
X31748337Y17051850D01*
X31707086Y17102114D01*
X31651279Y17206522D01*
X31616913Y17319809D01*
X31608217Y17408108D01*
X31608218Y18867145D01*
X31616914Y18955444D01*
X31651280Y19068731D01*
X31707087Y19173139D01*
X31782191Y19264653D01*
X31873705Y19339757D01*
X31978113Y19395564D01*
X32091400Y19429930D01*
X32209217Y19441533D01*
X32327035Y19429930D01*
X32327035Y19429930D01*
G37*
G36*
X30327035Y19429930D02*
X30440322Y19395564D01*
X30544730Y19339757D01*
X30636244Y19264653D01*
X30711348Y19173139D01*
X30767155Y19068731D01*
X30801521Y18955444D01*
X30810217Y18867145D01*
X30810217Y17408107D01*
X30801521Y17319808D01*
X30767155Y17206521D01*
X30711348Y17102114D01*
X30711347Y17102113D01*
X30636244Y17010599D01*
X30594993Y16976746D01*
X30544729Y16935495D01*
X30440321Y16879688D01*
X30327034Y16845322D01*
X30209217Y16833719D01*
X30091399Y16845322D01*
X29978112Y16879688D01*
X29873705Y16935495D01*
X29859789Y16946915D01*
X29782190Y17010599D01*
X29748337Y17051850D01*
X29707086Y17102114D01*
X29651279Y17206522D01*
X29616913Y17319809D01*
X29608217Y17408108D01*
X29608218Y18867145D01*
X29616914Y18955444D01*
X29651280Y19068731D01*
X29707087Y19173139D01*
X29782191Y19264653D01*
X29873705Y19339757D01*
X29978113Y19395564D01*
X30091400Y19429930D01*
X30209217Y19441533D01*
X30327035Y19429930D01*
X30327035Y19429930D01*
G37*
G36*
X28327035Y19429930D02*
X28440322Y19395564D01*
X28544730Y19339757D01*
X28636244Y19264653D01*
X28711348Y19173139D01*
X28767155Y19068731D01*
X28801521Y18955444D01*
X28810217Y18867145D01*
X28810217Y17408107D01*
X28801521Y17319808D01*
X28767155Y17206521D01*
X28711348Y17102114D01*
X28711347Y17102113D01*
X28636244Y17010599D01*
X28594993Y16976746D01*
X28544729Y16935495D01*
X28440321Y16879688D01*
X28327034Y16845322D01*
X28209217Y16833719D01*
X28091399Y16845322D01*
X27978112Y16879688D01*
X27873705Y16935495D01*
X27859789Y16946915D01*
X27782190Y17010599D01*
X27748337Y17051850D01*
X27707086Y17102114D01*
X27651279Y17206522D01*
X27616913Y17319809D01*
X27608217Y17408108D01*
X27608218Y18867145D01*
X27616914Y18955444D01*
X27651280Y19068731D01*
X27707087Y19173139D01*
X27782191Y19264653D01*
X27873705Y19339757D01*
X27978113Y19395564D01*
X28091400Y19429930D01*
X28209217Y19441533D01*
X28327035Y19429930D01*
X28327035Y19429930D01*
G37*
G36*
X26327035Y19429930D02*
X26440322Y19395564D01*
X26544730Y19339757D01*
X26636244Y19264653D01*
X26711348Y19173139D01*
X26767155Y19068731D01*
X26801521Y18955444D01*
X26810217Y18867145D01*
X26810217Y17408107D01*
X26801521Y17319808D01*
X26767155Y17206521D01*
X26711348Y17102114D01*
X26711347Y17102113D01*
X26636244Y17010599D01*
X26594993Y16976746D01*
X26544729Y16935495D01*
X26440321Y16879688D01*
X26327034Y16845322D01*
X26209217Y16833719D01*
X26091399Y16845322D01*
X25978112Y16879688D01*
X25873705Y16935495D01*
X25859789Y16946915D01*
X25782190Y17010599D01*
X25748337Y17051850D01*
X25707086Y17102114D01*
X25651279Y17206522D01*
X25616913Y17319809D01*
X25608217Y17408108D01*
X25608218Y18867145D01*
X25616914Y18955444D01*
X25651280Y19068731D01*
X25707087Y19173139D01*
X25782191Y19264653D01*
X25873705Y19339757D01*
X25978113Y19395564D01*
X26091400Y19429930D01*
X26209217Y19441533D01*
X26327035Y19429930D01*
X26327035Y19429930D01*
G37*
G36*
X22327035Y19429930D02*
X22440322Y19395564D01*
X22544730Y19339757D01*
X22636244Y19264653D01*
X22711348Y19173139D01*
X22767155Y19068731D01*
X22801521Y18955444D01*
X22810217Y18867145D01*
X22810217Y17408107D01*
X22801521Y17319808D01*
X22767155Y17206521D01*
X22711348Y17102114D01*
X22711347Y17102113D01*
X22636244Y17010599D01*
X22594993Y16976746D01*
X22544729Y16935495D01*
X22440321Y16879688D01*
X22327034Y16845322D01*
X22209217Y16833719D01*
X22091399Y16845322D01*
X21978112Y16879688D01*
X21873705Y16935495D01*
X21859789Y16946915D01*
X21782190Y17010599D01*
X21748337Y17051850D01*
X21707086Y17102114D01*
X21651279Y17206522D01*
X21616913Y17319809D01*
X21608217Y17408108D01*
X21608218Y18867145D01*
X21616914Y18955444D01*
X21651280Y19068731D01*
X21707087Y19173139D01*
X21782191Y19264653D01*
X21873705Y19339757D01*
X21978113Y19395564D01*
X22091400Y19429930D01*
X22209217Y19441533D01*
X22327035Y19429930D01*
X22327035Y19429930D01*
G37*
G36*
X36810217Y16836626D02*
X35608217Y16836626D01*
X35608217Y19438626D01*
X36810217Y19438626D01*
X36810217Y16836626D01*
X36810217Y16836626D01*
G37*
G36*
X20216820Y19538687D02*
X20216823Y19538686D01*
X20216824Y19538686D01*
X20377238Y19490025D01*
X20377240Y19490024D01*
X20377243Y19490023D01*
X20525078Y19411005D01*
X20654659Y19304659D01*
X20761005Y19175078D01*
X20840023Y19027244D01*
X20840023Y19027243D01*
X20840025Y19027239D01*
X20861804Y18955442D01*
X20888687Y18866821D01*
X20901000Y18741804D01*
X20901000Y18258197D01*
X20888687Y18133180D01*
X20888686Y18133178D01*
X20888686Y18133175D01*
X20840025Y17972761D01*
X20840023Y17972756D01*
X20761005Y17824922D01*
X20654659Y17695341D01*
X20525078Y17588995D01*
X20377244Y17509977D01*
X20377241Y17509976D01*
X20377239Y17509975D01*
X20216825Y17461314D01*
X20216824Y17461314D01*
X20216821Y17461313D01*
X20050000Y17444883D01*
X19883180Y17461313D01*
X19883177Y17461314D01*
X19883176Y17461314D01*
X19722762Y17509975D01*
X19722760Y17509976D01*
X19722757Y17509977D01*
X19574923Y17588995D01*
X19445344Y17695339D01*
X19338993Y17824926D01*
X19259977Y17972756D01*
X19211313Y18133179D01*
X19199000Y18258196D01*
X19199000Y18741803D01*
X19211313Y18866820D01*
X19211314Y18866824D01*
X19259975Y19027238D01*
X19259976Y19027240D01*
X19259977Y19027243D01*
X19338995Y19175078D01*
X19445341Y19304659D01*
X19574922Y19411005D01*
X19722756Y19490023D01*
X19722759Y19490024D01*
X19722761Y19490025D01*
X19883175Y19538686D01*
X19883176Y19538686D01*
X19883179Y19538687D01*
X20050000Y19555117D01*
X20216820Y19538687D01*
X20216820Y19538687D01*
G37*
M02*
