G04 #@! TF.GenerationSoftware,KiCad,Pcbnew,5.0.2-bee76a0~70~ubuntu18.04.1*
G04 #@! TF.CreationDate,2020-01-26T10:23:02-05:00*
G04 #@! TF.ProjectId,ESP-AHT10-Extra,4553502d-4148-4543-9130-2d4578747261,1.4*
G04 #@! TF.SameCoordinates,PX7bfa480PY66c2270*
G04 #@! TF.FileFunction,Copper,L2,Bot*
G04 #@! TF.FilePolarity,Positive*
%FSLAX46Y46*%
G04 Gerber Fmt 4.6, Leading zero omitted, Abs format (unit mm)*
G04 Created by KiCad (PCBNEW 5.0.2-bee76a0~70~ubuntu18.04.1) date Sun 26 Jan 2020 10:23:02 AM EST*
%MOMM*%
%LPD*%
G01*
G04 APERTURE LIST*
G04 #@! TA.AperFunction,Conductor*
%ADD10C,0.050000*%
G04 #@! TD*
G04 #@! TA.AperFunction,SMDPad,CuDef*
%ADD11C,0.300000*%
G04 #@! TD*
G04 #@! TA.AperFunction,SMDPad,CuDef*
%ADD12C,0.975000*%
G04 #@! TD*
G04 #@! TA.AperFunction,ConnectorPad*
%ADD13C,1.500000*%
G04 #@! TD*
G04 #@! TA.AperFunction,ConnectorPad*
%ADD14C,1.900000*%
G04 #@! TD*
G04 #@! TA.AperFunction,SMDPad,CuDef*
%ADD15R,1.550000X0.600000*%
G04 #@! TD*
G04 #@! TA.AperFunction,ComponentPad*
%ADD16R,1.100000X2.500000*%
G04 #@! TD*
G04 #@! TA.AperFunction,ComponentPad*
%ADD17O,1.100000X2.500000*%
G04 #@! TD*
G04 #@! TA.AperFunction,ComponentPad*
%ADD18O,1.600000X2.000000*%
G04 #@! TD*
G04 #@! TA.AperFunction,SMDPad,CuDef*
%ADD19O,0.650000X1.500000*%
G04 #@! TD*
G04 #@! TA.AperFunction,SMDPad,CuDef*
%ADD20R,0.650000X1.500000*%
G04 #@! TD*
G04 #@! TA.AperFunction,SMDPad,CuDef*
%ADD21R,1.060000X0.650000*%
G04 #@! TD*
G04 #@! TA.AperFunction,SMDPad,CuDef*
%ADD22R,1.100000X1.100000*%
G04 #@! TD*
G04 #@! TA.AperFunction,SMDPad,CuDef*
%ADD23R,0.900000X0.800000*%
G04 #@! TD*
G04 #@! TA.AperFunction,ViaPad*
%ADD24C,1.200000*%
G04 #@! TD*
G04 #@! TA.AperFunction,Conductor*
%ADD25C,0.300000*%
G04 #@! TD*
G04 #@! TA.AperFunction,Conductor*
%ADD26C,0.500000*%
G04 #@! TD*
G04 #@! TA.AperFunction,Conductor*
%ADD27C,0.400000*%
G04 #@! TD*
G04 #@! TA.AperFunction,Conductor*
%ADD28C,0.254000*%
G04 #@! TD*
G04 APERTURE END LIST*
D10*
G04 #@! TO.N,SDA*
G04 #@! TO.C,U6*
G36*
X31103351Y7974639D02*
X31110632Y7973559D01*
X31117771Y7971771D01*
X31124701Y7969291D01*
X31131355Y7966144D01*
X31137668Y7962360D01*
X31143579Y7957976D01*
X31149033Y7953033D01*
X31153976Y7947579D01*
X31158360Y7941668D01*
X31162144Y7935355D01*
X31165291Y7928701D01*
X31167771Y7921771D01*
X31169559Y7914632D01*
X31170639Y7907351D01*
X31171000Y7900000D01*
X31171000Y7400000D01*
X31170639Y7392649D01*
X31169559Y7385368D01*
X31167771Y7378229D01*
X31165291Y7371299D01*
X31162144Y7364645D01*
X31158360Y7358332D01*
X31153976Y7352421D01*
X31149033Y7346967D01*
X31143579Y7342024D01*
X31137668Y7337640D01*
X31131355Y7333856D01*
X31124701Y7330709D01*
X31117771Y7328229D01*
X31110632Y7326441D01*
X31103351Y7325361D01*
X31096000Y7325000D01*
X30946000Y7325000D01*
X30938649Y7325361D01*
X30931368Y7326441D01*
X30924229Y7328229D01*
X30917299Y7330709D01*
X30910645Y7333856D01*
X30904332Y7337640D01*
X30898421Y7342024D01*
X30892967Y7346967D01*
X30888024Y7352421D01*
X30883640Y7358332D01*
X30879856Y7364645D01*
X30876709Y7371299D01*
X30874229Y7378229D01*
X30872441Y7385368D01*
X30871361Y7392649D01*
X30871000Y7400000D01*
X30871000Y7900000D01*
X30871361Y7907351D01*
X30872441Y7914632D01*
X30874229Y7921771D01*
X30876709Y7928701D01*
X30879856Y7935355D01*
X30883640Y7941668D01*
X30888024Y7947579D01*
X30892967Y7953033D01*
X30898421Y7957976D01*
X30904332Y7962360D01*
X30910645Y7966144D01*
X30917299Y7969291D01*
X30924229Y7971771D01*
X30931368Y7973559D01*
X30938649Y7974639D01*
X30946000Y7975000D01*
X31096000Y7975000D01*
X31103351Y7974639D01*
X31103351Y7974639D01*
G37*
D11*
G04 #@! TD*
G04 #@! TO.P,U6,6*
G04 #@! TO.N,SDA*
X31021000Y7650000D03*
D10*
G04 #@! TO.N,SCL*
G04 #@! TO.C,U6*
G36*
X32403351Y7974639D02*
X32410632Y7973559D01*
X32417771Y7971771D01*
X32424701Y7969291D01*
X32431355Y7966144D01*
X32437668Y7962360D01*
X32443579Y7957976D01*
X32449033Y7953033D01*
X32453976Y7947579D01*
X32458360Y7941668D01*
X32462144Y7935355D01*
X32465291Y7928701D01*
X32467771Y7921771D01*
X32469559Y7914632D01*
X32470639Y7907351D01*
X32471000Y7900000D01*
X32471000Y7400000D01*
X32470639Y7392649D01*
X32469559Y7385368D01*
X32467771Y7378229D01*
X32465291Y7371299D01*
X32462144Y7364645D01*
X32458360Y7358332D01*
X32453976Y7352421D01*
X32449033Y7346967D01*
X32443579Y7342024D01*
X32437668Y7337640D01*
X32431355Y7333856D01*
X32424701Y7330709D01*
X32417771Y7328229D01*
X32410632Y7326441D01*
X32403351Y7325361D01*
X32396000Y7325000D01*
X32246000Y7325000D01*
X32238649Y7325361D01*
X32231368Y7326441D01*
X32224229Y7328229D01*
X32217299Y7330709D01*
X32210645Y7333856D01*
X32204332Y7337640D01*
X32198421Y7342024D01*
X32192967Y7346967D01*
X32188024Y7352421D01*
X32183640Y7358332D01*
X32179856Y7364645D01*
X32176709Y7371299D01*
X32174229Y7378229D01*
X32172441Y7385368D01*
X32171361Y7392649D01*
X32171000Y7400000D01*
X32171000Y7900000D01*
X32171361Y7907351D01*
X32172441Y7914632D01*
X32174229Y7921771D01*
X32176709Y7928701D01*
X32179856Y7935355D01*
X32183640Y7941668D01*
X32188024Y7947579D01*
X32192967Y7953033D01*
X32198421Y7957976D01*
X32204332Y7962360D01*
X32210645Y7966144D01*
X32217299Y7969291D01*
X32224229Y7971771D01*
X32231368Y7973559D01*
X32238649Y7974639D01*
X32246000Y7975000D01*
X32396000Y7975000D01*
X32403351Y7974639D01*
X32403351Y7974639D01*
G37*
D11*
G04 #@! TD*
G04 #@! TO.P,U6,4*
G04 #@! TO.N,SCL*
X32321000Y7650000D03*
D10*
G04 #@! TO.N,GND*
G04 #@! TO.C,U6*
G36*
X32403351Y9774639D02*
X32410632Y9773559D01*
X32417771Y9771771D01*
X32424701Y9769291D01*
X32431355Y9766144D01*
X32437668Y9762360D01*
X32443579Y9757976D01*
X32449033Y9753033D01*
X32453976Y9747579D01*
X32458360Y9741668D01*
X32462144Y9735355D01*
X32465291Y9728701D01*
X32467771Y9721771D01*
X32469559Y9714632D01*
X32470639Y9707351D01*
X32471000Y9700000D01*
X32471000Y9200000D01*
X32470639Y9192649D01*
X32469559Y9185368D01*
X32467771Y9178229D01*
X32465291Y9171299D01*
X32462144Y9164645D01*
X32458360Y9158332D01*
X32453976Y9152421D01*
X32449033Y9146967D01*
X32443579Y9142024D01*
X32437668Y9137640D01*
X32431355Y9133856D01*
X32424701Y9130709D01*
X32417771Y9128229D01*
X32410632Y9126441D01*
X32403351Y9125361D01*
X32396000Y9125000D01*
X32246000Y9125000D01*
X32238649Y9125361D01*
X32231368Y9126441D01*
X32224229Y9128229D01*
X32217299Y9130709D01*
X32210645Y9133856D01*
X32204332Y9137640D01*
X32198421Y9142024D01*
X32192967Y9146967D01*
X32188024Y9152421D01*
X32183640Y9158332D01*
X32179856Y9164645D01*
X32176709Y9171299D01*
X32174229Y9178229D01*
X32172441Y9185368D01*
X32171361Y9192649D01*
X32171000Y9200000D01*
X32171000Y9700000D01*
X32171361Y9707351D01*
X32172441Y9714632D01*
X32174229Y9721771D01*
X32176709Y9728701D01*
X32179856Y9735355D01*
X32183640Y9741668D01*
X32188024Y9747579D01*
X32192967Y9753033D01*
X32198421Y9757976D01*
X32204332Y9762360D01*
X32210645Y9766144D01*
X32217299Y9769291D01*
X32224229Y9771771D01*
X32231368Y9773559D01*
X32238649Y9774639D01*
X32246000Y9775000D01*
X32396000Y9775000D01*
X32403351Y9774639D01*
X32403351Y9774639D01*
G37*
D11*
G04 #@! TD*
G04 #@! TO.P,U6,3*
G04 #@! TO.N,GND*
X32321000Y9450000D03*
D10*
G04 #@! TO.N,3V3*
G04 #@! TO.C,U6*
G36*
X31103351Y9774639D02*
X31110632Y9773559D01*
X31117771Y9771771D01*
X31124701Y9769291D01*
X31131355Y9766144D01*
X31137668Y9762360D01*
X31143579Y9757976D01*
X31149033Y9753033D01*
X31153976Y9747579D01*
X31158360Y9741668D01*
X31162144Y9735355D01*
X31165291Y9728701D01*
X31167771Y9721771D01*
X31169559Y9714632D01*
X31170639Y9707351D01*
X31171000Y9700000D01*
X31171000Y9200000D01*
X31170639Y9192649D01*
X31169559Y9185368D01*
X31167771Y9178229D01*
X31165291Y9171299D01*
X31162144Y9164645D01*
X31158360Y9158332D01*
X31153976Y9152421D01*
X31149033Y9146967D01*
X31143579Y9142024D01*
X31137668Y9137640D01*
X31131355Y9133856D01*
X31124701Y9130709D01*
X31117771Y9128229D01*
X31110632Y9126441D01*
X31103351Y9125361D01*
X31096000Y9125000D01*
X30946000Y9125000D01*
X30938649Y9125361D01*
X30931368Y9126441D01*
X30924229Y9128229D01*
X30917299Y9130709D01*
X30910645Y9133856D01*
X30904332Y9137640D01*
X30898421Y9142024D01*
X30892967Y9146967D01*
X30888024Y9152421D01*
X30883640Y9158332D01*
X30879856Y9164645D01*
X30876709Y9171299D01*
X30874229Y9178229D01*
X30872441Y9185368D01*
X30871361Y9192649D01*
X30871000Y9200000D01*
X30871000Y9700000D01*
X30871361Y9707351D01*
X30872441Y9714632D01*
X30874229Y9721771D01*
X30876709Y9728701D01*
X30879856Y9735355D01*
X30883640Y9741668D01*
X30888024Y9747579D01*
X30892967Y9753033D01*
X30898421Y9757976D01*
X30904332Y9762360D01*
X30910645Y9766144D01*
X30917299Y9769291D01*
X30924229Y9771771D01*
X30931368Y9773559D01*
X30938649Y9774639D01*
X30946000Y9775000D01*
X31096000Y9775000D01*
X31103351Y9774639D01*
X31103351Y9774639D01*
G37*
D11*
G04 #@! TD*
G04 #@! TO.P,U6,1*
G04 #@! TO.N,3V3*
X31021000Y9450000D03*
D10*
G04 #@! TO.N,Net-(D1-Pad1)*
G04 #@! TO.C,F1*
G36*
X15641142Y15636326D02*
X15664803Y15632816D01*
X15688007Y15627004D01*
X15710529Y15618946D01*
X15732153Y15608718D01*
X15752670Y15596421D01*
X15771883Y15582171D01*
X15789607Y15566107D01*
X15805671Y15548383D01*
X15819921Y15529170D01*
X15832218Y15508653D01*
X15842446Y15487029D01*
X15850504Y15464507D01*
X15856316Y15441303D01*
X15859826Y15417642D01*
X15861000Y15393750D01*
X15861000Y14906250D01*
X15859826Y14882358D01*
X15856316Y14858697D01*
X15850504Y14835493D01*
X15842446Y14812971D01*
X15832218Y14791347D01*
X15819921Y14770830D01*
X15805671Y14751617D01*
X15789607Y14733893D01*
X15771883Y14717829D01*
X15752670Y14703579D01*
X15732153Y14691282D01*
X15710529Y14681054D01*
X15688007Y14672996D01*
X15664803Y14667184D01*
X15641142Y14663674D01*
X15617250Y14662500D01*
X14704750Y14662500D01*
X14680858Y14663674D01*
X14657197Y14667184D01*
X14633993Y14672996D01*
X14611471Y14681054D01*
X14589847Y14691282D01*
X14569330Y14703579D01*
X14550117Y14717829D01*
X14532393Y14733893D01*
X14516329Y14751617D01*
X14502079Y14770830D01*
X14489782Y14791347D01*
X14479554Y14812971D01*
X14471496Y14835493D01*
X14465684Y14858697D01*
X14462174Y14882358D01*
X14461000Y14906250D01*
X14461000Y15393750D01*
X14462174Y15417642D01*
X14465684Y15441303D01*
X14471496Y15464507D01*
X14479554Y15487029D01*
X14489782Y15508653D01*
X14502079Y15529170D01*
X14516329Y15548383D01*
X14532393Y15566107D01*
X14550117Y15582171D01*
X14569330Y15596421D01*
X14589847Y15608718D01*
X14611471Y15618946D01*
X14633993Y15627004D01*
X14657197Y15632816D01*
X14680858Y15636326D01*
X14704750Y15637500D01*
X15617250Y15637500D01*
X15641142Y15636326D01*
X15641142Y15636326D01*
G37*
D12*
G04 #@! TD*
G04 #@! TO.P,F1,2*
G04 #@! TO.N,Net-(D1-Pad1)*
X15161000Y15150000D03*
D10*
G04 #@! TO.N,5V*
G04 #@! TO.C,F1*
G36*
X15641142Y13761326D02*
X15664803Y13757816D01*
X15688007Y13752004D01*
X15710529Y13743946D01*
X15732153Y13733718D01*
X15752670Y13721421D01*
X15771883Y13707171D01*
X15789607Y13691107D01*
X15805671Y13673383D01*
X15819921Y13654170D01*
X15832218Y13633653D01*
X15842446Y13612029D01*
X15850504Y13589507D01*
X15856316Y13566303D01*
X15859826Y13542642D01*
X15861000Y13518750D01*
X15861000Y13031250D01*
X15859826Y13007358D01*
X15856316Y12983697D01*
X15850504Y12960493D01*
X15842446Y12937971D01*
X15832218Y12916347D01*
X15819921Y12895830D01*
X15805671Y12876617D01*
X15789607Y12858893D01*
X15771883Y12842829D01*
X15752670Y12828579D01*
X15732153Y12816282D01*
X15710529Y12806054D01*
X15688007Y12797996D01*
X15664803Y12792184D01*
X15641142Y12788674D01*
X15617250Y12787500D01*
X14704750Y12787500D01*
X14680858Y12788674D01*
X14657197Y12792184D01*
X14633993Y12797996D01*
X14611471Y12806054D01*
X14589847Y12816282D01*
X14569330Y12828579D01*
X14550117Y12842829D01*
X14532393Y12858893D01*
X14516329Y12876617D01*
X14502079Y12895830D01*
X14489782Y12916347D01*
X14479554Y12937971D01*
X14471496Y12960493D01*
X14465684Y12983697D01*
X14462174Y13007358D01*
X14461000Y13031250D01*
X14461000Y13518750D01*
X14462174Y13542642D01*
X14465684Y13566303D01*
X14471496Y13589507D01*
X14479554Y13612029D01*
X14489782Y13633653D01*
X14502079Y13654170D01*
X14516329Y13673383D01*
X14532393Y13691107D01*
X14550117Y13707171D01*
X14569330Y13721421D01*
X14589847Y13733718D01*
X14611471Y13743946D01*
X14633993Y13752004D01*
X14657197Y13757816D01*
X14680858Y13761326D01*
X14704750Y13762500D01*
X15617250Y13762500D01*
X15641142Y13761326D01*
X15641142Y13761326D01*
G37*
D12*
G04 #@! TD*
G04 #@! TO.P,F1,1*
G04 #@! TO.N,5V*
X15161000Y13275000D03*
D10*
G04 #@! TO.N,UD-*
G04 #@! TO.C,J1*
G36*
X8620973Y12385820D02*
X8657376Y12380420D01*
X8693074Y12371479D01*
X8727723Y12359081D01*
X8760991Y12343346D01*
X8792556Y12324427D01*
X8822114Y12302505D01*
X8849382Y12277791D01*
X8874096Y12250523D01*
X8896018Y12220965D01*
X8914937Y12189400D01*
X8930672Y12156132D01*
X8943070Y12121483D01*
X8952011Y12085785D01*
X8957411Y12049382D01*
X8959217Y12012626D01*
X8959217Y11262626D01*
X8957411Y11225870D01*
X8952011Y11189467D01*
X8943070Y11153769D01*
X8930672Y11119120D01*
X8914937Y11085852D01*
X8896018Y11054287D01*
X8874096Y11024729D01*
X8849382Y10997461D01*
X8822114Y10972747D01*
X8792556Y10950825D01*
X8760991Y10931906D01*
X8727723Y10916171D01*
X8693074Y10903773D01*
X8657376Y10894832D01*
X8620973Y10889432D01*
X8584217Y10887626D01*
X1834217Y10887626D01*
X1797461Y10889432D01*
X1761058Y10894832D01*
X1725360Y10903773D01*
X1690711Y10916171D01*
X1657443Y10931906D01*
X1625878Y10950825D01*
X1596320Y10972747D01*
X1569052Y10997461D01*
X1544338Y11024729D01*
X1522416Y11054287D01*
X1503497Y11085852D01*
X1487762Y11119120D01*
X1475364Y11153769D01*
X1466423Y11189467D01*
X1461023Y11225870D01*
X1459217Y11262626D01*
X1459217Y12012626D01*
X1461023Y12049382D01*
X1466423Y12085785D01*
X1475364Y12121483D01*
X1487762Y12156132D01*
X1503497Y12189400D01*
X1522416Y12220965D01*
X1544338Y12250523D01*
X1569052Y12277791D01*
X1596320Y12302505D01*
X1625878Y12324427D01*
X1657443Y12343346D01*
X1690711Y12359081D01*
X1725360Y12371479D01*
X1761058Y12380420D01*
X1797461Y12385820D01*
X1834217Y12387626D01*
X8584217Y12387626D01*
X8620973Y12385820D01*
X8620973Y12385820D01*
G37*
D13*
G04 #@! TD*
G04 #@! TO.P,J1,2*
G04 #@! TO.N,UD-*
X5209217Y11637626D03*
D10*
G04 #@! TO.N,UD+*
G04 #@! TO.C,J1*
G36*
X8620973Y9885820D02*
X8657376Y9880420D01*
X8693074Y9871479D01*
X8727723Y9859081D01*
X8760991Y9843346D01*
X8792556Y9824427D01*
X8822114Y9802505D01*
X8849382Y9777791D01*
X8874096Y9750523D01*
X8896018Y9720965D01*
X8914937Y9689400D01*
X8930672Y9656132D01*
X8943070Y9621483D01*
X8952011Y9585785D01*
X8957411Y9549382D01*
X8959217Y9512626D01*
X8959217Y8762626D01*
X8957411Y8725870D01*
X8952011Y8689467D01*
X8943070Y8653769D01*
X8930672Y8619120D01*
X8914937Y8585852D01*
X8896018Y8554287D01*
X8874096Y8524729D01*
X8849382Y8497461D01*
X8822114Y8472747D01*
X8792556Y8450825D01*
X8760991Y8431906D01*
X8727723Y8416171D01*
X8693074Y8403773D01*
X8657376Y8394832D01*
X8620973Y8389432D01*
X8584217Y8387626D01*
X1834217Y8387626D01*
X1797461Y8389432D01*
X1761058Y8394832D01*
X1725360Y8403773D01*
X1690711Y8416171D01*
X1657443Y8431906D01*
X1625878Y8450825D01*
X1596320Y8472747D01*
X1569052Y8497461D01*
X1544338Y8524729D01*
X1522416Y8554287D01*
X1503497Y8585852D01*
X1487762Y8619120D01*
X1475364Y8653769D01*
X1466423Y8689467D01*
X1461023Y8725870D01*
X1459217Y8762626D01*
X1459217Y9512626D01*
X1461023Y9549382D01*
X1466423Y9585785D01*
X1475364Y9621483D01*
X1487762Y9656132D01*
X1503497Y9689400D01*
X1522416Y9720965D01*
X1544338Y9750523D01*
X1569052Y9777791D01*
X1596320Y9802505D01*
X1625878Y9824427D01*
X1657443Y9843346D01*
X1690711Y9859081D01*
X1725360Y9871479D01*
X1761058Y9880420D01*
X1797461Y9885820D01*
X1834217Y9887626D01*
X8584217Y9887626D01*
X8620973Y9885820D01*
X8620973Y9885820D01*
G37*
D13*
G04 #@! TD*
G04 #@! TO.P,J1,3*
G04 #@! TO.N,UD+*
X5209217Y9137626D03*
D10*
G04 #@! TO.N,GND*
G04 #@! TO.C,J1*
G36*
X8530775Y7525339D02*
X8576885Y7518499D01*
X8622102Y7507173D01*
X8665992Y7491469D01*
X8708130Y7471539D01*
X8748113Y7447574D01*
X8785554Y7419806D01*
X8820093Y7388502D01*
X8851397Y7353963D01*
X8879165Y7316522D01*
X8903130Y7276539D01*
X8923060Y7234401D01*
X8938764Y7190511D01*
X8950090Y7145294D01*
X8956930Y7099184D01*
X8959217Y7052626D01*
X8959217Y6102626D01*
X8956930Y6056068D01*
X8950090Y6009958D01*
X8938764Y5964741D01*
X8923060Y5920851D01*
X8903130Y5878713D01*
X8879165Y5838730D01*
X8851397Y5801289D01*
X8820093Y5766750D01*
X8785554Y5735446D01*
X8748113Y5707678D01*
X8708130Y5683713D01*
X8665992Y5663783D01*
X8622102Y5648079D01*
X8576885Y5636753D01*
X8530775Y5629913D01*
X8484217Y5627626D01*
X1434217Y5627626D01*
X1387659Y5629913D01*
X1341549Y5636753D01*
X1296332Y5648079D01*
X1252442Y5663783D01*
X1210304Y5683713D01*
X1170321Y5707678D01*
X1132880Y5735446D01*
X1098341Y5766750D01*
X1067037Y5801289D01*
X1039269Y5838730D01*
X1015304Y5878713D01*
X995374Y5920851D01*
X979670Y5964741D01*
X968344Y6009958D01*
X961504Y6056068D01*
X959217Y6102626D01*
X959217Y7052626D01*
X961504Y7099184D01*
X968344Y7145294D01*
X979670Y7190511D01*
X995374Y7234401D01*
X1015304Y7276539D01*
X1039269Y7316522D01*
X1067037Y7353963D01*
X1098341Y7388502D01*
X1132880Y7419806D01*
X1170321Y7447574D01*
X1210304Y7471539D01*
X1252442Y7491469D01*
X1296332Y7507173D01*
X1341549Y7518499D01*
X1387659Y7525339D01*
X1434217Y7527626D01*
X8484217Y7527626D01*
X8530775Y7525339D01*
X8530775Y7525339D01*
G37*
D14*
G04 #@! TD*
G04 #@! TO.P,J1,4*
G04 #@! TO.N,GND*
X4959217Y6577626D03*
D10*
G04 #@! TO.N,VBUS*
G04 #@! TO.C,J1*
G36*
X8530775Y15145339D02*
X8576885Y15138499D01*
X8622102Y15127173D01*
X8665992Y15111469D01*
X8708130Y15091539D01*
X8748113Y15067574D01*
X8785554Y15039806D01*
X8820093Y15008502D01*
X8851397Y14973963D01*
X8879165Y14936522D01*
X8903130Y14896539D01*
X8923060Y14854401D01*
X8938764Y14810511D01*
X8950090Y14765294D01*
X8956930Y14719184D01*
X8959217Y14672626D01*
X8959217Y13722626D01*
X8956930Y13676068D01*
X8950090Y13629958D01*
X8938764Y13584741D01*
X8923060Y13540851D01*
X8903130Y13498713D01*
X8879165Y13458730D01*
X8851397Y13421289D01*
X8820093Y13386750D01*
X8785554Y13355446D01*
X8748113Y13327678D01*
X8708130Y13303713D01*
X8665992Y13283783D01*
X8622102Y13268079D01*
X8576885Y13256753D01*
X8530775Y13249913D01*
X8484217Y13247626D01*
X1434217Y13247626D01*
X1387659Y13249913D01*
X1341549Y13256753D01*
X1296332Y13268079D01*
X1252442Y13283783D01*
X1210304Y13303713D01*
X1170321Y13327678D01*
X1132880Y13355446D01*
X1098341Y13386750D01*
X1067037Y13421289D01*
X1039269Y13458730D01*
X1015304Y13498713D01*
X995374Y13540851D01*
X979670Y13584741D01*
X968344Y13629958D01*
X961504Y13676068D01*
X959217Y13722626D01*
X959217Y14672626D01*
X961504Y14719184D01*
X968344Y14765294D01*
X979670Y14810511D01*
X995374Y14854401D01*
X1015304Y14896539D01*
X1039269Y14936522D01*
X1067037Y14973963D01*
X1098341Y15008502D01*
X1132880Y15039806D01*
X1170321Y15067574D01*
X1210304Y15091539D01*
X1252442Y15111469D01*
X1296332Y15127173D01*
X1341549Y15138499D01*
X1387659Y15145339D01*
X1434217Y15147626D01*
X8484217Y15147626D01*
X8530775Y15145339D01*
X8530775Y15145339D01*
G37*
D14*
G04 #@! TD*
G04 #@! TO.P,J1,1*
G04 #@! TO.N,VBUS*
X4959217Y14197626D03*
D15*
G04 #@! TO.P,U1,1*
G04 #@! TO.N,UDP+*
X15359217Y6832626D03*
G04 #@! TO.P,U1,2*
G04 #@! TO.N,UDP-*
X15359217Y8102626D03*
G04 #@! TO.P,U1,3*
G04 #@! TO.N,GND*
X15359217Y9372626D03*
G04 #@! TO.P,U1,4*
G04 #@! TO.N,N/C*
X15359217Y10642626D03*
G04 #@! TO.P,U1,5*
G04 #@! TO.N,5V*
X20759217Y10642626D03*
G04 #@! TO.P,U1,6*
G04 #@! TO.N,eRX*
X20759217Y9372626D03*
G04 #@! TO.P,U1,7*
G04 #@! TO.N,Net-(R8-Pad2)*
X20759217Y8102626D03*
G04 #@! TO.P,U1,8*
G04 #@! TO.N,Net-(C6-Pad1)*
X20759217Y6832626D03*
G04 #@! TD*
D16*
G04 #@! TO.P,U3,1*
G04 #@! TO.N,Net-(R2-Pad1)*
X36209217Y18137626D03*
D17*
G04 #@! TO.P,U3,2*
G04 #@! TO.N,N/C*
X34209217Y18137626D03*
G04 #@! TO.P,U3,3*
G04 #@! TO.N,Net-(R1-Pad2)*
X32209217Y18137626D03*
G04 #@! TO.P,U3,4*
G04 #@! TO.N,Net-(R2-Pad2)*
X30209217Y18137626D03*
G04 #@! TO.P,U3,5*
G04 #@! TO.N,N/C*
X28209217Y18137626D03*
G04 #@! TO.P,U3,6*
X26209217Y18137626D03*
G04 #@! TO.P,U3,7*
X24209217Y18137626D03*
G04 #@! TO.P,U3,8*
G04 #@! TO.N,3V3*
X22209217Y18137626D03*
G04 #@! TO.P,U3,9*
G04 #@! TO.N,GND*
X22209217Y2737626D03*
G04 #@! TO.P,U3,10*
G04 #@! TO.N,Net-(R4-Pad1)*
X24209217Y2837626D03*
G04 #@! TO.P,U3,11*
G04 #@! TO.N,N/C*
X26209217Y2737626D03*
G04 #@! TO.P,U3,12*
G04 #@! TO.N,Net-(R5-Pad2)*
X28209217Y2737626D03*
G04 #@! TO.P,U3,13*
G04 #@! TO.N,SDA*
X30209217Y2737626D03*
G04 #@! TO.P,U3,14*
G04 #@! TO.N,SCL*
X32209217Y2737626D03*
G04 #@! TO.P,U3,15*
G04 #@! TO.N,eRX*
X34209217Y2737626D03*
G04 #@! TO.P,U3,16*
G04 #@! TO.N,eTX*
X36209217Y2737626D03*
G04 #@! TD*
D18*
G04 #@! TO.P,SW1,2*
G04 #@! TO.N,GND*
X13450000Y18500000D03*
G04 #@! TO.P,SW1,1*
G04 #@! TO.N,Net-(R2-Pad2)*
X20050000Y18500000D03*
G04 #@! TD*
G04 #@! TO.P,SW2,1*
G04 #@! TO.N,Net-(R5-Pad2)*
X13450000Y2250000D03*
G04 #@! TO.P,SW2,2*
G04 #@! TO.N,GND*
X20050000Y2250000D03*
G04 #@! TD*
D19*
G04 #@! TO.P,U4,1*
G04 #@! TO.N,GND*
X37125703Y6941380D03*
D20*
G04 #@! TO.P,U4,2*
G04 #@! TO.N,SDA*
X35855703Y6941380D03*
G04 #@! TO.P,U4,3*
G04 #@! TO.N,SCL*
X34585703Y6941380D03*
G04 #@! TO.P,U4,4*
G04 #@! TO.N,3V3*
X34585703Y10141380D03*
G04 #@! TO.P,U4,5*
G04 #@! TO.N,GND*
X35855703Y10141380D03*
G04 #@! TO.P,U4,6*
G04 #@! TO.N,N/C*
X37125703Y10141380D03*
G04 #@! TD*
D21*
G04 #@! TO.P,U5,1*
G04 #@! TO.N,UD+*
X10250000Y8075000D03*
G04 #@! TO.P,U5,2*
G04 #@! TO.N,GND*
X10250000Y9025000D03*
G04 #@! TO.P,U5,3*
G04 #@! TO.N,UD-*
X10250000Y9975000D03*
G04 #@! TO.P,U5,4*
G04 #@! TO.N,UDP-*
X12450000Y9975000D03*
G04 #@! TO.P,U5,6*
G04 #@! TO.N,UDP+*
X12450000Y8075000D03*
G04 #@! TO.P,U5,5*
G04 #@! TO.N,5V*
X12450000Y9025000D03*
G04 #@! TD*
D10*
G04 #@! TO.N,GND*
G04 #@! TO.C,C1*
G36*
X26256142Y13790206D02*
X26279803Y13786696D01*
X26303007Y13780884D01*
X26325529Y13772826D01*
X26347153Y13762598D01*
X26367670Y13750301D01*
X26386883Y13736051D01*
X26404607Y13719987D01*
X26420671Y13702263D01*
X26434921Y13683050D01*
X26447218Y13662533D01*
X26457446Y13640909D01*
X26465504Y13618387D01*
X26471316Y13595183D01*
X26474826Y13571522D01*
X26476000Y13547630D01*
X26476000Y13060130D01*
X26474826Y13036238D01*
X26471316Y13012577D01*
X26465504Y12989373D01*
X26457446Y12966851D01*
X26447218Y12945227D01*
X26434921Y12924710D01*
X26420671Y12905497D01*
X26404607Y12887773D01*
X26386883Y12871709D01*
X26367670Y12857459D01*
X26347153Y12845162D01*
X26325529Y12834934D01*
X26303007Y12826876D01*
X26279803Y12821064D01*
X26256142Y12817554D01*
X26232250Y12816380D01*
X25319750Y12816380D01*
X25295858Y12817554D01*
X25272197Y12821064D01*
X25248993Y12826876D01*
X25226471Y12834934D01*
X25204847Y12845162D01*
X25184330Y12857459D01*
X25165117Y12871709D01*
X25147393Y12887773D01*
X25131329Y12905497D01*
X25117079Y12924710D01*
X25104782Y12945227D01*
X25094554Y12966851D01*
X25086496Y12989373D01*
X25080684Y13012577D01*
X25077174Y13036238D01*
X25076000Y13060130D01*
X25076000Y13547630D01*
X25077174Y13571522D01*
X25080684Y13595183D01*
X25086496Y13618387D01*
X25094554Y13640909D01*
X25104782Y13662533D01*
X25117079Y13683050D01*
X25131329Y13702263D01*
X25147393Y13719987D01*
X25165117Y13736051D01*
X25184330Y13750301D01*
X25204847Y13762598D01*
X25226471Y13772826D01*
X25248993Y13780884D01*
X25272197Y13786696D01*
X25295858Y13790206D01*
X25319750Y13791380D01*
X26232250Y13791380D01*
X26256142Y13790206D01*
X26256142Y13790206D01*
G37*
D12*
G04 #@! TD*
G04 #@! TO.P,C1,2*
G04 #@! TO.N,GND*
X25776000Y13303880D03*
D10*
G04 #@! TO.N,3V3*
G04 #@! TO.C,C1*
G36*
X26256142Y15665206D02*
X26279803Y15661696D01*
X26303007Y15655884D01*
X26325529Y15647826D01*
X26347153Y15637598D01*
X26367670Y15625301D01*
X26386883Y15611051D01*
X26404607Y15594987D01*
X26420671Y15577263D01*
X26434921Y15558050D01*
X26447218Y15537533D01*
X26457446Y15515909D01*
X26465504Y15493387D01*
X26471316Y15470183D01*
X26474826Y15446522D01*
X26476000Y15422630D01*
X26476000Y14935130D01*
X26474826Y14911238D01*
X26471316Y14887577D01*
X26465504Y14864373D01*
X26457446Y14841851D01*
X26447218Y14820227D01*
X26434921Y14799710D01*
X26420671Y14780497D01*
X26404607Y14762773D01*
X26386883Y14746709D01*
X26367670Y14732459D01*
X26347153Y14720162D01*
X26325529Y14709934D01*
X26303007Y14701876D01*
X26279803Y14696064D01*
X26256142Y14692554D01*
X26232250Y14691380D01*
X25319750Y14691380D01*
X25295858Y14692554D01*
X25272197Y14696064D01*
X25248993Y14701876D01*
X25226471Y14709934D01*
X25204847Y14720162D01*
X25184330Y14732459D01*
X25165117Y14746709D01*
X25147393Y14762773D01*
X25131329Y14780497D01*
X25117079Y14799710D01*
X25104782Y14820227D01*
X25094554Y14841851D01*
X25086496Y14864373D01*
X25080684Y14887577D01*
X25077174Y14911238D01*
X25076000Y14935130D01*
X25076000Y15422630D01*
X25077174Y15446522D01*
X25080684Y15470183D01*
X25086496Y15493387D01*
X25094554Y15515909D01*
X25104782Y15537533D01*
X25117079Y15558050D01*
X25131329Y15577263D01*
X25147393Y15594987D01*
X25165117Y15611051D01*
X25184330Y15625301D01*
X25204847Y15637598D01*
X25226471Y15647826D01*
X25248993Y15655884D01*
X25272197Y15661696D01*
X25295858Y15665206D01*
X25319750Y15666380D01*
X26232250Y15666380D01*
X26256142Y15665206D01*
X26256142Y15665206D01*
G37*
D12*
G04 #@! TD*
G04 #@! TO.P,C1,1*
G04 #@! TO.N,3V3*
X25776000Y15178880D03*
D10*
G04 #@! TO.N,5V*
G04 #@! TO.C,C2*
G36*
X20005142Y15665206D02*
X20028803Y15661696D01*
X20052007Y15655884D01*
X20074529Y15647826D01*
X20096153Y15637598D01*
X20116670Y15625301D01*
X20135883Y15611051D01*
X20153607Y15594987D01*
X20169671Y15577263D01*
X20183921Y15558050D01*
X20196218Y15537533D01*
X20206446Y15515909D01*
X20214504Y15493387D01*
X20220316Y15470183D01*
X20223826Y15446522D01*
X20225000Y15422630D01*
X20225000Y14935130D01*
X20223826Y14911238D01*
X20220316Y14887577D01*
X20214504Y14864373D01*
X20206446Y14841851D01*
X20196218Y14820227D01*
X20183921Y14799710D01*
X20169671Y14780497D01*
X20153607Y14762773D01*
X20135883Y14746709D01*
X20116670Y14732459D01*
X20096153Y14720162D01*
X20074529Y14709934D01*
X20052007Y14701876D01*
X20028803Y14696064D01*
X20005142Y14692554D01*
X19981250Y14691380D01*
X19068750Y14691380D01*
X19044858Y14692554D01*
X19021197Y14696064D01*
X18997993Y14701876D01*
X18975471Y14709934D01*
X18953847Y14720162D01*
X18933330Y14732459D01*
X18914117Y14746709D01*
X18896393Y14762773D01*
X18880329Y14780497D01*
X18866079Y14799710D01*
X18853782Y14820227D01*
X18843554Y14841851D01*
X18835496Y14864373D01*
X18829684Y14887577D01*
X18826174Y14911238D01*
X18825000Y14935130D01*
X18825000Y15422630D01*
X18826174Y15446522D01*
X18829684Y15470183D01*
X18835496Y15493387D01*
X18843554Y15515909D01*
X18853782Y15537533D01*
X18866079Y15558050D01*
X18880329Y15577263D01*
X18896393Y15594987D01*
X18914117Y15611051D01*
X18933330Y15625301D01*
X18953847Y15637598D01*
X18975471Y15647826D01*
X18997993Y15655884D01*
X19021197Y15661696D01*
X19044858Y15665206D01*
X19068750Y15666380D01*
X19981250Y15666380D01*
X20005142Y15665206D01*
X20005142Y15665206D01*
G37*
D12*
G04 #@! TD*
G04 #@! TO.P,C2,1*
G04 #@! TO.N,5V*
X19525000Y15178880D03*
D10*
G04 #@! TO.N,GND*
G04 #@! TO.C,C2*
G36*
X20005142Y13790206D02*
X20028803Y13786696D01*
X20052007Y13780884D01*
X20074529Y13772826D01*
X20096153Y13762598D01*
X20116670Y13750301D01*
X20135883Y13736051D01*
X20153607Y13719987D01*
X20169671Y13702263D01*
X20183921Y13683050D01*
X20196218Y13662533D01*
X20206446Y13640909D01*
X20214504Y13618387D01*
X20220316Y13595183D01*
X20223826Y13571522D01*
X20225000Y13547630D01*
X20225000Y13060130D01*
X20223826Y13036238D01*
X20220316Y13012577D01*
X20214504Y12989373D01*
X20206446Y12966851D01*
X20196218Y12945227D01*
X20183921Y12924710D01*
X20169671Y12905497D01*
X20153607Y12887773D01*
X20135883Y12871709D01*
X20116670Y12857459D01*
X20096153Y12845162D01*
X20074529Y12834934D01*
X20052007Y12826876D01*
X20028803Y12821064D01*
X20005142Y12817554D01*
X19981250Y12816380D01*
X19068750Y12816380D01*
X19044858Y12817554D01*
X19021197Y12821064D01*
X18997993Y12826876D01*
X18975471Y12834934D01*
X18953847Y12845162D01*
X18933330Y12857459D01*
X18914117Y12871709D01*
X18896393Y12887773D01*
X18880329Y12905497D01*
X18866079Y12924710D01*
X18853782Y12945227D01*
X18843554Y12966851D01*
X18835496Y12989373D01*
X18829684Y13012577D01*
X18826174Y13036238D01*
X18825000Y13060130D01*
X18825000Y13547630D01*
X18826174Y13571522D01*
X18829684Y13595183D01*
X18835496Y13618387D01*
X18843554Y13640909D01*
X18853782Y13662533D01*
X18866079Y13683050D01*
X18880329Y13702263D01*
X18896393Y13719987D01*
X18914117Y13736051D01*
X18933330Y13750301D01*
X18953847Y13762598D01*
X18975471Y13772826D01*
X18997993Y13780884D01*
X19021197Y13786696D01*
X19044858Y13790206D01*
X19068750Y13791380D01*
X19981250Y13791380D01*
X20005142Y13790206D01*
X20005142Y13790206D01*
G37*
D12*
G04 #@! TD*
G04 #@! TO.P,C2,2*
G04 #@! TO.N,GND*
X19525000Y13303880D03*
D10*
G04 #@! TO.N,GND*
G04 #@! TO.C,C3*
G36*
X18055142Y13790206D02*
X18078803Y13786696D01*
X18102007Y13780884D01*
X18124529Y13772826D01*
X18146153Y13762598D01*
X18166670Y13750301D01*
X18185883Y13736051D01*
X18203607Y13719987D01*
X18219671Y13702263D01*
X18233921Y13683050D01*
X18246218Y13662533D01*
X18256446Y13640909D01*
X18264504Y13618387D01*
X18270316Y13595183D01*
X18273826Y13571522D01*
X18275000Y13547630D01*
X18275000Y13060130D01*
X18273826Y13036238D01*
X18270316Y13012577D01*
X18264504Y12989373D01*
X18256446Y12966851D01*
X18246218Y12945227D01*
X18233921Y12924710D01*
X18219671Y12905497D01*
X18203607Y12887773D01*
X18185883Y12871709D01*
X18166670Y12857459D01*
X18146153Y12845162D01*
X18124529Y12834934D01*
X18102007Y12826876D01*
X18078803Y12821064D01*
X18055142Y12817554D01*
X18031250Y12816380D01*
X17118750Y12816380D01*
X17094858Y12817554D01*
X17071197Y12821064D01*
X17047993Y12826876D01*
X17025471Y12834934D01*
X17003847Y12845162D01*
X16983330Y12857459D01*
X16964117Y12871709D01*
X16946393Y12887773D01*
X16930329Y12905497D01*
X16916079Y12924710D01*
X16903782Y12945227D01*
X16893554Y12966851D01*
X16885496Y12989373D01*
X16879684Y13012577D01*
X16876174Y13036238D01*
X16875000Y13060130D01*
X16875000Y13547630D01*
X16876174Y13571522D01*
X16879684Y13595183D01*
X16885496Y13618387D01*
X16893554Y13640909D01*
X16903782Y13662533D01*
X16916079Y13683050D01*
X16930329Y13702263D01*
X16946393Y13719987D01*
X16964117Y13736051D01*
X16983330Y13750301D01*
X17003847Y13762598D01*
X17025471Y13772826D01*
X17047993Y13780884D01*
X17071197Y13786696D01*
X17094858Y13790206D01*
X17118750Y13791380D01*
X18031250Y13791380D01*
X18055142Y13790206D01*
X18055142Y13790206D01*
G37*
D12*
G04 #@! TD*
G04 #@! TO.P,C3,2*
G04 #@! TO.N,GND*
X17575000Y13303880D03*
D10*
G04 #@! TO.N,5V*
G04 #@! TO.C,C3*
G36*
X18055142Y15665206D02*
X18078803Y15661696D01*
X18102007Y15655884D01*
X18124529Y15647826D01*
X18146153Y15637598D01*
X18166670Y15625301D01*
X18185883Y15611051D01*
X18203607Y15594987D01*
X18219671Y15577263D01*
X18233921Y15558050D01*
X18246218Y15537533D01*
X18256446Y15515909D01*
X18264504Y15493387D01*
X18270316Y15470183D01*
X18273826Y15446522D01*
X18275000Y15422630D01*
X18275000Y14935130D01*
X18273826Y14911238D01*
X18270316Y14887577D01*
X18264504Y14864373D01*
X18256446Y14841851D01*
X18246218Y14820227D01*
X18233921Y14799710D01*
X18219671Y14780497D01*
X18203607Y14762773D01*
X18185883Y14746709D01*
X18166670Y14732459D01*
X18146153Y14720162D01*
X18124529Y14709934D01*
X18102007Y14701876D01*
X18078803Y14696064D01*
X18055142Y14692554D01*
X18031250Y14691380D01*
X17118750Y14691380D01*
X17094858Y14692554D01*
X17071197Y14696064D01*
X17047993Y14701876D01*
X17025471Y14709934D01*
X17003847Y14720162D01*
X16983330Y14732459D01*
X16964117Y14746709D01*
X16946393Y14762773D01*
X16930329Y14780497D01*
X16916079Y14799710D01*
X16903782Y14820227D01*
X16893554Y14841851D01*
X16885496Y14864373D01*
X16879684Y14887577D01*
X16876174Y14911238D01*
X16875000Y14935130D01*
X16875000Y15422630D01*
X16876174Y15446522D01*
X16879684Y15470183D01*
X16885496Y15493387D01*
X16893554Y15515909D01*
X16903782Y15537533D01*
X16916079Y15558050D01*
X16930329Y15577263D01*
X16946393Y15594987D01*
X16964117Y15611051D01*
X16983330Y15625301D01*
X17003847Y15637598D01*
X17025471Y15647826D01*
X17047993Y15655884D01*
X17071197Y15661696D01*
X17094858Y15665206D01*
X17118750Y15666380D01*
X18031250Y15666380D01*
X18055142Y15665206D01*
X18055142Y15665206D01*
G37*
D12*
G04 #@! TD*
G04 #@! TO.P,C3,1*
G04 #@! TO.N,5V*
X17575000Y15178880D03*
D10*
G04 #@! TO.N,GND*
G04 #@! TO.C,C4*
G36*
X28206142Y13790206D02*
X28229803Y13786696D01*
X28253007Y13780884D01*
X28275529Y13772826D01*
X28297153Y13762598D01*
X28317670Y13750301D01*
X28336883Y13736051D01*
X28354607Y13719987D01*
X28370671Y13702263D01*
X28384921Y13683050D01*
X28397218Y13662533D01*
X28407446Y13640909D01*
X28415504Y13618387D01*
X28421316Y13595183D01*
X28424826Y13571522D01*
X28426000Y13547630D01*
X28426000Y13060130D01*
X28424826Y13036238D01*
X28421316Y13012577D01*
X28415504Y12989373D01*
X28407446Y12966851D01*
X28397218Y12945227D01*
X28384921Y12924710D01*
X28370671Y12905497D01*
X28354607Y12887773D01*
X28336883Y12871709D01*
X28317670Y12857459D01*
X28297153Y12845162D01*
X28275529Y12834934D01*
X28253007Y12826876D01*
X28229803Y12821064D01*
X28206142Y12817554D01*
X28182250Y12816380D01*
X27269750Y12816380D01*
X27245858Y12817554D01*
X27222197Y12821064D01*
X27198993Y12826876D01*
X27176471Y12834934D01*
X27154847Y12845162D01*
X27134330Y12857459D01*
X27115117Y12871709D01*
X27097393Y12887773D01*
X27081329Y12905497D01*
X27067079Y12924710D01*
X27054782Y12945227D01*
X27044554Y12966851D01*
X27036496Y12989373D01*
X27030684Y13012577D01*
X27027174Y13036238D01*
X27026000Y13060130D01*
X27026000Y13547630D01*
X27027174Y13571522D01*
X27030684Y13595183D01*
X27036496Y13618387D01*
X27044554Y13640909D01*
X27054782Y13662533D01*
X27067079Y13683050D01*
X27081329Y13702263D01*
X27097393Y13719987D01*
X27115117Y13736051D01*
X27134330Y13750301D01*
X27154847Y13762598D01*
X27176471Y13772826D01*
X27198993Y13780884D01*
X27222197Y13786696D01*
X27245858Y13790206D01*
X27269750Y13791380D01*
X28182250Y13791380D01*
X28206142Y13790206D01*
X28206142Y13790206D01*
G37*
D12*
G04 #@! TD*
G04 #@! TO.P,C4,2*
G04 #@! TO.N,GND*
X27726000Y13303880D03*
D10*
G04 #@! TO.N,3V3*
G04 #@! TO.C,C4*
G36*
X28206142Y15665206D02*
X28229803Y15661696D01*
X28253007Y15655884D01*
X28275529Y15647826D01*
X28297153Y15637598D01*
X28317670Y15625301D01*
X28336883Y15611051D01*
X28354607Y15594987D01*
X28370671Y15577263D01*
X28384921Y15558050D01*
X28397218Y15537533D01*
X28407446Y15515909D01*
X28415504Y15493387D01*
X28421316Y15470183D01*
X28424826Y15446522D01*
X28426000Y15422630D01*
X28426000Y14935130D01*
X28424826Y14911238D01*
X28421316Y14887577D01*
X28415504Y14864373D01*
X28407446Y14841851D01*
X28397218Y14820227D01*
X28384921Y14799710D01*
X28370671Y14780497D01*
X28354607Y14762773D01*
X28336883Y14746709D01*
X28317670Y14732459D01*
X28297153Y14720162D01*
X28275529Y14709934D01*
X28253007Y14701876D01*
X28229803Y14696064D01*
X28206142Y14692554D01*
X28182250Y14691380D01*
X27269750Y14691380D01*
X27245858Y14692554D01*
X27222197Y14696064D01*
X27198993Y14701876D01*
X27176471Y14709934D01*
X27154847Y14720162D01*
X27134330Y14732459D01*
X27115117Y14746709D01*
X27097393Y14762773D01*
X27081329Y14780497D01*
X27067079Y14799710D01*
X27054782Y14820227D01*
X27044554Y14841851D01*
X27036496Y14864373D01*
X27030684Y14887577D01*
X27027174Y14911238D01*
X27026000Y14935130D01*
X27026000Y15422630D01*
X27027174Y15446522D01*
X27030684Y15470183D01*
X27036496Y15493387D01*
X27044554Y15515909D01*
X27054782Y15537533D01*
X27067079Y15558050D01*
X27081329Y15577263D01*
X27097393Y15594987D01*
X27115117Y15611051D01*
X27134330Y15625301D01*
X27154847Y15637598D01*
X27176471Y15647826D01*
X27198993Y15655884D01*
X27222197Y15661696D01*
X27245858Y15665206D01*
X27269750Y15666380D01*
X28182250Y15666380D01*
X28206142Y15665206D01*
X28206142Y15665206D01*
G37*
D12*
G04 #@! TD*
G04 #@! TO.P,C4,1*
G04 #@! TO.N,3V3*
X27726000Y15178880D03*
D10*
G04 #@! TO.N,3V3*
G04 #@! TO.C,C5*
G36*
X34830142Y12698826D02*
X34853803Y12695316D01*
X34877007Y12689504D01*
X34899529Y12681446D01*
X34921153Y12671218D01*
X34941670Y12658921D01*
X34960883Y12644671D01*
X34978607Y12628607D01*
X34994671Y12610883D01*
X35008921Y12591670D01*
X35021218Y12571153D01*
X35031446Y12549529D01*
X35039504Y12527007D01*
X35045316Y12503803D01*
X35048826Y12480142D01*
X35050000Y12456250D01*
X35050000Y11543750D01*
X35048826Y11519858D01*
X35045316Y11496197D01*
X35039504Y11472993D01*
X35031446Y11450471D01*
X35021218Y11428847D01*
X35008921Y11408330D01*
X34994671Y11389117D01*
X34978607Y11371393D01*
X34960883Y11355329D01*
X34941670Y11341079D01*
X34921153Y11328782D01*
X34899529Y11318554D01*
X34877007Y11310496D01*
X34853803Y11304684D01*
X34830142Y11301174D01*
X34806250Y11300000D01*
X34318750Y11300000D01*
X34294858Y11301174D01*
X34271197Y11304684D01*
X34247993Y11310496D01*
X34225471Y11318554D01*
X34203847Y11328782D01*
X34183330Y11341079D01*
X34164117Y11355329D01*
X34146393Y11371393D01*
X34130329Y11389117D01*
X34116079Y11408330D01*
X34103782Y11428847D01*
X34093554Y11450471D01*
X34085496Y11472993D01*
X34079684Y11496197D01*
X34076174Y11519858D01*
X34075000Y11543750D01*
X34075000Y12456250D01*
X34076174Y12480142D01*
X34079684Y12503803D01*
X34085496Y12527007D01*
X34093554Y12549529D01*
X34103782Y12571153D01*
X34116079Y12591670D01*
X34130329Y12610883D01*
X34146393Y12628607D01*
X34164117Y12644671D01*
X34183330Y12658921D01*
X34203847Y12671218D01*
X34225471Y12681446D01*
X34247993Y12689504D01*
X34271197Y12695316D01*
X34294858Y12698826D01*
X34318750Y12700000D01*
X34806250Y12700000D01*
X34830142Y12698826D01*
X34830142Y12698826D01*
G37*
D12*
G04 #@! TD*
G04 #@! TO.P,C5,1*
G04 #@! TO.N,3V3*
X34562500Y12000000D03*
D10*
G04 #@! TO.N,GND*
G04 #@! TO.C,C5*
G36*
X36705142Y12698826D02*
X36728803Y12695316D01*
X36752007Y12689504D01*
X36774529Y12681446D01*
X36796153Y12671218D01*
X36816670Y12658921D01*
X36835883Y12644671D01*
X36853607Y12628607D01*
X36869671Y12610883D01*
X36883921Y12591670D01*
X36896218Y12571153D01*
X36906446Y12549529D01*
X36914504Y12527007D01*
X36920316Y12503803D01*
X36923826Y12480142D01*
X36925000Y12456250D01*
X36925000Y11543750D01*
X36923826Y11519858D01*
X36920316Y11496197D01*
X36914504Y11472993D01*
X36906446Y11450471D01*
X36896218Y11428847D01*
X36883921Y11408330D01*
X36869671Y11389117D01*
X36853607Y11371393D01*
X36835883Y11355329D01*
X36816670Y11341079D01*
X36796153Y11328782D01*
X36774529Y11318554D01*
X36752007Y11310496D01*
X36728803Y11304684D01*
X36705142Y11301174D01*
X36681250Y11300000D01*
X36193750Y11300000D01*
X36169858Y11301174D01*
X36146197Y11304684D01*
X36122993Y11310496D01*
X36100471Y11318554D01*
X36078847Y11328782D01*
X36058330Y11341079D01*
X36039117Y11355329D01*
X36021393Y11371393D01*
X36005329Y11389117D01*
X35991079Y11408330D01*
X35978782Y11428847D01*
X35968554Y11450471D01*
X35960496Y11472993D01*
X35954684Y11496197D01*
X35951174Y11519858D01*
X35950000Y11543750D01*
X35950000Y12456250D01*
X35951174Y12480142D01*
X35954684Y12503803D01*
X35960496Y12527007D01*
X35968554Y12549529D01*
X35978782Y12571153D01*
X35991079Y12591670D01*
X36005329Y12610883D01*
X36021393Y12628607D01*
X36039117Y12644671D01*
X36058330Y12658921D01*
X36078847Y12671218D01*
X36100471Y12681446D01*
X36122993Y12689504D01*
X36146197Y12695316D01*
X36169858Y12698826D01*
X36193750Y12700000D01*
X36681250Y12700000D01*
X36705142Y12698826D01*
X36705142Y12698826D01*
G37*
D12*
G04 #@! TD*
G04 #@! TO.P,C5,2*
G04 #@! TO.N,GND*
X36437500Y12000000D03*
D10*
G04 #@! TO.N,Net-(C6-Pad1)*
G04 #@! TO.C,C6*
G36*
X18349642Y5705826D02*
X18373303Y5702316D01*
X18396507Y5696504D01*
X18419029Y5688446D01*
X18440653Y5678218D01*
X18461170Y5665921D01*
X18480383Y5651671D01*
X18498107Y5635607D01*
X18514171Y5617883D01*
X18528421Y5598670D01*
X18540718Y5578153D01*
X18550946Y5556529D01*
X18559004Y5534007D01*
X18564816Y5510803D01*
X18568326Y5487142D01*
X18569500Y5463250D01*
X18569500Y4550750D01*
X18568326Y4526858D01*
X18564816Y4503197D01*
X18559004Y4479993D01*
X18550946Y4457471D01*
X18540718Y4435847D01*
X18528421Y4415330D01*
X18514171Y4396117D01*
X18498107Y4378393D01*
X18480383Y4362329D01*
X18461170Y4348079D01*
X18440653Y4335782D01*
X18419029Y4325554D01*
X18396507Y4317496D01*
X18373303Y4311684D01*
X18349642Y4308174D01*
X18325750Y4307000D01*
X17838250Y4307000D01*
X17814358Y4308174D01*
X17790697Y4311684D01*
X17767493Y4317496D01*
X17744971Y4325554D01*
X17723347Y4335782D01*
X17702830Y4348079D01*
X17683617Y4362329D01*
X17665893Y4378393D01*
X17649829Y4396117D01*
X17635579Y4415330D01*
X17623282Y4435847D01*
X17613054Y4457471D01*
X17604996Y4479993D01*
X17599184Y4503197D01*
X17595674Y4526858D01*
X17594500Y4550750D01*
X17594500Y5463250D01*
X17595674Y5487142D01*
X17599184Y5510803D01*
X17604996Y5534007D01*
X17613054Y5556529D01*
X17623282Y5578153D01*
X17635579Y5598670D01*
X17649829Y5617883D01*
X17665893Y5635607D01*
X17683617Y5651671D01*
X17702830Y5665921D01*
X17723347Y5678218D01*
X17744971Y5688446D01*
X17767493Y5696504D01*
X17790697Y5702316D01*
X17814358Y5705826D01*
X17838250Y5707000D01*
X18325750Y5707000D01*
X18349642Y5705826D01*
X18349642Y5705826D01*
G37*
D12*
G04 #@! TD*
G04 #@! TO.P,C6,1*
G04 #@! TO.N,Net-(C6-Pad1)*
X18082000Y5007000D03*
D10*
G04 #@! TO.N,GND*
G04 #@! TO.C,C6*
G36*
X16474642Y5705826D02*
X16498303Y5702316D01*
X16521507Y5696504D01*
X16544029Y5688446D01*
X16565653Y5678218D01*
X16586170Y5665921D01*
X16605383Y5651671D01*
X16623107Y5635607D01*
X16639171Y5617883D01*
X16653421Y5598670D01*
X16665718Y5578153D01*
X16675946Y5556529D01*
X16684004Y5534007D01*
X16689816Y5510803D01*
X16693326Y5487142D01*
X16694500Y5463250D01*
X16694500Y4550750D01*
X16693326Y4526858D01*
X16689816Y4503197D01*
X16684004Y4479993D01*
X16675946Y4457471D01*
X16665718Y4435847D01*
X16653421Y4415330D01*
X16639171Y4396117D01*
X16623107Y4378393D01*
X16605383Y4362329D01*
X16586170Y4348079D01*
X16565653Y4335782D01*
X16544029Y4325554D01*
X16521507Y4317496D01*
X16498303Y4311684D01*
X16474642Y4308174D01*
X16450750Y4307000D01*
X15963250Y4307000D01*
X15939358Y4308174D01*
X15915697Y4311684D01*
X15892493Y4317496D01*
X15869971Y4325554D01*
X15848347Y4335782D01*
X15827830Y4348079D01*
X15808617Y4362329D01*
X15790893Y4378393D01*
X15774829Y4396117D01*
X15760579Y4415330D01*
X15748282Y4435847D01*
X15738054Y4457471D01*
X15729996Y4479993D01*
X15724184Y4503197D01*
X15720674Y4526858D01*
X15719500Y4550750D01*
X15719500Y5463250D01*
X15720674Y5487142D01*
X15724184Y5510803D01*
X15729996Y5534007D01*
X15738054Y5556529D01*
X15748282Y5578153D01*
X15760579Y5598670D01*
X15774829Y5617883D01*
X15790893Y5635607D01*
X15808617Y5651671D01*
X15827830Y5665921D01*
X15848347Y5678218D01*
X15869971Y5688446D01*
X15892493Y5696504D01*
X15915697Y5702316D01*
X15939358Y5705826D01*
X15963250Y5707000D01*
X16450750Y5707000D01*
X16474642Y5705826D01*
X16474642Y5705826D01*
G37*
D12*
G04 #@! TD*
G04 #@! TO.P,C6,2*
G04 #@! TO.N,GND*
X16207000Y5007000D03*
D10*
G04 #@! TO.N,5V*
G04 #@! TO.C,C7*
G36*
X10730142Y12498826D02*
X10753803Y12495316D01*
X10777007Y12489504D01*
X10799529Y12481446D01*
X10821153Y12471218D01*
X10841670Y12458921D01*
X10860883Y12444671D01*
X10878607Y12428607D01*
X10894671Y12410883D01*
X10908921Y12391670D01*
X10921218Y12371153D01*
X10931446Y12349529D01*
X10939504Y12327007D01*
X10945316Y12303803D01*
X10948826Y12280142D01*
X10950000Y12256250D01*
X10950000Y11343750D01*
X10948826Y11319858D01*
X10945316Y11296197D01*
X10939504Y11272993D01*
X10931446Y11250471D01*
X10921218Y11228847D01*
X10908921Y11208330D01*
X10894671Y11189117D01*
X10878607Y11171393D01*
X10860883Y11155329D01*
X10841670Y11141079D01*
X10821153Y11128782D01*
X10799529Y11118554D01*
X10777007Y11110496D01*
X10753803Y11104684D01*
X10730142Y11101174D01*
X10706250Y11100000D01*
X10218750Y11100000D01*
X10194858Y11101174D01*
X10171197Y11104684D01*
X10147993Y11110496D01*
X10125471Y11118554D01*
X10103847Y11128782D01*
X10083330Y11141079D01*
X10064117Y11155329D01*
X10046393Y11171393D01*
X10030329Y11189117D01*
X10016079Y11208330D01*
X10003782Y11228847D01*
X9993554Y11250471D01*
X9985496Y11272993D01*
X9979684Y11296197D01*
X9976174Y11319858D01*
X9975000Y11343750D01*
X9975000Y12256250D01*
X9976174Y12280142D01*
X9979684Y12303803D01*
X9985496Y12327007D01*
X9993554Y12349529D01*
X10003782Y12371153D01*
X10016079Y12391670D01*
X10030329Y12410883D01*
X10046393Y12428607D01*
X10064117Y12444671D01*
X10083330Y12458921D01*
X10103847Y12471218D01*
X10125471Y12481446D01*
X10147993Y12489504D01*
X10171197Y12495316D01*
X10194858Y12498826D01*
X10218750Y12500000D01*
X10706250Y12500000D01*
X10730142Y12498826D01*
X10730142Y12498826D01*
G37*
D12*
G04 #@! TD*
G04 #@! TO.P,C7,1*
G04 #@! TO.N,5V*
X10462500Y11800000D03*
D10*
G04 #@! TO.N,GND*
G04 #@! TO.C,C7*
G36*
X12605142Y12498826D02*
X12628803Y12495316D01*
X12652007Y12489504D01*
X12674529Y12481446D01*
X12696153Y12471218D01*
X12716670Y12458921D01*
X12735883Y12444671D01*
X12753607Y12428607D01*
X12769671Y12410883D01*
X12783921Y12391670D01*
X12796218Y12371153D01*
X12806446Y12349529D01*
X12814504Y12327007D01*
X12820316Y12303803D01*
X12823826Y12280142D01*
X12825000Y12256250D01*
X12825000Y11343750D01*
X12823826Y11319858D01*
X12820316Y11296197D01*
X12814504Y11272993D01*
X12806446Y11250471D01*
X12796218Y11228847D01*
X12783921Y11208330D01*
X12769671Y11189117D01*
X12753607Y11171393D01*
X12735883Y11155329D01*
X12716670Y11141079D01*
X12696153Y11128782D01*
X12674529Y11118554D01*
X12652007Y11110496D01*
X12628803Y11104684D01*
X12605142Y11101174D01*
X12581250Y11100000D01*
X12093750Y11100000D01*
X12069858Y11101174D01*
X12046197Y11104684D01*
X12022993Y11110496D01*
X12000471Y11118554D01*
X11978847Y11128782D01*
X11958330Y11141079D01*
X11939117Y11155329D01*
X11921393Y11171393D01*
X11905329Y11189117D01*
X11891079Y11208330D01*
X11878782Y11228847D01*
X11868554Y11250471D01*
X11860496Y11272993D01*
X11854684Y11296197D01*
X11851174Y11319858D01*
X11850000Y11343750D01*
X11850000Y12256250D01*
X11851174Y12280142D01*
X11854684Y12303803D01*
X11860496Y12327007D01*
X11868554Y12349529D01*
X11878782Y12371153D01*
X11891079Y12391670D01*
X11905329Y12410883D01*
X11921393Y12428607D01*
X11939117Y12444671D01*
X11958330Y12458921D01*
X11978847Y12471218D01*
X12000471Y12481446D01*
X12022993Y12489504D01*
X12046197Y12495316D01*
X12069858Y12498826D01*
X12093750Y12500000D01*
X12581250Y12500000D01*
X12605142Y12498826D01*
X12605142Y12498826D01*
G37*
D12*
G04 #@! TD*
G04 #@! TO.P,C7,2*
G04 #@! TO.N,GND*
X12337500Y11800000D03*
D22*
G04 #@! TO.P,D1,1*
G04 #@! TO.N,Net-(D1-Pad1)*
X13200000Y15075000D03*
G04 #@! TO.P,D1,2*
G04 #@! TO.N,VBUS*
X10400000Y15075000D03*
G04 #@! TD*
D10*
G04 #@! TO.N,3V3*
G04 #@! TO.C,R1*
G36*
X34835845Y14190206D02*
X34859506Y14186696D01*
X34882710Y14180884D01*
X34905232Y14172826D01*
X34926856Y14162598D01*
X34947373Y14150301D01*
X34966586Y14136051D01*
X34984310Y14119987D01*
X35000374Y14102263D01*
X35014624Y14083050D01*
X35026921Y14062533D01*
X35037149Y14040909D01*
X35045207Y14018387D01*
X35051019Y13995183D01*
X35054529Y13971522D01*
X35055703Y13947630D01*
X35055703Y13460130D01*
X35054529Y13436238D01*
X35051019Y13412577D01*
X35045207Y13389373D01*
X35037149Y13366851D01*
X35026921Y13345227D01*
X35014624Y13324710D01*
X35000374Y13305497D01*
X34984310Y13287773D01*
X34966586Y13271709D01*
X34947373Y13257459D01*
X34926856Y13245162D01*
X34905232Y13234934D01*
X34882710Y13226876D01*
X34859506Y13221064D01*
X34835845Y13217554D01*
X34811953Y13216380D01*
X33899453Y13216380D01*
X33875561Y13217554D01*
X33851900Y13221064D01*
X33828696Y13226876D01*
X33806174Y13234934D01*
X33784550Y13245162D01*
X33764033Y13257459D01*
X33744820Y13271709D01*
X33727096Y13287773D01*
X33711032Y13305497D01*
X33696782Y13324710D01*
X33684485Y13345227D01*
X33674257Y13366851D01*
X33666199Y13389373D01*
X33660387Y13412577D01*
X33656877Y13436238D01*
X33655703Y13460130D01*
X33655703Y13947630D01*
X33656877Y13971522D01*
X33660387Y13995183D01*
X33666199Y14018387D01*
X33674257Y14040909D01*
X33684485Y14062533D01*
X33696782Y14083050D01*
X33711032Y14102263D01*
X33727096Y14119987D01*
X33744820Y14136051D01*
X33764033Y14150301D01*
X33784550Y14162598D01*
X33806174Y14172826D01*
X33828696Y14180884D01*
X33851900Y14186696D01*
X33875561Y14190206D01*
X33899453Y14191380D01*
X34811953Y14191380D01*
X34835845Y14190206D01*
X34835845Y14190206D01*
G37*
D12*
G04 #@! TD*
G04 #@! TO.P,R1,1*
G04 #@! TO.N,3V3*
X34355703Y13703880D03*
D10*
G04 #@! TO.N,Net-(R1-Pad2)*
G04 #@! TO.C,R1*
G36*
X34835845Y16065206D02*
X34859506Y16061696D01*
X34882710Y16055884D01*
X34905232Y16047826D01*
X34926856Y16037598D01*
X34947373Y16025301D01*
X34966586Y16011051D01*
X34984310Y15994987D01*
X35000374Y15977263D01*
X35014624Y15958050D01*
X35026921Y15937533D01*
X35037149Y15915909D01*
X35045207Y15893387D01*
X35051019Y15870183D01*
X35054529Y15846522D01*
X35055703Y15822630D01*
X35055703Y15335130D01*
X35054529Y15311238D01*
X35051019Y15287577D01*
X35045207Y15264373D01*
X35037149Y15241851D01*
X35026921Y15220227D01*
X35014624Y15199710D01*
X35000374Y15180497D01*
X34984310Y15162773D01*
X34966586Y15146709D01*
X34947373Y15132459D01*
X34926856Y15120162D01*
X34905232Y15109934D01*
X34882710Y15101876D01*
X34859506Y15096064D01*
X34835845Y15092554D01*
X34811953Y15091380D01*
X33899453Y15091380D01*
X33875561Y15092554D01*
X33851900Y15096064D01*
X33828696Y15101876D01*
X33806174Y15109934D01*
X33784550Y15120162D01*
X33764033Y15132459D01*
X33744820Y15146709D01*
X33727096Y15162773D01*
X33711032Y15180497D01*
X33696782Y15199710D01*
X33684485Y15220227D01*
X33674257Y15241851D01*
X33666199Y15264373D01*
X33660387Y15287577D01*
X33656877Y15311238D01*
X33655703Y15335130D01*
X33655703Y15822630D01*
X33656877Y15846522D01*
X33660387Y15870183D01*
X33666199Y15893387D01*
X33674257Y15915909D01*
X33684485Y15937533D01*
X33696782Y15958050D01*
X33711032Y15977263D01*
X33727096Y15994987D01*
X33744820Y16011051D01*
X33764033Y16025301D01*
X33784550Y16037598D01*
X33806174Y16047826D01*
X33828696Y16055884D01*
X33851900Y16061696D01*
X33875561Y16065206D01*
X33899453Y16066380D01*
X34811953Y16066380D01*
X34835845Y16065206D01*
X34835845Y16065206D01*
G37*
D12*
G04 #@! TD*
G04 #@! TO.P,R1,2*
G04 #@! TO.N,Net-(R1-Pad2)*
X34355703Y15578880D03*
D10*
G04 #@! TO.N,Net-(R2-Pad1)*
G04 #@! TO.C,R2*
G36*
X32835845Y14190206D02*
X32859506Y14186696D01*
X32882710Y14180884D01*
X32905232Y14172826D01*
X32926856Y14162598D01*
X32947373Y14150301D01*
X32966586Y14136051D01*
X32984310Y14119987D01*
X33000374Y14102263D01*
X33014624Y14083050D01*
X33026921Y14062533D01*
X33037149Y14040909D01*
X33045207Y14018387D01*
X33051019Y13995183D01*
X33054529Y13971522D01*
X33055703Y13947630D01*
X33055703Y13460130D01*
X33054529Y13436238D01*
X33051019Y13412577D01*
X33045207Y13389373D01*
X33037149Y13366851D01*
X33026921Y13345227D01*
X33014624Y13324710D01*
X33000374Y13305497D01*
X32984310Y13287773D01*
X32966586Y13271709D01*
X32947373Y13257459D01*
X32926856Y13245162D01*
X32905232Y13234934D01*
X32882710Y13226876D01*
X32859506Y13221064D01*
X32835845Y13217554D01*
X32811953Y13216380D01*
X31899453Y13216380D01*
X31875561Y13217554D01*
X31851900Y13221064D01*
X31828696Y13226876D01*
X31806174Y13234934D01*
X31784550Y13245162D01*
X31764033Y13257459D01*
X31744820Y13271709D01*
X31727096Y13287773D01*
X31711032Y13305497D01*
X31696782Y13324710D01*
X31684485Y13345227D01*
X31674257Y13366851D01*
X31666199Y13389373D01*
X31660387Y13412577D01*
X31656877Y13436238D01*
X31655703Y13460130D01*
X31655703Y13947630D01*
X31656877Y13971522D01*
X31660387Y13995183D01*
X31666199Y14018387D01*
X31674257Y14040909D01*
X31684485Y14062533D01*
X31696782Y14083050D01*
X31711032Y14102263D01*
X31727096Y14119987D01*
X31744820Y14136051D01*
X31764033Y14150301D01*
X31784550Y14162598D01*
X31806174Y14172826D01*
X31828696Y14180884D01*
X31851900Y14186696D01*
X31875561Y14190206D01*
X31899453Y14191380D01*
X32811953Y14191380D01*
X32835845Y14190206D01*
X32835845Y14190206D01*
G37*
D12*
G04 #@! TD*
G04 #@! TO.P,R2,1*
G04 #@! TO.N,Net-(R2-Pad1)*
X32355703Y13703880D03*
D10*
G04 #@! TO.N,Net-(R2-Pad2)*
G04 #@! TO.C,R2*
G36*
X32835845Y16065206D02*
X32859506Y16061696D01*
X32882710Y16055884D01*
X32905232Y16047826D01*
X32926856Y16037598D01*
X32947373Y16025301D01*
X32966586Y16011051D01*
X32984310Y15994987D01*
X33000374Y15977263D01*
X33014624Y15958050D01*
X33026921Y15937533D01*
X33037149Y15915909D01*
X33045207Y15893387D01*
X33051019Y15870183D01*
X33054529Y15846522D01*
X33055703Y15822630D01*
X33055703Y15335130D01*
X33054529Y15311238D01*
X33051019Y15287577D01*
X33045207Y15264373D01*
X33037149Y15241851D01*
X33026921Y15220227D01*
X33014624Y15199710D01*
X33000374Y15180497D01*
X32984310Y15162773D01*
X32966586Y15146709D01*
X32947373Y15132459D01*
X32926856Y15120162D01*
X32905232Y15109934D01*
X32882710Y15101876D01*
X32859506Y15096064D01*
X32835845Y15092554D01*
X32811953Y15091380D01*
X31899453Y15091380D01*
X31875561Y15092554D01*
X31851900Y15096064D01*
X31828696Y15101876D01*
X31806174Y15109934D01*
X31784550Y15120162D01*
X31764033Y15132459D01*
X31744820Y15146709D01*
X31727096Y15162773D01*
X31711032Y15180497D01*
X31696782Y15199710D01*
X31684485Y15220227D01*
X31674257Y15241851D01*
X31666199Y15264373D01*
X31660387Y15287577D01*
X31656877Y15311238D01*
X31655703Y15335130D01*
X31655703Y15822630D01*
X31656877Y15846522D01*
X31660387Y15870183D01*
X31666199Y15893387D01*
X31674257Y15915909D01*
X31684485Y15937533D01*
X31696782Y15958050D01*
X31711032Y15977263D01*
X31727096Y15994987D01*
X31744820Y16011051D01*
X31764033Y16025301D01*
X31784550Y16037598D01*
X31806174Y16047826D01*
X31828696Y16055884D01*
X31851900Y16061696D01*
X31875561Y16065206D01*
X31899453Y16066380D01*
X32811953Y16066380D01*
X32835845Y16065206D01*
X32835845Y16065206D01*
G37*
D12*
G04 #@! TD*
G04 #@! TO.P,R2,2*
G04 #@! TO.N,Net-(R2-Pad2)*
X32355703Y15578880D03*
D10*
G04 #@! TO.N,3V3*
G04 #@! TO.C,R3*
G36*
X36835845Y14190206D02*
X36859506Y14186696D01*
X36882710Y14180884D01*
X36905232Y14172826D01*
X36926856Y14162598D01*
X36947373Y14150301D01*
X36966586Y14136051D01*
X36984310Y14119987D01*
X37000374Y14102263D01*
X37014624Y14083050D01*
X37026921Y14062533D01*
X37037149Y14040909D01*
X37045207Y14018387D01*
X37051019Y13995183D01*
X37054529Y13971522D01*
X37055703Y13947630D01*
X37055703Y13460130D01*
X37054529Y13436238D01*
X37051019Y13412577D01*
X37045207Y13389373D01*
X37037149Y13366851D01*
X37026921Y13345227D01*
X37014624Y13324710D01*
X37000374Y13305497D01*
X36984310Y13287773D01*
X36966586Y13271709D01*
X36947373Y13257459D01*
X36926856Y13245162D01*
X36905232Y13234934D01*
X36882710Y13226876D01*
X36859506Y13221064D01*
X36835845Y13217554D01*
X36811953Y13216380D01*
X35899453Y13216380D01*
X35875561Y13217554D01*
X35851900Y13221064D01*
X35828696Y13226876D01*
X35806174Y13234934D01*
X35784550Y13245162D01*
X35764033Y13257459D01*
X35744820Y13271709D01*
X35727096Y13287773D01*
X35711032Y13305497D01*
X35696782Y13324710D01*
X35684485Y13345227D01*
X35674257Y13366851D01*
X35666199Y13389373D01*
X35660387Y13412577D01*
X35656877Y13436238D01*
X35655703Y13460130D01*
X35655703Y13947630D01*
X35656877Y13971522D01*
X35660387Y13995183D01*
X35666199Y14018387D01*
X35674257Y14040909D01*
X35684485Y14062533D01*
X35696782Y14083050D01*
X35711032Y14102263D01*
X35727096Y14119987D01*
X35744820Y14136051D01*
X35764033Y14150301D01*
X35784550Y14162598D01*
X35806174Y14172826D01*
X35828696Y14180884D01*
X35851900Y14186696D01*
X35875561Y14190206D01*
X35899453Y14191380D01*
X36811953Y14191380D01*
X36835845Y14190206D01*
X36835845Y14190206D01*
G37*
D12*
G04 #@! TD*
G04 #@! TO.P,R3,1*
G04 #@! TO.N,3V3*
X36355703Y13703880D03*
D10*
G04 #@! TO.N,Net-(R2-Pad1)*
G04 #@! TO.C,R3*
G36*
X36835845Y16065206D02*
X36859506Y16061696D01*
X36882710Y16055884D01*
X36905232Y16047826D01*
X36926856Y16037598D01*
X36947373Y16025301D01*
X36966586Y16011051D01*
X36984310Y15994987D01*
X37000374Y15977263D01*
X37014624Y15958050D01*
X37026921Y15937533D01*
X37037149Y15915909D01*
X37045207Y15893387D01*
X37051019Y15870183D01*
X37054529Y15846522D01*
X37055703Y15822630D01*
X37055703Y15335130D01*
X37054529Y15311238D01*
X37051019Y15287577D01*
X37045207Y15264373D01*
X37037149Y15241851D01*
X37026921Y15220227D01*
X37014624Y15199710D01*
X37000374Y15180497D01*
X36984310Y15162773D01*
X36966586Y15146709D01*
X36947373Y15132459D01*
X36926856Y15120162D01*
X36905232Y15109934D01*
X36882710Y15101876D01*
X36859506Y15096064D01*
X36835845Y15092554D01*
X36811953Y15091380D01*
X35899453Y15091380D01*
X35875561Y15092554D01*
X35851900Y15096064D01*
X35828696Y15101876D01*
X35806174Y15109934D01*
X35784550Y15120162D01*
X35764033Y15132459D01*
X35744820Y15146709D01*
X35727096Y15162773D01*
X35711032Y15180497D01*
X35696782Y15199710D01*
X35684485Y15220227D01*
X35674257Y15241851D01*
X35666199Y15264373D01*
X35660387Y15287577D01*
X35656877Y15311238D01*
X35655703Y15335130D01*
X35655703Y15822630D01*
X35656877Y15846522D01*
X35660387Y15870183D01*
X35666199Y15893387D01*
X35674257Y15915909D01*
X35684485Y15937533D01*
X35696782Y15958050D01*
X35711032Y15977263D01*
X35727096Y15994987D01*
X35744820Y16011051D01*
X35764033Y16025301D01*
X35784550Y16037598D01*
X35806174Y16047826D01*
X35828696Y16055884D01*
X35851900Y16061696D01*
X35875561Y16065206D01*
X35899453Y16066380D01*
X36811953Y16066380D01*
X36835845Y16065206D01*
X36835845Y16065206D01*
G37*
D12*
G04 #@! TD*
G04 #@! TO.P,R3,2*
G04 #@! TO.N,Net-(R2-Pad1)*
X36355703Y15578880D03*
D10*
G04 #@! TO.N,GND*
G04 #@! TO.C,R4*
G36*
X22619142Y6086826D02*
X22642803Y6083316D01*
X22666007Y6077504D01*
X22688529Y6069446D01*
X22710153Y6059218D01*
X22730670Y6046921D01*
X22749883Y6032671D01*
X22767607Y6016607D01*
X22783671Y5998883D01*
X22797921Y5979670D01*
X22810218Y5959153D01*
X22820446Y5937529D01*
X22828504Y5915007D01*
X22834316Y5891803D01*
X22837826Y5868142D01*
X22839000Y5844250D01*
X22839000Y4931750D01*
X22837826Y4907858D01*
X22834316Y4884197D01*
X22828504Y4860993D01*
X22820446Y4838471D01*
X22810218Y4816847D01*
X22797921Y4796330D01*
X22783671Y4777117D01*
X22767607Y4759393D01*
X22749883Y4743329D01*
X22730670Y4729079D01*
X22710153Y4716782D01*
X22688529Y4706554D01*
X22666007Y4698496D01*
X22642803Y4692684D01*
X22619142Y4689174D01*
X22595250Y4688000D01*
X22107750Y4688000D01*
X22083858Y4689174D01*
X22060197Y4692684D01*
X22036993Y4698496D01*
X22014471Y4706554D01*
X21992847Y4716782D01*
X21972330Y4729079D01*
X21953117Y4743329D01*
X21935393Y4759393D01*
X21919329Y4777117D01*
X21905079Y4796330D01*
X21892782Y4816847D01*
X21882554Y4838471D01*
X21874496Y4860993D01*
X21868684Y4884197D01*
X21865174Y4907858D01*
X21864000Y4931750D01*
X21864000Y5844250D01*
X21865174Y5868142D01*
X21868684Y5891803D01*
X21874496Y5915007D01*
X21882554Y5937529D01*
X21892782Y5959153D01*
X21905079Y5979670D01*
X21919329Y5998883D01*
X21935393Y6016607D01*
X21953117Y6032671D01*
X21972330Y6046921D01*
X21992847Y6059218D01*
X22014471Y6069446D01*
X22036993Y6077504D01*
X22060197Y6083316D01*
X22083858Y6086826D01*
X22107750Y6088000D01*
X22595250Y6088000D01*
X22619142Y6086826D01*
X22619142Y6086826D01*
G37*
D12*
G04 #@! TD*
G04 #@! TO.P,R4,2*
G04 #@! TO.N,GND*
X22351500Y5388000D03*
D10*
G04 #@! TO.N,Net-(R4-Pad1)*
G04 #@! TO.C,R4*
G36*
X24494142Y6086826D02*
X24517803Y6083316D01*
X24541007Y6077504D01*
X24563529Y6069446D01*
X24585153Y6059218D01*
X24605670Y6046921D01*
X24624883Y6032671D01*
X24642607Y6016607D01*
X24658671Y5998883D01*
X24672921Y5979670D01*
X24685218Y5959153D01*
X24695446Y5937529D01*
X24703504Y5915007D01*
X24709316Y5891803D01*
X24712826Y5868142D01*
X24714000Y5844250D01*
X24714000Y4931750D01*
X24712826Y4907858D01*
X24709316Y4884197D01*
X24703504Y4860993D01*
X24695446Y4838471D01*
X24685218Y4816847D01*
X24672921Y4796330D01*
X24658671Y4777117D01*
X24642607Y4759393D01*
X24624883Y4743329D01*
X24605670Y4729079D01*
X24585153Y4716782D01*
X24563529Y4706554D01*
X24541007Y4698496D01*
X24517803Y4692684D01*
X24494142Y4689174D01*
X24470250Y4688000D01*
X23982750Y4688000D01*
X23958858Y4689174D01*
X23935197Y4692684D01*
X23911993Y4698496D01*
X23889471Y4706554D01*
X23867847Y4716782D01*
X23847330Y4729079D01*
X23828117Y4743329D01*
X23810393Y4759393D01*
X23794329Y4777117D01*
X23780079Y4796330D01*
X23767782Y4816847D01*
X23757554Y4838471D01*
X23749496Y4860993D01*
X23743684Y4884197D01*
X23740174Y4907858D01*
X23739000Y4931750D01*
X23739000Y5844250D01*
X23740174Y5868142D01*
X23743684Y5891803D01*
X23749496Y5915007D01*
X23757554Y5937529D01*
X23767782Y5959153D01*
X23780079Y5979670D01*
X23794329Y5998883D01*
X23810393Y6016607D01*
X23828117Y6032671D01*
X23847330Y6046921D01*
X23867847Y6059218D01*
X23889471Y6069446D01*
X23911993Y6077504D01*
X23935197Y6083316D01*
X23958858Y6086826D01*
X23982750Y6088000D01*
X24470250Y6088000D01*
X24494142Y6086826D01*
X24494142Y6086826D01*
G37*
D12*
G04 #@! TD*
G04 #@! TO.P,R4,1*
G04 #@! TO.N,Net-(R4-Pad1)*
X24226500Y5388000D03*
D10*
G04 #@! TO.N,Net-(R5-Pad2)*
G04 #@! TO.C,R5*
G36*
X26048142Y6086826D02*
X26071803Y6083316D01*
X26095007Y6077504D01*
X26117529Y6069446D01*
X26139153Y6059218D01*
X26159670Y6046921D01*
X26178883Y6032671D01*
X26196607Y6016607D01*
X26212671Y5998883D01*
X26226921Y5979670D01*
X26239218Y5959153D01*
X26249446Y5937529D01*
X26257504Y5915007D01*
X26263316Y5891803D01*
X26266826Y5868142D01*
X26268000Y5844250D01*
X26268000Y4931750D01*
X26266826Y4907858D01*
X26263316Y4884197D01*
X26257504Y4860993D01*
X26249446Y4838471D01*
X26239218Y4816847D01*
X26226921Y4796330D01*
X26212671Y4777117D01*
X26196607Y4759393D01*
X26178883Y4743329D01*
X26159670Y4729079D01*
X26139153Y4716782D01*
X26117529Y4706554D01*
X26095007Y4698496D01*
X26071803Y4692684D01*
X26048142Y4689174D01*
X26024250Y4688000D01*
X25536750Y4688000D01*
X25512858Y4689174D01*
X25489197Y4692684D01*
X25465993Y4698496D01*
X25443471Y4706554D01*
X25421847Y4716782D01*
X25401330Y4729079D01*
X25382117Y4743329D01*
X25364393Y4759393D01*
X25348329Y4777117D01*
X25334079Y4796330D01*
X25321782Y4816847D01*
X25311554Y4838471D01*
X25303496Y4860993D01*
X25297684Y4884197D01*
X25294174Y4907858D01*
X25293000Y4931750D01*
X25293000Y5844250D01*
X25294174Y5868142D01*
X25297684Y5891803D01*
X25303496Y5915007D01*
X25311554Y5937529D01*
X25321782Y5959153D01*
X25334079Y5979670D01*
X25348329Y5998883D01*
X25364393Y6016607D01*
X25382117Y6032671D01*
X25401330Y6046921D01*
X25421847Y6059218D01*
X25443471Y6069446D01*
X25465993Y6077504D01*
X25489197Y6083316D01*
X25512858Y6086826D01*
X25536750Y6088000D01*
X26024250Y6088000D01*
X26048142Y6086826D01*
X26048142Y6086826D01*
G37*
D12*
G04 #@! TD*
G04 #@! TO.P,R5,2*
G04 #@! TO.N,Net-(R5-Pad2)*
X25780500Y5388000D03*
D10*
G04 #@! TO.N,3V3*
G04 #@! TO.C,R5*
G36*
X27923142Y6086826D02*
X27946803Y6083316D01*
X27970007Y6077504D01*
X27992529Y6069446D01*
X28014153Y6059218D01*
X28034670Y6046921D01*
X28053883Y6032671D01*
X28071607Y6016607D01*
X28087671Y5998883D01*
X28101921Y5979670D01*
X28114218Y5959153D01*
X28124446Y5937529D01*
X28132504Y5915007D01*
X28138316Y5891803D01*
X28141826Y5868142D01*
X28143000Y5844250D01*
X28143000Y4931750D01*
X28141826Y4907858D01*
X28138316Y4884197D01*
X28132504Y4860993D01*
X28124446Y4838471D01*
X28114218Y4816847D01*
X28101921Y4796330D01*
X28087671Y4777117D01*
X28071607Y4759393D01*
X28053883Y4743329D01*
X28034670Y4729079D01*
X28014153Y4716782D01*
X27992529Y4706554D01*
X27970007Y4698496D01*
X27946803Y4692684D01*
X27923142Y4689174D01*
X27899250Y4688000D01*
X27411750Y4688000D01*
X27387858Y4689174D01*
X27364197Y4692684D01*
X27340993Y4698496D01*
X27318471Y4706554D01*
X27296847Y4716782D01*
X27276330Y4729079D01*
X27257117Y4743329D01*
X27239393Y4759393D01*
X27223329Y4777117D01*
X27209079Y4796330D01*
X27196782Y4816847D01*
X27186554Y4838471D01*
X27178496Y4860993D01*
X27172684Y4884197D01*
X27169174Y4907858D01*
X27168000Y4931750D01*
X27168000Y5844250D01*
X27169174Y5868142D01*
X27172684Y5891803D01*
X27178496Y5915007D01*
X27186554Y5937529D01*
X27196782Y5959153D01*
X27209079Y5979670D01*
X27223329Y5998883D01*
X27239393Y6016607D01*
X27257117Y6032671D01*
X27276330Y6046921D01*
X27296847Y6059218D01*
X27318471Y6069446D01*
X27340993Y6077504D01*
X27364197Y6083316D01*
X27387858Y6086826D01*
X27411750Y6088000D01*
X27899250Y6088000D01*
X27923142Y6086826D01*
X27923142Y6086826D01*
G37*
D12*
G04 #@! TD*
G04 #@! TO.P,R5,1*
G04 #@! TO.N,3V3*
X27655500Y5388000D03*
D10*
G04 #@! TO.N,SDA*
G04 #@! TO.C,R6*
G36*
X29701142Y9896826D02*
X29724803Y9893316D01*
X29748007Y9887504D01*
X29770529Y9879446D01*
X29792153Y9869218D01*
X29812670Y9856921D01*
X29831883Y9842671D01*
X29849607Y9826607D01*
X29865671Y9808883D01*
X29879921Y9789670D01*
X29892218Y9769153D01*
X29902446Y9747529D01*
X29910504Y9725007D01*
X29916316Y9701803D01*
X29919826Y9678142D01*
X29921000Y9654250D01*
X29921000Y8741750D01*
X29919826Y8717858D01*
X29916316Y8694197D01*
X29910504Y8670993D01*
X29902446Y8648471D01*
X29892218Y8626847D01*
X29879921Y8606330D01*
X29865671Y8587117D01*
X29849607Y8569393D01*
X29831883Y8553329D01*
X29812670Y8539079D01*
X29792153Y8526782D01*
X29770529Y8516554D01*
X29748007Y8508496D01*
X29724803Y8502684D01*
X29701142Y8499174D01*
X29677250Y8498000D01*
X29189750Y8498000D01*
X29165858Y8499174D01*
X29142197Y8502684D01*
X29118993Y8508496D01*
X29096471Y8516554D01*
X29074847Y8526782D01*
X29054330Y8539079D01*
X29035117Y8553329D01*
X29017393Y8569393D01*
X29001329Y8587117D01*
X28987079Y8606330D01*
X28974782Y8626847D01*
X28964554Y8648471D01*
X28956496Y8670993D01*
X28950684Y8694197D01*
X28947174Y8717858D01*
X28946000Y8741750D01*
X28946000Y9654250D01*
X28947174Y9678142D01*
X28950684Y9701803D01*
X28956496Y9725007D01*
X28964554Y9747529D01*
X28974782Y9769153D01*
X28987079Y9789670D01*
X29001329Y9808883D01*
X29017393Y9826607D01*
X29035117Y9842671D01*
X29054330Y9856921D01*
X29074847Y9869218D01*
X29096471Y9879446D01*
X29118993Y9887504D01*
X29142197Y9893316D01*
X29165858Y9896826D01*
X29189750Y9898000D01*
X29677250Y9898000D01*
X29701142Y9896826D01*
X29701142Y9896826D01*
G37*
D12*
G04 #@! TD*
G04 #@! TO.P,R6,2*
G04 #@! TO.N,SDA*
X29433500Y9198000D03*
D10*
G04 #@! TO.N,3V3*
G04 #@! TO.C,R6*
G36*
X27826142Y9896826D02*
X27849803Y9893316D01*
X27873007Y9887504D01*
X27895529Y9879446D01*
X27917153Y9869218D01*
X27937670Y9856921D01*
X27956883Y9842671D01*
X27974607Y9826607D01*
X27990671Y9808883D01*
X28004921Y9789670D01*
X28017218Y9769153D01*
X28027446Y9747529D01*
X28035504Y9725007D01*
X28041316Y9701803D01*
X28044826Y9678142D01*
X28046000Y9654250D01*
X28046000Y8741750D01*
X28044826Y8717858D01*
X28041316Y8694197D01*
X28035504Y8670993D01*
X28027446Y8648471D01*
X28017218Y8626847D01*
X28004921Y8606330D01*
X27990671Y8587117D01*
X27974607Y8569393D01*
X27956883Y8553329D01*
X27937670Y8539079D01*
X27917153Y8526782D01*
X27895529Y8516554D01*
X27873007Y8508496D01*
X27849803Y8502684D01*
X27826142Y8499174D01*
X27802250Y8498000D01*
X27314750Y8498000D01*
X27290858Y8499174D01*
X27267197Y8502684D01*
X27243993Y8508496D01*
X27221471Y8516554D01*
X27199847Y8526782D01*
X27179330Y8539079D01*
X27160117Y8553329D01*
X27142393Y8569393D01*
X27126329Y8587117D01*
X27112079Y8606330D01*
X27099782Y8626847D01*
X27089554Y8648471D01*
X27081496Y8670993D01*
X27075684Y8694197D01*
X27072174Y8717858D01*
X27071000Y8741750D01*
X27071000Y9654250D01*
X27072174Y9678142D01*
X27075684Y9701803D01*
X27081496Y9725007D01*
X27089554Y9747529D01*
X27099782Y9769153D01*
X27112079Y9789670D01*
X27126329Y9808883D01*
X27142393Y9826607D01*
X27160117Y9842671D01*
X27179330Y9856921D01*
X27199847Y9869218D01*
X27221471Y9879446D01*
X27243993Y9887504D01*
X27267197Y9893316D01*
X27290858Y9896826D01*
X27314750Y9898000D01*
X27802250Y9898000D01*
X27826142Y9896826D01*
X27826142Y9896826D01*
G37*
D12*
G04 #@! TD*
G04 #@! TO.P,R6,1*
G04 #@! TO.N,3V3*
X27558500Y9198000D03*
D10*
G04 #@! TO.N,3V3*
G04 #@! TO.C,R7*
G36*
X27826142Y7991826D02*
X27849803Y7988316D01*
X27873007Y7982504D01*
X27895529Y7974446D01*
X27917153Y7964218D01*
X27937670Y7951921D01*
X27956883Y7937671D01*
X27974607Y7921607D01*
X27990671Y7903883D01*
X28004921Y7884670D01*
X28017218Y7864153D01*
X28027446Y7842529D01*
X28035504Y7820007D01*
X28041316Y7796803D01*
X28044826Y7773142D01*
X28046000Y7749250D01*
X28046000Y6836750D01*
X28044826Y6812858D01*
X28041316Y6789197D01*
X28035504Y6765993D01*
X28027446Y6743471D01*
X28017218Y6721847D01*
X28004921Y6701330D01*
X27990671Y6682117D01*
X27974607Y6664393D01*
X27956883Y6648329D01*
X27937670Y6634079D01*
X27917153Y6621782D01*
X27895529Y6611554D01*
X27873007Y6603496D01*
X27849803Y6597684D01*
X27826142Y6594174D01*
X27802250Y6593000D01*
X27314750Y6593000D01*
X27290858Y6594174D01*
X27267197Y6597684D01*
X27243993Y6603496D01*
X27221471Y6611554D01*
X27199847Y6621782D01*
X27179330Y6634079D01*
X27160117Y6648329D01*
X27142393Y6664393D01*
X27126329Y6682117D01*
X27112079Y6701330D01*
X27099782Y6721847D01*
X27089554Y6743471D01*
X27081496Y6765993D01*
X27075684Y6789197D01*
X27072174Y6812858D01*
X27071000Y6836750D01*
X27071000Y7749250D01*
X27072174Y7773142D01*
X27075684Y7796803D01*
X27081496Y7820007D01*
X27089554Y7842529D01*
X27099782Y7864153D01*
X27112079Y7884670D01*
X27126329Y7903883D01*
X27142393Y7921607D01*
X27160117Y7937671D01*
X27179330Y7951921D01*
X27199847Y7964218D01*
X27221471Y7974446D01*
X27243993Y7982504D01*
X27267197Y7988316D01*
X27290858Y7991826D01*
X27314750Y7993000D01*
X27802250Y7993000D01*
X27826142Y7991826D01*
X27826142Y7991826D01*
G37*
D12*
G04 #@! TD*
G04 #@! TO.P,R7,1*
G04 #@! TO.N,3V3*
X27558500Y7293000D03*
D10*
G04 #@! TO.N,SCL*
G04 #@! TO.C,R7*
G36*
X29701142Y7991826D02*
X29724803Y7988316D01*
X29748007Y7982504D01*
X29770529Y7974446D01*
X29792153Y7964218D01*
X29812670Y7951921D01*
X29831883Y7937671D01*
X29849607Y7921607D01*
X29865671Y7903883D01*
X29879921Y7884670D01*
X29892218Y7864153D01*
X29902446Y7842529D01*
X29910504Y7820007D01*
X29916316Y7796803D01*
X29919826Y7773142D01*
X29921000Y7749250D01*
X29921000Y6836750D01*
X29919826Y6812858D01*
X29916316Y6789197D01*
X29910504Y6765993D01*
X29902446Y6743471D01*
X29892218Y6721847D01*
X29879921Y6701330D01*
X29865671Y6682117D01*
X29849607Y6664393D01*
X29831883Y6648329D01*
X29812670Y6634079D01*
X29792153Y6621782D01*
X29770529Y6611554D01*
X29748007Y6603496D01*
X29724803Y6597684D01*
X29701142Y6594174D01*
X29677250Y6593000D01*
X29189750Y6593000D01*
X29165858Y6594174D01*
X29142197Y6597684D01*
X29118993Y6603496D01*
X29096471Y6611554D01*
X29074847Y6621782D01*
X29054330Y6634079D01*
X29035117Y6648329D01*
X29017393Y6664393D01*
X29001329Y6682117D01*
X28987079Y6701330D01*
X28974782Y6721847D01*
X28964554Y6743471D01*
X28956496Y6765993D01*
X28950684Y6789197D01*
X28947174Y6812858D01*
X28946000Y6836750D01*
X28946000Y7749250D01*
X28947174Y7773142D01*
X28950684Y7796803D01*
X28956496Y7820007D01*
X28964554Y7842529D01*
X28974782Y7864153D01*
X28987079Y7884670D01*
X29001329Y7903883D01*
X29017393Y7921607D01*
X29035117Y7937671D01*
X29054330Y7951921D01*
X29074847Y7964218D01*
X29096471Y7974446D01*
X29118993Y7982504D01*
X29142197Y7988316D01*
X29165858Y7991826D01*
X29189750Y7993000D01*
X29677250Y7993000D01*
X29701142Y7991826D01*
X29701142Y7991826D01*
G37*
D12*
G04 #@! TD*
G04 #@! TO.P,R7,2*
G04 #@! TO.N,SCL*
X29433500Y7293000D03*
D10*
G04 #@! TO.N,Net-(R8-Pad2)*
G04 #@! TO.C,R8*
G36*
X23430142Y9254826D02*
X23453803Y9251316D01*
X23477007Y9245504D01*
X23499529Y9237446D01*
X23521153Y9227218D01*
X23541670Y9214921D01*
X23560883Y9200671D01*
X23578607Y9184607D01*
X23594671Y9166883D01*
X23608921Y9147670D01*
X23621218Y9127153D01*
X23631446Y9105529D01*
X23639504Y9083007D01*
X23645316Y9059803D01*
X23648826Y9036142D01*
X23650000Y9012250D01*
X23650000Y8524750D01*
X23648826Y8500858D01*
X23645316Y8477197D01*
X23639504Y8453993D01*
X23631446Y8431471D01*
X23621218Y8409847D01*
X23608921Y8389330D01*
X23594671Y8370117D01*
X23578607Y8352393D01*
X23560883Y8336329D01*
X23541670Y8322079D01*
X23521153Y8309782D01*
X23499529Y8299554D01*
X23477007Y8291496D01*
X23453803Y8285684D01*
X23430142Y8282174D01*
X23406250Y8281000D01*
X22493750Y8281000D01*
X22469858Y8282174D01*
X22446197Y8285684D01*
X22422993Y8291496D01*
X22400471Y8299554D01*
X22378847Y8309782D01*
X22358330Y8322079D01*
X22339117Y8336329D01*
X22321393Y8352393D01*
X22305329Y8370117D01*
X22291079Y8389330D01*
X22278782Y8409847D01*
X22268554Y8431471D01*
X22260496Y8453993D01*
X22254684Y8477197D01*
X22251174Y8500858D01*
X22250000Y8524750D01*
X22250000Y9012250D01*
X22251174Y9036142D01*
X22254684Y9059803D01*
X22260496Y9083007D01*
X22268554Y9105529D01*
X22278782Y9127153D01*
X22291079Y9147670D01*
X22305329Y9166883D01*
X22321393Y9184607D01*
X22339117Y9200671D01*
X22358330Y9214921D01*
X22378847Y9227218D01*
X22400471Y9237446D01*
X22422993Y9245504D01*
X22446197Y9251316D01*
X22469858Y9254826D01*
X22493750Y9256000D01*
X23406250Y9256000D01*
X23430142Y9254826D01*
X23430142Y9254826D01*
G37*
D12*
G04 #@! TD*
G04 #@! TO.P,R8,2*
G04 #@! TO.N,Net-(R8-Pad2)*
X22950000Y8768500D03*
D10*
G04 #@! TO.N,eTX*
G04 #@! TO.C,R8*
G36*
X23430142Y11129826D02*
X23453803Y11126316D01*
X23477007Y11120504D01*
X23499529Y11112446D01*
X23521153Y11102218D01*
X23541670Y11089921D01*
X23560883Y11075671D01*
X23578607Y11059607D01*
X23594671Y11041883D01*
X23608921Y11022670D01*
X23621218Y11002153D01*
X23631446Y10980529D01*
X23639504Y10958007D01*
X23645316Y10934803D01*
X23648826Y10911142D01*
X23650000Y10887250D01*
X23650000Y10399750D01*
X23648826Y10375858D01*
X23645316Y10352197D01*
X23639504Y10328993D01*
X23631446Y10306471D01*
X23621218Y10284847D01*
X23608921Y10264330D01*
X23594671Y10245117D01*
X23578607Y10227393D01*
X23560883Y10211329D01*
X23541670Y10197079D01*
X23521153Y10184782D01*
X23499529Y10174554D01*
X23477007Y10166496D01*
X23453803Y10160684D01*
X23430142Y10157174D01*
X23406250Y10156000D01*
X22493750Y10156000D01*
X22469858Y10157174D01*
X22446197Y10160684D01*
X22422993Y10166496D01*
X22400471Y10174554D01*
X22378847Y10184782D01*
X22358330Y10197079D01*
X22339117Y10211329D01*
X22321393Y10227393D01*
X22305329Y10245117D01*
X22291079Y10264330D01*
X22278782Y10284847D01*
X22268554Y10306471D01*
X22260496Y10328993D01*
X22254684Y10352197D01*
X22251174Y10375858D01*
X22250000Y10399750D01*
X22250000Y10887250D01*
X22251174Y10911142D01*
X22254684Y10934803D01*
X22260496Y10958007D01*
X22268554Y10980529D01*
X22278782Y11002153D01*
X22291079Y11022670D01*
X22305329Y11041883D01*
X22321393Y11059607D01*
X22339117Y11075671D01*
X22358330Y11089921D01*
X22378847Y11102218D01*
X22400471Y11112446D01*
X22422993Y11120504D01*
X22446197Y11126316D01*
X22469858Y11129826D01*
X22493750Y11131000D01*
X23406250Y11131000D01*
X23430142Y11129826D01*
X23430142Y11129826D01*
G37*
D12*
G04 #@! TD*
G04 #@! TO.P,R8,1*
G04 #@! TO.N,eTX*
X22950000Y10643500D03*
D23*
G04 #@! TO.P,U2,1*
G04 #@! TO.N,GND*
X21654000Y13074000D03*
G04 #@! TO.P,U2,2*
G04 #@! TO.N,3V3*
X21654000Y14974000D03*
G04 #@! TO.P,U2,3*
G04 #@! TO.N,5V*
X23654000Y14024000D03*
G04 #@! TD*
D24*
G04 #@! TO.N,GND*
X37225000Y11950000D03*
X13700500Y11801500D03*
X13700500Y16627500D03*
X31800000Y10750000D03*
X28877000Y11950000D03*
X26900000Y11050000D03*
G04 #@! TO.N,eRX*
X34050000Y5025000D03*
X24686000Y8944000D03*
G04 #@! TO.N,eTX*
X36239335Y5243178D03*
X24800000Y10650000D03*
G04 #@! TD*
D25*
G04 #@! TO.N,3V3*
X34355703Y10121380D02*
X34585703Y9891380D01*
X36400000Y13350000D02*
X36050000Y13700000D01*
X36050000Y13700000D02*
X34350000Y13700000D01*
X27154323Y15040000D02*
X27255703Y15141380D01*
X25956000Y15040000D02*
X27154323Y15040000D01*
X25966000Y15050000D02*
X25956000Y15040000D01*
X30020000Y14786000D02*
X29756000Y15050000D01*
X30020000Y13325500D02*
X30020000Y14786000D01*
X29756000Y15050000D02*
X25966000Y15050000D01*
X21654000Y15056000D02*
X21654000Y14974000D01*
X25776000Y15178880D02*
X25776000Y15347000D01*
X25776000Y15347000D02*
X24940000Y16183000D01*
X23463843Y16183000D02*
X22209217Y17437626D01*
X24940000Y16183000D02*
X23463843Y16183000D01*
X21654000Y14974000D02*
X21826000Y14974000D01*
X22030880Y15178880D02*
X25776000Y15178880D01*
X21826000Y14974000D02*
X22030880Y15178880D01*
X27558500Y9198000D02*
X27558500Y10038500D01*
X27558500Y10038500D02*
X28242000Y10722000D01*
X28242000Y10722000D02*
X30020000Y10722000D01*
X30155000Y12000000D02*
X30020000Y11865000D01*
X34562500Y12000000D02*
X30155000Y12000000D01*
X30020000Y13325500D02*
X30020000Y11865000D01*
X30020000Y11865000D02*
X30020000Y10722000D01*
X34355703Y12206797D02*
X34562500Y12000000D01*
X34355703Y13703880D02*
X34355703Y12206797D01*
X34562500Y10164583D02*
X34585703Y10141380D01*
X34562500Y12000000D02*
X34562500Y10164583D01*
X30020000Y10722000D02*
X30228000Y10722000D01*
X31021000Y9929000D02*
X31021000Y9450000D01*
X30228000Y10722000D02*
X31021000Y9929000D01*
X27400000Y9039500D02*
X27558500Y9198000D01*
X27558500Y7293000D02*
X27400000Y7451500D01*
X27400000Y7451500D02*
X27400000Y9039500D01*
X27400000Y7134500D02*
X27558500Y7293000D01*
X27655500Y5388000D02*
X27400000Y5643500D01*
X27400000Y5643500D02*
X27400000Y7134500D01*
D26*
G04 #@! TO.N,GND*
X4959217Y6577626D02*
X5686843Y5850000D01*
D25*
X36500000Y12000000D02*
X37175000Y12000000D01*
X37175000Y12000000D02*
X37225000Y11950000D01*
D27*
X21021591Y2250000D02*
X22209217Y3437626D01*
X20050000Y2250000D02*
X21021591Y2250000D01*
D26*
X5686843Y5850000D02*
X11350000Y5850000D01*
D25*
X10250000Y9025000D02*
X10880746Y9025000D01*
X11350000Y8555746D02*
X11350000Y5850000D01*
X10880746Y9025000D02*
X11350000Y8555746D01*
X16434217Y9372626D02*
X15359217Y9372626D01*
X12337500Y11800000D02*
X13699000Y11800000D01*
X13699000Y11800000D02*
X13700500Y11801500D01*
X13700500Y18249500D02*
X13450000Y18500000D01*
X13700500Y16627500D02*
X13700500Y18249500D01*
X35855703Y9094297D02*
X37125703Y7824297D01*
X37125703Y7824297D02*
X37125703Y7191380D01*
X36355703Y11541380D02*
X35855703Y11041380D01*
X35855703Y11041380D02*
X35855703Y9094297D01*
X17100000Y10038409D02*
X16434217Y9372626D01*
X17100000Y10815000D02*
X17100000Y10038409D01*
X15715000Y12200000D02*
X17100000Y10815000D01*
X13250000Y12200000D02*
X15715000Y12200000D01*
X12400000Y11800000D02*
X12850000Y11800000D01*
X12850000Y11800000D02*
X13250000Y12200000D01*
D26*
X15669000Y5007000D02*
X15718000Y5007000D01*
X18475000Y2250000D02*
X20050000Y2250000D01*
X12193000Y5007000D02*
X15796000Y5007000D01*
X11350000Y5850000D02*
X12193000Y5007000D01*
D25*
X16434217Y9372626D02*
X16800000Y9006843D01*
X16800000Y5630000D02*
X16177000Y5007000D01*
X16800000Y9006843D02*
X16800000Y5630000D01*
X32321000Y9450000D02*
X32321000Y10229000D01*
X32321000Y10229000D02*
X31800000Y10750000D01*
X25829000Y12500000D02*
X25829000Y13262000D01*
X26900000Y11429000D02*
X25829000Y12500000D01*
X26900000Y11050000D02*
X26900000Y11429000D01*
D26*
X22209217Y5245717D02*
X22351500Y5388000D01*
X22209217Y3437626D02*
X22209217Y5245717D01*
D25*
X21638000Y12212000D02*
X21638000Y13008000D01*
X22050000Y11800000D02*
X21638000Y12212000D01*
X26900000Y11050000D02*
X26150000Y11800000D01*
X26150000Y11800000D02*
X22050000Y11800000D01*
D26*
G04 #@! TO.N,UD+*
X9220000Y8075000D02*
X10250000Y8075000D01*
X8145000Y9150000D02*
X9220000Y8075000D01*
X5209217Y9137626D02*
X5221591Y9150000D01*
X5221591Y9150000D02*
X8145000Y9150000D01*
G04 #@! TO.N,UD-*
X8395000Y11625000D02*
X5221843Y11625000D01*
X5221843Y11625000D02*
X5209217Y11637626D01*
X10250000Y9975000D02*
X10045000Y9975000D01*
X10045000Y9975000D02*
X8395000Y11625000D01*
D25*
G04 #@! TO.N,Net-(R1-Pad2)*
X32459457Y17437626D02*
X32209217Y17437626D01*
X33405703Y16491380D02*
X32459457Y17437626D01*
X33405703Y16241140D02*
X33405703Y16491380D01*
X34355703Y15491380D02*
X34155463Y15491380D01*
X34155463Y15491380D02*
X33405703Y16241140D01*
G04 #@! TO.N,Net-(R2-Pad1)*
X32505703Y13591380D02*
X32355703Y13591380D01*
X36209217Y15687866D02*
X36355703Y15541380D01*
X36355703Y15541380D02*
X36155703Y15541380D01*
X36209217Y17437626D02*
X36209217Y15687866D01*
X36155703Y15541380D02*
X35214323Y14600000D01*
X35214323Y14600000D02*
X33514323Y14600000D01*
X33514323Y14600000D02*
X32505703Y13591380D01*
G04 #@! TO.N,Net-(R4-Pad1)*
X24226500Y3454909D02*
X24209217Y3437626D01*
X24226500Y5388000D02*
X24226500Y3454909D01*
D27*
G04 #@! TO.N,Net-(R5-Pad2)*
X28209217Y1609217D02*
X28209217Y3437626D01*
X27300000Y700000D02*
X28209217Y1609217D01*
X13450000Y2250000D02*
X16350000Y2250000D01*
X17900000Y700000D02*
X27300000Y700000D01*
X16350000Y2250000D02*
X17900000Y700000D01*
D25*
X27779374Y3437626D02*
X28209217Y3437626D01*
X25780500Y5388000D02*
X25829000Y5388000D01*
X25829000Y5388000D02*
X27779374Y3437626D01*
G04 #@! TO.N,SDA*
X30209217Y3437626D02*
X30209217Y4690783D01*
X30209217Y4690783D02*
X28496000Y6404000D01*
X28496000Y8260500D02*
X29433500Y9198000D01*
X28496000Y6404000D02*
X28496000Y8260500D01*
X35855703Y7594297D02*
X35855703Y6941380D01*
X29652000Y9198000D02*
X31021000Y7829000D01*
X29433500Y9198000D02*
X29652000Y9198000D01*
X31021000Y7829000D02*
X31021000Y8371000D01*
X31021000Y8371000D02*
X31200000Y8550000D01*
X31200000Y8550000D02*
X34900000Y8550000D01*
X34900000Y8550000D02*
X35855703Y7594297D01*
G04 #@! TO.N,SCL*
X34585703Y6778703D02*
X34585703Y7191380D01*
X32400000Y7550000D02*
X32300000Y7650000D01*
X32400000Y4450000D02*
X32400000Y7550000D01*
X32209217Y3437626D02*
X32200000Y3446843D01*
X32200000Y4250000D02*
X32400000Y4450000D01*
X32200000Y3446843D02*
X32200000Y4250000D01*
X34585703Y6735703D02*
X34585703Y6941380D01*
X34400000Y6550000D02*
X34585703Y6735703D01*
X32400000Y7550000D02*
X32400000Y6550000D01*
X32400000Y6550000D02*
X34400000Y6550000D01*
X29433500Y7293000D02*
X29433500Y7216500D01*
X30100000Y6550000D02*
X32400000Y6550000D01*
X29433500Y7216500D02*
X30100000Y6550000D01*
G04 #@! TO.N,eRX*
X34050000Y3596843D02*
X34050000Y5025000D01*
X34209217Y3437626D02*
X34050000Y3596843D01*
X21810748Y9706000D02*
X21477374Y9372626D01*
X24178000Y9706000D02*
X21810748Y9706000D01*
X24686000Y8944000D02*
X24686000Y9198000D01*
X21477374Y9372626D02*
X20759217Y9372626D01*
X24686000Y9198000D02*
X24178000Y9706000D01*
G04 #@! TO.N,eTX*
X36239335Y3467744D02*
X36239335Y5243178D01*
X36209217Y3437626D02*
X36239335Y3467744D01*
X24745000Y10595000D02*
X22908000Y10595000D01*
X24800000Y10650000D02*
X24745000Y10595000D01*
D26*
G04 #@! TO.N,VBUS*
X10175000Y14850000D02*
X10400000Y15075000D01*
X8500000Y14850000D02*
X10175000Y14850000D01*
X4959217Y14197626D02*
X7847626Y14197626D01*
X7847626Y14197626D02*
X8500000Y14850000D01*
G04 #@! TO.N,UDP+*
X15350463Y6841380D02*
X15359217Y6832626D01*
D25*
X13067374Y6832626D02*
X15359217Y6832626D01*
X12450000Y7450000D02*
X13067374Y6832626D01*
X12450000Y8075000D02*
X12450000Y7450000D01*
G04 #@! TO.N,UDP-*
X13825000Y9430000D02*
X13825000Y8325000D01*
X14047374Y8102626D02*
X15359217Y8102626D01*
X13280000Y9975000D02*
X13825000Y9430000D01*
X13825000Y8325000D02*
X14047374Y8102626D01*
X12450000Y9975000D02*
X13280000Y9975000D01*
G04 #@! TO.N,Net-(C6-Pad1)*
X20705703Y6779112D02*
X20759217Y6832626D01*
X18209000Y5007000D02*
X17701000Y5007000D01*
X20759217Y6832626D02*
X20034626Y6832626D01*
X20034626Y6832626D02*
X18209000Y5007000D01*
D26*
G04 #@! TO.N,5V*
X17575000Y15178880D02*
X19525000Y15178880D01*
X19543258Y15178880D02*
X20660069Y14062069D01*
X19525000Y15178880D02*
X19543258Y15178880D01*
X20660069Y14062069D02*
X23654000Y14024000D01*
X17331880Y15178880D02*
X17575000Y15178880D01*
X15675000Y13522000D02*
X17331880Y15178880D01*
D25*
X11799998Y9025000D02*
X12450000Y9025000D01*
X11350000Y9474998D02*
X11799998Y9025000D01*
X15400000Y13050000D02*
X15125000Y13325000D01*
X15675000Y13050000D02*
X15400000Y13050000D01*
X10212500Y11962500D02*
X11350000Y10825000D01*
X15125000Y13325000D02*
X11575000Y13325000D01*
X11575000Y13325000D02*
X10212500Y11962500D01*
X11350000Y10825000D02*
X11350000Y9474998D01*
X15555000Y12881000D02*
X15161000Y13275000D01*
X16177000Y12881000D02*
X15555000Y12881000D01*
X18209000Y10849000D02*
X16177000Y12881000D01*
X20759217Y10642626D02*
X20552843Y10849000D01*
X20552843Y10849000D02*
X18209000Y10849000D01*
G04 #@! TO.N,Net-(R8-Pad2)*
X20759217Y8102626D02*
X21939626Y8102626D01*
X22654000Y8817000D02*
X23035000Y8817000D01*
X21939626Y8102626D02*
X22654000Y8817000D01*
D26*
G04 #@! TO.N,Net-(D1-Pad1)*
X13200000Y15075000D02*
X15525000Y15075000D01*
D27*
G04 #@! TO.N,Net-(R2-Pad2)*
X30209217Y18393275D02*
X30209217Y17437626D01*
X20050000Y18700000D02*
X21287636Y19937636D01*
X28664856Y19937636D02*
X30209217Y18393275D01*
X21287636Y19937636D02*
X28664856Y19937636D01*
X20050000Y18500000D02*
X20050000Y18700000D01*
D25*
X32300000Y15600000D02*
X31350000Y15600000D01*
X30209217Y16740783D02*
X30209217Y17437626D01*
X31350000Y15600000D02*
X30209217Y16740783D01*
G04 #@! TD*
D28*
G04 #@! TO.N,GND*
G36*
X29235000Y13402816D02*
X29235000Y13402815D01*
X29235001Y11942320D01*
X29235000Y11942315D01*
X29235000Y11942312D01*
X29219622Y11865000D01*
X29235000Y11787688D01*
X29235000Y11507000D01*
X28319312Y11507000D01*
X28242000Y11522378D01*
X28164688Y11507000D01*
X28164684Y11507000D01*
X27935708Y11461454D01*
X27741591Y11331749D01*
X27741589Y11331747D01*
X27676047Y11287953D01*
X27632253Y11222410D01*
X27058090Y10648247D01*
X26992548Y10604453D01*
X26948754Y10538911D01*
X26948751Y10538908D01*
X26854620Y10398031D01*
X26684584Y10284416D01*
X26491398Y9995294D01*
X26423560Y9654250D01*
X26423560Y8741750D01*
X26491398Y8400706D01*
X26595104Y8245500D01*
X26491398Y8090294D01*
X26423560Y7749250D01*
X26423560Y6836750D01*
X26471294Y6596775D01*
X26365294Y6667602D01*
X26024250Y6735440D01*
X25536750Y6735440D01*
X25195706Y6667602D01*
X25003500Y6539173D01*
X24811294Y6667602D01*
X24470250Y6735440D01*
X23982750Y6735440D01*
X23641706Y6667602D01*
X23352584Y6474416D01*
X23351793Y6473233D01*
X23198698Y6626327D01*
X22965309Y6723000D01*
X22637250Y6723000D01*
X22478500Y6564250D01*
X22478500Y5515000D01*
X22498500Y5515000D01*
X22498500Y5261000D01*
X22478500Y5261000D01*
X22478500Y5241000D01*
X22224500Y5241000D01*
X22224500Y5261000D01*
X21387750Y5261000D01*
X21229000Y5102250D01*
X21229000Y4561690D01*
X21325673Y4328301D01*
X21382608Y4271367D01*
X21163021Y4008439D01*
X21024217Y3564626D01*
X21024217Y3487001D01*
X20954424Y3570637D01*
X20456730Y3831442D01*
X20399039Y3841904D01*
X20177000Y3719915D01*
X20177000Y2377000D01*
X20197000Y2377000D01*
X20197000Y2123000D01*
X20177000Y2123000D01*
X20177000Y2103000D01*
X19923000Y2103000D01*
X19923000Y2123000D01*
X18770529Y2123000D01*
X18618066Y1897114D01*
X18731159Y1535000D01*
X18245868Y1535000D01*
X17177982Y2602886D01*
X18618066Y2602886D01*
X18770529Y2377000D01*
X19923000Y2377000D01*
X19923000Y3719915D01*
X19700961Y3841904D01*
X19643270Y3831442D01*
X19145576Y3570637D01*
X18785572Y3139226D01*
X18618066Y2602886D01*
X17177982Y2602886D01*
X16998587Y2782280D01*
X16952001Y2852001D01*
X16675801Y3036552D01*
X16432237Y3085000D01*
X16432233Y3085000D01*
X16350000Y3101357D01*
X16267767Y3085000D01*
X14751565Y3085000D01*
X14484577Y3484577D01*
X14009909Y3801740D01*
X13450000Y3913113D01*
X12912985Y3806294D01*
X12870238Y4021196D01*
X12793444Y4206592D01*
X12764223Y4277138D01*
X12547451Y4601562D01*
X12427763Y4721250D01*
X15084500Y4721250D01*
X15084500Y4180690D01*
X15181173Y3947301D01*
X15359802Y3768673D01*
X15593191Y3672000D01*
X15921250Y3672000D01*
X16080000Y3830750D01*
X16080000Y4880000D01*
X15243250Y4880000D01*
X15084500Y4721250D01*
X12427763Y4721250D01*
X12377000Y4772012D01*
X12377000Y6412843D01*
X12457625Y6332218D01*
X12501421Y6266673D01*
X12761082Y6093172D01*
X12990058Y6047626D01*
X12990062Y6047626D01*
X13067374Y6032248D01*
X13144686Y6047626D01*
X14167102Y6047626D01*
X14336452Y5934469D01*
X14584217Y5885186D01*
X15105988Y5885186D01*
X15084500Y5833310D01*
X15084500Y5292750D01*
X15243250Y5134000D01*
X16080000Y5134000D01*
X16080000Y5154000D01*
X16334000Y5154000D01*
X16334000Y5134000D01*
X16354000Y5134000D01*
X16354000Y4880000D01*
X16334000Y4880000D01*
X16334000Y3830750D01*
X16492750Y3672000D01*
X16820809Y3672000D01*
X17054198Y3768673D01*
X17207293Y3921767D01*
X17208084Y3920584D01*
X17497206Y3727398D01*
X17838250Y3659560D01*
X18325750Y3659560D01*
X18666794Y3727398D01*
X18955916Y3920584D01*
X19149102Y4209706D01*
X19216940Y4550750D01*
X19216940Y4904783D01*
X20197344Y5885186D01*
X21229000Y5885186D01*
X21229000Y5673750D01*
X21387750Y5515000D01*
X22224500Y5515000D01*
X22224500Y6564250D01*
X22181657Y6607093D01*
X22181657Y7132626D01*
X22139990Y7342102D01*
X22245918Y7363172D01*
X22505579Y7536673D01*
X22549375Y7602218D01*
X22580717Y7633560D01*
X23406250Y7633560D01*
X23747294Y7701398D01*
X24019536Y7883305D01*
X24440343Y7709000D01*
X24931657Y7709000D01*
X25385571Y7897018D01*
X25732982Y8244429D01*
X25921000Y8698343D01*
X25921000Y9189657D01*
X25732982Y9643571D01*
X25636553Y9740000D01*
X25846982Y9950429D01*
X26035000Y10404343D01*
X26035000Y10895657D01*
X25846982Y11349571D01*
X25499571Y11696982D01*
X25045657Y11885000D01*
X24554343Y11885000D01*
X24100429Y11696982D01*
X23967147Y11563700D01*
X23747294Y11710602D01*
X23406250Y11778440D01*
X22493750Y11778440D01*
X22152706Y11710602D01*
X21863584Y11517416D01*
X21849191Y11495875D01*
X21781982Y11540783D01*
X21534217Y11590066D01*
X20851031Y11590066D01*
X20630159Y11634000D01*
X20630155Y11634000D01*
X20552843Y11649378D01*
X20475531Y11634000D01*
X18534158Y11634000D01*
X17986778Y12181380D01*
X18401310Y12181380D01*
X18550000Y12242969D01*
X18698690Y12181380D01*
X19239250Y12181380D01*
X19398000Y12340130D01*
X19398000Y13176880D01*
X17702000Y13176880D01*
X17702000Y13156880D01*
X17448000Y13156880D01*
X17448000Y13176880D01*
X17428000Y13176880D01*
X17428000Y13430880D01*
X17448000Y13430880D01*
X17448000Y13450880D01*
X17702000Y13450880D01*
X17702000Y13430880D01*
X19398000Y13430880D01*
X19398000Y13450880D01*
X19652000Y13450880D01*
X19652000Y13430880D01*
X19672000Y13430880D01*
X19672000Y13176880D01*
X19652000Y13176880D01*
X19652000Y12340130D01*
X19810750Y12181380D01*
X20351310Y12181380D01*
X20584699Y12278053D01*
X20652573Y12345927D01*
X20665673Y12314301D01*
X20844302Y12135673D01*
X21077691Y12039000D01*
X21368250Y12039000D01*
X21527000Y12197750D01*
X21527000Y12947000D01*
X21781000Y12947000D01*
X21781000Y12197750D01*
X21939750Y12039000D01*
X22230309Y12039000D01*
X22463698Y12135673D01*
X22642327Y12314301D01*
X22739000Y12547690D01*
X22739000Y12788250D01*
X22580250Y12947000D01*
X21781000Y12947000D01*
X21527000Y12947000D01*
X21507000Y12947000D01*
X21507000Y13166228D01*
X22770172Y13150167D01*
X22956235Y13025843D01*
X23204000Y12976560D01*
X24104000Y12976560D01*
X24351765Y13025843D01*
X24561809Y13166191D01*
X24568950Y13176878D01*
X24599748Y13176878D01*
X24441000Y13018130D01*
X24441000Y12690071D01*
X24537673Y12456682D01*
X24716301Y12278053D01*
X24949690Y12181380D01*
X25490250Y12181380D01*
X25649000Y12340130D01*
X25649000Y13176880D01*
X25903000Y13176880D01*
X25903000Y12340130D01*
X26061750Y12181380D01*
X26602310Y12181380D01*
X26751000Y12242969D01*
X26899690Y12181380D01*
X27440250Y12181380D01*
X27599000Y12340130D01*
X27599000Y13176880D01*
X27853000Y13176880D01*
X27853000Y12340130D01*
X28011750Y12181380D01*
X28552310Y12181380D01*
X28785699Y12278053D01*
X28964327Y12456682D01*
X29061000Y12690071D01*
X29061000Y13018130D01*
X28902250Y13176880D01*
X27853000Y13176880D01*
X27599000Y13176880D01*
X25903000Y13176880D01*
X25649000Y13176880D01*
X25629000Y13176880D01*
X25629000Y13430880D01*
X25649000Y13430880D01*
X25649000Y13450880D01*
X25903000Y13450880D01*
X25903000Y13430880D01*
X27599000Y13430880D01*
X27599000Y13450880D01*
X27853000Y13450880D01*
X27853000Y13430880D01*
X28902250Y13430880D01*
X29061000Y13589630D01*
X29061000Y13917689D01*
X28964327Y14151078D01*
X28850406Y14265000D01*
X29235001Y14265000D01*
X29235000Y13402816D01*
X29235000Y13402816D01*
G37*
X29235000Y13402816D02*
X29235000Y13402815D01*
X29235001Y11942320D01*
X29235000Y11942315D01*
X29235000Y11942312D01*
X29219622Y11865000D01*
X29235000Y11787688D01*
X29235000Y11507000D01*
X28319312Y11507000D01*
X28242000Y11522378D01*
X28164688Y11507000D01*
X28164684Y11507000D01*
X27935708Y11461454D01*
X27741591Y11331749D01*
X27741589Y11331747D01*
X27676047Y11287953D01*
X27632253Y11222410D01*
X27058090Y10648247D01*
X26992548Y10604453D01*
X26948754Y10538911D01*
X26948751Y10538908D01*
X26854620Y10398031D01*
X26684584Y10284416D01*
X26491398Y9995294D01*
X26423560Y9654250D01*
X26423560Y8741750D01*
X26491398Y8400706D01*
X26595104Y8245500D01*
X26491398Y8090294D01*
X26423560Y7749250D01*
X26423560Y6836750D01*
X26471294Y6596775D01*
X26365294Y6667602D01*
X26024250Y6735440D01*
X25536750Y6735440D01*
X25195706Y6667602D01*
X25003500Y6539173D01*
X24811294Y6667602D01*
X24470250Y6735440D01*
X23982750Y6735440D01*
X23641706Y6667602D01*
X23352584Y6474416D01*
X23351793Y6473233D01*
X23198698Y6626327D01*
X22965309Y6723000D01*
X22637250Y6723000D01*
X22478500Y6564250D01*
X22478500Y5515000D01*
X22498500Y5515000D01*
X22498500Y5261000D01*
X22478500Y5261000D01*
X22478500Y5241000D01*
X22224500Y5241000D01*
X22224500Y5261000D01*
X21387750Y5261000D01*
X21229000Y5102250D01*
X21229000Y4561690D01*
X21325673Y4328301D01*
X21382608Y4271367D01*
X21163021Y4008439D01*
X21024217Y3564626D01*
X21024217Y3487001D01*
X20954424Y3570637D01*
X20456730Y3831442D01*
X20399039Y3841904D01*
X20177000Y3719915D01*
X20177000Y2377000D01*
X20197000Y2377000D01*
X20197000Y2123000D01*
X20177000Y2123000D01*
X20177000Y2103000D01*
X19923000Y2103000D01*
X19923000Y2123000D01*
X18770529Y2123000D01*
X18618066Y1897114D01*
X18731159Y1535000D01*
X18245868Y1535000D01*
X17177982Y2602886D01*
X18618066Y2602886D01*
X18770529Y2377000D01*
X19923000Y2377000D01*
X19923000Y3719915D01*
X19700961Y3841904D01*
X19643270Y3831442D01*
X19145576Y3570637D01*
X18785572Y3139226D01*
X18618066Y2602886D01*
X17177982Y2602886D01*
X16998587Y2782280D01*
X16952001Y2852001D01*
X16675801Y3036552D01*
X16432237Y3085000D01*
X16432233Y3085000D01*
X16350000Y3101357D01*
X16267767Y3085000D01*
X14751565Y3085000D01*
X14484577Y3484577D01*
X14009909Y3801740D01*
X13450000Y3913113D01*
X12912985Y3806294D01*
X12870238Y4021196D01*
X12793444Y4206592D01*
X12764223Y4277138D01*
X12547451Y4601562D01*
X12427763Y4721250D01*
X15084500Y4721250D01*
X15084500Y4180690D01*
X15181173Y3947301D01*
X15359802Y3768673D01*
X15593191Y3672000D01*
X15921250Y3672000D01*
X16080000Y3830750D01*
X16080000Y4880000D01*
X15243250Y4880000D01*
X15084500Y4721250D01*
X12427763Y4721250D01*
X12377000Y4772012D01*
X12377000Y6412843D01*
X12457625Y6332218D01*
X12501421Y6266673D01*
X12761082Y6093172D01*
X12990058Y6047626D01*
X12990062Y6047626D01*
X13067374Y6032248D01*
X13144686Y6047626D01*
X14167102Y6047626D01*
X14336452Y5934469D01*
X14584217Y5885186D01*
X15105988Y5885186D01*
X15084500Y5833310D01*
X15084500Y5292750D01*
X15243250Y5134000D01*
X16080000Y5134000D01*
X16080000Y5154000D01*
X16334000Y5154000D01*
X16334000Y5134000D01*
X16354000Y5134000D01*
X16354000Y4880000D01*
X16334000Y4880000D01*
X16334000Y3830750D01*
X16492750Y3672000D01*
X16820809Y3672000D01*
X17054198Y3768673D01*
X17207293Y3921767D01*
X17208084Y3920584D01*
X17497206Y3727398D01*
X17838250Y3659560D01*
X18325750Y3659560D01*
X18666794Y3727398D01*
X18955916Y3920584D01*
X19149102Y4209706D01*
X19216940Y4550750D01*
X19216940Y4904783D01*
X20197344Y5885186D01*
X21229000Y5885186D01*
X21229000Y5673750D01*
X21387750Y5515000D01*
X22224500Y5515000D01*
X22224500Y6564250D01*
X22181657Y6607093D01*
X22181657Y7132626D01*
X22139990Y7342102D01*
X22245918Y7363172D01*
X22505579Y7536673D01*
X22549375Y7602218D01*
X22580717Y7633560D01*
X23406250Y7633560D01*
X23747294Y7701398D01*
X24019536Y7883305D01*
X24440343Y7709000D01*
X24931657Y7709000D01*
X25385571Y7897018D01*
X25732982Y8244429D01*
X25921000Y8698343D01*
X25921000Y9189657D01*
X25732982Y9643571D01*
X25636553Y9740000D01*
X25846982Y9950429D01*
X26035000Y10404343D01*
X26035000Y10895657D01*
X25846982Y11349571D01*
X25499571Y11696982D01*
X25045657Y11885000D01*
X24554343Y11885000D01*
X24100429Y11696982D01*
X23967147Y11563700D01*
X23747294Y11710602D01*
X23406250Y11778440D01*
X22493750Y11778440D01*
X22152706Y11710602D01*
X21863584Y11517416D01*
X21849191Y11495875D01*
X21781982Y11540783D01*
X21534217Y11590066D01*
X20851031Y11590066D01*
X20630159Y11634000D01*
X20630155Y11634000D01*
X20552843Y11649378D01*
X20475531Y11634000D01*
X18534158Y11634000D01*
X17986778Y12181380D01*
X18401310Y12181380D01*
X18550000Y12242969D01*
X18698690Y12181380D01*
X19239250Y12181380D01*
X19398000Y12340130D01*
X19398000Y13176880D01*
X17702000Y13176880D01*
X17702000Y13156880D01*
X17448000Y13156880D01*
X17448000Y13176880D01*
X17428000Y13176880D01*
X17428000Y13430880D01*
X17448000Y13430880D01*
X17448000Y13450880D01*
X17702000Y13450880D01*
X17702000Y13430880D01*
X19398000Y13430880D01*
X19398000Y13450880D01*
X19652000Y13450880D01*
X19652000Y13430880D01*
X19672000Y13430880D01*
X19672000Y13176880D01*
X19652000Y13176880D01*
X19652000Y12340130D01*
X19810750Y12181380D01*
X20351310Y12181380D01*
X20584699Y12278053D01*
X20652573Y12345927D01*
X20665673Y12314301D01*
X20844302Y12135673D01*
X21077691Y12039000D01*
X21368250Y12039000D01*
X21527000Y12197750D01*
X21527000Y12947000D01*
X21781000Y12947000D01*
X21781000Y12197750D01*
X21939750Y12039000D01*
X22230309Y12039000D01*
X22463698Y12135673D01*
X22642327Y12314301D01*
X22739000Y12547690D01*
X22739000Y12788250D01*
X22580250Y12947000D01*
X21781000Y12947000D01*
X21527000Y12947000D01*
X21507000Y12947000D01*
X21507000Y13166228D01*
X22770172Y13150167D01*
X22956235Y13025843D01*
X23204000Y12976560D01*
X24104000Y12976560D01*
X24351765Y13025843D01*
X24561809Y13166191D01*
X24568950Y13176878D01*
X24599748Y13176878D01*
X24441000Y13018130D01*
X24441000Y12690071D01*
X24537673Y12456682D01*
X24716301Y12278053D01*
X24949690Y12181380D01*
X25490250Y12181380D01*
X25649000Y12340130D01*
X25649000Y13176880D01*
X25903000Y13176880D01*
X25903000Y12340130D01*
X26061750Y12181380D01*
X26602310Y12181380D01*
X26751000Y12242969D01*
X26899690Y12181380D01*
X27440250Y12181380D01*
X27599000Y12340130D01*
X27599000Y13176880D01*
X27853000Y13176880D01*
X27853000Y12340130D01*
X28011750Y12181380D01*
X28552310Y12181380D01*
X28785699Y12278053D01*
X28964327Y12456682D01*
X29061000Y12690071D01*
X29061000Y13018130D01*
X28902250Y13176880D01*
X27853000Y13176880D01*
X27599000Y13176880D01*
X25903000Y13176880D01*
X25649000Y13176880D01*
X25629000Y13176880D01*
X25629000Y13430880D01*
X25649000Y13430880D01*
X25649000Y13450880D01*
X25903000Y13450880D01*
X25903000Y13430880D01*
X27599000Y13430880D01*
X27599000Y13450880D01*
X27853000Y13450880D01*
X27853000Y13430880D01*
X28902250Y13430880D01*
X29061000Y13589630D01*
X29061000Y13917689D01*
X28964327Y14151078D01*
X28850406Y14265000D01*
X29235001Y14265000D01*
X29235000Y13402816D01*
G36*
X22336217Y2864626D02*
X22356217Y2864626D01*
X22356217Y2610626D01*
X22336217Y2610626D01*
X22336217Y2590626D01*
X22082217Y2590626D01*
X22082217Y2610626D01*
X22062217Y2610626D01*
X22062217Y2864626D01*
X22082217Y2864626D01*
X22082217Y2884626D01*
X22336217Y2884626D01*
X22336217Y2864626D01*
X22336217Y2864626D01*
G37*
X22336217Y2864626D02*
X22356217Y2864626D01*
X22356217Y2610626D01*
X22336217Y2610626D01*
X22336217Y2590626D01*
X22082217Y2590626D01*
X22082217Y2610626D01*
X22062217Y2610626D01*
X22062217Y2864626D01*
X22082217Y2864626D01*
X22082217Y2884626D01*
X22336217Y2884626D01*
X22336217Y2864626D01*
G36*
X17599253Y10348589D02*
X17643047Y10283047D01*
X17708589Y10239253D01*
X17708591Y10239251D01*
X17884997Y10121380D01*
X17902708Y10109546D01*
X18131684Y10064000D01*
X18131688Y10064000D01*
X18209000Y10048622D01*
X18286312Y10064000D01*
X19406681Y10064000D01*
X19444349Y10007626D01*
X19386060Y9920391D01*
X19336777Y9672626D01*
X19336777Y9072626D01*
X19386060Y8824861D01*
X19444349Y8737626D01*
X19386060Y8650391D01*
X19336777Y8402626D01*
X19336777Y7802626D01*
X19386060Y7554861D01*
X19444349Y7467626D01*
X19386060Y7380391D01*
X19364663Y7272821D01*
X18426285Y6334442D01*
X18325750Y6354440D01*
X17838250Y6354440D01*
X17497206Y6286602D01*
X17208084Y6093416D01*
X17207293Y6092233D01*
X17054198Y6245327D01*
X16820809Y6342000D01*
X16743740Y6342000D01*
X16781657Y6532626D01*
X16781657Y7132626D01*
X16732374Y7380391D01*
X16674085Y7467626D01*
X16732374Y7554861D01*
X16781657Y7802626D01*
X16781657Y8402626D01*
X16732374Y8650391D01*
X16679449Y8729598D01*
X16769217Y8946316D01*
X16769217Y9086876D01*
X16610467Y9245626D01*
X15486217Y9245626D01*
X15486217Y9225626D01*
X15232217Y9225626D01*
X15232217Y9245626D01*
X15212217Y9245626D01*
X15212217Y9499626D01*
X15232217Y9499626D01*
X15232217Y9519626D01*
X15486217Y9519626D01*
X15486217Y9499626D01*
X16610467Y9499626D01*
X16769217Y9658376D01*
X16769217Y9798936D01*
X16679449Y10015654D01*
X16732374Y10094861D01*
X16781657Y10342626D01*
X16781657Y10942626D01*
X16732374Y11190391D01*
X16681875Y11265967D01*
X17599253Y10348589D01*
X17599253Y10348589D01*
G37*
X17599253Y10348589D02*
X17643047Y10283047D01*
X17708589Y10239253D01*
X17708591Y10239251D01*
X17884997Y10121380D01*
X17902708Y10109546D01*
X18131684Y10064000D01*
X18131688Y10064000D01*
X18209000Y10048622D01*
X18286312Y10064000D01*
X19406681Y10064000D01*
X19444349Y10007626D01*
X19386060Y9920391D01*
X19336777Y9672626D01*
X19336777Y9072626D01*
X19386060Y8824861D01*
X19444349Y8737626D01*
X19386060Y8650391D01*
X19336777Y8402626D01*
X19336777Y7802626D01*
X19386060Y7554861D01*
X19444349Y7467626D01*
X19386060Y7380391D01*
X19364663Y7272821D01*
X18426285Y6334442D01*
X18325750Y6354440D01*
X17838250Y6354440D01*
X17497206Y6286602D01*
X17208084Y6093416D01*
X17207293Y6092233D01*
X17054198Y6245327D01*
X16820809Y6342000D01*
X16743740Y6342000D01*
X16781657Y6532626D01*
X16781657Y7132626D01*
X16732374Y7380391D01*
X16674085Y7467626D01*
X16732374Y7554861D01*
X16781657Y7802626D01*
X16781657Y8402626D01*
X16732374Y8650391D01*
X16679449Y8729598D01*
X16769217Y8946316D01*
X16769217Y9086876D01*
X16610467Y9245626D01*
X15486217Y9245626D01*
X15486217Y9225626D01*
X15232217Y9225626D01*
X15232217Y9245626D01*
X15212217Y9245626D01*
X15212217Y9499626D01*
X15232217Y9499626D01*
X15232217Y9519626D01*
X15486217Y9519626D01*
X15486217Y9499626D01*
X16610467Y9499626D01*
X16769217Y9658376D01*
X16769217Y9798936D01*
X16679449Y10015654D01*
X16732374Y10094861D01*
X16781657Y10342626D01*
X16781657Y10942626D01*
X16732374Y11190391D01*
X16681875Y11265967D01*
X17599253Y10348589D01*
G36*
X14074584Y12401084D02*
X14363706Y12207898D01*
X14704750Y12140060D01*
X15256179Y12140060D01*
X15477684Y12096000D01*
X15477688Y12096000D01*
X15554999Y12080622D01*
X15632310Y12096000D01*
X15851843Y12096000D01*
X16457559Y11490284D01*
X16381982Y11540783D01*
X16134217Y11590066D01*
X14584217Y11590066D01*
X14336452Y11540783D01*
X14126408Y11400435D01*
X13986060Y11190391D01*
X13936777Y10942626D01*
X13936777Y10428380D01*
X13889749Y10475408D01*
X13845953Y10540953D01*
X13586292Y10714454D01*
X13448459Y10741871D01*
X13437809Y10757809D01*
X13385153Y10792993D01*
X13460000Y10973690D01*
X13460000Y11514250D01*
X13301250Y11673000D01*
X12464500Y11673000D01*
X12464500Y11653000D01*
X12377000Y11653000D01*
X12377000Y11947000D01*
X12464500Y11947000D01*
X12464500Y11927000D01*
X13301250Y11927000D01*
X13460000Y12085750D01*
X13460000Y12540000D01*
X13981763Y12540000D01*
X14074584Y12401084D01*
X14074584Y12401084D01*
G37*
X14074584Y12401084D02*
X14363706Y12207898D01*
X14704750Y12140060D01*
X15256179Y12140060D01*
X15477684Y12096000D01*
X15477688Y12096000D01*
X15554999Y12080622D01*
X15632310Y12096000D01*
X15851843Y12096000D01*
X16457559Y11490284D01*
X16381982Y11540783D01*
X16134217Y11590066D01*
X14584217Y11590066D01*
X14336452Y11540783D01*
X14126408Y11400435D01*
X13986060Y11190391D01*
X13936777Y10942626D01*
X13936777Y10428380D01*
X13889749Y10475408D01*
X13845953Y10540953D01*
X13586292Y10714454D01*
X13448459Y10741871D01*
X13437809Y10757809D01*
X13385153Y10792993D01*
X13460000Y10973690D01*
X13460000Y11514250D01*
X13301250Y11673000D01*
X12464500Y11673000D01*
X12464500Y11653000D01*
X12377000Y11653000D01*
X12377000Y11947000D01*
X12464500Y11947000D01*
X12464500Y11927000D01*
X13301250Y11927000D01*
X13460000Y12085750D01*
X13460000Y12540000D01*
X13981763Y12540000D01*
X14074584Y12401084D01*
G36*
X37540000Y11783607D02*
X37490740Y11783510D01*
X37401252Y11872998D01*
X37540000Y11872998D01*
X37540000Y11783607D01*
X37540000Y11783607D01*
G37*
X37540000Y11783607D02*
X37490740Y11783510D01*
X37401252Y11872998D01*
X37540000Y11872998D01*
X37540000Y11783607D01*
G36*
X36564500Y12127000D02*
X36584500Y12127000D01*
X36584500Y11873000D01*
X36564500Y11873000D01*
X36564500Y11853000D01*
X36310500Y11853000D01*
X36310500Y11873000D01*
X36290500Y11873000D01*
X36290500Y12127000D01*
X36310500Y12127000D01*
X36310500Y12147000D01*
X36564500Y12147000D01*
X36564500Y12127000D01*
X36564500Y12127000D01*
G37*
X36564500Y12127000D02*
X36584500Y12127000D01*
X36584500Y11873000D01*
X36564500Y11873000D01*
X36564500Y11853000D01*
X36310500Y11853000D01*
X36310500Y11873000D01*
X36290500Y11873000D01*
X36290500Y12127000D01*
X36310500Y12127000D01*
X36310500Y12147000D01*
X36564500Y12147000D01*
X36564500Y12127000D01*
G36*
X37540000Y12127002D02*
X37401252Y12127002D01*
X37540000Y12265750D01*
X37540000Y12127002D01*
X37540000Y12127002D01*
G37*
X37540000Y12127002D02*
X37401252Y12127002D01*
X37540000Y12265750D01*
X37540000Y12127002D01*
G36*
X19015423Y19734576D02*
X18698260Y19259908D01*
X18615000Y18841332D01*
X18615000Y18158667D01*
X18698260Y17740091D01*
X19015424Y17265423D01*
X19490092Y16948260D01*
X20050000Y16836887D01*
X20609909Y16948260D01*
X21041042Y17236334D01*
X21092972Y16975263D01*
X21354880Y16583289D01*
X21746853Y16321381D01*
X22209217Y16229411D01*
X22291006Y16245680D01*
X22572805Y15963880D01*
X22364152Y15963880D01*
X22351765Y15972157D01*
X22104000Y16021440D01*
X21204000Y16021440D01*
X20956235Y15972157D01*
X20755099Y15837761D01*
X20611416Y16052796D01*
X20322294Y16245982D01*
X19981250Y16313820D01*
X19068750Y16313820D01*
X18727706Y16245982D01*
X18550000Y16127242D01*
X18372294Y16245982D01*
X18031250Y16313820D01*
X17118750Y16313820D01*
X16777706Y16245982D01*
X16488584Y16052796D01*
X16358351Y15857890D01*
X16247416Y16023916D01*
X15958294Y16217102D01*
X15617250Y16284940D01*
X14704750Y16284940D01*
X14363706Y16217102D01*
X14185266Y16097872D01*
X13997765Y16223157D01*
X13750000Y16272440D01*
X12650000Y16272440D01*
X12627287Y16267922D01*
X12764223Y16472862D01*
X12833396Y16639861D01*
X12870238Y16728804D01*
X12920753Y16982760D01*
X13043270Y16918558D01*
X13100961Y16908096D01*
X13323000Y17030085D01*
X13323000Y18373000D01*
X13577000Y18373000D01*
X13577000Y17030085D01*
X13799039Y16908096D01*
X13856730Y16918558D01*
X14354424Y17179363D01*
X14714428Y17610774D01*
X14881934Y18147114D01*
X14729471Y18373000D01*
X13577000Y18373000D01*
X13323000Y18373000D01*
X13303000Y18373000D01*
X13303000Y18627000D01*
X13323000Y18627000D01*
X13323000Y18647000D01*
X13577000Y18647000D01*
X13577000Y18627000D01*
X14729471Y18627000D01*
X14881934Y18852886D01*
X14714428Y19389226D01*
X14354424Y19820637D01*
X13945433Y20034959D01*
X13957631Y20037787D01*
X14013955Y20040000D01*
X19472521Y20040000D01*
X19015423Y19734576D01*
X19015423Y19734576D01*
G37*
X19015423Y19734576D02*
X18698260Y19259908D01*
X18615000Y18841332D01*
X18615000Y18158667D01*
X18698260Y17740091D01*
X19015424Y17265423D01*
X19490092Y16948260D01*
X20050000Y16836887D01*
X20609909Y16948260D01*
X21041042Y17236334D01*
X21092972Y16975263D01*
X21354880Y16583289D01*
X21746853Y16321381D01*
X22209217Y16229411D01*
X22291006Y16245680D01*
X22572805Y15963880D01*
X22364152Y15963880D01*
X22351765Y15972157D01*
X22104000Y16021440D01*
X21204000Y16021440D01*
X20956235Y15972157D01*
X20755099Y15837761D01*
X20611416Y16052796D01*
X20322294Y16245982D01*
X19981250Y16313820D01*
X19068750Y16313820D01*
X18727706Y16245982D01*
X18550000Y16127242D01*
X18372294Y16245982D01*
X18031250Y16313820D01*
X17118750Y16313820D01*
X16777706Y16245982D01*
X16488584Y16052796D01*
X16358351Y15857890D01*
X16247416Y16023916D01*
X15958294Y16217102D01*
X15617250Y16284940D01*
X14704750Y16284940D01*
X14363706Y16217102D01*
X14185266Y16097872D01*
X13997765Y16223157D01*
X13750000Y16272440D01*
X12650000Y16272440D01*
X12627287Y16267922D01*
X12764223Y16472862D01*
X12833396Y16639861D01*
X12870238Y16728804D01*
X12920753Y16982760D01*
X13043270Y16918558D01*
X13100961Y16908096D01*
X13323000Y17030085D01*
X13323000Y18373000D01*
X13577000Y18373000D01*
X13577000Y17030085D01*
X13799039Y16908096D01*
X13856730Y16918558D01*
X14354424Y17179363D01*
X14714428Y17610774D01*
X14881934Y18147114D01*
X14729471Y18373000D01*
X13577000Y18373000D01*
X13323000Y18373000D01*
X13303000Y18373000D01*
X13303000Y18627000D01*
X13323000Y18627000D01*
X13323000Y18647000D01*
X13577000Y18647000D01*
X13577000Y18627000D01*
X14729471Y18627000D01*
X14881934Y18852886D01*
X14714428Y19389226D01*
X14354424Y19820637D01*
X13945433Y20034959D01*
X13957631Y20037787D01*
X14013955Y20040000D01*
X19472521Y20040000D01*
X19015423Y19734576D01*
G04 #@! TD*
M02*
