G04 #@! TF.GenerationSoftware,KiCad,Pcbnew,5.0.2-bee76a0~70~ubuntu18.04.1*
G04 #@! TF.CreationDate,2019-11-16T09:43:36-05:00*
G04 #@! TF.ProjectId,ESP-AHT10-Extra,4553502d-4148-4543-9130-2d4578747261,1.2*
G04 #@! TF.SameCoordinates,PX7bfa480PY66c2270*
G04 #@! TF.FileFunction,Copper,L1,Top*
G04 #@! TF.FilePolarity,Positive*
%FSLAX46Y46*%
G04 Gerber Fmt 4.6, Leading zero omitted, Abs format (unit mm)*
G04 Created by KiCad (PCBNEW 5.0.2-bee76a0~70~ubuntu18.04.1) date Sat 16 Nov 2019 09:43:36 AM EST*
%MOMM*%
%LPD*%
G01*
G04 APERTURE LIST*
G04 #@! TA.AperFunction,ComponentPad*
%ADD10R,1.100000X2.500000*%
G04 #@! TD*
G04 #@! TA.AperFunction,ComponentPad*
%ADD11O,1.100000X2.500000*%
G04 #@! TD*
G04 #@! TA.AperFunction,ComponentPad*
%ADD12O,1.600000X2.000000*%
G04 #@! TD*
G04 #@! TA.AperFunction,ViaPad*
%ADD13C,1.200000*%
G04 #@! TD*
G04 #@! TA.AperFunction,Conductor*
%ADD14C,0.300000*%
G04 #@! TD*
G04 #@! TA.AperFunction,Conductor*
%ADD15C,0.254000*%
G04 #@! TD*
G04 APERTURE END LIST*
D10*
G04 #@! TO.P,U3,1*
G04 #@! TO.N,Net-(R2-Pad1)*
X36209217Y18137626D03*
D11*
G04 #@! TO.P,U3,2*
G04 #@! TO.N,N/C*
X34209217Y18137626D03*
G04 #@! TO.P,U3,3*
G04 #@! TO.N,Net-(R1-Pad2)*
X32209217Y18137626D03*
G04 #@! TO.P,U3,4*
G04 #@! TO.N,RESET*
X30209217Y18137626D03*
G04 #@! TO.P,U3,5*
G04 #@! TO.N,N/C*
X28209217Y18137626D03*
G04 #@! TO.P,U3,6*
X26209217Y18137626D03*
G04 #@! TO.P,U3,7*
X24209217Y18137626D03*
G04 #@! TO.P,U3,8*
G04 #@! TO.N,3V3*
X22209217Y18137626D03*
G04 #@! TO.P,U3,9*
G04 #@! TO.N,GND*
X22209217Y2737626D03*
G04 #@! TO.P,U3,10*
G04 #@! TO.N,Net-(R4-Pad1)*
X24209217Y2837626D03*
G04 #@! TO.P,U3,11*
G04 #@! TO.N,N/C*
X26209217Y2737626D03*
G04 #@! TO.P,U3,12*
G04 #@! TO.N,Net-(R5-Pad2)*
X28209217Y2737626D03*
G04 #@! TO.P,U3,13*
G04 #@! TO.N,SDA*
X30209217Y2737626D03*
G04 #@! TO.P,U3,14*
G04 #@! TO.N,SCL*
X32209217Y2737626D03*
G04 #@! TO.P,U3,15*
G04 #@! TO.N,eRX*
X34209217Y2737626D03*
G04 #@! TO.P,U3,16*
G04 #@! TO.N,eTX*
X36209217Y2737626D03*
G04 #@! TD*
D12*
G04 #@! TO.P,SW1,2*
G04 #@! TO.N,GND*
X13450000Y18500000D03*
G04 #@! TO.P,SW1,1*
G04 #@! TO.N,RESET*
X20050000Y18500000D03*
G04 #@! TD*
G04 #@! TO.P,SW2,1*
G04 #@! TO.N,Net-(R5-Pad2)*
X13450000Y2250000D03*
G04 #@! TO.P,SW2,2*
G04 #@! TO.N,GND*
X20050000Y2250000D03*
G04 #@! TD*
D13*
G04 #@! TO.N,GND*
X28250000Y11800000D03*
X37225000Y11950000D03*
X12950000Y5300000D03*
X13226828Y16906817D03*
G04 #@! TO.N,eRX*
X24550002Y8050000D03*
X34050000Y5025000D03*
G04 #@! TO.N,eTX*
X24550000Y9975000D03*
X36239335Y5243178D03*
G04 #@! TO.N,RESET*
X13850000Y10950000D03*
X18500000Y17350000D03*
G04 #@! TD*
D14*
G04 #@! TO.N,GND*
X28400000Y11950000D02*
X28250000Y11800000D01*
X37225000Y11950000D02*
X28400000Y11950000D01*
X12950000Y5300000D02*
X12350001Y5899999D01*
X12626829Y16306818D02*
X13226828Y16906817D01*
X12350001Y5899999D02*
X12350001Y16029990D01*
X12350001Y16029990D02*
X12626829Y16306818D01*
G04 #@! TO.N,eRX*
X24550002Y8050000D02*
X27575002Y5025000D01*
X33201472Y5025000D02*
X34050000Y5025000D01*
X27575002Y5025000D02*
X33201472Y5025000D01*
G04 #@! TO.N,eTX*
X35032513Y6450000D02*
X35639336Y5843177D01*
X24550000Y9975000D02*
X28075000Y6450000D01*
X35639336Y5843177D02*
X36239335Y5243178D01*
X28075000Y6450000D02*
X35032513Y6450000D01*
G04 #@! TO.N,RESET*
X13850000Y10950000D02*
X18500000Y15600000D01*
X18500000Y15600000D02*
X18500000Y17350000D01*
G04 #@! TD*
D15*
G04 #@! TO.N,GND*
G36*
X19015423Y19734576D02*
X18698260Y19259908D01*
X18615000Y18841332D01*
X18615000Y18585000D01*
X18254343Y18585000D01*
X17800429Y18396982D01*
X17453018Y18049571D01*
X17265000Y17595657D01*
X17265000Y17104343D01*
X17453018Y16650429D01*
X17715000Y16388447D01*
X17715000Y15925158D01*
X13974843Y12185000D01*
X13604343Y12185000D01*
X13150429Y11996982D01*
X12803018Y11649571D01*
X12615000Y11195657D01*
X12615000Y10704343D01*
X12803018Y10250429D01*
X13150429Y9903018D01*
X13604343Y9715000D01*
X14095657Y9715000D01*
X14549571Y9903018D01*
X14896982Y10250429D01*
X15085000Y10704343D01*
X15085000Y11074843D01*
X19000411Y14990253D01*
X19065953Y15034047D01*
X19109747Y15099589D01*
X19109749Y15099591D01*
X19239454Y15293708D01*
X19239454Y15293709D01*
X19285000Y15522684D01*
X19285000Y15522687D01*
X19300378Y15599999D01*
X19285000Y15677311D01*
X19285000Y16388447D01*
X19546982Y16650429D01*
X19656627Y16915134D01*
X20050000Y16836887D01*
X20609909Y16948260D01*
X21041042Y17236334D01*
X21092972Y16975263D01*
X21354880Y16583289D01*
X21746853Y16321381D01*
X22209217Y16229411D01*
X22671580Y16321381D01*
X23063554Y16583289D01*
X23209217Y16801289D01*
X23354880Y16583289D01*
X23746853Y16321381D01*
X24209217Y16229411D01*
X24671580Y16321381D01*
X25063554Y16583289D01*
X25209217Y16801289D01*
X25354880Y16583289D01*
X25746853Y16321381D01*
X26209217Y16229411D01*
X26671580Y16321381D01*
X27063554Y16583289D01*
X27209217Y16801289D01*
X27354880Y16583289D01*
X27746853Y16321381D01*
X28209217Y16229411D01*
X28671580Y16321381D01*
X29063554Y16583289D01*
X29209217Y16801289D01*
X29354880Y16583289D01*
X29746853Y16321381D01*
X30209217Y16229411D01*
X30671580Y16321381D01*
X31063554Y16583289D01*
X31209217Y16801289D01*
X31354880Y16583289D01*
X31746853Y16321381D01*
X32209217Y16229411D01*
X32671580Y16321381D01*
X33063554Y16583289D01*
X33209217Y16801289D01*
X33354880Y16583289D01*
X33746853Y16321381D01*
X34209217Y16229411D01*
X34671580Y16321381D01*
X35063554Y16583289D01*
X35081207Y16609709D01*
X35201408Y16429817D01*
X35411452Y16289469D01*
X35659217Y16240186D01*
X36759217Y16240186D01*
X37006982Y16289469D01*
X37217026Y16429817D01*
X37357374Y16639861D01*
X37406657Y16887626D01*
X37406657Y19387626D01*
X37381445Y19514379D01*
X37459549Y19379912D01*
X37537787Y19042369D01*
X37540000Y18986045D01*
X37540000Y12916767D01*
X30074749Y12902000D01*
X30026399Y12892333D01*
X29985197Y12864803D01*
X29957667Y12823601D01*
X29948000Y12775000D01*
X29948000Y7235000D01*
X28400158Y7235000D01*
X25785000Y9850157D01*
X25785000Y10220657D01*
X25596982Y10674571D01*
X25249571Y11021982D01*
X24795657Y11210000D01*
X24304343Y11210000D01*
X23850429Y11021982D01*
X23503018Y10674571D01*
X23315000Y10220657D01*
X23315000Y9729343D01*
X23503018Y9275429D01*
X23765948Y9012499D01*
X23503020Y8749571D01*
X23315002Y8295657D01*
X23315002Y7804343D01*
X23503020Y7350429D01*
X23850431Y7003018D01*
X24304345Y6815000D01*
X24674845Y6815000D01*
X26965255Y4524589D01*
X27009049Y4459047D01*
X27074591Y4415253D01*
X27074593Y4415251D01*
X27178800Y4345622D01*
X27268710Y4285546D01*
X27340987Y4271169D01*
X27209217Y4073963D01*
X27063554Y4291963D01*
X26671581Y4553871D01*
X26209217Y4645841D01*
X25746854Y4553871D01*
X25354881Y4291963D01*
X25242626Y4123962D01*
X25063554Y4391963D01*
X24671581Y4653871D01*
X24209217Y4745841D01*
X23746854Y4653871D01*
X23354881Y4391963D01*
X23168307Y4112737D01*
X22957335Y4365350D01*
X22545363Y4581024D01*
X22518961Y4581429D01*
X22336217Y4455987D01*
X22336217Y2864626D01*
X22356217Y2864626D01*
X22356217Y2610626D01*
X22336217Y2610626D01*
X22336217Y1019265D01*
X22518961Y893823D01*
X22545363Y894228D01*
X22957335Y1109902D01*
X23242547Y1451408D01*
X23354880Y1283289D01*
X23746853Y1021381D01*
X24209217Y929411D01*
X24671580Y1021381D01*
X25063554Y1283289D01*
X25175808Y1451289D01*
X25354880Y1183289D01*
X25746853Y921381D01*
X26209217Y829411D01*
X26671580Y921381D01*
X27063554Y1183289D01*
X27209217Y1401289D01*
X27354880Y1183289D01*
X27746853Y921381D01*
X28209217Y829411D01*
X28671580Y921381D01*
X29063554Y1183289D01*
X29209217Y1401289D01*
X29354880Y1183289D01*
X29746853Y921381D01*
X30209217Y829411D01*
X30671580Y921381D01*
X31063554Y1183289D01*
X31209217Y1401289D01*
X31354880Y1183289D01*
X31746853Y921381D01*
X32209217Y829411D01*
X32671580Y921381D01*
X33063554Y1183289D01*
X33209217Y1401289D01*
X33354880Y1183289D01*
X33746853Y921381D01*
X34209217Y829411D01*
X34671580Y921381D01*
X35063554Y1183289D01*
X35209217Y1401289D01*
X35354880Y1183289D01*
X35746853Y921381D01*
X36209217Y829411D01*
X36671580Y921381D01*
X37063554Y1183289D01*
X37325462Y1575262D01*
X37394217Y1920916D01*
X37394217Y3554336D01*
X37325462Y3899990D01*
X37063554Y4291963D01*
X37046241Y4303531D01*
X37286317Y4543607D01*
X37443709Y4923583D01*
X37540001Y4922610D01*
X37540001Y1803077D01*
X37486399Y1446546D01*
X37353564Y1169917D01*
X37145264Y944580D01*
X36879912Y790451D01*
X36542369Y712213D01*
X36486045Y710000D01*
X20535814Y710000D01*
X20954424Y929363D01*
X21283017Y1323133D01*
X21461099Y1109902D01*
X21873071Y894228D01*
X21899473Y893823D01*
X22082217Y1019265D01*
X22082217Y2610626D01*
X22062217Y2610626D01*
X22062217Y2864626D01*
X22082217Y2864626D01*
X22082217Y4455987D01*
X21899473Y4581429D01*
X21873071Y4581024D01*
X21461099Y4365350D01*
X21163021Y4008439D01*
X21024217Y3564626D01*
X21024217Y3487001D01*
X20954424Y3570637D01*
X20456730Y3831442D01*
X20399039Y3841904D01*
X20177000Y3719915D01*
X20177000Y2377000D01*
X20197000Y2377000D01*
X20197000Y2123000D01*
X20177000Y2123000D01*
X20177000Y2103000D01*
X19923000Y2103000D01*
X19923000Y2123000D01*
X18770529Y2123000D01*
X18618066Y1897114D01*
X18785572Y1360774D01*
X19145576Y929363D01*
X19564186Y710000D01*
X14053070Y710000D01*
X14032179Y713141D01*
X14484576Y1015423D01*
X14801740Y1490091D01*
X14885000Y1908667D01*
X14885000Y2591332D01*
X14882702Y2602886D01*
X18618066Y2602886D01*
X18770529Y2377000D01*
X19923000Y2377000D01*
X19923000Y3719915D01*
X19700961Y3841904D01*
X19643270Y3831442D01*
X19145576Y3570637D01*
X18785572Y3139226D01*
X18618066Y2602886D01*
X14882702Y2602886D01*
X14801740Y3009908D01*
X14484577Y3484577D01*
X14009909Y3801740D01*
X13450000Y3913113D01*
X12912985Y3806294D01*
X12870238Y4021196D01*
X12764223Y4277137D01*
X12764223Y4277138D01*
X12547451Y4601562D01*
X12351562Y4797450D01*
X12351561Y4797451D01*
X12127000Y4947498D01*
X12127000Y15802502D01*
X12351561Y15952549D01*
X12371984Y15972972D01*
X12547451Y16148438D01*
X12764223Y16472862D01*
X12833396Y16639861D01*
X12870238Y16728804D01*
X12920753Y16982760D01*
X13043270Y16918558D01*
X13100961Y16908096D01*
X13323000Y17030085D01*
X13323000Y18373000D01*
X13577000Y18373000D01*
X13577000Y17030085D01*
X13799039Y16908096D01*
X13856730Y16918558D01*
X14354424Y17179363D01*
X14714428Y17610774D01*
X14881934Y18147114D01*
X14729471Y18373000D01*
X13577000Y18373000D01*
X13323000Y18373000D01*
X13303000Y18373000D01*
X13303000Y18627000D01*
X13323000Y18627000D01*
X13323000Y18647000D01*
X13577000Y18647000D01*
X13577000Y18627000D01*
X14729471Y18627000D01*
X14881934Y18852886D01*
X14714428Y19389226D01*
X14354424Y19820637D01*
X13945433Y20034959D01*
X13957631Y20037787D01*
X14013955Y20040000D01*
X19472521Y20040000D01*
X19015423Y19734576D01*
X19015423Y19734576D01*
G37*
X19015423Y19734576D02*
X18698260Y19259908D01*
X18615000Y18841332D01*
X18615000Y18585000D01*
X18254343Y18585000D01*
X17800429Y18396982D01*
X17453018Y18049571D01*
X17265000Y17595657D01*
X17265000Y17104343D01*
X17453018Y16650429D01*
X17715000Y16388447D01*
X17715000Y15925158D01*
X13974843Y12185000D01*
X13604343Y12185000D01*
X13150429Y11996982D01*
X12803018Y11649571D01*
X12615000Y11195657D01*
X12615000Y10704343D01*
X12803018Y10250429D01*
X13150429Y9903018D01*
X13604343Y9715000D01*
X14095657Y9715000D01*
X14549571Y9903018D01*
X14896982Y10250429D01*
X15085000Y10704343D01*
X15085000Y11074843D01*
X19000411Y14990253D01*
X19065953Y15034047D01*
X19109747Y15099589D01*
X19109749Y15099591D01*
X19239454Y15293708D01*
X19239454Y15293709D01*
X19285000Y15522684D01*
X19285000Y15522687D01*
X19300378Y15599999D01*
X19285000Y15677311D01*
X19285000Y16388447D01*
X19546982Y16650429D01*
X19656627Y16915134D01*
X20050000Y16836887D01*
X20609909Y16948260D01*
X21041042Y17236334D01*
X21092972Y16975263D01*
X21354880Y16583289D01*
X21746853Y16321381D01*
X22209217Y16229411D01*
X22671580Y16321381D01*
X23063554Y16583289D01*
X23209217Y16801289D01*
X23354880Y16583289D01*
X23746853Y16321381D01*
X24209217Y16229411D01*
X24671580Y16321381D01*
X25063554Y16583289D01*
X25209217Y16801289D01*
X25354880Y16583289D01*
X25746853Y16321381D01*
X26209217Y16229411D01*
X26671580Y16321381D01*
X27063554Y16583289D01*
X27209217Y16801289D01*
X27354880Y16583289D01*
X27746853Y16321381D01*
X28209217Y16229411D01*
X28671580Y16321381D01*
X29063554Y16583289D01*
X29209217Y16801289D01*
X29354880Y16583289D01*
X29746853Y16321381D01*
X30209217Y16229411D01*
X30671580Y16321381D01*
X31063554Y16583289D01*
X31209217Y16801289D01*
X31354880Y16583289D01*
X31746853Y16321381D01*
X32209217Y16229411D01*
X32671580Y16321381D01*
X33063554Y16583289D01*
X33209217Y16801289D01*
X33354880Y16583289D01*
X33746853Y16321381D01*
X34209217Y16229411D01*
X34671580Y16321381D01*
X35063554Y16583289D01*
X35081207Y16609709D01*
X35201408Y16429817D01*
X35411452Y16289469D01*
X35659217Y16240186D01*
X36759217Y16240186D01*
X37006982Y16289469D01*
X37217026Y16429817D01*
X37357374Y16639861D01*
X37406657Y16887626D01*
X37406657Y19387626D01*
X37381445Y19514379D01*
X37459549Y19379912D01*
X37537787Y19042369D01*
X37540000Y18986045D01*
X37540000Y12916767D01*
X30074749Y12902000D01*
X30026399Y12892333D01*
X29985197Y12864803D01*
X29957667Y12823601D01*
X29948000Y12775000D01*
X29948000Y7235000D01*
X28400158Y7235000D01*
X25785000Y9850157D01*
X25785000Y10220657D01*
X25596982Y10674571D01*
X25249571Y11021982D01*
X24795657Y11210000D01*
X24304343Y11210000D01*
X23850429Y11021982D01*
X23503018Y10674571D01*
X23315000Y10220657D01*
X23315000Y9729343D01*
X23503018Y9275429D01*
X23765948Y9012499D01*
X23503020Y8749571D01*
X23315002Y8295657D01*
X23315002Y7804343D01*
X23503020Y7350429D01*
X23850431Y7003018D01*
X24304345Y6815000D01*
X24674845Y6815000D01*
X26965255Y4524589D01*
X27009049Y4459047D01*
X27074591Y4415253D01*
X27074593Y4415251D01*
X27178800Y4345622D01*
X27268710Y4285546D01*
X27340987Y4271169D01*
X27209217Y4073963D01*
X27063554Y4291963D01*
X26671581Y4553871D01*
X26209217Y4645841D01*
X25746854Y4553871D01*
X25354881Y4291963D01*
X25242626Y4123962D01*
X25063554Y4391963D01*
X24671581Y4653871D01*
X24209217Y4745841D01*
X23746854Y4653871D01*
X23354881Y4391963D01*
X23168307Y4112737D01*
X22957335Y4365350D01*
X22545363Y4581024D01*
X22518961Y4581429D01*
X22336217Y4455987D01*
X22336217Y2864626D01*
X22356217Y2864626D01*
X22356217Y2610626D01*
X22336217Y2610626D01*
X22336217Y1019265D01*
X22518961Y893823D01*
X22545363Y894228D01*
X22957335Y1109902D01*
X23242547Y1451408D01*
X23354880Y1283289D01*
X23746853Y1021381D01*
X24209217Y929411D01*
X24671580Y1021381D01*
X25063554Y1283289D01*
X25175808Y1451289D01*
X25354880Y1183289D01*
X25746853Y921381D01*
X26209217Y829411D01*
X26671580Y921381D01*
X27063554Y1183289D01*
X27209217Y1401289D01*
X27354880Y1183289D01*
X27746853Y921381D01*
X28209217Y829411D01*
X28671580Y921381D01*
X29063554Y1183289D01*
X29209217Y1401289D01*
X29354880Y1183289D01*
X29746853Y921381D01*
X30209217Y829411D01*
X30671580Y921381D01*
X31063554Y1183289D01*
X31209217Y1401289D01*
X31354880Y1183289D01*
X31746853Y921381D01*
X32209217Y829411D01*
X32671580Y921381D01*
X33063554Y1183289D01*
X33209217Y1401289D01*
X33354880Y1183289D01*
X33746853Y921381D01*
X34209217Y829411D01*
X34671580Y921381D01*
X35063554Y1183289D01*
X35209217Y1401289D01*
X35354880Y1183289D01*
X35746853Y921381D01*
X36209217Y829411D01*
X36671580Y921381D01*
X37063554Y1183289D01*
X37325462Y1575262D01*
X37394217Y1920916D01*
X37394217Y3554336D01*
X37325462Y3899990D01*
X37063554Y4291963D01*
X37046241Y4303531D01*
X37286317Y4543607D01*
X37443709Y4923583D01*
X37540001Y4922610D01*
X37540001Y1803077D01*
X37486399Y1446546D01*
X37353564Y1169917D01*
X37145264Y944580D01*
X36879912Y790451D01*
X36542369Y712213D01*
X36486045Y710000D01*
X20535814Y710000D01*
X20954424Y929363D01*
X21283017Y1323133D01*
X21461099Y1109902D01*
X21873071Y894228D01*
X21899473Y893823D01*
X22082217Y1019265D01*
X22082217Y2610626D01*
X22062217Y2610626D01*
X22062217Y2864626D01*
X22082217Y2864626D01*
X22082217Y4455987D01*
X21899473Y4581429D01*
X21873071Y4581024D01*
X21461099Y4365350D01*
X21163021Y4008439D01*
X21024217Y3564626D01*
X21024217Y3487001D01*
X20954424Y3570637D01*
X20456730Y3831442D01*
X20399039Y3841904D01*
X20177000Y3719915D01*
X20177000Y2377000D01*
X20197000Y2377000D01*
X20197000Y2123000D01*
X20177000Y2123000D01*
X20177000Y2103000D01*
X19923000Y2103000D01*
X19923000Y2123000D01*
X18770529Y2123000D01*
X18618066Y1897114D01*
X18785572Y1360774D01*
X19145576Y929363D01*
X19564186Y710000D01*
X14053070Y710000D01*
X14032179Y713141D01*
X14484576Y1015423D01*
X14801740Y1490091D01*
X14885000Y1908667D01*
X14885000Y2591332D01*
X14882702Y2602886D01*
X18618066Y2602886D01*
X18770529Y2377000D01*
X19923000Y2377000D01*
X19923000Y3719915D01*
X19700961Y3841904D01*
X19643270Y3831442D01*
X19145576Y3570637D01*
X18785572Y3139226D01*
X18618066Y2602886D01*
X14882702Y2602886D01*
X14801740Y3009908D01*
X14484577Y3484577D01*
X14009909Y3801740D01*
X13450000Y3913113D01*
X12912985Y3806294D01*
X12870238Y4021196D01*
X12764223Y4277137D01*
X12764223Y4277138D01*
X12547451Y4601562D01*
X12351562Y4797450D01*
X12351561Y4797451D01*
X12127000Y4947498D01*
X12127000Y15802502D01*
X12351561Y15952549D01*
X12371984Y15972972D01*
X12547451Y16148438D01*
X12764223Y16472862D01*
X12833396Y16639861D01*
X12870238Y16728804D01*
X12920753Y16982760D01*
X13043270Y16918558D01*
X13100961Y16908096D01*
X13323000Y17030085D01*
X13323000Y18373000D01*
X13577000Y18373000D01*
X13577000Y17030085D01*
X13799039Y16908096D01*
X13856730Y16918558D01*
X14354424Y17179363D01*
X14714428Y17610774D01*
X14881934Y18147114D01*
X14729471Y18373000D01*
X13577000Y18373000D01*
X13323000Y18373000D01*
X13303000Y18373000D01*
X13303000Y18627000D01*
X13323000Y18627000D01*
X13323000Y18647000D01*
X13577000Y18647000D01*
X13577000Y18627000D01*
X14729471Y18627000D01*
X14881934Y18852886D01*
X14714428Y19389226D01*
X14354424Y19820637D01*
X13945433Y20034959D01*
X13957631Y20037787D01*
X14013955Y20040000D01*
X19472521Y20040000D01*
X19015423Y19734576D01*
G04 #@! TD*
M02*
