M48
;DRILL file {KiCad 5.0.2-bee76a0~70~ubuntu18.04.1} date Sun 10 Nov 2019 09:13:24 PM EST
;FORMAT={-:-/ absolute / metric / decimal}
FMAT,2
METRIC,TZ
T1C0.600
T2C0.650
T3C1.000
%
G90
G05
T1
X13.6Y16.6
X13.6Y13.95
X25.175Y9.75
X26.755Y10.391
X28.25Y11.8
X34.Y4.5
X36.25Y5.
X37.225Y11.95
T2
X22.209Y17.438
X22.209Y3.438
X24.209Y17.438
X24.209Y3.438
X26.209Y17.438
X26.209Y3.438
X28.209Y17.438
X28.209Y3.438
X30.209Y17.438
X30.209Y3.438
X32.209Y17.438
X32.209Y3.438
X34.209Y17.438
X34.209Y3.438
X36.209Y17.438
X36.209Y3.438
T3
X13.45Y18.5
X20.05Y18.5
X13.45Y2.25
X20.05Y2.25
T0
M30
