G04 #@! TF.GenerationSoftware,KiCad,Pcbnew,5.0.2-bee76a0~70~ubuntu18.04.1*
G04 #@! TF.CreationDate,2019-11-16T22:21:55-05:00*
G04 #@! TF.ProjectId,ESP-AHT10-Extra,4553502d-4148-4543-9130-2d4578747261,1.2*
G04 #@! TF.SameCoordinates,PX7bfa480PY66c2270*
G04 #@! TF.FileFunction,Legend,Bot*
G04 #@! TF.FilePolarity,Positive*
%FSLAX46Y46*%
G04 Gerber Fmt 4.6, Leading zero omitted, Abs format (unit mm)*
G04 Created by KiCad (PCBNEW 5.0.2-bee76a0~70~ubuntu18.04.1) date Sat 16 Nov 2019 10:21:55 PM EST*
%MOMM*%
%LPD*%
G01*
G04 APERTURE LIST*
%ADD10C,0.120000*%
%ADD11C,0.150000*%
G04 APERTURE END LIST*
D10*
G04 #@! TO.C,F1*
X14965000Y13953922D02*
X14965000Y14471078D01*
X16385000Y13953922D02*
X16385000Y14471078D01*
D11*
G04 #@! TO.C,U1*
X15984217Y6162626D02*
X15984217Y6212626D01*
X20134217Y6162626D02*
X20134217Y6307626D01*
X20134217Y11312626D02*
X20134217Y11167626D01*
X15984217Y11312626D02*
X15984217Y11167626D01*
X15984217Y6162626D02*
X20134217Y6162626D01*
X15984217Y11312626D02*
X20134217Y11312626D01*
X15984217Y6212626D02*
X14584217Y6212626D01*
D10*
G04 #@! TO.C,U2*
X22745703Y13191380D02*
X22745703Y14991380D01*
X25965703Y14991380D02*
X25965703Y12541380D01*
D11*
G04 #@! TO.C,U4*
X38355703Y6541380D02*
X38355703Y10541380D01*
X38355703Y10541380D02*
X33355703Y10541380D01*
X33355703Y10541380D02*
X33355703Y6541380D01*
X33355703Y6541380D02*
X38355703Y6541380D01*
X38179310Y6941380D02*
G75*
G03X38179310Y6941380I-223607J0D01*
G01*
D10*
G04 #@! TO.C,U5*
X10450000Y10635000D02*
X12250000Y10635000D01*
X12250000Y7415000D02*
X9800000Y7415000D01*
G04 #@! TO.C,C1*
X28010000Y14499958D02*
X28010000Y13982802D01*
X26590000Y14499958D02*
X26590000Y13982802D01*
G04 #@! TO.C,C2*
X20235000Y13982802D02*
X20235000Y14499958D01*
X18815000Y13982802D02*
X18815000Y14499958D01*
G04 #@! TO.C,C3*
X16865000Y13982802D02*
X16865000Y14499958D01*
X18285000Y13982802D02*
X18285000Y14499958D01*
G04 #@! TO.C,C4*
X29960000Y14499958D02*
X29960000Y13982802D01*
X28540000Y14499958D02*
X28540000Y13982802D01*
G04 #@! TO.C,C5*
X35241422Y11290000D02*
X35758578Y11290000D01*
X35241422Y12710000D02*
X35758578Y12710000D01*
G04 #@! TO.C,C6*
X18058578Y5710000D02*
X17541422Y5710000D01*
X18058578Y4290000D02*
X17541422Y4290000D01*
G04 #@! TO.C,C7*
X11141422Y11090000D02*
X11658578Y11090000D01*
X11141422Y12510000D02*
X11658578Y12510000D01*
G04 #@! TO.C,C8*
X20765000Y13982802D02*
X20765000Y14499958D01*
X22185000Y13982802D02*
X22185000Y14499958D01*
G04 #@! TO.C,D1*
X14000000Y16075000D02*
X14000000Y14075000D01*
X14000000Y14075000D02*
X10150000Y14075000D01*
X14000000Y16075000D02*
X10150000Y16075000D01*
G04 #@! TO.C,R1*
X35065703Y14382802D02*
X35065703Y14899958D01*
X33645703Y14382802D02*
X33645703Y14899958D01*
G04 #@! TO.C,R2*
X33065703Y14382802D02*
X33065703Y14899958D01*
X31645703Y14382802D02*
X31645703Y14899958D01*
G04 #@! TO.C,R3*
X37065703Y14382802D02*
X37065703Y14899958D01*
X35645703Y14382802D02*
X35645703Y14899958D01*
G04 #@! TO.C,R4*
X24708578Y4831380D02*
X24191422Y4831380D01*
X24708578Y6251380D02*
X24191422Y6251380D01*
G04 #@! TO.C,R5*
X31508578Y9790000D02*
X30991422Y9790000D01*
X31508578Y11210000D02*
X30991422Y11210000D01*
G04 #@! TO.C,R6*
X30991422Y9251380D02*
X31508578Y9251380D01*
X30991422Y7831380D02*
X31508578Y7831380D01*
G04 #@! TO.C,R7*
X30991422Y5831380D02*
X31508578Y5831380D01*
X30991422Y7251380D02*
X31508578Y7251380D01*
G04 #@! TO.C,R8*
X23660000Y9258578D02*
X23660000Y8741422D01*
X22240000Y9258578D02*
X22240000Y8741422D01*
G04 #@! TO.C,F1*
D11*
X15983333Y16358929D02*
X16316666Y16358929D01*
X16316666Y15835120D02*
X16316666Y16835120D01*
X15840476Y16835120D01*
X14935714Y15835120D02*
X15507142Y15835120D01*
X15221428Y15835120D02*
X15221428Y16835120D01*
X15316666Y16692262D01*
X15411904Y16597024D01*
X15507142Y16549405D01*
G04 #@! TO.C,U1*
X21736904Y5872620D02*
X21736904Y5063096D01*
X21689285Y4967858D01*
X21641666Y4920239D01*
X21546428Y4872620D01*
X21355952Y4872620D01*
X21260714Y4920239D01*
X21213095Y4967858D01*
X21165476Y5063096D01*
X21165476Y5872620D01*
X20165476Y4872620D02*
X20736904Y4872620D01*
X20451190Y4872620D02*
X20451190Y5872620D01*
X20546428Y5729762D01*
X20641666Y5634524D01*
X20736904Y5586905D01*
G04 #@! TO.C,U2*
X25011904Y16847620D02*
X25011904Y16038096D01*
X24964285Y15942858D01*
X24916666Y15895239D01*
X24821428Y15847620D01*
X24630952Y15847620D01*
X24535714Y15895239D01*
X24488095Y15942858D01*
X24440476Y16038096D01*
X24440476Y16847620D01*
X24011904Y16752381D02*
X23964285Y16800000D01*
X23869047Y16847620D01*
X23630952Y16847620D01*
X23535714Y16800000D01*
X23488095Y16752381D01*
X23440476Y16657143D01*
X23440476Y16561905D01*
X23488095Y16419048D01*
X24059523Y15847620D01*
X23440476Y15847620D01*
G04 #@! TO.C,U4*
X38011904Y6297620D02*
X38011904Y5488096D01*
X37964285Y5392858D01*
X37916666Y5345239D01*
X37821428Y5297620D01*
X37630952Y5297620D01*
X37535714Y5345239D01*
X37488095Y5392858D01*
X37440476Y5488096D01*
X37440476Y6297620D01*
X36535714Y5964286D02*
X36535714Y5297620D01*
X36773809Y6345239D02*
X37011904Y5630953D01*
X36392857Y5630953D01*
G04 #@! TO.C,U5*
X12161904Y7047620D02*
X12161904Y6238096D01*
X12114285Y6142858D01*
X12066666Y6095239D01*
X11971428Y6047620D01*
X11780952Y6047620D01*
X11685714Y6095239D01*
X11638095Y6142858D01*
X11590476Y6238096D01*
X11590476Y7047620D01*
X10638095Y7047620D02*
X11114285Y7047620D01*
X11161904Y6571429D01*
X11114285Y6619048D01*
X11019047Y6666667D01*
X10780952Y6666667D01*
X10685714Y6619048D01*
X10638095Y6571429D01*
X10590476Y6476191D01*
X10590476Y6238096D01*
X10638095Y6142858D01*
X10685714Y6095239D01*
X10780952Y6047620D01*
X11019047Y6047620D01*
X11114285Y6095239D01*
X11161904Y6142858D01*
G04 #@! TO.C,C1*
X27416666Y15892858D02*
X27464285Y15845239D01*
X27607142Y15797620D01*
X27702380Y15797620D01*
X27845238Y15845239D01*
X27940476Y15940477D01*
X27988095Y16035715D01*
X28035714Y16226191D01*
X28035714Y16369048D01*
X27988095Y16559524D01*
X27940476Y16654762D01*
X27845238Y16750000D01*
X27702380Y16797620D01*
X27607142Y16797620D01*
X27464285Y16750000D01*
X27416666Y16702381D01*
X26464285Y15797620D02*
X27035714Y15797620D01*
X26750000Y15797620D02*
X26750000Y16797620D01*
X26845238Y16654762D01*
X26940476Y16559524D01*
X27035714Y16511905D01*
G04 #@! TO.C,C2*
X19666666Y15892858D02*
X19714285Y15845239D01*
X19857142Y15797620D01*
X19952380Y15797620D01*
X20095238Y15845239D01*
X20190476Y15940477D01*
X20238095Y16035715D01*
X20285714Y16226191D01*
X20285714Y16369048D01*
X20238095Y16559524D01*
X20190476Y16654762D01*
X20095238Y16750000D01*
X19952380Y16797620D01*
X19857142Y16797620D01*
X19714285Y16750000D01*
X19666666Y16702381D01*
X19285714Y16702381D02*
X19238095Y16750000D01*
X19142857Y16797620D01*
X18904761Y16797620D01*
X18809523Y16750000D01*
X18761904Y16702381D01*
X18714285Y16607143D01*
X18714285Y16511905D01*
X18761904Y16369048D01*
X19333333Y15797620D01*
X18714285Y15797620D01*
G04 #@! TO.C,C3*
X17666666Y15892858D02*
X17714285Y15845239D01*
X17857142Y15797620D01*
X17952380Y15797620D01*
X18095238Y15845239D01*
X18190476Y15940477D01*
X18238095Y16035715D01*
X18285714Y16226191D01*
X18285714Y16369048D01*
X18238095Y16559524D01*
X18190476Y16654762D01*
X18095238Y16750000D01*
X17952380Y16797620D01*
X17857142Y16797620D01*
X17714285Y16750000D01*
X17666666Y16702381D01*
X17333333Y16797620D02*
X16714285Y16797620D01*
X17047619Y16416667D01*
X16904761Y16416667D01*
X16809523Y16369048D01*
X16761904Y16321429D01*
X16714285Y16226191D01*
X16714285Y15988096D01*
X16761904Y15892858D01*
X16809523Y15845239D01*
X16904761Y15797620D01*
X17190476Y15797620D01*
X17285714Y15845239D01*
X17333333Y15892858D01*
G04 #@! TO.C,C4*
X29416666Y15892858D02*
X29464285Y15845239D01*
X29607142Y15797620D01*
X29702380Y15797620D01*
X29845238Y15845239D01*
X29940476Y15940477D01*
X29988095Y16035715D01*
X30035714Y16226191D01*
X30035714Y16369048D01*
X29988095Y16559524D01*
X29940476Y16654762D01*
X29845238Y16750000D01*
X29702380Y16797620D01*
X29607142Y16797620D01*
X29464285Y16750000D01*
X29416666Y16702381D01*
X28559523Y16464286D02*
X28559523Y15797620D01*
X28797619Y16845239D02*
X29035714Y16130953D01*
X28416666Y16130953D01*
G04 #@! TO.C,C5*
X33416666Y11642858D02*
X33464285Y11595239D01*
X33607142Y11547620D01*
X33702380Y11547620D01*
X33845238Y11595239D01*
X33940476Y11690477D01*
X33988095Y11785715D01*
X34035714Y11976191D01*
X34035714Y12119048D01*
X33988095Y12309524D01*
X33940476Y12404762D01*
X33845238Y12500000D01*
X33702380Y12547620D01*
X33607142Y12547620D01*
X33464285Y12500000D01*
X33416666Y12452381D01*
X32511904Y12547620D02*
X32988095Y12547620D01*
X33035714Y12071429D01*
X32988095Y12119048D01*
X32892857Y12166667D01*
X32654761Y12166667D01*
X32559523Y12119048D01*
X32511904Y12071429D01*
X32464285Y11976191D01*
X32464285Y11738096D01*
X32511904Y11642858D01*
X32559523Y11595239D01*
X32654761Y11547620D01*
X32892857Y11547620D01*
X32988095Y11595239D01*
X33035714Y11642858D01*
G04 #@! TO.C,C6*
X15666666Y4642858D02*
X15714285Y4595239D01*
X15857142Y4547620D01*
X15952380Y4547620D01*
X16095238Y4595239D01*
X16190476Y4690477D01*
X16238095Y4785715D01*
X16285714Y4976191D01*
X16285714Y5119048D01*
X16238095Y5309524D01*
X16190476Y5404762D01*
X16095238Y5500000D01*
X15952380Y5547620D01*
X15857142Y5547620D01*
X15714285Y5500000D01*
X15666666Y5452381D01*
X14809523Y5547620D02*
X15000000Y5547620D01*
X15095238Y5500000D01*
X15142857Y5452381D01*
X15238095Y5309524D01*
X15285714Y5119048D01*
X15285714Y4738096D01*
X15238095Y4642858D01*
X15190476Y4595239D01*
X15095238Y4547620D01*
X14904761Y4547620D01*
X14809523Y4595239D01*
X14761904Y4642858D01*
X14714285Y4738096D01*
X14714285Y4976191D01*
X14761904Y5071429D01*
X14809523Y5119048D01*
X14904761Y5166667D01*
X15095238Y5166667D01*
X15190476Y5119048D01*
X15238095Y5071429D01*
X15285714Y4976191D01*
G04 #@! TO.C,C7*
X14166666Y11392858D02*
X14214285Y11345239D01*
X14357142Y11297620D01*
X14452380Y11297620D01*
X14595238Y11345239D01*
X14690476Y11440477D01*
X14738095Y11535715D01*
X14785714Y11726191D01*
X14785714Y11869048D01*
X14738095Y12059524D01*
X14690476Y12154762D01*
X14595238Y12250000D01*
X14452380Y12297620D01*
X14357142Y12297620D01*
X14214285Y12250000D01*
X14166666Y12202381D01*
X13833333Y12297620D02*
X13166666Y12297620D01*
X13595238Y11297620D01*
G04 #@! TO.C,C8*
X21666666Y15892858D02*
X21714285Y15845239D01*
X21857142Y15797620D01*
X21952380Y15797620D01*
X22095238Y15845239D01*
X22190476Y15940477D01*
X22238095Y16035715D01*
X22285714Y16226191D01*
X22285714Y16369048D01*
X22238095Y16559524D01*
X22190476Y16654762D01*
X22095238Y16750000D01*
X21952380Y16797620D01*
X21857142Y16797620D01*
X21714285Y16750000D01*
X21666666Y16702381D01*
X21095238Y16369048D02*
X21190476Y16416667D01*
X21238095Y16464286D01*
X21285714Y16559524D01*
X21285714Y16607143D01*
X21238095Y16702381D01*
X21190476Y16750000D01*
X21095238Y16797620D01*
X20904761Y16797620D01*
X20809523Y16750000D01*
X20761904Y16702381D01*
X20714285Y16607143D01*
X20714285Y16559524D01*
X20761904Y16464286D01*
X20809523Y16416667D01*
X20904761Y16369048D01*
X21095238Y16369048D01*
X21190476Y16321429D01*
X21238095Y16273810D01*
X21285714Y16178572D01*
X21285714Y15988096D01*
X21238095Y15892858D01*
X21190476Y15845239D01*
X21095238Y15797620D01*
X20904761Y15797620D01*
X20809523Y15845239D01*
X20761904Y15892858D01*
X20714285Y15988096D01*
X20714285Y16178572D01*
X20761904Y16273810D01*
X20809523Y16321429D01*
X20904761Y16369048D01*
G04 #@! TO.C,D1*
X13863095Y16372620D02*
X13863095Y17372620D01*
X13625000Y17372620D01*
X13482142Y17325000D01*
X13386904Y17229762D01*
X13339285Y17134524D01*
X13291666Y16944048D01*
X13291666Y16801191D01*
X13339285Y16610715D01*
X13386904Y16515477D01*
X13482142Y16420239D01*
X13625000Y16372620D01*
X13863095Y16372620D01*
X12339285Y16372620D02*
X12910714Y16372620D01*
X12625000Y16372620D02*
X12625000Y17372620D01*
X12720238Y17229762D01*
X12815476Y17134524D01*
X12910714Y17086905D01*
G04 #@! TO.C,R1*
X34416666Y16247620D02*
X34750000Y16723810D01*
X34988095Y16247620D02*
X34988095Y17247620D01*
X34607142Y17247620D01*
X34511904Y17200000D01*
X34464285Y17152381D01*
X34416666Y17057143D01*
X34416666Y16914286D01*
X34464285Y16819048D01*
X34511904Y16771429D01*
X34607142Y16723810D01*
X34988095Y16723810D01*
X33464285Y16247620D02*
X34035714Y16247620D01*
X33750000Y16247620D02*
X33750000Y17247620D01*
X33845238Y17104762D01*
X33940476Y17009524D01*
X34035714Y16961905D01*
G04 #@! TO.C,R2*
X32416666Y16247620D02*
X32750000Y16723810D01*
X32988095Y16247620D02*
X32988095Y17247620D01*
X32607142Y17247620D01*
X32511904Y17200000D01*
X32464285Y17152381D01*
X32416666Y17057143D01*
X32416666Y16914286D01*
X32464285Y16819048D01*
X32511904Y16771429D01*
X32607142Y16723810D01*
X32988095Y16723810D01*
X32035714Y17152381D02*
X31988095Y17200000D01*
X31892857Y17247620D01*
X31654761Y17247620D01*
X31559523Y17200000D01*
X31511904Y17152381D01*
X31464285Y17057143D01*
X31464285Y16961905D01*
X31511904Y16819048D01*
X32083333Y16247620D01*
X31464285Y16247620D01*
G04 #@! TO.C,R3*
X36666666Y16247620D02*
X37000000Y16723810D01*
X37238095Y16247620D02*
X37238095Y17247620D01*
X36857142Y17247620D01*
X36761904Y17200000D01*
X36714285Y17152381D01*
X36666666Y17057143D01*
X36666666Y16914286D01*
X36714285Y16819048D01*
X36761904Y16771429D01*
X36857142Y16723810D01*
X37238095Y16723810D01*
X36333333Y17247620D02*
X35714285Y17247620D01*
X36047619Y16866667D01*
X35904761Y16866667D01*
X35809523Y16819048D01*
X35761904Y16771429D01*
X35714285Y16676191D01*
X35714285Y16438096D01*
X35761904Y16342858D01*
X35809523Y16295239D01*
X35904761Y16247620D01*
X36190476Y16247620D01*
X36285714Y16295239D01*
X36333333Y16342858D01*
G04 #@! TO.C,R4*
X26916666Y5047620D02*
X27250000Y5523810D01*
X27488095Y5047620D02*
X27488095Y6047620D01*
X27107142Y6047620D01*
X27011904Y6000000D01*
X26964285Y5952381D01*
X26916666Y5857143D01*
X26916666Y5714286D01*
X26964285Y5619048D01*
X27011904Y5571429D01*
X27107142Y5523810D01*
X27488095Y5523810D01*
X26059523Y5714286D02*
X26059523Y5047620D01*
X26297619Y6095239D02*
X26535714Y5380953D01*
X25916666Y5380953D01*
G04 #@! TO.C,R5*
X29166666Y10047620D02*
X29500000Y10523810D01*
X29738095Y10047620D02*
X29738095Y11047620D01*
X29357142Y11047620D01*
X29261904Y11000000D01*
X29214285Y10952381D01*
X29166666Y10857143D01*
X29166666Y10714286D01*
X29214285Y10619048D01*
X29261904Y10571429D01*
X29357142Y10523810D01*
X29738095Y10523810D01*
X28261904Y11047620D02*
X28738095Y11047620D01*
X28785714Y10571429D01*
X28738095Y10619048D01*
X28642857Y10666667D01*
X28404761Y10666667D01*
X28309523Y10619048D01*
X28261904Y10571429D01*
X28214285Y10476191D01*
X28214285Y10238096D01*
X28261904Y10142858D01*
X28309523Y10095239D01*
X28404761Y10047620D01*
X28642857Y10047620D01*
X28738095Y10095239D01*
X28785714Y10142858D01*
G04 #@! TO.C,R6*
X29166666Y8047620D02*
X29500000Y8523810D01*
X29738095Y8047620D02*
X29738095Y9047620D01*
X29357142Y9047620D01*
X29261904Y9000000D01*
X29214285Y8952381D01*
X29166666Y8857143D01*
X29166666Y8714286D01*
X29214285Y8619048D01*
X29261904Y8571429D01*
X29357142Y8523810D01*
X29738095Y8523810D01*
X28309523Y9047620D02*
X28500000Y9047620D01*
X28595238Y9000000D01*
X28642857Y8952381D01*
X28738095Y8809524D01*
X28785714Y8619048D01*
X28785714Y8238096D01*
X28738095Y8142858D01*
X28690476Y8095239D01*
X28595238Y8047620D01*
X28404761Y8047620D01*
X28309523Y8095239D01*
X28261904Y8142858D01*
X28214285Y8238096D01*
X28214285Y8476191D01*
X28261904Y8571429D01*
X28309523Y8619048D01*
X28404761Y8666667D01*
X28595238Y8666667D01*
X28690476Y8619048D01*
X28738095Y8571429D01*
X28785714Y8476191D01*
G04 #@! TO.C,R7*
X29166666Y6047620D02*
X29500000Y6523810D01*
X29738095Y6047620D02*
X29738095Y7047620D01*
X29357142Y7047620D01*
X29261904Y7000000D01*
X29214285Y6952381D01*
X29166666Y6857143D01*
X29166666Y6714286D01*
X29214285Y6619048D01*
X29261904Y6571429D01*
X29357142Y6523810D01*
X29738095Y6523810D01*
X28833333Y7047620D02*
X28166666Y7047620D01*
X28595238Y6047620D01*
G04 #@! TO.C,R8*
X23166666Y10547620D02*
X23500000Y11023810D01*
X23738095Y10547620D02*
X23738095Y11547620D01*
X23357142Y11547620D01*
X23261904Y11500000D01*
X23214285Y11452381D01*
X23166666Y11357143D01*
X23166666Y11214286D01*
X23214285Y11119048D01*
X23261904Y11071429D01*
X23357142Y11023810D01*
X23738095Y11023810D01*
X22595238Y11119048D02*
X22690476Y11166667D01*
X22738095Y11214286D01*
X22785714Y11309524D01*
X22785714Y11357143D01*
X22738095Y11452381D01*
X22690476Y11500000D01*
X22595238Y11547620D01*
X22404761Y11547620D01*
X22309523Y11500000D01*
X22261904Y11452381D01*
X22214285Y11357143D01*
X22214285Y11309524D01*
X22261904Y11214286D01*
X22309523Y11166667D01*
X22404761Y11119048D01*
X22595238Y11119048D01*
X22690476Y11071429D01*
X22738095Y11023810D01*
X22785714Y10928572D01*
X22785714Y10738096D01*
X22738095Y10642858D01*
X22690476Y10595239D01*
X22595238Y10547620D01*
X22404761Y10547620D01*
X22309523Y10595239D01*
X22261904Y10642858D01*
X22214285Y10738096D01*
X22214285Y10928572D01*
X22261904Y11023810D01*
X22309523Y11071429D01*
X22404761Y11119048D01*
G04 #@! TD*
M02*
