G04 #@! TF.GenerationSoftware,KiCad,Pcbnew,5.0.2-bee76a0~70~ubuntu18.04.1*
G04 #@! TF.CreationDate,2020-03-17T18:57:39-04:00*
G04 #@! TF.ProjectId,ESP-AHT10-Extra,4553502d-4148-4543-9130-2d4578747261,1.4*
G04 #@! TF.SameCoordinates,PX7bfa480PY66c2270*
G04 #@! TF.FileFunction,Soldermask,Bot*
G04 #@! TF.FilePolarity,Negative*
%FSLAX46Y46*%
G04 Gerber Fmt 4.6, Leading zero omitted, Abs format (unit mm)*
G04 Created by KiCad (PCBNEW 5.0.2-bee76a0~70~ubuntu18.04.1) date Tue 17 Mar 2020 06:57:39 PM EDT*
%MOMM*%
%LPD*%
G01*
G04 APERTURE LIST*
%ADD10C,0.150000*%
%ADD11C,0.050000*%
G04 APERTURE END LIST*
D10*
G04 #@! TO.C,J1*
G36*
X8659217Y4387626D02*
X8659217Y16387626D01*
X59217Y16387626D01*
X59217Y4387626D01*
X8659217Y4387626D01*
G37*
X8659217Y4387626D02*
X8659217Y16387626D01*
X59217Y16387626D01*
X59217Y4387626D01*
X8659217Y4387626D01*
D11*
G36*
X13616821Y3288687D02*
X13616824Y3288686D01*
X13616825Y3288686D01*
X13777239Y3240025D01*
X13777241Y3240024D01*
X13777244Y3240023D01*
X13925078Y3161005D01*
X14054659Y3054659D01*
X14161005Y2925078D01*
X14240023Y2777244D01*
X14240024Y2777241D01*
X14240025Y2777239D01*
X14288686Y2616825D01*
X14288686Y2616822D01*
X14288687Y2616820D01*
X14301000Y2491803D01*
X14301000Y2008196D01*
X14288687Y1883179D01*
X14288686Y1883176D01*
X14288686Y1883175D01*
X14265434Y1806522D01*
X14240023Y1722756D01*
X14161005Y1574922D01*
X14054659Y1445341D01*
X13925078Y1338995D01*
X13777243Y1259977D01*
X13777240Y1259976D01*
X13777238Y1259975D01*
X13616824Y1211314D01*
X13616823Y1211314D01*
X13616820Y1211313D01*
X13450000Y1194883D01*
X13283179Y1211313D01*
X13283176Y1211314D01*
X13283175Y1211314D01*
X13122761Y1259975D01*
X13122759Y1259976D01*
X13122756Y1259977D01*
X12974922Y1338995D01*
X12845341Y1445341D01*
X12738995Y1574922D01*
X12659977Y1722757D01*
X12635905Y1802113D01*
X12611314Y1883176D01*
X12611314Y1883177D01*
X12611313Y1883180D01*
X12599000Y2008197D01*
X12599000Y2491804D01*
X12611313Y2616821D01*
X12659977Y2777244D01*
X12738993Y2925074D01*
X12845344Y3054661D01*
X12974923Y3161005D01*
X13122757Y3240023D01*
X13122760Y3240024D01*
X13122762Y3240025D01*
X13283176Y3288686D01*
X13283177Y3288686D01*
X13283180Y3288687D01*
X13450000Y3305117D01*
X13616821Y3288687D01*
X13616821Y3288687D01*
G37*
G36*
X20216821Y3288687D02*
X20216824Y3288686D01*
X20216825Y3288686D01*
X20377239Y3240025D01*
X20377241Y3240024D01*
X20377244Y3240023D01*
X20525078Y3161005D01*
X20654659Y3054659D01*
X20761005Y2925078D01*
X20840023Y2777244D01*
X20840024Y2777241D01*
X20840025Y2777239D01*
X20888686Y2616825D01*
X20888686Y2616822D01*
X20888687Y2616820D01*
X20901000Y2491803D01*
X20901000Y2008196D01*
X20888687Y1883179D01*
X20888686Y1883176D01*
X20888686Y1883175D01*
X20865434Y1806522D01*
X20840023Y1722756D01*
X20761005Y1574922D01*
X20654659Y1445341D01*
X20525078Y1338995D01*
X20377243Y1259977D01*
X20377240Y1259976D01*
X20377238Y1259975D01*
X20216824Y1211314D01*
X20216823Y1211314D01*
X20216820Y1211313D01*
X20050000Y1194883D01*
X19883179Y1211313D01*
X19883176Y1211314D01*
X19883175Y1211314D01*
X19722761Y1259975D01*
X19722759Y1259976D01*
X19722756Y1259977D01*
X19574922Y1338995D01*
X19445341Y1445341D01*
X19338995Y1574922D01*
X19259977Y1722757D01*
X19235905Y1802113D01*
X19211314Y1883176D01*
X19211314Y1883177D01*
X19211313Y1883180D01*
X19199000Y2008197D01*
X19199000Y2491804D01*
X19211313Y2616821D01*
X19259977Y2777244D01*
X19338993Y2925074D01*
X19445344Y3054661D01*
X19574923Y3161005D01*
X19722757Y3240023D01*
X19722760Y3240024D01*
X19722762Y3240025D01*
X19883176Y3288686D01*
X19883177Y3288686D01*
X19883180Y3288687D01*
X20050000Y3305117D01*
X20216821Y3288687D01*
X20216821Y3288687D01*
G37*
G36*
X28327035Y4029930D02*
X28440322Y3995564D01*
X28544730Y3939757D01*
X28636244Y3864653D01*
X28711348Y3773139D01*
X28767155Y3668731D01*
X28801521Y3555444D01*
X28810217Y3467145D01*
X28810217Y2008107D01*
X28801521Y1919808D01*
X28767155Y1806521D01*
X28715883Y1710599D01*
X28711347Y1702113D01*
X28636244Y1610599D01*
X28598579Y1579689D01*
X28544729Y1535495D01*
X28440321Y1479688D01*
X28327034Y1445322D01*
X28209217Y1433719D01*
X28091399Y1445322D01*
X27978112Y1479688D01*
X27873705Y1535495D01*
X27825662Y1574923D01*
X27782190Y1610599D01*
X27748337Y1651850D01*
X27707086Y1702114D01*
X27651279Y1806522D01*
X27616913Y1919809D01*
X27608217Y2008108D01*
X27608218Y3467145D01*
X27616914Y3555444D01*
X27651280Y3668731D01*
X27707087Y3773139D01*
X27782191Y3864653D01*
X27873705Y3939757D01*
X27978113Y3995564D01*
X28091400Y4029930D01*
X28209217Y4041533D01*
X28327035Y4029930D01*
X28327035Y4029930D01*
G37*
G36*
X26327035Y4029930D02*
X26440322Y3995564D01*
X26544730Y3939757D01*
X26636244Y3864653D01*
X26711348Y3773139D01*
X26767155Y3668731D01*
X26801521Y3555444D01*
X26810217Y3467145D01*
X26810217Y2008107D01*
X26801521Y1919808D01*
X26767155Y1806521D01*
X26715883Y1710599D01*
X26711347Y1702113D01*
X26636244Y1610599D01*
X26598579Y1579689D01*
X26544729Y1535495D01*
X26440321Y1479688D01*
X26327034Y1445322D01*
X26209217Y1433719D01*
X26091399Y1445322D01*
X25978112Y1479688D01*
X25873705Y1535495D01*
X25825662Y1574923D01*
X25782190Y1610599D01*
X25748337Y1651850D01*
X25707086Y1702114D01*
X25651279Y1806522D01*
X25616913Y1919809D01*
X25608217Y2008108D01*
X25608218Y3467145D01*
X25616914Y3555444D01*
X25651280Y3668731D01*
X25707087Y3773139D01*
X25782191Y3864653D01*
X25873705Y3939757D01*
X25978113Y3995564D01*
X26091400Y4029930D01*
X26209217Y4041533D01*
X26327035Y4029930D01*
X26327035Y4029930D01*
G37*
G36*
X30082890Y5251983D02*
X30201361Y5202911D01*
X30201364Y5202909D01*
X30210386Y5196881D01*
X30307992Y5131662D01*
X30398662Y5040992D01*
X30469911Y4934361D01*
X30518983Y4815890D01*
X30544000Y4690119D01*
X30544000Y4561881D01*
X30518983Y4436110D01*
X30469911Y4317639D01*
X30469909Y4317636D01*
X30422937Y4247337D01*
X30398662Y4211008D01*
X30390524Y4202870D01*
X30374978Y4183928D01*
X30363427Y4162317D01*
X30356314Y4138868D01*
X30353912Y4114482D01*
X30356314Y4090096D01*
X30363427Y4066647D01*
X30374978Y4045036D01*
X30390524Y4026094D01*
X30409466Y4010548D01*
X30433984Y3998951D01*
X30544730Y3939757D01*
X30636244Y3864653D01*
X30711348Y3773139D01*
X30767155Y3668731D01*
X30801521Y3555444D01*
X30810217Y3467145D01*
X30810217Y2008107D01*
X30801521Y1919808D01*
X30767155Y1806521D01*
X30715883Y1710599D01*
X30711347Y1702113D01*
X30636244Y1610599D01*
X30598579Y1579689D01*
X30544729Y1535495D01*
X30440321Y1479688D01*
X30327034Y1445322D01*
X30209217Y1433719D01*
X30091399Y1445322D01*
X29978112Y1479688D01*
X29873705Y1535495D01*
X29825662Y1574923D01*
X29782190Y1610599D01*
X29748337Y1651850D01*
X29707086Y1702114D01*
X29651279Y1806522D01*
X29616913Y1919809D01*
X29608217Y2008108D01*
X29608218Y3467145D01*
X29616914Y3555444D01*
X29651280Y3668731D01*
X29707087Y3773139D01*
X29738113Y3810944D01*
X29751727Y3831319D01*
X29761105Y3853958D01*
X29765885Y3877991D01*
X29765885Y3902495D01*
X29761104Y3926529D01*
X29751727Y3949168D01*
X29738113Y3969542D01*
X29720786Y3986869D01*
X29689322Y4005728D01*
X29584639Y4049089D01*
X29515086Y4095563D01*
X29478012Y4120335D01*
X29478011Y4120336D01*
X29478008Y4120338D01*
X29387338Y4211008D01*
X29363064Y4247337D01*
X29316091Y4317636D01*
X29316089Y4317639D01*
X29267017Y4436110D01*
X29242000Y4561881D01*
X29242000Y4690119D01*
X29267017Y4815890D01*
X29316089Y4934361D01*
X29387338Y5040992D01*
X29478008Y5131662D01*
X29575615Y5196881D01*
X29584636Y5202909D01*
X29584639Y5202911D01*
X29703110Y5251983D01*
X29828881Y5277000D01*
X29957119Y5277000D01*
X30082890Y5251983D01*
X30082890Y5251983D01*
G37*
G36*
X32114890Y5378983D02*
X32233361Y5329911D01*
X32233364Y5329909D01*
X32312548Y5277000D01*
X32339992Y5258662D01*
X32430662Y5167992D01*
X32501911Y5061361D01*
X32550983Y4942890D01*
X32576000Y4817119D01*
X32576000Y4688881D01*
X32550983Y4563110D01*
X32501911Y4444639D01*
X32501909Y4444636D01*
X32455823Y4375663D01*
X32430662Y4338008D01*
X32339991Y4247337D01*
X32331914Y4241940D01*
X32312973Y4226394D01*
X32297427Y4207452D01*
X32285876Y4185841D01*
X32278764Y4162392D01*
X32276362Y4138006D01*
X32278764Y4113619D01*
X32285878Y4090170D01*
X32297429Y4068559D01*
X32312975Y4049618D01*
X32331917Y4034072D01*
X32365076Y4018390D01*
X32440322Y3995564D01*
X32544730Y3939757D01*
X32636244Y3864653D01*
X32711348Y3773139D01*
X32767155Y3668731D01*
X32801521Y3555444D01*
X32810217Y3467145D01*
X32810217Y2008107D01*
X32801521Y1919808D01*
X32767155Y1806521D01*
X32715883Y1710599D01*
X32711347Y1702113D01*
X32636244Y1610599D01*
X32598579Y1579689D01*
X32544729Y1535495D01*
X32440321Y1479688D01*
X32327034Y1445322D01*
X32209217Y1433719D01*
X32091399Y1445322D01*
X31978112Y1479688D01*
X31873705Y1535495D01*
X31825662Y1574923D01*
X31782190Y1610599D01*
X31748337Y1651850D01*
X31707086Y1702114D01*
X31651279Y1806522D01*
X31616913Y1919809D01*
X31608217Y2008108D01*
X31608218Y3467145D01*
X31616914Y3555444D01*
X31651280Y3668731D01*
X31707087Y3773139D01*
X31782191Y3864653D01*
X31826030Y3900631D01*
X31843357Y3917958D01*
X31856971Y3938332D01*
X31866348Y3960971D01*
X31871129Y3985005D01*
X31871129Y4009509D01*
X31866349Y4033542D01*
X31856971Y4056181D01*
X31843357Y4076556D01*
X31826030Y4093883D01*
X31805656Y4107497D01*
X31783017Y4116874D01*
X31771117Y4119855D01*
X31768704Y4120335D01*
X31735110Y4127017D01*
X31706499Y4138868D01*
X31616639Y4176089D01*
X31602044Y4185841D01*
X31510012Y4247335D01*
X31510011Y4247336D01*
X31510008Y4247338D01*
X31419338Y4338008D01*
X31394178Y4375663D01*
X31348091Y4444636D01*
X31348089Y4444639D01*
X31299017Y4563110D01*
X31274000Y4688881D01*
X31274000Y4817119D01*
X31299017Y4942890D01*
X31348089Y5061361D01*
X31419338Y5167992D01*
X31510008Y5258662D01*
X31537453Y5277000D01*
X31616636Y5329909D01*
X31616639Y5329911D01*
X31735110Y5378983D01*
X31860881Y5404000D01*
X31989119Y5404000D01*
X32114890Y5378983D01*
X32114890Y5378983D01*
G37*
G36*
X36327035Y4029930D02*
X36440322Y3995564D01*
X36544730Y3939757D01*
X36636244Y3864653D01*
X36711348Y3773139D01*
X36767155Y3668731D01*
X36801521Y3555444D01*
X36810217Y3467145D01*
X36810217Y2008107D01*
X36801521Y1919808D01*
X36767155Y1806521D01*
X36715883Y1710599D01*
X36711347Y1702113D01*
X36636244Y1610599D01*
X36598579Y1579689D01*
X36544729Y1535495D01*
X36440321Y1479688D01*
X36327034Y1445322D01*
X36209217Y1433719D01*
X36091399Y1445322D01*
X35978112Y1479688D01*
X35873705Y1535495D01*
X35825662Y1574923D01*
X35782190Y1610599D01*
X35748337Y1651850D01*
X35707086Y1702114D01*
X35651279Y1806522D01*
X35616913Y1919809D01*
X35608217Y2008108D01*
X35608218Y3467145D01*
X35616914Y3555444D01*
X35651280Y3668731D01*
X35707087Y3773139D01*
X35782191Y3864653D01*
X35873705Y3939757D01*
X35978113Y3995564D01*
X36091400Y4029930D01*
X36209217Y4041533D01*
X36327035Y4029930D01*
X36327035Y4029930D01*
G37*
G36*
X22327035Y4029930D02*
X22440322Y3995564D01*
X22544730Y3939757D01*
X22636244Y3864653D01*
X22711348Y3773139D01*
X22767155Y3668731D01*
X22801521Y3555444D01*
X22810217Y3467145D01*
X22810217Y2008107D01*
X22801521Y1919808D01*
X22767155Y1806521D01*
X22715883Y1710599D01*
X22711347Y1702113D01*
X22636244Y1610599D01*
X22598579Y1579689D01*
X22544729Y1535495D01*
X22440321Y1479688D01*
X22327034Y1445322D01*
X22209217Y1433719D01*
X22091399Y1445322D01*
X21978112Y1479688D01*
X21873705Y1535495D01*
X21825662Y1574923D01*
X21782190Y1610599D01*
X21748337Y1651850D01*
X21707086Y1702114D01*
X21651279Y1806522D01*
X21616913Y1919809D01*
X21608217Y2008108D01*
X21608218Y3467145D01*
X21616914Y3555444D01*
X21651280Y3668731D01*
X21707087Y3773139D01*
X21782191Y3864653D01*
X21873705Y3939757D01*
X21978113Y3995564D01*
X22091400Y4029930D01*
X22209217Y4041533D01*
X22327035Y4029930D01*
X22327035Y4029930D01*
G37*
G36*
X34327035Y4029930D02*
X34440322Y3995564D01*
X34544730Y3939757D01*
X34636244Y3864653D01*
X34711348Y3773139D01*
X34767155Y3668731D01*
X34801521Y3555444D01*
X34810217Y3467145D01*
X34810217Y2008107D01*
X34801521Y1919808D01*
X34767155Y1806521D01*
X34715883Y1710599D01*
X34711347Y1702113D01*
X34636244Y1610599D01*
X34598579Y1579689D01*
X34544729Y1535495D01*
X34440321Y1479688D01*
X34327034Y1445322D01*
X34209217Y1433719D01*
X34091399Y1445322D01*
X33978112Y1479688D01*
X33873705Y1535495D01*
X33825662Y1574923D01*
X33782190Y1610599D01*
X33748337Y1651850D01*
X33707086Y1702114D01*
X33651279Y1806522D01*
X33616913Y1919809D01*
X33608217Y2008108D01*
X33608218Y3467145D01*
X33616914Y3555444D01*
X33651280Y3668731D01*
X33707087Y3773139D01*
X33782191Y3864653D01*
X33873705Y3939757D01*
X33978113Y3995564D01*
X34091400Y4029930D01*
X34209217Y4041533D01*
X34327035Y4029930D01*
X34327035Y4029930D01*
G37*
G36*
X24327035Y4129930D02*
X24440322Y4095564D01*
X24544730Y4039757D01*
X24636244Y3964653D01*
X24711348Y3873139D01*
X24767155Y3768731D01*
X24801521Y3655444D01*
X24810217Y3567145D01*
X24810217Y2108107D01*
X24801521Y2019808D01*
X24767155Y1906521D01*
X24711348Y1802114D01*
X24711347Y1802113D01*
X24636244Y1710599D01*
X24594993Y1676746D01*
X24544729Y1635495D01*
X24440321Y1579688D01*
X24327034Y1545322D01*
X24209217Y1533719D01*
X24091399Y1545322D01*
X23978112Y1579688D01*
X23873705Y1635495D01*
X23859789Y1646915D01*
X23782190Y1710599D01*
X23748337Y1751850D01*
X23707086Y1802114D01*
X23651279Y1906522D01*
X23616913Y2019809D01*
X23608217Y2108108D01*
X23608218Y3567145D01*
X23616914Y3655444D01*
X23651280Y3768731D01*
X23707087Y3873139D01*
X23782191Y3964653D01*
X23873705Y4039757D01*
X23978113Y4095564D01*
X24091400Y4129930D01*
X24209217Y4141533D01*
X24327035Y4129930D01*
X24327035Y4129930D01*
G37*
G36*
X18453966Y5753435D02*
X18492637Y5741704D01*
X18528279Y5722652D01*
X18559517Y5697017D01*
X18585152Y5665779D01*
X18604204Y5630137D01*
X18615935Y5591466D01*
X18620500Y5545112D01*
X18620500Y4468888D01*
X18615935Y4422534D01*
X18604204Y4383863D01*
X18585152Y4348221D01*
X18559517Y4316983D01*
X18528279Y4291348D01*
X18492637Y4272296D01*
X18453966Y4260565D01*
X18407612Y4256000D01*
X17756388Y4256000D01*
X17710034Y4260565D01*
X17671363Y4272296D01*
X17635721Y4291348D01*
X17604483Y4316983D01*
X17578848Y4348221D01*
X17559796Y4383863D01*
X17548065Y4422534D01*
X17543500Y4468888D01*
X17543500Y5545112D01*
X17548065Y5591466D01*
X17559796Y5630137D01*
X17578848Y5665779D01*
X17604483Y5697017D01*
X17635721Y5722652D01*
X17671363Y5741704D01*
X17710034Y5753435D01*
X17756388Y5758000D01*
X18407612Y5758000D01*
X18453966Y5753435D01*
X18453966Y5753435D01*
G37*
G36*
X16578966Y5753435D02*
X16617637Y5741704D01*
X16653279Y5722652D01*
X16684517Y5697017D01*
X16710152Y5665779D01*
X16729204Y5630137D01*
X16740935Y5591466D01*
X16745500Y5545112D01*
X16745500Y4468888D01*
X16740935Y4422534D01*
X16729204Y4383863D01*
X16710152Y4348221D01*
X16684517Y4316983D01*
X16653279Y4291348D01*
X16617637Y4272296D01*
X16578966Y4260565D01*
X16532612Y4256000D01*
X15881388Y4256000D01*
X15835034Y4260565D01*
X15796363Y4272296D01*
X15760721Y4291348D01*
X15729483Y4316983D01*
X15703848Y4348221D01*
X15684796Y4383863D01*
X15673065Y4422534D01*
X15668500Y4468888D01*
X15668500Y5545112D01*
X15673065Y5591466D01*
X15684796Y5630137D01*
X15703848Y5665779D01*
X15729483Y5697017D01*
X15760721Y5722652D01*
X15796363Y5741704D01*
X15835034Y5753435D01*
X15881388Y5758000D01*
X16532612Y5758000D01*
X16578966Y5753435D01*
X16578966Y5753435D01*
G37*
G36*
X13763390Y5632983D02*
X13881861Y5583911D01*
X13881864Y5583909D01*
X13961554Y5530662D01*
X13988492Y5512662D01*
X14079162Y5421992D01*
X14150411Y5315361D01*
X14199483Y5196890D01*
X14224500Y5071119D01*
X14224500Y4942881D01*
X14199483Y4817110D01*
X14150411Y4698639D01*
X14150409Y4698636D01*
X14091190Y4610008D01*
X14079162Y4592008D01*
X13988492Y4501338D01*
X13988489Y4501336D01*
X13988488Y4501335D01*
X13903632Y4444636D01*
X13881861Y4430089D01*
X13763390Y4381017D01*
X13637619Y4356000D01*
X13509381Y4356000D01*
X13383610Y4381017D01*
X13265139Y4430089D01*
X13243368Y4444636D01*
X13158512Y4501335D01*
X13158511Y4501336D01*
X13158508Y4501338D01*
X13067838Y4592008D01*
X13055811Y4610008D01*
X12996591Y4698636D01*
X12996589Y4698639D01*
X12947517Y4817110D01*
X12922500Y4942881D01*
X12922500Y5071119D01*
X12947517Y5196890D01*
X12996589Y5315361D01*
X13067838Y5421992D01*
X13158508Y5512662D01*
X13185447Y5530662D01*
X13265136Y5583909D01*
X13265139Y5583911D01*
X13383610Y5632983D01*
X13509381Y5658000D01*
X13637619Y5658000D01*
X13763390Y5632983D01*
X13763390Y5632983D01*
G37*
G36*
X34239890Y5650983D02*
X34358361Y5601911D01*
X34358364Y5601909D01*
X34449105Y5541278D01*
X34464992Y5530662D01*
X34555662Y5439992D01*
X34555664Y5439989D01*
X34555665Y5439988D01*
X34567692Y5421988D01*
X34626911Y5333361D01*
X34675983Y5214890D01*
X34701000Y5089119D01*
X34701000Y4960881D01*
X34675983Y4835110D01*
X34626911Y4716639D01*
X34626909Y4716636D01*
X34560465Y4617195D01*
X34555662Y4610008D01*
X34464992Y4519338D01*
X34464989Y4519336D01*
X34464988Y4519335D01*
X34438049Y4501335D01*
X34358361Y4448089D01*
X34239890Y4399017D01*
X34114119Y4374000D01*
X33985881Y4374000D01*
X33860110Y4399017D01*
X33741639Y4448089D01*
X33661951Y4501335D01*
X33635012Y4519335D01*
X33635011Y4519336D01*
X33635008Y4519338D01*
X33544338Y4610008D01*
X33539536Y4617195D01*
X33473091Y4716636D01*
X33473089Y4716639D01*
X33424017Y4835110D01*
X33399000Y4960881D01*
X33399000Y5089119D01*
X33424017Y5214890D01*
X33473089Y5333361D01*
X33532308Y5421988D01*
X33544335Y5439988D01*
X33544336Y5439989D01*
X33544338Y5439992D01*
X33635008Y5530662D01*
X33650896Y5541278D01*
X33741636Y5601909D01*
X33741639Y5601911D01*
X33860110Y5650983D01*
X33985881Y5676000D01*
X34114119Y5676000D01*
X34239890Y5650983D01*
X34239890Y5650983D01*
G37*
G36*
X36246470Y5926992D02*
X36265412Y5911446D01*
X36287023Y5899895D01*
X36310472Y5892782D01*
X36429225Y5869161D01*
X36547696Y5820089D01*
X36547699Y5820087D01*
X36647451Y5753435D01*
X36654327Y5748840D01*
X36744997Y5658170D01*
X36744999Y5658167D01*
X36745000Y5658166D01*
X36793057Y5586243D01*
X36816246Y5551539D01*
X36865318Y5433068D01*
X36890335Y5307297D01*
X36890335Y5179059D01*
X36865318Y5053288D01*
X36816246Y4934817D01*
X36816244Y4934814D01*
X36749624Y4835110D01*
X36744997Y4828186D01*
X36654327Y4737516D01*
X36654324Y4737514D01*
X36654323Y4737513D01*
X36595162Y4697983D01*
X36547696Y4666267D01*
X36429225Y4617195D01*
X36303454Y4592178D01*
X36175216Y4592178D01*
X36049445Y4617195D01*
X35930974Y4666267D01*
X35883508Y4697983D01*
X35824347Y4737513D01*
X35824346Y4737514D01*
X35824343Y4737516D01*
X35733673Y4828186D01*
X35729047Y4835110D01*
X35662426Y4934814D01*
X35662424Y4934817D01*
X35613352Y5053288D01*
X35588335Y5179059D01*
X35588335Y5307297D01*
X35613352Y5433068D01*
X35662424Y5551539D01*
X35685613Y5586243D01*
X35733670Y5658166D01*
X35733671Y5658167D01*
X35733673Y5658170D01*
X35824343Y5748840D01*
X35831220Y5753435D01*
X35930971Y5820087D01*
X35930974Y5820089D01*
X36049445Y5869161D01*
X36168198Y5892782D01*
X36191647Y5899895D01*
X36213258Y5911446D01*
X36232200Y5926991D01*
X36239335Y5935685D01*
X36246470Y5926992D01*
X36246470Y5926992D01*
G37*
G36*
X26399890Y5886983D02*
X26518361Y5837911D01*
X26518364Y5837909D01*
X26617571Y5771621D01*
X26624992Y5766662D01*
X26715662Y5675992D01*
X26715664Y5675989D01*
X26715665Y5675988D01*
X26744400Y5632983D01*
X26786911Y5569361D01*
X26835983Y5450890D01*
X26861000Y5325119D01*
X26861000Y5196881D01*
X26835983Y5071110D01*
X26786911Y4952639D01*
X26786909Y4952636D01*
X26720817Y4853722D01*
X26715662Y4846008D01*
X26624992Y4755338D01*
X26624989Y4755336D01*
X26624988Y4755335D01*
X26527384Y4690118D01*
X26518361Y4684089D01*
X26399890Y4635017D01*
X26274119Y4610000D01*
X26145881Y4610000D01*
X26020110Y4635017D01*
X25901639Y4684089D01*
X25892616Y4690118D01*
X25795012Y4755335D01*
X25795011Y4755336D01*
X25795008Y4755338D01*
X25704338Y4846008D01*
X25699184Y4853722D01*
X25633091Y4952636D01*
X25633089Y4952639D01*
X25584017Y5071110D01*
X25559000Y5196881D01*
X25559000Y5325119D01*
X25584017Y5450890D01*
X25633089Y5569361D01*
X25675600Y5632983D01*
X25704335Y5675988D01*
X25704336Y5675989D01*
X25704338Y5675992D01*
X25795008Y5766662D01*
X25802430Y5771621D01*
X25901636Y5837909D01*
X25901639Y5837911D01*
X26020110Y5886983D01*
X26145881Y5912000D01*
X26274119Y5912000D01*
X26399890Y5886983D01*
X26399890Y5886983D01*
G37*
G36*
X22723466Y6134435D02*
X22762137Y6122704D01*
X22797779Y6103652D01*
X22829017Y6078017D01*
X22854652Y6046779D01*
X22873704Y6011137D01*
X22885435Y5972466D01*
X22890000Y5926112D01*
X22890000Y4849888D01*
X22885435Y4803534D01*
X22873704Y4764863D01*
X22854652Y4729221D01*
X22829017Y4697983D01*
X22797779Y4672348D01*
X22762137Y4653296D01*
X22723466Y4641565D01*
X22677112Y4637000D01*
X22025888Y4637000D01*
X21979534Y4641565D01*
X21940863Y4653296D01*
X21905221Y4672348D01*
X21873983Y4697983D01*
X21848348Y4729221D01*
X21829296Y4764863D01*
X21817565Y4803534D01*
X21813000Y4849888D01*
X21813000Y5926112D01*
X21817565Y5972466D01*
X21829296Y6011137D01*
X21848348Y6046779D01*
X21873983Y6078017D01*
X21905221Y6103652D01*
X21940863Y6122704D01*
X21979534Y6134435D01*
X22025888Y6139000D01*
X22677112Y6139000D01*
X22723466Y6134435D01*
X22723466Y6134435D01*
G37*
G36*
X24598466Y6134435D02*
X24637137Y6122704D01*
X24672779Y6103652D01*
X24704017Y6078017D01*
X24729652Y6046779D01*
X24748704Y6011137D01*
X24760435Y5972466D01*
X24765000Y5926112D01*
X24765000Y4849888D01*
X24760435Y4803534D01*
X24748704Y4764863D01*
X24729652Y4729221D01*
X24704017Y4697983D01*
X24672779Y4672348D01*
X24637137Y4653296D01*
X24598466Y4641565D01*
X24552112Y4637000D01*
X23900888Y4637000D01*
X23854534Y4641565D01*
X23815863Y4653296D01*
X23780221Y4672348D01*
X23748983Y4697983D01*
X23723348Y4729221D01*
X23704296Y4764863D01*
X23692565Y4803534D01*
X23688000Y4849888D01*
X23688000Y5926112D01*
X23692565Y5972466D01*
X23704296Y6011137D01*
X23723348Y6046779D01*
X23748983Y6078017D01*
X23780221Y6103652D01*
X23815863Y6122704D01*
X23854534Y6134435D01*
X23900888Y6139000D01*
X24552112Y6139000D01*
X24598466Y6134435D01*
X24598466Y6134435D01*
G37*
G36*
X8657545Y7569617D02*
X8739603Y7544725D01*
X8815222Y7504305D01*
X8881502Y7449911D01*
X8935896Y7383631D01*
X8976316Y7308012D01*
X9001208Y7225954D01*
X9010217Y7134486D01*
X9010217Y6020766D01*
X9001208Y5929298D01*
X8976316Y5847240D01*
X8935896Y5771621D01*
X8881502Y5705341D01*
X8815222Y5650947D01*
X8739603Y5610527D01*
X8657545Y5585635D01*
X8566077Y5576626D01*
X1352357Y5576626D01*
X1260889Y5585635D01*
X1178831Y5610527D01*
X1103212Y5650947D01*
X1036932Y5705341D01*
X982538Y5771621D01*
X942118Y5847240D01*
X917226Y5929298D01*
X908217Y6020766D01*
X908217Y7134486D01*
X917226Y7225954D01*
X942118Y7308012D01*
X982538Y7383631D01*
X1036932Y7449911D01*
X1103212Y7504305D01*
X1178831Y7544725D01*
X1260889Y7569617D01*
X1352357Y7578626D01*
X8566077Y7578626D01*
X8657545Y7569617D01*
X8657545Y7569617D01*
G37*
G36*
X30548966Y7531435D02*
X30587637Y7519704D01*
X30623279Y7500652D01*
X30654517Y7475017D01*
X30680152Y7443779D01*
X30699204Y7408137D01*
X30710935Y7369466D01*
X30715500Y7323112D01*
X30715500Y6246888D01*
X30710935Y6200534D01*
X30699204Y6161863D01*
X30680152Y6126221D01*
X30654517Y6094983D01*
X30623279Y6069348D01*
X30587637Y6050296D01*
X30548966Y6038565D01*
X30502612Y6034000D01*
X29851388Y6034000D01*
X29805034Y6038565D01*
X29766363Y6050296D01*
X29730721Y6069348D01*
X29699483Y6094983D01*
X29673848Y6126221D01*
X29654796Y6161863D01*
X29643065Y6200534D01*
X29638500Y6246888D01*
X29638500Y7323112D01*
X29643065Y7369466D01*
X29654796Y7408137D01*
X29673848Y7443779D01*
X29699483Y7475017D01*
X29730721Y7500652D01*
X29766363Y7519704D01*
X29805034Y7531435D01*
X29851388Y7536000D01*
X30502612Y7536000D01*
X30548966Y7531435D01*
X30548966Y7531435D01*
G37*
G36*
X32423966Y7531435D02*
X32462637Y7519704D01*
X32498279Y7500652D01*
X32529517Y7475017D01*
X32555152Y7443779D01*
X32574204Y7408137D01*
X32585935Y7369466D01*
X32590500Y7323112D01*
X32590500Y6246888D01*
X32585935Y6200534D01*
X32574204Y6161863D01*
X32555152Y6126221D01*
X32529517Y6094983D01*
X32498279Y6069348D01*
X32462637Y6050296D01*
X32423966Y6038565D01*
X32377612Y6034000D01*
X31726388Y6034000D01*
X31680034Y6038565D01*
X31641363Y6050296D01*
X31605721Y6069348D01*
X31574483Y6094983D01*
X31548848Y6126221D01*
X31529796Y6161863D01*
X31518065Y6200534D01*
X31513500Y6246888D01*
X31513500Y7323112D01*
X31518065Y7369466D01*
X31529796Y7408137D01*
X31548848Y7443779D01*
X31574483Y7475017D01*
X31605721Y7500652D01*
X31641363Y7519704D01*
X31680034Y7531435D01*
X31726388Y7536000D01*
X32377612Y7536000D01*
X32423966Y7531435D01*
X32423966Y7531435D01*
G37*
G36*
X36231703Y6104177D02*
X36213259Y6119314D01*
X36191648Y6130865D01*
X36168199Y6137978D01*
X36143812Y6140380D01*
X35479703Y6140380D01*
X35479703Y7742380D01*
X36231703Y7742380D01*
X36231703Y6104177D01*
X36231703Y6104177D01*
G37*
G36*
X37199412Y7736940D02*
X37270283Y7715441D01*
X37335611Y7680523D01*
X37392862Y7633539D01*
X37439849Y7576284D01*
X37474763Y7510965D01*
X37496263Y7440090D01*
X37501703Y7384852D01*
X37501703Y6497908D01*
X37496263Y6442670D01*
X37474763Y6371795D01*
X37439849Y6306476D01*
X37392862Y6249221D01*
X37335607Y6202234D01*
X37270288Y6167320D01*
X37199413Y6145820D01*
X37125703Y6138561D01*
X37051994Y6145820D01*
X36981119Y6167320D01*
X36915800Y6202234D01*
X36858545Y6249221D01*
X36811558Y6306476D01*
X36776644Y6371795D01*
X36755144Y6442670D01*
X36749704Y6497908D01*
X36749703Y7384851D01*
X36755143Y7440089D01*
X36776642Y7510960D01*
X36811560Y7576288D01*
X36858544Y7633539D01*
X36915799Y7680526D01*
X36981118Y7715440D01*
X37051993Y7736940D01*
X37125703Y7744199D01*
X37199412Y7736940D01*
X37199412Y7736940D01*
G37*
G36*
X34961703Y6140380D02*
X34209703Y6140380D01*
X34209703Y7742380D01*
X34961703Y7742380D01*
X34961703Y6140380D01*
X34961703Y6140380D01*
G37*
G36*
X28826466Y7397435D02*
X28865137Y7385704D01*
X28900779Y7366652D01*
X28932017Y7341017D01*
X28957652Y7309779D01*
X28976704Y7274137D01*
X28988435Y7235466D01*
X28993000Y7189112D01*
X28993000Y6537888D01*
X28988435Y6491534D01*
X28976704Y6452863D01*
X28957652Y6417221D01*
X28932017Y6385983D01*
X28900779Y6360348D01*
X28865137Y6341296D01*
X28826466Y6329565D01*
X28780112Y6325000D01*
X27703888Y6325000D01*
X27657534Y6329565D01*
X27618863Y6341296D01*
X27583221Y6360348D01*
X27551983Y6385983D01*
X27526348Y6417221D01*
X27507296Y6452863D01*
X27495565Y6491534D01*
X27491000Y6537888D01*
X27491000Y7189112D01*
X27495565Y7235466D01*
X27507296Y7274137D01*
X27526348Y7309779D01*
X27551983Y7341017D01*
X27583221Y7366652D01*
X27618863Y7385704D01*
X27657534Y7397435D01*
X27703888Y7402000D01*
X28780112Y7402000D01*
X28826466Y7397435D01*
X28826466Y7397435D01*
G37*
G36*
X21585217Y6481626D02*
X19933217Y6481626D01*
X19933217Y7183626D01*
X21585217Y7183626D01*
X21585217Y6481626D01*
X21585217Y6481626D01*
G37*
G36*
X16185217Y6481626D02*
X14533217Y6481626D01*
X14533217Y7183626D01*
X16185217Y7183626D01*
X16185217Y6481626D01*
X16185217Y6481626D01*
G37*
G36*
X13031000Y7699000D02*
X11869000Y7699000D01*
X11869000Y10351000D01*
X13031000Y10351000D01*
X13031000Y7699000D01*
X13031000Y7699000D01*
G37*
G36*
X10831000Y7699000D02*
X9669000Y7699000D01*
X9669000Y10351000D01*
X10831000Y10351000D01*
X10831000Y7699000D01*
X10831000Y7699000D01*
G37*
G36*
X16185217Y7751626D02*
X14533217Y7751626D01*
X14533217Y8453626D01*
X16185217Y8453626D01*
X16185217Y7751626D01*
X16185217Y7751626D01*
G37*
G36*
X21585217Y7751626D02*
X19933217Y7751626D01*
X19933217Y8453626D01*
X21585217Y8453626D01*
X21585217Y7751626D01*
X21585217Y7751626D01*
G37*
G36*
X32423966Y9563435D02*
X32462637Y9551704D01*
X32498279Y9532652D01*
X32529517Y9507017D01*
X32555152Y9475779D01*
X32574204Y9440137D01*
X32585935Y9401466D01*
X32590500Y9355112D01*
X32590500Y8278888D01*
X32585935Y8232534D01*
X32574204Y8193863D01*
X32555152Y8158221D01*
X32529517Y8126983D01*
X32498279Y8101348D01*
X32462637Y8082296D01*
X32423966Y8070565D01*
X32377612Y8066000D01*
X31726388Y8066000D01*
X31680034Y8070565D01*
X31641363Y8082296D01*
X31605721Y8101348D01*
X31574483Y8126983D01*
X31548848Y8158221D01*
X31529796Y8193863D01*
X31518065Y8232534D01*
X31513500Y8278888D01*
X31513500Y9355112D01*
X31518065Y9401466D01*
X31529796Y9440137D01*
X31548848Y9475779D01*
X31574483Y9507017D01*
X31605721Y9532652D01*
X31641363Y9551704D01*
X31680034Y9563435D01*
X31726388Y9568000D01*
X32377612Y9568000D01*
X32423966Y9563435D01*
X32423966Y9563435D01*
G37*
G36*
X30548966Y9563435D02*
X30587637Y9551704D01*
X30623279Y9532652D01*
X30654517Y9507017D01*
X30680152Y9475779D01*
X30699204Y9440137D01*
X30710935Y9401466D01*
X30715500Y9355112D01*
X30715500Y8278888D01*
X30710935Y8232534D01*
X30699204Y8193863D01*
X30680152Y8158221D01*
X30654517Y8126983D01*
X30623279Y8101348D01*
X30587637Y8082296D01*
X30548966Y8070565D01*
X30502612Y8066000D01*
X29851388Y8066000D01*
X29805034Y8070565D01*
X29766363Y8082296D01*
X29730721Y8101348D01*
X29699483Y8126983D01*
X29673848Y8158221D01*
X29654796Y8193863D01*
X29643065Y8232534D01*
X29638500Y8278888D01*
X29638500Y9355112D01*
X29643065Y9401466D01*
X29654796Y9440137D01*
X29673848Y9475779D01*
X29699483Y9507017D01*
X29730721Y9532652D01*
X29766363Y9551704D01*
X29805034Y9563435D01*
X29851388Y9568000D01*
X30502612Y9568000D01*
X30548966Y9563435D01*
X30548966Y9563435D01*
G37*
G36*
X18462390Y9379483D02*
X18580861Y9330411D01*
X18580864Y9330409D01*
X18685185Y9260704D01*
X18687492Y9259162D01*
X18778162Y9168492D01*
X18778164Y9168489D01*
X18778165Y9168488D01*
X18830423Y9090278D01*
X18849411Y9061861D01*
X18898483Y8943390D01*
X18923500Y8817619D01*
X18923500Y8689381D01*
X18898483Y8563610D01*
X18849411Y8445139D01*
X18849409Y8445136D01*
X18796674Y8366212D01*
X18778162Y8338508D01*
X18687492Y8247838D01*
X18687489Y8247836D01*
X18687488Y8247835D01*
X18623641Y8205174D01*
X18580861Y8176589D01*
X18462390Y8127517D01*
X18336619Y8102500D01*
X18208381Y8102500D01*
X18082610Y8127517D01*
X17964139Y8176589D01*
X17921359Y8205174D01*
X17857512Y8247835D01*
X17857511Y8247836D01*
X17857508Y8247838D01*
X17766838Y8338508D01*
X17748327Y8366212D01*
X17695591Y8445136D01*
X17695589Y8445139D01*
X17646517Y8563610D01*
X17621500Y8689381D01*
X17621500Y8817619D01*
X17646517Y8943390D01*
X17695589Y9061861D01*
X17714577Y9090278D01*
X17766835Y9168488D01*
X17766836Y9168489D01*
X17766838Y9168492D01*
X17857508Y9259162D01*
X17859816Y9260704D01*
X17964136Y9330409D01*
X17964139Y9330411D01*
X18082610Y9379483D01*
X18208381Y9404500D01*
X18336619Y9404500D01*
X18462390Y9379483D01*
X18462390Y9379483D01*
G37*
G36*
X28826466Y9272435D02*
X28865137Y9260704D01*
X28900779Y9241652D01*
X28932017Y9216017D01*
X28957652Y9184779D01*
X28976704Y9149137D01*
X28988435Y9110466D01*
X28993000Y9064112D01*
X28993000Y8412888D01*
X28988435Y8366534D01*
X28976704Y8327863D01*
X28957652Y8292221D01*
X28932017Y8260983D01*
X28900779Y8235348D01*
X28865137Y8216296D01*
X28826466Y8204565D01*
X28780112Y8200000D01*
X27703888Y8200000D01*
X27657534Y8204565D01*
X27618863Y8216296D01*
X27583221Y8235348D01*
X27551983Y8260983D01*
X27526348Y8292221D01*
X27507296Y8327863D01*
X27495565Y8366534D01*
X27491000Y8412888D01*
X27491000Y9064112D01*
X27495565Y9110466D01*
X27507296Y9149137D01*
X27526348Y9184779D01*
X27551983Y9216017D01*
X27583221Y9241652D01*
X27618863Y9260704D01*
X27657534Y9272435D01*
X27703888Y9277000D01*
X28780112Y9277000D01*
X28826466Y9272435D01*
X28826466Y9272435D01*
G37*
G36*
X23534466Y9302435D02*
X23573137Y9290704D01*
X23608779Y9271652D01*
X23640017Y9246017D01*
X23665652Y9214779D01*
X23684704Y9179137D01*
X23696435Y9140466D01*
X23701000Y9094112D01*
X23701000Y8442888D01*
X23696435Y8396534D01*
X23684704Y8357863D01*
X23665652Y8322221D01*
X23640017Y8290983D01*
X23608779Y8265348D01*
X23573137Y8246296D01*
X23534466Y8234565D01*
X23488112Y8230000D01*
X22411888Y8230000D01*
X22365534Y8234565D01*
X22326863Y8246296D01*
X22291221Y8265348D01*
X22259983Y8290983D01*
X22234348Y8322221D01*
X22215296Y8357863D01*
X22203565Y8396534D01*
X22199000Y8442888D01*
X22199000Y9094112D01*
X22203565Y9140466D01*
X22215296Y9179137D01*
X22234348Y9214779D01*
X22259983Y9246017D01*
X22291221Y9271652D01*
X22326863Y9290704D01*
X22365534Y9302435D01*
X22411888Y9307000D01*
X23488112Y9307000D01*
X23534466Y9302435D01*
X23534466Y9302435D01*
G37*
G36*
X24875890Y9569983D02*
X24994361Y9520911D01*
X24994364Y9520909D01*
X25061906Y9475779D01*
X25100992Y9449662D01*
X25191662Y9358992D01*
X25191664Y9358989D01*
X25191665Y9358988D01*
X25229859Y9301826D01*
X25262911Y9252361D01*
X25311983Y9133890D01*
X25337000Y9008119D01*
X25337000Y8879881D01*
X25311983Y8754110D01*
X25262911Y8635639D01*
X25262909Y8635636D01*
X25214783Y8563610D01*
X25191662Y8529008D01*
X25100992Y8438338D01*
X25100989Y8438336D01*
X25100988Y8438335D01*
X25034775Y8394093D01*
X24994361Y8367089D01*
X24875890Y8318017D01*
X24750119Y8293000D01*
X24621881Y8293000D01*
X24496110Y8318017D01*
X24377639Y8367089D01*
X24337225Y8394093D01*
X24271012Y8438335D01*
X24271011Y8438336D01*
X24271008Y8438338D01*
X24180338Y8529008D01*
X24157218Y8563610D01*
X24109091Y8635636D01*
X24109089Y8635639D01*
X24060017Y8754110D01*
X24035000Y8879881D01*
X24035000Y9008119D01*
X24060017Y9133890D01*
X24109089Y9252361D01*
X24142141Y9301826D01*
X24180335Y9358988D01*
X24180336Y9358989D01*
X24180338Y9358992D01*
X24271008Y9449662D01*
X24310095Y9475779D01*
X24377636Y9520909D01*
X24377639Y9520911D01*
X24496110Y9569983D01*
X24621881Y9595000D01*
X24750119Y9595000D01*
X24875890Y9569983D01*
X24875890Y9569983D01*
G37*
G36*
X8738039Y9931539D02*
X8801331Y9912339D01*
X8859665Y9881159D01*
X8910791Y9839200D01*
X8952750Y9788074D01*
X8983930Y9729740D01*
X9003130Y9666448D01*
X9010217Y9594487D01*
X9010217Y8680765D01*
X9003130Y8608804D01*
X8983930Y8545512D01*
X8952750Y8487178D01*
X8910791Y8436052D01*
X8859665Y8394093D01*
X8801331Y8362913D01*
X8738039Y8343713D01*
X8666078Y8336626D01*
X1752356Y8336626D01*
X1680395Y8343713D01*
X1617103Y8362913D01*
X1558769Y8394093D01*
X1507643Y8436052D01*
X1465684Y8487178D01*
X1434504Y8545512D01*
X1415304Y8608804D01*
X1408217Y8680765D01*
X1408217Y9594487D01*
X1415304Y9666448D01*
X1434504Y9729740D01*
X1465684Y9788074D01*
X1507643Y9839200D01*
X1558769Y9881159D01*
X1617103Y9912339D01*
X1680395Y9931539D01*
X1752356Y9938626D01*
X8666078Y9938626D01*
X8738039Y9931539D01*
X8738039Y9931539D01*
G37*
G36*
X21585217Y9021626D02*
X19933217Y9021626D01*
X19933217Y9723626D01*
X21585217Y9723626D01*
X21585217Y9021626D01*
X21585217Y9021626D01*
G37*
G36*
X16185217Y9021626D02*
X14533217Y9021626D01*
X14533217Y9723626D01*
X16185217Y9723626D01*
X16185217Y9021626D01*
X16185217Y9021626D01*
G37*
G36*
X34961703Y9340380D02*
X34209703Y9340380D01*
X34209703Y10942380D01*
X34961703Y10942380D01*
X34961703Y9340380D01*
X34961703Y9340380D01*
G37*
G36*
X36231703Y9340380D02*
X35479703Y9340380D01*
X35479703Y10942380D01*
X36231703Y10942380D01*
X36231703Y9340380D01*
X36231703Y9340380D01*
G37*
G36*
X37501703Y9340380D02*
X36749703Y9340380D01*
X36749703Y10942380D01*
X37501703Y10942380D01*
X37501703Y9340380D01*
X37501703Y9340380D01*
G37*
G36*
X24989890Y11275983D02*
X25108361Y11226911D01*
X25108364Y11226909D01*
X25210009Y11158992D01*
X25214992Y11155662D01*
X25305662Y11064992D01*
X25305664Y11064989D01*
X25305665Y11064988D01*
X25339320Y11014620D01*
X25376911Y10958361D01*
X25425983Y10839890D01*
X25451000Y10714119D01*
X25451000Y10585881D01*
X25425983Y10460110D01*
X25376911Y10341639D01*
X25305662Y10235008D01*
X25214992Y10144338D01*
X25214989Y10144336D01*
X25214988Y10144335D01*
X25162951Y10109565D01*
X25108361Y10073089D01*
X24989890Y10024017D01*
X24864119Y9999000D01*
X24735881Y9999000D01*
X24610110Y10024017D01*
X24491639Y10073089D01*
X24437049Y10109565D01*
X24385012Y10144335D01*
X24385011Y10144336D01*
X24385008Y10144338D01*
X24294338Y10235008D01*
X24223089Y10341639D01*
X24174017Y10460110D01*
X24149000Y10585881D01*
X24149000Y10714119D01*
X24174017Y10839890D01*
X24223089Y10958361D01*
X24260680Y11014620D01*
X24294335Y11064988D01*
X24294336Y11064989D01*
X24294338Y11064992D01*
X24385008Y11155662D01*
X24389992Y11158992D01*
X24491636Y11226909D01*
X24491639Y11226911D01*
X24610110Y11275983D01*
X24735881Y11301000D01*
X24864119Y11301000D01*
X24989890Y11275983D01*
X24989890Y11275983D01*
G37*
G36*
X22155000Y12759333D02*
X22157402Y12734947D01*
X22164515Y12711498D01*
X22176066Y12689887D01*
X22191612Y12670945D01*
X22210554Y12655399D01*
X22232165Y12643848D01*
X22255614Y12636735D01*
X22280000Y12634333D01*
X22304383Y12636735D01*
X22335882Y12643000D01*
X22464119Y12643000D01*
X22589890Y12617983D01*
X22708361Y12568911D01*
X22708364Y12568909D01*
X22814487Y12498000D01*
X22814992Y12497662D01*
X22905662Y12406992D01*
X22905664Y12406989D01*
X22905665Y12406988D01*
X22954248Y12334278D01*
X22976911Y12300361D01*
X23025983Y12181890D01*
X23051000Y12056119D01*
X23051000Y11927881D01*
X23025983Y11802110D01*
X22976911Y11683639D01*
X22905662Y11577008D01*
X22814991Y11486337D01*
X22702143Y11410934D01*
X22683201Y11395388D01*
X22667655Y11376446D01*
X22656104Y11354835D01*
X22648991Y11331386D01*
X22646589Y11307000D01*
X22648991Y11282614D01*
X22656104Y11259164D01*
X22667655Y11237554D01*
X22683201Y11218612D01*
X22702143Y11203066D01*
X22723754Y11191515D01*
X22747203Y11184402D01*
X22771589Y11182000D01*
X23488112Y11182000D01*
X23534466Y11177435D01*
X23573137Y11165704D01*
X23608779Y11146652D01*
X23640017Y11121017D01*
X23665652Y11089779D01*
X23684704Y11054137D01*
X23696435Y11015466D01*
X23701000Y10969112D01*
X23701000Y10317888D01*
X23696435Y10271534D01*
X23684704Y10232863D01*
X23665652Y10197221D01*
X23640017Y10165983D01*
X23608779Y10140348D01*
X23573137Y10121296D01*
X23534466Y10109565D01*
X23488112Y10105000D01*
X22411888Y10105000D01*
X22365534Y10109565D01*
X22326863Y10121296D01*
X22291221Y10140348D01*
X22259983Y10165983D01*
X22234348Y10197221D01*
X22215296Y10232863D01*
X22203565Y10271534D01*
X22199000Y10317888D01*
X22199000Y10969112D01*
X22203565Y11015466D01*
X22215296Y11054137D01*
X22234348Y11089779D01*
X22259983Y11121017D01*
X22286246Y11142570D01*
X22303573Y11159897D01*
X22317187Y11180271D01*
X22326565Y11202910D01*
X22331346Y11226943D01*
X22331346Y11251448D01*
X22326566Y11275481D01*
X22317189Y11298120D01*
X22303575Y11318495D01*
X22286248Y11335822D01*
X22265874Y11349436D01*
X22231336Y11361795D01*
X22210110Y11366017D01*
X22158440Y11387419D01*
X22091639Y11415089D01*
X22060341Y11436002D01*
X21985012Y11486335D01*
X21985011Y11486336D01*
X21985008Y11486338D01*
X21894338Y11577008D01*
X21823089Y11683639D01*
X21774017Y11802110D01*
X21749000Y11927881D01*
X21749000Y12056119D01*
X21774017Y12181890D01*
X21823089Y12300361D01*
X21845752Y12334278D01*
X21894335Y12406988D01*
X21894336Y12406989D01*
X21894338Y12406992D01*
X21896958Y12409612D01*
X21912504Y12428554D01*
X21924055Y12450165D01*
X21931168Y12473614D01*
X21933570Y12498000D01*
X21931168Y12522386D01*
X21924055Y12545835D01*
X21912504Y12567446D01*
X21896958Y12586388D01*
X21878016Y12601934D01*
X21856405Y12613485D01*
X21832956Y12620598D01*
X21808570Y12623000D01*
X21153000Y12623000D01*
X21153000Y13525000D01*
X22155000Y13525000D01*
X22155000Y12759333D01*
X22155000Y12759333D01*
G37*
G36*
X16185217Y10291626D02*
X14533217Y10291626D01*
X14533217Y10993626D01*
X16185217Y10993626D01*
X16185217Y10291626D01*
X16185217Y10291626D01*
G37*
G36*
X21585217Y10291626D02*
X19933217Y10291626D01*
X19933217Y10993626D01*
X21585217Y10993626D01*
X21585217Y10291626D01*
X21585217Y10291626D01*
G37*
G36*
X29447890Y11728983D02*
X29566361Y11679911D01*
X29566364Y11679909D01*
X29655999Y11620017D01*
X29672992Y11608662D01*
X29763662Y11517992D01*
X29763664Y11517989D01*
X29763665Y11517988D01*
X29784815Y11486335D01*
X29834911Y11411361D01*
X29883983Y11292890D01*
X29909000Y11167119D01*
X29909000Y11038881D01*
X29883983Y10913110D01*
X29834911Y10794639D01*
X29834909Y10794636D01*
X29781109Y10714118D01*
X29763662Y10688008D01*
X29672992Y10597338D01*
X29672989Y10597336D01*
X29672988Y10597335D01*
X29566364Y10526091D01*
X29566361Y10526089D01*
X29447890Y10477017D01*
X29322119Y10452000D01*
X29193881Y10452000D01*
X29068110Y10477017D01*
X28949639Y10526089D01*
X28949636Y10526091D01*
X28843012Y10597335D01*
X28843011Y10597336D01*
X28843008Y10597338D01*
X28752338Y10688008D01*
X28734892Y10714118D01*
X28681091Y10794636D01*
X28681089Y10794639D01*
X28632017Y10913110D01*
X28607000Y11038881D01*
X28607000Y11167119D01*
X28632017Y11292890D01*
X28681089Y11411361D01*
X28731185Y11486335D01*
X28752335Y11517988D01*
X28752336Y11517989D01*
X28752338Y11517992D01*
X28843008Y11608662D01*
X28860002Y11620017D01*
X28949636Y11679909D01*
X28949639Y11679911D01*
X29068110Y11728983D01*
X29193881Y11754000D01*
X29322119Y11754000D01*
X29447890Y11728983D01*
X29447890Y11728983D01*
G37*
G36*
X8738039Y12431539D02*
X8801331Y12412339D01*
X8859665Y12381159D01*
X8910791Y12339200D01*
X8952750Y12288074D01*
X8983930Y12229740D01*
X9003130Y12166448D01*
X9010217Y12094487D01*
X9010217Y11180765D01*
X9003130Y11108804D01*
X8983930Y11045512D01*
X8952750Y10987178D01*
X8910791Y10936052D01*
X8859665Y10894093D01*
X8801331Y10862913D01*
X8738039Y10843713D01*
X8666078Y10836626D01*
X1752356Y10836626D01*
X1680395Y10843713D01*
X1617103Y10862913D01*
X1558769Y10894093D01*
X1507643Y10936052D01*
X1465684Y10987178D01*
X1434504Y11045512D01*
X1415304Y11108804D01*
X1408217Y11180765D01*
X1408217Y12094487D01*
X1415304Y12166448D01*
X1434504Y12229740D01*
X1465684Y12288074D01*
X1507643Y12339200D01*
X1558769Y12381159D01*
X1617103Y12412339D01*
X1680395Y12431539D01*
X1752356Y12438626D01*
X8666078Y12438626D01*
X8738039Y12431539D01*
X8738039Y12431539D01*
G37*
G36*
X10834466Y12546435D02*
X10873137Y12534704D01*
X10908779Y12515652D01*
X10940017Y12490017D01*
X10965652Y12458779D01*
X10984704Y12423137D01*
X10996435Y12384466D01*
X11001000Y12338112D01*
X11001000Y11261888D01*
X10996435Y11215534D01*
X10984704Y11176863D01*
X10965652Y11141221D01*
X10940017Y11109983D01*
X10908779Y11084348D01*
X10873137Y11065296D01*
X10834466Y11053565D01*
X10788112Y11049000D01*
X10136888Y11049000D01*
X10090534Y11053565D01*
X10051863Y11065296D01*
X10016221Y11084348D01*
X9984983Y11109983D01*
X9959348Y11141221D01*
X9940296Y11176863D01*
X9928565Y11215534D01*
X9924000Y11261888D01*
X9924000Y12338112D01*
X9928565Y12384466D01*
X9940296Y12423137D01*
X9959348Y12458779D01*
X9984983Y12490017D01*
X10016221Y12515652D01*
X10051863Y12534704D01*
X10090534Y12546435D01*
X10136888Y12551000D01*
X10788112Y12551000D01*
X10834466Y12546435D01*
X10834466Y12546435D01*
G37*
G36*
X12556890Y13189483D02*
X12675361Y13140411D01*
X12675364Y13140409D01*
X12734332Y13101008D01*
X12781992Y13069162D01*
X12872662Y12978492D01*
X12872664Y12978489D01*
X12872665Y12978488D01*
X12933825Y12886956D01*
X12943911Y12871861D01*
X12992983Y12753390D01*
X13018000Y12627619D01*
X13018000Y12499381D01*
X12992983Y12373610D01*
X12943910Y12255137D01*
X12897066Y12185030D01*
X12885515Y12163420D01*
X12878402Y12139970D01*
X12876000Y12115584D01*
X12876000Y11261888D01*
X12871435Y11215534D01*
X12859704Y11176863D01*
X12840652Y11141221D01*
X12815017Y11109983D01*
X12783779Y11084348D01*
X12748137Y11065296D01*
X12709466Y11053565D01*
X12663112Y11049000D01*
X12011888Y11049000D01*
X11965534Y11053565D01*
X11926863Y11065296D01*
X11891221Y11084348D01*
X11859983Y11109983D01*
X11834348Y11141221D01*
X11815296Y11176863D01*
X11803565Y11215534D01*
X11799000Y11261888D01*
X11799000Y12208762D01*
X11796598Y12233148D01*
X11789485Y12256597D01*
X11741017Y12373610D01*
X11716000Y12499381D01*
X11716000Y12627619D01*
X11741017Y12753390D01*
X11790089Y12871861D01*
X11800175Y12886956D01*
X11861335Y12978488D01*
X11861336Y12978489D01*
X11861338Y12978492D01*
X11952008Y13069162D01*
X11999669Y13101008D01*
X12058636Y13140409D01*
X12058639Y13140411D01*
X12177110Y13189483D01*
X12302881Y13214500D01*
X12431119Y13214500D01*
X12556890Y13189483D01*
X12556890Y13189483D01*
G37*
G36*
X36457966Y12746435D02*
X36496637Y12734704D01*
X36532279Y12715652D01*
X36563517Y12690017D01*
X36589152Y12658779D01*
X36608204Y12623137D01*
X36619935Y12584466D01*
X36623132Y12552001D01*
X36627912Y12527968D01*
X36637289Y12505328D01*
X36650903Y12484954D01*
X36668230Y12467626D01*
X36688604Y12454012D01*
X36711243Y12444635D01*
X36735277Y12439854D01*
X36759781Y12439854D01*
X36783814Y12444634D01*
X36806454Y12454011D01*
X36816977Y12460319D01*
X36916635Y12526909D01*
X37035110Y12575983D01*
X37160881Y12601000D01*
X37289119Y12601000D01*
X37414890Y12575983D01*
X37533361Y12526911D01*
X37533364Y12526909D01*
X37635328Y12458779D01*
X37639992Y12455662D01*
X37730662Y12364992D01*
X37801911Y12258361D01*
X37850983Y12139890D01*
X37876000Y12014119D01*
X37876000Y11885881D01*
X37850983Y11760110D01*
X37801911Y11641639D01*
X37801909Y11641636D01*
X37758729Y11577012D01*
X37730662Y11535008D01*
X37639992Y11444338D01*
X37639989Y11444336D01*
X37639988Y11444335D01*
X37599168Y11417060D01*
X37533361Y11373089D01*
X37414890Y11324017D01*
X37289119Y11299000D01*
X37160881Y11299000D01*
X37035110Y11324017D01*
X36916639Y11373089D01*
X36900458Y11383901D01*
X36810012Y11444335D01*
X36810009Y11444338D01*
X36800209Y11450886D01*
X36799402Y11451548D01*
X36777791Y11463099D01*
X36754342Y11470212D01*
X36729956Y11472614D01*
X36705570Y11470212D01*
X36682121Y11463099D01*
X36660510Y11451548D01*
X36641568Y11436002D01*
X36626022Y11417060D01*
X36610339Y11383901D01*
X36608204Y11376864D01*
X36589152Y11341221D01*
X36563517Y11309983D01*
X36532279Y11284348D01*
X36496637Y11265296D01*
X36457966Y11253565D01*
X36411612Y11249000D01*
X35760388Y11249000D01*
X35714034Y11253565D01*
X35675363Y11265296D01*
X35639721Y11284348D01*
X35608483Y11309983D01*
X35582848Y11341221D01*
X35563796Y11376863D01*
X35552065Y11415534D01*
X35547500Y11461888D01*
X35547500Y12538112D01*
X35552065Y12584466D01*
X35563796Y12623137D01*
X35582848Y12658779D01*
X35608483Y12690017D01*
X35639721Y12715652D01*
X35675363Y12734704D01*
X35714034Y12746435D01*
X35760388Y12751000D01*
X36411612Y12751000D01*
X36457966Y12746435D01*
X36457966Y12746435D01*
G37*
G36*
X34582966Y12746435D02*
X34621637Y12734704D01*
X34657279Y12715652D01*
X34688517Y12690017D01*
X34714152Y12658779D01*
X34733204Y12623137D01*
X34744935Y12584466D01*
X34749500Y12538112D01*
X34749500Y11461888D01*
X34744935Y11415534D01*
X34733204Y11376863D01*
X34714152Y11341221D01*
X34688517Y11309983D01*
X34657279Y11284348D01*
X34621637Y11265296D01*
X34582966Y11253565D01*
X34536612Y11249000D01*
X33885388Y11249000D01*
X33839034Y11253565D01*
X33800363Y11265296D01*
X33764721Y11284348D01*
X33733483Y11309983D01*
X33707848Y11341221D01*
X33688796Y11376863D01*
X33677065Y11415534D01*
X33672500Y11461888D01*
X33672500Y12538112D01*
X33677065Y12584466D01*
X33688796Y12623137D01*
X33707848Y12658779D01*
X33733483Y12690017D01*
X33764721Y12715652D01*
X33800363Y12734704D01*
X33839034Y12746435D01*
X33885388Y12751000D01*
X34536612Y12751000D01*
X34582966Y12746435D01*
X34582966Y12746435D01*
G37*
G36*
X18159466Y13837815D02*
X18198137Y13826084D01*
X18233779Y13807032D01*
X18265017Y13781397D01*
X18290652Y13750159D01*
X18309704Y13714517D01*
X18321435Y13675846D01*
X18326000Y13629492D01*
X18326000Y13009554D01*
X18328402Y12985168D01*
X18335515Y12961719D01*
X18347066Y12940108D01*
X18362612Y12921166D01*
X18381554Y12905620D01*
X18403165Y12894069D01*
X18426614Y12886956D01*
X18451000Y12884554D01*
X18475386Y12886956D01*
X18525881Y12897000D01*
X18649000Y12897000D01*
X18673386Y12899402D01*
X18696835Y12906515D01*
X18718446Y12918066D01*
X18737388Y12933612D01*
X18752934Y12952554D01*
X18764485Y12974165D01*
X18771598Y12997614D01*
X18774000Y13022000D01*
X18774000Y13629492D01*
X18778565Y13675846D01*
X18790296Y13714517D01*
X18809348Y13750159D01*
X18834983Y13781397D01*
X18866221Y13807032D01*
X18901863Y13826084D01*
X18940534Y13837815D01*
X18986888Y13842380D01*
X20063112Y13842380D01*
X20109466Y13837815D01*
X20148137Y13826084D01*
X20183779Y13807032D01*
X20215017Y13781397D01*
X20240652Y13750159D01*
X20259704Y13714517D01*
X20271435Y13675846D01*
X20276000Y13629492D01*
X20276000Y12978268D01*
X20271435Y12931914D01*
X20259704Y12893243D01*
X20240652Y12857601D01*
X20215017Y12826363D01*
X20183779Y12800728D01*
X20148137Y12781676D01*
X20109466Y12769945D01*
X20063112Y12765380D01*
X19259772Y12765380D01*
X19235386Y12762978D01*
X19211937Y12755865D01*
X19190326Y12744314D01*
X19171384Y12728768D01*
X19155838Y12709826D01*
X19144287Y12688215D01*
X19137174Y12664766D01*
X19134772Y12640380D01*
X19137174Y12615994D01*
X19144287Y12592545D01*
X19155838Y12570934D01*
X19166910Y12554364D01*
X19215983Y12435890D01*
X19241000Y12310119D01*
X19241000Y12181881D01*
X19215983Y12056110D01*
X19166911Y11937639D01*
X19095662Y11831008D01*
X19004992Y11740338D01*
X19004989Y11740336D01*
X19004988Y11740335D01*
X18920132Y11683636D01*
X18898361Y11669089D01*
X18779890Y11620017D01*
X18654119Y11595000D01*
X18525881Y11595000D01*
X18400110Y11620017D01*
X18281639Y11669089D01*
X18259868Y11683636D01*
X18175012Y11740335D01*
X18175011Y11740336D01*
X18175008Y11740338D01*
X18084338Y11831008D01*
X18013089Y11937639D01*
X17964017Y12056110D01*
X17939000Y12181881D01*
X17939000Y12310119D01*
X17964017Y12435890D01*
X18013090Y12554364D01*
X18024162Y12570934D01*
X18035713Y12592545D01*
X18042826Y12615994D01*
X18045228Y12640381D01*
X18042826Y12664767D01*
X18035713Y12688216D01*
X18024161Y12709827D01*
X18008616Y12728769D01*
X17989674Y12744314D01*
X17968063Y12755865D01*
X17944614Y12762978D01*
X17920228Y12765380D01*
X17036888Y12765380D01*
X16990534Y12769945D01*
X16951863Y12781676D01*
X16916221Y12800728D01*
X16884983Y12826363D01*
X16859348Y12857601D01*
X16840296Y12893243D01*
X16828565Y12931914D01*
X16824000Y12978268D01*
X16824000Y13629492D01*
X16828565Y13675846D01*
X16840296Y13714517D01*
X16859348Y13750159D01*
X16884983Y13781397D01*
X16916221Y13807032D01*
X16951863Y13826084D01*
X16990534Y13837815D01*
X17036888Y13842380D01*
X18113112Y13842380D01*
X18159466Y13837815D01*
X18159466Y13837815D01*
G37*
G36*
X15745466Y13808935D02*
X15784137Y13797204D01*
X15819779Y13778152D01*
X15851017Y13752517D01*
X15876652Y13721279D01*
X15895704Y13685637D01*
X15907435Y13646966D01*
X15912000Y13600612D01*
X15912000Y12949388D01*
X15907435Y12903034D01*
X15895704Y12864363D01*
X15876652Y12828721D01*
X15851017Y12797483D01*
X15819779Y12771848D01*
X15784137Y12752796D01*
X15745466Y12741065D01*
X15699112Y12736500D01*
X14622888Y12736500D01*
X14576534Y12741065D01*
X14537863Y12752796D01*
X14502221Y12771848D01*
X14470983Y12797483D01*
X14445348Y12828721D01*
X14426296Y12864363D01*
X14414565Y12903034D01*
X14410000Y12949388D01*
X14410000Y13600612D01*
X14414565Y13646966D01*
X14426296Y13685637D01*
X14445348Y13721279D01*
X14470983Y13752517D01*
X14502221Y13778152D01*
X14537863Y13797204D01*
X14576534Y13808935D01*
X14622888Y13813500D01*
X15699112Y13813500D01*
X15745466Y13808935D01*
X15745466Y13808935D01*
G37*
G36*
X26360466Y13837815D02*
X26399137Y13826084D01*
X26434779Y13807032D01*
X26466017Y13781397D01*
X26491652Y13750159D01*
X26510704Y13714517D01*
X26522435Y13675846D01*
X26527000Y13629492D01*
X26527000Y12978268D01*
X26522435Y12931914D01*
X26510704Y12893243D01*
X26491652Y12857601D01*
X26466017Y12826363D01*
X26434779Y12800728D01*
X26399137Y12781676D01*
X26360466Y12769945D01*
X26314112Y12765380D01*
X25237888Y12765380D01*
X25191534Y12769945D01*
X25152863Y12781676D01*
X25117221Y12800728D01*
X25085983Y12826363D01*
X25060348Y12857601D01*
X25041296Y12893243D01*
X25029565Y12931914D01*
X25025000Y12978268D01*
X25025000Y13629492D01*
X25029565Y13675846D01*
X25041296Y13714517D01*
X25060348Y13750159D01*
X25085983Y13781397D01*
X25117221Y13807032D01*
X25152863Y13826084D01*
X25191534Y13837815D01*
X25237888Y13842380D01*
X26314112Y13842380D01*
X26360466Y13837815D01*
X26360466Y13837815D01*
G37*
G36*
X28310466Y13837815D02*
X28349137Y13826084D01*
X28384779Y13807032D01*
X28416017Y13781397D01*
X28441652Y13750159D01*
X28460704Y13714517D01*
X28472435Y13675846D01*
X28477000Y13629492D01*
X28477000Y12978268D01*
X28472435Y12931914D01*
X28460704Y12893243D01*
X28441652Y12857601D01*
X28416017Y12826363D01*
X28384779Y12800728D01*
X28349137Y12781676D01*
X28310466Y12769945D01*
X28264112Y12765380D01*
X27187888Y12765380D01*
X27141534Y12769945D01*
X27102863Y12781676D01*
X27067221Y12800728D01*
X27035983Y12826363D01*
X27010348Y12857601D01*
X26991296Y12893243D01*
X26979565Y12931914D01*
X26975000Y12978268D01*
X26975000Y13629492D01*
X26979565Y13675846D01*
X26991296Y13714517D01*
X27010348Y13750159D01*
X27035983Y13781397D01*
X27067221Y13807032D01*
X27102863Y13826084D01*
X27141534Y13837815D01*
X27187888Y13842380D01*
X28264112Y13842380D01*
X28310466Y13837815D01*
X28310466Y13837815D01*
G37*
G36*
X29765390Y14141983D02*
X29883861Y14092911D01*
X29883864Y14092909D01*
X29978065Y14029966D01*
X29990492Y14021662D01*
X30081162Y13930992D01*
X30081164Y13930989D01*
X30081165Y13930988D01*
X30140371Y13842380D01*
X30152411Y13824361D01*
X30201483Y13705890D01*
X30226500Y13580119D01*
X30226500Y13451881D01*
X30201483Y13326110D01*
X30152411Y13207639D01*
X30152409Y13207636D01*
X30096569Y13124065D01*
X30081162Y13101008D01*
X29990492Y13010338D01*
X29990489Y13010336D01*
X29990488Y13010335D01*
X29885386Y12940108D01*
X29883861Y12939089D01*
X29765390Y12890017D01*
X29639619Y12865000D01*
X29511381Y12865000D01*
X29385610Y12890017D01*
X29267139Y12939089D01*
X29265614Y12940108D01*
X29160512Y13010335D01*
X29160511Y13010336D01*
X29160508Y13010338D01*
X29069838Y13101008D01*
X29054432Y13124065D01*
X28998591Y13207636D01*
X28998589Y13207639D01*
X28949517Y13326110D01*
X28924500Y13451881D01*
X28924500Y13580119D01*
X28949517Y13705890D01*
X28998589Y13824361D01*
X29010629Y13842380D01*
X29069835Y13930988D01*
X29069836Y13930989D01*
X29069838Y13930992D01*
X29160508Y14021662D01*
X29172936Y14029966D01*
X29267136Y14092909D01*
X29267139Y14092911D01*
X29385610Y14141983D01*
X29511381Y14167000D01*
X29639619Y14167000D01*
X29765390Y14141983D01*
X29765390Y14141983D01*
G37*
G36*
X32001466Y14191935D02*
X32040137Y14180204D01*
X32075779Y14161152D01*
X32107017Y14135517D01*
X32132652Y14104279D01*
X32151704Y14068637D01*
X32163435Y14029966D01*
X32168000Y13983612D01*
X32168000Y13332388D01*
X32163435Y13286034D01*
X32151704Y13247363D01*
X32132652Y13211721D01*
X32107017Y13180483D01*
X32075779Y13154848D01*
X32040137Y13135796D01*
X32001466Y13124065D01*
X31955112Y13119500D01*
X30878888Y13119500D01*
X30832534Y13124065D01*
X30793863Y13135796D01*
X30758221Y13154848D01*
X30726983Y13180483D01*
X30701348Y13211721D01*
X30682296Y13247363D01*
X30670565Y13286034D01*
X30666000Y13332388D01*
X30666000Y13983612D01*
X30670565Y14029966D01*
X30682296Y14068637D01*
X30701348Y14104279D01*
X30726983Y14135517D01*
X30758221Y14161152D01*
X30793863Y14180204D01*
X30832534Y14191935D01*
X30878888Y14196500D01*
X31955112Y14196500D01*
X32001466Y14191935D01*
X32001466Y14191935D01*
G37*
G36*
X34414466Y14206935D02*
X34453137Y14195204D01*
X34488779Y14176152D01*
X34520017Y14150517D01*
X34545652Y14119279D01*
X34564704Y14083637D01*
X34576435Y14044966D01*
X34581000Y13998612D01*
X34581000Y13347388D01*
X34576435Y13301034D01*
X34564704Y13262363D01*
X34545652Y13226721D01*
X34520017Y13195483D01*
X34488779Y13169848D01*
X34453137Y13150796D01*
X34414466Y13139065D01*
X34368112Y13134500D01*
X33291888Y13134500D01*
X33245534Y13139065D01*
X33206863Y13150796D01*
X33171221Y13169848D01*
X33139983Y13195483D01*
X33114348Y13226721D01*
X33095296Y13262363D01*
X33083565Y13301034D01*
X33079000Y13347388D01*
X33079000Y13998612D01*
X33083565Y14044966D01*
X33095296Y14083637D01*
X33114348Y14119279D01*
X33139983Y14150517D01*
X33171221Y14176152D01*
X33206863Y14195204D01*
X33245534Y14206935D01*
X33291888Y14211500D01*
X34368112Y14211500D01*
X34414466Y14206935D01*
X34414466Y14206935D01*
G37*
G36*
X36940169Y14237815D02*
X36978840Y14226084D01*
X37014482Y14207032D01*
X37045720Y14181397D01*
X37071355Y14150159D01*
X37090407Y14114517D01*
X37102138Y14075846D01*
X37106703Y14029492D01*
X37106703Y13378268D01*
X37102138Y13331914D01*
X37090407Y13293243D01*
X37071355Y13257601D01*
X37045720Y13226363D01*
X37014482Y13200728D01*
X36978840Y13181676D01*
X36940169Y13169945D01*
X36893815Y13165380D01*
X35817591Y13165380D01*
X35771237Y13169945D01*
X35732566Y13181676D01*
X35696924Y13200728D01*
X35665686Y13226363D01*
X35640051Y13257601D01*
X35620999Y13293243D01*
X35609268Y13331914D01*
X35604703Y13378268D01*
X35604703Y14029492D01*
X35609268Y14075846D01*
X35620999Y14114517D01*
X35640051Y14150159D01*
X35665686Y14181397D01*
X35696924Y14207032D01*
X35732566Y14226084D01*
X35771237Y14237815D01*
X35817591Y14242380D01*
X36893815Y14242380D01*
X36940169Y14237815D01*
X36940169Y14237815D01*
G37*
G36*
X8657545Y15189617D02*
X8739603Y15164725D01*
X8815222Y15124305D01*
X8881502Y15069911D01*
X8935896Y15003631D01*
X8976316Y14928012D01*
X9001208Y14845954D01*
X9010217Y14754486D01*
X9010217Y13640766D01*
X9001208Y13549298D01*
X8976316Y13467240D01*
X8935896Y13391621D01*
X8881502Y13325341D01*
X8815222Y13270947D01*
X8739603Y13230527D01*
X8657545Y13205635D01*
X8566077Y13196626D01*
X1352357Y13196626D01*
X1260889Y13205635D01*
X1178831Y13230527D01*
X1103212Y13270947D01*
X1036932Y13325341D01*
X982538Y13391621D01*
X942118Y13467240D01*
X917226Y13549298D01*
X908217Y13640766D01*
X908217Y14754486D01*
X917226Y14845954D01*
X942118Y14928012D01*
X982538Y15003631D01*
X1036932Y15069911D01*
X1103212Y15124305D01*
X1178831Y15164725D01*
X1260889Y15189617D01*
X1352357Y15198626D01*
X8566077Y15198626D01*
X8657545Y15189617D01*
X8657545Y15189617D01*
G37*
G36*
X24155000Y13573000D02*
X23153000Y13573000D01*
X23153000Y14475000D01*
X24155000Y14475000D01*
X24155000Y13573000D01*
X24155000Y13573000D01*
G37*
G36*
X11001000Y14474000D02*
X9799000Y14474000D01*
X9799000Y15676000D01*
X11001000Y15676000D01*
X11001000Y14474000D01*
X11001000Y14474000D01*
G37*
G36*
X13801000Y14474000D02*
X12599000Y14474000D01*
X12599000Y15676000D01*
X13801000Y15676000D01*
X13801000Y14474000D01*
X13801000Y14474000D01*
G37*
G36*
X22155000Y14523000D02*
X21153000Y14523000D01*
X21153000Y15425000D01*
X22155000Y15425000D01*
X22155000Y14523000D01*
X22155000Y14523000D01*
G37*
G36*
X15745466Y15683935D02*
X15784137Y15672204D01*
X15819779Y15653152D01*
X15851017Y15627517D01*
X15876652Y15596279D01*
X15895704Y15560637D01*
X15907435Y15521966D01*
X15912000Y15475612D01*
X15912000Y14824388D01*
X15907435Y14778034D01*
X15895704Y14739363D01*
X15876652Y14703721D01*
X15851017Y14672483D01*
X15819779Y14646848D01*
X15784137Y14627796D01*
X15745466Y14616065D01*
X15699112Y14611500D01*
X14622888Y14611500D01*
X14576534Y14616065D01*
X14537863Y14627796D01*
X14502221Y14646848D01*
X14470983Y14672483D01*
X14445348Y14703721D01*
X14426296Y14739363D01*
X14414565Y14778034D01*
X14410000Y14824388D01*
X14410000Y15475612D01*
X14414565Y15521966D01*
X14426296Y15560637D01*
X14445348Y15596279D01*
X14470983Y15627517D01*
X14502221Y15653152D01*
X14537863Y15672204D01*
X14576534Y15683935D01*
X14622888Y15688500D01*
X15699112Y15688500D01*
X15745466Y15683935D01*
X15745466Y15683935D01*
G37*
G36*
X26360466Y15712815D02*
X26399137Y15701084D01*
X26434779Y15682032D01*
X26466017Y15656397D01*
X26491652Y15625159D01*
X26510704Y15589517D01*
X26522435Y15550846D01*
X26527000Y15504492D01*
X26527000Y14853268D01*
X26522435Y14806914D01*
X26510704Y14768243D01*
X26491652Y14732601D01*
X26466017Y14701363D01*
X26434779Y14675728D01*
X26399137Y14656676D01*
X26360466Y14644945D01*
X26314112Y14640380D01*
X25237888Y14640380D01*
X25191534Y14644945D01*
X25152863Y14656676D01*
X25117221Y14675728D01*
X25085983Y14701363D01*
X25060348Y14732601D01*
X25041296Y14768243D01*
X25029565Y14806914D01*
X25025000Y14853268D01*
X25025000Y15504492D01*
X25029565Y15550846D01*
X25041296Y15589517D01*
X25060348Y15625159D01*
X25085983Y15656397D01*
X25117221Y15682032D01*
X25152863Y15701084D01*
X25191534Y15712815D01*
X25237888Y15717380D01*
X26314112Y15717380D01*
X26360466Y15712815D01*
X26360466Y15712815D01*
G37*
G36*
X18159466Y15712815D02*
X18198137Y15701084D01*
X18233779Y15682032D01*
X18265017Y15656397D01*
X18290652Y15625159D01*
X18309704Y15589517D01*
X18321435Y15550846D01*
X18326000Y15504492D01*
X18326000Y14853268D01*
X18321435Y14806914D01*
X18309704Y14768243D01*
X18290652Y14732601D01*
X18265017Y14701363D01*
X18233779Y14675728D01*
X18198137Y14656676D01*
X18159466Y14644945D01*
X18113112Y14640380D01*
X17036888Y14640380D01*
X16990534Y14644945D01*
X16951863Y14656676D01*
X16916221Y14675728D01*
X16884983Y14701363D01*
X16859348Y14732601D01*
X16840296Y14768243D01*
X16828565Y14806914D01*
X16824000Y14853268D01*
X16824000Y15504492D01*
X16828565Y15550846D01*
X16840296Y15589517D01*
X16859348Y15625159D01*
X16884983Y15656397D01*
X16916221Y15682032D01*
X16951863Y15701084D01*
X16990534Y15712815D01*
X17036888Y15717380D01*
X18113112Y15717380D01*
X18159466Y15712815D01*
X18159466Y15712815D01*
G37*
G36*
X20109466Y15712815D02*
X20148137Y15701084D01*
X20183779Y15682032D01*
X20215017Y15656397D01*
X20240652Y15625159D01*
X20259704Y15589517D01*
X20271435Y15550846D01*
X20276000Y15504492D01*
X20276000Y14853268D01*
X20271435Y14806914D01*
X20259704Y14768243D01*
X20240652Y14732601D01*
X20215017Y14701363D01*
X20183779Y14675728D01*
X20148137Y14656676D01*
X20109466Y14644945D01*
X20063112Y14640380D01*
X18986888Y14640380D01*
X18940534Y14644945D01*
X18901863Y14656676D01*
X18866221Y14675728D01*
X18834983Y14701363D01*
X18809348Y14732601D01*
X18790296Y14768243D01*
X18778565Y14806914D01*
X18774000Y14853268D01*
X18774000Y15504492D01*
X18778565Y15550846D01*
X18790296Y15589517D01*
X18809348Y15625159D01*
X18834983Y15656397D01*
X18866221Y15682032D01*
X18901863Y15701084D01*
X18940534Y15712815D01*
X18986888Y15717380D01*
X20063112Y15717380D01*
X20109466Y15712815D01*
X20109466Y15712815D01*
G37*
G36*
X28310466Y15712815D02*
X28349137Y15701084D01*
X28384779Y15682032D01*
X28416017Y15656397D01*
X28441652Y15625159D01*
X28460704Y15589517D01*
X28472435Y15550846D01*
X28477000Y15504492D01*
X28477000Y14853268D01*
X28472435Y14806914D01*
X28460704Y14768243D01*
X28441652Y14732601D01*
X28416017Y14701363D01*
X28384779Y14675728D01*
X28349137Y14656676D01*
X28310466Y14644945D01*
X28264112Y14640380D01*
X27187888Y14640380D01*
X27141534Y14644945D01*
X27102863Y14656676D01*
X27067221Y14675728D01*
X27035983Y14701363D01*
X27010348Y14732601D01*
X26991296Y14768243D01*
X26979565Y14806914D01*
X26975000Y14853268D01*
X26975000Y15504492D01*
X26979565Y15550846D01*
X26991296Y15589517D01*
X27010348Y15625159D01*
X27035983Y15656397D01*
X27067221Y15682032D01*
X27102863Y15701084D01*
X27141534Y15712815D01*
X27187888Y15717380D01*
X28264112Y15717380D01*
X28310466Y15712815D01*
X28310466Y15712815D01*
G37*
G36*
X32001466Y16066935D02*
X32040137Y16055204D01*
X32075779Y16036152D01*
X32107017Y16010517D01*
X32132652Y15979279D01*
X32151704Y15943637D01*
X32163435Y15904966D01*
X32168000Y15858612D01*
X32168000Y15207388D01*
X32163435Y15161034D01*
X32151704Y15122363D01*
X32132652Y15086721D01*
X32107017Y15055483D01*
X32075779Y15029848D01*
X32040137Y15010796D01*
X32001466Y14999065D01*
X31955112Y14994500D01*
X30878888Y14994500D01*
X30832534Y14999065D01*
X30793863Y15010796D01*
X30758221Y15029848D01*
X30726983Y15055483D01*
X30701348Y15086721D01*
X30682296Y15122363D01*
X30670565Y15161034D01*
X30666000Y15207388D01*
X30666000Y15858612D01*
X30670565Y15904966D01*
X30682296Y15943637D01*
X30701348Y15979279D01*
X30726983Y16010517D01*
X30758221Y16036152D01*
X30793863Y16055204D01*
X30832534Y16066935D01*
X30878888Y16071500D01*
X31955112Y16071500D01*
X32001466Y16066935D01*
X32001466Y16066935D01*
G37*
G36*
X34414466Y16081935D02*
X34453137Y16070204D01*
X34488779Y16051152D01*
X34520017Y16025517D01*
X34545652Y15994279D01*
X34564704Y15958637D01*
X34576435Y15919966D01*
X34581000Y15873612D01*
X34581000Y15222388D01*
X34576435Y15176034D01*
X34564704Y15137363D01*
X34545652Y15101721D01*
X34520017Y15070483D01*
X34488779Y15044848D01*
X34453137Y15025796D01*
X34414466Y15014065D01*
X34368112Y15009500D01*
X33291888Y15009500D01*
X33245534Y15014065D01*
X33206863Y15025796D01*
X33171221Y15044848D01*
X33139983Y15070483D01*
X33114348Y15101721D01*
X33095296Y15137363D01*
X33083565Y15176034D01*
X33079000Y15222388D01*
X33079000Y15873612D01*
X33083565Y15919966D01*
X33095296Y15958637D01*
X33114348Y15994279D01*
X33139983Y16025517D01*
X33171221Y16051152D01*
X33206863Y16070204D01*
X33245534Y16081935D01*
X33291888Y16086500D01*
X34368112Y16086500D01*
X34414466Y16081935D01*
X34414466Y16081935D01*
G37*
G36*
X36940169Y16112815D02*
X36978840Y16101084D01*
X37014482Y16082032D01*
X37045720Y16056397D01*
X37071355Y16025159D01*
X37090407Y15989517D01*
X37102138Y15950846D01*
X37106703Y15904492D01*
X37106703Y15253268D01*
X37102138Y15206914D01*
X37090407Y15168243D01*
X37071355Y15132601D01*
X37045720Y15101363D01*
X37014482Y15075728D01*
X36978840Y15056676D01*
X36940169Y15044945D01*
X36893815Y15040380D01*
X35817591Y15040380D01*
X35771237Y15044945D01*
X35732566Y15056676D01*
X35696924Y15075728D01*
X35665686Y15101363D01*
X35640051Y15132601D01*
X35620999Y15168243D01*
X35609268Y15206914D01*
X35604703Y15253268D01*
X35604703Y15904492D01*
X35609268Y15950846D01*
X35620999Y15989517D01*
X35640051Y16025159D01*
X35665686Y16056397D01*
X35696924Y16082032D01*
X35732566Y16101084D01*
X35771237Y16112815D01*
X35817591Y16117380D01*
X36893815Y16117380D01*
X36940169Y16112815D01*
X36940169Y16112815D01*
G37*
G36*
X13616820Y19538687D02*
X13616823Y19538686D01*
X13616824Y19538686D01*
X13777238Y19490025D01*
X13777240Y19490024D01*
X13777243Y19490023D01*
X13925078Y19411005D01*
X14054659Y19304659D01*
X14161005Y19175078D01*
X14240023Y19027244D01*
X14240023Y19027243D01*
X14240025Y19027239D01*
X14261804Y18955442D01*
X14288687Y18866821D01*
X14301000Y18741804D01*
X14301000Y18258197D01*
X14288687Y18133180D01*
X14288686Y18133178D01*
X14288686Y18133175D01*
X14240025Y17972761D01*
X14240023Y17972756D01*
X14161005Y17824922D01*
X14054659Y17695341D01*
X13925078Y17588995D01*
X13766906Y17504451D01*
X13766708Y17504370D01*
X13766515Y17504242D01*
X13766382Y17504171D01*
X13766389Y17504158D01*
X13746280Y17490836D01*
X13728885Y17473577D01*
X13715191Y17453256D01*
X13705725Y17430654D01*
X13700850Y17406639D01*
X13700754Y17382135D01*
X13705440Y17358083D01*
X13714728Y17335408D01*
X13728262Y17314980D01*
X13745521Y17297585D01*
X13765842Y17283891D01*
X13788444Y17274425D01*
X13800813Y17271301D01*
X13863293Y17258873D01*
X13890390Y17253483D01*
X13924343Y17239419D01*
X14008861Y17204411D01*
X14115492Y17133162D01*
X14206162Y17042492D01*
X14206164Y17042489D01*
X14206165Y17042488D01*
X14277409Y16935864D01*
X14277411Y16935861D01*
X14326483Y16817390D01*
X14351500Y16691619D01*
X14351500Y16563381D01*
X14326483Y16437610D01*
X14277411Y16319139D01*
X14206162Y16212508D01*
X14115492Y16121838D01*
X14115489Y16121836D01*
X14115488Y16121835D01*
X14054862Y16081326D01*
X14008861Y16050589D01*
X13890390Y16001517D01*
X13764619Y15976500D01*
X13636381Y15976500D01*
X13510610Y16001517D01*
X13392139Y16050589D01*
X13346138Y16081326D01*
X13285512Y16121835D01*
X13285511Y16121836D01*
X13285508Y16121838D01*
X13194838Y16212508D01*
X13123589Y16319139D01*
X13074517Y16437610D01*
X13049500Y16563381D01*
X13049500Y16691619D01*
X13074517Y16817390D01*
X13123589Y16935861D01*
X13123591Y16935864D01*
X13194835Y17042488D01*
X13194836Y17042489D01*
X13194838Y17042492D01*
X13285508Y17133162D01*
X13392139Y17204411D01*
X13411238Y17212322D01*
X13432849Y17223873D01*
X13451791Y17239419D01*
X13467337Y17258361D01*
X13478888Y17279972D01*
X13486001Y17303421D01*
X13488403Y17327807D01*
X13486001Y17352193D01*
X13478888Y17375642D01*
X13467337Y17397253D01*
X13451791Y17416195D01*
X13432849Y17431741D01*
X13411238Y17443292D01*
X13387789Y17450405D01*
X13375655Y17452205D01*
X13283180Y17461313D01*
X13283177Y17461314D01*
X13283176Y17461314D01*
X13122762Y17509975D01*
X13122760Y17509976D01*
X13122757Y17509977D01*
X12974923Y17588995D01*
X12845344Y17695339D01*
X12738993Y17824926D01*
X12659977Y17972756D01*
X12611313Y18133179D01*
X12599000Y18258196D01*
X12599000Y18741803D01*
X12611313Y18866820D01*
X12611314Y18866824D01*
X12659975Y19027238D01*
X12659976Y19027240D01*
X12659977Y19027243D01*
X12738995Y19175078D01*
X12845341Y19304659D01*
X12974922Y19411005D01*
X13122756Y19490023D01*
X13122759Y19490024D01*
X13122761Y19490025D01*
X13283175Y19538686D01*
X13283176Y19538686D01*
X13283179Y19538687D01*
X13450000Y19555117D01*
X13616820Y19538687D01*
X13616820Y19538687D01*
G37*
G36*
X24327035Y19429930D02*
X24440322Y19395564D01*
X24544730Y19339757D01*
X24636244Y19264653D01*
X24711348Y19173139D01*
X24767155Y19068731D01*
X24801521Y18955444D01*
X24810217Y18867145D01*
X24810217Y17408107D01*
X24801521Y17319808D01*
X24767155Y17206521D01*
X24711348Y17102114D01*
X24711347Y17102113D01*
X24636244Y17010599D01*
X24594993Y16976746D01*
X24544729Y16935495D01*
X24440321Y16879688D01*
X24327034Y16845322D01*
X24209217Y16833719D01*
X24091399Y16845322D01*
X23978112Y16879688D01*
X23873705Y16935495D01*
X23859789Y16946915D01*
X23782190Y17010599D01*
X23748337Y17051850D01*
X23707086Y17102114D01*
X23651279Y17206522D01*
X23616913Y17319809D01*
X23608217Y17408108D01*
X23608218Y18867145D01*
X23616914Y18955444D01*
X23651280Y19068731D01*
X23707087Y19173139D01*
X23782191Y19264653D01*
X23873705Y19339757D01*
X23978113Y19395564D01*
X24091400Y19429930D01*
X24209217Y19441533D01*
X24327035Y19429930D01*
X24327035Y19429930D01*
G37*
G36*
X34327035Y19429930D02*
X34440322Y19395564D01*
X34544730Y19339757D01*
X34636244Y19264653D01*
X34711348Y19173139D01*
X34767155Y19068731D01*
X34801521Y18955444D01*
X34810217Y18867145D01*
X34810217Y17408107D01*
X34801521Y17319808D01*
X34767155Y17206521D01*
X34711348Y17102114D01*
X34711347Y17102113D01*
X34636244Y17010599D01*
X34594993Y16976746D01*
X34544729Y16935495D01*
X34440321Y16879688D01*
X34327034Y16845322D01*
X34209217Y16833719D01*
X34091399Y16845322D01*
X33978112Y16879688D01*
X33873705Y16935495D01*
X33859789Y16946915D01*
X33782190Y17010599D01*
X33748337Y17051850D01*
X33707086Y17102114D01*
X33651279Y17206522D01*
X33616913Y17319809D01*
X33608217Y17408108D01*
X33608218Y18867145D01*
X33616914Y18955444D01*
X33651280Y19068731D01*
X33707087Y19173139D01*
X33782191Y19264653D01*
X33873705Y19339757D01*
X33978113Y19395564D01*
X34091400Y19429930D01*
X34209217Y19441533D01*
X34327035Y19429930D01*
X34327035Y19429930D01*
G37*
G36*
X32327035Y19429930D02*
X32440322Y19395564D01*
X32544730Y19339757D01*
X32636244Y19264653D01*
X32711348Y19173139D01*
X32767155Y19068731D01*
X32801521Y18955444D01*
X32810217Y18867145D01*
X32810217Y17408107D01*
X32801521Y17319808D01*
X32767155Y17206521D01*
X32711348Y17102114D01*
X32711347Y17102113D01*
X32636244Y17010599D01*
X32594993Y16976746D01*
X32544729Y16935495D01*
X32440321Y16879688D01*
X32327034Y16845322D01*
X32209217Y16833719D01*
X32091399Y16845322D01*
X31978112Y16879688D01*
X31873705Y16935495D01*
X31859789Y16946915D01*
X31782190Y17010599D01*
X31748337Y17051850D01*
X31707086Y17102114D01*
X31651279Y17206522D01*
X31616913Y17319809D01*
X31608217Y17408108D01*
X31608218Y18867145D01*
X31616914Y18955444D01*
X31651280Y19068731D01*
X31707087Y19173139D01*
X31782191Y19264653D01*
X31873705Y19339757D01*
X31978113Y19395564D01*
X32091400Y19429930D01*
X32209217Y19441533D01*
X32327035Y19429930D01*
X32327035Y19429930D01*
G37*
G36*
X30327035Y19429930D02*
X30440322Y19395564D01*
X30544730Y19339757D01*
X30636244Y19264653D01*
X30711348Y19173139D01*
X30767155Y19068731D01*
X30801521Y18955444D01*
X30810217Y18867145D01*
X30810217Y17408107D01*
X30801521Y17319808D01*
X30767155Y17206521D01*
X30711348Y17102114D01*
X30711347Y17102113D01*
X30636244Y17010599D01*
X30594993Y16976746D01*
X30544729Y16935495D01*
X30440321Y16879688D01*
X30327034Y16845322D01*
X30209217Y16833719D01*
X30091399Y16845322D01*
X29978112Y16879688D01*
X29873705Y16935495D01*
X29859789Y16946915D01*
X29782190Y17010599D01*
X29748337Y17051850D01*
X29707086Y17102114D01*
X29651279Y17206522D01*
X29616913Y17319809D01*
X29608217Y17408108D01*
X29608218Y18867145D01*
X29616914Y18955444D01*
X29651280Y19068731D01*
X29707087Y19173139D01*
X29782191Y19264653D01*
X29873705Y19339757D01*
X29978113Y19395564D01*
X30091400Y19429930D01*
X30209217Y19441533D01*
X30327035Y19429930D01*
X30327035Y19429930D01*
G37*
G36*
X28327035Y19429930D02*
X28440322Y19395564D01*
X28544730Y19339757D01*
X28636244Y19264653D01*
X28711348Y19173139D01*
X28767155Y19068731D01*
X28801521Y18955444D01*
X28810217Y18867145D01*
X28810217Y17408107D01*
X28801521Y17319808D01*
X28767155Y17206521D01*
X28711348Y17102114D01*
X28711347Y17102113D01*
X28636244Y17010599D01*
X28594993Y16976746D01*
X28544729Y16935495D01*
X28440321Y16879688D01*
X28327034Y16845322D01*
X28209217Y16833719D01*
X28091399Y16845322D01*
X27978112Y16879688D01*
X27873705Y16935495D01*
X27859789Y16946915D01*
X27782190Y17010599D01*
X27748337Y17051850D01*
X27707086Y17102114D01*
X27651279Y17206522D01*
X27616913Y17319809D01*
X27608217Y17408108D01*
X27608218Y18867145D01*
X27616914Y18955444D01*
X27651280Y19068731D01*
X27707087Y19173139D01*
X27782191Y19264653D01*
X27873705Y19339757D01*
X27978113Y19395564D01*
X28091400Y19429930D01*
X28209217Y19441533D01*
X28327035Y19429930D01*
X28327035Y19429930D01*
G37*
G36*
X26327035Y19429930D02*
X26440322Y19395564D01*
X26544730Y19339757D01*
X26636244Y19264653D01*
X26711348Y19173139D01*
X26767155Y19068731D01*
X26801521Y18955444D01*
X26810217Y18867145D01*
X26810217Y17408107D01*
X26801521Y17319808D01*
X26767155Y17206521D01*
X26711348Y17102114D01*
X26711347Y17102113D01*
X26636244Y17010599D01*
X26594993Y16976746D01*
X26544729Y16935495D01*
X26440321Y16879688D01*
X26327034Y16845322D01*
X26209217Y16833719D01*
X26091399Y16845322D01*
X25978112Y16879688D01*
X25873705Y16935495D01*
X25859789Y16946915D01*
X25782190Y17010599D01*
X25748337Y17051850D01*
X25707086Y17102114D01*
X25651279Y17206522D01*
X25616913Y17319809D01*
X25608217Y17408108D01*
X25608218Y18867145D01*
X25616914Y18955444D01*
X25651280Y19068731D01*
X25707087Y19173139D01*
X25782191Y19264653D01*
X25873705Y19339757D01*
X25978113Y19395564D01*
X26091400Y19429930D01*
X26209217Y19441533D01*
X26327035Y19429930D01*
X26327035Y19429930D01*
G37*
G36*
X22327035Y19429930D02*
X22440322Y19395564D01*
X22544730Y19339757D01*
X22636244Y19264653D01*
X22711348Y19173139D01*
X22767155Y19068731D01*
X22801521Y18955444D01*
X22810217Y18867145D01*
X22810217Y17408107D01*
X22801521Y17319808D01*
X22767155Y17206521D01*
X22711348Y17102114D01*
X22711347Y17102113D01*
X22636244Y17010599D01*
X22594993Y16976746D01*
X22544729Y16935495D01*
X22440321Y16879688D01*
X22327034Y16845322D01*
X22209217Y16833719D01*
X22091399Y16845322D01*
X21978112Y16879688D01*
X21873705Y16935495D01*
X21859789Y16946915D01*
X21782190Y17010599D01*
X21748337Y17051850D01*
X21707086Y17102114D01*
X21651279Y17206522D01*
X21616913Y17319809D01*
X21608217Y17408108D01*
X21608218Y18867145D01*
X21616914Y18955444D01*
X21651280Y19068731D01*
X21707087Y19173139D01*
X21782191Y19264653D01*
X21873705Y19339757D01*
X21978113Y19395564D01*
X22091400Y19429930D01*
X22209217Y19441533D01*
X22327035Y19429930D01*
X22327035Y19429930D01*
G37*
G36*
X36810217Y16836626D02*
X35608217Y16836626D01*
X35608217Y19438626D01*
X36810217Y19438626D01*
X36810217Y16836626D01*
X36810217Y16836626D01*
G37*
G36*
X20216820Y19538687D02*
X20216823Y19538686D01*
X20216824Y19538686D01*
X20377238Y19490025D01*
X20377240Y19490024D01*
X20377243Y19490023D01*
X20525078Y19411005D01*
X20654659Y19304659D01*
X20761005Y19175078D01*
X20840023Y19027244D01*
X20840023Y19027243D01*
X20840025Y19027239D01*
X20861804Y18955442D01*
X20888687Y18866821D01*
X20901000Y18741804D01*
X20901000Y18258197D01*
X20888687Y18133180D01*
X20888686Y18133178D01*
X20888686Y18133175D01*
X20840025Y17972761D01*
X20840023Y17972756D01*
X20761005Y17824922D01*
X20654659Y17695341D01*
X20525078Y17588995D01*
X20377244Y17509977D01*
X20377241Y17509976D01*
X20377239Y17509975D01*
X20216825Y17461314D01*
X20216824Y17461314D01*
X20216821Y17461313D01*
X20050000Y17444883D01*
X19883180Y17461313D01*
X19883177Y17461314D01*
X19883176Y17461314D01*
X19722762Y17509975D01*
X19722760Y17509976D01*
X19722757Y17509977D01*
X19574923Y17588995D01*
X19445344Y17695339D01*
X19338993Y17824926D01*
X19259977Y17972756D01*
X19211313Y18133179D01*
X19199000Y18258196D01*
X19199000Y18741803D01*
X19211313Y18866820D01*
X19211314Y18866824D01*
X19259975Y19027238D01*
X19259976Y19027240D01*
X19259977Y19027243D01*
X19338995Y19175078D01*
X19445341Y19304659D01*
X19574922Y19411005D01*
X19722756Y19490023D01*
X19722759Y19490024D01*
X19722761Y19490025D01*
X19883175Y19538686D01*
X19883176Y19538686D01*
X19883179Y19538687D01*
X20050000Y19555117D01*
X20216820Y19538687D01*
X20216820Y19538687D01*
G37*
M02*
