G04 #@! TF.GenerationSoftware,KiCad,Pcbnew,5.0.2-bee76a0~70~ubuntu18.04.1*
G04 #@! TF.CreationDate,2019-12-26T15:42:33-05:00*
G04 #@! TF.ProjectId,ESP-AHT10-Extra,4553502d-4148-4543-9130-2d4578747261,1.4*
G04 #@! TF.SameCoordinates,PX7bfa480PY66c2270*
G04 #@! TF.FileFunction,Legend,Bot*
G04 #@! TF.FilePolarity,Positive*
%FSLAX46Y46*%
G04 Gerber Fmt 4.6, Leading zero omitted, Abs format (unit mm)*
G04 Created by KiCad (PCBNEW 5.0.2-bee76a0~70~ubuntu18.04.1) date Thu 26 Dec 2019 03:42:33 PM EST*
%MOMM*%
%LPD*%
G01*
G04 APERTURE LIST*
%ADD10C,0.250000*%
%ADD11C,0.120000*%
%ADD12C,0.150000*%
G04 APERTURE END LIST*
D10*
X11011904Y5750000D02*
X11107142Y5797620D01*
X11250000Y5797620D01*
X11392857Y5750000D01*
X11488095Y5654762D01*
X11535714Y5559524D01*
X11583333Y5369048D01*
X11583333Y5226191D01*
X11535714Y5035715D01*
X11488095Y4940477D01*
X11392857Y4845239D01*
X11250000Y4797620D01*
X11154761Y4797620D01*
X11011904Y4845239D01*
X10964285Y4892858D01*
X10964285Y5226191D01*
X11154761Y5226191D01*
X10535714Y4797620D02*
X10535714Y5797620D01*
X9964285Y4797620D01*
X9964285Y5797620D01*
X9488095Y4797620D02*
X9488095Y5797620D01*
X9250000Y5797620D01*
X9107142Y5750000D01*
X9011904Y5654762D01*
X8964285Y5559524D01*
X8916666Y5369048D01*
X8916666Y5226191D01*
X8964285Y5035715D01*
X9011904Y4940477D01*
X9107142Y4845239D01*
X9250000Y4797620D01*
X9488095Y4797620D01*
X10190476Y14047620D02*
X10666666Y14047620D01*
X10714285Y13571429D01*
X10666666Y13619048D01*
X10571428Y13666667D01*
X10333333Y13666667D01*
X10238095Y13619048D01*
X10190476Y13571429D01*
X10142857Y13476191D01*
X10142857Y13238096D01*
X10190476Y13142858D01*
X10238095Y13095239D01*
X10333333Y13047620D01*
X10571428Y13047620D01*
X10666666Y13095239D01*
X10714285Y13142858D01*
X9857142Y14047620D02*
X9523809Y13047620D01*
X9190476Y14047620D01*
D11*
G04 #@! TO.C,F1*
X14965000Y13953922D02*
X14965000Y14471078D01*
X16385000Y13953922D02*
X16385000Y14471078D01*
D12*
G04 #@! TO.C,U1*
X15984217Y6162626D02*
X15984217Y6212626D01*
X20134217Y6162626D02*
X20134217Y6307626D01*
X20134217Y11312626D02*
X20134217Y11167626D01*
X15984217Y11312626D02*
X15984217Y11167626D01*
X15984217Y6162626D02*
X20134217Y6162626D01*
X15984217Y11312626D02*
X20134217Y11312626D01*
X15984217Y6212626D02*
X14584217Y6212626D01*
D11*
G04 #@! TO.C,U2*
X21044000Y13124000D02*
X21044000Y14924000D01*
X24264000Y14924000D02*
X24264000Y12474000D01*
D12*
G04 #@! TO.C,U4*
X38355703Y6541380D02*
X38355703Y10541380D01*
X38355703Y10541380D02*
X33355703Y10541380D01*
X33355703Y10541380D02*
X33355703Y6541380D01*
X33355703Y6541380D02*
X38355703Y6541380D01*
X38179310Y6941380D02*
G75*
G03X38179310Y6941380I-223607J0D01*
G01*
D11*
G04 #@! TO.C,U5*
X10450000Y10635000D02*
X12250000Y10635000D01*
X12250000Y7415000D02*
X9800000Y7415000D01*
G04 #@! TO.C,C1*
X26486000Y14499958D02*
X26486000Y13982802D01*
X25066000Y14499958D02*
X25066000Y13982802D01*
G04 #@! TO.C,C2*
X20235000Y13982802D02*
X20235000Y14499958D01*
X18815000Y13982802D02*
X18815000Y14499958D01*
G04 #@! TO.C,C3*
X16865000Y13982802D02*
X16865000Y14499958D01*
X18285000Y13982802D02*
X18285000Y14499958D01*
G04 #@! TO.C,C4*
X28436000Y14499958D02*
X28436000Y13982802D01*
X27016000Y14499958D02*
X27016000Y13982802D01*
G04 #@! TO.C,C5*
X35241422Y11290000D02*
X35758578Y11290000D01*
X35241422Y12710000D02*
X35758578Y12710000D01*
G04 #@! TO.C,C6*
X18058578Y5710000D02*
X17541422Y5710000D01*
X18058578Y4290000D02*
X17541422Y4290000D01*
G04 #@! TO.C,C7*
X11141422Y11090000D02*
X11658578Y11090000D01*
X11141422Y12510000D02*
X11658578Y12510000D01*
G04 #@! TO.C,D1*
X14000000Y16075000D02*
X14000000Y14075000D01*
X14000000Y14075000D02*
X10150000Y14075000D01*
X14000000Y16075000D02*
X10150000Y16075000D01*
G04 #@! TO.C,R1*
X35065703Y14382802D02*
X35065703Y14899958D01*
X33645703Y14382802D02*
X33645703Y14899958D01*
G04 #@! TO.C,R2*
X33065703Y14382802D02*
X33065703Y14899958D01*
X31645703Y14382802D02*
X31645703Y14899958D01*
G04 #@! TO.C,R3*
X37065703Y14382802D02*
X37065703Y14899958D01*
X35645703Y14382802D02*
X35645703Y14899958D01*
G04 #@! TO.C,R4*
X24708578Y4831380D02*
X24191422Y4831380D01*
X24708578Y6251380D02*
X24191422Y6251380D01*
G04 #@! TO.C,R5*
X31508578Y9790000D02*
X30991422Y9790000D01*
X31508578Y11210000D02*
X30991422Y11210000D01*
G04 #@! TO.C,R6*
X30991422Y9251380D02*
X31508578Y9251380D01*
X30991422Y7831380D02*
X31508578Y7831380D01*
G04 #@! TO.C,R7*
X30991422Y5831380D02*
X31508578Y5831380D01*
X30991422Y7251380D02*
X31508578Y7251380D01*
G04 #@! TO.C,R8*
X23660000Y9258578D02*
X23660000Y8741422D01*
X22240000Y9258578D02*
X22240000Y8741422D01*
G04 #@! TO.C,F1*
D12*
X15983333Y16358929D02*
X16316666Y16358929D01*
X16316666Y15835120D02*
X16316666Y16835120D01*
X15840476Y16835120D01*
X14935714Y15835120D02*
X15507142Y15835120D01*
X15221428Y15835120D02*
X15221428Y16835120D01*
X15316666Y16692262D01*
X15411904Y16597024D01*
X15507142Y16549405D01*
G04 #@! TO.C,U1*
X21736904Y5872620D02*
X21736904Y5063096D01*
X21689285Y4967858D01*
X21641666Y4920239D01*
X21546428Y4872620D01*
X21355952Y4872620D01*
X21260714Y4920239D01*
X21213095Y4967858D01*
X21165476Y5063096D01*
X21165476Y5872620D01*
X20165476Y4872620D02*
X20736904Y4872620D01*
X20451190Y4872620D02*
X20451190Y5872620D01*
X20546428Y5729762D01*
X20641666Y5634524D01*
X20736904Y5586905D01*
G04 #@! TO.C,U2*
X23310201Y16780240D02*
X23310201Y15970716D01*
X23262582Y15875478D01*
X23214963Y15827859D01*
X23119725Y15780240D01*
X22929249Y15780240D01*
X22834011Y15827859D01*
X22786392Y15875478D01*
X22738773Y15970716D01*
X22738773Y16780240D01*
X22310201Y16685001D02*
X22262582Y16732620D01*
X22167344Y16780240D01*
X21929249Y16780240D01*
X21834011Y16732620D01*
X21786392Y16685001D01*
X21738773Y16589763D01*
X21738773Y16494525D01*
X21786392Y16351668D01*
X22357820Y15780240D01*
X21738773Y15780240D01*
G04 #@! TO.C,U4*
X38011904Y6097620D02*
X38011904Y5288096D01*
X37964285Y5192858D01*
X37916666Y5145239D01*
X37821428Y5097620D01*
X37630952Y5097620D01*
X37535714Y5145239D01*
X37488095Y5192858D01*
X37440476Y5288096D01*
X37440476Y6097620D01*
X36535714Y5764286D02*
X36535714Y5097620D01*
X36773809Y6145239D02*
X37011904Y5430953D01*
X36392857Y5430953D01*
G04 #@! TO.C,U5*
X13261904Y7047620D02*
X13261904Y6238096D01*
X13214285Y6142858D01*
X13166666Y6095239D01*
X13071428Y6047620D01*
X12880952Y6047620D01*
X12785714Y6095239D01*
X12738095Y6142858D01*
X12690476Y6238096D01*
X12690476Y7047620D01*
X11738095Y7047620D02*
X12214285Y7047620D01*
X12261904Y6571429D01*
X12214285Y6619048D01*
X12119047Y6666667D01*
X11880952Y6666667D01*
X11785714Y6619048D01*
X11738095Y6571429D01*
X11690476Y6476191D01*
X11690476Y6238096D01*
X11738095Y6142858D01*
X11785714Y6095239D01*
X11880952Y6047620D01*
X12119047Y6047620D01*
X12214285Y6095239D01*
X12261904Y6142858D01*
G04 #@! TO.C,C1*
X25892666Y15892858D02*
X25940285Y15845239D01*
X26083142Y15797620D01*
X26178380Y15797620D01*
X26321238Y15845239D01*
X26416476Y15940477D01*
X26464095Y16035715D01*
X26511714Y16226191D01*
X26511714Y16369048D01*
X26464095Y16559524D01*
X26416476Y16654762D01*
X26321238Y16750000D01*
X26178380Y16797620D01*
X26083142Y16797620D01*
X25940285Y16750000D01*
X25892666Y16702381D01*
X24940285Y15797620D02*
X25511714Y15797620D01*
X25226000Y15797620D02*
X25226000Y16797620D01*
X25321238Y16654762D01*
X25416476Y16559524D01*
X25511714Y16511905D01*
G04 #@! TO.C,C2*
X19666666Y15892858D02*
X19714285Y15845239D01*
X19857142Y15797620D01*
X19952380Y15797620D01*
X20095238Y15845239D01*
X20190476Y15940477D01*
X20238095Y16035715D01*
X20285714Y16226191D01*
X20285714Y16369048D01*
X20238095Y16559524D01*
X20190476Y16654762D01*
X20095238Y16750000D01*
X19952380Y16797620D01*
X19857142Y16797620D01*
X19714285Y16750000D01*
X19666666Y16702381D01*
X19285714Y16702381D02*
X19238095Y16750000D01*
X19142857Y16797620D01*
X18904761Y16797620D01*
X18809523Y16750000D01*
X18761904Y16702381D01*
X18714285Y16607143D01*
X18714285Y16511905D01*
X18761904Y16369048D01*
X19333333Y15797620D01*
X18714285Y15797620D01*
G04 #@! TO.C,C3*
X17666666Y15892858D02*
X17714285Y15845239D01*
X17857142Y15797620D01*
X17952380Y15797620D01*
X18095238Y15845239D01*
X18190476Y15940477D01*
X18238095Y16035715D01*
X18285714Y16226191D01*
X18285714Y16369048D01*
X18238095Y16559524D01*
X18190476Y16654762D01*
X18095238Y16750000D01*
X17952380Y16797620D01*
X17857142Y16797620D01*
X17714285Y16750000D01*
X17666666Y16702381D01*
X17333333Y16797620D02*
X16714285Y16797620D01*
X17047619Y16416667D01*
X16904761Y16416667D01*
X16809523Y16369048D01*
X16761904Y16321429D01*
X16714285Y16226191D01*
X16714285Y15988096D01*
X16761904Y15892858D01*
X16809523Y15845239D01*
X16904761Y15797620D01*
X17190476Y15797620D01*
X17285714Y15845239D01*
X17333333Y15892858D01*
G04 #@! TO.C,C4*
X27892666Y15892858D02*
X27940285Y15845239D01*
X28083142Y15797620D01*
X28178380Y15797620D01*
X28321238Y15845239D01*
X28416476Y15940477D01*
X28464095Y16035715D01*
X28511714Y16226191D01*
X28511714Y16369048D01*
X28464095Y16559524D01*
X28416476Y16654762D01*
X28321238Y16750000D01*
X28178380Y16797620D01*
X28083142Y16797620D01*
X27940285Y16750000D01*
X27892666Y16702381D01*
X27035523Y16464286D02*
X27035523Y15797620D01*
X27273619Y16845239D02*
X27511714Y16130953D01*
X26892666Y16130953D01*
G04 #@! TO.C,C5*
X33166666Y11642858D02*
X33214285Y11595239D01*
X33357142Y11547620D01*
X33452380Y11547620D01*
X33595238Y11595239D01*
X33690476Y11690477D01*
X33738095Y11785715D01*
X33785714Y11976191D01*
X33785714Y12119048D01*
X33738095Y12309524D01*
X33690476Y12404762D01*
X33595238Y12500000D01*
X33452380Y12547620D01*
X33357142Y12547620D01*
X33214285Y12500000D01*
X33166666Y12452381D01*
X32261904Y12547620D02*
X32738095Y12547620D01*
X32785714Y12071429D01*
X32738095Y12119048D01*
X32642857Y12166667D01*
X32404761Y12166667D01*
X32309523Y12119048D01*
X32261904Y12071429D01*
X32214285Y11976191D01*
X32214285Y11738096D01*
X32261904Y11642858D01*
X32309523Y11595239D01*
X32404761Y11547620D01*
X32642857Y11547620D01*
X32738095Y11595239D01*
X32785714Y11642858D01*
G04 #@! TO.C,C6*
X15416666Y4642858D02*
X15464285Y4595239D01*
X15607142Y4547620D01*
X15702380Y4547620D01*
X15845238Y4595239D01*
X15940476Y4690477D01*
X15988095Y4785715D01*
X16035714Y4976191D01*
X16035714Y5119048D01*
X15988095Y5309524D01*
X15940476Y5404762D01*
X15845238Y5500000D01*
X15702380Y5547620D01*
X15607142Y5547620D01*
X15464285Y5500000D01*
X15416666Y5452381D01*
X14559523Y5547620D02*
X14750000Y5547620D01*
X14845238Y5500000D01*
X14892857Y5452381D01*
X14988095Y5309524D01*
X15035714Y5119048D01*
X15035714Y4738096D01*
X14988095Y4642858D01*
X14940476Y4595239D01*
X14845238Y4547620D01*
X14654761Y4547620D01*
X14559523Y4595239D01*
X14511904Y4642858D01*
X14464285Y4738096D01*
X14464285Y4976191D01*
X14511904Y5071429D01*
X14559523Y5119048D01*
X14654761Y5166667D01*
X14845238Y5166667D01*
X14940476Y5119048D01*
X14988095Y5071429D01*
X15035714Y4976191D01*
G04 #@! TO.C,C7*
X14166666Y11392858D02*
X14214285Y11345239D01*
X14357142Y11297620D01*
X14452380Y11297620D01*
X14595238Y11345239D01*
X14690476Y11440477D01*
X14738095Y11535715D01*
X14785714Y11726191D01*
X14785714Y11869048D01*
X14738095Y12059524D01*
X14690476Y12154762D01*
X14595238Y12250000D01*
X14452380Y12297620D01*
X14357142Y12297620D01*
X14214285Y12250000D01*
X14166666Y12202381D01*
X13833333Y12297620D02*
X13166666Y12297620D01*
X13595238Y11297620D01*
G04 #@! TO.C,D1*
X13863095Y16372620D02*
X13863095Y17372620D01*
X13625000Y17372620D01*
X13482142Y17325000D01*
X13386904Y17229762D01*
X13339285Y17134524D01*
X13291666Y16944048D01*
X13291666Y16801191D01*
X13339285Y16610715D01*
X13386904Y16515477D01*
X13482142Y16420239D01*
X13625000Y16372620D01*
X13863095Y16372620D01*
X12339285Y16372620D02*
X12910714Y16372620D01*
X12625000Y16372620D02*
X12625000Y17372620D01*
X12720238Y17229762D01*
X12815476Y17134524D01*
X12910714Y17086905D01*
G04 #@! TO.C,R1*
X34433333Y16138096D02*
X34700000Y16519048D01*
X34890476Y16138096D02*
X34890476Y16938096D01*
X34585714Y16938096D01*
X34509523Y16900000D01*
X34471428Y16861905D01*
X34433333Y16785715D01*
X34433333Y16671429D01*
X34471428Y16595239D01*
X34509523Y16557143D01*
X34585714Y16519048D01*
X34890476Y16519048D01*
X33671428Y16138096D02*
X34128571Y16138096D01*
X33900000Y16138096D02*
X33900000Y16938096D01*
X33976190Y16823810D01*
X34052380Y16747620D01*
X34128571Y16709524D01*
G04 #@! TO.C,R2*
X32533333Y16138096D02*
X32800000Y16519048D01*
X32990476Y16138096D02*
X32990476Y16938096D01*
X32685714Y16938096D01*
X32609523Y16900000D01*
X32571428Y16861905D01*
X32533333Y16785715D01*
X32533333Y16671429D01*
X32571428Y16595239D01*
X32609523Y16557143D01*
X32685714Y16519048D01*
X32990476Y16519048D01*
X32228571Y16861905D02*
X32190476Y16900000D01*
X32114285Y16938096D01*
X31923809Y16938096D01*
X31847619Y16900000D01*
X31809523Y16861905D01*
X31771428Y16785715D01*
X31771428Y16709524D01*
X31809523Y16595239D01*
X32266666Y16138096D01*
X31771428Y16138096D01*
G04 #@! TO.C,R3*
X37633333Y16138096D02*
X37900000Y16519048D01*
X38090476Y16138096D02*
X38090476Y16938096D01*
X37785714Y16938096D01*
X37709523Y16900000D01*
X37671428Y16861905D01*
X37633333Y16785715D01*
X37633333Y16671429D01*
X37671428Y16595239D01*
X37709523Y16557143D01*
X37785714Y16519048D01*
X38090476Y16519048D01*
X37366666Y16938096D02*
X36871428Y16938096D01*
X37138095Y16633334D01*
X37023809Y16633334D01*
X36947619Y16595239D01*
X36909523Y16557143D01*
X36871428Y16480953D01*
X36871428Y16290477D01*
X36909523Y16214286D01*
X36947619Y16176191D01*
X37023809Y16138096D01*
X37252380Y16138096D01*
X37328571Y16176191D01*
X37366666Y16214286D01*
G04 #@! TO.C,R4*
X27066666Y5047620D02*
X27400000Y5523810D01*
X27638095Y5047620D02*
X27638095Y6047620D01*
X27257142Y6047620D01*
X27161904Y6000000D01*
X27114285Y5952381D01*
X27066666Y5857143D01*
X27066666Y5714286D01*
X27114285Y5619048D01*
X27161904Y5571429D01*
X27257142Y5523810D01*
X27638095Y5523810D01*
X26209523Y5714286D02*
X26209523Y5047620D01*
X26447619Y6095239D02*
X26685714Y5380953D01*
X26066666Y5380953D01*
G04 #@! TO.C,R5*
X28916666Y10047620D02*
X29250000Y10523810D01*
X29488095Y10047620D02*
X29488095Y11047620D01*
X29107142Y11047620D01*
X29011904Y11000000D01*
X28964285Y10952381D01*
X28916666Y10857143D01*
X28916666Y10714286D01*
X28964285Y10619048D01*
X29011904Y10571429D01*
X29107142Y10523810D01*
X29488095Y10523810D01*
X28011904Y11047620D02*
X28488095Y11047620D01*
X28535714Y10571429D01*
X28488095Y10619048D01*
X28392857Y10666667D01*
X28154761Y10666667D01*
X28059523Y10619048D01*
X28011904Y10571429D01*
X27964285Y10476191D01*
X27964285Y10238096D01*
X28011904Y10142858D01*
X28059523Y10095239D01*
X28154761Y10047620D01*
X28392857Y10047620D01*
X28488095Y10095239D01*
X28535714Y10142858D01*
G04 #@! TO.C,R6*
X28916666Y8047620D02*
X29250000Y8523810D01*
X29488095Y8047620D02*
X29488095Y9047620D01*
X29107142Y9047620D01*
X29011904Y9000000D01*
X28964285Y8952381D01*
X28916666Y8857143D01*
X28916666Y8714286D01*
X28964285Y8619048D01*
X29011904Y8571429D01*
X29107142Y8523810D01*
X29488095Y8523810D01*
X28059523Y9047620D02*
X28250000Y9047620D01*
X28345238Y9000000D01*
X28392857Y8952381D01*
X28488095Y8809524D01*
X28535714Y8619048D01*
X28535714Y8238096D01*
X28488095Y8142858D01*
X28440476Y8095239D01*
X28345238Y8047620D01*
X28154761Y8047620D01*
X28059523Y8095239D01*
X28011904Y8142858D01*
X27964285Y8238096D01*
X27964285Y8476191D01*
X28011904Y8571429D01*
X28059523Y8619048D01*
X28154761Y8666667D01*
X28345238Y8666667D01*
X28440476Y8619048D01*
X28488095Y8571429D01*
X28535714Y8476191D01*
G04 #@! TO.C,R7*
X28916666Y6047620D02*
X29250000Y6523810D01*
X29488095Y6047620D02*
X29488095Y7047620D01*
X29107142Y7047620D01*
X29011904Y7000000D01*
X28964285Y6952381D01*
X28916666Y6857143D01*
X28916666Y6714286D01*
X28964285Y6619048D01*
X29011904Y6571429D01*
X29107142Y6523810D01*
X29488095Y6523810D01*
X28583333Y7047620D02*
X27916666Y7047620D01*
X28345238Y6047620D01*
G04 #@! TO.C,R8*
X23166666Y10547620D02*
X23500000Y11023810D01*
X23738095Y10547620D02*
X23738095Y11547620D01*
X23357142Y11547620D01*
X23261904Y11500000D01*
X23214285Y11452381D01*
X23166666Y11357143D01*
X23166666Y11214286D01*
X23214285Y11119048D01*
X23261904Y11071429D01*
X23357142Y11023810D01*
X23738095Y11023810D01*
X22595238Y11119048D02*
X22690476Y11166667D01*
X22738095Y11214286D01*
X22785714Y11309524D01*
X22785714Y11357143D01*
X22738095Y11452381D01*
X22690476Y11500000D01*
X22595238Y11547620D01*
X22404761Y11547620D01*
X22309523Y11500000D01*
X22261904Y11452381D01*
X22214285Y11357143D01*
X22214285Y11309524D01*
X22261904Y11214286D01*
X22309523Y11166667D01*
X22404761Y11119048D01*
X22595238Y11119048D01*
X22690476Y11071429D01*
X22738095Y11023810D01*
X22785714Y10928572D01*
X22785714Y10738096D01*
X22738095Y10642858D01*
X22690476Y10595239D01*
X22595238Y10547620D01*
X22404761Y10547620D01*
X22309523Y10595239D01*
X22261904Y10642858D01*
X22214285Y10738096D01*
X22214285Y10928572D01*
X22261904Y11023810D01*
X22309523Y11071429D01*
X22404761Y11119048D01*
G04 #@! TD*
M02*
