G04 #@! TF.GenerationSoftware,KiCad,Pcbnew,5.0.2-bee76a0~70~ubuntu18.04.1*
G04 #@! TF.CreationDate,2019-11-11T09:30:16-05:00*
G04 #@! TF.ProjectId,ESP-AHT10-Extra,4553502d-4148-4543-9130-2d4578747261,rev?*
G04 #@! TF.SameCoordinates,PX7bfa480PY66c2270*
G04 #@! TF.FileFunction,Copper,L2,Bot*
G04 #@! TF.FilePolarity,Positive*
%FSLAX46Y46*%
G04 Gerber Fmt 4.6, Leading zero omitted, Abs format (unit mm)*
G04 Created by KiCad (PCBNEW 5.0.2-bee76a0~70~ubuntu18.04.1) date Mon 11 Nov 2019 09:30:16 AM EST*
%MOMM*%
%LPD*%
G01*
G04 APERTURE LIST*
G04 #@! TA.AperFunction,Conductor*
%ADD10C,0.050000*%
G04 #@! TD*
G04 #@! TA.AperFunction,SMDPad,CuDef*
%ADD11C,0.975000*%
G04 #@! TD*
G04 #@! TA.AperFunction,ConnectorPad*
%ADD12C,1.500000*%
G04 #@! TD*
G04 #@! TA.AperFunction,ConnectorPad*
%ADD13C,1.900000*%
G04 #@! TD*
G04 #@! TA.AperFunction,SMDPad,CuDef*
%ADD14R,1.250000X1.000000*%
G04 #@! TD*
G04 #@! TA.AperFunction,SMDPad,CuDef*
%ADD15R,1.000000X1.250000*%
G04 #@! TD*
G04 #@! TA.AperFunction,SMDPad,CuDef*
%ADD16R,1.300000X0.700000*%
G04 #@! TD*
G04 #@! TA.AperFunction,SMDPad,CuDef*
%ADD17R,0.700000X1.300000*%
G04 #@! TD*
G04 #@! TA.AperFunction,SMDPad,CuDef*
%ADD18R,1.550000X0.600000*%
G04 #@! TD*
G04 #@! TA.AperFunction,SMDPad,CuDef*
%ADD19R,0.650000X1.060000*%
G04 #@! TD*
G04 #@! TA.AperFunction,ComponentPad*
%ADD20R,1.100000X2.500000*%
G04 #@! TD*
G04 #@! TA.AperFunction,ComponentPad*
%ADD21O,1.100000X2.500000*%
G04 #@! TD*
G04 #@! TA.AperFunction,ComponentPad*
%ADD22O,1.600000X2.000000*%
G04 #@! TD*
G04 #@! TA.AperFunction,SMDPad,CuDef*
%ADD23O,0.650000X1.500000*%
G04 #@! TD*
G04 #@! TA.AperFunction,SMDPad,CuDef*
%ADD24R,0.650000X1.500000*%
G04 #@! TD*
G04 #@! TA.AperFunction,SMDPad,CuDef*
%ADD25R,1.060000X0.650000*%
G04 #@! TD*
G04 #@! TA.AperFunction,SMDPad,CuDef*
%ADD26R,1.100000X1.100000*%
G04 #@! TD*
G04 #@! TA.AperFunction,ViaPad*
%ADD27C,1.200000*%
G04 #@! TD*
G04 #@! TA.AperFunction,Conductor*
%ADD28C,0.300000*%
G04 #@! TD*
G04 #@! TA.AperFunction,Conductor*
%ADD29C,0.500000*%
G04 #@! TD*
G04 #@! TA.AperFunction,Conductor*
%ADD30C,0.400000*%
G04 #@! TD*
G04 #@! TA.AperFunction,Conductor*
%ADD31C,0.254000*%
G04 #@! TD*
G04 APERTURE END LIST*
D10*
G04 #@! TO.N,Net-(D1-Pad1)*
G04 #@! TO.C,F1*
G36*
X13955142Y15473826D02*
X13978803Y15470316D01*
X14002007Y15464504D01*
X14024529Y15456446D01*
X14046153Y15446218D01*
X14066670Y15433921D01*
X14085883Y15419671D01*
X14103607Y15403607D01*
X14119671Y15385883D01*
X14133921Y15366670D01*
X14146218Y15346153D01*
X14156446Y15324529D01*
X14164504Y15302007D01*
X14170316Y15278803D01*
X14173826Y15255142D01*
X14175000Y15231250D01*
X14175000Y14743750D01*
X14173826Y14719858D01*
X14170316Y14696197D01*
X14164504Y14672993D01*
X14156446Y14650471D01*
X14146218Y14628847D01*
X14133921Y14608330D01*
X14119671Y14589117D01*
X14103607Y14571393D01*
X14085883Y14555329D01*
X14066670Y14541079D01*
X14046153Y14528782D01*
X14024529Y14518554D01*
X14002007Y14510496D01*
X13978803Y14504684D01*
X13955142Y14501174D01*
X13931250Y14500000D01*
X13018750Y14500000D01*
X12994858Y14501174D01*
X12971197Y14504684D01*
X12947993Y14510496D01*
X12925471Y14518554D01*
X12903847Y14528782D01*
X12883330Y14541079D01*
X12864117Y14555329D01*
X12846393Y14571393D01*
X12830329Y14589117D01*
X12816079Y14608330D01*
X12803782Y14628847D01*
X12793554Y14650471D01*
X12785496Y14672993D01*
X12779684Y14696197D01*
X12776174Y14719858D01*
X12775000Y14743750D01*
X12775000Y15231250D01*
X12776174Y15255142D01*
X12779684Y15278803D01*
X12785496Y15302007D01*
X12793554Y15324529D01*
X12803782Y15346153D01*
X12816079Y15366670D01*
X12830329Y15385883D01*
X12846393Y15403607D01*
X12864117Y15419671D01*
X12883330Y15433921D01*
X12903847Y15446218D01*
X12925471Y15456446D01*
X12947993Y15464504D01*
X12971197Y15470316D01*
X12994858Y15473826D01*
X13018750Y15475000D01*
X13931250Y15475000D01*
X13955142Y15473826D01*
X13955142Y15473826D01*
G37*
D11*
G04 #@! TD*
G04 #@! TO.P,F1,2*
G04 #@! TO.N,Net-(D1-Pad1)*
X13475000Y14987500D03*
D10*
G04 #@! TO.N,5V*
G04 #@! TO.C,F1*
G36*
X13955142Y13598826D02*
X13978803Y13595316D01*
X14002007Y13589504D01*
X14024529Y13581446D01*
X14046153Y13571218D01*
X14066670Y13558921D01*
X14085883Y13544671D01*
X14103607Y13528607D01*
X14119671Y13510883D01*
X14133921Y13491670D01*
X14146218Y13471153D01*
X14156446Y13449529D01*
X14164504Y13427007D01*
X14170316Y13403803D01*
X14173826Y13380142D01*
X14175000Y13356250D01*
X14175000Y12868750D01*
X14173826Y12844858D01*
X14170316Y12821197D01*
X14164504Y12797993D01*
X14156446Y12775471D01*
X14146218Y12753847D01*
X14133921Y12733330D01*
X14119671Y12714117D01*
X14103607Y12696393D01*
X14085883Y12680329D01*
X14066670Y12666079D01*
X14046153Y12653782D01*
X14024529Y12643554D01*
X14002007Y12635496D01*
X13978803Y12629684D01*
X13955142Y12626174D01*
X13931250Y12625000D01*
X13018750Y12625000D01*
X12994858Y12626174D01*
X12971197Y12629684D01*
X12947993Y12635496D01*
X12925471Y12643554D01*
X12903847Y12653782D01*
X12883330Y12666079D01*
X12864117Y12680329D01*
X12846393Y12696393D01*
X12830329Y12714117D01*
X12816079Y12733330D01*
X12803782Y12753847D01*
X12793554Y12775471D01*
X12785496Y12797993D01*
X12779684Y12821197D01*
X12776174Y12844858D01*
X12775000Y12868750D01*
X12775000Y13356250D01*
X12776174Y13380142D01*
X12779684Y13403803D01*
X12785496Y13427007D01*
X12793554Y13449529D01*
X12803782Y13471153D01*
X12816079Y13491670D01*
X12830329Y13510883D01*
X12846393Y13528607D01*
X12864117Y13544671D01*
X12883330Y13558921D01*
X12903847Y13571218D01*
X12925471Y13581446D01*
X12947993Y13589504D01*
X12971197Y13595316D01*
X12994858Y13598826D01*
X13018750Y13600000D01*
X13931250Y13600000D01*
X13955142Y13598826D01*
X13955142Y13598826D01*
G37*
D11*
G04 #@! TD*
G04 #@! TO.P,F1,1*
G04 #@! TO.N,5V*
X13475000Y13112500D03*
D10*
G04 #@! TO.N,UD-*
G04 #@! TO.C,J1*
G36*
X8620973Y12385820D02*
X8657376Y12380420D01*
X8693074Y12371479D01*
X8727723Y12359081D01*
X8760991Y12343346D01*
X8792556Y12324427D01*
X8822114Y12302505D01*
X8849382Y12277791D01*
X8874096Y12250523D01*
X8896018Y12220965D01*
X8914937Y12189400D01*
X8930672Y12156132D01*
X8943070Y12121483D01*
X8952011Y12085785D01*
X8957411Y12049382D01*
X8959217Y12012626D01*
X8959217Y11262626D01*
X8957411Y11225870D01*
X8952011Y11189467D01*
X8943070Y11153769D01*
X8930672Y11119120D01*
X8914937Y11085852D01*
X8896018Y11054287D01*
X8874096Y11024729D01*
X8849382Y10997461D01*
X8822114Y10972747D01*
X8792556Y10950825D01*
X8760991Y10931906D01*
X8727723Y10916171D01*
X8693074Y10903773D01*
X8657376Y10894832D01*
X8620973Y10889432D01*
X8584217Y10887626D01*
X1834217Y10887626D01*
X1797461Y10889432D01*
X1761058Y10894832D01*
X1725360Y10903773D01*
X1690711Y10916171D01*
X1657443Y10931906D01*
X1625878Y10950825D01*
X1596320Y10972747D01*
X1569052Y10997461D01*
X1544338Y11024729D01*
X1522416Y11054287D01*
X1503497Y11085852D01*
X1487762Y11119120D01*
X1475364Y11153769D01*
X1466423Y11189467D01*
X1461023Y11225870D01*
X1459217Y11262626D01*
X1459217Y12012626D01*
X1461023Y12049382D01*
X1466423Y12085785D01*
X1475364Y12121483D01*
X1487762Y12156132D01*
X1503497Y12189400D01*
X1522416Y12220965D01*
X1544338Y12250523D01*
X1569052Y12277791D01*
X1596320Y12302505D01*
X1625878Y12324427D01*
X1657443Y12343346D01*
X1690711Y12359081D01*
X1725360Y12371479D01*
X1761058Y12380420D01*
X1797461Y12385820D01*
X1834217Y12387626D01*
X8584217Y12387626D01*
X8620973Y12385820D01*
X8620973Y12385820D01*
G37*
D12*
G04 #@! TD*
G04 #@! TO.P,J1,2*
G04 #@! TO.N,UD-*
X5209217Y11637626D03*
D10*
G04 #@! TO.N,UD+*
G04 #@! TO.C,J1*
G36*
X8620973Y9885820D02*
X8657376Y9880420D01*
X8693074Y9871479D01*
X8727723Y9859081D01*
X8760991Y9843346D01*
X8792556Y9824427D01*
X8822114Y9802505D01*
X8849382Y9777791D01*
X8874096Y9750523D01*
X8896018Y9720965D01*
X8914937Y9689400D01*
X8930672Y9656132D01*
X8943070Y9621483D01*
X8952011Y9585785D01*
X8957411Y9549382D01*
X8959217Y9512626D01*
X8959217Y8762626D01*
X8957411Y8725870D01*
X8952011Y8689467D01*
X8943070Y8653769D01*
X8930672Y8619120D01*
X8914937Y8585852D01*
X8896018Y8554287D01*
X8874096Y8524729D01*
X8849382Y8497461D01*
X8822114Y8472747D01*
X8792556Y8450825D01*
X8760991Y8431906D01*
X8727723Y8416171D01*
X8693074Y8403773D01*
X8657376Y8394832D01*
X8620973Y8389432D01*
X8584217Y8387626D01*
X1834217Y8387626D01*
X1797461Y8389432D01*
X1761058Y8394832D01*
X1725360Y8403773D01*
X1690711Y8416171D01*
X1657443Y8431906D01*
X1625878Y8450825D01*
X1596320Y8472747D01*
X1569052Y8497461D01*
X1544338Y8524729D01*
X1522416Y8554287D01*
X1503497Y8585852D01*
X1487762Y8619120D01*
X1475364Y8653769D01*
X1466423Y8689467D01*
X1461023Y8725870D01*
X1459217Y8762626D01*
X1459217Y9512626D01*
X1461023Y9549382D01*
X1466423Y9585785D01*
X1475364Y9621483D01*
X1487762Y9656132D01*
X1503497Y9689400D01*
X1522416Y9720965D01*
X1544338Y9750523D01*
X1569052Y9777791D01*
X1596320Y9802505D01*
X1625878Y9824427D01*
X1657443Y9843346D01*
X1690711Y9859081D01*
X1725360Y9871479D01*
X1761058Y9880420D01*
X1797461Y9885820D01*
X1834217Y9887626D01*
X8584217Y9887626D01*
X8620973Y9885820D01*
X8620973Y9885820D01*
G37*
D12*
G04 #@! TD*
G04 #@! TO.P,J1,3*
G04 #@! TO.N,UD+*
X5209217Y9137626D03*
D10*
G04 #@! TO.N,GND*
G04 #@! TO.C,J1*
G36*
X8530775Y7525339D02*
X8576885Y7518499D01*
X8622102Y7507173D01*
X8665992Y7491469D01*
X8708130Y7471539D01*
X8748113Y7447574D01*
X8785554Y7419806D01*
X8820093Y7388502D01*
X8851397Y7353963D01*
X8879165Y7316522D01*
X8903130Y7276539D01*
X8923060Y7234401D01*
X8938764Y7190511D01*
X8950090Y7145294D01*
X8956930Y7099184D01*
X8959217Y7052626D01*
X8959217Y6102626D01*
X8956930Y6056068D01*
X8950090Y6009958D01*
X8938764Y5964741D01*
X8923060Y5920851D01*
X8903130Y5878713D01*
X8879165Y5838730D01*
X8851397Y5801289D01*
X8820093Y5766750D01*
X8785554Y5735446D01*
X8748113Y5707678D01*
X8708130Y5683713D01*
X8665992Y5663783D01*
X8622102Y5648079D01*
X8576885Y5636753D01*
X8530775Y5629913D01*
X8484217Y5627626D01*
X1434217Y5627626D01*
X1387659Y5629913D01*
X1341549Y5636753D01*
X1296332Y5648079D01*
X1252442Y5663783D01*
X1210304Y5683713D01*
X1170321Y5707678D01*
X1132880Y5735446D01*
X1098341Y5766750D01*
X1067037Y5801289D01*
X1039269Y5838730D01*
X1015304Y5878713D01*
X995374Y5920851D01*
X979670Y5964741D01*
X968344Y6009958D01*
X961504Y6056068D01*
X959217Y6102626D01*
X959217Y7052626D01*
X961504Y7099184D01*
X968344Y7145294D01*
X979670Y7190511D01*
X995374Y7234401D01*
X1015304Y7276539D01*
X1039269Y7316522D01*
X1067037Y7353963D01*
X1098341Y7388502D01*
X1132880Y7419806D01*
X1170321Y7447574D01*
X1210304Y7471539D01*
X1252442Y7491469D01*
X1296332Y7507173D01*
X1341549Y7518499D01*
X1387659Y7525339D01*
X1434217Y7527626D01*
X8484217Y7527626D01*
X8530775Y7525339D01*
X8530775Y7525339D01*
G37*
D13*
G04 #@! TD*
G04 #@! TO.P,J1,4*
G04 #@! TO.N,GND*
X4959217Y6577626D03*
D10*
G04 #@! TO.N,VBUS*
G04 #@! TO.C,J1*
G36*
X8530775Y15145339D02*
X8576885Y15138499D01*
X8622102Y15127173D01*
X8665992Y15111469D01*
X8708130Y15091539D01*
X8748113Y15067574D01*
X8785554Y15039806D01*
X8820093Y15008502D01*
X8851397Y14973963D01*
X8879165Y14936522D01*
X8903130Y14896539D01*
X8923060Y14854401D01*
X8938764Y14810511D01*
X8950090Y14765294D01*
X8956930Y14719184D01*
X8959217Y14672626D01*
X8959217Y13722626D01*
X8956930Y13676068D01*
X8950090Y13629958D01*
X8938764Y13584741D01*
X8923060Y13540851D01*
X8903130Y13498713D01*
X8879165Y13458730D01*
X8851397Y13421289D01*
X8820093Y13386750D01*
X8785554Y13355446D01*
X8748113Y13327678D01*
X8708130Y13303713D01*
X8665992Y13283783D01*
X8622102Y13268079D01*
X8576885Y13256753D01*
X8530775Y13249913D01*
X8484217Y13247626D01*
X1434217Y13247626D01*
X1387659Y13249913D01*
X1341549Y13256753D01*
X1296332Y13268079D01*
X1252442Y13283783D01*
X1210304Y13303713D01*
X1170321Y13327678D01*
X1132880Y13355446D01*
X1098341Y13386750D01*
X1067037Y13421289D01*
X1039269Y13458730D01*
X1015304Y13498713D01*
X995374Y13540851D01*
X979670Y13584741D01*
X968344Y13629958D01*
X961504Y13676068D01*
X959217Y13722626D01*
X959217Y14672626D01*
X961504Y14719184D01*
X968344Y14765294D01*
X979670Y14810511D01*
X995374Y14854401D01*
X1015304Y14896539D01*
X1039269Y14936522D01*
X1067037Y14973963D01*
X1098341Y15008502D01*
X1132880Y15039806D01*
X1170321Y15067574D01*
X1210304Y15091539D01*
X1252442Y15111469D01*
X1296332Y15127173D01*
X1341549Y15138499D01*
X1387659Y15145339D01*
X1434217Y15147626D01*
X8484217Y15147626D01*
X8530775Y15145339D01*
X8530775Y15145339D01*
G37*
D13*
G04 #@! TD*
G04 #@! TO.P,J1,1*
G04 #@! TO.N,VBUS*
X4959217Y14197626D03*
D14*
G04 #@! TO.P,C1,1*
G04 #@! TO.N,3V3*
X27300000Y15050000D03*
G04 #@! TO.P,C1,2*
G04 #@! TO.N,GND*
X27300000Y13050000D03*
G04 #@! TD*
G04 #@! TO.P,C2,2*
G04 #@! TO.N,GND*
X19525000Y15000000D03*
G04 #@! TO.P,C2,1*
G04 #@! TO.N,5V*
X19525000Y13000000D03*
G04 #@! TD*
G04 #@! TO.P,C3,2*
G04 #@! TO.N,GND*
X17575000Y15000000D03*
G04 #@! TO.P,C3,1*
G04 #@! TO.N,5V*
X17575000Y13000000D03*
G04 #@! TD*
G04 #@! TO.P,C4,1*
G04 #@! TO.N,3V3*
X29250000Y15050000D03*
G04 #@! TO.P,C4,2*
G04 #@! TO.N,GND*
X29250000Y13050000D03*
G04 #@! TD*
D15*
G04 #@! TO.P,C5,2*
G04 #@! TO.N,GND*
X36500000Y12000000D03*
G04 #@! TO.P,C5,1*
G04 #@! TO.N,3V3*
X34500000Y12000000D03*
G04 #@! TD*
D16*
G04 #@! TO.P,R1,1*
G04 #@! TO.N,3V3*
X34355703Y13591380D03*
G04 #@! TO.P,R1,2*
G04 #@! TO.N,Net-(R1-Pad2)*
X34355703Y15491380D03*
G04 #@! TD*
G04 #@! TO.P,R2,1*
G04 #@! TO.N,Net-(R2-Pad1)*
X32355703Y13591380D03*
G04 #@! TO.P,R2,2*
G04 #@! TO.N,Net-(R2-Pad2)*
X32355703Y15491380D03*
G04 #@! TD*
G04 #@! TO.P,R3,2*
G04 #@! TO.N,Net-(R2-Pad1)*
X36355703Y15541380D03*
G04 #@! TO.P,R3,1*
G04 #@! TO.N,3V3*
X36355703Y13641380D03*
G04 #@! TD*
D17*
G04 #@! TO.P,R4,2*
G04 #@! TO.N,GND*
X23500000Y5541380D03*
G04 #@! TO.P,R4,1*
G04 #@! TO.N,Net-(R4-Pad1)*
X25400000Y5541380D03*
G04 #@! TD*
G04 #@! TO.P,R5,2*
G04 #@! TO.N,Net-(R5-Pad2)*
X30300000Y10500000D03*
G04 #@! TO.P,R5,1*
G04 #@! TO.N,3V3*
X32200000Y10500000D03*
G04 #@! TD*
G04 #@! TO.P,R6,1*
G04 #@! TO.N,3V3*
X30350000Y8541380D03*
G04 #@! TO.P,R6,2*
G04 #@! TO.N,SDA*
X32250000Y8541380D03*
G04 #@! TD*
G04 #@! TO.P,R7,2*
G04 #@! TO.N,SCL*
X32250000Y6541380D03*
G04 #@! TO.P,R7,1*
G04 #@! TO.N,3V3*
X30350000Y6541380D03*
G04 #@! TD*
D18*
G04 #@! TO.P,U1,1*
G04 #@! TO.N,UDP+*
X15359217Y6832626D03*
G04 #@! TO.P,U1,2*
G04 #@! TO.N,UDP-*
X15359217Y8102626D03*
G04 #@! TO.P,U1,3*
G04 #@! TO.N,GND*
X15359217Y9372626D03*
G04 #@! TO.P,U1,4*
G04 #@! TO.N,N/C*
X15359217Y10642626D03*
G04 #@! TO.P,U1,5*
G04 #@! TO.N,5V*
X20759217Y10642626D03*
G04 #@! TO.P,U1,6*
G04 #@! TO.N,eRX*
X20759217Y9372626D03*
G04 #@! TO.P,U1,7*
G04 #@! TO.N,Net-(R8-Pad2)*
X20759217Y8102626D03*
G04 #@! TO.P,U1,8*
G04 #@! TO.N,Net-(C6-Pad1)*
X20759217Y6832626D03*
G04 #@! TD*
D19*
G04 #@! TO.P,U2,1*
G04 #@! TO.N,5V*
X25305703Y12941380D03*
G04 #@! TO.P,U2,2*
G04 #@! TO.N,GND*
X24355703Y12941380D03*
G04 #@! TO.P,U2,3*
G04 #@! TO.N,5V*
X23405703Y12941380D03*
G04 #@! TO.P,U2,4*
G04 #@! TO.N,N/C*
X23405703Y15141380D03*
G04 #@! TO.P,U2,5*
G04 #@! TO.N,3V3*
X25305703Y15141380D03*
G04 #@! TD*
D20*
G04 #@! TO.P,U3,1*
G04 #@! TO.N,Net-(R2-Pad1)*
X36209217Y18137626D03*
D21*
G04 #@! TO.P,U3,2*
G04 #@! TO.N,N/C*
X34209217Y18137626D03*
G04 #@! TO.P,U3,3*
G04 #@! TO.N,Net-(R1-Pad2)*
X32209217Y18137626D03*
G04 #@! TO.P,U3,4*
G04 #@! TO.N,Net-(R2-Pad2)*
X30209217Y18137626D03*
G04 #@! TO.P,U3,5*
G04 #@! TO.N,N/C*
X28209217Y18137626D03*
G04 #@! TO.P,U3,6*
X26209217Y18137626D03*
G04 #@! TO.P,U3,7*
X24209217Y18137626D03*
G04 #@! TO.P,U3,8*
G04 #@! TO.N,3V3*
X22209217Y18137626D03*
G04 #@! TO.P,U3,9*
G04 #@! TO.N,GND*
X22209217Y2737626D03*
G04 #@! TO.P,U3,10*
G04 #@! TO.N,Net-(R4-Pad1)*
X24209217Y2837626D03*
G04 #@! TO.P,U3,11*
G04 #@! TO.N,N/C*
X26209217Y2737626D03*
G04 #@! TO.P,U3,12*
G04 #@! TO.N,Net-(R5-Pad2)*
X28209217Y2737626D03*
G04 #@! TO.P,U3,13*
G04 #@! TO.N,SDA*
X30209217Y2737626D03*
G04 #@! TO.P,U3,14*
G04 #@! TO.N,SCL*
X32209217Y2737626D03*
G04 #@! TO.P,U3,15*
G04 #@! TO.N,eRX*
X34209217Y2737626D03*
G04 #@! TO.P,U3,16*
G04 #@! TO.N,eTX*
X36209217Y2737626D03*
G04 #@! TD*
D22*
G04 #@! TO.P,SW1,2*
G04 #@! TO.N,GND*
X13450000Y18500000D03*
G04 #@! TO.P,SW1,1*
G04 #@! TO.N,Net-(R2-Pad2)*
X20050000Y18500000D03*
G04 #@! TD*
G04 #@! TO.P,SW2,1*
G04 #@! TO.N,Net-(R5-Pad2)*
X13450000Y2250000D03*
G04 #@! TO.P,SW2,2*
G04 #@! TO.N,GND*
X20050000Y2250000D03*
G04 #@! TD*
D23*
G04 #@! TO.P,U4,1*
G04 #@! TO.N,GND*
X37125703Y6941380D03*
D24*
G04 #@! TO.P,U4,2*
G04 #@! TO.N,SDA*
X35855703Y6941380D03*
G04 #@! TO.P,U4,3*
G04 #@! TO.N,SCL*
X34585703Y6941380D03*
G04 #@! TO.P,U4,4*
G04 #@! TO.N,3V3*
X34585703Y10141380D03*
G04 #@! TO.P,U4,5*
G04 #@! TO.N,GND*
X35855703Y10141380D03*
G04 #@! TO.P,U4,6*
G04 #@! TO.N,N/C*
X37125703Y10141380D03*
G04 #@! TD*
D15*
G04 #@! TO.P,C6,2*
G04 #@! TO.N,GND*
X16800000Y5000000D03*
G04 #@! TO.P,C6,1*
G04 #@! TO.N,Net-(C6-Pad1)*
X18800000Y5000000D03*
G04 #@! TD*
D25*
G04 #@! TO.P,U5,1*
G04 #@! TO.N,UD+*
X10250000Y8075000D03*
G04 #@! TO.P,U5,2*
G04 #@! TO.N,GND*
X10250000Y9025000D03*
G04 #@! TO.P,U5,3*
G04 #@! TO.N,UD-*
X10250000Y9975000D03*
G04 #@! TO.P,U5,4*
G04 #@! TO.N,UDP-*
X12450000Y9975000D03*
G04 #@! TO.P,U5,6*
G04 #@! TO.N,UDP+*
X12450000Y8075000D03*
G04 #@! TO.P,U5,5*
G04 #@! TO.N,5V*
X12450000Y9025000D03*
G04 #@! TD*
D14*
G04 #@! TO.P,C7,2*
G04 #@! TO.N,GND*
X15600000Y15000000D03*
G04 #@! TO.P,C7,1*
G04 #@! TO.N,5V*
X15600000Y13000000D03*
G04 #@! TD*
D16*
G04 #@! TO.P,R8,1*
G04 #@! TO.N,eTX*
X22950000Y9950000D03*
G04 #@! TO.P,R8,2*
G04 #@! TO.N,Net-(R8-Pad2)*
X22950000Y8050000D03*
G04 #@! TD*
D14*
G04 #@! TO.P,C8,2*
G04 #@! TO.N,GND*
X21475000Y15025000D03*
G04 #@! TO.P,C8,1*
G04 #@! TO.N,5V*
X21475000Y13025000D03*
G04 #@! TD*
D26*
G04 #@! TO.P,D1,2*
G04 #@! TO.N,VBUS*
X10625000Y15300000D03*
G04 #@! TO.P,D1,1*
G04 #@! TO.N,Net-(D1-Pad1)*
X10625000Y12500000D03*
G04 #@! TD*
D27*
G04 #@! TO.N,GND*
X28250000Y11800000D03*
X37225000Y11950000D03*
X14925000Y5050000D03*
X14925000Y17225000D03*
G04 #@! TO.N,eRX*
X24550002Y8050000D03*
X34050000Y5025000D03*
G04 #@! TO.N,eTX*
X24550000Y9975000D03*
X36239335Y5243178D03*
G04 #@! TD*
D28*
G04 #@! TO.N,3V3*
X34405703Y13641380D02*
X34355703Y13591380D01*
X36355703Y13641380D02*
X34405703Y13641380D01*
X25305703Y15346380D02*
X25305703Y15141380D01*
X24264467Y16387616D02*
X25305703Y15346380D01*
X23259227Y16387616D02*
X24264467Y16387616D01*
X22209217Y17437626D02*
X23259227Y16387616D01*
X27255703Y15141380D02*
X27355703Y15041380D01*
X25305703Y15141380D02*
X27255703Y15141380D01*
X34355703Y11541380D02*
X34355703Y13591380D01*
X34585703Y9891380D02*
X34355703Y10121380D01*
X34355703Y10121380D02*
X34355703Y11541380D01*
X30350000Y6541380D02*
X30350000Y8541380D01*
X30350000Y8650000D02*
X32200000Y10500000D01*
X30350000Y8541380D02*
X30350000Y8650000D01*
X33400000Y12000000D02*
X33700000Y12000000D01*
X33700000Y12000000D02*
X34500000Y12000000D01*
X32200000Y10800000D02*
X33400000Y12000000D01*
X32200000Y10500000D02*
X32200000Y10800000D01*
X27364323Y15050000D02*
X27355703Y15041380D01*
X29250000Y15050000D02*
X27364323Y15050000D01*
X30800000Y14650000D02*
X30400000Y15050000D01*
X30800000Y12900000D02*
X30800000Y14650000D01*
X30400000Y15050000D02*
X29250000Y15050000D01*
X33400000Y12000000D02*
X31700000Y12000000D01*
X31700000Y12000000D02*
X30800000Y12900000D01*
G04 #@! TO.N,GND*
X37125703Y7824297D02*
X37125703Y7191380D01*
X35855703Y9094297D02*
X37125703Y7824297D01*
X35855703Y11041380D02*
X35855703Y9094297D01*
X36355703Y11541380D02*
X35855703Y11041380D01*
D29*
X4959217Y6577626D02*
X5686843Y5850000D01*
D28*
X16800000Y5975000D02*
X16800000Y5050000D01*
X16800000Y9006843D02*
X16800000Y5975000D01*
X16434217Y9372626D02*
X16800000Y9006843D01*
X15359217Y9372626D02*
X16434217Y9372626D01*
D29*
X18750000Y2250000D02*
X20050000Y2250000D01*
X18475000Y2250000D02*
X18750000Y2250000D01*
X16800000Y3925000D02*
X18475000Y2250000D01*
X16800000Y5050000D02*
X16800000Y3925000D01*
D28*
X24355703Y12941380D02*
X24355703Y12111380D01*
X27161379Y11911379D02*
X27355703Y12105703D01*
X27355703Y12105703D02*
X27355703Y13041380D01*
X24355703Y12111380D02*
X24555704Y11911379D01*
X24555704Y11911379D02*
X27161379Y11911379D01*
D29*
X22941380Y5541380D02*
X23500000Y5541380D01*
X22209217Y3437626D02*
X22209217Y4809217D01*
X22209217Y4809217D02*
X22941380Y5541380D01*
D28*
X36500000Y12000000D02*
X37175000Y12000000D01*
X37175000Y12000000D02*
X37225000Y11950000D01*
X29250000Y12250000D02*
X29250000Y13050000D01*
X28250000Y11800000D02*
X28800000Y11800000D01*
X28800000Y11800000D02*
X29250000Y12250000D01*
D30*
X21021591Y2250000D02*
X22209217Y3437626D01*
X20050000Y2250000D02*
X21021591Y2250000D01*
D28*
X10250000Y9025000D02*
X10900000Y9025000D01*
X11350000Y8575000D02*
X11350000Y5850000D01*
X10900000Y9025000D02*
X11350000Y8575000D01*
D29*
X5686843Y5850000D02*
X11350000Y5850000D01*
X11350000Y5850000D02*
X13225000Y5850000D01*
X13225000Y5850000D02*
X14025000Y5050000D01*
D28*
X14975000Y5000000D02*
X14925000Y5050000D01*
X16800000Y5000000D02*
X14975000Y5000000D01*
D29*
X14025000Y5050000D02*
X14925000Y5050000D01*
X14925000Y5050000D02*
X16800000Y5050000D01*
D28*
X13475000Y17225000D02*
X14925000Y17225000D01*
X13450000Y18500000D02*
X13450000Y17250000D01*
X13450000Y17250000D02*
X13475000Y17225000D01*
D29*
G04 #@! TO.N,UD+*
X9220000Y8075000D02*
X10250000Y8075000D01*
X8145000Y9150000D02*
X9220000Y8075000D01*
X5209217Y9137626D02*
X5221591Y9150000D01*
X5221591Y9150000D02*
X8145000Y9150000D01*
G04 #@! TO.N,UD-*
X8395000Y11625000D02*
X5221843Y11625000D01*
X5221843Y11625000D02*
X5209217Y11637626D01*
X10250000Y9975000D02*
X10045000Y9975000D01*
X10045000Y9975000D02*
X8395000Y11625000D01*
D28*
G04 #@! TO.N,Net-(R1-Pad2)*
X32459457Y17437626D02*
X32209217Y17437626D01*
X33405703Y16491380D02*
X32459457Y17437626D01*
X33405703Y16241140D02*
X33405703Y16491380D01*
X34355703Y15491380D02*
X34155463Y15491380D01*
X34155463Y15491380D02*
X33405703Y16241140D01*
G04 #@! TO.N,Net-(R2-Pad1)*
X36209217Y15687866D02*
X36355703Y15541380D01*
X36209217Y17437626D02*
X36209217Y15687866D01*
X32505703Y13591380D02*
X32355703Y13591380D01*
X33455703Y14541380D02*
X32505703Y13591380D01*
X35155703Y14541380D02*
X33455703Y14541380D01*
X36355703Y15541380D02*
X36155703Y15541380D01*
X36155703Y15541380D02*
X35155703Y14541380D01*
G04 #@! TO.N,Net-(R2-Pad2)*
X30209217Y16387866D02*
X30209217Y17437626D01*
X32355703Y15491380D02*
X31105703Y15491380D01*
X31105703Y15491380D02*
X30209217Y16387866D01*
D30*
X30209217Y18393275D02*
X30209217Y17437626D01*
X20050000Y18700000D02*
X21287636Y19937636D01*
X28664856Y19937636D02*
X30209217Y18393275D01*
X21287636Y19937636D02*
X28664856Y19937636D01*
X20050000Y18500000D02*
X20050000Y18700000D01*
D28*
G04 #@! TO.N,Net-(R4-Pad1)*
X25500000Y5150000D02*
X25500000Y5550000D01*
X24209217Y3437626D02*
X24209217Y3859217D01*
X24209217Y3859217D02*
X25500000Y5150000D01*
G04 #@! TO.N,Net-(R5-Pad2)*
X29250000Y9500000D02*
X30250000Y10500000D01*
X28209217Y3437626D02*
X29250000Y4478409D01*
X29250000Y4478409D02*
X29250000Y9500000D01*
D30*
X28209217Y1609217D02*
X28209217Y3437626D01*
X27300000Y700000D02*
X28209217Y1609217D01*
X13450000Y2250000D02*
X16350000Y2250000D01*
X17900000Y700000D02*
X27300000Y700000D01*
X16350000Y2250000D02*
X17900000Y700000D01*
D28*
G04 #@! TO.N,SDA*
X35489366Y8541380D02*
X32455703Y8541380D01*
X35855703Y8175043D02*
X35489366Y8541380D01*
X35855703Y7191380D02*
X35855703Y8175043D01*
X32250000Y8450000D02*
X32250000Y8541380D01*
X31300000Y7500000D02*
X32250000Y8450000D01*
X31300000Y5150000D02*
X31300000Y7500000D01*
X30209217Y3437626D02*
X30209217Y4059217D01*
X30209217Y4059217D02*
X31300000Y5150000D01*
G04 #@! TO.N,SCL*
X32441380Y7191380D02*
X34585703Y7191380D01*
X32250000Y7000000D02*
X32441380Y7191380D01*
X32250000Y3478409D02*
X32250000Y6541380D01*
X32209217Y3437626D02*
X32250000Y3478409D01*
G04 #@! TO.N,eRX*
X34050000Y3596843D02*
X34050000Y4176472D01*
X34209217Y3437626D02*
X34050000Y3596843D01*
X34050000Y4176472D02*
X34050000Y5025000D01*
X24550002Y8474998D02*
X24550002Y8050000D01*
X24025000Y9000000D02*
X24550002Y8474998D01*
X21850000Y9000000D02*
X24025000Y9000000D01*
X20759217Y9372626D02*
X21477374Y9372626D01*
X21477374Y9372626D02*
X21850000Y9000000D01*
G04 #@! TO.N,eTX*
X22950000Y9950000D02*
X24525000Y9950000D01*
X24525000Y9950000D02*
X24550000Y9975000D01*
X36239335Y3467744D02*
X36239335Y4394650D01*
X36239335Y4394650D02*
X36239335Y5243178D01*
X36209217Y3437626D02*
X36239335Y3467744D01*
D29*
G04 #@! TO.N,VBUS*
X10350000Y15575000D02*
X10625000Y15300000D01*
X9450000Y15575000D02*
X10350000Y15575000D01*
X8775000Y14900000D02*
X9450000Y15575000D01*
X4959217Y14197626D02*
X5661591Y14900000D01*
X5661591Y14900000D02*
X8775000Y14900000D01*
G04 #@! TO.N,UDP+*
X15350463Y6841380D02*
X15359217Y6832626D01*
D28*
X13067374Y6832626D02*
X14284217Y6832626D01*
X14284217Y6832626D02*
X15359217Y6832626D01*
X12450000Y7450000D02*
X13067374Y6832626D01*
X12450000Y8075000D02*
X12450000Y7450000D01*
G04 #@! TO.N,UDP-*
X13825000Y8325000D02*
X14047374Y8102626D01*
X13825000Y9650000D02*
X13825000Y8325000D01*
X12450000Y9975000D02*
X13500000Y9975000D01*
X14047374Y8102626D02*
X15359217Y8102626D01*
X13500000Y9975000D02*
X13825000Y9650000D01*
G04 #@! TO.N,Net-(C6-Pad1)*
X20705703Y6779112D02*
X20759217Y6832626D01*
X18900000Y6450000D02*
X18900000Y5050000D01*
X20759217Y6832626D02*
X19282626Y6832626D01*
X19282626Y6832626D02*
X18900000Y6450000D01*
G04 #@! TO.N,5V*
X23405703Y13135677D02*
X23405703Y12941380D01*
X23550000Y14050000D02*
X25150000Y14050000D01*
X25150000Y14050000D02*
X25305703Y13894297D01*
X23400000Y13900000D02*
X23550000Y14050000D01*
X25305703Y13894297D02*
X25305703Y12941380D01*
X23405703Y12941380D02*
X23405703Y13894297D01*
X23405703Y13894297D02*
X23400000Y13900000D01*
X17600000Y12200000D02*
X17600000Y13000000D01*
X20759217Y10642626D02*
X19157374Y10642626D01*
X19157374Y10642626D02*
X17600000Y12200000D01*
X11825000Y9025000D02*
X11350000Y9500000D01*
X11350000Y9500000D02*
X11350000Y10950000D01*
X11350000Y10950000D02*
X12900000Y12500000D01*
X12900000Y12500000D02*
X12925000Y12500000D01*
X12450000Y9025000D02*
X11825000Y9025000D01*
X12925000Y12500000D02*
X13425000Y13000000D01*
D29*
X15487500Y13112500D02*
X15600000Y13000000D01*
X13475000Y13112500D02*
X15487500Y13112500D01*
X15600000Y13000000D02*
X17575000Y13000000D01*
X17575000Y13000000D02*
X19525000Y13000000D01*
X21450000Y13000000D02*
X21475000Y13025000D01*
X19525000Y13000000D02*
X21450000Y13000000D01*
X23322083Y13025000D02*
X23405703Y12941380D01*
X21475000Y13025000D02*
X23322083Y13025000D01*
D28*
G04 #@! TO.N,Net-(R8-Pad2)*
X22897374Y8102626D02*
X22925000Y8075000D01*
X20759217Y8102626D02*
X22897374Y8102626D01*
D29*
G04 #@! TO.N,Net-(D1-Pad1)*
X13112500Y14987500D02*
X13475000Y14987500D01*
X10625000Y12500000D02*
X13112500Y14987500D01*
G04 #@! TD*
D31*
G04 #@! TO.N,GND*
G36*
X27427000Y13177000D02*
X29123000Y13177000D01*
X29123000Y13197000D01*
X29377000Y13197000D01*
X29377000Y13177000D01*
X29397000Y13177000D01*
X29397000Y12923000D01*
X29377000Y12923000D01*
X29377000Y12073750D01*
X29535750Y11915000D01*
X30001310Y11915000D01*
X30234699Y12011673D01*
X30406434Y12183409D01*
X30827761Y11762082D01*
X30650000Y11797440D01*
X29950000Y11797440D01*
X29702235Y11748157D01*
X29492191Y11607809D01*
X29351843Y11397765D01*
X29302560Y11150000D01*
X29302560Y10662717D01*
X28749590Y10109747D01*
X28684048Y10065953D01*
X28640254Y10000411D01*
X28640251Y10000408D01*
X28510546Y9806291D01*
X28449622Y9500000D01*
X28465001Y9422683D01*
X28465000Y4803567D01*
X28291006Y4629572D01*
X28209217Y4645841D01*
X27746854Y4553871D01*
X27354881Y4291963D01*
X27209217Y4073963D01*
X27063554Y4291963D01*
X26671581Y4553871D01*
X26333170Y4621185D01*
X26348157Y4643615D01*
X26397440Y4891380D01*
X26397440Y6191380D01*
X26348157Y6439145D01*
X26207809Y6649189D01*
X25997765Y6789537D01*
X25750000Y6838820D01*
X25050000Y6838820D01*
X24802235Y6789537D01*
X24592191Y6649189D01*
X24451843Y6439145D01*
X24446279Y6411171D01*
X24388327Y6551079D01*
X24209698Y6729707D01*
X23976309Y6826380D01*
X23785750Y6826380D01*
X23627000Y6667630D01*
X23627000Y5668380D01*
X23647000Y5668380D01*
X23647000Y5414380D01*
X23627000Y5414380D01*
X23627000Y5394380D01*
X23373000Y5394380D01*
X23373000Y5414380D01*
X22673750Y5414380D01*
X22515000Y5255630D01*
X22515000Y4765070D01*
X22603936Y4550360D01*
X22545363Y4581024D01*
X22518961Y4581429D01*
X22336217Y4455987D01*
X22336217Y2864626D01*
X22356217Y2864626D01*
X22356217Y2610626D01*
X22336217Y2610626D01*
X22336217Y2590626D01*
X22082217Y2590626D01*
X22082217Y2610626D01*
X22062217Y2610626D01*
X22062217Y2864626D01*
X22082217Y2864626D01*
X22082217Y4455987D01*
X21899473Y4581429D01*
X21873071Y4581024D01*
X21461099Y4365350D01*
X21163021Y4008439D01*
X21024217Y3564626D01*
X21024217Y3487001D01*
X20954424Y3570637D01*
X20456730Y3831442D01*
X20399039Y3841904D01*
X20177000Y3719915D01*
X20177000Y2377000D01*
X20197000Y2377000D01*
X20197000Y2123000D01*
X20177000Y2123000D01*
X20177000Y2103000D01*
X19923000Y2103000D01*
X19923000Y2123000D01*
X18770529Y2123000D01*
X18618066Y1897114D01*
X18731159Y1535000D01*
X18245868Y1535000D01*
X16998587Y2782280D01*
X16952001Y2852001D01*
X16675801Y3036552D01*
X16432237Y3085000D01*
X16432233Y3085000D01*
X16350000Y3101357D01*
X16267767Y3085000D01*
X14751565Y3085000D01*
X14484577Y3484577D01*
X14009909Y3801740D01*
X13450000Y3913113D01*
X12912985Y3806294D01*
X12870238Y4021196D01*
X12786271Y4223909D01*
X12764223Y4277138D01*
X12547451Y4601562D01*
X12434763Y4714250D01*
X15665000Y4714250D01*
X15665000Y4248690D01*
X15761673Y4015301D01*
X15940302Y3836673D01*
X16173691Y3740000D01*
X16514250Y3740000D01*
X16673000Y3898750D01*
X16673000Y4873000D01*
X15823750Y4873000D01*
X15665000Y4714250D01*
X12434763Y4714250D01*
X12377000Y4772012D01*
X12377000Y6412843D01*
X12457625Y6332218D01*
X12501421Y6266673D01*
X12761082Y6093172D01*
X12990058Y6047626D01*
X12990062Y6047626D01*
X13067374Y6032248D01*
X13144686Y6047626D01*
X14167102Y6047626D01*
X14336452Y5934469D01*
X14584217Y5885186D01*
X15720453Y5885186D01*
X15665000Y5751310D01*
X15665000Y5285750D01*
X15823750Y5127000D01*
X16673000Y5127000D01*
X16673000Y6101250D01*
X16635047Y6139203D01*
X16732374Y6284861D01*
X16781657Y6532626D01*
X16781657Y7132626D01*
X16732374Y7380391D01*
X16674085Y7467626D01*
X16732374Y7554861D01*
X16781657Y7802626D01*
X16781657Y8402626D01*
X16732374Y8650391D01*
X16679449Y8729598D01*
X16769217Y8946316D01*
X16769217Y9086876D01*
X16610467Y9245626D01*
X15486217Y9245626D01*
X15486217Y9225626D01*
X15232217Y9225626D01*
X15232217Y9245626D01*
X15212217Y9245626D01*
X15212217Y9499626D01*
X15232217Y9499626D01*
X15232217Y9519626D01*
X15486217Y9519626D01*
X15486217Y9499626D01*
X16610467Y9499626D01*
X16769217Y9658376D01*
X16769217Y9798936D01*
X16679449Y10015654D01*
X16732374Y10094861D01*
X16781657Y10342626D01*
X16781657Y10942626D01*
X16732374Y11190391D01*
X16592026Y11400435D01*
X16381982Y11540783D01*
X16134217Y11590066D01*
X14584217Y11590066D01*
X14336452Y11540783D01*
X14126408Y11400435D01*
X13986060Y11190391D01*
X13936777Y10942626D01*
X13936777Y10627266D01*
X13806292Y10714454D01*
X13577316Y10760000D01*
X13577312Y10760000D01*
X13500000Y10775378D01*
X13431813Y10761815D01*
X13227765Y10898157D01*
X12980000Y10947440D01*
X12457597Y10947440D01*
X13350068Y11839910D01*
X13490953Y11934047D01*
X13520028Y11977560D01*
X13931250Y11977560D01*
X14272294Y12045398D01*
X14440119Y12157536D01*
X14517191Y12042191D01*
X14727235Y11901843D01*
X14975000Y11852560D01*
X16225000Y11852560D01*
X16472765Y11901843D01*
X16587500Y11978507D01*
X16702235Y11901843D01*
X16878544Y11866773D01*
X17034047Y11634047D01*
X17099592Y11590251D01*
X18547627Y10142215D01*
X18591421Y10076673D01*
X18656963Y10032879D01*
X18656965Y10032877D01*
X18732547Y9982375D01*
X18851082Y9903172D01*
X19080058Y9857626D01*
X19080062Y9857626D01*
X19157373Y9842248D01*
X19234684Y9857626D01*
X19373575Y9857626D01*
X19336777Y9672626D01*
X19336777Y9072626D01*
X19386060Y8824861D01*
X19444349Y8737626D01*
X19386060Y8650391D01*
X19336777Y8402626D01*
X19336777Y7802626D01*
X19373575Y7617626D01*
X19359938Y7617626D01*
X19282626Y7633004D01*
X19205314Y7617626D01*
X19205310Y7617626D01*
X18976334Y7572080D01*
X18716673Y7398579D01*
X18672877Y7333034D01*
X18399592Y7059749D01*
X18334047Y7015953D01*
X18290251Y6950408D01*
X18211551Y6832625D01*
X18160546Y6756291D01*
X18115000Y6527315D01*
X18115000Y6527312D01*
X18099622Y6450000D01*
X18115000Y6372688D01*
X18115000Y6235642D01*
X18052235Y6223157D01*
X17842191Y6082809D01*
X17801346Y6021680D01*
X17659698Y6163327D01*
X17426309Y6260000D01*
X17085750Y6260000D01*
X16927000Y6101250D01*
X16927000Y5127000D01*
X16947000Y5127000D01*
X16947000Y4873000D01*
X16927000Y4873000D01*
X16927000Y3898750D01*
X17085750Y3740000D01*
X17426309Y3740000D01*
X17659698Y3836673D01*
X17801346Y3978320D01*
X17842191Y3917191D01*
X18052235Y3776843D01*
X18300000Y3727560D01*
X19300000Y3727560D01*
X19533764Y3774058D01*
X19145576Y3570637D01*
X18785572Y3139226D01*
X18618066Y2602886D01*
X18770529Y2377000D01*
X19923000Y2377000D01*
X19923000Y3719915D01*
X19700961Y3841904D01*
X19643270Y3831442D01*
X19579340Y3797941D01*
X19757809Y3917191D01*
X19898157Y4127235D01*
X19947440Y4375000D01*
X19947440Y5625000D01*
X19898157Y5872765D01*
X19875394Y5906832D01*
X19984217Y5885186D01*
X21534217Y5885186D01*
X21781982Y5934469D01*
X21992026Y6074817D01*
X22132374Y6284861D01*
X22138904Y6317690D01*
X22515000Y6317690D01*
X22515000Y5827130D01*
X22673750Y5668380D01*
X23373000Y5668380D01*
X23373000Y6667630D01*
X23214250Y6826380D01*
X23023691Y6826380D01*
X22790302Y6729707D01*
X22611673Y6551079D01*
X22515000Y6317690D01*
X22138904Y6317690D01*
X22181657Y6532626D01*
X22181657Y7076100D01*
X22300000Y7052560D01*
X23600000Y7052560D01*
X23767560Y7085889D01*
X23850431Y7003018D01*
X24304345Y6815000D01*
X24795659Y6815000D01*
X25249573Y7003018D01*
X25596984Y7350429D01*
X25785002Y7804343D01*
X25785002Y8295657D01*
X25596984Y8749571D01*
X25334054Y9012501D01*
X25596982Y9275429D01*
X25785000Y9729343D01*
X25785000Y10220657D01*
X25596982Y10674571D01*
X25249571Y11021982D01*
X24795657Y11210000D01*
X24304343Y11210000D01*
X23850429Y11021982D01*
X23746706Y10918259D01*
X23600000Y10947440D01*
X22300000Y10947440D01*
X22181657Y10923900D01*
X22181657Y10942626D01*
X22132374Y11190391D01*
X21992026Y11400435D01*
X21781982Y11540783D01*
X21534217Y11590066D01*
X19984217Y11590066D01*
X19736452Y11540783D01*
X19567102Y11427626D01*
X19482532Y11427626D01*
X19057598Y11852560D01*
X20150000Y11852560D01*
X20397765Y11901843D01*
X20518707Y11982655D01*
X20602235Y11926843D01*
X20850000Y11877560D01*
X22100000Y11877560D01*
X22347765Y11926843D01*
X22550319Y12062186D01*
X22622894Y11953571D01*
X22832938Y11813223D01*
X23080703Y11763940D01*
X23730703Y11763940D01*
X23868334Y11791316D01*
X23904393Y11776380D01*
X24069953Y11776380D01*
X24228703Y11935130D01*
X24228703Y12013721D01*
X24328860Y12163615D01*
X24355703Y12298565D01*
X24382546Y12163615D01*
X24482703Y12013721D01*
X24482703Y11935130D01*
X24641453Y11776380D01*
X24807013Y11776380D01*
X24843072Y11791316D01*
X24980703Y11763940D01*
X25630703Y11763940D01*
X25878468Y11813223D01*
X26088512Y11953571D01*
X26202624Y12124351D01*
X26315301Y12011673D01*
X26548690Y11915000D01*
X27014250Y11915000D01*
X27173000Y12073750D01*
X27173000Y12923000D01*
X27427000Y12923000D01*
X27427000Y12073750D01*
X27585750Y11915000D01*
X28051310Y11915000D01*
X28275000Y12007656D01*
X28498690Y11915000D01*
X28964250Y11915000D01*
X29123000Y12073750D01*
X29123000Y12923000D01*
X27427000Y12923000D01*
X27173000Y12923000D01*
X27153000Y12923000D01*
X27153000Y13177000D01*
X27173000Y13177000D01*
X27173000Y13197000D01*
X27427000Y13197000D01*
X27427000Y13177000D01*
X27427000Y13177000D01*
G37*
X27427000Y13177000D02*
X29123000Y13177000D01*
X29123000Y13197000D01*
X29377000Y13197000D01*
X29377000Y13177000D01*
X29397000Y13177000D01*
X29397000Y12923000D01*
X29377000Y12923000D01*
X29377000Y12073750D01*
X29535750Y11915000D01*
X30001310Y11915000D01*
X30234699Y12011673D01*
X30406434Y12183409D01*
X30827761Y11762082D01*
X30650000Y11797440D01*
X29950000Y11797440D01*
X29702235Y11748157D01*
X29492191Y11607809D01*
X29351843Y11397765D01*
X29302560Y11150000D01*
X29302560Y10662717D01*
X28749590Y10109747D01*
X28684048Y10065953D01*
X28640254Y10000411D01*
X28640251Y10000408D01*
X28510546Y9806291D01*
X28449622Y9500000D01*
X28465001Y9422683D01*
X28465000Y4803567D01*
X28291006Y4629572D01*
X28209217Y4645841D01*
X27746854Y4553871D01*
X27354881Y4291963D01*
X27209217Y4073963D01*
X27063554Y4291963D01*
X26671581Y4553871D01*
X26333170Y4621185D01*
X26348157Y4643615D01*
X26397440Y4891380D01*
X26397440Y6191380D01*
X26348157Y6439145D01*
X26207809Y6649189D01*
X25997765Y6789537D01*
X25750000Y6838820D01*
X25050000Y6838820D01*
X24802235Y6789537D01*
X24592191Y6649189D01*
X24451843Y6439145D01*
X24446279Y6411171D01*
X24388327Y6551079D01*
X24209698Y6729707D01*
X23976309Y6826380D01*
X23785750Y6826380D01*
X23627000Y6667630D01*
X23627000Y5668380D01*
X23647000Y5668380D01*
X23647000Y5414380D01*
X23627000Y5414380D01*
X23627000Y5394380D01*
X23373000Y5394380D01*
X23373000Y5414380D01*
X22673750Y5414380D01*
X22515000Y5255630D01*
X22515000Y4765070D01*
X22603936Y4550360D01*
X22545363Y4581024D01*
X22518961Y4581429D01*
X22336217Y4455987D01*
X22336217Y2864626D01*
X22356217Y2864626D01*
X22356217Y2610626D01*
X22336217Y2610626D01*
X22336217Y2590626D01*
X22082217Y2590626D01*
X22082217Y2610626D01*
X22062217Y2610626D01*
X22062217Y2864626D01*
X22082217Y2864626D01*
X22082217Y4455987D01*
X21899473Y4581429D01*
X21873071Y4581024D01*
X21461099Y4365350D01*
X21163021Y4008439D01*
X21024217Y3564626D01*
X21024217Y3487001D01*
X20954424Y3570637D01*
X20456730Y3831442D01*
X20399039Y3841904D01*
X20177000Y3719915D01*
X20177000Y2377000D01*
X20197000Y2377000D01*
X20197000Y2123000D01*
X20177000Y2123000D01*
X20177000Y2103000D01*
X19923000Y2103000D01*
X19923000Y2123000D01*
X18770529Y2123000D01*
X18618066Y1897114D01*
X18731159Y1535000D01*
X18245868Y1535000D01*
X16998587Y2782280D01*
X16952001Y2852001D01*
X16675801Y3036552D01*
X16432237Y3085000D01*
X16432233Y3085000D01*
X16350000Y3101357D01*
X16267767Y3085000D01*
X14751565Y3085000D01*
X14484577Y3484577D01*
X14009909Y3801740D01*
X13450000Y3913113D01*
X12912985Y3806294D01*
X12870238Y4021196D01*
X12786271Y4223909D01*
X12764223Y4277138D01*
X12547451Y4601562D01*
X12434763Y4714250D01*
X15665000Y4714250D01*
X15665000Y4248690D01*
X15761673Y4015301D01*
X15940302Y3836673D01*
X16173691Y3740000D01*
X16514250Y3740000D01*
X16673000Y3898750D01*
X16673000Y4873000D01*
X15823750Y4873000D01*
X15665000Y4714250D01*
X12434763Y4714250D01*
X12377000Y4772012D01*
X12377000Y6412843D01*
X12457625Y6332218D01*
X12501421Y6266673D01*
X12761082Y6093172D01*
X12990058Y6047626D01*
X12990062Y6047626D01*
X13067374Y6032248D01*
X13144686Y6047626D01*
X14167102Y6047626D01*
X14336452Y5934469D01*
X14584217Y5885186D01*
X15720453Y5885186D01*
X15665000Y5751310D01*
X15665000Y5285750D01*
X15823750Y5127000D01*
X16673000Y5127000D01*
X16673000Y6101250D01*
X16635047Y6139203D01*
X16732374Y6284861D01*
X16781657Y6532626D01*
X16781657Y7132626D01*
X16732374Y7380391D01*
X16674085Y7467626D01*
X16732374Y7554861D01*
X16781657Y7802626D01*
X16781657Y8402626D01*
X16732374Y8650391D01*
X16679449Y8729598D01*
X16769217Y8946316D01*
X16769217Y9086876D01*
X16610467Y9245626D01*
X15486217Y9245626D01*
X15486217Y9225626D01*
X15232217Y9225626D01*
X15232217Y9245626D01*
X15212217Y9245626D01*
X15212217Y9499626D01*
X15232217Y9499626D01*
X15232217Y9519626D01*
X15486217Y9519626D01*
X15486217Y9499626D01*
X16610467Y9499626D01*
X16769217Y9658376D01*
X16769217Y9798936D01*
X16679449Y10015654D01*
X16732374Y10094861D01*
X16781657Y10342626D01*
X16781657Y10942626D01*
X16732374Y11190391D01*
X16592026Y11400435D01*
X16381982Y11540783D01*
X16134217Y11590066D01*
X14584217Y11590066D01*
X14336452Y11540783D01*
X14126408Y11400435D01*
X13986060Y11190391D01*
X13936777Y10942626D01*
X13936777Y10627266D01*
X13806292Y10714454D01*
X13577316Y10760000D01*
X13577312Y10760000D01*
X13500000Y10775378D01*
X13431813Y10761815D01*
X13227765Y10898157D01*
X12980000Y10947440D01*
X12457597Y10947440D01*
X13350068Y11839910D01*
X13490953Y11934047D01*
X13520028Y11977560D01*
X13931250Y11977560D01*
X14272294Y12045398D01*
X14440119Y12157536D01*
X14517191Y12042191D01*
X14727235Y11901843D01*
X14975000Y11852560D01*
X16225000Y11852560D01*
X16472765Y11901843D01*
X16587500Y11978507D01*
X16702235Y11901843D01*
X16878544Y11866773D01*
X17034047Y11634047D01*
X17099592Y11590251D01*
X18547627Y10142215D01*
X18591421Y10076673D01*
X18656963Y10032879D01*
X18656965Y10032877D01*
X18732547Y9982375D01*
X18851082Y9903172D01*
X19080058Y9857626D01*
X19080062Y9857626D01*
X19157373Y9842248D01*
X19234684Y9857626D01*
X19373575Y9857626D01*
X19336777Y9672626D01*
X19336777Y9072626D01*
X19386060Y8824861D01*
X19444349Y8737626D01*
X19386060Y8650391D01*
X19336777Y8402626D01*
X19336777Y7802626D01*
X19373575Y7617626D01*
X19359938Y7617626D01*
X19282626Y7633004D01*
X19205314Y7617626D01*
X19205310Y7617626D01*
X18976334Y7572080D01*
X18716673Y7398579D01*
X18672877Y7333034D01*
X18399592Y7059749D01*
X18334047Y7015953D01*
X18290251Y6950408D01*
X18211551Y6832625D01*
X18160546Y6756291D01*
X18115000Y6527315D01*
X18115000Y6527312D01*
X18099622Y6450000D01*
X18115000Y6372688D01*
X18115000Y6235642D01*
X18052235Y6223157D01*
X17842191Y6082809D01*
X17801346Y6021680D01*
X17659698Y6163327D01*
X17426309Y6260000D01*
X17085750Y6260000D01*
X16927000Y6101250D01*
X16927000Y5127000D01*
X16947000Y5127000D01*
X16947000Y4873000D01*
X16927000Y4873000D01*
X16927000Y3898750D01*
X17085750Y3740000D01*
X17426309Y3740000D01*
X17659698Y3836673D01*
X17801346Y3978320D01*
X17842191Y3917191D01*
X18052235Y3776843D01*
X18300000Y3727560D01*
X19300000Y3727560D01*
X19533764Y3774058D01*
X19145576Y3570637D01*
X18785572Y3139226D01*
X18618066Y2602886D01*
X18770529Y2377000D01*
X19923000Y2377000D01*
X19923000Y3719915D01*
X19700961Y3841904D01*
X19643270Y3831442D01*
X19579340Y3797941D01*
X19757809Y3917191D01*
X19898157Y4127235D01*
X19947440Y4375000D01*
X19947440Y5625000D01*
X19898157Y5872765D01*
X19875394Y5906832D01*
X19984217Y5885186D01*
X21534217Y5885186D01*
X21781982Y5934469D01*
X21992026Y6074817D01*
X22132374Y6284861D01*
X22138904Y6317690D01*
X22515000Y6317690D01*
X22515000Y5827130D01*
X22673750Y5668380D01*
X23373000Y5668380D01*
X23373000Y6667630D01*
X23214250Y6826380D01*
X23023691Y6826380D01*
X22790302Y6729707D01*
X22611673Y6551079D01*
X22515000Y6317690D01*
X22138904Y6317690D01*
X22181657Y6532626D01*
X22181657Y7076100D01*
X22300000Y7052560D01*
X23600000Y7052560D01*
X23767560Y7085889D01*
X23850431Y7003018D01*
X24304345Y6815000D01*
X24795659Y6815000D01*
X25249573Y7003018D01*
X25596984Y7350429D01*
X25785002Y7804343D01*
X25785002Y8295657D01*
X25596984Y8749571D01*
X25334054Y9012501D01*
X25596982Y9275429D01*
X25785000Y9729343D01*
X25785000Y10220657D01*
X25596982Y10674571D01*
X25249571Y11021982D01*
X24795657Y11210000D01*
X24304343Y11210000D01*
X23850429Y11021982D01*
X23746706Y10918259D01*
X23600000Y10947440D01*
X22300000Y10947440D01*
X22181657Y10923900D01*
X22181657Y10942626D01*
X22132374Y11190391D01*
X21992026Y11400435D01*
X21781982Y11540783D01*
X21534217Y11590066D01*
X19984217Y11590066D01*
X19736452Y11540783D01*
X19567102Y11427626D01*
X19482532Y11427626D01*
X19057598Y11852560D01*
X20150000Y11852560D01*
X20397765Y11901843D01*
X20518707Y11982655D01*
X20602235Y11926843D01*
X20850000Y11877560D01*
X22100000Y11877560D01*
X22347765Y11926843D01*
X22550319Y12062186D01*
X22622894Y11953571D01*
X22832938Y11813223D01*
X23080703Y11763940D01*
X23730703Y11763940D01*
X23868334Y11791316D01*
X23904393Y11776380D01*
X24069953Y11776380D01*
X24228703Y11935130D01*
X24228703Y12013721D01*
X24328860Y12163615D01*
X24355703Y12298565D01*
X24382546Y12163615D01*
X24482703Y12013721D01*
X24482703Y11935130D01*
X24641453Y11776380D01*
X24807013Y11776380D01*
X24843072Y11791316D01*
X24980703Y11763940D01*
X25630703Y11763940D01*
X25878468Y11813223D01*
X26088512Y11953571D01*
X26202624Y12124351D01*
X26315301Y12011673D01*
X26548690Y11915000D01*
X27014250Y11915000D01*
X27173000Y12073750D01*
X27173000Y12923000D01*
X27427000Y12923000D01*
X27427000Y12073750D01*
X27585750Y11915000D01*
X28051310Y11915000D01*
X28275000Y12007656D01*
X28498690Y11915000D01*
X28964250Y11915000D01*
X29123000Y12073750D01*
X29123000Y12923000D01*
X27427000Y12923000D01*
X27173000Y12923000D01*
X27153000Y12923000D01*
X27153000Y13177000D01*
X27173000Y13177000D01*
X27173000Y13197000D01*
X27427000Y13197000D01*
X27427000Y13177000D01*
G36*
X19015423Y19734576D02*
X18698260Y19259908D01*
X18615000Y18841332D01*
X18615000Y18158667D01*
X18698260Y17740091D01*
X19015424Y17265423D01*
X19490092Y16948260D01*
X20050000Y16836887D01*
X20609909Y16948260D01*
X21041042Y17236334D01*
X21092972Y16975263D01*
X21354880Y16583289D01*
X21746853Y16321381D01*
X22209217Y16229411D01*
X22291006Y16245680D01*
X22536617Y16000068D01*
X22531146Y15991880D01*
X22459699Y16063327D01*
X22226310Y16160000D01*
X21760750Y16160000D01*
X21602000Y16001250D01*
X21602000Y15152000D01*
X21622000Y15152000D01*
X21622000Y14898000D01*
X21602000Y14898000D01*
X21602000Y14878000D01*
X21348000Y14878000D01*
X21348000Y14898000D01*
X20373750Y14898000D01*
X20348750Y14873000D01*
X19652000Y14873000D01*
X19652000Y14853000D01*
X19398000Y14853000D01*
X19398000Y14873000D01*
X17702000Y14873000D01*
X17702000Y14853000D01*
X17448000Y14853000D01*
X17448000Y14873000D01*
X15727000Y14873000D01*
X15727000Y14853000D01*
X15473000Y14853000D01*
X15473000Y14873000D01*
X15453000Y14873000D01*
X15453000Y15127000D01*
X15473000Y15127000D01*
X15473000Y15976250D01*
X15727000Y15976250D01*
X15727000Y15127000D01*
X17448000Y15127000D01*
X17448000Y15976250D01*
X17702000Y15976250D01*
X17702000Y15127000D01*
X19398000Y15127000D01*
X19398000Y15976250D01*
X19652000Y15976250D01*
X19652000Y15127000D01*
X20626250Y15127000D01*
X20651250Y15152000D01*
X21348000Y15152000D01*
X21348000Y16001250D01*
X21189250Y16160000D01*
X20723690Y16160000D01*
X20490301Y16063327D01*
X20478305Y16051331D01*
X20276310Y16135000D01*
X19810750Y16135000D01*
X19652000Y15976250D01*
X19398000Y15976250D01*
X19239250Y16135000D01*
X18773690Y16135000D01*
X18550000Y16042344D01*
X18326310Y16135000D01*
X17860750Y16135000D01*
X17702000Y15976250D01*
X17448000Y15976250D01*
X17289250Y16135000D01*
X16823690Y16135000D01*
X16590301Y16038327D01*
X16587500Y16035526D01*
X16584699Y16038327D01*
X16351310Y16135000D01*
X15885750Y16135000D01*
X15727000Y15976250D01*
X15473000Y15976250D01*
X15314250Y16135000D01*
X14848690Y16135000D01*
X14615301Y16038327D01*
X14487668Y15910693D01*
X14272294Y16054602D01*
X13931250Y16122440D01*
X13018750Y16122440D01*
X12677706Y16054602D01*
X12388584Y15861416D01*
X12377000Y15844079D01*
X12377000Y15977988D01*
X12440800Y16041788D01*
X12547451Y16148438D01*
X12764223Y16472862D01*
X12833396Y16639861D01*
X12870238Y16728804D01*
X12920753Y16982760D01*
X13043270Y16918558D01*
X13100961Y16908096D01*
X13323000Y17030085D01*
X13323000Y18373000D01*
X13577000Y18373000D01*
X13577000Y17030085D01*
X13799039Y16908096D01*
X13856730Y16918558D01*
X14354424Y17179363D01*
X14714428Y17610774D01*
X14881934Y18147114D01*
X14729471Y18373000D01*
X13577000Y18373000D01*
X13323000Y18373000D01*
X13303000Y18373000D01*
X13303000Y18627000D01*
X13323000Y18627000D01*
X13323000Y18647000D01*
X13577000Y18647000D01*
X13577000Y18627000D01*
X14729471Y18627000D01*
X14881934Y18852886D01*
X14714428Y19389226D01*
X14354424Y19820637D01*
X13945433Y20034959D01*
X13957631Y20037787D01*
X14013955Y20040000D01*
X19472521Y20040000D01*
X19015423Y19734576D01*
X19015423Y19734576D01*
G37*
X19015423Y19734576D02*
X18698260Y19259908D01*
X18615000Y18841332D01*
X18615000Y18158667D01*
X18698260Y17740091D01*
X19015424Y17265423D01*
X19490092Y16948260D01*
X20050000Y16836887D01*
X20609909Y16948260D01*
X21041042Y17236334D01*
X21092972Y16975263D01*
X21354880Y16583289D01*
X21746853Y16321381D01*
X22209217Y16229411D01*
X22291006Y16245680D01*
X22536617Y16000068D01*
X22531146Y15991880D01*
X22459699Y16063327D01*
X22226310Y16160000D01*
X21760750Y16160000D01*
X21602000Y16001250D01*
X21602000Y15152000D01*
X21622000Y15152000D01*
X21622000Y14898000D01*
X21602000Y14898000D01*
X21602000Y14878000D01*
X21348000Y14878000D01*
X21348000Y14898000D01*
X20373750Y14898000D01*
X20348750Y14873000D01*
X19652000Y14873000D01*
X19652000Y14853000D01*
X19398000Y14853000D01*
X19398000Y14873000D01*
X17702000Y14873000D01*
X17702000Y14853000D01*
X17448000Y14853000D01*
X17448000Y14873000D01*
X15727000Y14873000D01*
X15727000Y14853000D01*
X15473000Y14853000D01*
X15473000Y14873000D01*
X15453000Y14873000D01*
X15453000Y15127000D01*
X15473000Y15127000D01*
X15473000Y15976250D01*
X15727000Y15976250D01*
X15727000Y15127000D01*
X17448000Y15127000D01*
X17448000Y15976250D01*
X17702000Y15976250D01*
X17702000Y15127000D01*
X19398000Y15127000D01*
X19398000Y15976250D01*
X19652000Y15976250D01*
X19652000Y15127000D01*
X20626250Y15127000D01*
X20651250Y15152000D01*
X21348000Y15152000D01*
X21348000Y16001250D01*
X21189250Y16160000D01*
X20723690Y16160000D01*
X20490301Y16063327D01*
X20478305Y16051331D01*
X20276310Y16135000D01*
X19810750Y16135000D01*
X19652000Y15976250D01*
X19398000Y15976250D01*
X19239250Y16135000D01*
X18773690Y16135000D01*
X18550000Y16042344D01*
X18326310Y16135000D01*
X17860750Y16135000D01*
X17702000Y15976250D01*
X17448000Y15976250D01*
X17289250Y16135000D01*
X16823690Y16135000D01*
X16590301Y16038327D01*
X16587500Y16035526D01*
X16584699Y16038327D01*
X16351310Y16135000D01*
X15885750Y16135000D01*
X15727000Y15976250D01*
X15473000Y15976250D01*
X15314250Y16135000D01*
X14848690Y16135000D01*
X14615301Y16038327D01*
X14487668Y15910693D01*
X14272294Y16054602D01*
X13931250Y16122440D01*
X13018750Y16122440D01*
X12677706Y16054602D01*
X12388584Y15861416D01*
X12377000Y15844079D01*
X12377000Y15977988D01*
X12440800Y16041788D01*
X12547451Y16148438D01*
X12764223Y16472862D01*
X12833396Y16639861D01*
X12870238Y16728804D01*
X12920753Y16982760D01*
X13043270Y16918558D01*
X13100961Y16908096D01*
X13323000Y17030085D01*
X13323000Y18373000D01*
X13577000Y18373000D01*
X13577000Y17030085D01*
X13799039Y16908096D01*
X13856730Y16918558D01*
X14354424Y17179363D01*
X14714428Y17610774D01*
X14881934Y18147114D01*
X14729471Y18373000D01*
X13577000Y18373000D01*
X13323000Y18373000D01*
X13303000Y18373000D01*
X13303000Y18627000D01*
X13323000Y18627000D01*
X13323000Y18647000D01*
X13577000Y18647000D01*
X13577000Y18627000D01*
X14729471Y18627000D01*
X14881934Y18852886D01*
X14714428Y19389226D01*
X14354424Y19820637D01*
X13945433Y20034959D01*
X13957631Y20037787D01*
X14013955Y20040000D01*
X19472521Y20040000D01*
X19015423Y19734576D01*
G04 #@! TD*
M02*
