M48
;DRILL file {KiCad 5.0.2-bee76a0~70~ubuntu18.04.1} date Sat 16 Nov 2019 09:46:48 AM EST
;FORMAT={-:-/ absolute / metric / decimal}
FMAT,2
METRIC,TZ
T1C0.600
T2C0.650
T3C1.000
%
G90
G05
T1
X12.95Y5.3
X13.227Y16.907
X13.85Y10.95
X18.5Y17.35
X24.55Y9.975
X24.55Y8.05
X28.25Y11.8
X34.05Y5.025
X36.239Y5.243
X37.225Y11.95
T2
X22.209Y17.438
X22.209Y3.438
X24.209Y17.438
X24.209Y3.438
X26.209Y17.438
X26.209Y3.438
X28.209Y17.438
X28.209Y3.438
X30.209Y17.438
X30.209Y3.438
X32.209Y17.438
X32.209Y3.438
X34.209Y17.438
X34.209Y3.438
X36.209Y17.438
X36.209Y3.438
T3
X13.45Y18.5
X20.05Y18.5
X13.45Y2.25
X20.05Y2.25
T0
M30
