G04 #@! TF.GenerationSoftware,KiCad,Pcbnew,5.0.2-bee76a0~70~ubuntu18.04.1*
G04 #@! TF.CreationDate,2020-01-10T18:50:58-05:00*
G04 #@! TF.ProjectId,ESP-AHT10-Extra,4553502d-4148-4543-9130-2d4578747261,1.4*
G04 #@! TF.SameCoordinates,PX7bfa480PY66c2270*
G04 #@! TF.FileFunction,Paste,Bot*
G04 #@! TF.FilePolarity,Positive*
%FSLAX46Y46*%
G04 Gerber Fmt 4.6, Leading zero omitted, Abs format (unit mm)*
G04 Created by KiCad (PCBNEW 5.0.2-bee76a0~70~ubuntu18.04.1) date Fri 10 Jan 2020 06:50:58 PM EST*
%MOMM*%
%LPD*%
G01*
G04 APERTURE LIST*
%ADD10C,0.050000*%
%ADD11C,0.975000*%
%ADD12R,1.550000X0.600000*%
%ADD13O,0.650000X1.500000*%
%ADD14R,0.650000X1.500000*%
%ADD15R,1.060000X0.650000*%
%ADD16R,1.100000X1.100000*%
%ADD17R,0.900000X0.800000*%
G04 APERTURE END LIST*
D10*
G04 #@! TO.C,F1*
G36*
X15641142Y15636326D02*
X15664803Y15632816D01*
X15688007Y15627004D01*
X15710529Y15618946D01*
X15732153Y15608718D01*
X15752670Y15596421D01*
X15771883Y15582171D01*
X15789607Y15566107D01*
X15805671Y15548383D01*
X15819921Y15529170D01*
X15832218Y15508653D01*
X15842446Y15487029D01*
X15850504Y15464507D01*
X15856316Y15441303D01*
X15859826Y15417642D01*
X15861000Y15393750D01*
X15861000Y14906250D01*
X15859826Y14882358D01*
X15856316Y14858697D01*
X15850504Y14835493D01*
X15842446Y14812971D01*
X15832218Y14791347D01*
X15819921Y14770830D01*
X15805671Y14751617D01*
X15789607Y14733893D01*
X15771883Y14717829D01*
X15752670Y14703579D01*
X15732153Y14691282D01*
X15710529Y14681054D01*
X15688007Y14672996D01*
X15664803Y14667184D01*
X15641142Y14663674D01*
X15617250Y14662500D01*
X14704750Y14662500D01*
X14680858Y14663674D01*
X14657197Y14667184D01*
X14633993Y14672996D01*
X14611471Y14681054D01*
X14589847Y14691282D01*
X14569330Y14703579D01*
X14550117Y14717829D01*
X14532393Y14733893D01*
X14516329Y14751617D01*
X14502079Y14770830D01*
X14489782Y14791347D01*
X14479554Y14812971D01*
X14471496Y14835493D01*
X14465684Y14858697D01*
X14462174Y14882358D01*
X14461000Y14906250D01*
X14461000Y15393750D01*
X14462174Y15417642D01*
X14465684Y15441303D01*
X14471496Y15464507D01*
X14479554Y15487029D01*
X14489782Y15508653D01*
X14502079Y15529170D01*
X14516329Y15548383D01*
X14532393Y15566107D01*
X14550117Y15582171D01*
X14569330Y15596421D01*
X14589847Y15608718D01*
X14611471Y15618946D01*
X14633993Y15627004D01*
X14657197Y15632816D01*
X14680858Y15636326D01*
X14704750Y15637500D01*
X15617250Y15637500D01*
X15641142Y15636326D01*
X15641142Y15636326D01*
G37*
D11*
X15161000Y15150000D03*
D10*
G36*
X15641142Y13761326D02*
X15664803Y13757816D01*
X15688007Y13752004D01*
X15710529Y13743946D01*
X15732153Y13733718D01*
X15752670Y13721421D01*
X15771883Y13707171D01*
X15789607Y13691107D01*
X15805671Y13673383D01*
X15819921Y13654170D01*
X15832218Y13633653D01*
X15842446Y13612029D01*
X15850504Y13589507D01*
X15856316Y13566303D01*
X15859826Y13542642D01*
X15861000Y13518750D01*
X15861000Y13031250D01*
X15859826Y13007358D01*
X15856316Y12983697D01*
X15850504Y12960493D01*
X15842446Y12937971D01*
X15832218Y12916347D01*
X15819921Y12895830D01*
X15805671Y12876617D01*
X15789607Y12858893D01*
X15771883Y12842829D01*
X15752670Y12828579D01*
X15732153Y12816282D01*
X15710529Y12806054D01*
X15688007Y12797996D01*
X15664803Y12792184D01*
X15641142Y12788674D01*
X15617250Y12787500D01*
X14704750Y12787500D01*
X14680858Y12788674D01*
X14657197Y12792184D01*
X14633993Y12797996D01*
X14611471Y12806054D01*
X14589847Y12816282D01*
X14569330Y12828579D01*
X14550117Y12842829D01*
X14532393Y12858893D01*
X14516329Y12876617D01*
X14502079Y12895830D01*
X14489782Y12916347D01*
X14479554Y12937971D01*
X14471496Y12960493D01*
X14465684Y12983697D01*
X14462174Y13007358D01*
X14461000Y13031250D01*
X14461000Y13518750D01*
X14462174Y13542642D01*
X14465684Y13566303D01*
X14471496Y13589507D01*
X14479554Y13612029D01*
X14489782Y13633653D01*
X14502079Y13654170D01*
X14516329Y13673383D01*
X14532393Y13691107D01*
X14550117Y13707171D01*
X14569330Y13721421D01*
X14589847Y13733718D01*
X14611471Y13743946D01*
X14633993Y13752004D01*
X14657197Y13757816D01*
X14680858Y13761326D01*
X14704750Y13762500D01*
X15617250Y13762500D01*
X15641142Y13761326D01*
X15641142Y13761326D01*
G37*
D11*
X15161000Y13275000D03*
G04 #@! TD*
D12*
G04 #@! TO.C,U1*
X15359217Y6832626D03*
X15359217Y8102626D03*
X15359217Y9372626D03*
X15359217Y10642626D03*
X20759217Y10642626D03*
X20759217Y9372626D03*
X20759217Y8102626D03*
X20759217Y6832626D03*
G04 #@! TD*
D13*
G04 #@! TO.C,U4*
X37125703Y6941380D03*
D14*
X35855703Y6941380D03*
X34585703Y6941380D03*
X34585703Y10141380D03*
X35855703Y10141380D03*
X37125703Y10141380D03*
G04 #@! TD*
D15*
G04 #@! TO.C,U5*
X10250000Y8075000D03*
X10250000Y9025000D03*
X10250000Y9975000D03*
X12450000Y9975000D03*
X12450000Y8075000D03*
X12450000Y9025000D03*
G04 #@! TD*
D10*
G04 #@! TO.C,C1*
G36*
X26256142Y13790206D02*
X26279803Y13786696D01*
X26303007Y13780884D01*
X26325529Y13772826D01*
X26347153Y13762598D01*
X26367670Y13750301D01*
X26386883Y13736051D01*
X26404607Y13719987D01*
X26420671Y13702263D01*
X26434921Y13683050D01*
X26447218Y13662533D01*
X26457446Y13640909D01*
X26465504Y13618387D01*
X26471316Y13595183D01*
X26474826Y13571522D01*
X26476000Y13547630D01*
X26476000Y13060130D01*
X26474826Y13036238D01*
X26471316Y13012577D01*
X26465504Y12989373D01*
X26457446Y12966851D01*
X26447218Y12945227D01*
X26434921Y12924710D01*
X26420671Y12905497D01*
X26404607Y12887773D01*
X26386883Y12871709D01*
X26367670Y12857459D01*
X26347153Y12845162D01*
X26325529Y12834934D01*
X26303007Y12826876D01*
X26279803Y12821064D01*
X26256142Y12817554D01*
X26232250Y12816380D01*
X25319750Y12816380D01*
X25295858Y12817554D01*
X25272197Y12821064D01*
X25248993Y12826876D01*
X25226471Y12834934D01*
X25204847Y12845162D01*
X25184330Y12857459D01*
X25165117Y12871709D01*
X25147393Y12887773D01*
X25131329Y12905497D01*
X25117079Y12924710D01*
X25104782Y12945227D01*
X25094554Y12966851D01*
X25086496Y12989373D01*
X25080684Y13012577D01*
X25077174Y13036238D01*
X25076000Y13060130D01*
X25076000Y13547630D01*
X25077174Y13571522D01*
X25080684Y13595183D01*
X25086496Y13618387D01*
X25094554Y13640909D01*
X25104782Y13662533D01*
X25117079Y13683050D01*
X25131329Y13702263D01*
X25147393Y13719987D01*
X25165117Y13736051D01*
X25184330Y13750301D01*
X25204847Y13762598D01*
X25226471Y13772826D01*
X25248993Y13780884D01*
X25272197Y13786696D01*
X25295858Y13790206D01*
X25319750Y13791380D01*
X26232250Y13791380D01*
X26256142Y13790206D01*
X26256142Y13790206D01*
G37*
D11*
X25776000Y13303880D03*
D10*
G36*
X26256142Y15665206D02*
X26279803Y15661696D01*
X26303007Y15655884D01*
X26325529Y15647826D01*
X26347153Y15637598D01*
X26367670Y15625301D01*
X26386883Y15611051D01*
X26404607Y15594987D01*
X26420671Y15577263D01*
X26434921Y15558050D01*
X26447218Y15537533D01*
X26457446Y15515909D01*
X26465504Y15493387D01*
X26471316Y15470183D01*
X26474826Y15446522D01*
X26476000Y15422630D01*
X26476000Y14935130D01*
X26474826Y14911238D01*
X26471316Y14887577D01*
X26465504Y14864373D01*
X26457446Y14841851D01*
X26447218Y14820227D01*
X26434921Y14799710D01*
X26420671Y14780497D01*
X26404607Y14762773D01*
X26386883Y14746709D01*
X26367670Y14732459D01*
X26347153Y14720162D01*
X26325529Y14709934D01*
X26303007Y14701876D01*
X26279803Y14696064D01*
X26256142Y14692554D01*
X26232250Y14691380D01*
X25319750Y14691380D01*
X25295858Y14692554D01*
X25272197Y14696064D01*
X25248993Y14701876D01*
X25226471Y14709934D01*
X25204847Y14720162D01*
X25184330Y14732459D01*
X25165117Y14746709D01*
X25147393Y14762773D01*
X25131329Y14780497D01*
X25117079Y14799710D01*
X25104782Y14820227D01*
X25094554Y14841851D01*
X25086496Y14864373D01*
X25080684Y14887577D01*
X25077174Y14911238D01*
X25076000Y14935130D01*
X25076000Y15422630D01*
X25077174Y15446522D01*
X25080684Y15470183D01*
X25086496Y15493387D01*
X25094554Y15515909D01*
X25104782Y15537533D01*
X25117079Y15558050D01*
X25131329Y15577263D01*
X25147393Y15594987D01*
X25165117Y15611051D01*
X25184330Y15625301D01*
X25204847Y15637598D01*
X25226471Y15647826D01*
X25248993Y15655884D01*
X25272197Y15661696D01*
X25295858Y15665206D01*
X25319750Y15666380D01*
X26232250Y15666380D01*
X26256142Y15665206D01*
X26256142Y15665206D01*
G37*
D11*
X25776000Y15178880D03*
G04 #@! TD*
D10*
G04 #@! TO.C,C2*
G36*
X20005142Y15665206D02*
X20028803Y15661696D01*
X20052007Y15655884D01*
X20074529Y15647826D01*
X20096153Y15637598D01*
X20116670Y15625301D01*
X20135883Y15611051D01*
X20153607Y15594987D01*
X20169671Y15577263D01*
X20183921Y15558050D01*
X20196218Y15537533D01*
X20206446Y15515909D01*
X20214504Y15493387D01*
X20220316Y15470183D01*
X20223826Y15446522D01*
X20225000Y15422630D01*
X20225000Y14935130D01*
X20223826Y14911238D01*
X20220316Y14887577D01*
X20214504Y14864373D01*
X20206446Y14841851D01*
X20196218Y14820227D01*
X20183921Y14799710D01*
X20169671Y14780497D01*
X20153607Y14762773D01*
X20135883Y14746709D01*
X20116670Y14732459D01*
X20096153Y14720162D01*
X20074529Y14709934D01*
X20052007Y14701876D01*
X20028803Y14696064D01*
X20005142Y14692554D01*
X19981250Y14691380D01*
X19068750Y14691380D01*
X19044858Y14692554D01*
X19021197Y14696064D01*
X18997993Y14701876D01*
X18975471Y14709934D01*
X18953847Y14720162D01*
X18933330Y14732459D01*
X18914117Y14746709D01*
X18896393Y14762773D01*
X18880329Y14780497D01*
X18866079Y14799710D01*
X18853782Y14820227D01*
X18843554Y14841851D01*
X18835496Y14864373D01*
X18829684Y14887577D01*
X18826174Y14911238D01*
X18825000Y14935130D01*
X18825000Y15422630D01*
X18826174Y15446522D01*
X18829684Y15470183D01*
X18835496Y15493387D01*
X18843554Y15515909D01*
X18853782Y15537533D01*
X18866079Y15558050D01*
X18880329Y15577263D01*
X18896393Y15594987D01*
X18914117Y15611051D01*
X18933330Y15625301D01*
X18953847Y15637598D01*
X18975471Y15647826D01*
X18997993Y15655884D01*
X19021197Y15661696D01*
X19044858Y15665206D01*
X19068750Y15666380D01*
X19981250Y15666380D01*
X20005142Y15665206D01*
X20005142Y15665206D01*
G37*
D11*
X19525000Y15178880D03*
D10*
G36*
X20005142Y13790206D02*
X20028803Y13786696D01*
X20052007Y13780884D01*
X20074529Y13772826D01*
X20096153Y13762598D01*
X20116670Y13750301D01*
X20135883Y13736051D01*
X20153607Y13719987D01*
X20169671Y13702263D01*
X20183921Y13683050D01*
X20196218Y13662533D01*
X20206446Y13640909D01*
X20214504Y13618387D01*
X20220316Y13595183D01*
X20223826Y13571522D01*
X20225000Y13547630D01*
X20225000Y13060130D01*
X20223826Y13036238D01*
X20220316Y13012577D01*
X20214504Y12989373D01*
X20206446Y12966851D01*
X20196218Y12945227D01*
X20183921Y12924710D01*
X20169671Y12905497D01*
X20153607Y12887773D01*
X20135883Y12871709D01*
X20116670Y12857459D01*
X20096153Y12845162D01*
X20074529Y12834934D01*
X20052007Y12826876D01*
X20028803Y12821064D01*
X20005142Y12817554D01*
X19981250Y12816380D01*
X19068750Y12816380D01*
X19044858Y12817554D01*
X19021197Y12821064D01*
X18997993Y12826876D01*
X18975471Y12834934D01*
X18953847Y12845162D01*
X18933330Y12857459D01*
X18914117Y12871709D01*
X18896393Y12887773D01*
X18880329Y12905497D01*
X18866079Y12924710D01*
X18853782Y12945227D01*
X18843554Y12966851D01*
X18835496Y12989373D01*
X18829684Y13012577D01*
X18826174Y13036238D01*
X18825000Y13060130D01*
X18825000Y13547630D01*
X18826174Y13571522D01*
X18829684Y13595183D01*
X18835496Y13618387D01*
X18843554Y13640909D01*
X18853782Y13662533D01*
X18866079Y13683050D01*
X18880329Y13702263D01*
X18896393Y13719987D01*
X18914117Y13736051D01*
X18933330Y13750301D01*
X18953847Y13762598D01*
X18975471Y13772826D01*
X18997993Y13780884D01*
X19021197Y13786696D01*
X19044858Y13790206D01*
X19068750Y13791380D01*
X19981250Y13791380D01*
X20005142Y13790206D01*
X20005142Y13790206D01*
G37*
D11*
X19525000Y13303880D03*
G04 #@! TD*
D10*
G04 #@! TO.C,C3*
G36*
X18055142Y13790206D02*
X18078803Y13786696D01*
X18102007Y13780884D01*
X18124529Y13772826D01*
X18146153Y13762598D01*
X18166670Y13750301D01*
X18185883Y13736051D01*
X18203607Y13719987D01*
X18219671Y13702263D01*
X18233921Y13683050D01*
X18246218Y13662533D01*
X18256446Y13640909D01*
X18264504Y13618387D01*
X18270316Y13595183D01*
X18273826Y13571522D01*
X18275000Y13547630D01*
X18275000Y13060130D01*
X18273826Y13036238D01*
X18270316Y13012577D01*
X18264504Y12989373D01*
X18256446Y12966851D01*
X18246218Y12945227D01*
X18233921Y12924710D01*
X18219671Y12905497D01*
X18203607Y12887773D01*
X18185883Y12871709D01*
X18166670Y12857459D01*
X18146153Y12845162D01*
X18124529Y12834934D01*
X18102007Y12826876D01*
X18078803Y12821064D01*
X18055142Y12817554D01*
X18031250Y12816380D01*
X17118750Y12816380D01*
X17094858Y12817554D01*
X17071197Y12821064D01*
X17047993Y12826876D01*
X17025471Y12834934D01*
X17003847Y12845162D01*
X16983330Y12857459D01*
X16964117Y12871709D01*
X16946393Y12887773D01*
X16930329Y12905497D01*
X16916079Y12924710D01*
X16903782Y12945227D01*
X16893554Y12966851D01*
X16885496Y12989373D01*
X16879684Y13012577D01*
X16876174Y13036238D01*
X16875000Y13060130D01*
X16875000Y13547630D01*
X16876174Y13571522D01*
X16879684Y13595183D01*
X16885496Y13618387D01*
X16893554Y13640909D01*
X16903782Y13662533D01*
X16916079Y13683050D01*
X16930329Y13702263D01*
X16946393Y13719987D01*
X16964117Y13736051D01*
X16983330Y13750301D01*
X17003847Y13762598D01*
X17025471Y13772826D01*
X17047993Y13780884D01*
X17071197Y13786696D01*
X17094858Y13790206D01*
X17118750Y13791380D01*
X18031250Y13791380D01*
X18055142Y13790206D01*
X18055142Y13790206D01*
G37*
D11*
X17575000Y13303880D03*
D10*
G36*
X18055142Y15665206D02*
X18078803Y15661696D01*
X18102007Y15655884D01*
X18124529Y15647826D01*
X18146153Y15637598D01*
X18166670Y15625301D01*
X18185883Y15611051D01*
X18203607Y15594987D01*
X18219671Y15577263D01*
X18233921Y15558050D01*
X18246218Y15537533D01*
X18256446Y15515909D01*
X18264504Y15493387D01*
X18270316Y15470183D01*
X18273826Y15446522D01*
X18275000Y15422630D01*
X18275000Y14935130D01*
X18273826Y14911238D01*
X18270316Y14887577D01*
X18264504Y14864373D01*
X18256446Y14841851D01*
X18246218Y14820227D01*
X18233921Y14799710D01*
X18219671Y14780497D01*
X18203607Y14762773D01*
X18185883Y14746709D01*
X18166670Y14732459D01*
X18146153Y14720162D01*
X18124529Y14709934D01*
X18102007Y14701876D01*
X18078803Y14696064D01*
X18055142Y14692554D01*
X18031250Y14691380D01*
X17118750Y14691380D01*
X17094858Y14692554D01*
X17071197Y14696064D01*
X17047993Y14701876D01*
X17025471Y14709934D01*
X17003847Y14720162D01*
X16983330Y14732459D01*
X16964117Y14746709D01*
X16946393Y14762773D01*
X16930329Y14780497D01*
X16916079Y14799710D01*
X16903782Y14820227D01*
X16893554Y14841851D01*
X16885496Y14864373D01*
X16879684Y14887577D01*
X16876174Y14911238D01*
X16875000Y14935130D01*
X16875000Y15422630D01*
X16876174Y15446522D01*
X16879684Y15470183D01*
X16885496Y15493387D01*
X16893554Y15515909D01*
X16903782Y15537533D01*
X16916079Y15558050D01*
X16930329Y15577263D01*
X16946393Y15594987D01*
X16964117Y15611051D01*
X16983330Y15625301D01*
X17003847Y15637598D01*
X17025471Y15647826D01*
X17047993Y15655884D01*
X17071197Y15661696D01*
X17094858Y15665206D01*
X17118750Y15666380D01*
X18031250Y15666380D01*
X18055142Y15665206D01*
X18055142Y15665206D01*
G37*
D11*
X17575000Y15178880D03*
G04 #@! TD*
D10*
G04 #@! TO.C,C4*
G36*
X28206142Y13790206D02*
X28229803Y13786696D01*
X28253007Y13780884D01*
X28275529Y13772826D01*
X28297153Y13762598D01*
X28317670Y13750301D01*
X28336883Y13736051D01*
X28354607Y13719987D01*
X28370671Y13702263D01*
X28384921Y13683050D01*
X28397218Y13662533D01*
X28407446Y13640909D01*
X28415504Y13618387D01*
X28421316Y13595183D01*
X28424826Y13571522D01*
X28426000Y13547630D01*
X28426000Y13060130D01*
X28424826Y13036238D01*
X28421316Y13012577D01*
X28415504Y12989373D01*
X28407446Y12966851D01*
X28397218Y12945227D01*
X28384921Y12924710D01*
X28370671Y12905497D01*
X28354607Y12887773D01*
X28336883Y12871709D01*
X28317670Y12857459D01*
X28297153Y12845162D01*
X28275529Y12834934D01*
X28253007Y12826876D01*
X28229803Y12821064D01*
X28206142Y12817554D01*
X28182250Y12816380D01*
X27269750Y12816380D01*
X27245858Y12817554D01*
X27222197Y12821064D01*
X27198993Y12826876D01*
X27176471Y12834934D01*
X27154847Y12845162D01*
X27134330Y12857459D01*
X27115117Y12871709D01*
X27097393Y12887773D01*
X27081329Y12905497D01*
X27067079Y12924710D01*
X27054782Y12945227D01*
X27044554Y12966851D01*
X27036496Y12989373D01*
X27030684Y13012577D01*
X27027174Y13036238D01*
X27026000Y13060130D01*
X27026000Y13547630D01*
X27027174Y13571522D01*
X27030684Y13595183D01*
X27036496Y13618387D01*
X27044554Y13640909D01*
X27054782Y13662533D01*
X27067079Y13683050D01*
X27081329Y13702263D01*
X27097393Y13719987D01*
X27115117Y13736051D01*
X27134330Y13750301D01*
X27154847Y13762598D01*
X27176471Y13772826D01*
X27198993Y13780884D01*
X27222197Y13786696D01*
X27245858Y13790206D01*
X27269750Y13791380D01*
X28182250Y13791380D01*
X28206142Y13790206D01*
X28206142Y13790206D01*
G37*
D11*
X27726000Y13303880D03*
D10*
G36*
X28206142Y15665206D02*
X28229803Y15661696D01*
X28253007Y15655884D01*
X28275529Y15647826D01*
X28297153Y15637598D01*
X28317670Y15625301D01*
X28336883Y15611051D01*
X28354607Y15594987D01*
X28370671Y15577263D01*
X28384921Y15558050D01*
X28397218Y15537533D01*
X28407446Y15515909D01*
X28415504Y15493387D01*
X28421316Y15470183D01*
X28424826Y15446522D01*
X28426000Y15422630D01*
X28426000Y14935130D01*
X28424826Y14911238D01*
X28421316Y14887577D01*
X28415504Y14864373D01*
X28407446Y14841851D01*
X28397218Y14820227D01*
X28384921Y14799710D01*
X28370671Y14780497D01*
X28354607Y14762773D01*
X28336883Y14746709D01*
X28317670Y14732459D01*
X28297153Y14720162D01*
X28275529Y14709934D01*
X28253007Y14701876D01*
X28229803Y14696064D01*
X28206142Y14692554D01*
X28182250Y14691380D01*
X27269750Y14691380D01*
X27245858Y14692554D01*
X27222197Y14696064D01*
X27198993Y14701876D01*
X27176471Y14709934D01*
X27154847Y14720162D01*
X27134330Y14732459D01*
X27115117Y14746709D01*
X27097393Y14762773D01*
X27081329Y14780497D01*
X27067079Y14799710D01*
X27054782Y14820227D01*
X27044554Y14841851D01*
X27036496Y14864373D01*
X27030684Y14887577D01*
X27027174Y14911238D01*
X27026000Y14935130D01*
X27026000Y15422630D01*
X27027174Y15446522D01*
X27030684Y15470183D01*
X27036496Y15493387D01*
X27044554Y15515909D01*
X27054782Y15537533D01*
X27067079Y15558050D01*
X27081329Y15577263D01*
X27097393Y15594987D01*
X27115117Y15611051D01*
X27134330Y15625301D01*
X27154847Y15637598D01*
X27176471Y15647826D01*
X27198993Y15655884D01*
X27222197Y15661696D01*
X27245858Y15665206D01*
X27269750Y15666380D01*
X28182250Y15666380D01*
X28206142Y15665206D01*
X28206142Y15665206D01*
G37*
D11*
X27726000Y15178880D03*
G04 #@! TD*
D10*
G04 #@! TO.C,C5*
G36*
X34830142Y12698826D02*
X34853803Y12695316D01*
X34877007Y12689504D01*
X34899529Y12681446D01*
X34921153Y12671218D01*
X34941670Y12658921D01*
X34960883Y12644671D01*
X34978607Y12628607D01*
X34994671Y12610883D01*
X35008921Y12591670D01*
X35021218Y12571153D01*
X35031446Y12549529D01*
X35039504Y12527007D01*
X35045316Y12503803D01*
X35048826Y12480142D01*
X35050000Y12456250D01*
X35050000Y11543750D01*
X35048826Y11519858D01*
X35045316Y11496197D01*
X35039504Y11472993D01*
X35031446Y11450471D01*
X35021218Y11428847D01*
X35008921Y11408330D01*
X34994671Y11389117D01*
X34978607Y11371393D01*
X34960883Y11355329D01*
X34941670Y11341079D01*
X34921153Y11328782D01*
X34899529Y11318554D01*
X34877007Y11310496D01*
X34853803Y11304684D01*
X34830142Y11301174D01*
X34806250Y11300000D01*
X34318750Y11300000D01*
X34294858Y11301174D01*
X34271197Y11304684D01*
X34247993Y11310496D01*
X34225471Y11318554D01*
X34203847Y11328782D01*
X34183330Y11341079D01*
X34164117Y11355329D01*
X34146393Y11371393D01*
X34130329Y11389117D01*
X34116079Y11408330D01*
X34103782Y11428847D01*
X34093554Y11450471D01*
X34085496Y11472993D01*
X34079684Y11496197D01*
X34076174Y11519858D01*
X34075000Y11543750D01*
X34075000Y12456250D01*
X34076174Y12480142D01*
X34079684Y12503803D01*
X34085496Y12527007D01*
X34093554Y12549529D01*
X34103782Y12571153D01*
X34116079Y12591670D01*
X34130329Y12610883D01*
X34146393Y12628607D01*
X34164117Y12644671D01*
X34183330Y12658921D01*
X34203847Y12671218D01*
X34225471Y12681446D01*
X34247993Y12689504D01*
X34271197Y12695316D01*
X34294858Y12698826D01*
X34318750Y12700000D01*
X34806250Y12700000D01*
X34830142Y12698826D01*
X34830142Y12698826D01*
G37*
D11*
X34562500Y12000000D03*
D10*
G36*
X36705142Y12698826D02*
X36728803Y12695316D01*
X36752007Y12689504D01*
X36774529Y12681446D01*
X36796153Y12671218D01*
X36816670Y12658921D01*
X36835883Y12644671D01*
X36853607Y12628607D01*
X36869671Y12610883D01*
X36883921Y12591670D01*
X36896218Y12571153D01*
X36906446Y12549529D01*
X36914504Y12527007D01*
X36920316Y12503803D01*
X36923826Y12480142D01*
X36925000Y12456250D01*
X36925000Y11543750D01*
X36923826Y11519858D01*
X36920316Y11496197D01*
X36914504Y11472993D01*
X36906446Y11450471D01*
X36896218Y11428847D01*
X36883921Y11408330D01*
X36869671Y11389117D01*
X36853607Y11371393D01*
X36835883Y11355329D01*
X36816670Y11341079D01*
X36796153Y11328782D01*
X36774529Y11318554D01*
X36752007Y11310496D01*
X36728803Y11304684D01*
X36705142Y11301174D01*
X36681250Y11300000D01*
X36193750Y11300000D01*
X36169858Y11301174D01*
X36146197Y11304684D01*
X36122993Y11310496D01*
X36100471Y11318554D01*
X36078847Y11328782D01*
X36058330Y11341079D01*
X36039117Y11355329D01*
X36021393Y11371393D01*
X36005329Y11389117D01*
X35991079Y11408330D01*
X35978782Y11428847D01*
X35968554Y11450471D01*
X35960496Y11472993D01*
X35954684Y11496197D01*
X35951174Y11519858D01*
X35950000Y11543750D01*
X35950000Y12456250D01*
X35951174Y12480142D01*
X35954684Y12503803D01*
X35960496Y12527007D01*
X35968554Y12549529D01*
X35978782Y12571153D01*
X35991079Y12591670D01*
X36005329Y12610883D01*
X36021393Y12628607D01*
X36039117Y12644671D01*
X36058330Y12658921D01*
X36078847Y12671218D01*
X36100471Y12681446D01*
X36122993Y12689504D01*
X36146197Y12695316D01*
X36169858Y12698826D01*
X36193750Y12700000D01*
X36681250Y12700000D01*
X36705142Y12698826D01*
X36705142Y12698826D01*
G37*
D11*
X36437500Y12000000D03*
G04 #@! TD*
D10*
G04 #@! TO.C,C6*
G36*
X18349642Y5705826D02*
X18373303Y5702316D01*
X18396507Y5696504D01*
X18419029Y5688446D01*
X18440653Y5678218D01*
X18461170Y5665921D01*
X18480383Y5651671D01*
X18498107Y5635607D01*
X18514171Y5617883D01*
X18528421Y5598670D01*
X18540718Y5578153D01*
X18550946Y5556529D01*
X18559004Y5534007D01*
X18564816Y5510803D01*
X18568326Y5487142D01*
X18569500Y5463250D01*
X18569500Y4550750D01*
X18568326Y4526858D01*
X18564816Y4503197D01*
X18559004Y4479993D01*
X18550946Y4457471D01*
X18540718Y4435847D01*
X18528421Y4415330D01*
X18514171Y4396117D01*
X18498107Y4378393D01*
X18480383Y4362329D01*
X18461170Y4348079D01*
X18440653Y4335782D01*
X18419029Y4325554D01*
X18396507Y4317496D01*
X18373303Y4311684D01*
X18349642Y4308174D01*
X18325750Y4307000D01*
X17838250Y4307000D01*
X17814358Y4308174D01*
X17790697Y4311684D01*
X17767493Y4317496D01*
X17744971Y4325554D01*
X17723347Y4335782D01*
X17702830Y4348079D01*
X17683617Y4362329D01*
X17665893Y4378393D01*
X17649829Y4396117D01*
X17635579Y4415330D01*
X17623282Y4435847D01*
X17613054Y4457471D01*
X17604996Y4479993D01*
X17599184Y4503197D01*
X17595674Y4526858D01*
X17594500Y4550750D01*
X17594500Y5463250D01*
X17595674Y5487142D01*
X17599184Y5510803D01*
X17604996Y5534007D01*
X17613054Y5556529D01*
X17623282Y5578153D01*
X17635579Y5598670D01*
X17649829Y5617883D01*
X17665893Y5635607D01*
X17683617Y5651671D01*
X17702830Y5665921D01*
X17723347Y5678218D01*
X17744971Y5688446D01*
X17767493Y5696504D01*
X17790697Y5702316D01*
X17814358Y5705826D01*
X17838250Y5707000D01*
X18325750Y5707000D01*
X18349642Y5705826D01*
X18349642Y5705826D01*
G37*
D11*
X18082000Y5007000D03*
D10*
G36*
X16474642Y5705826D02*
X16498303Y5702316D01*
X16521507Y5696504D01*
X16544029Y5688446D01*
X16565653Y5678218D01*
X16586170Y5665921D01*
X16605383Y5651671D01*
X16623107Y5635607D01*
X16639171Y5617883D01*
X16653421Y5598670D01*
X16665718Y5578153D01*
X16675946Y5556529D01*
X16684004Y5534007D01*
X16689816Y5510803D01*
X16693326Y5487142D01*
X16694500Y5463250D01*
X16694500Y4550750D01*
X16693326Y4526858D01*
X16689816Y4503197D01*
X16684004Y4479993D01*
X16675946Y4457471D01*
X16665718Y4435847D01*
X16653421Y4415330D01*
X16639171Y4396117D01*
X16623107Y4378393D01*
X16605383Y4362329D01*
X16586170Y4348079D01*
X16565653Y4335782D01*
X16544029Y4325554D01*
X16521507Y4317496D01*
X16498303Y4311684D01*
X16474642Y4308174D01*
X16450750Y4307000D01*
X15963250Y4307000D01*
X15939358Y4308174D01*
X15915697Y4311684D01*
X15892493Y4317496D01*
X15869971Y4325554D01*
X15848347Y4335782D01*
X15827830Y4348079D01*
X15808617Y4362329D01*
X15790893Y4378393D01*
X15774829Y4396117D01*
X15760579Y4415330D01*
X15748282Y4435847D01*
X15738054Y4457471D01*
X15729996Y4479993D01*
X15724184Y4503197D01*
X15720674Y4526858D01*
X15719500Y4550750D01*
X15719500Y5463250D01*
X15720674Y5487142D01*
X15724184Y5510803D01*
X15729996Y5534007D01*
X15738054Y5556529D01*
X15748282Y5578153D01*
X15760579Y5598670D01*
X15774829Y5617883D01*
X15790893Y5635607D01*
X15808617Y5651671D01*
X15827830Y5665921D01*
X15848347Y5678218D01*
X15869971Y5688446D01*
X15892493Y5696504D01*
X15915697Y5702316D01*
X15939358Y5705826D01*
X15963250Y5707000D01*
X16450750Y5707000D01*
X16474642Y5705826D01*
X16474642Y5705826D01*
G37*
D11*
X16207000Y5007000D03*
G04 #@! TD*
D10*
G04 #@! TO.C,C7*
G36*
X10730142Y12498826D02*
X10753803Y12495316D01*
X10777007Y12489504D01*
X10799529Y12481446D01*
X10821153Y12471218D01*
X10841670Y12458921D01*
X10860883Y12444671D01*
X10878607Y12428607D01*
X10894671Y12410883D01*
X10908921Y12391670D01*
X10921218Y12371153D01*
X10931446Y12349529D01*
X10939504Y12327007D01*
X10945316Y12303803D01*
X10948826Y12280142D01*
X10950000Y12256250D01*
X10950000Y11343750D01*
X10948826Y11319858D01*
X10945316Y11296197D01*
X10939504Y11272993D01*
X10931446Y11250471D01*
X10921218Y11228847D01*
X10908921Y11208330D01*
X10894671Y11189117D01*
X10878607Y11171393D01*
X10860883Y11155329D01*
X10841670Y11141079D01*
X10821153Y11128782D01*
X10799529Y11118554D01*
X10777007Y11110496D01*
X10753803Y11104684D01*
X10730142Y11101174D01*
X10706250Y11100000D01*
X10218750Y11100000D01*
X10194858Y11101174D01*
X10171197Y11104684D01*
X10147993Y11110496D01*
X10125471Y11118554D01*
X10103847Y11128782D01*
X10083330Y11141079D01*
X10064117Y11155329D01*
X10046393Y11171393D01*
X10030329Y11189117D01*
X10016079Y11208330D01*
X10003782Y11228847D01*
X9993554Y11250471D01*
X9985496Y11272993D01*
X9979684Y11296197D01*
X9976174Y11319858D01*
X9975000Y11343750D01*
X9975000Y12256250D01*
X9976174Y12280142D01*
X9979684Y12303803D01*
X9985496Y12327007D01*
X9993554Y12349529D01*
X10003782Y12371153D01*
X10016079Y12391670D01*
X10030329Y12410883D01*
X10046393Y12428607D01*
X10064117Y12444671D01*
X10083330Y12458921D01*
X10103847Y12471218D01*
X10125471Y12481446D01*
X10147993Y12489504D01*
X10171197Y12495316D01*
X10194858Y12498826D01*
X10218750Y12500000D01*
X10706250Y12500000D01*
X10730142Y12498826D01*
X10730142Y12498826D01*
G37*
D11*
X10462500Y11800000D03*
D10*
G36*
X12605142Y12498826D02*
X12628803Y12495316D01*
X12652007Y12489504D01*
X12674529Y12481446D01*
X12696153Y12471218D01*
X12716670Y12458921D01*
X12735883Y12444671D01*
X12753607Y12428607D01*
X12769671Y12410883D01*
X12783921Y12391670D01*
X12796218Y12371153D01*
X12806446Y12349529D01*
X12814504Y12327007D01*
X12820316Y12303803D01*
X12823826Y12280142D01*
X12825000Y12256250D01*
X12825000Y11343750D01*
X12823826Y11319858D01*
X12820316Y11296197D01*
X12814504Y11272993D01*
X12806446Y11250471D01*
X12796218Y11228847D01*
X12783921Y11208330D01*
X12769671Y11189117D01*
X12753607Y11171393D01*
X12735883Y11155329D01*
X12716670Y11141079D01*
X12696153Y11128782D01*
X12674529Y11118554D01*
X12652007Y11110496D01*
X12628803Y11104684D01*
X12605142Y11101174D01*
X12581250Y11100000D01*
X12093750Y11100000D01*
X12069858Y11101174D01*
X12046197Y11104684D01*
X12022993Y11110496D01*
X12000471Y11118554D01*
X11978847Y11128782D01*
X11958330Y11141079D01*
X11939117Y11155329D01*
X11921393Y11171393D01*
X11905329Y11189117D01*
X11891079Y11208330D01*
X11878782Y11228847D01*
X11868554Y11250471D01*
X11860496Y11272993D01*
X11854684Y11296197D01*
X11851174Y11319858D01*
X11850000Y11343750D01*
X11850000Y12256250D01*
X11851174Y12280142D01*
X11854684Y12303803D01*
X11860496Y12327007D01*
X11868554Y12349529D01*
X11878782Y12371153D01*
X11891079Y12391670D01*
X11905329Y12410883D01*
X11921393Y12428607D01*
X11939117Y12444671D01*
X11958330Y12458921D01*
X11978847Y12471218D01*
X12000471Y12481446D01*
X12022993Y12489504D01*
X12046197Y12495316D01*
X12069858Y12498826D01*
X12093750Y12500000D01*
X12581250Y12500000D01*
X12605142Y12498826D01*
X12605142Y12498826D01*
G37*
D11*
X12337500Y11800000D03*
G04 #@! TD*
D16*
G04 #@! TO.C,D1*
X13200000Y15075000D03*
X10400000Y15075000D03*
G04 #@! TD*
D10*
G04 #@! TO.C,R1*
G36*
X34835845Y14190206D02*
X34859506Y14186696D01*
X34882710Y14180884D01*
X34905232Y14172826D01*
X34926856Y14162598D01*
X34947373Y14150301D01*
X34966586Y14136051D01*
X34984310Y14119987D01*
X35000374Y14102263D01*
X35014624Y14083050D01*
X35026921Y14062533D01*
X35037149Y14040909D01*
X35045207Y14018387D01*
X35051019Y13995183D01*
X35054529Y13971522D01*
X35055703Y13947630D01*
X35055703Y13460130D01*
X35054529Y13436238D01*
X35051019Y13412577D01*
X35045207Y13389373D01*
X35037149Y13366851D01*
X35026921Y13345227D01*
X35014624Y13324710D01*
X35000374Y13305497D01*
X34984310Y13287773D01*
X34966586Y13271709D01*
X34947373Y13257459D01*
X34926856Y13245162D01*
X34905232Y13234934D01*
X34882710Y13226876D01*
X34859506Y13221064D01*
X34835845Y13217554D01*
X34811953Y13216380D01*
X33899453Y13216380D01*
X33875561Y13217554D01*
X33851900Y13221064D01*
X33828696Y13226876D01*
X33806174Y13234934D01*
X33784550Y13245162D01*
X33764033Y13257459D01*
X33744820Y13271709D01*
X33727096Y13287773D01*
X33711032Y13305497D01*
X33696782Y13324710D01*
X33684485Y13345227D01*
X33674257Y13366851D01*
X33666199Y13389373D01*
X33660387Y13412577D01*
X33656877Y13436238D01*
X33655703Y13460130D01*
X33655703Y13947630D01*
X33656877Y13971522D01*
X33660387Y13995183D01*
X33666199Y14018387D01*
X33674257Y14040909D01*
X33684485Y14062533D01*
X33696782Y14083050D01*
X33711032Y14102263D01*
X33727096Y14119987D01*
X33744820Y14136051D01*
X33764033Y14150301D01*
X33784550Y14162598D01*
X33806174Y14172826D01*
X33828696Y14180884D01*
X33851900Y14186696D01*
X33875561Y14190206D01*
X33899453Y14191380D01*
X34811953Y14191380D01*
X34835845Y14190206D01*
X34835845Y14190206D01*
G37*
D11*
X34355703Y13703880D03*
D10*
G36*
X34835845Y16065206D02*
X34859506Y16061696D01*
X34882710Y16055884D01*
X34905232Y16047826D01*
X34926856Y16037598D01*
X34947373Y16025301D01*
X34966586Y16011051D01*
X34984310Y15994987D01*
X35000374Y15977263D01*
X35014624Y15958050D01*
X35026921Y15937533D01*
X35037149Y15915909D01*
X35045207Y15893387D01*
X35051019Y15870183D01*
X35054529Y15846522D01*
X35055703Y15822630D01*
X35055703Y15335130D01*
X35054529Y15311238D01*
X35051019Y15287577D01*
X35045207Y15264373D01*
X35037149Y15241851D01*
X35026921Y15220227D01*
X35014624Y15199710D01*
X35000374Y15180497D01*
X34984310Y15162773D01*
X34966586Y15146709D01*
X34947373Y15132459D01*
X34926856Y15120162D01*
X34905232Y15109934D01*
X34882710Y15101876D01*
X34859506Y15096064D01*
X34835845Y15092554D01*
X34811953Y15091380D01*
X33899453Y15091380D01*
X33875561Y15092554D01*
X33851900Y15096064D01*
X33828696Y15101876D01*
X33806174Y15109934D01*
X33784550Y15120162D01*
X33764033Y15132459D01*
X33744820Y15146709D01*
X33727096Y15162773D01*
X33711032Y15180497D01*
X33696782Y15199710D01*
X33684485Y15220227D01*
X33674257Y15241851D01*
X33666199Y15264373D01*
X33660387Y15287577D01*
X33656877Y15311238D01*
X33655703Y15335130D01*
X33655703Y15822630D01*
X33656877Y15846522D01*
X33660387Y15870183D01*
X33666199Y15893387D01*
X33674257Y15915909D01*
X33684485Y15937533D01*
X33696782Y15958050D01*
X33711032Y15977263D01*
X33727096Y15994987D01*
X33744820Y16011051D01*
X33764033Y16025301D01*
X33784550Y16037598D01*
X33806174Y16047826D01*
X33828696Y16055884D01*
X33851900Y16061696D01*
X33875561Y16065206D01*
X33899453Y16066380D01*
X34811953Y16066380D01*
X34835845Y16065206D01*
X34835845Y16065206D01*
G37*
D11*
X34355703Y15578880D03*
G04 #@! TD*
D10*
G04 #@! TO.C,R2*
G36*
X32835845Y14190206D02*
X32859506Y14186696D01*
X32882710Y14180884D01*
X32905232Y14172826D01*
X32926856Y14162598D01*
X32947373Y14150301D01*
X32966586Y14136051D01*
X32984310Y14119987D01*
X33000374Y14102263D01*
X33014624Y14083050D01*
X33026921Y14062533D01*
X33037149Y14040909D01*
X33045207Y14018387D01*
X33051019Y13995183D01*
X33054529Y13971522D01*
X33055703Y13947630D01*
X33055703Y13460130D01*
X33054529Y13436238D01*
X33051019Y13412577D01*
X33045207Y13389373D01*
X33037149Y13366851D01*
X33026921Y13345227D01*
X33014624Y13324710D01*
X33000374Y13305497D01*
X32984310Y13287773D01*
X32966586Y13271709D01*
X32947373Y13257459D01*
X32926856Y13245162D01*
X32905232Y13234934D01*
X32882710Y13226876D01*
X32859506Y13221064D01*
X32835845Y13217554D01*
X32811953Y13216380D01*
X31899453Y13216380D01*
X31875561Y13217554D01*
X31851900Y13221064D01*
X31828696Y13226876D01*
X31806174Y13234934D01*
X31784550Y13245162D01*
X31764033Y13257459D01*
X31744820Y13271709D01*
X31727096Y13287773D01*
X31711032Y13305497D01*
X31696782Y13324710D01*
X31684485Y13345227D01*
X31674257Y13366851D01*
X31666199Y13389373D01*
X31660387Y13412577D01*
X31656877Y13436238D01*
X31655703Y13460130D01*
X31655703Y13947630D01*
X31656877Y13971522D01*
X31660387Y13995183D01*
X31666199Y14018387D01*
X31674257Y14040909D01*
X31684485Y14062533D01*
X31696782Y14083050D01*
X31711032Y14102263D01*
X31727096Y14119987D01*
X31744820Y14136051D01*
X31764033Y14150301D01*
X31784550Y14162598D01*
X31806174Y14172826D01*
X31828696Y14180884D01*
X31851900Y14186696D01*
X31875561Y14190206D01*
X31899453Y14191380D01*
X32811953Y14191380D01*
X32835845Y14190206D01*
X32835845Y14190206D01*
G37*
D11*
X32355703Y13703880D03*
D10*
G36*
X32835845Y16065206D02*
X32859506Y16061696D01*
X32882710Y16055884D01*
X32905232Y16047826D01*
X32926856Y16037598D01*
X32947373Y16025301D01*
X32966586Y16011051D01*
X32984310Y15994987D01*
X33000374Y15977263D01*
X33014624Y15958050D01*
X33026921Y15937533D01*
X33037149Y15915909D01*
X33045207Y15893387D01*
X33051019Y15870183D01*
X33054529Y15846522D01*
X33055703Y15822630D01*
X33055703Y15335130D01*
X33054529Y15311238D01*
X33051019Y15287577D01*
X33045207Y15264373D01*
X33037149Y15241851D01*
X33026921Y15220227D01*
X33014624Y15199710D01*
X33000374Y15180497D01*
X32984310Y15162773D01*
X32966586Y15146709D01*
X32947373Y15132459D01*
X32926856Y15120162D01*
X32905232Y15109934D01*
X32882710Y15101876D01*
X32859506Y15096064D01*
X32835845Y15092554D01*
X32811953Y15091380D01*
X31899453Y15091380D01*
X31875561Y15092554D01*
X31851900Y15096064D01*
X31828696Y15101876D01*
X31806174Y15109934D01*
X31784550Y15120162D01*
X31764033Y15132459D01*
X31744820Y15146709D01*
X31727096Y15162773D01*
X31711032Y15180497D01*
X31696782Y15199710D01*
X31684485Y15220227D01*
X31674257Y15241851D01*
X31666199Y15264373D01*
X31660387Y15287577D01*
X31656877Y15311238D01*
X31655703Y15335130D01*
X31655703Y15822630D01*
X31656877Y15846522D01*
X31660387Y15870183D01*
X31666199Y15893387D01*
X31674257Y15915909D01*
X31684485Y15937533D01*
X31696782Y15958050D01*
X31711032Y15977263D01*
X31727096Y15994987D01*
X31744820Y16011051D01*
X31764033Y16025301D01*
X31784550Y16037598D01*
X31806174Y16047826D01*
X31828696Y16055884D01*
X31851900Y16061696D01*
X31875561Y16065206D01*
X31899453Y16066380D01*
X32811953Y16066380D01*
X32835845Y16065206D01*
X32835845Y16065206D01*
G37*
D11*
X32355703Y15578880D03*
G04 #@! TD*
D10*
G04 #@! TO.C,R3*
G36*
X36835845Y14190206D02*
X36859506Y14186696D01*
X36882710Y14180884D01*
X36905232Y14172826D01*
X36926856Y14162598D01*
X36947373Y14150301D01*
X36966586Y14136051D01*
X36984310Y14119987D01*
X37000374Y14102263D01*
X37014624Y14083050D01*
X37026921Y14062533D01*
X37037149Y14040909D01*
X37045207Y14018387D01*
X37051019Y13995183D01*
X37054529Y13971522D01*
X37055703Y13947630D01*
X37055703Y13460130D01*
X37054529Y13436238D01*
X37051019Y13412577D01*
X37045207Y13389373D01*
X37037149Y13366851D01*
X37026921Y13345227D01*
X37014624Y13324710D01*
X37000374Y13305497D01*
X36984310Y13287773D01*
X36966586Y13271709D01*
X36947373Y13257459D01*
X36926856Y13245162D01*
X36905232Y13234934D01*
X36882710Y13226876D01*
X36859506Y13221064D01*
X36835845Y13217554D01*
X36811953Y13216380D01*
X35899453Y13216380D01*
X35875561Y13217554D01*
X35851900Y13221064D01*
X35828696Y13226876D01*
X35806174Y13234934D01*
X35784550Y13245162D01*
X35764033Y13257459D01*
X35744820Y13271709D01*
X35727096Y13287773D01*
X35711032Y13305497D01*
X35696782Y13324710D01*
X35684485Y13345227D01*
X35674257Y13366851D01*
X35666199Y13389373D01*
X35660387Y13412577D01*
X35656877Y13436238D01*
X35655703Y13460130D01*
X35655703Y13947630D01*
X35656877Y13971522D01*
X35660387Y13995183D01*
X35666199Y14018387D01*
X35674257Y14040909D01*
X35684485Y14062533D01*
X35696782Y14083050D01*
X35711032Y14102263D01*
X35727096Y14119987D01*
X35744820Y14136051D01*
X35764033Y14150301D01*
X35784550Y14162598D01*
X35806174Y14172826D01*
X35828696Y14180884D01*
X35851900Y14186696D01*
X35875561Y14190206D01*
X35899453Y14191380D01*
X36811953Y14191380D01*
X36835845Y14190206D01*
X36835845Y14190206D01*
G37*
D11*
X36355703Y13703880D03*
D10*
G36*
X36835845Y16065206D02*
X36859506Y16061696D01*
X36882710Y16055884D01*
X36905232Y16047826D01*
X36926856Y16037598D01*
X36947373Y16025301D01*
X36966586Y16011051D01*
X36984310Y15994987D01*
X37000374Y15977263D01*
X37014624Y15958050D01*
X37026921Y15937533D01*
X37037149Y15915909D01*
X37045207Y15893387D01*
X37051019Y15870183D01*
X37054529Y15846522D01*
X37055703Y15822630D01*
X37055703Y15335130D01*
X37054529Y15311238D01*
X37051019Y15287577D01*
X37045207Y15264373D01*
X37037149Y15241851D01*
X37026921Y15220227D01*
X37014624Y15199710D01*
X37000374Y15180497D01*
X36984310Y15162773D01*
X36966586Y15146709D01*
X36947373Y15132459D01*
X36926856Y15120162D01*
X36905232Y15109934D01*
X36882710Y15101876D01*
X36859506Y15096064D01*
X36835845Y15092554D01*
X36811953Y15091380D01*
X35899453Y15091380D01*
X35875561Y15092554D01*
X35851900Y15096064D01*
X35828696Y15101876D01*
X35806174Y15109934D01*
X35784550Y15120162D01*
X35764033Y15132459D01*
X35744820Y15146709D01*
X35727096Y15162773D01*
X35711032Y15180497D01*
X35696782Y15199710D01*
X35684485Y15220227D01*
X35674257Y15241851D01*
X35666199Y15264373D01*
X35660387Y15287577D01*
X35656877Y15311238D01*
X35655703Y15335130D01*
X35655703Y15822630D01*
X35656877Y15846522D01*
X35660387Y15870183D01*
X35666199Y15893387D01*
X35674257Y15915909D01*
X35684485Y15937533D01*
X35696782Y15958050D01*
X35711032Y15977263D01*
X35727096Y15994987D01*
X35744820Y16011051D01*
X35764033Y16025301D01*
X35784550Y16037598D01*
X35806174Y16047826D01*
X35828696Y16055884D01*
X35851900Y16061696D01*
X35875561Y16065206D01*
X35899453Y16066380D01*
X36811953Y16066380D01*
X36835845Y16065206D01*
X36835845Y16065206D01*
G37*
D11*
X36355703Y15578880D03*
G04 #@! TD*
D10*
G04 #@! TO.C,R4*
G36*
X23780142Y6240206D02*
X23803803Y6236696D01*
X23827007Y6230884D01*
X23849529Y6222826D01*
X23871153Y6212598D01*
X23891670Y6200301D01*
X23910883Y6186051D01*
X23928607Y6169987D01*
X23944671Y6152263D01*
X23958921Y6133050D01*
X23971218Y6112533D01*
X23981446Y6090909D01*
X23989504Y6068387D01*
X23995316Y6045183D01*
X23998826Y6021522D01*
X24000000Y5997630D01*
X24000000Y5085130D01*
X23998826Y5061238D01*
X23995316Y5037577D01*
X23989504Y5014373D01*
X23981446Y4991851D01*
X23971218Y4970227D01*
X23958921Y4949710D01*
X23944671Y4930497D01*
X23928607Y4912773D01*
X23910883Y4896709D01*
X23891670Y4882459D01*
X23871153Y4870162D01*
X23849529Y4859934D01*
X23827007Y4851876D01*
X23803803Y4846064D01*
X23780142Y4842554D01*
X23756250Y4841380D01*
X23268750Y4841380D01*
X23244858Y4842554D01*
X23221197Y4846064D01*
X23197993Y4851876D01*
X23175471Y4859934D01*
X23153847Y4870162D01*
X23133330Y4882459D01*
X23114117Y4896709D01*
X23096393Y4912773D01*
X23080329Y4930497D01*
X23066079Y4949710D01*
X23053782Y4970227D01*
X23043554Y4991851D01*
X23035496Y5014373D01*
X23029684Y5037577D01*
X23026174Y5061238D01*
X23025000Y5085130D01*
X23025000Y5997630D01*
X23026174Y6021522D01*
X23029684Y6045183D01*
X23035496Y6068387D01*
X23043554Y6090909D01*
X23053782Y6112533D01*
X23066079Y6133050D01*
X23080329Y6152263D01*
X23096393Y6169987D01*
X23114117Y6186051D01*
X23133330Y6200301D01*
X23153847Y6212598D01*
X23175471Y6222826D01*
X23197993Y6230884D01*
X23221197Y6236696D01*
X23244858Y6240206D01*
X23268750Y6241380D01*
X23756250Y6241380D01*
X23780142Y6240206D01*
X23780142Y6240206D01*
G37*
D11*
X23512500Y5541380D03*
D10*
G36*
X25655142Y6240206D02*
X25678803Y6236696D01*
X25702007Y6230884D01*
X25724529Y6222826D01*
X25746153Y6212598D01*
X25766670Y6200301D01*
X25785883Y6186051D01*
X25803607Y6169987D01*
X25819671Y6152263D01*
X25833921Y6133050D01*
X25846218Y6112533D01*
X25856446Y6090909D01*
X25864504Y6068387D01*
X25870316Y6045183D01*
X25873826Y6021522D01*
X25875000Y5997630D01*
X25875000Y5085130D01*
X25873826Y5061238D01*
X25870316Y5037577D01*
X25864504Y5014373D01*
X25856446Y4991851D01*
X25846218Y4970227D01*
X25833921Y4949710D01*
X25819671Y4930497D01*
X25803607Y4912773D01*
X25785883Y4896709D01*
X25766670Y4882459D01*
X25746153Y4870162D01*
X25724529Y4859934D01*
X25702007Y4851876D01*
X25678803Y4846064D01*
X25655142Y4842554D01*
X25631250Y4841380D01*
X25143750Y4841380D01*
X25119858Y4842554D01*
X25096197Y4846064D01*
X25072993Y4851876D01*
X25050471Y4859934D01*
X25028847Y4870162D01*
X25008330Y4882459D01*
X24989117Y4896709D01*
X24971393Y4912773D01*
X24955329Y4930497D01*
X24941079Y4949710D01*
X24928782Y4970227D01*
X24918554Y4991851D01*
X24910496Y5014373D01*
X24904684Y5037577D01*
X24901174Y5061238D01*
X24900000Y5085130D01*
X24900000Y5997630D01*
X24901174Y6021522D01*
X24904684Y6045183D01*
X24910496Y6068387D01*
X24918554Y6090909D01*
X24928782Y6112533D01*
X24941079Y6133050D01*
X24955329Y6152263D01*
X24971393Y6169987D01*
X24989117Y6186051D01*
X25008330Y6200301D01*
X25028847Y6212598D01*
X25050471Y6222826D01*
X25072993Y6230884D01*
X25096197Y6236696D01*
X25119858Y6240206D01*
X25143750Y6241380D01*
X25631250Y6241380D01*
X25655142Y6240206D01*
X25655142Y6240206D01*
G37*
D11*
X25387500Y5541380D03*
G04 #@! TD*
D10*
G04 #@! TO.C,R5*
G36*
X30580142Y11198826D02*
X30603803Y11195316D01*
X30627007Y11189504D01*
X30649529Y11181446D01*
X30671153Y11171218D01*
X30691670Y11158921D01*
X30710883Y11144671D01*
X30728607Y11128607D01*
X30744671Y11110883D01*
X30758921Y11091670D01*
X30771218Y11071153D01*
X30781446Y11049529D01*
X30789504Y11027007D01*
X30795316Y11003803D01*
X30798826Y10980142D01*
X30800000Y10956250D01*
X30800000Y10043750D01*
X30798826Y10019858D01*
X30795316Y9996197D01*
X30789504Y9972993D01*
X30781446Y9950471D01*
X30771218Y9928847D01*
X30758921Y9908330D01*
X30744671Y9889117D01*
X30728607Y9871393D01*
X30710883Y9855329D01*
X30691670Y9841079D01*
X30671153Y9828782D01*
X30649529Y9818554D01*
X30627007Y9810496D01*
X30603803Y9804684D01*
X30580142Y9801174D01*
X30556250Y9800000D01*
X30068750Y9800000D01*
X30044858Y9801174D01*
X30021197Y9804684D01*
X29997993Y9810496D01*
X29975471Y9818554D01*
X29953847Y9828782D01*
X29933330Y9841079D01*
X29914117Y9855329D01*
X29896393Y9871393D01*
X29880329Y9889117D01*
X29866079Y9908330D01*
X29853782Y9928847D01*
X29843554Y9950471D01*
X29835496Y9972993D01*
X29829684Y9996197D01*
X29826174Y10019858D01*
X29825000Y10043750D01*
X29825000Y10956250D01*
X29826174Y10980142D01*
X29829684Y11003803D01*
X29835496Y11027007D01*
X29843554Y11049529D01*
X29853782Y11071153D01*
X29866079Y11091670D01*
X29880329Y11110883D01*
X29896393Y11128607D01*
X29914117Y11144671D01*
X29933330Y11158921D01*
X29953847Y11171218D01*
X29975471Y11181446D01*
X29997993Y11189504D01*
X30021197Y11195316D01*
X30044858Y11198826D01*
X30068750Y11200000D01*
X30556250Y11200000D01*
X30580142Y11198826D01*
X30580142Y11198826D01*
G37*
D11*
X30312500Y10500000D03*
D10*
G36*
X32455142Y11198826D02*
X32478803Y11195316D01*
X32502007Y11189504D01*
X32524529Y11181446D01*
X32546153Y11171218D01*
X32566670Y11158921D01*
X32585883Y11144671D01*
X32603607Y11128607D01*
X32619671Y11110883D01*
X32633921Y11091670D01*
X32646218Y11071153D01*
X32656446Y11049529D01*
X32664504Y11027007D01*
X32670316Y11003803D01*
X32673826Y10980142D01*
X32675000Y10956250D01*
X32675000Y10043750D01*
X32673826Y10019858D01*
X32670316Y9996197D01*
X32664504Y9972993D01*
X32656446Y9950471D01*
X32646218Y9928847D01*
X32633921Y9908330D01*
X32619671Y9889117D01*
X32603607Y9871393D01*
X32585883Y9855329D01*
X32566670Y9841079D01*
X32546153Y9828782D01*
X32524529Y9818554D01*
X32502007Y9810496D01*
X32478803Y9804684D01*
X32455142Y9801174D01*
X32431250Y9800000D01*
X31943750Y9800000D01*
X31919858Y9801174D01*
X31896197Y9804684D01*
X31872993Y9810496D01*
X31850471Y9818554D01*
X31828847Y9828782D01*
X31808330Y9841079D01*
X31789117Y9855329D01*
X31771393Y9871393D01*
X31755329Y9889117D01*
X31741079Y9908330D01*
X31728782Y9928847D01*
X31718554Y9950471D01*
X31710496Y9972993D01*
X31704684Y9996197D01*
X31701174Y10019858D01*
X31700000Y10043750D01*
X31700000Y10956250D01*
X31701174Y10980142D01*
X31704684Y11003803D01*
X31710496Y11027007D01*
X31718554Y11049529D01*
X31728782Y11071153D01*
X31741079Y11091670D01*
X31755329Y11110883D01*
X31771393Y11128607D01*
X31789117Y11144671D01*
X31808330Y11158921D01*
X31828847Y11171218D01*
X31850471Y11181446D01*
X31872993Y11189504D01*
X31896197Y11195316D01*
X31919858Y11198826D01*
X31943750Y11200000D01*
X32431250Y11200000D01*
X32455142Y11198826D01*
X32455142Y11198826D01*
G37*
D11*
X32187500Y10500000D03*
G04 #@! TD*
D10*
G04 #@! TO.C,R6*
G36*
X32455142Y9240206D02*
X32478803Y9236696D01*
X32502007Y9230884D01*
X32524529Y9222826D01*
X32546153Y9212598D01*
X32566670Y9200301D01*
X32585883Y9186051D01*
X32603607Y9169987D01*
X32619671Y9152263D01*
X32633921Y9133050D01*
X32646218Y9112533D01*
X32656446Y9090909D01*
X32664504Y9068387D01*
X32670316Y9045183D01*
X32673826Y9021522D01*
X32675000Y8997630D01*
X32675000Y8085130D01*
X32673826Y8061238D01*
X32670316Y8037577D01*
X32664504Y8014373D01*
X32656446Y7991851D01*
X32646218Y7970227D01*
X32633921Y7949710D01*
X32619671Y7930497D01*
X32603607Y7912773D01*
X32585883Y7896709D01*
X32566670Y7882459D01*
X32546153Y7870162D01*
X32524529Y7859934D01*
X32502007Y7851876D01*
X32478803Y7846064D01*
X32455142Y7842554D01*
X32431250Y7841380D01*
X31943750Y7841380D01*
X31919858Y7842554D01*
X31896197Y7846064D01*
X31872993Y7851876D01*
X31850471Y7859934D01*
X31828847Y7870162D01*
X31808330Y7882459D01*
X31789117Y7896709D01*
X31771393Y7912773D01*
X31755329Y7930497D01*
X31741079Y7949710D01*
X31728782Y7970227D01*
X31718554Y7991851D01*
X31710496Y8014373D01*
X31704684Y8037577D01*
X31701174Y8061238D01*
X31700000Y8085130D01*
X31700000Y8997630D01*
X31701174Y9021522D01*
X31704684Y9045183D01*
X31710496Y9068387D01*
X31718554Y9090909D01*
X31728782Y9112533D01*
X31741079Y9133050D01*
X31755329Y9152263D01*
X31771393Y9169987D01*
X31789117Y9186051D01*
X31808330Y9200301D01*
X31828847Y9212598D01*
X31850471Y9222826D01*
X31872993Y9230884D01*
X31896197Y9236696D01*
X31919858Y9240206D01*
X31943750Y9241380D01*
X32431250Y9241380D01*
X32455142Y9240206D01*
X32455142Y9240206D01*
G37*
D11*
X32187500Y8541380D03*
D10*
G36*
X30580142Y9240206D02*
X30603803Y9236696D01*
X30627007Y9230884D01*
X30649529Y9222826D01*
X30671153Y9212598D01*
X30691670Y9200301D01*
X30710883Y9186051D01*
X30728607Y9169987D01*
X30744671Y9152263D01*
X30758921Y9133050D01*
X30771218Y9112533D01*
X30781446Y9090909D01*
X30789504Y9068387D01*
X30795316Y9045183D01*
X30798826Y9021522D01*
X30800000Y8997630D01*
X30800000Y8085130D01*
X30798826Y8061238D01*
X30795316Y8037577D01*
X30789504Y8014373D01*
X30781446Y7991851D01*
X30771218Y7970227D01*
X30758921Y7949710D01*
X30744671Y7930497D01*
X30728607Y7912773D01*
X30710883Y7896709D01*
X30691670Y7882459D01*
X30671153Y7870162D01*
X30649529Y7859934D01*
X30627007Y7851876D01*
X30603803Y7846064D01*
X30580142Y7842554D01*
X30556250Y7841380D01*
X30068750Y7841380D01*
X30044858Y7842554D01*
X30021197Y7846064D01*
X29997993Y7851876D01*
X29975471Y7859934D01*
X29953847Y7870162D01*
X29933330Y7882459D01*
X29914117Y7896709D01*
X29896393Y7912773D01*
X29880329Y7930497D01*
X29866079Y7949710D01*
X29853782Y7970227D01*
X29843554Y7991851D01*
X29835496Y8014373D01*
X29829684Y8037577D01*
X29826174Y8061238D01*
X29825000Y8085130D01*
X29825000Y8997630D01*
X29826174Y9021522D01*
X29829684Y9045183D01*
X29835496Y9068387D01*
X29843554Y9090909D01*
X29853782Y9112533D01*
X29866079Y9133050D01*
X29880329Y9152263D01*
X29896393Y9169987D01*
X29914117Y9186051D01*
X29933330Y9200301D01*
X29953847Y9212598D01*
X29975471Y9222826D01*
X29997993Y9230884D01*
X30021197Y9236696D01*
X30044858Y9240206D01*
X30068750Y9241380D01*
X30556250Y9241380D01*
X30580142Y9240206D01*
X30580142Y9240206D01*
G37*
D11*
X30312500Y8541380D03*
G04 #@! TD*
D10*
G04 #@! TO.C,R7*
G36*
X30580142Y7240206D02*
X30603803Y7236696D01*
X30627007Y7230884D01*
X30649529Y7222826D01*
X30671153Y7212598D01*
X30691670Y7200301D01*
X30710883Y7186051D01*
X30728607Y7169987D01*
X30744671Y7152263D01*
X30758921Y7133050D01*
X30771218Y7112533D01*
X30781446Y7090909D01*
X30789504Y7068387D01*
X30795316Y7045183D01*
X30798826Y7021522D01*
X30800000Y6997630D01*
X30800000Y6085130D01*
X30798826Y6061238D01*
X30795316Y6037577D01*
X30789504Y6014373D01*
X30781446Y5991851D01*
X30771218Y5970227D01*
X30758921Y5949710D01*
X30744671Y5930497D01*
X30728607Y5912773D01*
X30710883Y5896709D01*
X30691670Y5882459D01*
X30671153Y5870162D01*
X30649529Y5859934D01*
X30627007Y5851876D01*
X30603803Y5846064D01*
X30580142Y5842554D01*
X30556250Y5841380D01*
X30068750Y5841380D01*
X30044858Y5842554D01*
X30021197Y5846064D01*
X29997993Y5851876D01*
X29975471Y5859934D01*
X29953847Y5870162D01*
X29933330Y5882459D01*
X29914117Y5896709D01*
X29896393Y5912773D01*
X29880329Y5930497D01*
X29866079Y5949710D01*
X29853782Y5970227D01*
X29843554Y5991851D01*
X29835496Y6014373D01*
X29829684Y6037577D01*
X29826174Y6061238D01*
X29825000Y6085130D01*
X29825000Y6997630D01*
X29826174Y7021522D01*
X29829684Y7045183D01*
X29835496Y7068387D01*
X29843554Y7090909D01*
X29853782Y7112533D01*
X29866079Y7133050D01*
X29880329Y7152263D01*
X29896393Y7169987D01*
X29914117Y7186051D01*
X29933330Y7200301D01*
X29953847Y7212598D01*
X29975471Y7222826D01*
X29997993Y7230884D01*
X30021197Y7236696D01*
X30044858Y7240206D01*
X30068750Y7241380D01*
X30556250Y7241380D01*
X30580142Y7240206D01*
X30580142Y7240206D01*
G37*
D11*
X30312500Y6541380D03*
D10*
G36*
X32455142Y7240206D02*
X32478803Y7236696D01*
X32502007Y7230884D01*
X32524529Y7222826D01*
X32546153Y7212598D01*
X32566670Y7200301D01*
X32585883Y7186051D01*
X32603607Y7169987D01*
X32619671Y7152263D01*
X32633921Y7133050D01*
X32646218Y7112533D01*
X32656446Y7090909D01*
X32664504Y7068387D01*
X32670316Y7045183D01*
X32673826Y7021522D01*
X32675000Y6997630D01*
X32675000Y6085130D01*
X32673826Y6061238D01*
X32670316Y6037577D01*
X32664504Y6014373D01*
X32656446Y5991851D01*
X32646218Y5970227D01*
X32633921Y5949710D01*
X32619671Y5930497D01*
X32603607Y5912773D01*
X32585883Y5896709D01*
X32566670Y5882459D01*
X32546153Y5870162D01*
X32524529Y5859934D01*
X32502007Y5851876D01*
X32478803Y5846064D01*
X32455142Y5842554D01*
X32431250Y5841380D01*
X31943750Y5841380D01*
X31919858Y5842554D01*
X31896197Y5846064D01*
X31872993Y5851876D01*
X31850471Y5859934D01*
X31828847Y5870162D01*
X31808330Y5882459D01*
X31789117Y5896709D01*
X31771393Y5912773D01*
X31755329Y5930497D01*
X31741079Y5949710D01*
X31728782Y5970227D01*
X31718554Y5991851D01*
X31710496Y6014373D01*
X31704684Y6037577D01*
X31701174Y6061238D01*
X31700000Y6085130D01*
X31700000Y6997630D01*
X31701174Y7021522D01*
X31704684Y7045183D01*
X31710496Y7068387D01*
X31718554Y7090909D01*
X31728782Y7112533D01*
X31741079Y7133050D01*
X31755329Y7152263D01*
X31771393Y7169987D01*
X31789117Y7186051D01*
X31808330Y7200301D01*
X31828847Y7212598D01*
X31850471Y7222826D01*
X31872993Y7230884D01*
X31896197Y7236696D01*
X31919858Y7240206D01*
X31943750Y7241380D01*
X32431250Y7241380D01*
X32455142Y7240206D01*
X32455142Y7240206D01*
G37*
D11*
X32187500Y6541380D03*
G04 #@! TD*
D10*
G04 #@! TO.C,R8*
G36*
X23430142Y8548826D02*
X23453803Y8545316D01*
X23477007Y8539504D01*
X23499529Y8531446D01*
X23521153Y8521218D01*
X23541670Y8508921D01*
X23560883Y8494671D01*
X23578607Y8478607D01*
X23594671Y8460883D01*
X23608921Y8441670D01*
X23621218Y8421153D01*
X23631446Y8399529D01*
X23639504Y8377007D01*
X23645316Y8353803D01*
X23648826Y8330142D01*
X23650000Y8306250D01*
X23650000Y7818750D01*
X23648826Y7794858D01*
X23645316Y7771197D01*
X23639504Y7747993D01*
X23631446Y7725471D01*
X23621218Y7703847D01*
X23608921Y7683330D01*
X23594671Y7664117D01*
X23578607Y7646393D01*
X23560883Y7630329D01*
X23541670Y7616079D01*
X23521153Y7603782D01*
X23499529Y7593554D01*
X23477007Y7585496D01*
X23453803Y7579684D01*
X23430142Y7576174D01*
X23406250Y7575000D01*
X22493750Y7575000D01*
X22469858Y7576174D01*
X22446197Y7579684D01*
X22422993Y7585496D01*
X22400471Y7593554D01*
X22378847Y7603782D01*
X22358330Y7616079D01*
X22339117Y7630329D01*
X22321393Y7646393D01*
X22305329Y7664117D01*
X22291079Y7683330D01*
X22278782Y7703847D01*
X22268554Y7725471D01*
X22260496Y7747993D01*
X22254684Y7771197D01*
X22251174Y7794858D01*
X22250000Y7818750D01*
X22250000Y8306250D01*
X22251174Y8330142D01*
X22254684Y8353803D01*
X22260496Y8377007D01*
X22268554Y8399529D01*
X22278782Y8421153D01*
X22291079Y8441670D01*
X22305329Y8460883D01*
X22321393Y8478607D01*
X22339117Y8494671D01*
X22358330Y8508921D01*
X22378847Y8521218D01*
X22400471Y8531446D01*
X22422993Y8539504D01*
X22446197Y8545316D01*
X22469858Y8548826D01*
X22493750Y8550000D01*
X23406250Y8550000D01*
X23430142Y8548826D01*
X23430142Y8548826D01*
G37*
D11*
X22950000Y8062500D03*
D10*
G36*
X23430142Y10423826D02*
X23453803Y10420316D01*
X23477007Y10414504D01*
X23499529Y10406446D01*
X23521153Y10396218D01*
X23541670Y10383921D01*
X23560883Y10369671D01*
X23578607Y10353607D01*
X23594671Y10335883D01*
X23608921Y10316670D01*
X23621218Y10296153D01*
X23631446Y10274529D01*
X23639504Y10252007D01*
X23645316Y10228803D01*
X23648826Y10205142D01*
X23650000Y10181250D01*
X23650000Y9693750D01*
X23648826Y9669858D01*
X23645316Y9646197D01*
X23639504Y9622993D01*
X23631446Y9600471D01*
X23621218Y9578847D01*
X23608921Y9558330D01*
X23594671Y9539117D01*
X23578607Y9521393D01*
X23560883Y9505329D01*
X23541670Y9491079D01*
X23521153Y9478782D01*
X23499529Y9468554D01*
X23477007Y9460496D01*
X23453803Y9454684D01*
X23430142Y9451174D01*
X23406250Y9450000D01*
X22493750Y9450000D01*
X22469858Y9451174D01*
X22446197Y9454684D01*
X22422993Y9460496D01*
X22400471Y9468554D01*
X22378847Y9478782D01*
X22358330Y9491079D01*
X22339117Y9505329D01*
X22321393Y9521393D01*
X22305329Y9539117D01*
X22291079Y9558330D01*
X22278782Y9578847D01*
X22268554Y9600471D01*
X22260496Y9622993D01*
X22254684Y9646197D01*
X22251174Y9669858D01*
X22250000Y9693750D01*
X22250000Y10181250D01*
X22251174Y10205142D01*
X22254684Y10228803D01*
X22260496Y10252007D01*
X22268554Y10274529D01*
X22278782Y10296153D01*
X22291079Y10316670D01*
X22305329Y10335883D01*
X22321393Y10353607D01*
X22339117Y10369671D01*
X22358330Y10383921D01*
X22378847Y10396218D01*
X22400471Y10406446D01*
X22422993Y10414504D01*
X22446197Y10420316D01*
X22469858Y10423826D01*
X22493750Y10425000D01*
X23406250Y10425000D01*
X23430142Y10423826D01*
X23430142Y10423826D01*
G37*
D11*
X22950000Y9937500D03*
G04 #@! TD*
D17*
G04 #@! TO.C,U2*
X21654000Y13074000D03*
X21654000Y14974000D03*
X23654000Y14024000D03*
G04 #@! TD*
M02*
