G04 #@! TF.GenerationSoftware,KiCad,Pcbnew,5.0.2-bee76a0~70~ubuntu18.04.1*
G04 #@! TF.CreationDate,2020-03-17T19:10:12-04:00*
G04 #@! TF.ProjectId,ESP-AHT10-Extra,4553502d-4148-4543-9130-2d4578747261,1.6*
G04 #@! TF.SameCoordinates,PX7bfa480PY66c2270*
G04 #@! TF.FileFunction,Copper,L1,Top*
G04 #@! TF.FilePolarity,Positive*
%FSLAX46Y46*%
G04 Gerber Fmt 4.6, Leading zero omitted, Abs format (unit mm)*
G04 Created by KiCad (PCBNEW 5.0.2-bee76a0~70~ubuntu18.04.1) date Tue 17 Mar 2020 07:10:12 PM EDT*
%MOMM*%
%LPD*%
G01*
G04 APERTURE LIST*
G04 #@! TA.AperFunction,Conductor*
%ADD10C,0.050000*%
G04 #@! TD*
G04 #@! TA.AperFunction,SMDPad,CuDef*
%ADD11C,0.975000*%
G04 #@! TD*
G04 #@! TA.AperFunction,ComponentPad*
%ADD12R,1.100000X2.500000*%
G04 #@! TD*
G04 #@! TA.AperFunction,ComponentPad*
%ADD13O,1.100000X2.500000*%
G04 #@! TD*
G04 #@! TA.AperFunction,ComponentPad*
%ADD14O,1.600000X2.000000*%
G04 #@! TD*
G04 #@! TA.AperFunction,SMDPad,CuDef*
%ADD15R,1.600000X0.700000*%
G04 #@! TD*
G04 #@! TA.AperFunction,ViaPad*
%ADD16C,1.200000*%
G04 #@! TD*
G04 #@! TA.AperFunction,Conductor*
%ADD17C,0.300000*%
G04 #@! TD*
G04 #@! TA.AperFunction,Conductor*
%ADD18C,0.254000*%
G04 #@! TD*
G04 APERTURE END LIST*
D10*
G04 #@! TO.N,3V3*
G04 #@! TO.C,C8*
G36*
X16974642Y9889826D02*
X16998303Y9886316D01*
X17021507Y9880504D01*
X17044029Y9872446D01*
X17065653Y9862218D01*
X17086170Y9849921D01*
X17105383Y9835671D01*
X17123107Y9819607D01*
X17139171Y9801883D01*
X17153421Y9782670D01*
X17165718Y9762153D01*
X17175946Y9740529D01*
X17184004Y9718007D01*
X17189816Y9694803D01*
X17193326Y9671142D01*
X17194500Y9647250D01*
X17194500Y9159750D01*
X17193326Y9135858D01*
X17189816Y9112197D01*
X17184004Y9088993D01*
X17175946Y9066471D01*
X17165718Y9044847D01*
X17153421Y9024330D01*
X17139171Y9005117D01*
X17123107Y8987393D01*
X17105383Y8971329D01*
X17086170Y8957079D01*
X17065653Y8944782D01*
X17044029Y8934554D01*
X17021507Y8926496D01*
X16998303Y8920684D01*
X16974642Y8917174D01*
X16950750Y8916000D01*
X16038250Y8916000D01*
X16014358Y8917174D01*
X15990697Y8920684D01*
X15967493Y8926496D01*
X15944971Y8934554D01*
X15923347Y8944782D01*
X15902830Y8957079D01*
X15883617Y8971329D01*
X15865893Y8987393D01*
X15849829Y9005117D01*
X15835579Y9024330D01*
X15823282Y9044847D01*
X15813054Y9066471D01*
X15804996Y9088993D01*
X15799184Y9112197D01*
X15795674Y9135858D01*
X15794500Y9159750D01*
X15794500Y9647250D01*
X15795674Y9671142D01*
X15799184Y9694803D01*
X15804996Y9718007D01*
X15813054Y9740529D01*
X15823282Y9762153D01*
X15835579Y9782670D01*
X15849829Y9801883D01*
X15865893Y9819607D01*
X15883617Y9835671D01*
X15902830Y9849921D01*
X15923347Y9862218D01*
X15944971Y9872446D01*
X15967493Y9880504D01*
X15990697Y9886316D01*
X16014358Y9889826D01*
X16038250Y9891000D01*
X16950750Y9891000D01*
X16974642Y9889826D01*
X16974642Y9889826D01*
G37*
D11*
G04 #@! TD*
G04 #@! TO.P,C8,1*
G04 #@! TO.N,3V3*
X16494500Y9403500D03*
D10*
G04 #@! TO.N,GND*
G04 #@! TO.C,C8*
G36*
X16974642Y11764826D02*
X16998303Y11761316D01*
X17021507Y11755504D01*
X17044029Y11747446D01*
X17065653Y11737218D01*
X17086170Y11724921D01*
X17105383Y11710671D01*
X17123107Y11694607D01*
X17139171Y11676883D01*
X17153421Y11657670D01*
X17165718Y11637153D01*
X17175946Y11615529D01*
X17184004Y11593007D01*
X17189816Y11569803D01*
X17193326Y11546142D01*
X17194500Y11522250D01*
X17194500Y11034750D01*
X17193326Y11010858D01*
X17189816Y10987197D01*
X17184004Y10963993D01*
X17175946Y10941471D01*
X17165718Y10919847D01*
X17153421Y10899330D01*
X17139171Y10880117D01*
X17123107Y10862393D01*
X17105383Y10846329D01*
X17086170Y10832079D01*
X17065653Y10819782D01*
X17044029Y10809554D01*
X17021507Y10801496D01*
X16998303Y10795684D01*
X16974642Y10792174D01*
X16950750Y10791000D01*
X16038250Y10791000D01*
X16014358Y10792174D01*
X15990697Y10795684D01*
X15967493Y10801496D01*
X15944971Y10809554D01*
X15923347Y10819782D01*
X15902830Y10832079D01*
X15883617Y10846329D01*
X15865893Y10862393D01*
X15849829Y10880117D01*
X15835579Y10899330D01*
X15823282Y10919847D01*
X15813054Y10941471D01*
X15804996Y10963993D01*
X15799184Y10987197D01*
X15795674Y11010858D01*
X15794500Y11034750D01*
X15794500Y11522250D01*
X15795674Y11546142D01*
X15799184Y11569803D01*
X15804996Y11593007D01*
X15813054Y11615529D01*
X15823282Y11637153D01*
X15835579Y11657670D01*
X15849829Y11676883D01*
X15865893Y11694607D01*
X15883617Y11710671D01*
X15902830Y11724921D01*
X15923347Y11737218D01*
X15944971Y11747446D01*
X15967493Y11755504D01*
X15990697Y11761316D01*
X16014358Y11764826D01*
X16038250Y11766000D01*
X16950750Y11766000D01*
X16974642Y11764826D01*
X16974642Y11764826D01*
G37*
D11*
G04 #@! TD*
G04 #@! TO.P,C8,2*
G04 #@! TO.N,GND*
X16494500Y11278500D03*
D12*
G04 #@! TO.P,U3,1*
G04 #@! TO.N,Net-(R2-Pad1)*
X36209217Y18137626D03*
D13*
G04 #@! TO.P,U3,2*
G04 #@! TO.N,N/C*
X34209217Y18137626D03*
G04 #@! TO.P,U3,3*
G04 #@! TO.N,Net-(R1-Pad2)*
X32209217Y18137626D03*
G04 #@! TO.P,U3,4*
G04 #@! TO.N,Net-(R2-Pad2)*
X30209217Y18137626D03*
G04 #@! TO.P,U3,5*
G04 #@! TO.N,N/C*
X28209217Y18137626D03*
G04 #@! TO.P,U3,6*
X26209217Y18137626D03*
G04 #@! TO.P,U3,7*
X24209217Y18137626D03*
G04 #@! TO.P,U3,8*
G04 #@! TO.N,3V3*
X22209217Y18137626D03*
G04 #@! TO.P,U3,9*
G04 #@! TO.N,GND*
X22209217Y2737626D03*
G04 #@! TO.P,U3,10*
G04 #@! TO.N,Net-(R4-Pad1)*
X24209217Y2837626D03*
G04 #@! TO.P,U3,11*
G04 #@! TO.N,N/C*
X26209217Y2737626D03*
G04 #@! TO.P,U3,12*
G04 #@! TO.N,Net-(R5-Pad2)*
X28209217Y2737626D03*
G04 #@! TO.P,U3,13*
G04 #@! TO.N,SDA*
X30209217Y2737626D03*
G04 #@! TO.P,U3,14*
G04 #@! TO.N,SCL*
X32209217Y2737626D03*
G04 #@! TO.P,U3,15*
G04 #@! TO.N,eRX*
X34209217Y2737626D03*
G04 #@! TO.P,U3,16*
G04 #@! TO.N,eTX*
X36209217Y2737626D03*
G04 #@! TD*
D14*
G04 #@! TO.P,SW1,2*
G04 #@! TO.N,GND*
X13450000Y18500000D03*
G04 #@! TO.P,SW1,1*
G04 #@! TO.N,Net-(R2-Pad2)*
X20050000Y18500000D03*
G04 #@! TD*
G04 #@! TO.P,SW2,1*
G04 #@! TO.N,Net-(R5-Pad2)*
X13450000Y2250000D03*
G04 #@! TO.P,SW2,2*
G04 #@! TO.N,GND*
X20050000Y2250000D03*
G04 #@! TD*
D15*
G04 #@! TO.P,U6,2*
G04 #@! TO.N,3V3*
X14526000Y9706000D03*
G04 #@! TO.P,U6,1*
G04 #@! TO.N,SCL*
X14526000Y8436000D03*
G04 #@! TO.P,U6,3*
G04 #@! TO.N,GND*
X14526000Y10976000D03*
G04 #@! TO.P,U6,4*
G04 #@! TO.N,SDA*
X14526000Y12246000D03*
G04 #@! TD*
D16*
G04 #@! TO.N,3V3*
X29575500Y13516000D03*
G04 #@! TO.N,GND*
X37225000Y11950000D03*
X13700500Y16627500D03*
X26210000Y5261000D03*
X13573500Y5007000D03*
X18272500Y8753500D03*
X22400000Y11992000D03*
X29258000Y11103000D03*
X18590000Y12246000D03*
X12367000Y12563500D03*
G04 #@! TO.N,SDA*
X29893000Y4626000D03*
G04 #@! TO.N,SCL*
X31925000Y4753000D03*
G04 #@! TO.N,eRX*
X34050000Y5025000D03*
X24686000Y8944000D03*
G04 #@! TO.N,eTX*
X36239335Y5243178D03*
X24800000Y10650000D03*
G04 #@! TD*
D17*
G04 #@! TO.N,3V3*
X14526000Y9706000D02*
X16192000Y9706000D01*
X16192000Y9706000D02*
X16494500Y9403500D01*
X17335000Y9403500D02*
X16494500Y9403500D01*
X21511000Y13579500D02*
X17335000Y9403500D01*
X29575500Y13516000D02*
X29512000Y13579500D01*
X29512000Y13579500D02*
X21511000Y13579500D01*
G04 #@! TO.N,GND*
X16192000Y10976000D02*
X16494500Y11278500D01*
X14526000Y10976000D02*
X16192000Y10976000D01*
X29258000Y11103000D02*
X30105000Y11950000D01*
X30105000Y11950000D02*
X37225000Y11950000D01*
G04 #@! TO.N,SDA*
X13891000Y12246000D02*
X14526000Y12246000D01*
X29893000Y4626000D02*
X29893000Y5642000D01*
X14145000Y6531000D02*
X13065500Y7610500D01*
X13065500Y7610500D02*
X13065500Y11420500D01*
X29004000Y6531000D02*
X14145000Y6531000D01*
X29893000Y5642000D02*
X29004000Y6531000D01*
X13065500Y11420500D02*
X13891000Y12246000D01*
G04 #@! TO.N,SCL*
X15034000Y8436000D02*
X14526000Y8436000D01*
X15923000Y7547000D02*
X15034000Y8436000D01*
X30020000Y7547000D02*
X15923000Y7547000D01*
X31925000Y4753000D02*
X31925000Y5642000D01*
X31925000Y5642000D02*
X30020000Y7547000D01*
G04 #@! TO.N,eRX*
X34050000Y6438000D02*
X34050000Y5025000D01*
X31798000Y8690000D02*
X34050000Y6438000D01*
X24686000Y8944000D02*
X24940000Y8690000D01*
X24940000Y8690000D02*
X31798000Y8690000D01*
G04 #@! TO.N,eTX*
X36239335Y6217165D02*
X36239335Y5243178D01*
X32687000Y9769500D02*
X36239335Y6217165D01*
X25980500Y9769500D02*
X32687000Y9769500D01*
X24800000Y10650000D02*
X25100000Y10650000D01*
X25100000Y10650000D02*
X25980500Y9769500D01*
G04 #@! TD*
D18*
G04 #@! TO.N,GND*
G36*
X19015423Y19734576D02*
X18698260Y19259908D01*
X18615000Y18841332D01*
X18615000Y18158667D01*
X18698260Y17740091D01*
X19015424Y17265423D01*
X19490092Y16948260D01*
X20050000Y16836887D01*
X20609909Y16948260D01*
X21041042Y17236334D01*
X21092972Y16975263D01*
X21354880Y16583289D01*
X21746853Y16321381D01*
X22209217Y16229411D01*
X22671580Y16321381D01*
X23063554Y16583289D01*
X23209217Y16801289D01*
X23354880Y16583289D01*
X23746853Y16321381D01*
X24209217Y16229411D01*
X24671580Y16321381D01*
X25063554Y16583289D01*
X25209217Y16801289D01*
X25354880Y16583289D01*
X25746853Y16321381D01*
X26209217Y16229411D01*
X26671580Y16321381D01*
X27063554Y16583289D01*
X27209217Y16801289D01*
X27354880Y16583289D01*
X27746853Y16321381D01*
X28209217Y16229411D01*
X28671580Y16321381D01*
X29063554Y16583289D01*
X29209217Y16801289D01*
X29354880Y16583289D01*
X29746853Y16321381D01*
X30209217Y16229411D01*
X30671580Y16321381D01*
X31063554Y16583289D01*
X31209217Y16801289D01*
X31354880Y16583289D01*
X31746853Y16321381D01*
X32209217Y16229411D01*
X32671580Y16321381D01*
X33063554Y16583289D01*
X33209217Y16801289D01*
X33354880Y16583289D01*
X33746853Y16321381D01*
X34209217Y16229411D01*
X34671580Y16321381D01*
X35063554Y16583289D01*
X35081207Y16609709D01*
X35201408Y16429817D01*
X35411452Y16289469D01*
X35659217Y16240186D01*
X36759217Y16240186D01*
X37006982Y16289469D01*
X37217026Y16429817D01*
X37357374Y16639861D01*
X37406657Y16887626D01*
X37406657Y19387626D01*
X37381445Y19514379D01*
X37459549Y19379912D01*
X37537787Y19042369D01*
X37540000Y18986045D01*
X37540000Y11790430D01*
X32807156Y11821402D01*
X32757448Y11811623D01*
X32716311Y11783996D01*
X32688878Y11742729D01*
X32679325Y11694106D01*
X32681976Y10568879D01*
X32609688Y10554500D01*
X26305658Y10554500D01*
X26035000Y10825157D01*
X26035000Y10895657D01*
X25846982Y11349571D01*
X25499571Y11696982D01*
X25045657Y11885000D01*
X24554343Y11885000D01*
X24100429Y11696982D01*
X23753018Y11349571D01*
X23565000Y10895657D01*
X23565000Y10404343D01*
X23753018Y9950429D01*
X23849447Y9854000D01*
X23639018Y9643571D01*
X23451000Y9189657D01*
X23451000Y8698343D01*
X23602745Y8332000D01*
X17269684Y8332000D01*
X17291794Y8336398D01*
X17580916Y8529584D01*
X17694530Y8699619D01*
X17900953Y8837547D01*
X17944749Y8903092D01*
X21836158Y12794500D01*
X28550447Y12794500D01*
X28875929Y12469018D01*
X29329843Y12281000D01*
X29821157Y12281000D01*
X30275071Y12469018D01*
X30622482Y12816429D01*
X30810500Y13270343D01*
X30810500Y13761657D01*
X30622482Y14215571D01*
X30275071Y14562982D01*
X29821157Y14751000D01*
X29329843Y14751000D01*
X28875929Y14562982D01*
X28677447Y14364500D01*
X21588312Y14364500D01*
X21511000Y14379878D01*
X21433688Y14364500D01*
X21433684Y14364500D01*
X21204708Y14318954D01*
X21010591Y14189249D01*
X21010589Y14189247D01*
X20945047Y14145453D01*
X20901253Y14079911D01*
X17821796Y11000454D01*
X17670750Y11151500D01*
X16621500Y11151500D01*
X16621500Y11131500D01*
X16367500Y11131500D01*
X16367500Y11151500D01*
X16347500Y11151500D01*
X16347500Y11405500D01*
X16367500Y11405500D01*
X16367500Y12242250D01*
X16621500Y12242250D01*
X16621500Y11405500D01*
X17670750Y11405500D01*
X17829500Y11564250D01*
X17829500Y11892309D01*
X17732827Y12125698D01*
X17554199Y12304327D01*
X17320810Y12401000D01*
X16780250Y12401000D01*
X16621500Y12242250D01*
X16367500Y12242250D01*
X16208750Y12401000D01*
X15973440Y12401000D01*
X15973440Y12596000D01*
X15924157Y12843765D01*
X15783809Y13053809D01*
X15573765Y13194157D01*
X15326000Y13243440D01*
X13726000Y13243440D01*
X13478235Y13194157D01*
X13268191Y13053809D01*
X13127843Y12843765D01*
X13078560Y12596000D01*
X13078560Y12543718D01*
X12565090Y12030247D01*
X12499548Y11986453D01*
X12455754Y11920911D01*
X12455751Y11920908D01*
X12326046Y11726791D01*
X12265122Y11420500D01*
X12280501Y11343183D01*
X12280500Y7687812D01*
X12265122Y7610500D01*
X12280500Y7533188D01*
X12280500Y7533185D01*
X12326046Y7304209D01*
X12499547Y7044547D01*
X12565092Y7000751D01*
X13535251Y6030592D01*
X13579047Y5965047D01*
X13838708Y5791546D01*
X14067684Y5746000D01*
X14067688Y5746000D01*
X14145000Y5730622D01*
X14222312Y5746000D01*
X28678843Y5746000D01*
X28972645Y5452198D01*
X28846018Y5325571D01*
X28658000Y4871657D01*
X28658000Y4556572D01*
X28209217Y4645841D01*
X27746854Y4553871D01*
X27354881Y4291963D01*
X27209217Y4073963D01*
X27063554Y4291963D01*
X26671581Y4553871D01*
X26209217Y4645841D01*
X25746854Y4553871D01*
X25354881Y4291963D01*
X25242626Y4123962D01*
X25063554Y4391963D01*
X24671581Y4653871D01*
X24209217Y4745841D01*
X23746854Y4653871D01*
X23354881Y4391963D01*
X23168307Y4112737D01*
X22957335Y4365350D01*
X22545363Y4581024D01*
X22518961Y4581429D01*
X22336217Y4455987D01*
X22336217Y2864626D01*
X22356217Y2864626D01*
X22356217Y2610626D01*
X22336217Y2610626D01*
X22336217Y1019265D01*
X22518961Y893823D01*
X22545363Y894228D01*
X22957335Y1109902D01*
X23242547Y1451408D01*
X23354880Y1283289D01*
X23746853Y1021381D01*
X24209217Y929411D01*
X24671580Y1021381D01*
X25063554Y1283289D01*
X25175808Y1451289D01*
X25354880Y1183289D01*
X25746853Y921381D01*
X26209217Y829411D01*
X26671580Y921381D01*
X27063554Y1183289D01*
X27209217Y1401289D01*
X27354880Y1183289D01*
X27746853Y921381D01*
X28209217Y829411D01*
X28671580Y921381D01*
X29063554Y1183289D01*
X29209217Y1401289D01*
X29354880Y1183289D01*
X29746853Y921381D01*
X30209217Y829411D01*
X30671580Y921381D01*
X31063554Y1183289D01*
X31209217Y1401289D01*
X31354880Y1183289D01*
X31746853Y921381D01*
X32209217Y829411D01*
X32671580Y921381D01*
X33063554Y1183289D01*
X33209217Y1401289D01*
X33354880Y1183289D01*
X33746853Y921381D01*
X34209217Y829411D01*
X34671580Y921381D01*
X35063554Y1183289D01*
X35209217Y1401289D01*
X35354880Y1183289D01*
X35746853Y921381D01*
X36209217Y829411D01*
X36671580Y921381D01*
X37063554Y1183289D01*
X37325462Y1575262D01*
X37394217Y1920916D01*
X37394217Y3554336D01*
X37325462Y3899990D01*
X37063554Y4291963D01*
X37046241Y4303531D01*
X37286317Y4543607D01*
X37449124Y4936656D01*
X37540001Y4934419D01*
X37540001Y1803077D01*
X37486399Y1446546D01*
X37353564Y1169917D01*
X37145264Y944580D01*
X36879912Y790451D01*
X36542369Y712213D01*
X36486045Y710000D01*
X20535814Y710000D01*
X20954424Y929363D01*
X21283017Y1323133D01*
X21461099Y1109902D01*
X21873071Y894228D01*
X21899473Y893823D01*
X22082217Y1019265D01*
X22082217Y2610626D01*
X22062217Y2610626D01*
X22062217Y2864626D01*
X22082217Y2864626D01*
X22082217Y4455987D01*
X21899473Y4581429D01*
X21873071Y4581024D01*
X21461099Y4365350D01*
X21163021Y4008439D01*
X21024217Y3564626D01*
X21024217Y3487001D01*
X20954424Y3570637D01*
X20456730Y3831442D01*
X20399039Y3841904D01*
X20177000Y3719915D01*
X20177000Y2377000D01*
X20197000Y2377000D01*
X20197000Y2123000D01*
X20177000Y2123000D01*
X20177000Y2103000D01*
X19923000Y2103000D01*
X19923000Y2123000D01*
X18770529Y2123000D01*
X18618066Y1897114D01*
X18785572Y1360774D01*
X19145576Y929363D01*
X19564186Y710000D01*
X14053070Y710000D01*
X14032179Y713141D01*
X14484576Y1015423D01*
X14801740Y1490091D01*
X14885000Y1908667D01*
X14885000Y2591332D01*
X14882702Y2602886D01*
X18618066Y2602886D01*
X18770529Y2377000D01*
X19923000Y2377000D01*
X19923000Y3719915D01*
X19700961Y3841904D01*
X19643270Y3831442D01*
X19145576Y3570637D01*
X18785572Y3139226D01*
X18618066Y2602886D01*
X14882702Y2602886D01*
X14801740Y3009908D01*
X14484577Y3484577D01*
X14009909Y3801740D01*
X13450000Y3913113D01*
X12912985Y3806294D01*
X12870238Y4021196D01*
X12764223Y4277137D01*
X12764223Y4277138D01*
X12547451Y4601562D01*
X12351562Y4797450D01*
X12351561Y4797451D01*
X12027138Y5014224D01*
X11843368Y5090343D01*
X11771196Y5120238D01*
X11388513Y5196358D01*
X11388509Y5196358D01*
X11319926Y5210000D01*
X9627000Y5210000D01*
X9627000Y15540000D01*
X11319926Y15540000D01*
X11388509Y15553642D01*
X11388513Y15553642D01*
X11771196Y15629762D01*
X11846160Y15660813D01*
X12027138Y15735776D01*
X12351561Y15952549D01*
X12371984Y15972972D01*
X12547451Y16148438D01*
X12764223Y16472862D01*
X12833396Y16639861D01*
X12870238Y16728804D01*
X12920753Y16982760D01*
X13043270Y16918558D01*
X13100961Y16908096D01*
X13323000Y17030085D01*
X13323000Y18373000D01*
X13577000Y18373000D01*
X13577000Y17030085D01*
X13799039Y16908096D01*
X13856730Y16918558D01*
X14354424Y17179363D01*
X14714428Y17610774D01*
X14881934Y18147114D01*
X14729471Y18373000D01*
X13577000Y18373000D01*
X13323000Y18373000D01*
X13303000Y18373000D01*
X13303000Y18627000D01*
X13323000Y18627000D01*
X13323000Y18647000D01*
X13577000Y18647000D01*
X13577000Y18627000D01*
X14729471Y18627000D01*
X14881934Y18852886D01*
X14714428Y19389226D01*
X14354424Y19820637D01*
X13945433Y20034959D01*
X13957631Y20037787D01*
X14013955Y20040000D01*
X19472521Y20040000D01*
X19015423Y19734576D01*
X19015423Y19734576D01*
G37*
X19015423Y19734576D02*
X18698260Y19259908D01*
X18615000Y18841332D01*
X18615000Y18158667D01*
X18698260Y17740091D01*
X19015424Y17265423D01*
X19490092Y16948260D01*
X20050000Y16836887D01*
X20609909Y16948260D01*
X21041042Y17236334D01*
X21092972Y16975263D01*
X21354880Y16583289D01*
X21746853Y16321381D01*
X22209217Y16229411D01*
X22671580Y16321381D01*
X23063554Y16583289D01*
X23209217Y16801289D01*
X23354880Y16583289D01*
X23746853Y16321381D01*
X24209217Y16229411D01*
X24671580Y16321381D01*
X25063554Y16583289D01*
X25209217Y16801289D01*
X25354880Y16583289D01*
X25746853Y16321381D01*
X26209217Y16229411D01*
X26671580Y16321381D01*
X27063554Y16583289D01*
X27209217Y16801289D01*
X27354880Y16583289D01*
X27746853Y16321381D01*
X28209217Y16229411D01*
X28671580Y16321381D01*
X29063554Y16583289D01*
X29209217Y16801289D01*
X29354880Y16583289D01*
X29746853Y16321381D01*
X30209217Y16229411D01*
X30671580Y16321381D01*
X31063554Y16583289D01*
X31209217Y16801289D01*
X31354880Y16583289D01*
X31746853Y16321381D01*
X32209217Y16229411D01*
X32671580Y16321381D01*
X33063554Y16583289D01*
X33209217Y16801289D01*
X33354880Y16583289D01*
X33746853Y16321381D01*
X34209217Y16229411D01*
X34671580Y16321381D01*
X35063554Y16583289D01*
X35081207Y16609709D01*
X35201408Y16429817D01*
X35411452Y16289469D01*
X35659217Y16240186D01*
X36759217Y16240186D01*
X37006982Y16289469D01*
X37217026Y16429817D01*
X37357374Y16639861D01*
X37406657Y16887626D01*
X37406657Y19387626D01*
X37381445Y19514379D01*
X37459549Y19379912D01*
X37537787Y19042369D01*
X37540000Y18986045D01*
X37540000Y11790430D01*
X32807156Y11821402D01*
X32757448Y11811623D01*
X32716311Y11783996D01*
X32688878Y11742729D01*
X32679325Y11694106D01*
X32681976Y10568879D01*
X32609688Y10554500D01*
X26305658Y10554500D01*
X26035000Y10825157D01*
X26035000Y10895657D01*
X25846982Y11349571D01*
X25499571Y11696982D01*
X25045657Y11885000D01*
X24554343Y11885000D01*
X24100429Y11696982D01*
X23753018Y11349571D01*
X23565000Y10895657D01*
X23565000Y10404343D01*
X23753018Y9950429D01*
X23849447Y9854000D01*
X23639018Y9643571D01*
X23451000Y9189657D01*
X23451000Y8698343D01*
X23602745Y8332000D01*
X17269684Y8332000D01*
X17291794Y8336398D01*
X17580916Y8529584D01*
X17694530Y8699619D01*
X17900953Y8837547D01*
X17944749Y8903092D01*
X21836158Y12794500D01*
X28550447Y12794500D01*
X28875929Y12469018D01*
X29329843Y12281000D01*
X29821157Y12281000D01*
X30275071Y12469018D01*
X30622482Y12816429D01*
X30810500Y13270343D01*
X30810500Y13761657D01*
X30622482Y14215571D01*
X30275071Y14562982D01*
X29821157Y14751000D01*
X29329843Y14751000D01*
X28875929Y14562982D01*
X28677447Y14364500D01*
X21588312Y14364500D01*
X21511000Y14379878D01*
X21433688Y14364500D01*
X21433684Y14364500D01*
X21204708Y14318954D01*
X21010591Y14189249D01*
X21010589Y14189247D01*
X20945047Y14145453D01*
X20901253Y14079911D01*
X17821796Y11000454D01*
X17670750Y11151500D01*
X16621500Y11151500D01*
X16621500Y11131500D01*
X16367500Y11131500D01*
X16367500Y11151500D01*
X16347500Y11151500D01*
X16347500Y11405500D01*
X16367500Y11405500D01*
X16367500Y12242250D01*
X16621500Y12242250D01*
X16621500Y11405500D01*
X17670750Y11405500D01*
X17829500Y11564250D01*
X17829500Y11892309D01*
X17732827Y12125698D01*
X17554199Y12304327D01*
X17320810Y12401000D01*
X16780250Y12401000D01*
X16621500Y12242250D01*
X16367500Y12242250D01*
X16208750Y12401000D01*
X15973440Y12401000D01*
X15973440Y12596000D01*
X15924157Y12843765D01*
X15783809Y13053809D01*
X15573765Y13194157D01*
X15326000Y13243440D01*
X13726000Y13243440D01*
X13478235Y13194157D01*
X13268191Y13053809D01*
X13127843Y12843765D01*
X13078560Y12596000D01*
X13078560Y12543718D01*
X12565090Y12030247D01*
X12499548Y11986453D01*
X12455754Y11920911D01*
X12455751Y11920908D01*
X12326046Y11726791D01*
X12265122Y11420500D01*
X12280501Y11343183D01*
X12280500Y7687812D01*
X12265122Y7610500D01*
X12280500Y7533188D01*
X12280500Y7533185D01*
X12326046Y7304209D01*
X12499547Y7044547D01*
X12565092Y7000751D01*
X13535251Y6030592D01*
X13579047Y5965047D01*
X13838708Y5791546D01*
X14067684Y5746000D01*
X14067688Y5746000D01*
X14145000Y5730622D01*
X14222312Y5746000D01*
X28678843Y5746000D01*
X28972645Y5452198D01*
X28846018Y5325571D01*
X28658000Y4871657D01*
X28658000Y4556572D01*
X28209217Y4645841D01*
X27746854Y4553871D01*
X27354881Y4291963D01*
X27209217Y4073963D01*
X27063554Y4291963D01*
X26671581Y4553871D01*
X26209217Y4645841D01*
X25746854Y4553871D01*
X25354881Y4291963D01*
X25242626Y4123962D01*
X25063554Y4391963D01*
X24671581Y4653871D01*
X24209217Y4745841D01*
X23746854Y4653871D01*
X23354881Y4391963D01*
X23168307Y4112737D01*
X22957335Y4365350D01*
X22545363Y4581024D01*
X22518961Y4581429D01*
X22336217Y4455987D01*
X22336217Y2864626D01*
X22356217Y2864626D01*
X22356217Y2610626D01*
X22336217Y2610626D01*
X22336217Y1019265D01*
X22518961Y893823D01*
X22545363Y894228D01*
X22957335Y1109902D01*
X23242547Y1451408D01*
X23354880Y1283289D01*
X23746853Y1021381D01*
X24209217Y929411D01*
X24671580Y1021381D01*
X25063554Y1283289D01*
X25175808Y1451289D01*
X25354880Y1183289D01*
X25746853Y921381D01*
X26209217Y829411D01*
X26671580Y921381D01*
X27063554Y1183289D01*
X27209217Y1401289D01*
X27354880Y1183289D01*
X27746853Y921381D01*
X28209217Y829411D01*
X28671580Y921381D01*
X29063554Y1183289D01*
X29209217Y1401289D01*
X29354880Y1183289D01*
X29746853Y921381D01*
X30209217Y829411D01*
X30671580Y921381D01*
X31063554Y1183289D01*
X31209217Y1401289D01*
X31354880Y1183289D01*
X31746853Y921381D01*
X32209217Y829411D01*
X32671580Y921381D01*
X33063554Y1183289D01*
X33209217Y1401289D01*
X33354880Y1183289D01*
X33746853Y921381D01*
X34209217Y829411D01*
X34671580Y921381D01*
X35063554Y1183289D01*
X35209217Y1401289D01*
X35354880Y1183289D01*
X35746853Y921381D01*
X36209217Y829411D01*
X36671580Y921381D01*
X37063554Y1183289D01*
X37325462Y1575262D01*
X37394217Y1920916D01*
X37394217Y3554336D01*
X37325462Y3899990D01*
X37063554Y4291963D01*
X37046241Y4303531D01*
X37286317Y4543607D01*
X37449124Y4936656D01*
X37540001Y4934419D01*
X37540001Y1803077D01*
X37486399Y1446546D01*
X37353564Y1169917D01*
X37145264Y944580D01*
X36879912Y790451D01*
X36542369Y712213D01*
X36486045Y710000D01*
X20535814Y710000D01*
X20954424Y929363D01*
X21283017Y1323133D01*
X21461099Y1109902D01*
X21873071Y894228D01*
X21899473Y893823D01*
X22082217Y1019265D01*
X22082217Y2610626D01*
X22062217Y2610626D01*
X22062217Y2864626D01*
X22082217Y2864626D01*
X22082217Y4455987D01*
X21899473Y4581429D01*
X21873071Y4581024D01*
X21461099Y4365350D01*
X21163021Y4008439D01*
X21024217Y3564626D01*
X21024217Y3487001D01*
X20954424Y3570637D01*
X20456730Y3831442D01*
X20399039Y3841904D01*
X20177000Y3719915D01*
X20177000Y2377000D01*
X20197000Y2377000D01*
X20197000Y2123000D01*
X20177000Y2123000D01*
X20177000Y2103000D01*
X19923000Y2103000D01*
X19923000Y2123000D01*
X18770529Y2123000D01*
X18618066Y1897114D01*
X18785572Y1360774D01*
X19145576Y929363D01*
X19564186Y710000D01*
X14053070Y710000D01*
X14032179Y713141D01*
X14484576Y1015423D01*
X14801740Y1490091D01*
X14885000Y1908667D01*
X14885000Y2591332D01*
X14882702Y2602886D01*
X18618066Y2602886D01*
X18770529Y2377000D01*
X19923000Y2377000D01*
X19923000Y3719915D01*
X19700961Y3841904D01*
X19643270Y3831442D01*
X19145576Y3570637D01*
X18785572Y3139226D01*
X18618066Y2602886D01*
X14882702Y2602886D01*
X14801740Y3009908D01*
X14484577Y3484577D01*
X14009909Y3801740D01*
X13450000Y3913113D01*
X12912985Y3806294D01*
X12870238Y4021196D01*
X12764223Y4277137D01*
X12764223Y4277138D01*
X12547451Y4601562D01*
X12351562Y4797450D01*
X12351561Y4797451D01*
X12027138Y5014224D01*
X11843368Y5090343D01*
X11771196Y5120238D01*
X11388513Y5196358D01*
X11388509Y5196358D01*
X11319926Y5210000D01*
X9627000Y5210000D01*
X9627000Y15540000D01*
X11319926Y15540000D01*
X11388509Y15553642D01*
X11388513Y15553642D01*
X11771196Y15629762D01*
X11846160Y15660813D01*
X12027138Y15735776D01*
X12351561Y15952549D01*
X12371984Y15972972D01*
X12547451Y16148438D01*
X12764223Y16472862D01*
X12833396Y16639861D01*
X12870238Y16728804D01*
X12920753Y16982760D01*
X13043270Y16918558D01*
X13100961Y16908096D01*
X13323000Y17030085D01*
X13323000Y18373000D01*
X13577000Y18373000D01*
X13577000Y17030085D01*
X13799039Y16908096D01*
X13856730Y16918558D01*
X14354424Y17179363D01*
X14714428Y17610774D01*
X14881934Y18147114D01*
X14729471Y18373000D01*
X13577000Y18373000D01*
X13323000Y18373000D01*
X13303000Y18373000D01*
X13303000Y18627000D01*
X13323000Y18627000D01*
X13323000Y18647000D01*
X13577000Y18647000D01*
X13577000Y18627000D01*
X14729471Y18627000D01*
X14881934Y18852886D01*
X14714428Y19389226D01*
X14354424Y19820637D01*
X13945433Y20034959D01*
X13957631Y20037787D01*
X14013955Y20040000D01*
X19472521Y20040000D01*
X19015423Y19734576D01*
G36*
X14653000Y11103000D02*
X14673000Y11103000D01*
X14673000Y10849000D01*
X14653000Y10849000D01*
X14653000Y10829000D01*
X14399000Y10829000D01*
X14399000Y10849000D01*
X14379000Y10849000D01*
X14379000Y11103000D01*
X14399000Y11103000D01*
X14399000Y11123000D01*
X14653000Y11123000D01*
X14653000Y11103000D01*
X14653000Y11103000D01*
G37*
X14653000Y11103000D02*
X14673000Y11103000D01*
X14673000Y10849000D01*
X14653000Y10849000D01*
X14653000Y10829000D01*
X14399000Y10829000D01*
X14399000Y10849000D01*
X14379000Y10849000D01*
X14379000Y11103000D01*
X14399000Y11103000D01*
X14399000Y11123000D01*
X14653000Y11123000D01*
X14653000Y11103000D01*
G04 #@! TD*
M02*
