G04 #@! TF.GenerationSoftware,KiCad,Pcbnew,5.0.2-bee76a0~70~ubuntu18.04.1*
G04 #@! TF.CreationDate,2019-11-04T12:28:51-05:00*
G04 #@! TF.ProjectId,ESP-AHT10-Extra,4553502d-4148-4543-9130-2d4578747261,rev?*
G04 #@! TF.SameCoordinates,PX7bfa480PY66c2270*
G04 #@! TF.FileFunction,Copper,L2,Bot*
G04 #@! TF.FilePolarity,Positive*
%FSLAX46Y46*%
G04 Gerber Fmt 4.6, Leading zero omitted, Abs format (unit mm)*
G04 Created by KiCad (PCBNEW 5.0.2-bee76a0~70~ubuntu18.04.1) date Mon 04 Nov 2019 12:28:51 PM EST*
%MOMM*%
%LPD*%
G01*
G04 APERTURE LIST*
G04 #@! TA.AperFunction,SMDPad,CuDef*
%ADD10R,1.000000X1.250000*%
G04 #@! TD*
G04 #@! TA.AperFunction,SMDPad,CuDef*
%ADD11R,1.250000X1.000000*%
G04 #@! TD*
G04 #@! TA.AperFunction,ConnectorPad*
%ADD12R,8.000000X1.900000*%
G04 #@! TD*
G04 #@! TA.AperFunction,ConnectorPad*
%ADD13R,7.500000X2.000000*%
G04 #@! TD*
G04 #@! TA.AperFunction,SMDPad,CuDef*
%ADD14R,1.300000X0.700000*%
G04 #@! TD*
G04 #@! TA.AperFunction,SMDPad,CuDef*
%ADD15R,0.700000X1.300000*%
G04 #@! TD*
G04 #@! TA.AperFunction,SMDPad,CuDef*
%ADD16R,1.550000X0.600000*%
G04 #@! TD*
G04 #@! TA.AperFunction,SMDPad,CuDef*
%ADD17R,0.650000X1.060000*%
G04 #@! TD*
G04 #@! TA.AperFunction,ComponentPad*
%ADD18R,1.100000X2.500000*%
G04 #@! TD*
G04 #@! TA.AperFunction,ComponentPad*
%ADD19O,1.100000X2.500000*%
G04 #@! TD*
G04 #@! TA.AperFunction,ComponentPad*
%ADD20O,1.600000X2.000000*%
G04 #@! TD*
G04 #@! TA.AperFunction,SMDPad,CuDef*
%ADD21O,0.650000X1.500000*%
G04 #@! TD*
G04 #@! TA.AperFunction,SMDPad,CuDef*
%ADD22R,0.650000X1.500000*%
G04 #@! TD*
G04 #@! TA.AperFunction,SMDPad,CuDef*
%ADD23R,1.060000X0.650000*%
G04 #@! TD*
G04 #@! TA.AperFunction,ViaPad*
%ADD24C,1.200000*%
G04 #@! TD*
G04 #@! TA.AperFunction,Conductor*
%ADD25C,0.300000*%
G04 #@! TD*
G04 #@! TA.AperFunction,Conductor*
%ADD26C,0.500000*%
G04 #@! TD*
G04 #@! TA.AperFunction,Conductor*
%ADD27C,0.400000*%
G04 #@! TD*
G04 #@! TA.AperFunction,Conductor*
%ADD28C,0.254000*%
G04 #@! TD*
G04 APERTURE END LIST*
D10*
G04 #@! TO.P,C1,1*
G04 #@! TO.N,3V3*
X18800000Y5050000D03*
G04 #@! TO.P,C1,2*
G04 #@! TO.N,GND*
X16800000Y5050000D03*
G04 #@! TD*
D11*
G04 #@! TO.P,C2,2*
G04 #@! TO.N,GND*
X21500000Y13041380D03*
G04 #@! TO.P,C2,1*
G04 #@! TO.N,VBUS*
X21500000Y15041380D03*
G04 #@! TD*
G04 #@! TO.P,C3,2*
G04 #@! TO.N,3V3*
X27355703Y15041380D03*
G04 #@! TO.P,C3,1*
G04 #@! TO.N,GND*
X27355703Y13041380D03*
G04 #@! TD*
G04 #@! TO.P,C4,1*
G04 #@! TO.N,3V3*
X29250000Y15000000D03*
G04 #@! TO.P,C4,2*
G04 #@! TO.N,GND*
X29250000Y13000000D03*
G04 #@! TD*
D10*
G04 #@! TO.P,C5,2*
G04 #@! TO.N,GND*
X36500000Y12000000D03*
G04 #@! TO.P,C5,1*
G04 #@! TO.N,3V3*
X34500000Y12000000D03*
G04 #@! TD*
D12*
G04 #@! TO.P,J1,1*
G04 #@! TO.N,VBUS*
X4959217Y14197626D03*
G04 #@! TO.P,J1,4*
G04 #@! TO.N,GND*
X4959217Y6577626D03*
D13*
G04 #@! TO.P,J1,3*
G04 #@! TO.N,UD+*
X5209217Y9087626D03*
G04 #@! TO.P,J1,2*
G04 #@! TO.N,UD-*
X5209217Y11687626D03*
G04 #@! TD*
D14*
G04 #@! TO.P,R1,1*
G04 #@! TO.N,3V3*
X34355703Y13591380D03*
G04 #@! TO.P,R1,2*
G04 #@! TO.N,Net-(R1-Pad2)*
X34355703Y15491380D03*
G04 #@! TD*
G04 #@! TO.P,R2,1*
G04 #@! TO.N,Net-(R2-Pad1)*
X32355703Y13591380D03*
G04 #@! TO.P,R2,2*
G04 #@! TO.N,Net-(R2-Pad2)*
X32355703Y15491380D03*
G04 #@! TD*
G04 #@! TO.P,R3,2*
G04 #@! TO.N,Net-(R2-Pad1)*
X36355703Y15541380D03*
G04 #@! TO.P,R3,1*
G04 #@! TO.N,3V3*
X36355703Y13641380D03*
G04 #@! TD*
D15*
G04 #@! TO.P,R4,2*
G04 #@! TO.N,GND*
X23500000Y5541380D03*
G04 #@! TO.P,R4,1*
G04 #@! TO.N,Net-(R4-Pad1)*
X25400000Y5541380D03*
G04 #@! TD*
G04 #@! TO.P,R5,2*
G04 #@! TO.N,Net-(R5-Pad2)*
X29905703Y10541380D03*
G04 #@! TO.P,R5,1*
G04 #@! TO.N,3V3*
X31805703Y10541380D03*
G04 #@! TD*
G04 #@! TO.P,R6,1*
G04 #@! TO.N,3V3*
X29905703Y8541380D03*
G04 #@! TO.P,R6,2*
G04 #@! TO.N,SDA*
X31805703Y8541380D03*
G04 #@! TD*
G04 #@! TO.P,R7,2*
G04 #@! TO.N,SCL*
X31805703Y6541380D03*
G04 #@! TO.P,R7,1*
G04 #@! TO.N,3V3*
X29905703Y6541380D03*
G04 #@! TD*
D16*
G04 #@! TO.P,U1,1*
G04 #@! TO.N,UDP+*
X15359217Y6832626D03*
G04 #@! TO.P,U1,2*
G04 #@! TO.N,UDP-*
X15359217Y8102626D03*
G04 #@! TO.P,U1,3*
G04 #@! TO.N,GND*
X15359217Y9372626D03*
G04 #@! TO.P,U1,4*
G04 #@! TO.N,N/C*
X15359217Y10642626D03*
G04 #@! TO.P,U1,5*
G04 #@! TO.N,3V3*
X20759217Y10642626D03*
G04 #@! TO.P,U1,6*
G04 #@! TO.N,eRX*
X20759217Y9372626D03*
G04 #@! TO.P,U1,7*
G04 #@! TO.N,eTX*
X20759217Y8102626D03*
G04 #@! TO.P,U1,8*
G04 #@! TO.N,3V3*
X20759217Y6832626D03*
G04 #@! TD*
D17*
G04 #@! TO.P,U2,1*
G04 #@! TO.N,VBUS*
X25305703Y12941380D03*
G04 #@! TO.P,U2,2*
G04 #@! TO.N,GND*
X24355703Y12941380D03*
G04 #@! TO.P,U2,3*
G04 #@! TO.N,VBUS*
X23405703Y12941380D03*
G04 #@! TO.P,U2,4*
G04 #@! TO.N,N/C*
X23405703Y15141380D03*
G04 #@! TO.P,U2,5*
G04 #@! TO.N,3V3*
X25305703Y15141380D03*
G04 #@! TD*
D18*
G04 #@! TO.P,U3,1*
G04 #@! TO.N,Net-(R2-Pad1)*
X36209217Y18137626D03*
D19*
G04 #@! TO.P,U3,2*
G04 #@! TO.N,N/C*
X34209217Y18137626D03*
G04 #@! TO.P,U3,3*
G04 #@! TO.N,Net-(R1-Pad2)*
X32209217Y18137626D03*
G04 #@! TO.P,U3,4*
G04 #@! TO.N,Net-(R2-Pad2)*
X30209217Y18137626D03*
G04 #@! TO.P,U3,5*
G04 #@! TO.N,N/C*
X28209217Y18137626D03*
G04 #@! TO.P,U3,6*
X26209217Y18137626D03*
G04 #@! TO.P,U3,7*
X24209217Y18137626D03*
G04 #@! TO.P,U3,8*
G04 #@! TO.N,3V3*
X22209217Y18137626D03*
G04 #@! TO.P,U3,9*
G04 #@! TO.N,GND*
X22209217Y2737626D03*
G04 #@! TO.P,U3,10*
G04 #@! TO.N,Net-(R4-Pad1)*
X24209217Y2837626D03*
G04 #@! TO.P,U3,11*
G04 #@! TO.N,N/C*
X26209217Y2737626D03*
G04 #@! TO.P,U3,12*
G04 #@! TO.N,Net-(R5-Pad2)*
X28209217Y2737626D03*
G04 #@! TO.P,U3,13*
G04 #@! TO.N,SDA*
X30209217Y2737626D03*
G04 #@! TO.P,U3,14*
G04 #@! TO.N,SCL*
X32209217Y2737626D03*
G04 #@! TO.P,U3,15*
G04 #@! TO.N,eRX*
X34209217Y2737626D03*
G04 #@! TO.P,U3,16*
G04 #@! TO.N,eTX*
X36209217Y2737626D03*
G04 #@! TD*
D20*
G04 #@! TO.P,SW1,2*
G04 #@! TO.N,GND*
X13450000Y18500000D03*
G04 #@! TO.P,SW1,1*
G04 #@! TO.N,Net-(R2-Pad2)*
X20050000Y18500000D03*
G04 #@! TD*
G04 #@! TO.P,SW2,1*
G04 #@! TO.N,Net-(R5-Pad2)*
X13450000Y2250000D03*
G04 #@! TO.P,SW2,2*
G04 #@! TO.N,GND*
X20050000Y2250000D03*
G04 #@! TD*
D21*
G04 #@! TO.P,U4,1*
G04 #@! TO.N,GND*
X37125703Y6941380D03*
D22*
G04 #@! TO.P,U4,2*
G04 #@! TO.N,SDA*
X35855703Y6941380D03*
G04 #@! TO.P,U4,3*
G04 #@! TO.N,SCL*
X34585703Y6941380D03*
G04 #@! TO.P,U4,4*
G04 #@! TO.N,3V3*
X34585703Y10141380D03*
G04 #@! TO.P,U4,5*
G04 #@! TO.N,GND*
X35855703Y10141380D03*
G04 #@! TO.P,U4,6*
G04 #@! TO.N,N/C*
X37125703Y10141380D03*
G04 #@! TD*
D10*
G04 #@! TO.P,C6,2*
G04 #@! TO.N,GND*
X17800000Y12550000D03*
G04 #@! TO.P,C6,1*
G04 #@! TO.N,3V3*
X15800000Y12550000D03*
G04 #@! TD*
D23*
G04 #@! TO.P,U5,1*
G04 #@! TO.N,UD+*
X10300000Y9500000D03*
G04 #@! TO.P,U5,2*
G04 #@! TO.N,GND*
X10300000Y10450000D03*
G04 #@! TO.P,U5,3*
G04 #@! TO.N,UD-*
X10300000Y11400000D03*
G04 #@! TO.P,U5,4*
G04 #@! TO.N,UDP-*
X12500000Y11400000D03*
G04 #@! TO.P,U5,6*
G04 #@! TO.N,UDP+*
X12500000Y9500000D03*
G04 #@! TO.P,U5,5*
G04 #@! TO.N,VBUS*
X12500000Y10450000D03*
G04 #@! TD*
D24*
G04 #@! TO.N,3V3*
X14800000Y16250000D03*
X14650000Y12850000D03*
G04 #@! TO.N,GND*
X17050000Y17350000D03*
X19500000Y13550000D03*
G04 #@! TO.N,Net-(R5-Pad2)*
X14175750Y4049990D03*
X28200000Y4900000D03*
G04 #@! TO.N,eRX*
X33750000Y4750000D03*
X23500000Y8550002D03*
G04 #@! TO.N,eTX*
X36150000Y4950000D03*
X24440419Y9868735D03*
G04 #@! TD*
D25*
G04 #@! TO.N,3V3*
X20705703Y6779112D02*
X20759217Y6832626D01*
X29905703Y6541380D02*
X29905703Y8541380D01*
X34405703Y13641380D02*
X34355703Y13591380D01*
X36355703Y13641380D02*
X34405703Y13641380D01*
X31805703Y10241380D02*
X31805703Y10541380D01*
X29905703Y8641380D02*
X30855703Y9591380D01*
X29905703Y8541380D02*
X29905703Y8641380D01*
X30855703Y9591380D02*
X31155703Y9591380D01*
X31155703Y9591380D02*
X31805703Y10241380D01*
X31855703Y10641380D02*
X31800002Y10697081D01*
X31800002Y11151472D02*
X31800002Y12000000D01*
X30900000Y12900002D02*
X31800002Y12000000D01*
X30900000Y13350000D02*
X30900000Y12900002D01*
X29250000Y15000000D02*
X30900000Y13350000D01*
X31800002Y10697081D02*
X31800002Y11151472D01*
X25305703Y15346380D02*
X25305703Y15141380D01*
X24264467Y16387616D02*
X25305703Y15346380D01*
X23259227Y16387616D02*
X24264467Y16387616D01*
X22209217Y17437626D02*
X23259227Y16387616D01*
X27255703Y15141380D02*
X27355703Y15041380D01*
X25305703Y15141380D02*
X27255703Y15141380D01*
X29208620Y15041380D02*
X29250000Y15000000D01*
X27355703Y15041380D02*
X29208620Y15041380D01*
X19256949Y10642626D02*
X20759217Y10642626D01*
X18850000Y10235677D02*
X19256949Y10642626D01*
X18850000Y7147083D02*
X18850000Y10235677D01*
X20759217Y6832626D02*
X19164457Y6832626D01*
X19164457Y6832626D02*
X18850000Y7147083D01*
X33300000Y11950000D02*
X34300000Y11950000D01*
X31805703Y10541380D02*
X31891380Y10541380D01*
X31891380Y10541380D02*
X33300000Y11950000D01*
X34355703Y11541380D02*
X34355703Y13591380D01*
X34585703Y9891380D02*
X34355703Y10121380D01*
X34355703Y10121380D02*
X34355703Y11541380D01*
X18976591Y5050000D02*
X18900000Y5050000D01*
X20759217Y6832626D02*
X18976591Y5050000D01*
X20759217Y10642626D02*
X17707374Y10642626D01*
X16800001Y11549999D02*
X15800000Y12550000D01*
X17707374Y10642626D02*
X16800001Y11549999D01*
X21021591Y16250000D02*
X14800000Y16250000D01*
X22209217Y17437626D02*
X21021591Y16250000D01*
X14950000Y12550000D02*
X14650000Y12850000D01*
X15800000Y12550000D02*
X14950000Y12550000D01*
G04 #@! TO.N,GND*
X21021591Y2250000D02*
X22209217Y3437626D01*
X20050000Y2250000D02*
X21021591Y2250000D01*
X37125703Y7824297D02*
X37125703Y7191380D01*
X35855703Y9094297D02*
X37125703Y7824297D01*
X35855703Y11041380D02*
X35855703Y9094297D01*
X36355703Y11541380D02*
X35855703Y11041380D01*
D26*
X5686843Y5850000D02*
X11900000Y5850000D01*
X4959217Y6577626D02*
X5686843Y5850000D01*
X15600000Y5250000D02*
X15800000Y5050000D01*
X12500000Y5250000D02*
X15600000Y5250000D01*
X11900000Y5850000D02*
X12500000Y5250000D01*
X15800000Y5050000D02*
X16800000Y5050000D01*
D25*
X10950000Y10450000D02*
X10300000Y10450000D01*
X11400000Y8350000D02*
X11400000Y10000000D01*
X11400000Y10000000D02*
X10950000Y10450000D01*
X11900000Y5850000D02*
X11900000Y7850000D01*
X11900000Y7850000D02*
X11400000Y8350000D01*
X13450000Y18500000D02*
X15900000Y18500000D01*
X15900000Y18500000D02*
X17050000Y17350000D01*
X18800000Y13550000D02*
X17800000Y12550000D01*
X19500000Y13550000D02*
X18800000Y13550000D01*
X16800000Y5975000D02*
X16800000Y5050000D01*
X16800000Y9006843D02*
X16800000Y5975000D01*
X16434217Y9372626D02*
X16800000Y9006843D01*
X15359217Y9372626D02*
X16434217Y9372626D01*
D26*
X18750000Y2250000D02*
X20050000Y2250000D01*
X18475000Y2250000D02*
X18750000Y2250000D01*
X16800000Y3925000D02*
X18475000Y2250000D01*
X16800000Y5050000D02*
X16800000Y3925000D01*
X22209217Y4250597D02*
X23500000Y5541380D01*
X22209217Y3437626D02*
X22209217Y4250597D01*
X21408620Y12950000D02*
X21500000Y13041380D01*
X19500000Y13550000D02*
X20100000Y12950000D01*
X20100000Y12950000D02*
X21408620Y12950000D01*
D27*
X37600000Y1872760D02*
X37600000Y6717083D01*
X22209217Y1790783D02*
X23062384Y937616D01*
X37600000Y6717083D02*
X37125703Y7191380D01*
X36664856Y937616D02*
X37600000Y1872760D01*
X23062384Y937616D02*
X36664856Y937616D01*
X22209217Y3437626D02*
X22209217Y1790783D01*
D25*
X21625000Y13041380D02*
X21500000Y13041380D01*
X22966367Y11700013D02*
X21625000Y13041380D01*
X24355703Y12111380D02*
X23944336Y11700013D01*
X23944336Y11700013D02*
X22966367Y11700013D01*
X24355703Y12941380D02*
X24355703Y12111380D01*
X27161379Y11911379D02*
X27355703Y12105703D01*
X27355703Y12105703D02*
X27355703Y13041380D01*
X24355703Y12111380D02*
X24555704Y11911379D01*
X24555704Y11911379D02*
X27161379Y11911379D01*
G04 #@! TO.N,VBUS*
X23405703Y13135677D02*
X23405703Y12941380D01*
X21500000Y15041380D02*
X23405703Y13135677D01*
X25105702Y13971381D02*
X25305703Y13771380D01*
X23605704Y13971381D02*
X25105702Y13971381D01*
X25305703Y13771380D02*
X25305703Y12941380D01*
X23405703Y13771380D02*
X23605704Y13971381D01*
X23405703Y12941380D02*
X23405703Y13771380D01*
D26*
X4959217Y14197626D02*
X9447626Y14197626D01*
G04 #@! TO.N,UDP+*
X15350463Y6841380D02*
X15359217Y6832626D01*
G04 #@! TO.N,UD+*
X5209217Y8837626D02*
X5505463Y8541380D01*
X9887626Y9087626D02*
X10300000Y9500000D01*
X5209217Y9087626D02*
X9887626Y9087626D01*
G04 #@! TO.N,UD-*
X9746843Y11400000D02*
X10300000Y11400000D01*
X9459217Y11687626D02*
X9746843Y11400000D01*
X5209217Y11687626D02*
X9459217Y11687626D01*
D25*
G04 #@! TO.N,Net-(R1-Pad2)*
X32459457Y17437626D02*
X32209217Y17437626D01*
X33405703Y16491380D02*
X32459457Y17437626D01*
X33405703Y16241140D02*
X33405703Y16491380D01*
X34355703Y15491380D02*
X34155463Y15491380D01*
X34155463Y15491380D02*
X33405703Y16241140D01*
G04 #@! TO.N,Net-(R2-Pad1)*
X36209217Y15687866D02*
X36355703Y15541380D01*
X36209217Y17437626D02*
X36209217Y15687866D01*
X32505703Y13591380D02*
X32355703Y13591380D01*
X33455703Y14541380D02*
X32505703Y13591380D01*
X35155703Y14541380D02*
X33455703Y14541380D01*
X36355703Y15541380D02*
X36155703Y15541380D01*
X36155703Y15541380D02*
X35155703Y14541380D01*
G04 #@! TO.N,Net-(R2-Pad2)*
X30209217Y16387866D02*
X30209217Y17437626D01*
X32355703Y15491380D02*
X31105703Y15491380D01*
X31105703Y15491380D02*
X30209217Y16387866D01*
D27*
X30209217Y18393275D02*
X30209217Y17437626D01*
X20050000Y18700000D02*
X21287636Y19937636D01*
X28664856Y19937636D02*
X30209217Y18393275D01*
X21287636Y19937636D02*
X28664856Y19937636D01*
X20050000Y18500000D02*
X20050000Y18700000D01*
D25*
G04 #@! TO.N,Net-(R4-Pad1)*
X25500000Y4950000D02*
X25500000Y5550000D01*
X24209217Y3437626D02*
X24209217Y3659217D01*
X24209217Y3659217D02*
X25500000Y4950000D01*
G04 #@! TO.N,Net-(R5-Pad2)*
X29255703Y10541380D02*
X29905703Y10541380D01*
X28209217Y9494894D02*
X29255703Y10541380D01*
X28209217Y3437626D02*
X28209217Y9494894D01*
X13949990Y4049990D02*
X14175750Y4049990D01*
X13450000Y2250000D02*
X13450000Y3550000D01*
X13450000Y3550000D02*
X13949990Y4049990D01*
X28209217Y3437626D02*
X28200000Y3446843D01*
X28200000Y4051472D02*
X28200000Y4900000D01*
X28200000Y3446843D02*
X28200000Y4051472D01*
G04 #@! TO.N,SDA*
X31805703Y8391380D02*
X31805703Y8541380D01*
X30855703Y7441380D02*
X31805703Y8391380D01*
X30209217Y3437626D02*
X30855703Y4084112D01*
X30855703Y4084112D02*
X30855703Y7441380D01*
X35489366Y8541380D02*
X32455703Y8541380D01*
X32455703Y8541380D02*
X31805703Y8541380D01*
X35855703Y8175043D02*
X35489366Y8541380D01*
X35855703Y7191380D02*
X35855703Y8175043D01*
G04 #@! TO.N,SCL*
X32055703Y6291380D02*
X31805703Y6541380D01*
X32209217Y3437626D02*
X32055703Y3591140D01*
X32055703Y3591140D02*
X32055703Y6291380D01*
X31805703Y6541380D02*
X33935703Y6541380D01*
X33935703Y6541380D02*
X34585703Y7191380D01*
G04 #@! TO.N,eRX*
X33750000Y3896843D02*
X34209217Y3437626D01*
X33750000Y4750000D02*
X33750000Y3896843D01*
X25540421Y10396737D02*
X25540421Y9333590D01*
X20759217Y9372626D02*
X21775370Y9372626D01*
X23371481Y10968737D02*
X24968421Y10968737D01*
X24968421Y10968737D02*
X25540421Y10396737D01*
X21775370Y9372626D02*
X23371481Y10968737D01*
X24756833Y8550002D02*
X24348528Y8550002D01*
X25540421Y9333590D02*
X24756833Y8550002D01*
X24348528Y8550002D02*
X23500000Y8550002D01*
G04 #@! TO.N,eTX*
X36150000Y3496843D02*
X36209217Y3437626D01*
X36150000Y4950000D02*
X36150000Y3496843D01*
X23591891Y9868735D02*
X24440419Y9868735D01*
X21424624Y8102626D02*
X23190733Y9868735D01*
X23190733Y9868735D02*
X23591891Y9868735D01*
X20759217Y8102626D02*
X21424624Y8102626D01*
G04 #@! TO.N,VBUS*
X9447626Y14197626D02*
X11400000Y12245252D01*
X11869254Y10450000D02*
X12500000Y10450000D01*
X11400000Y12245252D02*
X11400000Y10919254D01*
X11400000Y10919254D02*
X11869254Y10450000D01*
D26*
X9447626Y14197626D02*
X10291380Y15041380D01*
X20375000Y15041380D02*
X21500000Y15041380D01*
X10291380Y15041380D02*
X20375000Y15041380D01*
D25*
G04 #@! TO.N,UDP+*
X14542374Y6832626D02*
X15359217Y6832626D01*
X12500000Y9500000D02*
X12500000Y8875000D01*
X12500000Y8875000D02*
X14542374Y6832626D01*
G04 #@! TO.N,UDP-*
X13800000Y8586843D02*
X14284217Y8102626D01*
X14284217Y8102626D02*
X15359217Y8102626D01*
X12500000Y11400000D02*
X13330000Y11400000D01*
X13800000Y10930000D02*
X13800000Y8586843D01*
X13330000Y11400000D02*
X13800000Y10930000D01*
G04 #@! TD*
D28*
G04 #@! TO.N,GND*
G36*
X27482703Y13168380D02*
X28107370Y13168380D01*
X28148750Y13127000D01*
X29123000Y13127000D01*
X29123000Y13147000D01*
X29377000Y13147000D01*
X29377000Y13127000D01*
X29397000Y13127000D01*
X29397000Y12873000D01*
X29377000Y12873000D01*
X29377000Y12023750D01*
X29535750Y11865000D01*
X30001310Y11865000D01*
X30234699Y11961673D01*
X30413327Y12140302D01*
X30453224Y12236621D01*
X31015002Y11674842D01*
X31015002Y11660620D01*
X30997894Y11649189D01*
X30857546Y11439145D01*
X30855703Y11429880D01*
X30853860Y11439145D01*
X30713512Y11649189D01*
X30503468Y11789537D01*
X30255703Y11838820D01*
X29555703Y11838820D01*
X29307938Y11789537D01*
X29097894Y11649189D01*
X28957546Y11439145D01*
X28922476Y11262837D01*
X28689750Y11107333D01*
X28645954Y11041788D01*
X27708807Y10104641D01*
X27643265Y10060847D01*
X27599471Y9995305D01*
X27599468Y9995302D01*
X27469763Y9801185D01*
X27408839Y9494894D01*
X27424218Y9417577D01*
X27424217Y5870770D01*
X27153018Y5599571D01*
X26965000Y5145657D01*
X26965000Y4654343D01*
X27153018Y4200429D01*
X27237362Y4116085D01*
X27209217Y4073963D01*
X27063554Y4291963D01*
X26671581Y4553871D01*
X26333170Y4621185D01*
X26348157Y4643615D01*
X26397440Y4891380D01*
X26397440Y6191380D01*
X26348157Y6439145D01*
X26207809Y6649189D01*
X25997765Y6789537D01*
X25750000Y6838820D01*
X25050000Y6838820D01*
X24802235Y6789537D01*
X24592191Y6649189D01*
X24451843Y6439145D01*
X24446279Y6411171D01*
X24388327Y6551079D01*
X24209698Y6729707D01*
X23976309Y6826380D01*
X23785750Y6826380D01*
X23627000Y6667630D01*
X23627000Y5668380D01*
X23647000Y5668380D01*
X23647000Y5414380D01*
X23627000Y5414380D01*
X23627000Y5394380D01*
X23373000Y5394380D01*
X23373000Y5414380D01*
X22673750Y5414380D01*
X22515000Y5255630D01*
X22515000Y4765070D01*
X22603936Y4550360D01*
X22545363Y4581024D01*
X22518961Y4581429D01*
X22336217Y4455987D01*
X22336217Y2864626D01*
X22356217Y2864626D01*
X22356217Y2610626D01*
X22336217Y2610626D01*
X22336217Y1019265D01*
X22518961Y893823D01*
X22545363Y894228D01*
X22957335Y1109902D01*
X23242547Y1451408D01*
X23354880Y1283289D01*
X23746853Y1021381D01*
X24209217Y929411D01*
X24671580Y1021381D01*
X25063554Y1283289D01*
X25175808Y1451289D01*
X25354880Y1183289D01*
X25746853Y921381D01*
X26209217Y829411D01*
X26671580Y921381D01*
X27063554Y1183289D01*
X27209217Y1401289D01*
X27354880Y1183289D01*
X27746853Y921381D01*
X28209217Y829411D01*
X28671580Y921381D01*
X29063554Y1183289D01*
X29209217Y1401289D01*
X29354880Y1183289D01*
X29746853Y921381D01*
X30209217Y829411D01*
X30671580Y921381D01*
X31063554Y1183289D01*
X31209217Y1401289D01*
X31354880Y1183289D01*
X31746853Y921381D01*
X32209217Y829411D01*
X32671580Y921381D01*
X33063554Y1183289D01*
X33209217Y1401289D01*
X33354880Y1183289D01*
X33746853Y921381D01*
X34209217Y829411D01*
X34671580Y921381D01*
X35063554Y1183289D01*
X35209217Y1401289D01*
X35354880Y1183289D01*
X35746853Y921381D01*
X36209217Y829411D01*
X36671580Y921381D01*
X37063554Y1183289D01*
X37325462Y1575262D01*
X37394217Y1920916D01*
X37394217Y3554336D01*
X37325462Y3899990D01*
X37133634Y4187081D01*
X37196982Y4250429D01*
X37385000Y4704343D01*
X37385000Y4914380D01*
X37515001Y4914380D01*
X37515001Y735000D01*
X20583521Y735000D01*
X20954424Y929363D01*
X21283017Y1323133D01*
X21461099Y1109902D01*
X21873071Y894228D01*
X21899473Y893823D01*
X22082217Y1019265D01*
X22082217Y2610626D01*
X22062217Y2610626D01*
X22062217Y2864626D01*
X22082217Y2864626D01*
X22082217Y4455987D01*
X21899473Y4581429D01*
X21873071Y4581024D01*
X21461099Y4365350D01*
X21163021Y4008439D01*
X21024217Y3564626D01*
X21024217Y3487001D01*
X20954424Y3570637D01*
X20456730Y3831442D01*
X20399039Y3841904D01*
X20177000Y3719915D01*
X20177000Y2377000D01*
X20197000Y2377000D01*
X20197000Y2123000D01*
X20177000Y2123000D01*
X20177000Y2103000D01*
X19923000Y2103000D01*
X19923000Y2123000D01*
X18770529Y2123000D01*
X18618066Y1897114D01*
X18785572Y1360774D01*
X19145576Y929363D01*
X19516479Y735000D01*
X14064893Y735000D01*
X14484576Y1015423D01*
X14801740Y1490091D01*
X14885000Y1908667D01*
X14885000Y2591332D01*
X14882702Y2602886D01*
X18618066Y2602886D01*
X18770529Y2377000D01*
X19923000Y2377000D01*
X19923000Y3719915D01*
X19700961Y3841904D01*
X19643270Y3831442D01*
X19145576Y3570637D01*
X18785572Y3139226D01*
X18618066Y2602886D01*
X14882702Y2602886D01*
X14808609Y2975375D01*
X14875321Y3003008D01*
X15222732Y3350419D01*
X15410750Y3804333D01*
X15410750Y4295647D01*
X15222732Y4749561D01*
X15208043Y4764250D01*
X15665000Y4764250D01*
X15665000Y4298690D01*
X15761673Y4065301D01*
X15940302Y3886673D01*
X16173691Y3790000D01*
X16514250Y3790000D01*
X16673000Y3948750D01*
X16673000Y4923000D01*
X15823750Y4923000D01*
X15665000Y4764250D01*
X15208043Y4764250D01*
X14875321Y5096972D01*
X14421407Y5284990D01*
X13930093Y5284990D01*
X13476179Y5096972D01*
X13128768Y4749561D01*
X12974238Y4376493D01*
X12942354Y4536783D01*
X12779905Y4779905D01*
X12536783Y4942354D01*
X12377000Y4974137D01*
X12377000Y7887843D01*
X13932627Y6332215D01*
X13976421Y6266673D01*
X14015790Y6240367D01*
X14126408Y6074817D01*
X14336452Y5934469D01*
X14584217Y5885186D01*
X15699743Y5885186D01*
X15665000Y5801310D01*
X15665000Y5335750D01*
X15823750Y5177000D01*
X16673000Y5177000D01*
X16673000Y6151250D01*
X16655075Y6169175D01*
X16732374Y6284861D01*
X16781657Y6532626D01*
X16781657Y7132626D01*
X16732374Y7380391D01*
X16674085Y7467626D01*
X16732374Y7554861D01*
X16781657Y7802626D01*
X16781657Y8402626D01*
X16732374Y8650391D01*
X16679449Y8729598D01*
X16769217Y8946316D01*
X16769217Y9086876D01*
X16610467Y9245626D01*
X15486217Y9245626D01*
X15486217Y9225626D01*
X15232217Y9225626D01*
X15232217Y9245626D01*
X15212217Y9245626D01*
X15212217Y9499626D01*
X15232217Y9499626D01*
X15232217Y9519626D01*
X15486217Y9519626D01*
X15486217Y9499626D01*
X16610467Y9499626D01*
X16769217Y9658376D01*
X16769217Y9798936D01*
X16679449Y10015654D01*
X16732374Y10094861D01*
X16781657Y10342626D01*
X16781657Y10458185D01*
X17097627Y10142215D01*
X17141421Y10076673D01*
X17206963Y10032879D01*
X17206965Y10032877D01*
X17281999Y9982741D01*
X17401082Y9903172D01*
X17630058Y9857626D01*
X17630062Y9857626D01*
X17707373Y9842248D01*
X17784684Y9857626D01*
X18065001Y9857626D01*
X18065000Y7224395D01*
X18049622Y7147083D01*
X18065000Y7069771D01*
X18065000Y7069768D01*
X18109178Y6847671D01*
X18110546Y6840792D01*
X18203334Y6701926D01*
X18284047Y6581130D01*
X18349592Y6537334D01*
X18554708Y6332218D01*
X18561241Y6322440D01*
X18300000Y6322440D01*
X18052235Y6273157D01*
X17842191Y6132809D01*
X17801346Y6071680D01*
X17659698Y6213327D01*
X17426309Y6310000D01*
X17085750Y6310000D01*
X16927000Y6151250D01*
X16927000Y5177000D01*
X16947000Y5177000D01*
X16947000Y4923000D01*
X16927000Y4923000D01*
X16927000Y3948750D01*
X17085750Y3790000D01*
X17426309Y3790000D01*
X17659698Y3886673D01*
X17801346Y4028320D01*
X17842191Y3967191D01*
X18052235Y3826843D01*
X18300000Y3777560D01*
X19300000Y3777560D01*
X19547765Y3826843D01*
X19757809Y3967191D01*
X19898157Y4177235D01*
X19947440Y4425000D01*
X19947440Y4910692D01*
X20921935Y5885186D01*
X21534217Y5885186D01*
X21781982Y5934469D01*
X21992026Y6074817D01*
X22132374Y6284861D01*
X22138904Y6317690D01*
X22515000Y6317690D01*
X22515000Y5827130D01*
X22673750Y5668380D01*
X23373000Y5668380D01*
X23373000Y6667630D01*
X23214250Y6826380D01*
X23023691Y6826380D01*
X22790302Y6729707D01*
X22611673Y6551079D01*
X22515000Y6317690D01*
X22138904Y6317690D01*
X22181657Y6532626D01*
X22181657Y7132626D01*
X22132374Y7380391D01*
X22074085Y7467626D01*
X22132374Y7554861D01*
X22168466Y7736311D01*
X22403100Y7970944D01*
X22453018Y7850431D01*
X22800429Y7503020D01*
X23254343Y7315002D01*
X23745657Y7315002D01*
X24199571Y7503020D01*
X24461553Y7765002D01*
X24679521Y7765002D01*
X24756833Y7749624D01*
X24834145Y7765002D01*
X24834149Y7765002D01*
X25063125Y7810548D01*
X25322786Y7984049D01*
X25366582Y8049594D01*
X26040829Y8723841D01*
X26106374Y8767637D01*
X26279875Y9027298D01*
X26325421Y9256274D01*
X26325421Y9256278D01*
X26340799Y9333590D01*
X26325421Y9410902D01*
X26325421Y10319427D01*
X26340799Y10396738D01*
X26325421Y10474049D01*
X26325421Y10474053D01*
X26279875Y10703029D01*
X26192331Y10834047D01*
X26150170Y10897146D01*
X26150168Y10897148D01*
X26106374Y10962690D01*
X26040832Y11006484D01*
X25578170Y11469145D01*
X25534374Y11534690D01*
X25274713Y11708191D01*
X25045737Y11753737D01*
X25045733Y11753737D01*
X24994438Y11763940D01*
X25630703Y11763940D01*
X25878468Y11813223D01*
X26088512Y11953571D01*
X26221483Y12152575D01*
X26371004Y12003053D01*
X26604393Y11906380D01*
X27069953Y11906380D01*
X27228703Y12065130D01*
X27228703Y12914380D01*
X27482703Y12914380D01*
X27482703Y12065130D01*
X27641453Y11906380D01*
X28107013Y11906380D01*
X28258038Y11968936D01*
X28265301Y11961673D01*
X28498690Y11865000D01*
X28964250Y11865000D01*
X29123000Y12023750D01*
X29123000Y12873000D01*
X28498333Y12873000D01*
X28456953Y12914380D01*
X27482703Y12914380D01*
X27228703Y12914380D01*
X27208703Y12914380D01*
X27208703Y13168380D01*
X27228703Y13168380D01*
X27228703Y13188380D01*
X27482703Y13188380D01*
X27482703Y13168380D01*
X27482703Y13168380D01*
G37*
X27482703Y13168380D02*
X28107370Y13168380D01*
X28148750Y13127000D01*
X29123000Y13127000D01*
X29123000Y13147000D01*
X29377000Y13147000D01*
X29377000Y13127000D01*
X29397000Y13127000D01*
X29397000Y12873000D01*
X29377000Y12873000D01*
X29377000Y12023750D01*
X29535750Y11865000D01*
X30001310Y11865000D01*
X30234699Y11961673D01*
X30413327Y12140302D01*
X30453224Y12236621D01*
X31015002Y11674842D01*
X31015002Y11660620D01*
X30997894Y11649189D01*
X30857546Y11439145D01*
X30855703Y11429880D01*
X30853860Y11439145D01*
X30713512Y11649189D01*
X30503468Y11789537D01*
X30255703Y11838820D01*
X29555703Y11838820D01*
X29307938Y11789537D01*
X29097894Y11649189D01*
X28957546Y11439145D01*
X28922476Y11262837D01*
X28689750Y11107333D01*
X28645954Y11041788D01*
X27708807Y10104641D01*
X27643265Y10060847D01*
X27599471Y9995305D01*
X27599468Y9995302D01*
X27469763Y9801185D01*
X27408839Y9494894D01*
X27424218Y9417577D01*
X27424217Y5870770D01*
X27153018Y5599571D01*
X26965000Y5145657D01*
X26965000Y4654343D01*
X27153018Y4200429D01*
X27237362Y4116085D01*
X27209217Y4073963D01*
X27063554Y4291963D01*
X26671581Y4553871D01*
X26333170Y4621185D01*
X26348157Y4643615D01*
X26397440Y4891380D01*
X26397440Y6191380D01*
X26348157Y6439145D01*
X26207809Y6649189D01*
X25997765Y6789537D01*
X25750000Y6838820D01*
X25050000Y6838820D01*
X24802235Y6789537D01*
X24592191Y6649189D01*
X24451843Y6439145D01*
X24446279Y6411171D01*
X24388327Y6551079D01*
X24209698Y6729707D01*
X23976309Y6826380D01*
X23785750Y6826380D01*
X23627000Y6667630D01*
X23627000Y5668380D01*
X23647000Y5668380D01*
X23647000Y5414380D01*
X23627000Y5414380D01*
X23627000Y5394380D01*
X23373000Y5394380D01*
X23373000Y5414380D01*
X22673750Y5414380D01*
X22515000Y5255630D01*
X22515000Y4765070D01*
X22603936Y4550360D01*
X22545363Y4581024D01*
X22518961Y4581429D01*
X22336217Y4455987D01*
X22336217Y2864626D01*
X22356217Y2864626D01*
X22356217Y2610626D01*
X22336217Y2610626D01*
X22336217Y1019265D01*
X22518961Y893823D01*
X22545363Y894228D01*
X22957335Y1109902D01*
X23242547Y1451408D01*
X23354880Y1283289D01*
X23746853Y1021381D01*
X24209217Y929411D01*
X24671580Y1021381D01*
X25063554Y1283289D01*
X25175808Y1451289D01*
X25354880Y1183289D01*
X25746853Y921381D01*
X26209217Y829411D01*
X26671580Y921381D01*
X27063554Y1183289D01*
X27209217Y1401289D01*
X27354880Y1183289D01*
X27746853Y921381D01*
X28209217Y829411D01*
X28671580Y921381D01*
X29063554Y1183289D01*
X29209217Y1401289D01*
X29354880Y1183289D01*
X29746853Y921381D01*
X30209217Y829411D01*
X30671580Y921381D01*
X31063554Y1183289D01*
X31209217Y1401289D01*
X31354880Y1183289D01*
X31746853Y921381D01*
X32209217Y829411D01*
X32671580Y921381D01*
X33063554Y1183289D01*
X33209217Y1401289D01*
X33354880Y1183289D01*
X33746853Y921381D01*
X34209217Y829411D01*
X34671580Y921381D01*
X35063554Y1183289D01*
X35209217Y1401289D01*
X35354880Y1183289D01*
X35746853Y921381D01*
X36209217Y829411D01*
X36671580Y921381D01*
X37063554Y1183289D01*
X37325462Y1575262D01*
X37394217Y1920916D01*
X37394217Y3554336D01*
X37325462Y3899990D01*
X37133634Y4187081D01*
X37196982Y4250429D01*
X37385000Y4704343D01*
X37385000Y4914380D01*
X37515001Y4914380D01*
X37515001Y735000D01*
X20583521Y735000D01*
X20954424Y929363D01*
X21283017Y1323133D01*
X21461099Y1109902D01*
X21873071Y894228D01*
X21899473Y893823D01*
X22082217Y1019265D01*
X22082217Y2610626D01*
X22062217Y2610626D01*
X22062217Y2864626D01*
X22082217Y2864626D01*
X22082217Y4455987D01*
X21899473Y4581429D01*
X21873071Y4581024D01*
X21461099Y4365350D01*
X21163021Y4008439D01*
X21024217Y3564626D01*
X21024217Y3487001D01*
X20954424Y3570637D01*
X20456730Y3831442D01*
X20399039Y3841904D01*
X20177000Y3719915D01*
X20177000Y2377000D01*
X20197000Y2377000D01*
X20197000Y2123000D01*
X20177000Y2123000D01*
X20177000Y2103000D01*
X19923000Y2103000D01*
X19923000Y2123000D01*
X18770529Y2123000D01*
X18618066Y1897114D01*
X18785572Y1360774D01*
X19145576Y929363D01*
X19516479Y735000D01*
X14064893Y735000D01*
X14484576Y1015423D01*
X14801740Y1490091D01*
X14885000Y1908667D01*
X14885000Y2591332D01*
X14882702Y2602886D01*
X18618066Y2602886D01*
X18770529Y2377000D01*
X19923000Y2377000D01*
X19923000Y3719915D01*
X19700961Y3841904D01*
X19643270Y3831442D01*
X19145576Y3570637D01*
X18785572Y3139226D01*
X18618066Y2602886D01*
X14882702Y2602886D01*
X14808609Y2975375D01*
X14875321Y3003008D01*
X15222732Y3350419D01*
X15410750Y3804333D01*
X15410750Y4295647D01*
X15222732Y4749561D01*
X15208043Y4764250D01*
X15665000Y4764250D01*
X15665000Y4298690D01*
X15761673Y4065301D01*
X15940302Y3886673D01*
X16173691Y3790000D01*
X16514250Y3790000D01*
X16673000Y3948750D01*
X16673000Y4923000D01*
X15823750Y4923000D01*
X15665000Y4764250D01*
X15208043Y4764250D01*
X14875321Y5096972D01*
X14421407Y5284990D01*
X13930093Y5284990D01*
X13476179Y5096972D01*
X13128768Y4749561D01*
X12974238Y4376493D01*
X12942354Y4536783D01*
X12779905Y4779905D01*
X12536783Y4942354D01*
X12377000Y4974137D01*
X12377000Y7887843D01*
X13932627Y6332215D01*
X13976421Y6266673D01*
X14015790Y6240367D01*
X14126408Y6074817D01*
X14336452Y5934469D01*
X14584217Y5885186D01*
X15699743Y5885186D01*
X15665000Y5801310D01*
X15665000Y5335750D01*
X15823750Y5177000D01*
X16673000Y5177000D01*
X16673000Y6151250D01*
X16655075Y6169175D01*
X16732374Y6284861D01*
X16781657Y6532626D01*
X16781657Y7132626D01*
X16732374Y7380391D01*
X16674085Y7467626D01*
X16732374Y7554861D01*
X16781657Y7802626D01*
X16781657Y8402626D01*
X16732374Y8650391D01*
X16679449Y8729598D01*
X16769217Y8946316D01*
X16769217Y9086876D01*
X16610467Y9245626D01*
X15486217Y9245626D01*
X15486217Y9225626D01*
X15232217Y9225626D01*
X15232217Y9245626D01*
X15212217Y9245626D01*
X15212217Y9499626D01*
X15232217Y9499626D01*
X15232217Y9519626D01*
X15486217Y9519626D01*
X15486217Y9499626D01*
X16610467Y9499626D01*
X16769217Y9658376D01*
X16769217Y9798936D01*
X16679449Y10015654D01*
X16732374Y10094861D01*
X16781657Y10342626D01*
X16781657Y10458185D01*
X17097627Y10142215D01*
X17141421Y10076673D01*
X17206963Y10032879D01*
X17206965Y10032877D01*
X17281999Y9982741D01*
X17401082Y9903172D01*
X17630058Y9857626D01*
X17630062Y9857626D01*
X17707373Y9842248D01*
X17784684Y9857626D01*
X18065001Y9857626D01*
X18065000Y7224395D01*
X18049622Y7147083D01*
X18065000Y7069771D01*
X18065000Y7069768D01*
X18109178Y6847671D01*
X18110546Y6840792D01*
X18203334Y6701926D01*
X18284047Y6581130D01*
X18349592Y6537334D01*
X18554708Y6332218D01*
X18561241Y6322440D01*
X18300000Y6322440D01*
X18052235Y6273157D01*
X17842191Y6132809D01*
X17801346Y6071680D01*
X17659698Y6213327D01*
X17426309Y6310000D01*
X17085750Y6310000D01*
X16927000Y6151250D01*
X16927000Y5177000D01*
X16947000Y5177000D01*
X16947000Y4923000D01*
X16927000Y4923000D01*
X16927000Y3948750D01*
X17085750Y3790000D01*
X17426309Y3790000D01*
X17659698Y3886673D01*
X17801346Y4028320D01*
X17842191Y3967191D01*
X18052235Y3826843D01*
X18300000Y3777560D01*
X19300000Y3777560D01*
X19547765Y3826843D01*
X19757809Y3967191D01*
X19898157Y4177235D01*
X19947440Y4425000D01*
X19947440Y4910692D01*
X20921935Y5885186D01*
X21534217Y5885186D01*
X21781982Y5934469D01*
X21992026Y6074817D01*
X22132374Y6284861D01*
X22138904Y6317690D01*
X22515000Y6317690D01*
X22515000Y5827130D01*
X22673750Y5668380D01*
X23373000Y5668380D01*
X23373000Y6667630D01*
X23214250Y6826380D01*
X23023691Y6826380D01*
X22790302Y6729707D01*
X22611673Y6551079D01*
X22515000Y6317690D01*
X22138904Y6317690D01*
X22181657Y6532626D01*
X22181657Y7132626D01*
X22132374Y7380391D01*
X22074085Y7467626D01*
X22132374Y7554861D01*
X22168466Y7736311D01*
X22403100Y7970944D01*
X22453018Y7850431D01*
X22800429Y7503020D01*
X23254343Y7315002D01*
X23745657Y7315002D01*
X24199571Y7503020D01*
X24461553Y7765002D01*
X24679521Y7765002D01*
X24756833Y7749624D01*
X24834145Y7765002D01*
X24834149Y7765002D01*
X25063125Y7810548D01*
X25322786Y7984049D01*
X25366582Y8049594D01*
X26040829Y8723841D01*
X26106374Y8767637D01*
X26279875Y9027298D01*
X26325421Y9256274D01*
X26325421Y9256278D01*
X26340799Y9333590D01*
X26325421Y9410902D01*
X26325421Y10319427D01*
X26340799Y10396738D01*
X26325421Y10474049D01*
X26325421Y10474053D01*
X26279875Y10703029D01*
X26192331Y10834047D01*
X26150170Y10897146D01*
X26150168Y10897148D01*
X26106374Y10962690D01*
X26040832Y11006484D01*
X25578170Y11469145D01*
X25534374Y11534690D01*
X25274713Y11708191D01*
X25045737Y11753737D01*
X25045733Y11753737D01*
X24994438Y11763940D01*
X25630703Y11763940D01*
X25878468Y11813223D01*
X26088512Y11953571D01*
X26221483Y12152575D01*
X26371004Y12003053D01*
X26604393Y11906380D01*
X27069953Y11906380D01*
X27228703Y12065130D01*
X27228703Y12914380D01*
X27482703Y12914380D01*
X27482703Y12065130D01*
X27641453Y11906380D01*
X28107013Y11906380D01*
X28258038Y11968936D01*
X28265301Y11961673D01*
X28498690Y11865000D01*
X28964250Y11865000D01*
X29123000Y12023750D01*
X29123000Y12873000D01*
X28498333Y12873000D01*
X28456953Y12914380D01*
X27482703Y12914380D01*
X27228703Y12914380D01*
X27208703Y12914380D01*
X27208703Y13168380D01*
X27228703Y13168380D01*
X27228703Y13188380D01*
X27482703Y13188380D01*
X27482703Y13168380D01*
G36*
X20417191Y14083571D02*
X20478320Y14042726D01*
X20336673Y13901078D01*
X20240000Y13667689D01*
X20240000Y13327130D01*
X20398750Y13168380D01*
X21373000Y13168380D01*
X21373000Y13188380D01*
X21627000Y13188380D01*
X21627000Y13168380D01*
X21647000Y13168380D01*
X21647000Y12914380D01*
X21627000Y12914380D01*
X21627000Y12065130D01*
X21785750Y11906380D01*
X22251310Y11906380D01*
X22484699Y12003053D01*
X22547721Y12066075D01*
X22622894Y11953571D01*
X22832938Y11813223D01*
X23080703Y11763940D01*
X23345464Y11763940D01*
X23294169Y11753737D01*
X23294165Y11753737D01*
X23111612Y11717425D01*
X23065189Y11708191D01*
X22871072Y11578486D01*
X22871070Y11578484D01*
X22805528Y11534690D01*
X22761734Y11469148D01*
X22181657Y10889071D01*
X22181657Y10942626D01*
X22132374Y11190391D01*
X21992026Y11400435D01*
X21781982Y11540783D01*
X21534217Y11590066D01*
X19984217Y11590066D01*
X19736452Y11540783D01*
X19567102Y11427626D01*
X19334261Y11427626D01*
X19256949Y11443004D01*
X19179637Y11427626D01*
X18700651Y11427626D01*
X18838327Y11565301D01*
X18935000Y11798690D01*
X18935000Y12264250D01*
X18776250Y12423000D01*
X17927000Y12423000D01*
X17927000Y12403000D01*
X17673000Y12403000D01*
X17673000Y12423000D01*
X17653000Y12423000D01*
X17653000Y12677000D01*
X17673000Y12677000D01*
X17673000Y13651250D01*
X17927000Y13651250D01*
X17927000Y12677000D01*
X18776250Y12677000D01*
X18854880Y12755630D01*
X20240000Y12755630D01*
X20240000Y12415071D01*
X20336673Y12181682D01*
X20515301Y12003053D01*
X20748690Y11906380D01*
X21214250Y11906380D01*
X21373000Y12065130D01*
X21373000Y12914380D01*
X20398750Y12914380D01*
X20240000Y12755630D01*
X18854880Y12755630D01*
X18935000Y12835750D01*
X18935000Y13301310D01*
X18838327Y13534699D01*
X18659698Y13713327D01*
X18426309Y13810000D01*
X18085750Y13810000D01*
X17927000Y13651250D01*
X17673000Y13651250D01*
X17514250Y13810000D01*
X17173691Y13810000D01*
X16940302Y13713327D01*
X16798654Y13571680D01*
X16757809Y13632809D01*
X16547765Y13773157D01*
X16300000Y13822440D01*
X15424113Y13822440D01*
X15349571Y13896982D01*
X14895657Y14085000D01*
X14404343Y14085000D01*
X13950429Y13896982D01*
X13603018Y13549571D01*
X13415000Y13095657D01*
X13415000Y12604343D01*
X13603018Y12150429D01*
X13608456Y12144991D01*
X13498459Y12166871D01*
X13487809Y12182809D01*
X13277765Y12323157D01*
X13030000Y12372440D01*
X12377000Y12372440D01*
X12377000Y14156380D01*
X20368541Y14156380D01*
X20417191Y14083571D01*
X20417191Y14083571D01*
G37*
X20417191Y14083571D02*
X20478320Y14042726D01*
X20336673Y13901078D01*
X20240000Y13667689D01*
X20240000Y13327130D01*
X20398750Y13168380D01*
X21373000Y13168380D01*
X21373000Y13188380D01*
X21627000Y13188380D01*
X21627000Y13168380D01*
X21647000Y13168380D01*
X21647000Y12914380D01*
X21627000Y12914380D01*
X21627000Y12065130D01*
X21785750Y11906380D01*
X22251310Y11906380D01*
X22484699Y12003053D01*
X22547721Y12066075D01*
X22622894Y11953571D01*
X22832938Y11813223D01*
X23080703Y11763940D01*
X23345464Y11763940D01*
X23294169Y11753737D01*
X23294165Y11753737D01*
X23111612Y11717425D01*
X23065189Y11708191D01*
X22871072Y11578486D01*
X22871070Y11578484D01*
X22805528Y11534690D01*
X22761734Y11469148D01*
X22181657Y10889071D01*
X22181657Y10942626D01*
X22132374Y11190391D01*
X21992026Y11400435D01*
X21781982Y11540783D01*
X21534217Y11590066D01*
X19984217Y11590066D01*
X19736452Y11540783D01*
X19567102Y11427626D01*
X19334261Y11427626D01*
X19256949Y11443004D01*
X19179637Y11427626D01*
X18700651Y11427626D01*
X18838327Y11565301D01*
X18935000Y11798690D01*
X18935000Y12264250D01*
X18776250Y12423000D01*
X17927000Y12423000D01*
X17927000Y12403000D01*
X17673000Y12403000D01*
X17673000Y12423000D01*
X17653000Y12423000D01*
X17653000Y12677000D01*
X17673000Y12677000D01*
X17673000Y13651250D01*
X17927000Y13651250D01*
X17927000Y12677000D01*
X18776250Y12677000D01*
X18854880Y12755630D01*
X20240000Y12755630D01*
X20240000Y12415071D01*
X20336673Y12181682D01*
X20515301Y12003053D01*
X20748690Y11906380D01*
X21214250Y11906380D01*
X21373000Y12065130D01*
X21373000Y12914380D01*
X20398750Y12914380D01*
X20240000Y12755630D01*
X18854880Y12755630D01*
X18935000Y12835750D01*
X18935000Y13301310D01*
X18838327Y13534699D01*
X18659698Y13713327D01*
X18426309Y13810000D01*
X18085750Y13810000D01*
X17927000Y13651250D01*
X17673000Y13651250D01*
X17514250Y13810000D01*
X17173691Y13810000D01*
X16940302Y13713327D01*
X16798654Y13571680D01*
X16757809Y13632809D01*
X16547765Y13773157D01*
X16300000Y13822440D01*
X15424113Y13822440D01*
X15349571Y13896982D01*
X14895657Y14085000D01*
X14404343Y14085000D01*
X13950429Y13896982D01*
X13603018Y13549571D01*
X13415000Y13095657D01*
X13415000Y12604343D01*
X13603018Y12150429D01*
X13608456Y12144991D01*
X13498459Y12166871D01*
X13487809Y12182809D01*
X13277765Y12323157D01*
X13030000Y12372440D01*
X12377000Y12372440D01*
X12377000Y14156380D01*
X20368541Y14156380D01*
X20417191Y14083571D01*
G36*
X24382546Y12163615D02*
X24482703Y12013721D01*
X24482703Y11935130D01*
X24641453Y11776380D01*
X24807013Y11776380D01*
X24843072Y11791316D01*
X24961554Y11767749D01*
X24891109Y11753737D01*
X23448793Y11753737D01*
X23397498Y11763940D01*
X23730703Y11763940D01*
X23868334Y11791316D01*
X23904393Y11776380D01*
X24069953Y11776380D01*
X24228703Y11935130D01*
X24228703Y12013721D01*
X24328860Y12163615D01*
X24355703Y12298565D01*
X24382546Y12163615D01*
X24382546Y12163615D01*
G37*
X24382546Y12163615D02*
X24482703Y12013721D01*
X24482703Y11935130D01*
X24641453Y11776380D01*
X24807013Y11776380D01*
X24843072Y11791316D01*
X24961554Y11767749D01*
X24891109Y11753737D01*
X23448793Y11753737D01*
X23397498Y11763940D01*
X23730703Y11763940D01*
X23868334Y11791316D01*
X23904393Y11776380D01*
X24069953Y11776380D01*
X24228703Y11935130D01*
X24228703Y12013721D01*
X24328860Y12163615D01*
X24355703Y12298565D01*
X24382546Y12163615D01*
G36*
X19015423Y19734576D02*
X18698260Y19259908D01*
X18615000Y18841332D01*
X18615000Y18158667D01*
X18698260Y17740091D01*
X19015424Y17265423D01*
X19360276Y17035000D01*
X15761553Y17035000D01*
X15499571Y17296982D01*
X15045657Y17485000D01*
X14609472Y17485000D01*
X14714428Y17610774D01*
X14881934Y18147114D01*
X14729471Y18373000D01*
X13577000Y18373000D01*
X13577000Y17030085D01*
X13747555Y16936382D01*
X13565000Y16495657D01*
X13565000Y16004343D01*
X13597293Y15926380D01*
X12714481Y15926380D01*
X12779905Y15970095D01*
X12942354Y16213217D01*
X12999399Y16500000D01*
X12985000Y16572388D01*
X12985000Y16949093D01*
X13043270Y16918558D01*
X13100961Y16908096D01*
X13323000Y17030085D01*
X13323000Y18373000D01*
X13303000Y18373000D01*
X13303000Y18627000D01*
X13323000Y18627000D01*
X13323000Y18647000D01*
X13577000Y18647000D01*
X13577000Y18627000D01*
X14729471Y18627000D01*
X14881934Y18852886D01*
X14714428Y19389226D01*
X14354424Y19820637D01*
X13983521Y20015000D01*
X19435106Y20015000D01*
X19015423Y19734576D01*
X19015423Y19734576D01*
G37*
X19015423Y19734576D02*
X18698260Y19259908D01*
X18615000Y18841332D01*
X18615000Y18158667D01*
X18698260Y17740091D01*
X19015424Y17265423D01*
X19360276Y17035000D01*
X15761553Y17035000D01*
X15499571Y17296982D01*
X15045657Y17485000D01*
X14609472Y17485000D01*
X14714428Y17610774D01*
X14881934Y18147114D01*
X14729471Y18373000D01*
X13577000Y18373000D01*
X13577000Y17030085D01*
X13747555Y16936382D01*
X13565000Y16495657D01*
X13565000Y16004343D01*
X13597293Y15926380D01*
X12714481Y15926380D01*
X12779905Y15970095D01*
X12942354Y16213217D01*
X12999399Y16500000D01*
X12985000Y16572388D01*
X12985000Y16949093D01*
X13043270Y16918558D01*
X13100961Y16908096D01*
X13323000Y17030085D01*
X13323000Y18373000D01*
X13303000Y18373000D01*
X13303000Y18627000D01*
X13323000Y18627000D01*
X13323000Y18647000D01*
X13577000Y18647000D01*
X13577000Y18627000D01*
X14729471Y18627000D01*
X14881934Y18852886D01*
X14714428Y19389226D01*
X14354424Y19820637D01*
X13983521Y20015000D01*
X19435106Y20015000D01*
X19015423Y19734576D01*
G04 #@! TD*
M02*
