M48
;DRILL file {KiCad 5.0.2-bee76a0~70~ubuntu18.04.1} date Tue 17 Mar 2020 07:10:15 PM EDT
;FORMAT={-:-/ absolute / metric / decimal}
FMAT,2
METRIC,TZ
T1C0.600
T2C0.650
T3C1.000
%
G90
G05
T1
X12.367Y12.563
X13.573Y5.007
X13.7Y16.627
X18.273Y8.753
X18.59Y12.246
X22.4Y11.992
X24.686Y8.944
X24.8Y10.65
X26.21Y5.261
X29.258Y11.103
X29.575Y13.516
X29.893Y4.626
X31.925Y4.753
X34.05Y5.025
X36.239Y5.243
X37.225Y11.95
T2
X22.209Y17.438
X22.209Y3.438
X24.209Y17.438
X24.209Y3.438
X26.209Y17.438
X26.209Y3.438
X28.209Y17.438
X28.209Y3.438
X30.209Y17.438
X30.209Y3.438
X32.209Y17.438
X32.209Y3.438
X34.209Y17.438
X34.209Y3.438
X36.209Y17.438
X36.209Y3.438
T3
X13.45Y18.5
X20.05Y18.5
X13.45Y2.25
X20.05Y2.25
T0
M30
