M48
;DRILL file {KiCad 5.0.2-bee76a0~70~ubuntu18.04.1} date Sun 03 Nov 2019 09:02:43 PM EST
;FORMAT={-:-/ absolute / metric / decimal}
FMAT,2
METRIC,TZ
T1C0.650
T2C0.800
T3C1.000
%
G90
G05
T1
X22.209Y17.438
X22.209Y3.438
X24.209Y17.438
X24.209Y3.438
X26.209Y17.438
X26.209Y3.438
X28.209Y17.438
X28.209Y3.438
X30.209Y17.438
X30.209Y3.438
X32.209Y17.438
X32.209Y3.438
X34.209Y17.438
X34.209Y3.438
X36.209Y17.438
X36.209Y3.438
T2
X13.5Y16.95
X13.5Y14.
X14.25Y4.25
X17.Y13.25
X17.25Y17.
X21.25Y8.5
X21.5Y10.05
X27.25Y11.5
X27.75Y4.75
X34.Y4.5
X35.65Y5.486
X37.2Y5.5
T3
X13.45Y18.5
X20.05Y18.5
X13.45Y2.25
X20.05Y2.25
T0
M30
