M48
;DRILL file {KiCad 5.0.2-bee76a0~70~ubuntu18.04.1} date Mon 04 Nov 2019 06:15:42 PM EST
;FORMAT={-:-/ absolute / metric / decimal}
FMAT,2
METRIC,TZ
T1C0.650
T2C0.800
T3C1.000
%
G90
G05
T1
X22.209Y17.438
X22.209Y3.438
X24.209Y17.438
X24.209Y3.438
X26.209Y17.438
X26.209Y3.438
X28.209Y17.438
X28.209Y3.438
X30.209Y17.438
X30.209Y3.438
X32.209Y17.438
X32.209Y3.438
X34.209Y17.438
X34.209Y3.438
X36.209Y17.438
X36.209Y3.438
T2
X14.176Y4.05
X14.65Y12.85
X14.8Y16.25
X17.05Y17.35
X19.5Y13.55
X23.5Y8.55
X24.44Y9.869
X28.2Y4.9
X33.75Y4.75
X36.15Y4.95
T3
X13.45Y18.5
X20.05Y18.5
X13.45Y2.25
X20.05Y2.25
T0
M30
