G04 #@! TF.GenerationSoftware,KiCad,Pcbnew,5.0.2-bee76a0~70~ubuntu18.04.1*
G04 #@! TF.CreationDate,2020-01-26T10:23:02-05:00*
G04 #@! TF.ProjectId,ESP-AHT10-Extra,4553502d-4148-4543-9130-2d4578747261,1.4*
G04 #@! TF.SameCoordinates,PX7bfa480PY66c2270*
G04 #@! TF.FileFunction,Copper,L1,Top*
G04 #@! TF.FilePolarity,Positive*
%FSLAX46Y46*%
G04 Gerber Fmt 4.6, Leading zero omitted, Abs format (unit mm)*
G04 Created by KiCad (PCBNEW 5.0.2-bee76a0~70~ubuntu18.04.1) date Sun 26 Jan 2020 10:23:02 AM EST*
%MOMM*%
%LPD*%
G01*
G04 APERTURE LIST*
G04 #@! TA.AperFunction,ComponentPad*
%ADD10R,1.100000X2.500000*%
G04 #@! TD*
G04 #@! TA.AperFunction,ComponentPad*
%ADD11O,1.100000X2.500000*%
G04 #@! TD*
G04 #@! TA.AperFunction,ComponentPad*
%ADD12O,1.600000X2.000000*%
G04 #@! TD*
G04 #@! TA.AperFunction,ViaPad*
%ADD13C,1.200000*%
G04 #@! TD*
G04 #@! TA.AperFunction,Conductor*
%ADD14C,0.300000*%
G04 #@! TD*
G04 #@! TA.AperFunction,Conductor*
%ADD15C,0.254000*%
G04 #@! TD*
G04 APERTURE END LIST*
D10*
G04 #@! TO.P,U3,1*
G04 #@! TO.N,Net-(R2-Pad1)*
X36209217Y18137626D03*
D11*
G04 #@! TO.P,U3,2*
G04 #@! TO.N,N/C*
X34209217Y18137626D03*
G04 #@! TO.P,U3,3*
G04 #@! TO.N,Net-(R1-Pad2)*
X32209217Y18137626D03*
G04 #@! TO.P,U3,4*
G04 #@! TO.N,Net-(R2-Pad2)*
X30209217Y18137626D03*
G04 #@! TO.P,U3,5*
G04 #@! TO.N,N/C*
X28209217Y18137626D03*
G04 #@! TO.P,U3,6*
X26209217Y18137626D03*
G04 #@! TO.P,U3,7*
X24209217Y18137626D03*
G04 #@! TO.P,U3,8*
G04 #@! TO.N,3V3*
X22209217Y18137626D03*
G04 #@! TO.P,U3,9*
G04 #@! TO.N,GND*
X22209217Y2737626D03*
G04 #@! TO.P,U3,10*
G04 #@! TO.N,Net-(R4-Pad1)*
X24209217Y2837626D03*
G04 #@! TO.P,U3,11*
G04 #@! TO.N,N/C*
X26209217Y2737626D03*
G04 #@! TO.P,U3,12*
G04 #@! TO.N,Net-(R5-Pad2)*
X28209217Y2737626D03*
G04 #@! TO.P,U3,13*
G04 #@! TO.N,SDA*
X30209217Y2737626D03*
G04 #@! TO.P,U3,14*
G04 #@! TO.N,SCL*
X32209217Y2737626D03*
G04 #@! TO.P,U3,15*
G04 #@! TO.N,eRX*
X34209217Y2737626D03*
G04 #@! TO.P,U3,16*
G04 #@! TO.N,eTX*
X36209217Y2737626D03*
G04 #@! TD*
D12*
G04 #@! TO.P,SW1,2*
G04 #@! TO.N,GND*
X13450000Y18500000D03*
G04 #@! TO.P,SW1,1*
G04 #@! TO.N,Net-(R2-Pad2)*
X20050000Y18500000D03*
G04 #@! TD*
G04 #@! TO.P,SW2,1*
G04 #@! TO.N,Net-(R5-Pad2)*
X13450000Y2250000D03*
G04 #@! TO.P,SW2,2*
G04 #@! TO.N,GND*
X20050000Y2250000D03*
G04 #@! TD*
D13*
G04 #@! TO.N,GND*
X37225000Y11950000D03*
X13700500Y11801500D03*
X13700500Y16627500D03*
X31800000Y10750000D03*
X28877000Y11950000D03*
X26900000Y11050000D03*
G04 #@! TO.N,eRX*
X34050000Y5025000D03*
X24686000Y8944000D03*
G04 #@! TO.N,eTX*
X36239335Y5243178D03*
X24800000Y10650000D03*
G04 #@! TD*
D14*
G04 #@! TO.N,GND*
X13700500Y11801500D02*
X13700500Y16627500D01*
X28877000Y11950000D02*
X37225000Y11950000D01*
X31800000Y10750000D02*
X30600000Y11950000D01*
X30600000Y11950000D02*
X28877000Y11950000D01*
X27800000Y11950000D02*
X28877000Y11950000D01*
X26900000Y11050000D02*
X27800000Y11950000D01*
G04 #@! TO.N,eRX*
X24686000Y8944000D02*
X24686000Y7914002D01*
X24686000Y7914002D02*
X27575002Y5025000D01*
X27575002Y5025000D02*
X34050000Y5025000D01*
G04 #@! TO.N,eTX*
X35032513Y6450000D02*
X36239335Y5243178D01*
X29300000Y6450000D02*
X35032513Y6450000D01*
X24800000Y10650000D02*
X25100000Y10650000D01*
X25100000Y10650000D02*
X29300000Y6450000D01*
G04 #@! TD*
D15*
G04 #@! TO.N,GND*
G36*
X19015423Y19734576D02*
X18698260Y19259908D01*
X18615000Y18841332D01*
X18615000Y18158667D01*
X18698260Y17740091D01*
X19015424Y17265423D01*
X19490092Y16948260D01*
X20050000Y16836887D01*
X20609909Y16948260D01*
X21041042Y17236334D01*
X21092972Y16975263D01*
X21354880Y16583289D01*
X21746853Y16321381D01*
X22209217Y16229411D01*
X22671580Y16321381D01*
X23063554Y16583289D01*
X23209217Y16801289D01*
X23354880Y16583289D01*
X23746853Y16321381D01*
X24209217Y16229411D01*
X24671580Y16321381D01*
X25063554Y16583289D01*
X25209217Y16801289D01*
X25354880Y16583289D01*
X25746853Y16321381D01*
X26209217Y16229411D01*
X26671580Y16321381D01*
X27063554Y16583289D01*
X27209217Y16801289D01*
X27354880Y16583289D01*
X27746853Y16321381D01*
X28209217Y16229411D01*
X28671580Y16321381D01*
X29063554Y16583289D01*
X29209217Y16801289D01*
X29354880Y16583289D01*
X29746853Y16321381D01*
X30209217Y16229411D01*
X30671580Y16321381D01*
X31063554Y16583289D01*
X31209217Y16801289D01*
X31354880Y16583289D01*
X31746853Y16321381D01*
X32209217Y16229411D01*
X32671580Y16321381D01*
X33063554Y16583289D01*
X33209217Y16801289D01*
X33354880Y16583289D01*
X33746853Y16321381D01*
X34209217Y16229411D01*
X34671580Y16321381D01*
X35063554Y16583289D01*
X35081207Y16609709D01*
X35201408Y16429817D01*
X35411452Y16289469D01*
X35659217Y16240186D01*
X36759217Y16240186D01*
X37006982Y16289469D01*
X37217026Y16429817D01*
X37357374Y16639861D01*
X37406657Y16887626D01*
X37406657Y19387626D01*
X37381445Y19514379D01*
X37459549Y19379912D01*
X37537787Y19042369D01*
X37540000Y18986045D01*
X37540000Y11783607D01*
X30059398Y11768810D01*
X30010772Y11759028D01*
X29969635Y11731401D01*
X29942202Y11690134D01*
X29932649Y11641511D01*
X29943029Y7235000D01*
X29625158Y7235000D01*
X26035000Y10825157D01*
X26035000Y10895657D01*
X25846982Y11349571D01*
X25499571Y11696982D01*
X25045657Y11885000D01*
X24554343Y11885000D01*
X24100429Y11696982D01*
X23753018Y11349571D01*
X23565000Y10895657D01*
X23565000Y10404343D01*
X23753018Y9950429D01*
X23849447Y9854000D01*
X23639018Y9643571D01*
X23451000Y9189657D01*
X23451000Y8698343D01*
X23639018Y8244429D01*
X23899529Y7983918D01*
X23885622Y7914002D01*
X23946546Y7607711D01*
X24076251Y7413594D01*
X24076254Y7413591D01*
X24120048Y7348049D01*
X24185590Y7304255D01*
X26965255Y4524589D01*
X27009049Y4459047D01*
X27074591Y4415253D01*
X27074593Y4415251D01*
X27178800Y4345622D01*
X27268710Y4285546D01*
X27340987Y4271169D01*
X27209217Y4073963D01*
X27063554Y4291963D01*
X26671581Y4553871D01*
X26209217Y4645841D01*
X25746854Y4553871D01*
X25354881Y4291963D01*
X25242626Y4123962D01*
X25063554Y4391963D01*
X24671581Y4653871D01*
X24209217Y4745841D01*
X23746854Y4653871D01*
X23354881Y4391963D01*
X23168307Y4112737D01*
X22957335Y4365350D01*
X22545363Y4581024D01*
X22518961Y4581429D01*
X22336217Y4455987D01*
X22336217Y2864626D01*
X22356217Y2864626D01*
X22356217Y2610626D01*
X22336217Y2610626D01*
X22336217Y1019265D01*
X22518961Y893823D01*
X22545363Y894228D01*
X22957335Y1109902D01*
X23242547Y1451408D01*
X23354880Y1283289D01*
X23746853Y1021381D01*
X24209217Y929411D01*
X24671580Y1021381D01*
X25063554Y1283289D01*
X25175808Y1451289D01*
X25354880Y1183289D01*
X25746853Y921381D01*
X26209217Y829411D01*
X26671580Y921381D01*
X27063554Y1183289D01*
X27209217Y1401289D01*
X27354880Y1183289D01*
X27746853Y921381D01*
X28209217Y829411D01*
X28671580Y921381D01*
X29063554Y1183289D01*
X29209217Y1401289D01*
X29354880Y1183289D01*
X29746853Y921381D01*
X30209217Y829411D01*
X30671580Y921381D01*
X31063554Y1183289D01*
X31209217Y1401289D01*
X31354880Y1183289D01*
X31746853Y921381D01*
X32209217Y829411D01*
X32671580Y921381D01*
X33063554Y1183289D01*
X33209217Y1401289D01*
X33354880Y1183289D01*
X33746853Y921381D01*
X34209217Y829411D01*
X34671580Y921381D01*
X35063554Y1183289D01*
X35209217Y1401289D01*
X35354880Y1183289D01*
X35746853Y921381D01*
X36209217Y829411D01*
X36671580Y921381D01*
X37063554Y1183289D01*
X37325462Y1575262D01*
X37394217Y1920916D01*
X37394217Y3554336D01*
X37325462Y3899990D01*
X37063554Y4291963D01*
X37046241Y4303531D01*
X37286317Y4543607D01*
X37443709Y4923583D01*
X37540001Y4922610D01*
X37540001Y1803077D01*
X37486399Y1446546D01*
X37353564Y1169917D01*
X37145264Y944580D01*
X36879912Y790451D01*
X36542369Y712213D01*
X36486045Y710000D01*
X20535814Y710000D01*
X20954424Y929363D01*
X21283017Y1323133D01*
X21461099Y1109902D01*
X21873071Y894228D01*
X21899473Y893823D01*
X22082217Y1019265D01*
X22082217Y2610626D01*
X22062217Y2610626D01*
X22062217Y2864626D01*
X22082217Y2864626D01*
X22082217Y4455987D01*
X21899473Y4581429D01*
X21873071Y4581024D01*
X21461099Y4365350D01*
X21163021Y4008439D01*
X21024217Y3564626D01*
X21024217Y3487001D01*
X20954424Y3570637D01*
X20456730Y3831442D01*
X20399039Y3841904D01*
X20177000Y3719915D01*
X20177000Y2377000D01*
X20197000Y2377000D01*
X20197000Y2123000D01*
X20177000Y2123000D01*
X20177000Y2103000D01*
X19923000Y2103000D01*
X19923000Y2123000D01*
X18770529Y2123000D01*
X18618066Y1897114D01*
X18785572Y1360774D01*
X19145576Y929363D01*
X19564186Y710000D01*
X14053070Y710000D01*
X14032179Y713141D01*
X14484576Y1015423D01*
X14801740Y1490091D01*
X14885000Y1908667D01*
X14885000Y2591332D01*
X14882702Y2602886D01*
X18618066Y2602886D01*
X18770529Y2377000D01*
X19923000Y2377000D01*
X19923000Y3719915D01*
X19700961Y3841904D01*
X19643270Y3831442D01*
X19145576Y3570637D01*
X18785572Y3139226D01*
X18618066Y2602886D01*
X14882702Y2602886D01*
X14801740Y3009908D01*
X14484577Y3484577D01*
X14009909Y3801740D01*
X13450000Y3913113D01*
X12912985Y3806294D01*
X12870238Y4021196D01*
X12764223Y4277137D01*
X12764223Y4277138D01*
X12547451Y4601562D01*
X12351562Y4797450D01*
X12351561Y4797451D01*
X12027138Y5014224D01*
X11843368Y5090343D01*
X11771196Y5120238D01*
X11388513Y5196358D01*
X11388509Y5196358D01*
X11319926Y5210000D01*
X9627000Y5210000D01*
X9627000Y15540000D01*
X11319926Y15540000D01*
X11388509Y15553642D01*
X11388513Y15553642D01*
X11771196Y15629762D01*
X11846160Y15660813D01*
X12027138Y15735776D01*
X12351561Y15952549D01*
X12371984Y15972972D01*
X12547451Y16148438D01*
X12764223Y16472862D01*
X12833396Y16639861D01*
X12870238Y16728804D01*
X12920753Y16982760D01*
X13043270Y16918558D01*
X13100961Y16908096D01*
X13323000Y17030085D01*
X13323000Y18373000D01*
X13577000Y18373000D01*
X13577000Y17030085D01*
X13799039Y16908096D01*
X13856730Y16918558D01*
X14354424Y17179363D01*
X14714428Y17610774D01*
X14881934Y18147114D01*
X14729471Y18373000D01*
X13577000Y18373000D01*
X13323000Y18373000D01*
X13303000Y18373000D01*
X13303000Y18627000D01*
X13323000Y18627000D01*
X13323000Y18647000D01*
X13577000Y18647000D01*
X13577000Y18627000D01*
X14729471Y18627000D01*
X14881934Y18852886D01*
X14714428Y19389226D01*
X14354424Y19820637D01*
X13945433Y20034959D01*
X13957631Y20037787D01*
X14013955Y20040000D01*
X19472521Y20040000D01*
X19015423Y19734576D01*
X19015423Y19734576D01*
G37*
X19015423Y19734576D02*
X18698260Y19259908D01*
X18615000Y18841332D01*
X18615000Y18158667D01*
X18698260Y17740091D01*
X19015424Y17265423D01*
X19490092Y16948260D01*
X20050000Y16836887D01*
X20609909Y16948260D01*
X21041042Y17236334D01*
X21092972Y16975263D01*
X21354880Y16583289D01*
X21746853Y16321381D01*
X22209217Y16229411D01*
X22671580Y16321381D01*
X23063554Y16583289D01*
X23209217Y16801289D01*
X23354880Y16583289D01*
X23746853Y16321381D01*
X24209217Y16229411D01*
X24671580Y16321381D01*
X25063554Y16583289D01*
X25209217Y16801289D01*
X25354880Y16583289D01*
X25746853Y16321381D01*
X26209217Y16229411D01*
X26671580Y16321381D01*
X27063554Y16583289D01*
X27209217Y16801289D01*
X27354880Y16583289D01*
X27746853Y16321381D01*
X28209217Y16229411D01*
X28671580Y16321381D01*
X29063554Y16583289D01*
X29209217Y16801289D01*
X29354880Y16583289D01*
X29746853Y16321381D01*
X30209217Y16229411D01*
X30671580Y16321381D01*
X31063554Y16583289D01*
X31209217Y16801289D01*
X31354880Y16583289D01*
X31746853Y16321381D01*
X32209217Y16229411D01*
X32671580Y16321381D01*
X33063554Y16583289D01*
X33209217Y16801289D01*
X33354880Y16583289D01*
X33746853Y16321381D01*
X34209217Y16229411D01*
X34671580Y16321381D01*
X35063554Y16583289D01*
X35081207Y16609709D01*
X35201408Y16429817D01*
X35411452Y16289469D01*
X35659217Y16240186D01*
X36759217Y16240186D01*
X37006982Y16289469D01*
X37217026Y16429817D01*
X37357374Y16639861D01*
X37406657Y16887626D01*
X37406657Y19387626D01*
X37381445Y19514379D01*
X37459549Y19379912D01*
X37537787Y19042369D01*
X37540000Y18986045D01*
X37540000Y11783607D01*
X30059398Y11768810D01*
X30010772Y11759028D01*
X29969635Y11731401D01*
X29942202Y11690134D01*
X29932649Y11641511D01*
X29943029Y7235000D01*
X29625158Y7235000D01*
X26035000Y10825157D01*
X26035000Y10895657D01*
X25846982Y11349571D01*
X25499571Y11696982D01*
X25045657Y11885000D01*
X24554343Y11885000D01*
X24100429Y11696982D01*
X23753018Y11349571D01*
X23565000Y10895657D01*
X23565000Y10404343D01*
X23753018Y9950429D01*
X23849447Y9854000D01*
X23639018Y9643571D01*
X23451000Y9189657D01*
X23451000Y8698343D01*
X23639018Y8244429D01*
X23899529Y7983918D01*
X23885622Y7914002D01*
X23946546Y7607711D01*
X24076251Y7413594D01*
X24076254Y7413591D01*
X24120048Y7348049D01*
X24185590Y7304255D01*
X26965255Y4524589D01*
X27009049Y4459047D01*
X27074591Y4415253D01*
X27074593Y4415251D01*
X27178800Y4345622D01*
X27268710Y4285546D01*
X27340987Y4271169D01*
X27209217Y4073963D01*
X27063554Y4291963D01*
X26671581Y4553871D01*
X26209217Y4645841D01*
X25746854Y4553871D01*
X25354881Y4291963D01*
X25242626Y4123962D01*
X25063554Y4391963D01*
X24671581Y4653871D01*
X24209217Y4745841D01*
X23746854Y4653871D01*
X23354881Y4391963D01*
X23168307Y4112737D01*
X22957335Y4365350D01*
X22545363Y4581024D01*
X22518961Y4581429D01*
X22336217Y4455987D01*
X22336217Y2864626D01*
X22356217Y2864626D01*
X22356217Y2610626D01*
X22336217Y2610626D01*
X22336217Y1019265D01*
X22518961Y893823D01*
X22545363Y894228D01*
X22957335Y1109902D01*
X23242547Y1451408D01*
X23354880Y1283289D01*
X23746853Y1021381D01*
X24209217Y929411D01*
X24671580Y1021381D01*
X25063554Y1283289D01*
X25175808Y1451289D01*
X25354880Y1183289D01*
X25746853Y921381D01*
X26209217Y829411D01*
X26671580Y921381D01*
X27063554Y1183289D01*
X27209217Y1401289D01*
X27354880Y1183289D01*
X27746853Y921381D01*
X28209217Y829411D01*
X28671580Y921381D01*
X29063554Y1183289D01*
X29209217Y1401289D01*
X29354880Y1183289D01*
X29746853Y921381D01*
X30209217Y829411D01*
X30671580Y921381D01*
X31063554Y1183289D01*
X31209217Y1401289D01*
X31354880Y1183289D01*
X31746853Y921381D01*
X32209217Y829411D01*
X32671580Y921381D01*
X33063554Y1183289D01*
X33209217Y1401289D01*
X33354880Y1183289D01*
X33746853Y921381D01*
X34209217Y829411D01*
X34671580Y921381D01*
X35063554Y1183289D01*
X35209217Y1401289D01*
X35354880Y1183289D01*
X35746853Y921381D01*
X36209217Y829411D01*
X36671580Y921381D01*
X37063554Y1183289D01*
X37325462Y1575262D01*
X37394217Y1920916D01*
X37394217Y3554336D01*
X37325462Y3899990D01*
X37063554Y4291963D01*
X37046241Y4303531D01*
X37286317Y4543607D01*
X37443709Y4923583D01*
X37540001Y4922610D01*
X37540001Y1803077D01*
X37486399Y1446546D01*
X37353564Y1169917D01*
X37145264Y944580D01*
X36879912Y790451D01*
X36542369Y712213D01*
X36486045Y710000D01*
X20535814Y710000D01*
X20954424Y929363D01*
X21283017Y1323133D01*
X21461099Y1109902D01*
X21873071Y894228D01*
X21899473Y893823D01*
X22082217Y1019265D01*
X22082217Y2610626D01*
X22062217Y2610626D01*
X22062217Y2864626D01*
X22082217Y2864626D01*
X22082217Y4455987D01*
X21899473Y4581429D01*
X21873071Y4581024D01*
X21461099Y4365350D01*
X21163021Y4008439D01*
X21024217Y3564626D01*
X21024217Y3487001D01*
X20954424Y3570637D01*
X20456730Y3831442D01*
X20399039Y3841904D01*
X20177000Y3719915D01*
X20177000Y2377000D01*
X20197000Y2377000D01*
X20197000Y2123000D01*
X20177000Y2123000D01*
X20177000Y2103000D01*
X19923000Y2103000D01*
X19923000Y2123000D01*
X18770529Y2123000D01*
X18618066Y1897114D01*
X18785572Y1360774D01*
X19145576Y929363D01*
X19564186Y710000D01*
X14053070Y710000D01*
X14032179Y713141D01*
X14484576Y1015423D01*
X14801740Y1490091D01*
X14885000Y1908667D01*
X14885000Y2591332D01*
X14882702Y2602886D01*
X18618066Y2602886D01*
X18770529Y2377000D01*
X19923000Y2377000D01*
X19923000Y3719915D01*
X19700961Y3841904D01*
X19643270Y3831442D01*
X19145576Y3570637D01*
X18785572Y3139226D01*
X18618066Y2602886D01*
X14882702Y2602886D01*
X14801740Y3009908D01*
X14484577Y3484577D01*
X14009909Y3801740D01*
X13450000Y3913113D01*
X12912985Y3806294D01*
X12870238Y4021196D01*
X12764223Y4277137D01*
X12764223Y4277138D01*
X12547451Y4601562D01*
X12351562Y4797450D01*
X12351561Y4797451D01*
X12027138Y5014224D01*
X11843368Y5090343D01*
X11771196Y5120238D01*
X11388513Y5196358D01*
X11388509Y5196358D01*
X11319926Y5210000D01*
X9627000Y5210000D01*
X9627000Y15540000D01*
X11319926Y15540000D01*
X11388509Y15553642D01*
X11388513Y15553642D01*
X11771196Y15629762D01*
X11846160Y15660813D01*
X12027138Y15735776D01*
X12351561Y15952549D01*
X12371984Y15972972D01*
X12547451Y16148438D01*
X12764223Y16472862D01*
X12833396Y16639861D01*
X12870238Y16728804D01*
X12920753Y16982760D01*
X13043270Y16918558D01*
X13100961Y16908096D01*
X13323000Y17030085D01*
X13323000Y18373000D01*
X13577000Y18373000D01*
X13577000Y17030085D01*
X13799039Y16908096D01*
X13856730Y16918558D01*
X14354424Y17179363D01*
X14714428Y17610774D01*
X14881934Y18147114D01*
X14729471Y18373000D01*
X13577000Y18373000D01*
X13323000Y18373000D01*
X13303000Y18373000D01*
X13303000Y18627000D01*
X13323000Y18627000D01*
X13323000Y18647000D01*
X13577000Y18647000D01*
X13577000Y18627000D01*
X14729471Y18627000D01*
X14881934Y18852886D01*
X14714428Y19389226D01*
X14354424Y19820637D01*
X13945433Y20034959D01*
X13957631Y20037787D01*
X14013955Y20040000D01*
X19472521Y20040000D01*
X19015423Y19734576D01*
G04 #@! TD*
M02*
