G04 #@! TF.GenerationSoftware,KiCad,Pcbnew,5.0.2-bee76a0~70~ubuntu18.04.1*
G04 #@! TF.CreationDate,2019-11-16T10:07:33-05:00*
G04 #@! TF.ProjectId,ESP-AHT10-Extra,4553502d-4148-4543-9130-2d4578747261,1.2*
G04 #@! TF.SameCoordinates,PX7bfa480PY66c2270*
G04 #@! TF.FileFunction,Other,Fab,Top*
%FSLAX46Y46*%
G04 Gerber Fmt 4.6, Leading zero omitted, Abs format (unit mm)*
G04 Created by KiCad (PCBNEW 5.0.2-bee76a0~70~ubuntu18.04.1) date Sat 16 Nov 2019 10:07:33 AM EST*
%MOMM*%
%LPD*%
G01*
G04 APERTURE LIST*
%ADD10C,0.050000*%
%ADD11C,0.150000*%
G04 APERTURE END LIST*
D10*
G04 #@! TO.C,U3*
X44609217Y2437626D02*
X20609217Y2437626D01*
X20609217Y2445626D02*
X20609217Y18445626D01*
X20609217Y18445626D02*
X44609217Y18445626D01*
X44609217Y18445626D02*
X44609217Y2445626D01*
D11*
G04 #@! TO.C,SW1*
X20000000Y16500000D02*
X13500000Y16500000D01*
X20000000Y20500000D02*
X20000000Y16500000D01*
X13500000Y20500000D02*
X20000000Y20500000D01*
X13500000Y16500000D02*
X13500000Y20500000D01*
G04 #@! TO.C,SW2*
X20000000Y4250000D02*
X20000000Y250000D01*
X20000000Y250000D02*
X13500000Y250000D01*
X13500000Y250000D02*
X13500000Y4250000D01*
X13500000Y4250000D02*
X20000000Y4250000D01*
G04 #@! TD*
G04 #@! TO.C,U3*
X35137788Y6675722D02*
X35137788Y7009055D01*
X35661597Y7151912D02*
X35661597Y6675722D01*
X34661597Y6675722D01*
X34661597Y7151912D01*
X35613978Y7532865D02*
X35661597Y7675722D01*
X35661597Y7913817D01*
X35613978Y8009055D01*
X35566359Y8056674D01*
X35471121Y8104293D01*
X35375883Y8104293D01*
X35280645Y8056674D01*
X35233026Y8009055D01*
X35185407Y7913817D01*
X35137788Y7723341D01*
X35090169Y7628103D01*
X35042550Y7580484D01*
X34947312Y7532865D01*
X34852074Y7532865D01*
X34756836Y7580484D01*
X34709217Y7628103D01*
X34661597Y7723341D01*
X34661597Y7961436D01*
X34709217Y8104293D01*
X35661597Y8532865D02*
X34661597Y8532865D01*
X34661597Y8913817D01*
X34709217Y9009055D01*
X34756836Y9056674D01*
X34852074Y9104293D01*
X34994931Y9104293D01*
X35090169Y9056674D01*
X35137788Y9009055D01*
X35185407Y8913817D01*
X35185407Y8532865D01*
X35280645Y9532865D02*
X35280645Y10294769D01*
X35661597Y11294769D02*
X35661597Y10723341D01*
X35661597Y11009055D02*
X34661597Y11009055D01*
X34804455Y10913817D01*
X34899693Y10818579D01*
X34947312Y10723341D01*
X34756836Y11675722D02*
X34709217Y11723341D01*
X34661597Y11818579D01*
X34661597Y12056674D01*
X34709217Y12151912D01*
X34756836Y12199531D01*
X34852074Y12247150D01*
X34947312Y12247150D01*
X35090169Y12199531D01*
X35661597Y11628103D01*
X35661597Y12247150D01*
G04 #@! TO.C,SW1*
X15297619Y21047620D02*
X14964285Y21523810D01*
X14726190Y21047620D02*
X14726190Y22047620D01*
X15107142Y22047620D01*
X15202380Y22000000D01*
X15250000Y21952381D01*
X15297619Y21857143D01*
X15297619Y21714286D01*
X15250000Y21619048D01*
X15202380Y21571429D01*
X15107142Y21523810D01*
X14726190Y21523810D01*
X15726190Y21571429D02*
X16059523Y21571429D01*
X16202380Y21047620D02*
X15726190Y21047620D01*
X15726190Y22047620D01*
X16202380Y22047620D01*
X16583333Y21095239D02*
X16726190Y21047620D01*
X16964285Y21047620D01*
X17059523Y21095239D01*
X17107142Y21142858D01*
X17154761Y21238096D01*
X17154761Y21333334D01*
X17107142Y21428572D01*
X17059523Y21476191D01*
X16964285Y21523810D01*
X16773809Y21571429D01*
X16678571Y21619048D01*
X16630952Y21666667D01*
X16583333Y21761905D01*
X16583333Y21857143D01*
X16630952Y21952381D01*
X16678571Y22000000D01*
X16773809Y22047620D01*
X17011904Y22047620D01*
X17154761Y22000000D01*
X17583333Y21571429D02*
X17916666Y21571429D01*
X18059523Y21047620D02*
X17583333Y21047620D01*
X17583333Y22047620D01*
X18059523Y22047620D01*
X18345238Y22047620D02*
X18916666Y22047620D01*
X18630952Y21047620D02*
X18630952Y22047620D01*
G04 #@! TO.C,SW2*
X14964285Y-1202380D02*
X14964285Y-202380D01*
X15345238Y-202380D01*
X15440476Y-250000D01*
X15488095Y-297619D01*
X15535714Y-392857D01*
X15535714Y-535714D01*
X15488095Y-630952D01*
X15440476Y-678571D01*
X15345238Y-726190D01*
X14964285Y-726190D01*
X16535714Y-1202380D02*
X16202380Y-726190D01*
X15964285Y-1202380D02*
X15964285Y-202380D01*
X16345238Y-202380D01*
X16440476Y-250000D01*
X16488095Y-297619D01*
X16535714Y-392857D01*
X16535714Y-535714D01*
X16488095Y-630952D01*
X16440476Y-678571D01*
X16345238Y-726190D01*
X15964285Y-726190D01*
X17154761Y-202380D02*
X17345238Y-202380D01*
X17440476Y-250000D01*
X17535714Y-345238D01*
X17583333Y-535714D01*
X17583333Y-869047D01*
X17535714Y-1059523D01*
X17440476Y-1154761D01*
X17345238Y-1202380D01*
X17154761Y-1202380D01*
X17059523Y-1154761D01*
X16964285Y-1059523D01*
X16916666Y-869047D01*
X16916666Y-535714D01*
X16964285Y-345238D01*
X17059523Y-250000D01*
X17154761Y-202380D01*
X18535714Y-250000D02*
X18440476Y-202380D01*
X18297619Y-202380D01*
X18154761Y-250000D01*
X18059523Y-345238D01*
X18011904Y-440476D01*
X17964285Y-630952D01*
X17964285Y-773809D01*
X18011904Y-964285D01*
X18059523Y-1059523D01*
X18154761Y-1154761D01*
X18297619Y-1202380D01*
X18392857Y-1202380D01*
X18535714Y-1154761D01*
X18583333Y-1107142D01*
X18583333Y-773809D01*
X18392857Y-773809D01*
G04 #@! TD*
M02*
