G04 #@! TF.GenerationSoftware,KiCad,Pcbnew,5.0.2-bee76a0~70~ubuntu18.04.1*
G04 #@! TF.CreationDate,2019-12-26T15:42:33-05:00*
G04 #@! TF.ProjectId,ESP-AHT10-Extra,4553502d-4148-4543-9130-2d4578747261,1.4*
G04 #@! TF.SameCoordinates,PX7bfa480PY66c2270*
G04 #@! TF.FileFunction,Legend,Top*
G04 #@! TF.FilePolarity,Positive*
%FSLAX46Y46*%
G04 Gerber Fmt 4.6, Leading zero omitted, Abs format (unit mm)*
G04 Created by KiCad (PCBNEW 5.0.2-bee76a0~70~ubuntu18.04.1) date Thu 26 Dec 2019 03:42:33 PM EST*
%MOMM*%
%LPD*%
G01*
G04 APERTURE LIST*
%ADD10C,0.200000*%
%ADD11C,0.300000*%
%ADD12C,0.152400*%
%ADD13C,0.150000*%
G04 APERTURE END LIST*
D10*
X19045238Y12595239D02*
X18997619Y12690477D01*
X18997619Y12880953D01*
X19045238Y12976191D01*
X19092857Y13023810D01*
X19188095Y13071429D01*
X19473809Y13071429D01*
X19569047Y13023810D01*
X19616666Y12976191D01*
X19664285Y12880953D01*
X19664285Y12690477D01*
X19616666Y12595239D01*
X19664285Y12166667D02*
X18664285Y12166667D01*
X19616666Y12166667D02*
X19664285Y12071429D01*
X19664285Y11880953D01*
X19616666Y11785715D01*
X19569047Y11738096D01*
X19473809Y11690477D01*
X19188095Y11690477D01*
X19092857Y11738096D01*
X19045238Y11785715D01*
X18997619Y11880953D01*
X18997619Y12071429D01*
X19045238Y12166667D01*
X19045238Y10880953D02*
X18997619Y10976191D01*
X18997619Y11166667D01*
X19045238Y11261905D01*
X19140476Y11309524D01*
X19521428Y11309524D01*
X19616666Y11261905D01*
X19664285Y11166667D01*
X19664285Y10976191D01*
X19616666Y10880953D01*
X19521428Y10833334D01*
X19426190Y10833334D01*
X19330952Y11309524D01*
X18997619Y10404762D02*
X19664285Y10404762D01*
X19473809Y10404762D02*
X19569047Y10357143D01*
X19616666Y10309524D01*
X19664285Y10214286D01*
X19664285Y10119048D01*
X18997619Y9785715D02*
X19664285Y9785715D01*
X19997619Y9785715D02*
X19950000Y9833334D01*
X19902380Y9785715D01*
X19950000Y9738096D01*
X19997619Y9785715D01*
X19902380Y9785715D01*
X18997619Y9166667D02*
X19045238Y9261905D01*
X19092857Y9309524D01*
X19188095Y9357143D01*
X19473809Y9357143D01*
X19569047Y9309524D01*
X19616666Y9261905D01*
X19664285Y9166667D01*
X19664285Y9023810D01*
X19616666Y8928572D01*
X19569047Y8880953D01*
X19473809Y8833334D01*
X19188095Y8833334D01*
X19092857Y8880953D01*
X19045238Y8928572D01*
X18997619Y9023810D01*
X18997619Y9166667D01*
X18997619Y7976191D02*
X19997619Y7976191D01*
X19045238Y7976191D02*
X18997619Y8071429D01*
X18997619Y8261905D01*
X19045238Y8357143D01*
X19092857Y8404762D01*
X19188095Y8452381D01*
X19473809Y8452381D01*
X19569047Y8404762D01*
X19616666Y8357143D01*
X19664285Y8261905D01*
X19664285Y8071429D01*
X19616666Y7976191D01*
X18202380Y12214286D02*
X18250000Y12166667D01*
X18297619Y12071429D01*
X18297619Y11833334D01*
X18250000Y11738096D01*
X18202380Y11690477D01*
X18107142Y11642858D01*
X18011904Y11642858D01*
X17869047Y11690477D01*
X17297619Y12261905D01*
X17297619Y11642858D01*
X18297619Y11023810D02*
X18297619Y10928572D01*
X18250000Y10833334D01*
X18202380Y10785715D01*
X18107142Y10738096D01*
X17916666Y10690477D01*
X17678571Y10690477D01*
X17488095Y10738096D01*
X17392857Y10785715D01*
X17345238Y10833334D01*
X17297619Y10928572D01*
X17297619Y11023810D01*
X17345238Y11119048D01*
X17392857Y11166667D01*
X17488095Y11214286D01*
X17678571Y11261905D01*
X17916666Y11261905D01*
X18107142Y11214286D01*
X18202380Y11166667D01*
X18250000Y11119048D01*
X18297619Y11023810D01*
X17297619Y9738096D02*
X17297619Y10309524D01*
X17297619Y10023810D02*
X18297619Y10023810D01*
X18154761Y10119048D01*
X18059523Y10214286D01*
X18011904Y10309524D01*
X17297619Y9261905D02*
X17297619Y9071429D01*
X17345238Y8976191D01*
X17392857Y8928572D01*
X17535714Y8833334D01*
X17726190Y8785715D01*
X18107142Y8785715D01*
X18202380Y8833334D01*
X18250000Y8880953D01*
X18297619Y8976191D01*
X18297619Y9166667D01*
X18250000Y9261905D01*
X18202380Y9309524D01*
X18107142Y9357143D01*
X17869047Y9357143D01*
X17773809Y9309524D01*
X17726190Y9261905D01*
X17678571Y9166667D01*
X17678571Y8976191D01*
X17726190Y8880953D01*
X17773809Y8833334D01*
X17869047Y8785715D01*
X16264285Y11928572D02*
X15597619Y11690477D01*
X16264285Y11452381D01*
X15597619Y10547620D02*
X15597619Y11119048D01*
X15597619Y10833334D02*
X16597619Y10833334D01*
X16454761Y10928572D01*
X16359523Y11023810D01*
X16311904Y11119048D01*
X15692857Y10119048D02*
X15645238Y10071429D01*
X15597619Y10119048D01*
X15645238Y10166667D01*
X15692857Y10119048D01*
X15597619Y10119048D01*
X16264285Y9214286D02*
X15597619Y9214286D01*
X16645238Y9452381D02*
X15930952Y9690477D01*
X15930952Y9071429D01*
D11*
X19392857Y6428572D02*
X19392857Y4928572D01*
X18821428Y4928572D01*
X18678571Y5000000D01*
X18607142Y5071429D01*
X18535714Y5214286D01*
X18535714Y5428572D01*
X18607142Y5571429D01*
X18678571Y5642858D01*
X18821428Y5714286D01*
X19392857Y5714286D01*
X17035714Y6428572D02*
X17535714Y5714286D01*
X17892857Y6428572D02*
X17892857Y4928572D01*
X17321428Y4928572D01*
X17178571Y5000000D01*
X17107142Y5071429D01*
X17035714Y5214286D01*
X17035714Y5428572D01*
X17107142Y5571429D01*
X17178571Y5642858D01*
X17321428Y5714286D01*
X17892857Y5714286D01*
X15607142Y5000000D02*
X15750000Y4928572D01*
X15964285Y4928572D01*
X16178571Y5000000D01*
X16321428Y5142858D01*
X16392857Y5285715D01*
X16464285Y5571429D01*
X16464285Y5785715D01*
X16392857Y6071429D01*
X16321428Y6214286D01*
X16178571Y6357143D01*
X15964285Y6428572D01*
X15821428Y6428572D01*
X15607142Y6357143D01*
X15535714Y6285715D01*
X15535714Y5785715D01*
X15821428Y5785715D01*
X16678571Y14321429D02*
X16178571Y15035715D01*
X15821428Y14321429D02*
X15821428Y15821429D01*
X16392857Y15821429D01*
X16535714Y15750000D01*
X16607142Y15678572D01*
X16678571Y15535715D01*
X16678571Y15321429D01*
X16607142Y15178572D01*
X16535714Y15107143D01*
X16392857Y15035715D01*
X15821428Y15035715D01*
X17250000Y14392858D02*
X17464285Y14321429D01*
X17821428Y14321429D01*
X17964285Y14392858D01*
X18035714Y14464286D01*
X18107142Y14607143D01*
X18107142Y14750000D01*
X18035714Y14892858D01*
X17964285Y14964286D01*
X17821428Y15035715D01*
X17535714Y15107143D01*
X17392857Y15178572D01*
X17321428Y15250000D01*
X17250000Y15392858D01*
X17250000Y15535715D01*
X17321428Y15678572D01*
X17392857Y15750000D01*
X17535714Y15821429D01*
X17892857Y15821429D01*
X18107142Y15750000D01*
X18535714Y15821429D02*
X19392857Y15821429D01*
X18964285Y14321429D02*
X18964285Y15821429D01*
X10857142Y15214286D02*
X10857142Y14714286D01*
X10071428Y14500000D02*
X10071428Y15214286D01*
X11571428Y15214286D01*
X11571428Y14500000D01*
X10142857Y13928572D02*
X10071428Y13714286D01*
X10071428Y13357143D01*
X10142857Y13214286D01*
X10214285Y13142858D01*
X10357142Y13071429D01*
X10500000Y13071429D01*
X10642857Y13142858D01*
X10714285Y13214286D01*
X10785714Y13357143D01*
X10857142Y13642858D01*
X10928571Y13785715D01*
X11000000Y13857143D01*
X11142857Y13928572D01*
X11285714Y13928572D01*
X11428571Y13857143D01*
X11500000Y13785715D01*
X11571428Y13642858D01*
X11571428Y13285715D01*
X11500000Y13071429D01*
X10071428Y12428572D02*
X11571428Y12428572D01*
X11571428Y11857143D01*
X11500000Y11714286D01*
X11428571Y11642858D01*
X11285714Y11571429D01*
X11071428Y11571429D01*
X10928571Y11642858D01*
X10857142Y11714286D01*
X10785714Y11857143D01*
X10785714Y12428572D01*
X10642857Y10928572D02*
X10642857Y9785715D01*
X10071428Y10357143D02*
X11214285Y10357143D01*
X10500000Y9142858D02*
X10500000Y8428572D01*
X10071428Y9285715D02*
X11571428Y8785715D01*
X10071428Y8285715D01*
X10071428Y7785715D02*
X11571428Y7785715D01*
X10857142Y7785715D02*
X10857142Y6928572D01*
X10071428Y6928572D02*
X11571428Y6928572D01*
X11571428Y6428572D02*
X11571428Y5571429D01*
X10071428Y6000000D02*
X11571428Y6000000D01*
D12*
G04 #@! TO.C,U3*
X21350217Y18453626D02*
X20588217Y18453626D01*
X20588217Y18453626D02*
X20588217Y2451626D01*
X20588217Y2451626D02*
X21350217Y2451626D01*
D13*
G04 #@! TO.C,SW1*
X15250000Y19000000D02*
X15250000Y18000000D01*
X18250000Y19000000D02*
X15250000Y19000000D01*
X18250000Y18000000D02*
X18250000Y19000000D01*
X15250000Y18000000D02*
X18250000Y18000000D01*
X19750000Y20250000D02*
X19750000Y19750000D01*
X13750000Y20250000D02*
X19750000Y20250000D01*
X13750000Y19750000D02*
X13750000Y20250000D01*
X19750000Y16750000D02*
X19750000Y17250000D01*
X13750000Y16750000D02*
X19750000Y16750000D01*
X13750000Y17250000D02*
X13750000Y16750000D01*
G04 #@! TO.C,SW2*
X19750000Y3500000D02*
X19750000Y4000000D01*
X19750000Y4000000D02*
X13750000Y4000000D01*
X13750000Y4000000D02*
X13750000Y3500000D01*
X19750000Y1000000D02*
X19750000Y500000D01*
X19750000Y500000D02*
X13750000Y500000D01*
X13750000Y500000D02*
X13750000Y1000000D01*
X18250000Y2750000D02*
X15250000Y2750000D01*
X15250000Y2750000D02*
X15250000Y1750000D01*
X15250000Y1750000D02*
X18250000Y1750000D01*
X18250000Y1750000D02*
X18250000Y2750000D01*
G04 #@! TD*
M02*
