G04 #@! TF.GenerationSoftware,KiCad,Pcbnew,5.0.2-bee76a0~70~ubuntu18.04.1*
G04 #@! TF.CreationDate,2019-11-16T22:21:55-05:00*
G04 #@! TF.ProjectId,ESP-AHT10-Extra,4553502d-4148-4543-9130-2d4578747261,1.2*
G04 #@! TF.SameCoordinates,PX7bfa480PY66c2270*
G04 #@! TF.FileFunction,Paste,Top*
G04 #@! TF.FilePolarity,Positive*
%FSLAX46Y46*%
G04 Gerber Fmt 4.6, Leading zero omitted, Abs format (unit mm)*
G04 Created by KiCad (PCBNEW 5.0.2-bee76a0~70~ubuntu18.04.1) date Sat 16 Nov 2019 10:21:55 PM EST*
%MOMM*%
%LPD*%
G01*
G04 APERTURE LIST*
%ADD10C,0.050000*%
%ADD11C,0.975000*%
%ADD12R,1.000000X1.500000*%
G04 APERTURE END LIST*
D10*
G04 #@! TO.C,C9*
G36*
X18767642Y6698826D02*
X18791303Y6695316D01*
X18814507Y6689504D01*
X18837029Y6681446D01*
X18858653Y6671218D01*
X18879170Y6658921D01*
X18898383Y6644671D01*
X18916107Y6628607D01*
X18932171Y6610883D01*
X18946421Y6591670D01*
X18958718Y6571153D01*
X18968946Y6549529D01*
X18977004Y6527007D01*
X18982816Y6503803D01*
X18986326Y6480142D01*
X18987500Y6456250D01*
X18987500Y5543750D01*
X18986326Y5519858D01*
X18982816Y5496197D01*
X18977004Y5472993D01*
X18968946Y5450471D01*
X18958718Y5428847D01*
X18946421Y5408330D01*
X18932171Y5389117D01*
X18916107Y5371393D01*
X18898383Y5355329D01*
X18879170Y5341079D01*
X18858653Y5328782D01*
X18837029Y5318554D01*
X18814507Y5310496D01*
X18791303Y5304684D01*
X18767642Y5301174D01*
X18743750Y5300000D01*
X18256250Y5300000D01*
X18232358Y5301174D01*
X18208697Y5304684D01*
X18185493Y5310496D01*
X18162971Y5318554D01*
X18141347Y5328782D01*
X18120830Y5341079D01*
X18101617Y5355329D01*
X18083893Y5371393D01*
X18067829Y5389117D01*
X18053579Y5408330D01*
X18041282Y5428847D01*
X18031054Y5450471D01*
X18022996Y5472993D01*
X18017184Y5496197D01*
X18013674Y5519858D01*
X18012500Y5543750D01*
X18012500Y6456250D01*
X18013674Y6480142D01*
X18017184Y6503803D01*
X18022996Y6527007D01*
X18031054Y6549529D01*
X18041282Y6571153D01*
X18053579Y6591670D01*
X18067829Y6610883D01*
X18083893Y6628607D01*
X18101617Y6644671D01*
X18120830Y6658921D01*
X18141347Y6671218D01*
X18162971Y6681446D01*
X18185493Y6689504D01*
X18208697Y6695316D01*
X18232358Y6698826D01*
X18256250Y6700000D01*
X18743750Y6700000D01*
X18767642Y6698826D01*
X18767642Y6698826D01*
G37*
D11*
X18500000Y6000000D03*
D10*
G36*
X16892642Y6698826D02*
X16916303Y6695316D01*
X16939507Y6689504D01*
X16962029Y6681446D01*
X16983653Y6671218D01*
X17004170Y6658921D01*
X17023383Y6644671D01*
X17041107Y6628607D01*
X17057171Y6610883D01*
X17071421Y6591670D01*
X17083718Y6571153D01*
X17093946Y6549529D01*
X17102004Y6527007D01*
X17107816Y6503803D01*
X17111326Y6480142D01*
X17112500Y6456250D01*
X17112500Y5543750D01*
X17111326Y5519858D01*
X17107816Y5496197D01*
X17102004Y5472993D01*
X17093946Y5450471D01*
X17083718Y5428847D01*
X17071421Y5408330D01*
X17057171Y5389117D01*
X17041107Y5371393D01*
X17023383Y5355329D01*
X17004170Y5341079D01*
X16983653Y5328782D01*
X16962029Y5318554D01*
X16939507Y5310496D01*
X16916303Y5304684D01*
X16892642Y5301174D01*
X16868750Y5300000D01*
X16381250Y5300000D01*
X16357358Y5301174D01*
X16333697Y5304684D01*
X16310493Y5310496D01*
X16287971Y5318554D01*
X16266347Y5328782D01*
X16245830Y5341079D01*
X16226617Y5355329D01*
X16208893Y5371393D01*
X16192829Y5389117D01*
X16178579Y5408330D01*
X16166282Y5428847D01*
X16156054Y5450471D01*
X16147996Y5472993D01*
X16142184Y5496197D01*
X16138674Y5519858D01*
X16137500Y5543750D01*
X16137500Y6456250D01*
X16138674Y6480142D01*
X16142184Y6503803D01*
X16147996Y6527007D01*
X16156054Y6549529D01*
X16166282Y6571153D01*
X16178579Y6591670D01*
X16192829Y6610883D01*
X16208893Y6628607D01*
X16226617Y6644671D01*
X16245830Y6658921D01*
X16266347Y6671218D01*
X16287971Y6681446D01*
X16310493Y6689504D01*
X16333697Y6695316D01*
X16357358Y6698826D01*
X16381250Y6700000D01*
X16868750Y6700000D01*
X16892642Y6698826D01*
X16892642Y6698826D01*
G37*
D11*
X16625000Y6000000D03*
G04 #@! TD*
D12*
G04 #@! TO.C,D2*
X19100000Y13039999D03*
X15900000Y13039999D03*
X19100000Y8139999D03*
X15900000Y8139999D03*
G04 #@! TD*
D10*
G04 #@! TO.C,R9*
G36*
X16892642Y15890206D02*
X16916303Y15886696D01*
X16939507Y15880884D01*
X16962029Y15872826D01*
X16983653Y15862598D01*
X17004170Y15850301D01*
X17023383Y15836051D01*
X17041107Y15819987D01*
X17057171Y15802263D01*
X17071421Y15783050D01*
X17083718Y15762533D01*
X17093946Y15740909D01*
X17102004Y15718387D01*
X17107816Y15695183D01*
X17111326Y15671522D01*
X17112500Y15647630D01*
X17112500Y14735130D01*
X17111326Y14711238D01*
X17107816Y14687577D01*
X17102004Y14664373D01*
X17093946Y14641851D01*
X17083718Y14620227D01*
X17071421Y14599710D01*
X17057171Y14580497D01*
X17041107Y14562773D01*
X17023383Y14546709D01*
X17004170Y14532459D01*
X16983653Y14520162D01*
X16962029Y14509934D01*
X16939507Y14501876D01*
X16916303Y14496064D01*
X16892642Y14492554D01*
X16868750Y14491380D01*
X16381250Y14491380D01*
X16357358Y14492554D01*
X16333697Y14496064D01*
X16310493Y14501876D01*
X16287971Y14509934D01*
X16266347Y14520162D01*
X16245830Y14532459D01*
X16226617Y14546709D01*
X16208893Y14562773D01*
X16192829Y14580497D01*
X16178579Y14599710D01*
X16166282Y14620227D01*
X16156054Y14641851D01*
X16147996Y14664373D01*
X16142184Y14687577D01*
X16138674Y14711238D01*
X16137500Y14735130D01*
X16137500Y15647630D01*
X16138674Y15671522D01*
X16142184Y15695183D01*
X16147996Y15718387D01*
X16156054Y15740909D01*
X16166282Y15762533D01*
X16178579Y15783050D01*
X16192829Y15802263D01*
X16208893Y15819987D01*
X16226617Y15836051D01*
X16245830Y15850301D01*
X16266347Y15862598D01*
X16287971Y15872826D01*
X16310493Y15880884D01*
X16333697Y15886696D01*
X16357358Y15890206D01*
X16381250Y15891380D01*
X16868750Y15891380D01*
X16892642Y15890206D01*
X16892642Y15890206D01*
G37*
D11*
X16625000Y15191380D03*
D10*
G36*
X18767642Y15890206D02*
X18791303Y15886696D01*
X18814507Y15880884D01*
X18837029Y15872826D01*
X18858653Y15862598D01*
X18879170Y15850301D01*
X18898383Y15836051D01*
X18916107Y15819987D01*
X18932171Y15802263D01*
X18946421Y15783050D01*
X18958718Y15762533D01*
X18968946Y15740909D01*
X18977004Y15718387D01*
X18982816Y15695183D01*
X18986326Y15671522D01*
X18987500Y15647630D01*
X18987500Y14735130D01*
X18986326Y14711238D01*
X18982816Y14687577D01*
X18977004Y14664373D01*
X18968946Y14641851D01*
X18958718Y14620227D01*
X18946421Y14599710D01*
X18932171Y14580497D01*
X18916107Y14562773D01*
X18898383Y14546709D01*
X18879170Y14532459D01*
X18858653Y14520162D01*
X18837029Y14509934D01*
X18814507Y14501876D01*
X18791303Y14496064D01*
X18767642Y14492554D01*
X18743750Y14491380D01*
X18256250Y14491380D01*
X18232358Y14492554D01*
X18208697Y14496064D01*
X18185493Y14501876D01*
X18162971Y14509934D01*
X18141347Y14520162D01*
X18120830Y14532459D01*
X18101617Y14546709D01*
X18083893Y14562773D01*
X18067829Y14580497D01*
X18053579Y14599710D01*
X18041282Y14620227D01*
X18031054Y14641851D01*
X18022996Y14664373D01*
X18017184Y14687577D01*
X18013674Y14711238D01*
X18012500Y14735130D01*
X18012500Y15647630D01*
X18013674Y15671522D01*
X18017184Y15695183D01*
X18022996Y15718387D01*
X18031054Y15740909D01*
X18041282Y15762533D01*
X18053579Y15783050D01*
X18067829Y15802263D01*
X18083893Y15819987D01*
X18101617Y15836051D01*
X18120830Y15850301D01*
X18141347Y15862598D01*
X18162971Y15872826D01*
X18185493Y15880884D01*
X18208697Y15886696D01*
X18232358Y15890206D01*
X18256250Y15891380D01*
X18743750Y15891380D01*
X18767642Y15890206D01*
X18767642Y15890206D01*
G37*
D11*
X18500000Y15191380D03*
G04 #@! TD*
M02*
