M48
;DRILL file {KiCad 5.0.2-bee76a0~70~ubuntu18.04.1} date Sat 11 Jan 2020 12:57:49 PM EST
;FORMAT={-:-/ absolute / metric / decimal}
FMAT,2
METRIC,TZ
T1C0.600
T2C0.650
T3C1.000
%
G90
G05
T1
X13.7Y16.627
X13.7Y11.801
X24.686Y8.944
X24.8Y10.65
X26.9Y11.05
X28.877Y11.95
X31.8Y10.75
X34.05Y5.025
X36.239Y5.243
X37.225Y11.95
T2
X22.209Y17.438
X22.209Y3.438
X24.209Y17.438
X24.209Y3.438
X26.209Y17.438
X26.209Y3.438
X28.209Y17.438
X28.209Y3.438
X30.209Y17.438
X30.209Y3.438
X32.209Y17.438
X32.209Y3.438
X34.209Y17.438
X34.209Y3.438
X36.209Y17.438
X36.209Y3.438
T3
X13.45Y2.25
X20.05Y2.25
X13.45Y18.5
X20.05Y18.5
T0
M30
