G04 #@! TF.GenerationSoftware,KiCad,Pcbnew,5.0.2-bee76a0~70~ubuntu18.04.1*
G04 #@! TF.CreationDate,2019-11-04T12:28:51-05:00*
G04 #@! TF.ProjectId,ESP-AHT10-Extra,4553502d-4148-4543-9130-2d4578747261,rev?*
G04 #@! TF.SameCoordinates,PX7bfa480PY66c2270*
G04 #@! TF.FileFunction,Legend,Top*
G04 #@! TF.FilePolarity,Positive*
%FSLAX46Y46*%
G04 Gerber Fmt 4.6, Leading zero omitted, Abs format (unit mm)*
G04 Created by KiCad (PCBNEW 5.0.2-bee76a0~70~ubuntu18.04.1) date Mon 04 Nov 2019 12:28:51 PM EST*
%MOMM*%
%LPD*%
G01*
G04 APERTURE LIST*
%ADD10C,0.300000*%
%ADD11C,0.152400*%
%ADD12C,0.150000*%
G04 APERTURE END LIST*
D10*
X35840476Y14940477D02*
X35745238Y15130953D01*
X35745238Y15511905D01*
X35840476Y15702381D01*
X35935714Y15797620D01*
X36126190Y15892858D01*
X36697619Y15892858D01*
X36888095Y15797620D01*
X36983333Y15702381D01*
X37078571Y15511905D01*
X37078571Y15130953D01*
X36983333Y14940477D01*
X37078571Y14083334D02*
X35078571Y14083334D01*
X36983333Y14083334D02*
X37078571Y13892858D01*
X37078571Y13511905D01*
X36983333Y13321429D01*
X36888095Y13226191D01*
X36697619Y13130953D01*
X36126190Y13130953D01*
X35935714Y13226191D01*
X35840476Y13321429D01*
X35745238Y13511905D01*
X35745238Y13892858D01*
X35840476Y14083334D01*
X35840476Y11511905D02*
X35745238Y11702381D01*
X35745238Y12083334D01*
X35840476Y12273810D01*
X36030952Y12369048D01*
X36792857Y12369048D01*
X36983333Y12273810D01*
X37078571Y12083334D01*
X37078571Y11702381D01*
X36983333Y11511905D01*
X36792857Y11416667D01*
X36602380Y11416667D01*
X36411904Y12369048D01*
X35745238Y10559524D02*
X37078571Y10559524D01*
X36697619Y10559524D02*
X36888095Y10464286D01*
X36983333Y10369048D01*
X37078571Y10178572D01*
X37078571Y9988096D01*
X35745238Y9321429D02*
X37078571Y9321429D01*
X37745238Y9321429D02*
X37650000Y9416667D01*
X37554761Y9321429D01*
X37650000Y9226191D01*
X37745238Y9321429D01*
X37554761Y9321429D01*
X35745238Y8083334D02*
X35840476Y8273810D01*
X35935714Y8369048D01*
X36126190Y8464286D01*
X36697619Y8464286D01*
X36888095Y8369048D01*
X36983333Y8273810D01*
X37078571Y8083334D01*
X37078571Y7797620D01*
X36983333Y7607143D01*
X36888095Y7511905D01*
X36697619Y7416667D01*
X36126190Y7416667D01*
X35935714Y7511905D01*
X35840476Y7607143D01*
X35745238Y7797620D01*
X35745238Y8083334D01*
X35745238Y5702381D02*
X37745238Y5702381D01*
X35840476Y5702381D02*
X35745238Y5892858D01*
X35745238Y6273810D01*
X35840476Y6464286D01*
X35935714Y6559524D01*
X36126190Y6654762D01*
X36697619Y6654762D01*
X36888095Y6559524D01*
X36983333Y6464286D01*
X37078571Y6273810D01*
X37078571Y5892858D01*
X36983333Y5702381D01*
X34254761Y14178572D02*
X34350000Y14083334D01*
X34445238Y13892858D01*
X34445238Y13416667D01*
X34350000Y13226191D01*
X34254761Y13130953D01*
X34064285Y13035715D01*
X33873809Y13035715D01*
X33588095Y13130953D01*
X32445238Y14273810D01*
X32445238Y13035715D01*
X34445238Y11797620D02*
X34445238Y11607143D01*
X34350000Y11416667D01*
X34254761Y11321429D01*
X34064285Y11226191D01*
X33683333Y11130953D01*
X33207142Y11130953D01*
X32826190Y11226191D01*
X32635714Y11321429D01*
X32540476Y11416667D01*
X32445238Y11607143D01*
X32445238Y11797620D01*
X32540476Y11988096D01*
X32635714Y12083334D01*
X32826190Y12178572D01*
X33207142Y12273810D01*
X33683333Y12273810D01*
X34064285Y12178572D01*
X34254761Y12083334D01*
X34350000Y11988096D01*
X34445238Y11797620D01*
X32445238Y9226191D02*
X32445238Y10369048D01*
X32445238Y9797620D02*
X34445238Y9797620D01*
X34159523Y9988096D01*
X33969047Y10178572D01*
X33873809Y10369048D01*
X32445238Y8273810D02*
X32445238Y7892858D01*
X32540476Y7702381D01*
X32635714Y7607143D01*
X32921428Y7416667D01*
X33302380Y7321429D01*
X34064285Y7321429D01*
X34254761Y7416667D01*
X34350000Y7511905D01*
X34445238Y7702381D01*
X34445238Y8083334D01*
X34350000Y8273810D01*
X34254761Y8369048D01*
X34064285Y8464286D01*
X33588095Y8464286D01*
X33397619Y8369048D01*
X33302380Y8273810D01*
X33207142Y8083334D01*
X33207142Y7702381D01*
X33302380Y7511905D01*
X33397619Y7416667D01*
X33588095Y7321429D01*
X19678571Y10357143D02*
X19011904Y10357143D01*
X18726190Y11404762D02*
X19678571Y11404762D01*
X19678571Y9404762D01*
X18726190Y9404762D01*
X17964285Y11309524D02*
X17678571Y11404762D01*
X17202380Y11404762D01*
X17011904Y11309524D01*
X16916666Y11214286D01*
X16821428Y11023810D01*
X16821428Y10833334D01*
X16916666Y10642858D01*
X17011904Y10547620D01*
X17202380Y10452381D01*
X17583333Y10357143D01*
X17773809Y10261905D01*
X17869047Y10166667D01*
X17964285Y9976191D01*
X17964285Y9785715D01*
X17869047Y9595239D01*
X17773809Y9500000D01*
X17583333Y9404762D01*
X17107142Y9404762D01*
X16821428Y9500000D01*
X15964285Y11404762D02*
X15964285Y9404762D01*
X15202380Y9404762D01*
X15011904Y9500000D01*
X14916666Y9595239D01*
X14821428Y9785715D01*
X14821428Y10071429D01*
X14916666Y10261905D01*
X15011904Y10357143D01*
X15202380Y10452381D01*
X15964285Y10452381D01*
X13964285Y10642858D02*
X12440476Y10642858D01*
X11583333Y10833334D02*
X10630952Y10833334D01*
X11773809Y11404762D02*
X11107142Y9404762D01*
X10440476Y11404762D01*
X9773809Y11404762D02*
X9773809Y9404762D01*
X9773809Y10357143D02*
X8630952Y10357143D01*
X8630952Y11404762D02*
X8630952Y9404762D01*
X7964285Y9404762D02*
X6821428Y9404762D01*
X7392857Y11404762D02*
X7392857Y9404762D01*
X5107142Y11404762D02*
X6250000Y11404762D01*
X5678571Y11404762D02*
X5678571Y9404762D01*
X5869047Y9690477D01*
X6059523Y9880953D01*
X6250000Y9976191D01*
X3869047Y9404762D02*
X3678571Y9404762D01*
X3488095Y9500000D01*
X3392857Y9595239D01*
X3297619Y9785715D01*
X3202380Y10166667D01*
X3202380Y10642858D01*
X3297619Y11023810D01*
X3392857Y11214286D01*
X3488095Y11309524D01*
X3678571Y11404762D01*
X3869047Y11404762D01*
X4059523Y11309524D01*
X4154761Y11214286D01*
X4250000Y11023810D01*
X4345238Y10642858D01*
X4345238Y10166667D01*
X4250000Y9785715D01*
X4154761Y9595239D01*
X4059523Y9500000D01*
X3869047Y9404762D01*
X2345238Y10642858D02*
X821428Y10642858D01*
X1583333Y11404762D02*
X1583333Y9880953D01*
X19208333Y6541667D02*
X19208333Y4791667D01*
X18541666Y4791667D01*
X18375000Y4875000D01*
X18291666Y4958334D01*
X18208333Y5125000D01*
X18208333Y5375000D01*
X18291666Y5541667D01*
X18375000Y5625000D01*
X18541666Y5708334D01*
X19208333Y5708334D01*
X16458333Y6541667D02*
X17041666Y5708334D01*
X17458333Y6541667D02*
X17458333Y4791667D01*
X16791666Y4791667D01*
X16625000Y4875000D01*
X16541666Y4958334D01*
X16458333Y5125000D01*
X16458333Y5375000D01*
X16541666Y5541667D01*
X16625000Y5625000D01*
X16791666Y5708334D01*
X17458333Y5708334D01*
X14791666Y4875000D02*
X14958333Y4791667D01*
X15208333Y4791667D01*
X15458333Y4875000D01*
X15625000Y5041667D01*
X15708333Y5208334D01*
X15791666Y5541667D01*
X15791666Y5791667D01*
X15708333Y6125000D01*
X15625000Y6291667D01*
X15458333Y6458334D01*
X15208333Y6541667D01*
X15041666Y6541667D01*
X14791666Y6458334D01*
X14708333Y6375000D01*
X14708333Y5791667D01*
X15041666Y5791667D01*
X15791666Y14208334D02*
X15208333Y15041667D01*
X14791666Y14208334D02*
X14791666Y15958334D01*
X15458333Y15958334D01*
X15625000Y15875000D01*
X15708333Y15791667D01*
X15791666Y15625000D01*
X15791666Y15375000D01*
X15708333Y15208334D01*
X15625000Y15125000D01*
X15458333Y15041667D01*
X14791666Y15041667D01*
X16458333Y14291667D02*
X16708333Y14208334D01*
X17125000Y14208334D01*
X17291666Y14291667D01*
X17375000Y14375000D01*
X17458333Y14541667D01*
X17458333Y14708334D01*
X17375000Y14875000D01*
X17291666Y14958334D01*
X17125000Y15041667D01*
X16791666Y15125000D01*
X16625000Y15208334D01*
X16541666Y15291667D01*
X16458333Y15458334D01*
X16458333Y15625000D01*
X16541666Y15791667D01*
X16625000Y15875000D01*
X16791666Y15958334D01*
X17208333Y15958334D01*
X17458333Y15875000D01*
X17958333Y15958334D02*
X18958333Y15958334D01*
X18458333Y14208334D02*
X18458333Y15958334D01*
D11*
G04 #@! TO.C,U3*
X21350217Y18453626D02*
X20588217Y18453626D01*
X20588217Y18453626D02*
X20588217Y2451626D01*
X20588217Y2451626D02*
X21350217Y2451626D01*
D12*
G04 #@! TO.C,SW1*
X15250000Y19000000D02*
X15250000Y18000000D01*
X18250000Y19000000D02*
X15250000Y19000000D01*
X18250000Y18000000D02*
X18250000Y19000000D01*
X15250000Y18000000D02*
X18250000Y18000000D01*
X19750000Y20250000D02*
X19750000Y19750000D01*
X13750000Y20250000D02*
X19750000Y20250000D01*
X13750000Y19750000D02*
X13750000Y20250000D01*
X19750000Y16750000D02*
X19750000Y17250000D01*
X13750000Y16750000D02*
X19750000Y16750000D01*
X13750000Y17250000D02*
X13750000Y16750000D01*
G04 #@! TO.C,SW2*
X19750000Y3500000D02*
X19750000Y4000000D01*
X19750000Y4000000D02*
X13750000Y4000000D01*
X13750000Y4000000D02*
X13750000Y3500000D01*
X19750000Y1000000D02*
X19750000Y500000D01*
X19750000Y500000D02*
X13750000Y500000D01*
X13750000Y500000D02*
X13750000Y1000000D01*
X18250000Y2750000D02*
X15250000Y2750000D01*
X15250000Y2750000D02*
X15250000Y1750000D01*
X15250000Y1750000D02*
X18250000Y1750000D01*
X18250000Y1750000D02*
X18250000Y2750000D01*
G04 #@! TD*
M02*
