G04 #@! TF.GenerationSoftware,KiCad,Pcbnew,5.0.2-bee76a0~70~ubuntu18.04.1*
G04 #@! TF.CreationDate,2020-03-17T19:10:12-04:00*
G04 #@! TF.ProjectId,ESP-AHT10-Extra,4553502d-4148-4543-9130-2d4578747261,1.6*
G04 #@! TF.SameCoordinates,PX7bfa480PY66c2270*
G04 #@! TF.FileFunction,Other,Fab,Bot*
%FSLAX46Y46*%
G04 Gerber Fmt 4.6, Leading zero omitted, Abs format (unit mm)*
G04 Created by KiCad (PCBNEW 5.0.2-bee76a0~70~ubuntu18.04.1) date Tue 17 Mar 2020 07:10:12 PM EDT*
%MOMM*%
%LPD*%
G01*
G04 APERTURE LIST*
%ADD10C,0.100000*%
%ADD11C,0.150000*%
%ADD12C,0.080000*%
%ADD13C,0.075000*%
G04 APERTURE END LIST*
D10*
G04 #@! TO.C,F1*
X14561000Y15212500D02*
X14561000Y13212500D01*
X15761000Y15212500D02*
X14561000Y15212500D01*
X15761000Y13212500D02*
X15761000Y15212500D01*
X14561000Y13212500D02*
X15761000Y13212500D01*
G04 #@! TO.C,U1*
X17109217Y6287626D02*
X20009217Y6287626D01*
X20009217Y6287626D02*
X20009217Y11187626D01*
X20009217Y11187626D02*
X16109217Y11187626D01*
X16109217Y11187626D02*
X16109217Y7287626D01*
X16109217Y7287626D02*
X17109217Y6287626D01*
D11*
G04 #@! TO.C,U4*
X38555703Y6341380D02*
X38555703Y10741380D01*
X38555703Y10741380D02*
X33155703Y10741380D01*
X33155703Y10741380D02*
X33155703Y6341380D01*
X33155703Y6341380D02*
X38555703Y6341380D01*
D10*
G04 #@! TO.C,U5*
X10450000Y8125000D02*
X11100000Y7475000D01*
X12250000Y7475000D02*
X11100000Y7475000D01*
X10450000Y8125000D02*
X10450000Y10575000D01*
X12250000Y10575000D02*
X10450000Y10575000D01*
X12250000Y7475000D02*
X12250000Y10575000D01*
G04 #@! TO.C,C1*
X26376000Y13241380D02*
X26376000Y15241380D01*
X25176000Y13241380D02*
X26376000Y13241380D01*
X25176000Y15241380D02*
X25176000Y13241380D01*
X26376000Y15241380D02*
X25176000Y15241380D01*
G04 #@! TO.C,C2*
X20125000Y15241380D02*
X18925000Y15241380D01*
X18925000Y15241380D02*
X18925000Y13241380D01*
X18925000Y13241380D02*
X20125000Y13241380D01*
X20125000Y13241380D02*
X20125000Y15241380D01*
G04 #@! TO.C,C3*
X18175000Y13241380D02*
X18175000Y15241380D01*
X16975000Y13241380D02*
X18175000Y13241380D01*
X16975000Y15241380D02*
X16975000Y13241380D01*
X18175000Y15241380D02*
X16975000Y15241380D01*
G04 #@! TO.C,C4*
X28326000Y13241380D02*
X28326000Y15241380D01*
X27126000Y13241380D02*
X28326000Y13241380D01*
X27126000Y15241380D02*
X27126000Y13241380D01*
X28326000Y15241380D02*
X27126000Y15241380D01*
G04 #@! TO.C,C5*
X34148500Y12600000D02*
X34148500Y11400000D01*
X34148500Y11400000D02*
X36148500Y11400000D01*
X36148500Y11400000D02*
X36148500Y12600000D01*
X36148500Y12600000D02*
X34148500Y12600000D01*
G04 #@! TO.C,C6*
X18144500Y4407000D02*
X18144500Y5607000D01*
X18144500Y5607000D02*
X16144500Y5607000D01*
X16144500Y5607000D02*
X16144500Y4407000D01*
X16144500Y4407000D02*
X18144500Y4407000D01*
G04 #@! TO.C,C7*
X10400000Y12400000D02*
X10400000Y11200000D01*
X10400000Y11200000D02*
X12400000Y11200000D01*
X12400000Y11200000D02*
X12400000Y12400000D01*
X12400000Y12400000D02*
X10400000Y12400000D01*
G04 #@! TO.C,D1*
X11550000Y15075000D02*
X11050000Y15075000D01*
X11550000Y14675000D02*
X12150000Y15075000D01*
X11550000Y15475000D02*
X11550000Y14675000D01*
X12150000Y15075000D02*
X11550000Y15475000D01*
X12150000Y15075000D02*
X12150000Y14525000D01*
X12150000Y15075000D02*
X12150000Y15625000D01*
X12550000Y15075000D02*
X12150000Y15075000D01*
X13200000Y14175000D02*
X13200000Y15975000D01*
X10400000Y14175000D02*
X13200000Y14175000D01*
X10400000Y15975000D02*
X10400000Y14175000D01*
X13200000Y15975000D02*
X10400000Y15975000D01*
G04 #@! TO.C,R1*
X33230000Y13610500D02*
X34430000Y13610500D01*
X34430000Y13610500D02*
X34430000Y15610500D01*
X34430000Y15610500D02*
X33230000Y15610500D01*
X33230000Y15610500D02*
X33230000Y13610500D01*
G04 #@! TO.C,R2*
X30817000Y13595500D02*
X32017000Y13595500D01*
X32017000Y13595500D02*
X32017000Y15595500D01*
X32017000Y15595500D02*
X30817000Y15595500D01*
X30817000Y15595500D02*
X30817000Y13595500D01*
G04 #@! TO.C,R3*
X35755703Y13641380D02*
X36955703Y13641380D01*
X36955703Y13641380D02*
X36955703Y15641380D01*
X36955703Y15641380D02*
X35755703Y15641380D01*
X35755703Y15641380D02*
X35755703Y13641380D01*
G04 #@! TO.C,R4*
X22289000Y4788000D02*
X24289000Y4788000D01*
X22289000Y5988000D02*
X22289000Y4788000D01*
X24289000Y5988000D02*
X22289000Y5988000D01*
X24289000Y4788000D02*
X24289000Y5988000D01*
G04 #@! TO.C,R5*
X28842000Y6801000D02*
X28842000Y8801000D01*
X27642000Y6801000D02*
X28842000Y6801000D01*
X27642000Y8801000D02*
X27642000Y6801000D01*
X28842000Y8801000D02*
X27642000Y8801000D01*
G04 #@! TO.C,R6*
X32114500Y9417000D02*
X30114500Y9417000D01*
X32114500Y8217000D02*
X32114500Y9417000D01*
X30114500Y8217000D02*
X32114500Y8217000D01*
X30114500Y9417000D02*
X30114500Y8217000D01*
G04 #@! TO.C,R7*
X30114500Y7385000D02*
X30114500Y6185000D01*
X30114500Y6185000D02*
X32114500Y6185000D01*
X32114500Y6185000D02*
X32114500Y7385000D01*
X32114500Y7385000D02*
X30114500Y7385000D01*
G04 #@! TO.C,R8*
X23550000Y8706000D02*
X23550000Y10706000D01*
X22350000Y8706000D02*
X23550000Y8706000D01*
X22350000Y10706000D02*
X22350000Y8706000D01*
X23550000Y10706000D02*
X22350000Y10706000D01*
G04 #@! TO.C,U2*
X21954000Y13074000D02*
X21954000Y15524000D01*
X22504000Y12504000D02*
X23354000Y12504000D01*
X21954000Y13074000D02*
X22504000Y12504000D01*
X23354000Y12504000D02*
X23354000Y15544000D01*
X21954000Y15544000D02*
X23354000Y15544000D01*
G04 #@! TD*
G04 #@! TO.C,F1*
D11*
X15758619Y21656548D02*
X15758619Y22275596D01*
X15377666Y21942262D01*
X15377666Y22085120D01*
X15330047Y22180358D01*
X15282428Y22227977D01*
X15187190Y22275596D01*
X14949095Y22275596D01*
X14853857Y22227977D01*
X14806238Y22180358D01*
X14758619Y22085120D01*
X14758619Y21799405D01*
X14806238Y21704167D01*
X14853857Y21656548D01*
X15758619Y23180358D02*
X15758619Y22704167D01*
X15282428Y22656548D01*
X15330047Y22704167D01*
X15377666Y22799405D01*
X15377666Y23037500D01*
X15330047Y23132739D01*
X15282428Y23180358D01*
X15187190Y23227977D01*
X14949095Y23227977D01*
X14853857Y23180358D01*
X14806238Y23132739D01*
X14758619Y23037500D01*
X14758619Y22799405D01*
X14806238Y22704167D01*
X14853857Y22656548D01*
X15758619Y23847024D02*
X15758619Y23942262D01*
X15711000Y24037500D01*
X15663380Y24085120D01*
X15568142Y24132739D01*
X15377666Y24180358D01*
X15139571Y24180358D01*
X14949095Y24132739D01*
X14853857Y24085120D01*
X14806238Y24037500D01*
X14758619Y23942262D01*
X14758619Y23847024D01*
X14806238Y23751786D01*
X14853857Y23704167D01*
X14949095Y23656548D01*
X15139571Y23608929D01*
X15377666Y23608929D01*
X15568142Y23656548D01*
X15663380Y23704167D01*
X15711000Y23751786D01*
X15758619Y23847024D01*
X14758619Y24608929D02*
X15425285Y24608929D01*
X15330047Y24608929D02*
X15377666Y24656548D01*
X15425285Y24751786D01*
X15425285Y24894643D01*
X15377666Y24989881D01*
X15282428Y25037500D01*
X14758619Y25037500D01*
X15282428Y25037500D02*
X15377666Y25085120D01*
X15425285Y25180358D01*
X15425285Y25323215D01*
X15377666Y25418453D01*
X15282428Y25466072D01*
X14758619Y25466072D01*
X15044333Y25894643D02*
X15044333Y26370834D01*
X14758619Y25799405D02*
X15758619Y26132739D01*
X14758619Y26466072D01*
D12*
X15125285Y14379167D02*
X15125285Y14545834D01*
X15387190Y14545834D02*
X14887190Y14545834D01*
X14887190Y14307739D01*
X15387190Y13855358D02*
X15387190Y14141072D01*
X15387190Y13998215D02*
X14887190Y13998215D01*
X14958619Y14045834D01*
X15006238Y14093453D01*
X15030047Y14141072D01*
G04 #@! TO.C,U1*
D11*
X19366666Y21417858D02*
X19414285Y21370239D01*
X19557142Y21322620D01*
X19652380Y21322620D01*
X19795238Y21370239D01*
X19890476Y21465477D01*
X19938095Y21560715D01*
X19985714Y21751191D01*
X19985714Y21894048D01*
X19938095Y22084524D01*
X19890476Y22179762D01*
X19795238Y22275000D01*
X19652380Y22322620D01*
X19557142Y22322620D01*
X19414285Y22275000D01*
X19366666Y22227381D01*
X18938095Y21322620D02*
X18938095Y22322620D01*
X18938095Y21846429D02*
X18366666Y21846429D01*
X18366666Y21322620D02*
X18366666Y22322620D01*
X17985714Y22322620D02*
X17366666Y22322620D01*
X17700000Y21941667D01*
X17557142Y21941667D01*
X17461904Y21894048D01*
X17414285Y21846429D01*
X17366666Y21751191D01*
X17366666Y21513096D01*
X17414285Y21417858D01*
X17461904Y21370239D01*
X17557142Y21322620D01*
X17842857Y21322620D01*
X17938095Y21370239D01*
X17985714Y21417858D01*
X17033333Y22322620D02*
X16414285Y22322620D01*
X16747619Y21941667D01*
X16604761Y21941667D01*
X16509523Y21894048D01*
X16461904Y21846429D01*
X16414285Y21751191D01*
X16414285Y21513096D01*
X16461904Y21417858D01*
X16509523Y21370239D01*
X16604761Y21322620D01*
X16890476Y21322620D01*
X16985714Y21370239D01*
X17033333Y21417858D01*
X15795238Y22322620D02*
X15700000Y22322620D01*
X15604761Y22275000D01*
X15557142Y22227381D01*
X15509523Y22132143D01*
X15461904Y21941667D01*
X15461904Y21703572D01*
X15509523Y21513096D01*
X15557142Y21417858D01*
X15604761Y21370239D01*
X15700000Y21322620D01*
X15795238Y21322620D01*
X15890476Y21370239D01*
X15938095Y21417858D01*
X15985714Y21513096D01*
X16033333Y21703572D01*
X16033333Y21941667D01*
X15985714Y22132143D01*
X15938095Y22227381D01*
X15890476Y22275000D01*
X15795238Y22322620D01*
X15033333Y21322620D02*
X15033333Y22322620D01*
X14461904Y21322620D01*
X14461904Y22322620D01*
X18821121Y9285246D02*
X18821121Y8475722D01*
X18773502Y8380484D01*
X18725883Y8332865D01*
X18630645Y8285246D01*
X18440169Y8285246D01*
X18344931Y8332865D01*
X18297312Y8380484D01*
X18249693Y8475722D01*
X18249693Y9285246D01*
X17249693Y8285246D02*
X17821121Y8285246D01*
X17535407Y8285246D02*
X17535407Y9285246D01*
X17630645Y9142388D01*
X17725883Y9047150D01*
X17821121Y8999531D01*
G04 #@! TO.C,U4*
X42696166Y10404239D02*
X42696166Y9928048D01*
X42981880Y10499477D02*
X41981880Y10166143D01*
X42981880Y9832810D01*
X42981880Y9499477D02*
X41981880Y9499477D01*
X42458071Y9499477D02*
X42458071Y8928048D01*
X42981880Y8928048D02*
X41981880Y8928048D01*
X41981880Y8594715D02*
X41981880Y8023286D01*
X42981880Y8309000D02*
X41981880Y8309000D01*
X42981880Y7166143D02*
X42981880Y7737572D01*
X42981880Y7451858D02*
X41981880Y7451858D01*
X42124738Y7547096D01*
X42219976Y7642334D01*
X42267595Y7737572D01*
X41981880Y6547096D02*
X41981880Y6451858D01*
X42029500Y6356620D01*
X42077119Y6309000D01*
X42172357Y6261381D01*
X42362833Y6213762D01*
X42600928Y6213762D01*
X42791404Y6261381D01*
X42886642Y6309000D01*
X42934261Y6356620D01*
X42981880Y6451858D01*
X42981880Y6547096D01*
X42934261Y6642334D01*
X42886642Y6689953D01*
X42791404Y6737572D01*
X42600928Y6785191D01*
X42362833Y6785191D01*
X42172357Y6737572D01*
X42077119Y6689953D01*
X42029500Y6642334D01*
X41981880Y6547096D01*
G04 #@! TO.C,U5*
X10652380Y2215477D02*
X11461904Y2215477D01*
X11557142Y2167858D01*
X11604761Y2120239D01*
X11652380Y2025000D01*
X11652380Y1834524D01*
X11604761Y1739286D01*
X11557142Y1691667D01*
X11461904Y1644048D01*
X10652380Y1644048D01*
X11604761Y1215477D02*
X11652380Y1072620D01*
X11652380Y834524D01*
X11604761Y739286D01*
X11557142Y691667D01*
X11461904Y644048D01*
X11366666Y644048D01*
X11271428Y691667D01*
X11223809Y739286D01*
X11176190Y834524D01*
X11128571Y1025000D01*
X11080952Y1120239D01*
X11033333Y1167858D01*
X10938095Y1215477D01*
X10842857Y1215477D01*
X10747619Y1167858D01*
X10700000Y1120239D01*
X10652380Y1025000D01*
X10652380Y786905D01*
X10700000Y644048D01*
X11128571Y-117857D02*
X11176190Y-260714D01*
X11223809Y-308333D01*
X11319047Y-355952D01*
X11461904Y-355952D01*
X11557142Y-308333D01*
X11604761Y-260714D01*
X11652380Y-165476D01*
X11652380Y215477D01*
X10652380Y215477D01*
X10652380Y-117857D01*
X10700000Y-213095D01*
X10747619Y-260714D01*
X10842857Y-308333D01*
X10938095Y-308333D01*
X11033333Y-260714D01*
X11080952Y-213095D01*
X11128571Y-117857D01*
X11128571Y215477D01*
X11652380Y-1260714D02*
X11652380Y-784523D01*
X10652380Y-784523D01*
X11557142Y-2165476D02*
X11604761Y-2117857D01*
X11652380Y-1975000D01*
X11652380Y-1879761D01*
X11604761Y-1736904D01*
X11509523Y-1641666D01*
X11414285Y-1594047D01*
X11223809Y-1546428D01*
X11080952Y-1546428D01*
X10890476Y-1594047D01*
X10795238Y-1641666D01*
X10700000Y-1736904D01*
X10652380Y-1879761D01*
X10652380Y-1975000D01*
X10700000Y-2117857D01*
X10747619Y-2165476D01*
X10652380Y-3022619D02*
X10652380Y-2832142D01*
X10700000Y-2736904D01*
X10747619Y-2689285D01*
X10890476Y-2594047D01*
X11080952Y-2546428D01*
X11461904Y-2546428D01*
X11557142Y-2594047D01*
X11604761Y-2641666D01*
X11652380Y-2736904D01*
X11652380Y-2927380D01*
X11604761Y-3022619D01*
X11557142Y-3070238D01*
X11461904Y-3117857D01*
X11223809Y-3117857D01*
X11128571Y-3070238D01*
X11080952Y-3022619D01*
X11033333Y-2927380D01*
X11033333Y-2736904D01*
X11080952Y-2641666D01*
X11128571Y-2594047D01*
X11223809Y-2546428D01*
X11271428Y-3546428D02*
X11271428Y-4308333D01*
X10747619Y-4736904D02*
X10700000Y-4784523D01*
X10652380Y-4879761D01*
X10652380Y-5117857D01*
X10700000Y-5213095D01*
X10747619Y-5260714D01*
X10842857Y-5308333D01*
X10938095Y-5308333D01*
X11080952Y-5260714D01*
X11652380Y-4689285D01*
X11652380Y-5308333D01*
X11604761Y-5689285D02*
X11652380Y-5832142D01*
X11652380Y-6070238D01*
X11604761Y-6165476D01*
X11557142Y-6213095D01*
X11461904Y-6260714D01*
X11366666Y-6260714D01*
X11271428Y-6213095D01*
X11223809Y-6165476D01*
X11176190Y-6070238D01*
X11128571Y-5879761D01*
X11080952Y-5784523D01*
X11033333Y-5736904D01*
X10938095Y-5689285D01*
X10842857Y-5689285D01*
X10747619Y-5736904D01*
X10700000Y-5784523D01*
X10652380Y-5879761D01*
X10652380Y-6117857D01*
X10700000Y-6260714D01*
X11557142Y-7260714D02*
X11604761Y-7213095D01*
X11652380Y-7070238D01*
X11652380Y-6975000D01*
X11604761Y-6832142D01*
X11509523Y-6736904D01*
X11414285Y-6689285D01*
X11223809Y-6641666D01*
X11080952Y-6641666D01*
X10890476Y-6689285D01*
X10795238Y-6736904D01*
X10700000Y-6832142D01*
X10652380Y-6975000D01*
X10652380Y-7070238D01*
X10700000Y-7213095D01*
X10747619Y-7260714D01*
X10652380Y-8117857D02*
X10652380Y-7927380D01*
X10700000Y-7832142D01*
X10747619Y-7784523D01*
X10890476Y-7689285D01*
X11080952Y-7641666D01*
X11461904Y-7641666D01*
X11557142Y-7689285D01*
X11604761Y-7736904D01*
X11652380Y-7832142D01*
X11652380Y-8022619D01*
X11604761Y-8117857D01*
X11557142Y-8165476D01*
X11461904Y-8213095D01*
X11223809Y-8213095D01*
X11128571Y-8165476D01*
X11080952Y-8117857D01*
X11033333Y-8022619D01*
X11033333Y-7832142D01*
X11080952Y-7736904D01*
X11128571Y-7689285D01*
X11223809Y-7641666D01*
D13*
X11623809Y8644048D02*
X11219047Y8644048D01*
X11171428Y8667858D01*
X11147619Y8691667D01*
X11123809Y8739286D01*
X11123809Y8834524D01*
X11147619Y8882143D01*
X11171428Y8905953D01*
X11219047Y8929762D01*
X11623809Y8929762D01*
X11623809Y9405953D02*
X11623809Y9167858D01*
X11385714Y9144048D01*
X11409523Y9167858D01*
X11433333Y9215477D01*
X11433333Y9334524D01*
X11409523Y9382143D01*
X11385714Y9405953D01*
X11338095Y9429762D01*
X11219047Y9429762D01*
X11171428Y9405953D01*
X11147619Y9382143D01*
X11123809Y9334524D01*
X11123809Y9215477D01*
X11147619Y9167858D01*
X11171428Y9144048D01*
G04 #@! TO.C,C1*
D11*
X26178380Y24119048D02*
X26178380Y24690477D01*
X26178380Y24404762D02*
X25178380Y24404762D01*
X25321238Y24500000D01*
X25416476Y24595239D01*
X25464095Y24690477D01*
X25178380Y23500000D02*
X25178380Y23404762D01*
X25226000Y23309524D01*
X25273619Y23261905D01*
X25368857Y23214286D01*
X25559333Y23166667D01*
X25797428Y23166667D01*
X25987904Y23214286D01*
X26083142Y23261905D01*
X26130761Y23309524D01*
X26178380Y23404762D01*
X26178380Y23500000D01*
X26130761Y23595239D01*
X26083142Y23642858D01*
X25987904Y23690477D01*
X25797428Y23738096D01*
X25559333Y23738096D01*
X25368857Y23690477D01*
X25273619Y23642858D01*
X25226000Y23595239D01*
X25178380Y23500000D01*
X25178380Y22547620D02*
X25178380Y22452381D01*
X25226000Y22357143D01*
X25273619Y22309524D01*
X25368857Y22261905D01*
X25559333Y22214286D01*
X25797428Y22214286D01*
X25987904Y22261905D01*
X26083142Y22309524D01*
X26130761Y22357143D01*
X26178380Y22452381D01*
X26178380Y22547620D01*
X26130761Y22642858D01*
X26083142Y22690477D01*
X25987904Y22738096D01*
X25797428Y22785715D01*
X25559333Y22785715D01*
X25368857Y22738096D01*
X25273619Y22690477D01*
X25226000Y22642858D01*
X25178380Y22547620D01*
X25511714Y21785715D02*
X26178380Y21785715D01*
X25606952Y21785715D02*
X25559333Y21738096D01*
X25511714Y21642858D01*
X25511714Y21500000D01*
X25559333Y21404762D01*
X25654571Y21357143D01*
X26178380Y21357143D01*
D12*
X25954571Y14324714D02*
X25978380Y14348523D01*
X26002190Y14419952D01*
X26002190Y14467571D01*
X25978380Y14539000D01*
X25930761Y14586619D01*
X25883142Y14610428D01*
X25787904Y14634238D01*
X25716476Y14634238D01*
X25621238Y14610428D01*
X25573619Y14586619D01*
X25526000Y14539000D01*
X25502190Y14467571D01*
X25502190Y14419952D01*
X25526000Y14348523D01*
X25549809Y14324714D01*
X26002190Y13848523D02*
X26002190Y14134238D01*
X26002190Y13991380D02*
X25502190Y13991380D01*
X25573619Y14039000D01*
X25621238Y14086619D01*
X25645047Y14134238D01*
G04 #@! TO.C,C2*
D11*
X20185380Y24826858D02*
X20185380Y25398286D01*
X20185380Y25112572D02*
X19185380Y25112572D01*
X19328238Y25207810D01*
X19423476Y25303048D01*
X19471095Y25398286D01*
X19185380Y24207810D02*
X19185380Y24112572D01*
X19233000Y24017334D01*
X19280619Y23969715D01*
X19375857Y23922096D01*
X19566333Y23874477D01*
X19804428Y23874477D01*
X19994904Y23922096D01*
X20090142Y23969715D01*
X20137761Y24017334D01*
X20185380Y24112572D01*
X20185380Y24207810D01*
X20137761Y24303048D01*
X20090142Y24350667D01*
X19994904Y24398286D01*
X19804428Y24445905D01*
X19566333Y24445905D01*
X19375857Y24398286D01*
X19280619Y24350667D01*
X19233000Y24303048D01*
X19185380Y24207810D01*
X19518714Y23017334D02*
X20185380Y23017334D01*
X19518714Y23445905D02*
X20042523Y23445905D01*
X20137761Y23398286D01*
X20185380Y23303048D01*
X20185380Y23160191D01*
X20137761Y23064953D01*
X20090142Y23017334D01*
D12*
X19703571Y14324714D02*
X19727380Y14348523D01*
X19751190Y14419952D01*
X19751190Y14467571D01*
X19727380Y14539000D01*
X19679761Y14586619D01*
X19632142Y14610428D01*
X19536904Y14634238D01*
X19465476Y14634238D01*
X19370238Y14610428D01*
X19322619Y14586619D01*
X19275000Y14539000D01*
X19251190Y14467571D01*
X19251190Y14419952D01*
X19275000Y14348523D01*
X19298809Y14324714D01*
X19298809Y14134238D02*
X19275000Y14110428D01*
X19251190Y14062809D01*
X19251190Y13943761D01*
X19275000Y13896142D01*
X19298809Y13872333D01*
X19346428Y13848523D01*
X19394047Y13848523D01*
X19465476Y13872333D01*
X19751190Y14158047D01*
X19751190Y13848523D01*
G04 #@! TO.C,C3*
D11*
X18026380Y25811048D02*
X18026380Y26382477D01*
X18026380Y26096762D02*
X17026380Y26096762D01*
X17169238Y26192000D01*
X17264476Y26287239D01*
X17312095Y26382477D01*
X17026380Y25192000D02*
X17026380Y25096762D01*
X17074000Y25001524D01*
X17121619Y24953905D01*
X17216857Y24906286D01*
X17407333Y24858667D01*
X17645428Y24858667D01*
X17835904Y24906286D01*
X17931142Y24953905D01*
X17978761Y25001524D01*
X18026380Y25096762D01*
X18026380Y25192000D01*
X17978761Y25287239D01*
X17931142Y25334858D01*
X17835904Y25382477D01*
X17645428Y25430096D01*
X17407333Y25430096D01*
X17216857Y25382477D01*
X17121619Y25334858D01*
X17074000Y25287239D01*
X17026380Y25192000D01*
X17026380Y24239620D02*
X17026380Y24144381D01*
X17074000Y24049143D01*
X17121619Y24001524D01*
X17216857Y23953905D01*
X17407333Y23906286D01*
X17645428Y23906286D01*
X17835904Y23953905D01*
X17931142Y24001524D01*
X17978761Y24049143D01*
X18026380Y24144381D01*
X18026380Y24239620D01*
X17978761Y24334858D01*
X17931142Y24382477D01*
X17835904Y24430096D01*
X17645428Y24477715D01*
X17407333Y24477715D01*
X17216857Y24430096D01*
X17121619Y24382477D01*
X17074000Y24334858D01*
X17026380Y24239620D01*
X17359714Y23477715D02*
X18026380Y23477715D01*
X17454952Y23477715D02*
X17407333Y23430096D01*
X17359714Y23334858D01*
X17359714Y23192000D01*
X17407333Y23096762D01*
X17502571Y23049143D01*
X18026380Y23049143D01*
D12*
X17753571Y14324714D02*
X17777380Y14348523D01*
X17801190Y14419952D01*
X17801190Y14467571D01*
X17777380Y14539000D01*
X17729761Y14586619D01*
X17682142Y14610428D01*
X17586904Y14634238D01*
X17515476Y14634238D01*
X17420238Y14610428D01*
X17372619Y14586619D01*
X17325000Y14539000D01*
X17301190Y14467571D01*
X17301190Y14419952D01*
X17325000Y14348523D01*
X17348809Y14324714D01*
X17301190Y14158047D02*
X17301190Y13848523D01*
X17491666Y14015190D01*
X17491666Y13943761D01*
X17515476Y13896142D01*
X17539285Y13872333D01*
X17586904Y13848523D01*
X17705952Y13848523D01*
X17753571Y13872333D01*
X17777380Y13896142D01*
X17801190Y13943761D01*
X17801190Y14086619D01*
X17777380Y14134238D01*
X17753571Y14158047D01*
G04 #@! TO.C,C4*
D11*
X27928380Y23392858D02*
X27928380Y23964286D01*
X27928380Y23678572D02*
X26928380Y23678572D01*
X27071238Y23773810D01*
X27166476Y23869048D01*
X27214095Y23964286D01*
X26928380Y22773810D02*
X26928380Y22678572D01*
X26976000Y22583334D01*
X27023619Y22535715D01*
X27118857Y22488096D01*
X27309333Y22440477D01*
X27547428Y22440477D01*
X27737904Y22488096D01*
X27833142Y22535715D01*
X27880761Y22583334D01*
X27928380Y22678572D01*
X27928380Y22773810D01*
X27880761Y22869048D01*
X27833142Y22916667D01*
X27737904Y22964286D01*
X27547428Y23011905D01*
X27309333Y23011905D01*
X27118857Y22964286D01*
X27023619Y22916667D01*
X26976000Y22869048D01*
X26928380Y22773810D01*
X27261714Y21583334D02*
X27928380Y21583334D01*
X27261714Y22011905D02*
X27785523Y22011905D01*
X27880761Y21964286D01*
X27928380Y21869048D01*
X27928380Y21726191D01*
X27880761Y21630953D01*
X27833142Y21583334D01*
D12*
X27904571Y14324714D02*
X27928380Y14348523D01*
X27952190Y14419952D01*
X27952190Y14467571D01*
X27928380Y14539000D01*
X27880761Y14586619D01*
X27833142Y14610428D01*
X27737904Y14634238D01*
X27666476Y14634238D01*
X27571238Y14610428D01*
X27523619Y14586619D01*
X27476000Y14539000D01*
X27452190Y14467571D01*
X27452190Y14419952D01*
X27476000Y14348523D01*
X27499809Y14324714D01*
X27618857Y13896142D02*
X27952190Y13896142D01*
X27428380Y14015190D02*
X27785523Y14134238D01*
X27785523Y13824714D01*
G04 #@! TO.C,C5*
D11*
X41017547Y11547620D02*
X41588976Y11547620D01*
X41303261Y11547620D02*
X41303261Y12547620D01*
X41398500Y12404762D01*
X41493738Y12309524D01*
X41588976Y12261905D01*
X40398500Y12547620D02*
X40303261Y12547620D01*
X40208023Y12500000D01*
X40160404Y12452381D01*
X40112785Y12357143D01*
X40065166Y12166667D01*
X40065166Y11928572D01*
X40112785Y11738096D01*
X40160404Y11642858D01*
X40208023Y11595239D01*
X40303261Y11547620D01*
X40398500Y11547620D01*
X40493738Y11595239D01*
X40541357Y11642858D01*
X40588976Y11738096D01*
X40636595Y11928572D01*
X40636595Y12166667D01*
X40588976Y12357143D01*
X40541357Y12452381D01*
X40493738Y12500000D01*
X40398500Y12547620D01*
X39446119Y12547620D02*
X39350880Y12547620D01*
X39255642Y12500000D01*
X39208023Y12452381D01*
X39160404Y12357143D01*
X39112785Y12166667D01*
X39112785Y11928572D01*
X39160404Y11738096D01*
X39208023Y11642858D01*
X39255642Y11595239D01*
X39350880Y11547620D01*
X39446119Y11547620D01*
X39541357Y11595239D01*
X39588976Y11642858D01*
X39636595Y11738096D01*
X39684214Y11928572D01*
X39684214Y12166667D01*
X39636595Y12357143D01*
X39588976Y12452381D01*
X39541357Y12500000D01*
X39446119Y12547620D01*
X38684214Y12214286D02*
X38684214Y11547620D01*
X38684214Y12119048D02*
X38636595Y12166667D01*
X38541357Y12214286D01*
X38398500Y12214286D01*
X38303261Y12166667D01*
X38255642Y12071429D01*
X38255642Y11547620D01*
D12*
X35231833Y11821429D02*
X35255642Y11797620D01*
X35327071Y11773810D01*
X35374690Y11773810D01*
X35446119Y11797620D01*
X35493738Y11845239D01*
X35517547Y11892858D01*
X35541357Y11988096D01*
X35541357Y12059524D01*
X35517547Y12154762D01*
X35493738Y12202381D01*
X35446119Y12250000D01*
X35374690Y12273810D01*
X35327071Y12273810D01*
X35255642Y12250000D01*
X35231833Y12226191D01*
X34779452Y12273810D02*
X35017547Y12273810D01*
X35041357Y12035715D01*
X35017547Y12059524D01*
X34969928Y12083334D01*
X34850880Y12083334D01*
X34803261Y12059524D01*
X34779452Y12035715D01*
X34755642Y11988096D01*
X34755642Y11869048D01*
X34779452Y11821429D01*
X34803261Y11797620D01*
X34850880Y11773810D01*
X34969928Y11773810D01*
X35017547Y11797620D01*
X35041357Y11821429D01*
G04 #@! TO.C,C6*
D11*
X18693047Y-1668380D02*
X19264476Y-1668380D01*
X18978761Y-1668380D02*
X18978761Y-668380D01*
X19074000Y-811238D01*
X19169238Y-906476D01*
X19264476Y-954095D01*
X18074000Y-668380D02*
X17978761Y-668380D01*
X17883523Y-716000D01*
X17835904Y-763619D01*
X17788285Y-858857D01*
X17740666Y-1049333D01*
X17740666Y-1287428D01*
X17788285Y-1477904D01*
X17835904Y-1573142D01*
X17883523Y-1620761D01*
X17978761Y-1668380D01*
X18074000Y-1668380D01*
X18169238Y-1620761D01*
X18216857Y-1573142D01*
X18264476Y-1477904D01*
X18312095Y-1287428D01*
X18312095Y-1049333D01*
X18264476Y-858857D01*
X18216857Y-763619D01*
X18169238Y-716000D01*
X18074000Y-668380D01*
X17121619Y-668380D02*
X17026380Y-668380D01*
X16931142Y-716000D01*
X16883523Y-763619D01*
X16835904Y-858857D01*
X16788285Y-1049333D01*
X16788285Y-1287428D01*
X16835904Y-1477904D01*
X16883523Y-1573142D01*
X16931142Y-1620761D01*
X17026380Y-1668380D01*
X17121619Y-1668380D01*
X17216857Y-1620761D01*
X17264476Y-1573142D01*
X17312095Y-1477904D01*
X17359714Y-1287428D01*
X17359714Y-1049333D01*
X17312095Y-858857D01*
X17264476Y-763619D01*
X17216857Y-716000D01*
X17121619Y-668380D01*
X16359714Y-1001714D02*
X16359714Y-1668380D01*
X16359714Y-1096952D02*
X16312095Y-1049333D01*
X16216857Y-1001714D01*
X16074000Y-1001714D01*
X15978761Y-1049333D01*
X15931142Y-1144571D01*
X15931142Y-1668380D01*
D12*
X17227833Y4828429D02*
X17251642Y4804620D01*
X17323071Y4780810D01*
X17370690Y4780810D01*
X17442119Y4804620D01*
X17489738Y4852239D01*
X17513547Y4899858D01*
X17537357Y4995096D01*
X17537357Y5066524D01*
X17513547Y5161762D01*
X17489738Y5209381D01*
X17442119Y5257000D01*
X17370690Y5280810D01*
X17323071Y5280810D01*
X17251642Y5257000D01*
X17227833Y5233191D01*
X16799261Y5280810D02*
X16894500Y5280810D01*
X16942119Y5257000D01*
X16965928Y5233191D01*
X17013547Y5161762D01*
X17037357Y5066524D01*
X17037357Y4876048D01*
X17013547Y4828429D01*
X16989738Y4804620D01*
X16942119Y4780810D01*
X16846880Y4780810D01*
X16799261Y4804620D01*
X16775452Y4828429D01*
X16751642Y4876048D01*
X16751642Y4995096D01*
X16775452Y5042715D01*
X16799261Y5066524D01*
X16846880Y5090334D01*
X16942119Y5090334D01*
X16989738Y5066524D01*
X17013547Y5042715D01*
X17037357Y4995096D01*
G04 #@! TO.C,C7*
D11*
X11119047Y17797620D02*
X11690476Y17797620D01*
X11404761Y17797620D02*
X11404761Y18797620D01*
X11500000Y18654762D01*
X11595238Y18559524D01*
X11690476Y18511905D01*
X10500000Y18797620D02*
X10404761Y18797620D01*
X10309523Y18750000D01*
X10261904Y18702381D01*
X10214285Y18607143D01*
X10166666Y18416667D01*
X10166666Y18178572D01*
X10214285Y17988096D01*
X10261904Y17892858D01*
X10309523Y17845239D01*
X10404761Y17797620D01*
X10500000Y17797620D01*
X10595238Y17845239D01*
X10642857Y17892858D01*
X10690476Y17988096D01*
X10738095Y18178572D01*
X10738095Y18416667D01*
X10690476Y18607143D01*
X10642857Y18702381D01*
X10595238Y18750000D01*
X10500000Y18797620D01*
X9547619Y18797620D02*
X9452380Y18797620D01*
X9357142Y18750000D01*
X9309523Y18702381D01*
X9261904Y18607143D01*
X9214285Y18416667D01*
X9214285Y18178572D01*
X9261904Y17988096D01*
X9309523Y17892858D01*
X9357142Y17845239D01*
X9452380Y17797620D01*
X9547619Y17797620D01*
X9642857Y17845239D01*
X9690476Y17892858D01*
X9738095Y17988096D01*
X9785714Y18178572D01*
X9785714Y18416667D01*
X9738095Y18607143D01*
X9690476Y18702381D01*
X9642857Y18750000D01*
X9547619Y18797620D01*
X8785714Y18464286D02*
X8785714Y17797620D01*
X8785714Y18369048D02*
X8738095Y18416667D01*
X8642857Y18464286D01*
X8500000Y18464286D01*
X8404761Y18416667D01*
X8357142Y18321429D01*
X8357142Y17797620D01*
D12*
X11483333Y11621429D02*
X11507142Y11597620D01*
X11578571Y11573810D01*
X11626190Y11573810D01*
X11697619Y11597620D01*
X11745238Y11645239D01*
X11769047Y11692858D01*
X11792857Y11788096D01*
X11792857Y11859524D01*
X11769047Y11954762D01*
X11745238Y12002381D01*
X11697619Y12050000D01*
X11626190Y12073810D01*
X11578571Y12073810D01*
X11507142Y12050000D01*
X11483333Y12026191D01*
X11316666Y12073810D02*
X10983333Y12073810D01*
X11197619Y11573810D01*
G04 #@! TO.C,D1*
D11*
X11329761Y19396429D02*
X11186904Y19348810D01*
X11139285Y19301191D01*
X11091666Y19205953D01*
X11091666Y19063096D01*
X11139285Y18967858D01*
X11186904Y18920239D01*
X11282142Y18872620D01*
X11663095Y18872620D01*
X11663095Y19872620D01*
X11329761Y19872620D01*
X11234523Y19825000D01*
X11186904Y19777381D01*
X11139285Y19682143D01*
X11139285Y19586905D01*
X11186904Y19491667D01*
X11234523Y19444048D01*
X11329761Y19396429D01*
X11663095Y19396429D01*
X10186904Y19872620D02*
X10663095Y19872620D01*
X10710714Y19396429D01*
X10663095Y19444048D01*
X10567857Y19491667D01*
X10329761Y19491667D01*
X10234523Y19444048D01*
X10186904Y19396429D01*
X10139285Y19301191D01*
X10139285Y19063096D01*
X10186904Y18967858D01*
X10234523Y18920239D01*
X10329761Y18872620D01*
X10567857Y18872620D01*
X10663095Y18920239D01*
X10710714Y18967858D01*
X9567857Y19444048D02*
X9663095Y19491667D01*
X9710714Y19539286D01*
X9758333Y19634524D01*
X9758333Y19682143D01*
X9710714Y19777381D01*
X9663095Y19825000D01*
X9567857Y19872620D01*
X9377380Y19872620D01*
X9282142Y19825000D01*
X9234523Y19777381D01*
X9186904Y19682143D01*
X9186904Y19634524D01*
X9234523Y19539286D01*
X9282142Y19491667D01*
X9377380Y19444048D01*
X9567857Y19444048D01*
X9663095Y19396429D01*
X9710714Y19348810D01*
X9758333Y19253572D01*
X9758333Y19063096D01*
X9710714Y18967858D01*
X9663095Y18920239D01*
X9567857Y18872620D01*
X9377380Y18872620D01*
X9282142Y18920239D01*
X9234523Y18967858D01*
X9186904Y19063096D01*
X9186904Y19253572D01*
X9234523Y19348810D01*
X9282142Y19396429D01*
X9377380Y19444048D01*
X8234523Y18872620D02*
X8805952Y18872620D01*
X8520238Y18872620D02*
X8520238Y19872620D01*
X8615476Y19729762D01*
X8710714Y19634524D01*
X8805952Y19586905D01*
X7901190Y19872620D02*
X7234523Y19872620D01*
X7663095Y18872620D01*
X6948809Y19872620D02*
X6710714Y18872620D01*
X6520238Y19586905D01*
X6329761Y18872620D01*
X6091666Y19872620D01*
G04 #@! TO.C,R1*
X34426677Y23359597D02*
X34426677Y23931025D01*
X34426677Y23645311D02*
X33426677Y23645311D01*
X33569535Y23740549D01*
X33664773Y23835787D01*
X33712392Y23931025D01*
X33426677Y22740549D02*
X33426677Y22645311D01*
X33474297Y22550073D01*
X33521916Y22502454D01*
X33617154Y22454835D01*
X33807630Y22407216D01*
X34045725Y22407216D01*
X34236201Y22454835D01*
X34331439Y22502454D01*
X34379058Y22550073D01*
X34426677Y22645311D01*
X34426677Y22740549D01*
X34379058Y22835787D01*
X34331439Y22883406D01*
X34236201Y22931025D01*
X34045725Y22978644D01*
X33807630Y22978644D01*
X33617154Y22931025D01*
X33521916Y22883406D01*
X33474297Y22835787D01*
X33426677Y22740549D01*
X34426677Y21978644D02*
X33426677Y21978644D01*
X34426677Y21407216D02*
X33855249Y21835787D01*
X33426677Y21407216D02*
X33998106Y21978644D01*
D12*
X34056190Y14693834D02*
X33818095Y14860500D01*
X34056190Y14979548D02*
X33556190Y14979548D01*
X33556190Y14789072D01*
X33580000Y14741453D01*
X33603809Y14717643D01*
X33651428Y14693834D01*
X33722857Y14693834D01*
X33770476Y14717643D01*
X33794285Y14741453D01*
X33818095Y14789072D01*
X33818095Y14979548D01*
X34056190Y14217643D02*
X34056190Y14503358D01*
X34056190Y14360500D02*
X33556190Y14360500D01*
X33627619Y14408120D01*
X33675238Y14455739D01*
X33699047Y14503358D01*
G04 #@! TO.C,R2*
D11*
X32013677Y22618406D02*
X32013677Y23189835D01*
X32013677Y22904120D02*
X31013677Y22904120D01*
X31156535Y22999359D01*
X31251773Y23094597D01*
X31299392Y23189835D01*
X32013677Y22189835D02*
X31013677Y22189835D01*
X32013677Y21618406D02*
X31442249Y22046978D01*
X31013677Y21618406D02*
X31585106Y22189835D01*
D12*
X31643190Y14678834D02*
X31405095Y14845500D01*
X31643190Y14964548D02*
X31143190Y14964548D01*
X31143190Y14774072D01*
X31167000Y14726453D01*
X31190809Y14702643D01*
X31238428Y14678834D01*
X31309857Y14678834D01*
X31357476Y14702643D01*
X31381285Y14726453D01*
X31405095Y14774072D01*
X31405095Y14964548D01*
X31190809Y14488358D02*
X31167000Y14464548D01*
X31143190Y14416929D01*
X31143190Y14297881D01*
X31167000Y14250262D01*
X31190809Y14226453D01*
X31238428Y14202643D01*
X31286047Y14202643D01*
X31357476Y14226453D01*
X31643190Y14512167D01*
X31643190Y14202643D01*
G04 #@! TO.C,R3*
D11*
X36702380Y23640477D02*
X36702380Y24211905D01*
X36702380Y23926191D02*
X35702380Y23926191D01*
X35845238Y24021429D01*
X35940476Y24116667D01*
X35988095Y24211905D01*
X35702380Y23021429D02*
X35702380Y22926191D01*
X35750000Y22830953D01*
X35797619Y22783334D01*
X35892857Y22735715D01*
X36083333Y22688096D01*
X36321428Y22688096D01*
X36511904Y22735715D01*
X36607142Y22783334D01*
X36654761Y22830953D01*
X36702380Y22926191D01*
X36702380Y23021429D01*
X36654761Y23116667D01*
X36607142Y23164286D01*
X36511904Y23211905D01*
X36321428Y23259524D01*
X36083333Y23259524D01*
X35892857Y23211905D01*
X35797619Y23164286D01*
X35750000Y23116667D01*
X35702380Y23021429D01*
X36702380Y22259524D02*
X35702380Y22259524D01*
X36702380Y21688096D02*
X36130952Y22116667D01*
X35702380Y21688096D02*
X36273809Y22259524D01*
D12*
X36581893Y14724714D02*
X36343798Y14891380D01*
X36581893Y15010428D02*
X36081893Y15010428D01*
X36081893Y14819952D01*
X36105703Y14772333D01*
X36129512Y14748523D01*
X36177131Y14724714D01*
X36248560Y14724714D01*
X36296179Y14748523D01*
X36319988Y14772333D01*
X36343798Y14819952D01*
X36343798Y15010428D01*
X36081893Y14558047D02*
X36081893Y14248523D01*
X36272369Y14415190D01*
X36272369Y14343761D01*
X36296179Y14296142D01*
X36319988Y14272333D01*
X36367607Y14248523D01*
X36486655Y14248523D01*
X36534274Y14272333D01*
X36558083Y14296142D01*
X36581893Y14343761D01*
X36581893Y14486619D01*
X36558083Y14534238D01*
X36534274Y14558047D01*
G04 #@! TO.C,R4*
D11*
X24279476Y-1605760D02*
X24850904Y-1605760D01*
X24565190Y-1605760D02*
X24565190Y-605760D01*
X24660428Y-748618D01*
X24755666Y-843856D01*
X24850904Y-891475D01*
X23660428Y-605760D02*
X23565190Y-605760D01*
X23469952Y-653380D01*
X23422333Y-700999D01*
X23374714Y-796237D01*
X23327095Y-986713D01*
X23327095Y-1224808D01*
X23374714Y-1415284D01*
X23422333Y-1510522D01*
X23469952Y-1558141D01*
X23565190Y-1605760D01*
X23660428Y-1605760D01*
X23755666Y-1558141D01*
X23803285Y-1510522D01*
X23850904Y-1415284D01*
X23898523Y-1224808D01*
X23898523Y-986713D01*
X23850904Y-796237D01*
X23803285Y-700999D01*
X23755666Y-653380D01*
X23660428Y-605760D01*
X22898523Y-1605760D02*
X22898523Y-605760D01*
X22327095Y-1605760D02*
X22755666Y-1034332D01*
X22327095Y-605760D02*
X22898523Y-1177189D01*
D12*
X23372333Y5161810D02*
X23539000Y5399905D01*
X23658047Y5161810D02*
X23658047Y5661810D01*
X23467571Y5661810D01*
X23419952Y5638000D01*
X23396142Y5614191D01*
X23372333Y5566572D01*
X23372333Y5495143D01*
X23396142Y5447524D01*
X23419952Y5423715D01*
X23467571Y5399905D01*
X23658047Y5399905D01*
X22943761Y5495143D02*
X22943761Y5161810D01*
X23062809Y5685620D02*
X23181857Y5328477D01*
X22872333Y5328477D01*
G04 #@! TO.C,R5*
D11*
X28694380Y-970023D02*
X28694380Y-398595D01*
X28694380Y-684309D02*
X27694380Y-684309D01*
X27837238Y-589071D01*
X27932476Y-493833D01*
X27980095Y-398595D01*
X27694380Y-1589071D02*
X27694380Y-1684309D01*
X27742000Y-1779547D01*
X27789619Y-1827166D01*
X27884857Y-1874785D01*
X28075333Y-1922404D01*
X28313428Y-1922404D01*
X28503904Y-1874785D01*
X28599142Y-1827166D01*
X28646761Y-1779547D01*
X28694380Y-1684309D01*
X28694380Y-1589071D01*
X28646761Y-1493833D01*
X28599142Y-1446214D01*
X28503904Y-1398595D01*
X28313428Y-1350976D01*
X28075333Y-1350976D01*
X27884857Y-1398595D01*
X27789619Y-1446214D01*
X27742000Y-1493833D01*
X27694380Y-1589071D01*
X28694380Y-2350976D02*
X27694380Y-2350976D01*
X28694380Y-2922404D02*
X28122952Y-2493833D01*
X27694380Y-2922404D02*
X28265809Y-2350976D01*
D12*
X28468190Y7884334D02*
X28230095Y8051000D01*
X28468190Y8170048D02*
X27968190Y8170048D01*
X27968190Y7979572D01*
X27992000Y7931953D01*
X28015809Y7908143D01*
X28063428Y7884334D01*
X28134857Y7884334D01*
X28182476Y7908143D01*
X28206285Y7931953D01*
X28230095Y7979572D01*
X28230095Y8170048D01*
X27968190Y7431953D02*
X27968190Y7670048D01*
X28206285Y7693858D01*
X28182476Y7670048D01*
X28158666Y7622429D01*
X28158666Y7503381D01*
X28182476Y7455762D01*
X28206285Y7431953D01*
X28253904Y7408143D01*
X28372952Y7408143D01*
X28420571Y7431953D01*
X28444380Y7455762D01*
X28468190Y7503381D01*
X28468190Y7622429D01*
X28444380Y7670048D01*
X28420571Y7693858D01*
G04 #@! TO.C,R6*
D11*
X40870476Y8237620D02*
X41441904Y8237620D01*
X41156190Y8237620D02*
X41156190Y9237620D01*
X41251428Y9094762D01*
X41346666Y8999524D01*
X41441904Y8951905D01*
X40251428Y9237620D02*
X40156190Y9237620D01*
X40060952Y9190000D01*
X40013333Y9142381D01*
X39965714Y9047143D01*
X39918095Y8856667D01*
X39918095Y8618572D01*
X39965714Y8428096D01*
X40013333Y8332858D01*
X40060952Y8285239D01*
X40156190Y8237620D01*
X40251428Y8237620D01*
X40346666Y8285239D01*
X40394285Y8332858D01*
X40441904Y8428096D01*
X40489523Y8618572D01*
X40489523Y8856667D01*
X40441904Y9047143D01*
X40394285Y9142381D01*
X40346666Y9190000D01*
X40251428Y9237620D01*
X39489523Y8237620D02*
X39489523Y9237620D01*
X38918095Y8237620D02*
X39346666Y8809048D01*
X38918095Y9237620D02*
X39489523Y8666191D01*
D12*
X31197833Y8590810D02*
X31364500Y8828905D01*
X31483547Y8590810D02*
X31483547Y9090810D01*
X31293071Y9090810D01*
X31245452Y9067000D01*
X31221642Y9043191D01*
X31197833Y8995572D01*
X31197833Y8924143D01*
X31221642Y8876524D01*
X31245452Y8852715D01*
X31293071Y8828905D01*
X31483547Y8828905D01*
X30769261Y9090810D02*
X30864500Y9090810D01*
X30912119Y9067000D01*
X30935928Y9043191D01*
X30983547Y8971762D01*
X31007357Y8876524D01*
X31007357Y8686048D01*
X30983547Y8638429D01*
X30959738Y8614620D01*
X30912119Y8590810D01*
X30816880Y8590810D01*
X30769261Y8614620D01*
X30745452Y8638429D01*
X30721642Y8686048D01*
X30721642Y8805096D01*
X30745452Y8852715D01*
X30769261Y8876524D01*
X30816880Y8900334D01*
X30912119Y8900334D01*
X30959738Y8876524D01*
X30983547Y8852715D01*
X31007357Y8805096D01*
G04 #@! TO.C,R7*
D11*
X40870476Y6523120D02*
X41441904Y6523120D01*
X41156190Y6523120D02*
X41156190Y7523120D01*
X41251428Y7380262D01*
X41346666Y7285024D01*
X41441904Y7237405D01*
X40251428Y7523120D02*
X40156190Y7523120D01*
X40060952Y7475500D01*
X40013333Y7427881D01*
X39965714Y7332643D01*
X39918095Y7142167D01*
X39918095Y6904072D01*
X39965714Y6713596D01*
X40013333Y6618358D01*
X40060952Y6570739D01*
X40156190Y6523120D01*
X40251428Y6523120D01*
X40346666Y6570739D01*
X40394285Y6618358D01*
X40441904Y6713596D01*
X40489523Y6904072D01*
X40489523Y7142167D01*
X40441904Y7332643D01*
X40394285Y7427881D01*
X40346666Y7475500D01*
X40251428Y7523120D01*
X39489523Y6523120D02*
X39489523Y7523120D01*
X38918095Y6523120D02*
X39346666Y7094548D01*
X38918095Y7523120D02*
X39489523Y6951691D01*
D12*
X31197833Y6558810D02*
X31364500Y6796905D01*
X31483547Y6558810D02*
X31483547Y7058810D01*
X31293071Y7058810D01*
X31245452Y7035000D01*
X31221642Y7011191D01*
X31197833Y6963572D01*
X31197833Y6892143D01*
X31221642Y6844524D01*
X31245452Y6820715D01*
X31293071Y6796905D01*
X31483547Y6796905D01*
X31031166Y7058810D02*
X30697833Y7058810D01*
X30912119Y6558810D01*
G04 #@! TO.C,R8*
D11*
X22535714Y-2688095D02*
X23202380Y-2688095D01*
X22154761Y-2450000D02*
X22869047Y-2211904D01*
X22869047Y-2830952D01*
X22202380Y-3116666D02*
X22202380Y-3783333D01*
X23202380Y-3354761D01*
X22202380Y-4354761D02*
X22202380Y-4450000D01*
X22250000Y-4545238D01*
X22297619Y-4592857D01*
X22392857Y-4640476D01*
X22583333Y-4688095D01*
X22821428Y-4688095D01*
X23011904Y-4640476D01*
X23107142Y-4592857D01*
X23154761Y-4545238D01*
X23202380Y-4450000D01*
X23202380Y-4354761D01*
X23154761Y-4259523D01*
X23107142Y-4211904D01*
X23011904Y-4164285D01*
X22821428Y-4116666D01*
X22583333Y-4116666D01*
X22392857Y-4164285D01*
X22297619Y-4211904D01*
X22250000Y-4259523D01*
X22202380Y-4354761D01*
X23202380Y-5688095D02*
X22726190Y-5354761D01*
X23202380Y-5116666D02*
X22202380Y-5116666D01*
X22202380Y-5497619D01*
X22250000Y-5592857D01*
X22297619Y-5640476D01*
X22392857Y-5688095D01*
X22535714Y-5688095D01*
X22630952Y-5640476D01*
X22678571Y-5592857D01*
X22726190Y-5497619D01*
X22726190Y-5116666D01*
D12*
X23176190Y9789334D02*
X22938095Y9956000D01*
X23176190Y10075048D02*
X22676190Y10075048D01*
X22676190Y9884572D01*
X22700000Y9836953D01*
X22723809Y9813143D01*
X22771428Y9789334D01*
X22842857Y9789334D01*
X22890476Y9813143D01*
X22914285Y9836953D01*
X22938095Y9884572D01*
X22938095Y10075048D01*
X22890476Y9503620D02*
X22866666Y9551239D01*
X22842857Y9575048D01*
X22795238Y9598858D01*
X22771428Y9598858D01*
X22723809Y9575048D01*
X22700000Y9551239D01*
X22676190Y9503620D01*
X22676190Y9408381D01*
X22700000Y9360762D01*
X22723809Y9336953D01*
X22771428Y9313143D01*
X22795238Y9313143D01*
X22842857Y9336953D01*
X22866666Y9360762D01*
X22890476Y9408381D01*
X22890476Y9503620D01*
X22914285Y9551239D01*
X22938095Y9575048D01*
X22985714Y9598858D01*
X23080952Y9598858D01*
X23128571Y9575048D01*
X23152380Y9551239D01*
X23176190Y9503620D01*
X23176190Y9408381D01*
X23152380Y9360762D01*
X23128571Y9336953D01*
X23080952Y9313143D01*
X22985714Y9313143D01*
X22938095Y9336953D01*
X22914285Y9360762D01*
X22890476Y9408381D01*
G04 #@! TO.C,U2*
D11*
X23202380Y26571429D02*
X22202380Y26571429D01*
X22678571Y26571429D02*
X22678571Y26000000D01*
X23202380Y26000000D02*
X22202380Y26000000D01*
X22202380Y25666667D02*
X22202380Y25095239D01*
X23202380Y25380953D02*
X22202380Y25380953D01*
X22202380Y24857143D02*
X22202380Y24190477D01*
X23202380Y24619048D01*
X22297619Y23857143D02*
X22250000Y23809524D01*
X22202380Y23714286D01*
X22202380Y23476191D01*
X22250000Y23380953D01*
X22297619Y23333334D01*
X22392857Y23285715D01*
X22488095Y23285715D01*
X22630952Y23333334D01*
X23202380Y23904762D01*
X23202380Y23285715D01*
X22202380Y22952381D02*
X22202380Y22333334D01*
X22583333Y22666667D01*
X22583333Y22523810D01*
X22630952Y22428572D01*
X22678571Y22380953D01*
X22773809Y22333334D01*
X23011904Y22333334D01*
X23107142Y22380953D01*
X23154761Y22428572D01*
X23202380Y22523810D01*
X23202380Y22809524D01*
X23154761Y22904762D01*
X23107142Y22952381D01*
X22202380Y22000000D02*
X22202380Y21380953D01*
X22583333Y21714286D01*
X22583333Y21571429D01*
X22630952Y21476191D01*
X22678571Y21428572D01*
X22773809Y21380953D01*
X23011904Y21380953D01*
X23107142Y21428572D01*
X23154761Y21476191D01*
X23202380Y21571429D01*
X23202380Y21857143D01*
X23154761Y21952381D01*
X23107142Y22000000D01*
D13*
X22927809Y13643048D02*
X22523047Y13643048D01*
X22475428Y13666858D01*
X22451619Y13690667D01*
X22427809Y13738286D01*
X22427809Y13833524D01*
X22451619Y13881143D01*
X22475428Y13904953D01*
X22523047Y13928762D01*
X22927809Y13928762D01*
X22880190Y14143048D02*
X22904000Y14166858D01*
X22927809Y14214477D01*
X22927809Y14333524D01*
X22904000Y14381143D01*
X22880190Y14404953D01*
X22832571Y14428762D01*
X22784952Y14428762D01*
X22713523Y14404953D01*
X22427809Y14119239D01*
X22427809Y14428762D01*
G04 #@! TD*
M02*
