G04 #@! TF.GenerationSoftware,KiCad,Pcbnew,5.0.2-bee76a0~70~ubuntu18.04.1*
G04 #@! TF.CreationDate,2019-11-14T18:25:57-05:00*
G04 #@! TF.ProjectId,ESP-AHT10-Extra,4553502d-4148-4543-9130-2d4578747261,1.2*
G04 #@! TF.SameCoordinates,PX7bfa480PY66c2270*
G04 #@! TF.FileFunction,Legend,Bot*
G04 #@! TF.FilePolarity,Positive*
%FSLAX46Y46*%
G04 Gerber Fmt 4.6, Leading zero omitted, Abs format (unit mm)*
G04 Created by KiCad (PCBNEW 5.0.2-bee76a0~70~ubuntu18.04.1) date Thu 14 Nov 2019 06:25:57 PM EST*
%MOMM*%
%LPD*%
G01*
G04 APERTURE LIST*
%ADD10C,0.120000*%
%ADD11C,0.150000*%
G04 APERTURE END LIST*
D10*
G04 #@! TO.C,C7*
X10900000Y12650000D02*
X11900000Y12650000D01*
X11900000Y10950000D02*
X10900000Y10950000D01*
G04 #@! TO.C,F1*
X14965000Y13953922D02*
X14965000Y14471078D01*
X16385000Y13953922D02*
X16385000Y14471078D01*
G04 #@! TO.C,C1*
X26450000Y13741380D02*
X26450000Y14741380D01*
X28150000Y14741380D02*
X28150000Y13741380D01*
G04 #@! TO.C,C2*
X18675000Y13741380D02*
X18675000Y14741380D01*
X20375000Y14741380D02*
X20375000Y13741380D01*
G04 #@! TO.C,C3*
X16725000Y13741380D02*
X16725000Y14741380D01*
X18425000Y14741380D02*
X18425000Y13741380D01*
G04 #@! TO.C,C4*
X28400000Y13741380D02*
X28400000Y14741380D01*
X30100000Y14741380D02*
X30100000Y13741380D01*
G04 #@! TO.C,C5*
X35000000Y12850000D02*
X36000000Y12850000D01*
X36000000Y11150000D02*
X35000000Y11150000D01*
G04 #@! TO.C,R1*
X33475703Y15041380D02*
X33475703Y13841380D01*
X35235703Y13841380D02*
X35235703Y15041380D01*
G04 #@! TO.C,R2*
X31475703Y15041380D02*
X31475703Y13841380D01*
X33235703Y13841380D02*
X33235703Y15041380D01*
G04 #@! TO.C,R3*
X37235703Y13841380D02*
X37235703Y15041380D01*
X35475703Y15041380D02*
X35475703Y13841380D01*
G04 #@! TO.C,R4*
X25050000Y6421380D02*
X23850000Y6421380D01*
X23850000Y4661380D02*
X25050000Y4661380D01*
G04 #@! TO.C,R5*
X31850000Y11380000D02*
X30650000Y11380000D01*
X30650000Y9620000D02*
X31850000Y9620000D01*
G04 #@! TO.C,R6*
X31850000Y9421380D02*
X30650000Y9421380D01*
X30650000Y7661380D02*
X31850000Y7661380D01*
G04 #@! TO.C,R7*
X30650000Y5661380D02*
X31850000Y5661380D01*
X31850000Y7421380D02*
X30650000Y7421380D01*
D11*
G04 #@! TO.C,U1*
X15984217Y6162626D02*
X15984217Y6212626D01*
X20134217Y6162626D02*
X20134217Y6307626D01*
X20134217Y11312626D02*
X20134217Y11167626D01*
X15984217Y11312626D02*
X15984217Y11167626D01*
X15984217Y6162626D02*
X20134217Y6162626D01*
X15984217Y11312626D02*
X20134217Y11312626D01*
X15984217Y6212626D02*
X14584217Y6212626D01*
D10*
G04 #@! TO.C,U2*
X22745703Y13191380D02*
X22745703Y14991380D01*
X25965703Y14991380D02*
X25965703Y12541380D01*
D11*
G04 #@! TO.C,U4*
X38355703Y6541380D02*
X38355703Y10541380D01*
X38355703Y10541380D02*
X33355703Y10541380D01*
X33355703Y10541380D02*
X33355703Y6541380D01*
X33355703Y6541380D02*
X38355703Y6541380D01*
X38179310Y6941380D02*
G75*
G03X38179310Y6941380I-223607J0D01*
G01*
D10*
G04 #@! TO.C,C6*
X18300000Y4150000D02*
X17300000Y4150000D01*
X17300000Y5850000D02*
X18300000Y5850000D01*
G04 #@! TO.C,U5*
X10450000Y10635000D02*
X12250000Y10635000D01*
X12250000Y7415000D02*
X9800000Y7415000D01*
G04 #@! TO.C,R8*
X23830000Y8400000D02*
X23830000Y9600000D01*
X22070000Y9600000D02*
X22070000Y8400000D01*
G04 #@! TO.C,C8*
X20625000Y13741380D02*
X20625000Y14741380D01*
X22325000Y14741380D02*
X22325000Y13741380D01*
G04 #@! TO.C,D1*
X14000000Y16075000D02*
X10150000Y16075000D01*
X14000000Y14075000D02*
X10150000Y14075000D01*
X14000000Y16075000D02*
X14000000Y14075000D01*
G04 #@! TO.C,C7*
D11*
X14041666Y11392858D02*
X14089285Y11345239D01*
X14232142Y11297620D01*
X14327380Y11297620D01*
X14470238Y11345239D01*
X14565476Y11440477D01*
X14613095Y11535715D01*
X14660714Y11726191D01*
X14660714Y11869048D01*
X14613095Y12059524D01*
X14565476Y12154762D01*
X14470238Y12250000D01*
X14327380Y12297620D01*
X14232142Y12297620D01*
X14089285Y12250000D01*
X14041666Y12202381D01*
X13708333Y12297620D02*
X13041666Y12297620D01*
X13470238Y11297620D01*
G04 #@! TO.C,F1*
X15983333Y16358929D02*
X16316666Y16358929D01*
X16316666Y15835120D02*
X16316666Y16835120D01*
X15840476Y16835120D01*
X14935714Y15835120D02*
X15507142Y15835120D01*
X15221428Y15835120D02*
X15221428Y16835120D01*
X15316666Y16692262D01*
X15411904Y16597024D01*
X15507142Y16549405D01*
G04 #@! TO.C,C1*
X27516666Y16034238D02*
X27564285Y15986619D01*
X27707142Y15939000D01*
X27802380Y15939000D01*
X27945238Y15986619D01*
X28040476Y16081857D01*
X28088095Y16177095D01*
X28135714Y16367571D01*
X28135714Y16510428D01*
X28088095Y16700904D01*
X28040476Y16796142D01*
X27945238Y16891380D01*
X27802380Y16939000D01*
X27707142Y16939000D01*
X27564285Y16891380D01*
X27516666Y16843761D01*
X26564285Y15939000D02*
X27135714Y15939000D01*
X26850000Y15939000D02*
X26850000Y16939000D01*
X26945238Y16796142D01*
X27040476Y16700904D01*
X27135714Y16653285D01*
G04 #@! TO.C,C2*
X19741666Y16059238D02*
X19789285Y16011619D01*
X19932142Y15964000D01*
X20027380Y15964000D01*
X20170238Y16011619D01*
X20265476Y16106857D01*
X20313095Y16202095D01*
X20360714Y16392571D01*
X20360714Y16535428D01*
X20313095Y16725904D01*
X20265476Y16821142D01*
X20170238Y16916380D01*
X20027380Y16964000D01*
X19932142Y16964000D01*
X19789285Y16916380D01*
X19741666Y16868761D01*
X19360714Y16868761D02*
X19313095Y16916380D01*
X19217857Y16964000D01*
X18979761Y16964000D01*
X18884523Y16916380D01*
X18836904Y16868761D01*
X18789285Y16773523D01*
X18789285Y16678285D01*
X18836904Y16535428D01*
X19408333Y15964000D01*
X18789285Y15964000D01*
G04 #@! TO.C,C3*
X17816666Y16059238D02*
X17864285Y16011619D01*
X18007142Y15964000D01*
X18102380Y15964000D01*
X18245238Y16011619D01*
X18340476Y16106857D01*
X18388095Y16202095D01*
X18435714Y16392571D01*
X18435714Y16535428D01*
X18388095Y16725904D01*
X18340476Y16821142D01*
X18245238Y16916380D01*
X18102380Y16964000D01*
X18007142Y16964000D01*
X17864285Y16916380D01*
X17816666Y16868761D01*
X17483333Y16964000D02*
X16864285Y16964000D01*
X17197619Y16583047D01*
X17054761Y16583047D01*
X16959523Y16535428D01*
X16911904Y16487809D01*
X16864285Y16392571D01*
X16864285Y16154476D01*
X16911904Y16059238D01*
X16959523Y16011619D01*
X17054761Y15964000D01*
X17340476Y15964000D01*
X17435714Y16011619D01*
X17483333Y16059238D01*
G04 #@! TO.C,C4*
X29516666Y16009238D02*
X29564285Y15961619D01*
X29707142Y15914000D01*
X29802380Y15914000D01*
X29945238Y15961619D01*
X30040476Y16056857D01*
X30088095Y16152095D01*
X30135714Y16342571D01*
X30135714Y16485428D01*
X30088095Y16675904D01*
X30040476Y16771142D01*
X29945238Y16866380D01*
X29802380Y16914000D01*
X29707142Y16914000D01*
X29564285Y16866380D01*
X29516666Y16818761D01*
X28659523Y16580666D02*
X28659523Y15914000D01*
X28897619Y16961619D02*
X29135714Y16247333D01*
X28516666Y16247333D01*
G04 #@! TO.C,C5*
X33166666Y11537155D02*
X33214285Y11489536D01*
X33357142Y11441917D01*
X33452380Y11441917D01*
X33595238Y11489536D01*
X33690476Y11584774D01*
X33738095Y11680012D01*
X33785714Y11870488D01*
X33785714Y12013345D01*
X33738095Y12203821D01*
X33690476Y12299059D01*
X33595238Y12394297D01*
X33452380Y12441917D01*
X33357142Y12441917D01*
X33214285Y12394297D01*
X33166666Y12346678D01*
X32261904Y12441917D02*
X32738095Y12441917D01*
X32785714Y11965726D01*
X32738095Y12013345D01*
X32642857Y12060964D01*
X32404761Y12060964D01*
X32309523Y12013345D01*
X32261904Y11965726D01*
X32214285Y11870488D01*
X32214285Y11632393D01*
X32261904Y11537155D01*
X32309523Y11489536D01*
X32404761Y11441917D01*
X32642857Y11441917D01*
X32738095Y11489536D01*
X32785714Y11537155D01*
G04 #@! TO.C,R1*
X34416666Y15947620D02*
X34750000Y16423810D01*
X34988095Y15947620D02*
X34988095Y16947620D01*
X34607142Y16947620D01*
X34511904Y16900000D01*
X34464285Y16852381D01*
X34416666Y16757143D01*
X34416666Y16614286D01*
X34464285Y16519048D01*
X34511904Y16471429D01*
X34607142Y16423810D01*
X34988095Y16423810D01*
X33464285Y15947620D02*
X34035714Y15947620D01*
X33750000Y15947620D02*
X33750000Y16947620D01*
X33845238Y16804762D01*
X33940476Y16709524D01*
X34035714Y16661905D01*
G04 #@! TO.C,R2*
X32416666Y15947620D02*
X32750000Y16423810D01*
X32988095Y15947620D02*
X32988095Y16947620D01*
X32607142Y16947620D01*
X32511904Y16900000D01*
X32464285Y16852381D01*
X32416666Y16757143D01*
X32416666Y16614286D01*
X32464285Y16519048D01*
X32511904Y16471429D01*
X32607142Y16423810D01*
X32988095Y16423810D01*
X32035714Y16852381D02*
X31988095Y16900000D01*
X31892857Y16947620D01*
X31654761Y16947620D01*
X31559523Y16900000D01*
X31511904Y16852381D01*
X31464285Y16757143D01*
X31464285Y16661905D01*
X31511904Y16519048D01*
X32083333Y15947620D01*
X31464285Y15947620D01*
G04 #@! TO.C,R3*
X36416666Y15897620D02*
X36750000Y16373810D01*
X36988095Y15897620D02*
X36988095Y16897620D01*
X36607142Y16897620D01*
X36511904Y16850000D01*
X36464285Y16802381D01*
X36416666Y16707143D01*
X36416666Y16564286D01*
X36464285Y16469048D01*
X36511904Y16421429D01*
X36607142Y16373810D01*
X36988095Y16373810D01*
X36083333Y16897620D02*
X35464285Y16897620D01*
X35797619Y16516667D01*
X35654761Y16516667D01*
X35559523Y16469048D01*
X35511904Y16421429D01*
X35464285Y16326191D01*
X35464285Y16088096D01*
X35511904Y15992858D01*
X35559523Y15945239D01*
X35654761Y15897620D01*
X35940476Y15897620D01*
X36035714Y15945239D01*
X36083333Y15992858D01*
G04 #@! TO.C,R4*
X27116666Y5122620D02*
X27450000Y5598810D01*
X27688095Y5122620D02*
X27688095Y6122620D01*
X27307142Y6122620D01*
X27211904Y6075000D01*
X27164285Y6027381D01*
X27116666Y5932143D01*
X27116666Y5789286D01*
X27164285Y5694048D01*
X27211904Y5646429D01*
X27307142Y5598810D01*
X27688095Y5598810D01*
X26259523Y5789286D02*
X26259523Y5122620D01*
X26497619Y6170239D02*
X26735714Y5455953D01*
X26116666Y5455953D01*
G04 #@! TO.C,R5*
X29060963Y10006240D02*
X29394297Y10482430D01*
X29632392Y10006240D02*
X29632392Y11006240D01*
X29251439Y11006240D01*
X29156201Y10958620D01*
X29108582Y10911001D01*
X29060963Y10815763D01*
X29060963Y10672906D01*
X29108582Y10577668D01*
X29156201Y10530049D01*
X29251439Y10482430D01*
X29632392Y10482430D01*
X28156201Y11006240D02*
X28632392Y11006240D01*
X28680011Y10530049D01*
X28632392Y10577668D01*
X28537154Y10625287D01*
X28299058Y10625287D01*
X28203820Y10577668D01*
X28156201Y10530049D01*
X28108582Y10434811D01*
X28108582Y10196716D01*
X28156201Y10101478D01*
X28203820Y10053859D01*
X28299058Y10006240D01*
X28537154Y10006240D01*
X28632392Y10053859D01*
X28680011Y10101478D01*
G04 #@! TO.C,R6*
X29060963Y8047620D02*
X29394297Y8523810D01*
X29632392Y8047620D02*
X29632392Y9047620D01*
X29251439Y9047620D01*
X29156201Y9000000D01*
X29108582Y8952381D01*
X29060963Y8857143D01*
X29060963Y8714286D01*
X29108582Y8619048D01*
X29156201Y8571429D01*
X29251439Y8523810D01*
X29632392Y8523810D01*
X28203820Y9047620D02*
X28394297Y9047620D01*
X28489535Y9000000D01*
X28537154Y8952381D01*
X28632392Y8809524D01*
X28680011Y8619048D01*
X28680011Y8238096D01*
X28632392Y8142858D01*
X28584773Y8095239D01*
X28489535Y8047620D01*
X28299058Y8047620D01*
X28203820Y8095239D01*
X28156201Y8142858D01*
X28108582Y8238096D01*
X28108582Y8476191D01*
X28156201Y8571429D01*
X28203820Y8619048D01*
X28299058Y8666667D01*
X28489535Y8666667D01*
X28584773Y8619048D01*
X28632392Y8571429D01*
X28680011Y8476191D01*
G04 #@! TO.C,R7*
X29060963Y6047620D02*
X29394297Y6523810D01*
X29632392Y6047620D02*
X29632392Y7047620D01*
X29251439Y7047620D01*
X29156201Y7000000D01*
X29108582Y6952381D01*
X29060963Y6857143D01*
X29060963Y6714286D01*
X29108582Y6619048D01*
X29156201Y6571429D01*
X29251439Y6523810D01*
X29632392Y6523810D01*
X28727630Y7047620D02*
X28060963Y7047620D01*
X28489535Y6047620D01*
G04 #@! TO.C,U1*
X21736904Y5872620D02*
X21736904Y5063096D01*
X21689285Y4967858D01*
X21641666Y4920239D01*
X21546428Y4872620D01*
X21355952Y4872620D01*
X21260714Y4920239D01*
X21213095Y4967858D01*
X21165476Y5063096D01*
X21165476Y5872620D01*
X20165476Y4872620D02*
X20736904Y4872620D01*
X20451190Y4872620D02*
X20451190Y5872620D01*
X20546428Y5729762D01*
X20641666Y5634524D01*
X20736904Y5586905D01*
G04 #@! TO.C,U2*
X25011904Y16847620D02*
X25011904Y16038096D01*
X24964285Y15942858D01*
X24916666Y15895239D01*
X24821428Y15847620D01*
X24630952Y15847620D01*
X24535714Y15895239D01*
X24488095Y15942858D01*
X24440476Y16038096D01*
X24440476Y16847620D01*
X24011904Y16752381D02*
X23964285Y16800000D01*
X23869047Y16847620D01*
X23630952Y16847620D01*
X23535714Y16800000D01*
X23488095Y16752381D01*
X23440476Y16657143D01*
X23440476Y16561905D01*
X23488095Y16419048D01*
X24059523Y15847620D01*
X23440476Y15847620D01*
G04 #@! TO.C,U4*
X34861904Y6097620D02*
X34861904Y5288096D01*
X34814285Y5192858D01*
X34766666Y5145239D01*
X34671428Y5097620D01*
X34480952Y5097620D01*
X34385714Y5145239D01*
X34338095Y5192858D01*
X34290476Y5288096D01*
X34290476Y6097620D01*
X33385714Y5764286D02*
X33385714Y5097620D01*
X33623809Y6145239D02*
X33861904Y5430953D01*
X33242857Y5430953D01*
G04 #@! TO.C,C6*
X17916666Y3042858D02*
X17964285Y2995239D01*
X18107142Y2947620D01*
X18202380Y2947620D01*
X18345238Y2995239D01*
X18440476Y3090477D01*
X18488095Y3185715D01*
X18535714Y3376191D01*
X18535714Y3519048D01*
X18488095Y3709524D01*
X18440476Y3804762D01*
X18345238Y3900000D01*
X18202380Y3947620D01*
X18107142Y3947620D01*
X17964285Y3900000D01*
X17916666Y3852381D01*
X17059523Y3947620D02*
X17250000Y3947620D01*
X17345238Y3900000D01*
X17392857Y3852381D01*
X17488095Y3709524D01*
X17535714Y3519048D01*
X17535714Y3138096D01*
X17488095Y3042858D01*
X17440476Y2995239D01*
X17345238Y2947620D01*
X17154761Y2947620D01*
X17059523Y2995239D01*
X17011904Y3042858D01*
X16964285Y3138096D01*
X16964285Y3376191D01*
X17011904Y3471429D01*
X17059523Y3519048D01*
X17154761Y3566667D01*
X17345238Y3566667D01*
X17440476Y3519048D01*
X17488095Y3471429D01*
X17535714Y3376191D01*
G04 #@! TO.C,U5*
X12161904Y7047620D02*
X12161904Y6238096D01*
X12114285Y6142858D01*
X12066666Y6095239D01*
X11971428Y6047620D01*
X11780952Y6047620D01*
X11685714Y6095239D01*
X11638095Y6142858D01*
X11590476Y6238096D01*
X11590476Y7047620D01*
X10638095Y7047620D02*
X11114285Y7047620D01*
X11161904Y6571429D01*
X11114285Y6619048D01*
X11019047Y6666667D01*
X10780952Y6666667D01*
X10685714Y6619048D01*
X10638095Y6571429D01*
X10590476Y6476191D01*
X10590476Y6238096D01*
X10638095Y6142858D01*
X10685714Y6095239D01*
X10780952Y6047620D01*
X11019047Y6047620D01*
X11114285Y6095239D01*
X11161904Y6142858D01*
G04 #@! TO.C,R8*
X23166666Y10747620D02*
X23500000Y11223810D01*
X23738095Y10747620D02*
X23738095Y11747620D01*
X23357142Y11747620D01*
X23261904Y11700000D01*
X23214285Y11652381D01*
X23166666Y11557143D01*
X23166666Y11414286D01*
X23214285Y11319048D01*
X23261904Y11271429D01*
X23357142Y11223810D01*
X23738095Y11223810D01*
X22595238Y11319048D02*
X22690476Y11366667D01*
X22738095Y11414286D01*
X22785714Y11509524D01*
X22785714Y11557143D01*
X22738095Y11652381D01*
X22690476Y11700000D01*
X22595238Y11747620D01*
X22404761Y11747620D01*
X22309523Y11700000D01*
X22261904Y11652381D01*
X22214285Y11557143D01*
X22214285Y11509524D01*
X22261904Y11414286D01*
X22309523Y11366667D01*
X22404761Y11319048D01*
X22595238Y11319048D01*
X22690476Y11271429D01*
X22738095Y11223810D01*
X22785714Y11128572D01*
X22785714Y10938096D01*
X22738095Y10842858D01*
X22690476Y10795239D01*
X22595238Y10747620D01*
X22404761Y10747620D01*
X22309523Y10795239D01*
X22261904Y10842858D01*
X22214285Y10938096D01*
X22214285Y11128572D01*
X22261904Y11223810D01*
X22309523Y11271429D01*
X22404761Y11319048D01*
G04 #@! TO.C,C8*
X21741666Y16059238D02*
X21789285Y16011619D01*
X21932142Y15964000D01*
X22027380Y15964000D01*
X22170238Y16011619D01*
X22265476Y16106857D01*
X22313095Y16202095D01*
X22360714Y16392571D01*
X22360714Y16535428D01*
X22313095Y16725904D01*
X22265476Y16821142D01*
X22170238Y16916380D01*
X22027380Y16964000D01*
X21932142Y16964000D01*
X21789285Y16916380D01*
X21741666Y16868761D01*
X21170238Y16535428D02*
X21265476Y16583047D01*
X21313095Y16630666D01*
X21360714Y16725904D01*
X21360714Y16773523D01*
X21313095Y16868761D01*
X21265476Y16916380D01*
X21170238Y16964000D01*
X20979761Y16964000D01*
X20884523Y16916380D01*
X20836904Y16868761D01*
X20789285Y16773523D01*
X20789285Y16725904D01*
X20836904Y16630666D01*
X20884523Y16583047D01*
X20979761Y16535428D01*
X21170238Y16535428D01*
X21265476Y16487809D01*
X21313095Y16440190D01*
X21360714Y16344952D01*
X21360714Y16154476D01*
X21313095Y16059238D01*
X21265476Y16011619D01*
X21170238Y15964000D01*
X20979761Y15964000D01*
X20884523Y16011619D01*
X20836904Y16059238D01*
X20789285Y16154476D01*
X20789285Y16344952D01*
X20836904Y16440190D01*
X20884523Y16487809D01*
X20979761Y16535428D01*
G04 #@! TO.C,D1*
X13863095Y16372620D02*
X13863095Y17372620D01*
X13625000Y17372620D01*
X13482142Y17325000D01*
X13386904Y17229762D01*
X13339285Y17134524D01*
X13291666Y16944048D01*
X13291666Y16801191D01*
X13339285Y16610715D01*
X13386904Y16515477D01*
X13482142Y16420239D01*
X13625000Y16372620D01*
X13863095Y16372620D01*
X12339285Y16372620D02*
X12910714Y16372620D01*
X12625000Y16372620D02*
X12625000Y17372620D01*
X12720238Y17229762D01*
X12815476Y17134524D01*
X12910714Y17086905D01*
G04 #@! TD*
M02*
