G04 #@! TF.GenerationSoftware,KiCad,Pcbnew,5.0.2-bee76a0~70~ubuntu18.04.1*
G04 #@! TF.CreationDate,2020-01-26T10:23:02-05:00*
G04 #@! TF.ProjectId,ESP-AHT10-Extra,4553502d-4148-4543-9130-2d4578747261,1.4*
G04 #@! TF.SameCoordinates,PX7bfa480PY66c2270*
G04 #@! TF.FileFunction,Legend,Top*
G04 #@! TF.FilePolarity,Positive*
%FSLAX46Y46*%
G04 Gerber Fmt 4.6, Leading zero omitted, Abs format (unit mm)*
G04 Created by KiCad (PCBNEW 5.0.2-bee76a0~70~ubuntu18.04.1) date Sun 26 Jan 2020 10:23:02 AM EST*
%MOMM*%
%LPD*%
G01*
G04 APERTURE LIST*
%ADD10C,0.200000*%
%ADD11C,0.300000*%
%ADD12C,0.152400*%
%ADD13C,0.150000*%
G04 APERTURE END LIST*
D10*
X19045238Y12595239D02*
X18997619Y12690477D01*
X18997619Y12880953D01*
X19045238Y12976191D01*
X19092857Y13023810D01*
X19188095Y13071429D01*
X19473809Y13071429D01*
X19569047Y13023810D01*
X19616666Y12976191D01*
X19664285Y12880953D01*
X19664285Y12690477D01*
X19616666Y12595239D01*
X19664285Y12166667D02*
X18664285Y12166667D01*
X19616666Y12166667D02*
X19664285Y12071429D01*
X19664285Y11880953D01*
X19616666Y11785715D01*
X19569047Y11738096D01*
X19473809Y11690477D01*
X19188095Y11690477D01*
X19092857Y11738096D01*
X19045238Y11785715D01*
X18997619Y11880953D01*
X18997619Y12071429D01*
X19045238Y12166667D01*
X19045238Y10880953D02*
X18997619Y10976191D01*
X18997619Y11166667D01*
X19045238Y11261905D01*
X19140476Y11309524D01*
X19521428Y11309524D01*
X19616666Y11261905D01*
X19664285Y11166667D01*
X19664285Y10976191D01*
X19616666Y10880953D01*
X19521428Y10833334D01*
X19426190Y10833334D01*
X19330952Y11309524D01*
X18997619Y10404762D02*
X19664285Y10404762D01*
X19473809Y10404762D02*
X19569047Y10357143D01*
X19616666Y10309524D01*
X19664285Y10214286D01*
X19664285Y10119048D01*
X18997619Y9785715D02*
X19664285Y9785715D01*
X19997619Y9785715D02*
X19950000Y9833334D01*
X19902380Y9785715D01*
X19950000Y9738096D01*
X19997619Y9785715D01*
X19902380Y9785715D01*
X18997619Y9166667D02*
X19045238Y9261905D01*
X19092857Y9309524D01*
X19188095Y9357143D01*
X19473809Y9357143D01*
X19569047Y9309524D01*
X19616666Y9261905D01*
X19664285Y9166667D01*
X19664285Y9023810D01*
X19616666Y8928572D01*
X19569047Y8880953D01*
X19473809Y8833334D01*
X19188095Y8833334D01*
X19092857Y8880953D01*
X19045238Y8928572D01*
X18997619Y9023810D01*
X18997619Y9166667D01*
X18997619Y7976191D02*
X19997619Y7976191D01*
X19045238Y7976191D02*
X18997619Y8071429D01*
X18997619Y8261905D01*
X19045238Y8357143D01*
X19092857Y8404762D01*
X19188095Y8452381D01*
X19473809Y8452381D01*
X19569047Y8404762D01*
X19616666Y8357143D01*
X19664285Y8261905D01*
X19664285Y8071429D01*
X19616666Y7976191D01*
X18202380Y12214286D02*
X18250000Y12166667D01*
X18297619Y12071429D01*
X18297619Y11833334D01*
X18250000Y11738096D01*
X18202380Y11690477D01*
X18107142Y11642858D01*
X18011904Y11642858D01*
X17869047Y11690477D01*
X17297619Y12261905D01*
X17297619Y11642858D01*
X18297619Y11023810D02*
X18297619Y10928572D01*
X18250000Y10833334D01*
X18202380Y10785715D01*
X18107142Y10738096D01*
X17916666Y10690477D01*
X17678571Y10690477D01*
X17488095Y10738096D01*
X17392857Y10785715D01*
X17345238Y10833334D01*
X17297619Y10928572D01*
X17297619Y11023810D01*
X17345238Y11119048D01*
X17392857Y11166667D01*
X17488095Y11214286D01*
X17678571Y11261905D01*
X17916666Y11261905D01*
X18107142Y11214286D01*
X18202380Y11166667D01*
X18250000Y11119048D01*
X18297619Y11023810D01*
X17297619Y9738096D02*
X17297619Y10309524D01*
X17297619Y10023810D02*
X18297619Y10023810D01*
X18154761Y10119048D01*
X18059523Y10214286D01*
X18011904Y10309524D01*
X17297619Y9261905D02*
X17297619Y9071429D01*
X17345238Y8976191D01*
X17392857Y8928572D01*
X17535714Y8833334D01*
X17726190Y8785715D01*
X18107142Y8785715D01*
X18202380Y8833334D01*
X18250000Y8880953D01*
X18297619Y8976191D01*
X18297619Y9166667D01*
X18250000Y9261905D01*
X18202380Y9309524D01*
X18107142Y9357143D01*
X17869047Y9357143D01*
X17773809Y9309524D01*
X17726190Y9261905D01*
X17678571Y9166667D01*
X17678571Y8976191D01*
X17726190Y8880953D01*
X17773809Y8833334D01*
X17869047Y8785715D01*
X16264285Y11928572D02*
X15597619Y11690477D01*
X16264285Y11452381D01*
X15597619Y10547620D02*
X15597619Y11119048D01*
X15597619Y10833334D02*
X16597619Y10833334D01*
X16454761Y10928572D01*
X16359523Y11023810D01*
X16311904Y11119048D01*
X15692857Y10119048D02*
X15645238Y10071429D01*
X15597619Y10119048D01*
X15645238Y10166667D01*
X15692857Y10119048D01*
X15597619Y10119048D01*
X16597619Y9166667D02*
X16597619Y9642858D01*
X16121428Y9690477D01*
X16169047Y9642858D01*
X16216666Y9547620D01*
X16216666Y9309524D01*
X16169047Y9214286D01*
X16121428Y9166667D01*
X16026190Y9119048D01*
X15788095Y9119048D01*
X15692857Y9166667D01*
X15645238Y9214286D01*
X15597619Y9309524D01*
X15597619Y9547620D01*
X15645238Y9642858D01*
X15692857Y9690477D01*
D11*
X18642857Y6178572D02*
X18642857Y4678572D01*
X18071428Y4678572D01*
X17928571Y4750000D01*
X17857142Y4821429D01*
X17785714Y4964286D01*
X17785714Y5178572D01*
X17857142Y5321429D01*
X17928571Y5392858D01*
X18071428Y5464286D01*
X18642857Y5464286D01*
X16285714Y6178572D02*
X16785714Y5464286D01*
X17142857Y6178572D02*
X17142857Y4678572D01*
X16571428Y4678572D01*
X16428571Y4750000D01*
X16357142Y4821429D01*
X16285714Y4964286D01*
X16285714Y5178572D01*
X16357142Y5321429D01*
X16428571Y5392858D01*
X16571428Y5464286D01*
X17142857Y5464286D01*
X14857142Y4750000D02*
X15000000Y4678572D01*
X15214285Y4678572D01*
X15428571Y4750000D01*
X15571428Y4892858D01*
X15642857Y5035715D01*
X15714285Y5321429D01*
X15714285Y5535715D01*
X15642857Y5821429D01*
X15571428Y5964286D01*
X15428571Y6107143D01*
X15214285Y6178572D01*
X15071428Y6178572D01*
X14857142Y6107143D01*
X14785714Y6035715D01*
X14785714Y5535715D01*
X15071428Y5535715D01*
X15928571Y14571429D02*
X15428571Y15285715D01*
X15071428Y14571429D02*
X15071428Y16071429D01*
X15642857Y16071429D01*
X15785714Y16000000D01*
X15857142Y15928572D01*
X15928571Y15785715D01*
X15928571Y15571429D01*
X15857142Y15428572D01*
X15785714Y15357143D01*
X15642857Y15285715D01*
X15071428Y15285715D01*
X16500000Y14642858D02*
X16714285Y14571429D01*
X17071428Y14571429D01*
X17214285Y14642858D01*
X17285714Y14714286D01*
X17357142Y14857143D01*
X17357142Y15000000D01*
X17285714Y15142858D01*
X17214285Y15214286D01*
X17071428Y15285715D01*
X16785714Y15357143D01*
X16642857Y15428572D01*
X16571428Y15500000D01*
X16500000Y15642858D01*
X16500000Y15785715D01*
X16571428Y15928572D01*
X16642857Y16000000D01*
X16785714Y16071429D01*
X17142857Y16071429D01*
X17357142Y16000000D01*
X17785714Y16071429D02*
X18642857Y16071429D01*
X18214285Y14571429D02*
X18214285Y16071429D01*
X10857142Y15214286D02*
X10857142Y14714286D01*
X10071428Y14500000D02*
X10071428Y15214286D01*
X11571428Y15214286D01*
X11571428Y14500000D01*
X10142857Y13928572D02*
X10071428Y13714286D01*
X10071428Y13357143D01*
X10142857Y13214286D01*
X10214285Y13142858D01*
X10357142Y13071429D01*
X10500000Y13071429D01*
X10642857Y13142858D01*
X10714285Y13214286D01*
X10785714Y13357143D01*
X10857142Y13642858D01*
X10928571Y13785715D01*
X11000000Y13857143D01*
X11142857Y13928572D01*
X11285714Y13928572D01*
X11428571Y13857143D01*
X11500000Y13785715D01*
X11571428Y13642858D01*
X11571428Y13285715D01*
X11500000Y13071429D01*
X10071428Y12428572D02*
X11571428Y12428572D01*
X11571428Y11857143D01*
X11500000Y11714286D01*
X11428571Y11642858D01*
X11285714Y11571429D01*
X11071428Y11571429D01*
X10928571Y11642858D01*
X10857142Y11714286D01*
X10785714Y11857143D01*
X10785714Y12428572D01*
X10642857Y10928572D02*
X10642857Y9785715D01*
X10071428Y10357143D02*
X11214285Y10357143D01*
X10500000Y9142858D02*
X10500000Y8428572D01*
X10071428Y9285715D02*
X11571428Y8785715D01*
X10071428Y8285715D01*
X10071428Y7785715D02*
X11571428Y7785715D01*
X10857142Y7785715D02*
X10857142Y6928572D01*
X10071428Y6928572D02*
X11571428Y6928572D01*
X11571428Y6428572D02*
X11571428Y5571429D01*
X10071428Y6000000D02*
X11571428Y6000000D01*
D12*
G04 #@! TO.C,U3*
X21350217Y18453626D02*
X20588217Y18453626D01*
X20588217Y18453626D02*
X20588217Y2451626D01*
X20588217Y2451626D02*
X21350217Y2451626D01*
D13*
G04 #@! TO.C,SW1*
X15250000Y19000000D02*
X15250000Y18000000D01*
X18250000Y19000000D02*
X15250000Y19000000D01*
X18250000Y18000000D02*
X18250000Y19000000D01*
X15250000Y18000000D02*
X18250000Y18000000D01*
X19750000Y20250000D02*
X19750000Y19750000D01*
X13750000Y20250000D02*
X19750000Y20250000D01*
X13750000Y19750000D02*
X13750000Y20250000D01*
X19750000Y16750000D02*
X19750000Y17250000D01*
X13750000Y16750000D02*
X19750000Y16750000D01*
X13750000Y17250000D02*
X13750000Y16750000D01*
G04 #@! TO.C,SW2*
X19750000Y3500000D02*
X19750000Y4000000D01*
X19750000Y4000000D02*
X13750000Y4000000D01*
X13750000Y4000000D02*
X13750000Y3500000D01*
X19750000Y1000000D02*
X19750000Y500000D01*
X19750000Y500000D02*
X13750000Y500000D01*
X13750000Y500000D02*
X13750000Y1000000D01*
X18250000Y2750000D02*
X15250000Y2750000D01*
X15250000Y2750000D02*
X15250000Y1750000D01*
X15250000Y1750000D02*
X18250000Y1750000D01*
X18250000Y1750000D02*
X18250000Y2750000D01*
G04 #@! TD*
M02*
