M48
;DRILL file {KiCad 5.0.2-bee76a0~70~ubuntu18.04.1} date Sat 09 Nov 2019 09:29:24 PM EST
;FORMAT={-:-/ absolute / metric / decimal}
FMAT,2
METRIC,TZ
T1C0.650
T2C0.800
T3C1.000
%
G90
G05
T1
X22.209Y17.438
X22.209Y3.438
X24.209Y17.438
X24.209Y3.438
X26.209Y17.438
X26.209Y3.438
X28.209Y17.438
X28.209Y3.438
X30.209Y17.438
X30.209Y3.438
X32.209Y17.438
X32.209Y3.438
X34.209Y17.438
X34.209Y3.438
X36.209Y17.438
X36.209Y3.438
T2
X13.294Y4.36
X13.6Y16.6
X13.95Y13.45
X18.7Y16.3
X18.8Y12.
X23.13Y9.138
X24.45Y9.95
X28.2Y4.9
X34.1Y4.6
X35.95Y5.15
T3
X13.45Y18.5
X20.05Y18.5
X13.45Y2.25
X20.05Y2.25
T0
M30
